<svg width="25" height="24" viewBox="0 0 25 24" fill="none" xmlns="http://www.w3.org/2000/svg">
<path d="M22.6955 5.272L19.1168 1.757C17.9633 0.624 16.429 0 14.798 0H9.73706C8.10606 0 6.57177 0.624 5.41724 1.757L1.83861 5.272C0.685101 6.406 0.0498047 7.913 0.0498047 9.515V14.486C0.0498047 16.088 0.685101 17.595 1.83861 18.729L5.41724 22.244C6.57177 23.377 8.10606 24.001 9.73706 24.001H14.798C16.4301 24.001 17.9633 23.377 19.1168 22.244L22.6955 18.73C23.85 17.597 24.4853 16.09 24.4853 14.487V9.516C24.4853 7.913 23.85 6.405 22.6955 5.272ZM16.7874 15.061C17.1855 15.452 17.1855 16.084 16.7874 16.475C16.5889 16.67 16.3283 16.768 16.0676 16.768C15.807 16.768 15.5464 16.67 15.3478 16.475L12.2497 13.432L9.15165 16.475C8.95312 16.67 8.69248 16.768 8.43185 16.768C8.17121 16.768 7.91058 16.67 7.71205 16.475C7.31397 16.084 7.31397 15.452 7.71205 15.061L10.8101 12.018L7.71205 8.975C7.31397 8.584 7.31397 7.952 7.71205 7.561C8.11013 7.17 8.75357 7.17 9.15165 7.561L12.2497 10.604L15.3478 7.561C15.7459 7.17 16.3893 7.17 16.7874 7.561C17.1855 7.952 17.1855 8.584 16.7874 8.975L13.6893 12.018L16.7874 15.061Z" fill="#721C24"/>
</svg>
