<svg width="25" height="30" viewBox="0 0 25 30" fill="none" xmlns="http://www.w3.org/2000/svg">
<path d="M20.5859 2.83251L12.8265 0.254639C12.5724 0.170329 12.2978 0.170329 12.0438 0.254639L4.28435 2.83251C3.05065 3.24083 1.97748 4.02613 1.2173 5.07685C0.457126 6.12756 0.0486136 7.39024 0.0498073 8.68549V15C0.0498073 24.3329 11.4443 29.4874 11.9323 29.7021C12.0906 29.7722 12.2619 29.8084 12.4351 29.8084C12.6084 29.8084 12.7797 29.7722 12.938 29.7021C13.426 29.4874 24.8204 24.3329 24.8204 15V8.68549C24.8216 7.39024 24.4131 6.12756 23.653 5.07685C22.8928 4.02613 21.8196 3.24083 20.5859 2.83251ZM18.2785 12.1827L12.9875 17.4545C12.771 17.6716 12.5133 17.8438 12.2295 17.9609C11.9457 18.0781 11.6413 18.1379 11.3341 18.1369H11.2932C10.9797 18.1321 10.6705 18.064 10.3841 17.9367C10.0978 17.8095 9.84037 17.6257 9.62737 17.3965L6.77132 14.4348C6.64763 14.3205 6.54869 14.1821 6.48058 14.0283C6.41246 13.8745 6.37661 13.7085 6.37521 13.5404C6.37382 13.3723 6.40691 13.2057 6.47246 13.0507C6.53802 12.8958 6.63464 12.7559 6.75642 12.6395C6.87819 12.5232 7.02255 12.4328 7.18063 12.374C7.3387 12.3153 7.50717 12.2893 7.67568 12.2977C7.8442 12.3061 8.00921 12.3487 8.1606 12.423C8.31199 12.4972 8.44655 12.6015 8.55604 12.7294L11.3353 15.617L16.5223 10.4341C16.7559 10.2093 17.0687 10.0849 17.3935 10.0877C17.7182 10.0906 18.0288 10.2203 18.2585 10.4491C18.4881 10.6779 18.6184 10.9874 18.6212 11.311C18.624 11.6346 18.4992 11.9463 18.2736 12.179L18.2785 12.1827Z" fill="#155724"/>
</svg>
