<?xml version="1.0" encoding="UTF-8"?>
<svg version="1.1" xmlns="http://www.w3.org/2000/svg" width="512" height="512">
<path d="M0 0 C1.20866226 -0.01073296 1.20866226 -0.01073296 2.44174194 -0.02168274 C3.31710098 -0.02437164 4.19246002 -0.02706055 5.09434509 -0.02983093 C6.02335632 -0.03640213 6.95236755 -0.04297333 7.90953064 -0.04974365 C10.98407578 -0.06945217 14.05857205 -0.08113592 17.13316345 -0.09111023 C18.18592405 -0.09518576 19.23868465 -0.09926128 20.32334709 -0.10346031 C25.89919208 -0.12431398 31.47501253 -0.13861687 37.05088806 -0.147995 C42.79164187 -0.15903763 48.53200575 -0.19341504 54.27262211 -0.23316669 C58.70207405 -0.25939977 63.13143418 -0.26769294 67.56095695 -0.27127647 C69.67590902 -0.27612775 71.7908574 -0.28769978 73.90573311 -0.30631447 C99.19544354 -0.51501356 99.19544354 -0.51501356 108.9105072 7.70967102 C109.6117572 8.28846008 110.3130072 8.86724915 111.0355072 9.46357727 C114.58019046 12.64640745 114.58019046 12.64640745 115.9105072 14.14717102 C115.9105072 14.80717102 115.9105072 15.46717102 115.9105072 16.14717102 C116.59129837 16.13828857 117.27208954 16.12940613 117.97351074 16.12025452 C125.12877411 16.03101438 132.28387665 15.97112195 139.43955994 15.92744446 C142.10199311 15.90974318 144.76353853 15.8802732 147.42588806 15.84541321 C172.90672847 15.5203903 192.00296643 17.76033349 211.0667572 36.23701477 C223.93954189 49.92672618 229.41875393 66.65155833 229.9105072 85.14717102 C229.51531905 95.51326024 226.73161029 104.59234336 222.9105072 114.14717102 C207.66896202 152.31210873 198.89269699 190.10185268 198.0042572 231.28242493 C197.91087588 234.1359053 197.71817083 236.96840494 197.5042572 239.81513977 C196.66563666 248.84006771 196.66563666 248.84006771 199.8948822 256.91670227 C202.46356168 258.95218616 205.05561196 260.54574667 207.9105072 262.14717102 C219.30802004 271.27435434 226.72539493 286.87412743 228.9105072 301.14717102 C229.02892994 304.41916253 229.00474199 307.68610576 228.9730072 310.95967102 C228.96849548 311.84332336 228.96398376 312.72697571 228.95933533 313.6374054 C228.94760586 315.80735661 228.92967215 317.97727274 228.9105072 320.14717102 C229.75353394 320.13828857 230.59656067 320.12940613 231.46513367 320.12025452 C239.41054913 320.04010052 247.35582878 319.97920261 255.30155563 319.93992233 C259.3865509 319.91904891 263.47121205 319.89073639 267.55601501 319.84541321 C271.49825066 319.80194572 275.44016497 319.77803207 279.38262177 319.76766205 C280.88655404 319.7602722 282.39046877 319.74584135 283.89426422 319.72425079 C286.0013018 319.6952029 288.10701249 319.69121531 290.21421814 319.69306946 C291.41334839 319.68418701 292.61247864 319.67530457 293.84794617 319.66615295 C297.53199957 320.24478509 298.70600237 321.1884407 300.9105072 324.14717102 C301.36460876 327.17158508 301.36460876 327.17158508 301.3011322 330.66279602 C301.28179626 332.53838196 301.28179626 332.53838196 301.2620697 334.45185852 C301.21179626 336.40478821 301.21179626 336.40478821 301.1605072 338.39717102 C301.14246033 339.7145929 301.12441345 341.03201477 301.1058197 342.38935852 C301.05866991 345.6426941 300.99286764 348.89456727 300.9105072 352.14717102 C301.73035095 352.10076477 302.5501947 352.05435852 303.3948822 352.00654602 C304.47253845 351.97045227 305.5501947 351.93435852 306.6605072 351.89717102 C307.72785095 351.85076477 308.7951947 351.80435852 309.8948822 351.75654602 C313.67496712 352.24619433 314.56888949 353.19925957 316.9105072 356.14717102 C317.41844177 358.72724915 317.41844177 358.72724915 317.42808533 361.67842102 C317.44069397 362.78637024 317.45330261 363.89431946 317.46629333 365.0358429 C317.45414795 366.82345032 317.45414795 366.82345032 317.4417572 368.64717102 C317.44558411 369.87500305 317.44941101 371.10283508 317.45335388 372.36787415 C317.45607562 374.96358561 317.44869631 377.55932438 317.43199158 380.15498352 C317.41058795 384.13216701 317.43178683 388.10754384 317.4573822 392.08467102 C317.45473898 394.60550835 317.44961411 397.12634455 317.4417572 399.64717102 C317.44985413 400.8389093 317.45795105 402.03064758 317.46629333 403.25849915 C317.45368469 404.36644836 317.44107605 405.47439758 317.42808533 406.61592102 C317.42490295 407.58980774 317.42172058 408.56369446 317.41844177 409.5670929 C316.76731981 412.87449826 315.51315226 414.0723851 312.9105072 416.14717102 C310.62046814 416.60127258 310.62046814 416.60127258 308.1448822 416.53779602 C306.81070251 416.51846008 306.81070251 416.51846008 305.4495697 416.49873352 C304.52917908 416.4652179 303.60878845 416.43170227 302.6605072 416.39717102 C301.72464783 416.37912415 300.78878845 416.36107727 299.8245697 416.34248352 C297.51944282 416.29544011 295.21484366 416.2236988 292.9105072 416.14717102 C292.9105072 421.42717102 292.9105072 426.70717102 292.9105072 432.14717102 C294.8905072 432.47717102 296.8705072 432.80717102 298.9105072 433.14717102 C301.36090428 436.82276664 301.17450635 438.64796087 301.20103455 443.03364563 C301.20775177 443.72991562 301.21446899 444.42618561 301.22138977 445.14355469 C301.24039045 447.44561393 301.24429483 449.747382 301.2464447 452.04951477 C301.25287078 453.64990357 301.259599 455.25029118 301.26661682 456.85067749 C301.27859444 460.2056399 301.28229711 463.56049929 301.28111267 466.91548157 C301.28090935 471.21431966 301.30822189 475.5124976 301.34265709 479.81117916 C301.36489448 483.11660801 301.36895121 486.42187712 301.36789322 489.72737312 C301.37025355 491.31221863 301.37910144 492.89706825 301.39455795 494.48184013 C301.41415699 496.6987979 301.40840568 498.91432098 301.39634705 501.13130188 C301.39919708 502.39244308 301.40204712 503.65358429 301.40498352 504.95294189 C300.82382819 508.70710206 299.89364952 509.87601125 296.9105072 512.14717102 C294.16780048 512.87570249 291.68279443 512.71526267 288.9105072 512.14717102 C286.4105072 510.39717102 286.4105072 510.39717102 284.9105072 508.14717102 C284.9105072 506.82717102 284.9105072 505.50717102 284.9105072 504.14717102 C137.0705072 504.14717102 -10.7694928 504.14717102 -163.0894928 504.14717102 C-163.4194928 506.12717102 -163.7494928 508.10717102 -164.0894928 510.14717102 C-167.30385809 512.29008121 -169.26375889 512.44742893 -173.05433655 512.60810852 C-176.16844097 511.90280272 -177.16937155 510.69975059 -179.0894928 508.14717102 C-179.67225326 505.18191425 -179.59482121 502.26088609 -179.54359436 499.24775696 C-179.54417847 498.34984436 -179.54476257 497.45193176 -179.54536438 496.52680969 C-179.54257947 493.56132743 -179.51146814 490.59685251 -179.4801178 487.63154602 C-179.47265686 485.57460581 -179.46696323 483.51765848 -179.46296692 481.46070862 C-179.44769907 476.0485418 -179.40840705 470.63680481 -179.364151 465.22480774 C-179.32322328 459.70159215 -179.30496123 454.17830706 -179.2848053 448.65498352 C-179.24191416 437.81885724 -179.17364866 426.98304988 -179.0894928 416.14717102 C-179.90933655 416.19357727 -180.7291803 416.23998352 -181.5738678 416.28779602 C-182.65152405 416.32388977 -183.7291803 416.35998352 -184.8394928 416.39717102 C-185.90683655 416.44357727 -186.9741803 416.48998352 -188.0738678 416.53779602 C-191.0894928 416.14717102 -191.0894928 416.14717102 -193.44776917 414.47724915 C-195.45589814 411.62713643 -195.59574417 410.08219363 -195.60707092 406.61592102 C-195.61967957 405.5079718 -195.63228821 404.40002258 -195.64527893 403.25849915 C-195.63718201 402.06676086 -195.62908508 400.87502258 -195.6207428 399.64717102 C-195.6245697 398.41933899 -195.62839661 397.19150696 -195.63233948 395.9264679 C-195.63506121 393.33075643 -195.62768191 390.73501766 -195.61097717 388.13935852 C-195.58957354 384.16217503 -195.61077242 380.1867982 -195.6363678 376.20967102 C-195.63372457 373.68883369 -195.6285997 371.16799749 -195.6207428 368.64717102 C-195.63288818 366.8595636 -195.63288818 366.8595636 -195.64527893 365.0358429 C-195.62636597 363.37391907 -195.62636597 363.37391907 -195.60707092 361.67842102 C-195.60388855 360.7045343 -195.60070618 359.73064758 -195.59742737 358.72724915 C-194.91221863 355.24669837 -194.0270437 354.14193298 -191.0894928 352.14717102 C-188.2354578 351.77309778 -185.77382517 351.63992704 -182.92445374 351.69306946 C-182.1045697 351.69248535 -181.28468567 351.69190125 -180.43995667 351.69129944 C-177.73416069 351.69408272 -175.02947094 351.72518553 -172.3238678 351.75654602 C-170.4462901 351.76400756 -168.56870461 351.7697009 -166.69111633 351.7736969 C-161.75240021 351.78896011 -156.8141556 351.82824789 -151.87562561 351.87251282 C-146.83500039 351.91345067 -141.79429889 351.93170474 -136.7535553 351.95185852 C-126.86532745 351.99474143 -116.97744935 352.06300114 -107.0894928 352.14717102 C-107.09948555 351.2287442 -107.09948555 351.2287442 -107.10968018 350.29176331 C-107.17651823 343.86682942 -107.22149272 337.44199576 -107.25428772 331.01679993 C-107.26928993 328.62515749 -107.28969826 326.23354217 -107.31581116 323.84199524 C-107.35257323 320.38636038 -107.36930544 316.9310921 -107.38246155 313.47529602 C-107.3979454 312.4216687 -107.41342926 311.36804138 -107.42938232 310.28248596 C-107.43309317 293.57578143 -101.13984088 278.5975632 -90.0894928 266.14717102 C-89.32765686 265.24611633 -89.32765686 265.24611633 -88.5504303 264.32685852 C-82.96988541 258.19650626 -75.46099411 253.83292168 -68.0894928 250.14717102 C-68.0894928 244.20717102 -68.0894928 238.26717102 -68.0894928 232.14717102 C-69.7394928 231.81717102 -71.3894928 231.48717102 -73.0894928 231.14717102 C-77.30954381 226.71142851 -76.69108669 220.47523505 -76.9644928 214.70967102 C-79.36526685 176.97675052 -89.24423822 141.4135627 -104.0450592 106.75776672 C-110.50863423 90.60185094 -108.66270157 72.38192861 -102.56214905 56.46357727 C-94.74705606 38.86407079 -80.84335863 26.25891751 -63.1363678 19.11982727 C-54.81296435 16.46274079 -47.26041827 15.88529998 -38.5269928 16.02217102 C-36.87086975 16.03570618 -36.87086975 16.03570618 -35.18128967 16.04951477 C-32.4837911 16.07286974 -29.78676202 16.10562048 -27.0894928 16.14717102 C-26.63703186 15.20442322 -26.63703186 15.20442322 -26.1754303 14.24263 C-22.69197027 7.52083652 -14.76423248 3.95346861 -8.0894928 1.14717102 C-5.33221933 0.34182138 -2.86832316 0.0175779 0 0 Z " fill="#010100" transform="translate(195.08949279785156,-0.1471710205078125)"/>
<path d="M0 0 C150.48 0 300.96 0 456 0 C456 5.28 456 10.56 456 16 C457.98 16.33 459.96 16.66 462 17 C464.45039708 20.67559562 464.26399915 22.50078985 464.29052734 26.88647461 C464.29724457 27.5827446 464.30396179 28.27901459 464.31088257 28.99638367 C464.32988325 31.29844291 464.33378763 33.60021098 464.3359375 35.90234375 C464.34236358 37.50273255 464.34909179 39.10312016 464.35610962 40.70350647 C464.36808724 44.05846887 464.37178991 47.41332827 464.37060547 50.76831055 C464.37040215 55.06714864 464.39771468 59.36532658 464.43214989 63.66400814 C464.45438728 66.96943699 464.45844401 70.2747061 464.45738602 73.5802021 C464.45974635 75.16504761 464.46859424 76.74989723 464.48405075 78.33466911 C464.50364979 80.55162688 464.49789847 82.76714996 464.48583984 84.98413086 C464.48868988 86.24527206 464.49153992 87.50641327 464.49447632 88.80577087 C463.91332098 92.55993104 462.98314231 93.72884023 460 96 C457.25729328 96.72853147 454.77228723 96.56809165 452 96 C449.5 94.25 449.5 94.25 448 92 C448 90.68 448 89.36 448 88 C300.16 88 152.32 88 0 88 C0 58.96 0 29.92 0 0 Z " fill="#E28242" transform="translate(32,416)"/>
<path d="M0 0 C150.48 0 300.96 0 456 0 C456 5.28 456 10.56 456 16 C457.98 16.33 459.96 16.66 462 17 C464.45039708 20.67559562 464.26399915 22.50078985 464.29052734 26.88647461 C464.29724457 27.5827446 464.30396179 28.27901459 464.31088257 28.99638367 C464.32988325 31.29844291 464.33378763 33.60021098 464.3359375 35.90234375 C464.34236358 37.50273255 464.34909179 39.10312016 464.35610962 40.70350647 C464.36808724 44.05846887 464.37178991 47.41332827 464.37060547 50.76831055 C464.37040215 55.06714864 464.39771468 59.36532658 464.43214989 63.66400814 C464.45438728 66.96943699 464.45844401 70.2747061 464.45738602 73.5802021 C464.45974635 75.16504761 464.46859424 76.74989723 464.48405075 78.33466911 C464.50364979 80.55162688 464.49789847 82.76714996 464.48583984 84.98413086 C464.48868988 86.24527206 464.49153992 87.50641327 464.49447632 88.80577087 C463.91332098 92.55993104 462.98314231 93.72884023 460 96 C457.25729328 96.72853147 454.77228723 96.56809165 452 96 C449.5 94.25 449.5 94.25 448 92 C448 90.68 448 89.36 448 88 C300.16 88 152.32 88 0 88 C0 80.08 0 72.16 0 64 C147.84 64 295.68 64 448 64 C448 49.81 448 35.62 448 21 C449.485 19.02 449.485 19.02 451 17 C302.17 16.67 153.34 16.34 0 16 C0 10.72 0 5.44 0 0 Z " fill="#DF6117" transform="translate(32,416)"/>
<path d="M0 0 C158.4 0 316.8 0 480 0 C480 10.56 480 21.12 480 32 C321.6 32 163.2 32 0 32 C0 21.44 0 10.88 0 0 Z " fill="#D08840" transform="translate(16,368)"/>
<path d="M0 0 C1.89745972 0.01015137 1.89745972 0.01015137 3.83325195 0.02050781 C5.28284302 0.03355957 5.28284302 0.03355957 6.76171875 0.046875 C6.8779021 8.64433741 6.96657927 17.24146829 7.02077961 25.83952332 C7.04680182 29.8325893 7.08206251 33.82511563 7.13891602 37.81787109 C7.19350264 41.67585504 7.22319469 45.53332208 7.23610497 49.3916626 C7.24529746 50.85882701 7.26324828 52.32596519 7.29036903 53.79290771 C7.43990062 62.2211367 7.14474197 68.27743974 1.76171875 75.046875 C-1.69246944 83.42511869 -1.36595415 92.11304216 1.94921875 100.484375 C6.14598887 109.39371938 11.65884031 114.50400898 20.76171875 118.296875 C24.43124703 119.21425707 27.99944006 119.65767376 31.76171875 120.046875 C31.90867187 120.89507812 32.055625 121.74328125 32.20703125 122.6171875 C35.72029642 140.99116049 43.74039725 155.53822719 57.76171875 168.046875 C58.42171875 168.376875 59.08171875 168.706875 59.76171875 169.046875 C59.50206807 170.73613178 59.22835209 172.42322805 58.94921875 174.109375 C58.72298828 175.51896484 58.72298828 175.51896484 58.4921875 176.95703125 C56.36558939 185.95242755 56.36558939 185.95242755 52.96931458 188.26997375 C50.59796351 189.38139718 48.21040454 190.31347654 45.75 191.2109375 C44.84101456 191.56583252 43.93202911 191.92072754 42.99549866 192.28637695 C40.0302094 193.43838629 37.05290656 194.55502346 34.07421875 195.671875 C32.03302105 196.45754124 29.99282191 197.24580654 27.95361328 198.03662109 C23.85008182 199.62634006 19.74257964 201.20510034 15.63232422 202.77734375 C10.31510276 204.8209533 5.03271541 206.94015994 -0.234375 209.109375 C-0.98303329 209.41749115 -1.73169159 209.7256073 -2.5030365 210.0430603 C-5.30447619 211.19827748 -8.10458594 212.35663644 -10.90292358 213.51934814 C-12.77583279 214.29613557 -14.65151342 215.06623095 -16.52734375 215.8359375 C-17.56584473 216.26600098 -18.6043457 216.69606445 -19.67431641 217.13916016 C-22.23828125 218.046875 -22.23828125 218.046875 -25.23828125 218.046875 C-25.56828125 212.106875 -25.89828125 206.166875 -26.23828125 200.046875 C-22.77328125 199.056875 -22.77328125 199.056875 -19.23828125 198.046875 C-16.04698795 187.56778777 -18.52899351 175.00685625 -19.86328125 164.359375 C-19.95064545 163.64921234 -20.03800964 162.93904968 -20.12802124 162.20736694 C-23.72434443 133.35520206 -31.82877144 106.40916616 -42.33349609 79.39013672 C-43.65175241 75.97604495 -44.92360724 72.54834282 -46.17578125 69.109375 C-46.55605469 68.06910156 -46.93632813 67.02882813 -47.328125 65.95703125 C-51.27312703 53.34318356 -49.51690998 39.78849309 -44.11328125 27.859375 C-37.67016168 15.97625628 -26.84408219 6.71829844 -14.23828125 2.046875 C-13.18640625 1.634375 -12.13453125 1.221875 -11.05078125 0.796875 C-7.23066945 0.0453776 -3.88569767 -0.02693725 0 0 Z " fill="#E18242" transform="translate(153.23828125,31.953125)"/>
<path d="M0 0 C20.50891914 -0.6378372 38.089461 -0.8791587 54.4609375 13.1015625 C65.33690483 23.32713976 71.02063365 35.85991771 71.5625 50.8125 C71.40045912 62.56186105 66.87874032 72.91292632 62.47680664 83.609375 C53.12888658 106.37999488 46.88212107 129.70164106 43 154 C42.84160645 154.98403809 42.68321289 155.96807617 42.52001953 156.98193359 C39.54776574 176.21999821 39.29517443 195.57556532 39 215 C32.14935994 213.0750926 25.59621614 210.75332329 19.03125 208.015625 C17.65157043 207.44760162 17.65157043 207.44760162 16.24401855 206.86810303 C13.32747398 205.66654492 10.41360336 204.45867046 7.5 203.25 C4.62468353 202.06084987 1.74879012 200.87312925 -1.12792969 199.68737793 C-3.01367779 198.90956356 -4.89845496 198.12939084 -6.78222656 197.34680176 C-11.2649856 195.49335331 -15.75508434 193.69948018 -20.3125 192.03710938 C-21.556828 191.57785065 -21.556828 191.57785065 -22.82629395 191.10931396 C-24.37259656 190.5438196 -25.92408252 189.99221781 -27.48132324 189.45758057 C-30.83475457 188.2265978 -32.76433005 187.31248726 -34.94067383 184.42675781 C-35.88005652 182.27477258 -36.64919177 180.28205882 -37.1875 178 C-37.42533203 177.0409375 -37.42533203 177.0409375 -37.66796875 176.0625 C-38.06671308 173.58559407 -38.27868396 171.50417448 -38 169 C-36.49609375 167.26171875 -36.49609375 167.26171875 -34.4375 165.6875 C-20.39946199 154.17037726 -12.16347614 137.97526456 -10 120 C-9.12601562 119.88785156 -9.12601562 119.88785156 -8.234375 119.7734375 C0.5316121 118.36757164 9.76846498 115.39994521 15.5 108.25 C16.84876604 106.19460204 16.84876604 106.19460204 18 104 C18.40992188 103.24847656 18.81984375 102.49695313 19.2421875 101.72265625 C22.70436918 94.35656627 23.57128692 86.20440887 21.19921875 78.34765625 C19.88521409 75.29855664 18.46603173 72.61045245 16.44799805 69.96704102 C14.4072011 65.78531697 14.61540067 62.11913854 14.6640625 57.52734375 C14.65153943 55.63866851 14.63850185 53.74999662 14.625 51.86132812 C14.62109078 48.90816049 14.62491101 45.95533188 14.63964844 43.00219727 C14.68708009 27.31681281 13.34025761 16.43091078 3 4 C1.99645182 2.66933519 0.99602388 1.33630618 0 0 Z " fill="#E18242" transform="translate(337,32)"/>
<path d="M0 0 C0.99 0.845625 1.98 1.69125 3 2.5625 C3.64839844 3.11292969 4.29679687 3.66335937 4.96484375 4.23046875 C6.25307079 5.35055867 7.51964054 6.49649397 8.75390625 7.67578125 C18.57673574 16.90457354 30.57490518 22.72503916 43.76953125 25.0703125 C44.75155518 25.24578613 45.7335791 25.42125977 46.74536133 25.60205078 C47.48939209 25.73337402 48.23342285 25.86469727 49 26 C49.10259689 32.56114118 49.17195946 39.12207075 49.21972656 45.68383789 C49.23966893 47.90950245 49.26683282 50.13511582 49.30175781 52.3605957 C49.61763336 73.02721786 48.09371243 91.12788076 33.1875 106.9375 C20.76281204 118.65220579 5.38193202 123.68442834 -11.41796875 123.3125 C-25.75654004 122.6007612 -39.25293049 115.33780099 -49 105 C-59.33389422 92.66599722 -63.36163135 78.65579279 -63.1953125 62.83984375 C-63.1924826 61.80936417 -63.18965271 60.77888458 -63.18673706 59.71717834 C-63.17562863 56.45716257 -63.15054163 53.19743138 -63.125 49.9375 C-63.11495813 47.7141967 -63.1058344 45.49088906 -63.09765625 43.26757812 C-63.07571997 37.84495657 -63.04233665 32.42249863 -63 27 C-62.41588852 26.92548615 -61.83177704 26.85097229 -61.22996521 26.77420044 C-58.52571841 26.42382689 -55.82349491 26.05963773 -53.12109375 25.6953125 C-52.20275757 25.57841064 -51.28442139 25.46150879 -50.33825684 25.34106445 C-30.7703194 22.6631201 -14.09949422 13.68919148 0 0 Z " fill="#DFC2A9" transform="translate(263,77)"/>
<path d="M0 0 C1.27910248 -0.01007584 1.27910248 -0.01007584 2.58404541 -0.02035522 C5.39829367 -0.03932438 8.21230314 -0.04325933 11.02661133 -0.04541016 C12.99091183 -0.05184046 14.95521138 -0.05856899 16.91950989 -0.06558228 C21.03767108 -0.0775535 25.15574842 -0.08126342 29.27392578 -0.08007812 C34.53164509 -0.07987532 39.78882155 -0.10713847 45.04641247 -0.14162254 C49.10525443 -0.1639475 53.1639671 -0.1679139 57.22286415 -0.16685867 C59.16000546 -0.16920771 61.09715072 -0.17799162 63.03423119 -0.19352341 C84.72380158 -0.35110422 84.72380158 -0.35110422 92.97192383 6.36865234 C93.55329102 7.08537109 94.1346582 7.80208984 94.73364258 8.54052734 C95.37301758 9.32041016 96.01239258 10.10029297 96.67114258 10.90380859 C98.74065164 13.72628636 100.60676099 16.60778769 102.31567383 19.66162109 C104.04337043 22.20737899 105.90553739 23.18707789 108.87426758 23.78271484 C110.2587207 23.97220703 110.2587207 23.97220703 111.67114258 24.16552734 C120.73982117 25.74061363 126.09596901 29.74536058 131.42114258 37.29052734 C133.49523122 41.46964018 133.65461311 44.92385757 133.61645508 49.56005859 C133.61362518 50.24106125 133.61079529 50.9220639 133.60787964 51.623703 C133.59674783 53.78366189 133.57165714 55.94319528 133.54614258 58.10302734 C133.53610369 59.57372445 133.52697943 61.0444281 133.51879883 62.51513672 C133.49683171 66.1070702 133.46235078 69.69875719 133.42114258 73.29052734 C112.14560537 73.00204548 94.04097833 71.74233735 77.60473633 56.65380859 C75.51405692 54.39108759 73.75344583 52.02458971 71.9987793 49.49584961 C68.20839599 43.60284819 68.20839599 43.60284819 62.17114258 40.72802734 C57.49305123 41.42974105 56.57751949 42.86633663 53.42114258 46.29052734 C42.44171539 58.06174015 31.12067139 65.74963224 15.42114258 70.29052734 C14.81923096 70.47309082 14.21731934 70.6556543 13.59716797 70.84375 C5.69304526 72.94682988 -2.51832656 72.74884765 -10.64135742 72.91552734 C-12.1902057 72.95378252 -13.73903441 72.99283841 -15.2878418 73.03271484 C-19.05135163 73.12788814 -22.81496059 73.21221231 -26.57885742 73.29052734 C-26.68056272 65.60428207 -26.75045145 57.91821139 -26.79858398 50.23144531 C-26.81865676 47.61842361 -26.845921 45.00544659 -26.88061523 42.39257812 C-26.92932177 38.62928212 -26.95187053 34.86658185 -26.96948242 31.10302734 C-26.99012756 29.94125977 -27.01077271 28.77949219 -27.03204346 27.58251953 C-27.03427404 19.45723418 -25.93303804 14.0707309 -20.39526367 7.82958984 C-19.27958008 6.88212891 -19.27958008 6.88212891 -18.14135742 5.91552734 C-17.40014648 5.26841797 -16.65893555 4.62130859 -15.89526367 3.95458984 C-10.80540601 0.29813223 -6.12626628 -0.00695363 0 0 Z " fill="#585F5F" transform="translate(202.578857421875,15.70947265625)"/>
<path d="M0 0 C150.48 0 300.96 0 456 0 C456 5.28 456 10.56 456 16 C457.98 16.33 459.96 16.66 462 17 C464.45039708 20.67559562 464.26399915 22.50078985 464.29052734 26.88647461 C464.29724457 27.5827446 464.30396179 28.27901459 464.31088257 28.99638367 C464.32988325 31.29844291 464.33378763 33.60021098 464.3359375 35.90234375 C464.34236358 37.50273255 464.34909179 39.10312016 464.35610962 40.70350647 C464.36808724 44.05846887 464.37178991 47.41332827 464.37060547 50.76831055 C464.37040215 55.06714864 464.39771468 59.36532658 464.43214989 63.66400814 C464.45438728 66.96943699 464.45844401 70.2747061 464.45738602 73.5802021 C464.45974635 75.16504761 464.46859424 76.74989723 464.48405075 78.33466911 C464.50364979 80.55162688 464.49789847 82.76714996 464.48583984 84.98413086 C464.48868988 86.24527206 464.49153992 87.50641327 464.49447632 88.80577087 C463.91332098 92.55993104 462.98314231 93.72884023 460 96 C458 96.53125 458 96.53125 456 96.5 C455.01 96.51546875 455.01 96.51546875 454 96.53125 C451.03104903 95.7426224 449.90300029 94.39433643 448 92 C447.49879456 88.85046387 447.49879456 88.85046387 447.49829102 85.09179688 C447.49018654 84.06180321 447.49018654 84.06180321 447.48191833 83.01100159 C447.46943465 80.7464761 447.48591786 78.483223 447.50390625 76.21875 C447.50375125 74.64221124 447.50226213 73.06567209 447.49949646 71.48913574 C447.49811264 68.18708423 447.51066714 64.88546717 447.53344727 61.58349609 C447.56183224 57.35311736 447.55909455 53.1234604 447.54635715 48.89302826 C447.53939863 45.63818203 447.54719117 42.38350233 447.55961418 39.12867737 C447.56412702 37.56898131 447.56446693 36.00926737 447.56054878 34.4495697 C447.55763475 32.26874211 447.57415096 30.08890542 447.59594727 27.90820312 C447.60135025 26.66784302 447.60675323 25.42748291 447.61231995 24.14953613 C448 21 448 21 451 17 C302.17 16.67 153.34 16.34 0 16 C0 10.72 0 5.44 0 0 Z " fill="#DF6117" transform="translate(32,416)"/>
<path d="M0 0 C158.4 0 316.8 0 480 0 C480 5.28 480 10.56 480 16 C321.6 16 163.2 16 0 16 C0 10.72 0 5.44 0 0 Z " fill="#E9A648" transform="translate(16,368)"/>
<path d="M0 0 C0.66 0.33 1.32 0.66 2 1 C1.319375 1.66 0.63875 2.32 -0.0625 3 C-2.26301015 6.40724152 -2.13076776 7.98792165 -1.51898193 11.90640259 C-0.69384923 15.23502652 0.90017339 17.83659709 2.7109375 20.73046875 C3.0797403 21.32878006 3.44854309 21.92709137 3.82852173 22.54353333 C4.99755079 24.43340963 6.18563 26.31037437 7.375 28.1875 C8.16537518 29.45686589 8.95444936 30.72704282 9.7421875 31.99804688 C11.19177293 34.33361742 12.6499394 36.66286781 14.11474609 38.98901367 C14.73687988 39.98263916 15.35901367 40.97626465 16 42 C16.5976416 42.85247314 17.1952832 43.70494629 17.81103516 44.58325195 C19 47 19 47 18.85986328 49.5534668 C17.95052196 52.14077782 16.8767553 53.94829312 15.2421875 56.14453125 C14.42814453 57.28438477 14.42814453 57.28438477 13.59765625 58.44726562 C12.45206132 60.02018564 11.29581012 61.58540104 10.12890625 63.14257812 C7.41484888 66.98047547 6.01278312 69.09148566 5.9453125 73.88671875 C7.24081678 78.93918546 8.62760243 83.96787559 10 89 C-4.85 89 -19.7 89 -35 89 C-35.09231248 82.24067498 -35.17180755 75.48357648 -35.21972656 68.72412109 C-35.2397223 66.42944894 -35.26692802 64.13482696 -35.30175781 61.84033203 C-35.66499484 37.27909883 -35.66499484 37.27909883 -31 28 C-30.22269531 26.40285156 -30.22269531 26.40285156 -29.4296875 24.7734375 C-21.84632112 13.07447529 -13.12713445 4.88738742 0 0 Z " fill="#585F5F" transform="translate(139,263)"/>
<path d="M0 0 C11.37078153 1.83399702 19.80215114 9.4385835 27 18 C35.98574979 30.56037288 37.50639218 42.05205303 37 57 C36.16807129 57.01401855 36.16807129 57.01401855 35.31933594 57.02832031 C32.79533519 57.08215722 30.27316186 57.16577254 27.75 57.25 C26.87730469 57.26417969 26.00460937 57.27835937 25.10546875 57.29296875 C23.83896484 57.34130859 23.83896484 57.34130859 22.546875 57.390625 C21.77182617 57.41157227 20.99677734 57.43251953 20.19824219 57.45410156 C17.08253897 58.22783684 15.90759861 59.43812481 14 62 C13.36085024 64.98687874 13.36085024 64.98687874 13.390625 68.296875 C13.35839844 69.50214844 13.32617188 70.70742188 13.29296875 71.94921875 C13.27169922 73.83060547 13.27169922 73.83060547 13.25 75.75 C13.20552734 77.65458984 13.20552734 77.65458984 13.16015625 79.59765625 C13.08946966 82.73142836 13.04246994 85.8657185 13 89 C6.07 89 -0.86 89 -8 89 C-7.25130208 86.39583333 -6.50260417 83.79166667 -5.75390625 81.1875 C-5.50511719 80.135625 -5.25632812 79.08375 -5 78 C-4.66871094 76.76636719 -4.33742188 75.53273438 -3.99609375 74.26171875 C-3.32775953 68.41292503 -7.21114419 64.30369719 -10.5 59.8125 C-11.75292061 58.07857015 -12.99313982 56.33537162 -14.21875 54.58203125 C-15.0530957 53.44084839 -15.0530957 53.44084839 -15.90429688 52.27661133 C-17.34516961 49.28281939 -17.08224769 48.12305761 -16 45 C-14.83715746 42.82460124 -13.5895395 40.69368155 -12.2890625 38.59765625 C-11.73585831 37.69737953 -11.73585831 37.69737953 -11.17147827 36.77891541 C-9.9963198 34.86901529 -8.81123376 32.9655372 -7.625 31.0625 C-6.44766842 29.16201254 -5.27252885 27.26021674 -4.09994507 25.35679626 C-3.03257192 23.62597927 -1.95907965 21.89894026 -0.88525391 20.17211914 C2.89418929 14.1745472 2.89418929 14.1745472 3.875 7.375 C3.0376996 4.14541274 2.2314291 2.42546641 0 0 Z " fill="#585F5F" transform="translate(371,263)"/>
<path d="M0 0 C8.66062609 2.80484861 12.64643431 7.82735301 18 15 C19.51459703 16.90081927 21.03504113 18.79700074 22.5625 20.6875 C23.70896699 22.12449468 24.8550516 23.56179506 26 25 C24.47526564 29.17342137 22.4148768 32.91751479 20.15625 36.7265625 C19.78649048 37.35605804 19.41673096 37.98555359 19.0357666 38.63412476 C18.25739341 39.95788072 17.47737433 41.28067013 16.69580078 42.60253906 C15.50079869 44.62364917 14.31050497 46.6474706 13.12109375 48.671875 C12.36224986 49.96109687 11.60314424 51.25016473 10.84375 52.5390625 C10.48849243 53.14223297 10.13323486 53.74540344 9.76721191 54.36685181 C8.23479633 56.95757745 6.67030773 59.4945384 5 62 C4.89842643 70.50447796 9.49945987 75.43051379 14.60351562 81.84570312 C18.97119899 87.72509289 18.97119899 87.72509289 19.05322266 91.35595703 C18.05910448 96.21734945 15.96767539 100.40875741 14 105 C3.44 105 -7.12 105 -18 105 C-18 97.12608714 -18 97.12608714 -17.37670898 93.81689453 C-17.23888 93.06735001 -17.10105103 92.31780548 -16.95904541 91.54554749 C-16.80627136 90.74934494 -16.65349731 89.9531424 -16.49609375 89.1328125 C-16.33743835 88.2767894 -16.17878296 87.4207663 -16.01531982 86.5388031 C-15.67301883 84.69433628 -15.32801175 82.85037 -14.9805603 81.00686646 C-14.05235922 76.08116751 -13.14353991 71.1518986 -12.234375 66.22265625 C-12.04759689 65.21212692 -11.86081879 64.2015976 -11.66838074 63.16044617 C-9.42379289 50.96082414 -7.37424939 38.72814628 -5.34741211 26.49072266 C-3.85886341 17.5738385 -2.180332 8.77903979 0 0 Z " fill="#575E5E" transform="translate(332,247)"/>
<path d="M0 0 C1.90341876 2.85512814 2.37052341 4.07940866 2.92626953 7.32397461 C3.15800621 8.64452095 3.15800621 8.64452095 3.39442444 9.991745 C3.63617653 11.43249138 3.63617653 11.43249138 3.8828125 12.90234375 C4.0582811 13.91178543 4.23374969 14.92122711 4.41453552 15.96125793 C4.9911801 19.28558662 5.55810394 22.61149628 6.125 25.9375 C6.92549249 30.57732509 7.73044555 35.21637366 8.53515625 39.85546875 C8.7386821 41.03299713 8.94220795 42.21052551 9.15190125 43.42373657 C10.51137373 51.26672056 11.92056652 59.09915009 13.37109375 66.92578125 C13.55764526 67.93507187 13.74419678 68.94436249 13.93640137 69.98423767 C14.65144735 73.84878671 15.36725289 77.71314309 16.09454346 81.57540894 C16.59051113 84.21076757 17.07906858 86.84740913 17.56640625 89.484375 C17.71283066 90.24885452 17.85925507 91.01333405 18.01011658 91.80097961 C18.20729027 92.87740974 18.20729027 92.87740974 18.40844727 93.97558594 C18.52342056 94.58787048 18.63839386 95.20015503 18.7568512 95.83099365 C19.09745787 98.86937192 19 101.94259008 19 105 C8.44 105 -2.12 105 -13 105 C-18.15592028 92.1101993 -18.15592028 92.1101993 -18 89 C-16.18927839 85.63856582 -13.93364046 82.65866804 -11.625 79.625 C-10.3943874 78.00306289 -9.17780604 76.37036945 -7.9765625 74.7265625 C-7.43080566 74.01064941 -6.88504883 73.29473633 -6.32275391 72.55712891 C-4.53006701 69.09153228 -3.76611069 65.87214237 -4 62 C-4.9480349 59.20533463 -6.39441381 56.86705406 -7.98828125 54.39453125 C-8.4066777 53.70743576 -8.82507416 53.02034027 -9.25614929 52.31242371 C-10.5885962 50.13291385 -11.94910504 47.97275627 -13.3125 45.8125 C-14.65884955 43.63814668 -15.9991581 41.46021248 -17.3367157 39.28044128 C-18.168342 37.92970586 -19.00611841 36.58273164 -19.85090637 35.2401886 C-21.92478906 31.91704723 -23.69080522 28.69683492 -25 25 C-24.28714844 24.16597656 -23.57429687 23.33195312 -22.83984375 22.47265625 C-21.87221974 21.33608739 -20.90478487 20.1993575 -19.9375 19.0625 C-19.43379883 18.47291504 -18.93009766 17.88333008 -18.41113281 17.27587891 C-15.54394546 13.89898977 -12.84542682 10.46821104 -10.25 6.875 C-7.26389911 2.93450367 -4.70307163 1.4397158 0 0 Z " fill="#575E5E" transform="translate(179,247)"/>
<path d="M0 0 C2.95110344 2.86167606 5.67367899 5.78422995 8.3125 8.9375 C17.23844706 19.12223447 31.49331261 27.17924557 45 29 C64.57797007 30.28023203 83.0532838 26.22048737 98.28515625 13.01953125 C102.4196501 9.02414186 105.81446011 4.77830983 109 0 C110.46044978 2.92089955 109.44379165 4.4377164 108.4375 7.5 C103.69384188 21.08115818 95.47504771 31.73470233 83 39 C68.89179575 45.80216991 54.39673369 48.78244441 39.0625 44.375 C23.71335626 38.85316967 11.72806726 29.75292557 4.4921875 14.90625 C2.33472914 9.92560328 0.75022368 5.39522558 0 0 Z " fill="#CDA07D" transform="translate(201,154)"/>
<path d="M0 0 C1.33365476 0.2901934 2.66690215 0.58225892 4 0.875 C5.11375 1.11863281 5.11375 1.11863281 6.25 1.3671875 C8.40996558 1.86422503 10.55160612 2.44096547 12.68359375 3.046875 C17.47563408 4.24404359 22.14037732 4.38179663 27.0625 4.375 C27.97700928 4.37701416 28.89151855 4.37902832 29.83374023 4.38110352 C37.02950995 4.27473729 43.25778395 3.03170364 50.06640625 0.77734375 C52.95963825 0.01069506 54.31099621 -0.26945993 57 1 C58.92534213 5.03405018 59.4628889 7.78583747 58 12 C56.05823459 14.48733799 53.82404242 16.64091844 51.55859375 18.83203125 C50.91632339 19.46864182 50.27405304 20.10525238 49.61231995 20.76115417 C47.56325815 22.78786523 45.500716 24.80020981 43.4375 26.8125 C42.04400956 28.18592392 40.65142022 29.56026276 39.25976562 30.93554688 C35.85020058 34.30106169 32.42848004 37.65376046 29 41 C22.49077531 38.45226048 17.55960645 32.13034635 12.68041992 27.32568359 C11.35256736 26.02597247 10.01493745 24.73617533 8.66772461 23.45654297 C6.71834495 21.60459656 4.80038981 19.72467857 2.88671875 17.8359375 C2.28163986 17.27103607 1.67656097 16.70613464 1.05314636 16.12411499 C-2.88678536 12.14263939 -2.88678536 12.14263939 -3.20809937 8.89971924 C-2.84692413 5.30866108 -2.00244454 3.0036668 0 0 Z " fill="#DEC1A8" transform="translate(228,211)"/>
<path d="M0 0 C26.4 0 52.8 0 80 0 C80 5.28 80 10.56 80 16 C53.6 16 27.2 16 0 16 C0 10.72 0 5.44 0 0 Z " fill="#8D6D5F" transform="translate(400,336)"/>
<path d="M0 0 C4.05286997 0.6631969 4.99319514 1.33166384 7.4375 4.5625 C7.94543457 7.75 7.94543457 7.75 7.95507812 11.5625 C7.9620874 12.25891602 7.96909668 12.95533203 7.97631836 13.67285156 C7.99389196 15.96980932 7.98227919 18.26553021 7.96875 20.5625 C7.97144513 22.16146073 7.97532773 23.76041987 7.98034668 25.359375 C7.98624082 28.70849226 7.97768192 32.05718243 7.95898438 35.40625 C7.93619435 39.69728591 7.94931796 43.98732111 7.97327423 48.27832031 C7.9877348 51.57950366 7.98312515 54.88045011 7.97276306 58.18164062 C7.97009646 59.76367308 7.97336322 61.34572711 7.98268127 62.92773438 C7.99285179 65.13990163 7.9773419 67.350453 7.95507812 69.5625 C7.95030457 71.4496875 7.95030457 71.4496875 7.94543457 73.375 C7.34902758 77.11770109 6.4123465 78.29409929 3.4375 80.5625 C1.4375 81.09375 1.4375 81.09375 -0.5625 81.0625 C-1.2225 81.0728125 -1.8825 81.083125 -2.5625 81.09375 C-5.53031126 80.30542514 -6.65859182 78.95449921 -8.5625 76.5625 C-9.0771637 73.41969299 -9.0771637 73.41969299 -9.09594727 69.67016602 C-9.10456284 68.98510986 -9.11317841 68.30005371 -9.12205505 67.59423828 C-9.1447176 65.33457417 -9.13797623 63.07615011 -9.12890625 60.81640625 C-9.13414211 59.24226005 -9.14041845 57.668117 -9.14768982 56.09397888 C-9.15809473 52.79614491 -9.15353215 49.4987424 -9.13891602 46.20092773 C-9.12173523 41.97933372 -9.14521252 37.75910165 -9.18040562 33.53765965 C-9.20239172 30.28703328 -9.20093523 27.03673213 -9.1926403 23.78605461 C-9.19182129 22.22995447 -9.19867537 20.67383034 -9.21341133 19.11779976 C-9.23087994 16.93909764 -9.21630065 14.76283358 -9.19360352 12.58422852 C-9.19264175 11.34608902 -9.19167999 10.10794952 -9.19068909 8.83229065 C-8.1506034 3.41853462 -5.38668699 0.85052953 0 0 Z " fill="#000000" transform="translate(488.5625,431.4375)"/>
<path d="M0 0 C7.26 0 14.52 0 22 0 C23.42693513 4.23493961 24.85203697 8.47040451 26.27246094 12.70751953 C26.75640691 14.14928877 27.24142839 15.59069746 27.72753906 17.03173828 C28.42534712 19.10095279 29.11929998 21.17142543 29.8125 23.2421875 C30.23144531 24.4885498 30.65039062 25.73491211 31.08203125 27.01904297 C32 30 32 30 32 32 C18.14 32 4.28 32 -10 32 C-6.625 19.625 -6.625 19.625 -5.17578125 15.33203125 C-4.89903564 14.50678955 -4.62229004 13.68154785 -4.3371582 12.83129883 C-3.999021 11.83509521 -3.66088379 10.8388916 -3.3125 9.8125 C-1.6728125 4.9553125 -1.6728125 4.9553125 0 0 Z " fill="#AE4452" transform="translate(245,320)"/>
<path d="M0 0 C0.33 0 0.66 0 1 0 C0.48312971 10.02907102 -1.46893103 19.83869472 -3.26708984 29.69717407 C-4.1833808 34.720932 -5.08488206 39.74734831 -5.98828125 44.7734375 C-6.1646109 45.75204239 -6.34094055 46.73064728 -6.52261353 47.73890686 C-8.45357057 58.47534828 -10.25685731 69.23150666 -12 80 C-13.65 79.67 -15.3 79.34 -17 79 C-18.72669925 74.04377615 -20.4349271 69.08169364 -22.12695312 64.11352539 C-22.7040505 62.42725847 -23.28600182 60.7426441 -23.87304688 59.05981445 C-24.72012425 56.62878882 -25.54907669 54.19218813 -26.375 51.75390625 C-26.63748535 51.01290176 -26.8999707 50.27189728 -27.17041016 49.50843811 C-28.87927153 44.38668917 -29.79508439 39.40187454 -29 34 C-28.34 33.01 -27.68 32.02 -27 31 C-25.02141066 31.03191273 -23.03764175 31.07196658 -21.0703125 31.28515625 C-18.01200677 30.86391791 -17.02682421 29.28137342 -15 27 C-13.88125561 25.19307059 -12.83006668 23.34321807 -11.8359375 21.46484375 C-11.27132813 20.40845703 -10.70671875 19.35207031 -10.125 18.26367188 C-9.5475 17.16603516 -8.97 16.06839844 -8.375 14.9375 C-7.21729005 12.75850627 -6.05848519 10.58009382 -4.8984375 8.40234375 C-4.38974121 7.43804443 -3.88104492 6.47374512 -3.35693359 5.48022461 C-2 3 -2 3 0 0 Z " fill="#F1F1F1" transform="translate(310,272)"/>
<path d="M0 0 C2.85167147 3.39106217 5.0800175 6.74324924 7.12890625 10.66796875 C7.68900391 11.72564453 8.24910156 12.78332031 8.82617188 13.87304688 C9.98938256 16.09348392 11.15082464 18.31484833 12.31054688 20.53710938 C12.86935547 21.59091797 13.42816406 22.64472656 14.00390625 23.73046875 C14.50736572 24.69364014 15.0108252 25.65681152 15.52954102 26.64916992 C16.93415121 29.25311829 16.93415121 29.25311829 20 31 C21.99328026 31.12966108 21.99328026 31.12966108 24.0625 30.9375 C25.361875 30.958125 26.66125 30.97875 28 31 C30.72658946 35.08988418 30.45494172 38.20097669 30 43 C29.34992216 46.00614925 28.40113984 48.8570809 27.375 51.75390625 C27.10864746 52.54022934 26.84229492 53.32655243 26.56787109 54.13670349 C25.72463361 56.61653859 24.86273037 59.08938784 24 61.5625 C23.42062193 63.25543105 22.84248508 64.94878743 22.265625 66.64257812 C20.85803918 70.76677056 19.43369027 74.88481323 18 79 C15.525 79.495 15.525 79.495 13 80 C12.8548999 79.083396 12.7097998 78.16679199 12.56030273 77.22241211 C11.85672393 72.79345618 11.14869597 68.36523851 10.4375 63.9375 C10.30672058 63.1229837 10.17594116 62.30846741 10.04119873 61.4692688 C7.61293033 46.39271189 4.95826372 31.36221854 2.18530273 16.34545898 C2.03914017 15.54700562 1.8929776 14.74855225 1.74238586 13.92590332 C1.4693203 12.43477839 1.19337852 10.94417608 0.91398621 9.45422363 C0.32213736 6.21394542 0 3.31218273 0 0 Z " fill="#F2F2F2" transform="translate(201,272)"/>
<path d="M0 0 C3.38513029 1.11728062 6.49221648 2.41154653 9.73095703 3.90136719 C9.14460402 7.72416723 8.03447903 10.5160352 6.10595703 13.85839844 C5.29904419 15.26980103 5.29904419 15.26980103 4.47583008 16.7097168 C3.90002197 17.70108643 3.32421387 18.69245605 2.73095703 19.71386719 C1.54980039 21.77366723 0.36881181 23.83356366 -0.81201172 25.89355469 C-1.39644043 26.90772461 -1.98086914 27.92189453 -2.58300781 28.96679688 C-4.94355564 33.07536695 -7.26516711 37.2052849 -9.58154297 41.33886719 C-10.30667159 42.62930584 -11.03191696 43.9196789 -11.75732422 45.20996094 C-12.25619141 46.098125 -12.75505859 46.98628906 -13.26904297 47.90136719 C-16.42109278 46.50789343 -18.5307607 44.87651639 -20.94091797 42.42480469 C-21.60478516 41.75449219 -22.26865234 41.08417969 -22.95263672 40.39355469 C-23.63455078 39.69488281 -24.31646484 38.99621094 -25.01904297 38.27636719 C-25.71642578 37.56996094 -26.41380859 36.86355469 -27.13232422 36.13574219 C-28.84916785 34.39538015 -30.56116129 32.65051738 -32.26904297 30.90136719 C-30.60565732 26.67798732 -27.49744832 23.75301274 -24.37841797 20.56933594 C-23.79618469 19.97333084 -23.21395142 19.37732574 -22.61407471 18.76325989 C-21.38301211 17.50897261 -20.14895106 16.25762215 -18.91210938 15.0090332 C-17.02356651 13.09345548 -15.16036312 11.1552703 -13.29638672 9.21582031 C-12.09606139 7.9988466 -10.89428566 6.78330139 -9.69091797 5.56933594 C-9.13756775 4.98613083 -8.58421753 4.40292572 -8.01409912 3.80204773 C-5.25037856 1.06902068 -3.97327291 -0.11988068 0 0 Z " fill="#F3F3F3" transform="translate(300.26904296875,234.0986328125)"/>
<path d="M0 0 C2.4149053 1.86845541 4.4946146 4.02943156 6.61328125 6.22265625 C7.22769577 6.84273056 7.84211029 7.46280487 8.47514343 8.10166931 C10.43053458 10.07940583 12.37154064 12.07060817 14.3125 14.0625 C15.63774625 15.40781348 16.96390809 16.7522257 18.29101562 18.09570312 C21.53805073 21.38678128 24.77225596 24.69000432 28 28 C26.61314777 31.1195572 24.99810509 33.25855799 22.59375 35.671875 C21.60181641 36.66767578 21.60181641 36.66767578 20.58984375 37.68359375 C19.90019531 38.36550781 19.21054688 39.04742187 18.5 39.75 C17.81035156 40.44738281 17.12070313 41.14476562 16.41015625 41.86328125 C15.74886719 42.52199219 15.08757812 43.18070312 14.40625 43.859375 C13.80103516 44.46233398 13.19582031 45.06529297 12.57226562 45.68652344 C11 47 11 47 9 47 C8.5875 46.25540527 8.175 45.51081055 7.75 44.74365234 C6.18212217 41.91456029 4.61344406 39.08591386 3.04421997 36.25756836 C2.35014742 35.00626207 1.65635905 33.75479811 0.96286011 32.50317383 C-3.52034391 24.41287163 -8.04922795 16.35671224 -12.77734375 8.40625 C-14 6 -14 6 -14 3 C-12.61256594 2.29570341 -11.21455365 1.61222402 -9.8125 0.9375 C-9.03519531 0.55464844 -8.25789062 0.17179688 -7.45703125 -0.22265625 C-4.32608444 -1.21321017 -3.12702219 -1.06225807 0 0 Z " fill="#F3F3F3" transform="translate(216,235)"/>
<path d="M0 0 C1.85919815 0.48438879 3.70064356 1.03565854 5.5390625 1.59375 C11.4497705 3.17697536 15.89704513 3.08208297 21.5390625 0.96875 C26.20110962 -0.72507335 29.22164206 -0.7146346 34.0390625 0.53125 C36.6582807 2.74121536 36.96607996 4.10247759 37.5390625 7.46875 C37.0266472 10.60729372 36.38160137 12.25968096 33.96484375 14.36328125 C24.70500094 19.97929139 13.09672183 21.22146047 2.6953125 18.73046875 C-6.3525816 15.88653116 -6.3525816 15.88653116 -9.9609375 12.53125 C-11.08317601 9.86244399 -11.27307512 7.40180133 -10.9609375 4.53125 C-7.93991721 -0.24391111 -5.52936339 -1.07687976 0 0 Z " fill="#060504" transform="translate(242.9609375,160.46875)"/>
<path d="M0 0 C13.2 0 26.4 0 40 0 C45 14 45 14 45 16 C30.15 16 15.3 16 0 16 C0 10.72 0 5.44 0 0 Z " fill="#4B5556" transform="translate(104,336)"/>
<path d="M0 0 C11.55 0.33 23.1 0.66 35 1 C33 10 33 10 30 17 C19.44 17 8.88 17 -2 17 C-2 10 -2 10 0 0 Z " fill="#4B5556" transform="translate(316,335)"/>
<path d="M0 0 C0.34227513 1.5188459 0.67331214 3.04022533 1 4.5625 C1.185625 5.40941406 1.37125 6.25632812 1.5625 7.12890625 C2 10 2 10 2 17 C-8.56 17 -19.12 17 -30 17 C-34.5 5.75 -34.5 5.75 -35 1 C-30.17619364 0.85739829 -25.35238171 0.71498661 -20.52856445 0.57275391 C-18.88631029 0.52430408 -17.24405768 0.47580159 -15.60180664 0.42724609 C-13.24626054 0.35761004 -10.89070899 0.2881611 -8.53515625 0.21875 C-7.79660904 0.19687622 -7.05806183 0.17500244 -6.2971344 0.15246582 C-1.11387171 0 -1.11387171 0 0 0 Z " fill="#4B5556" transform="translate(196,335)"/>
<path d="M0 0 C5.8008366 2.49965793 10.329326 6.93602585 14 12 C15.06267722 17.72339541 12.80406986 22.58779043 11 28 C4.4 28 -2.2 28 -9 28 C-12.70190641 16.58578856 -12.70190641 16.58578856 -12 12 C-10.27904877 9.56644418 -8.19597216 7.62808271 -6 5.625 C-5.14148438 4.80708984 -5.14148438 4.80708984 -4.265625 3.97265625 C-2.85694461 2.63440988 -1.43017503 1.31525025 0 0 Z " fill="#C94D5D" transform="translate(255,276)"/>
<path d="M0 0 C7.26 0 14.52 0 22 0 C26 11.5 26 11.5 26 16 C16.1 16 6.2 16 -4 16 C-3 9 -3 9 0 0 Z " fill="#C84D5D" transform="translate(245,320)"/>
<path d="M0 0 C0 10.56 0 21.12 0 32 C-7.91317365 30.86954662 -7.91317365 30.86954662 -10.8125 28.1875 C-11.37582031 27.68605469 -11.93914062 27.18460938 -12.51953125 26.66796875 C-16.17097285 22.55407545 -16.43409959 18.80418144 -16.31640625 13.46875 C-15.6851283 8.54322326 -12.96946378 5.85405143 -9.375 2.6875 C-5.56066756 -0.02268357 -5.12122052 0 0 0 Z " fill="#DABEA5" transform="translate(184,104)"/>
<path d="M0 0 C7.91317365 1.13045338 7.91317365 1.13045338 10.8125 3.8125 C11.37582031 4.31394531 11.93914062 4.81539063 12.51953125 5.33203125 C16.17097285 9.44592455 16.43409959 13.19581856 16.31640625 18.53125 C15.69970296 23.34305841 12.99340629 26.00659371 9.6875 29.3125 C7 31 7 31 0 32 C0 21.44 0 10.88 0 0 Z " fill="#DABEA6" transform="translate(328,104)"/>
<path d="M0 0 C5.28 0 10.56 0 16 0 C16 5.28 16 10.56 16 16 C9.07 16 2.14 16 -5 16 C-3.53799042 10.48423659 -2.12108206 5.30270516 0 0 Z " fill="#4A5455" transform="translate(368,336)"/>
<path d="M0 0 C3.63 0 7.26 0 11 0 C10.34 5.28 9.68 10.56 9 16 C7.35 15.67 5.7 15.34 4 15 C3.32779649 13.06441401 2.66241923 11.12645628 2 9.1875 C1.62875 8.10855469 1.2575 7.02960938 0.875 5.91796875 C0 3 0 3 0 0 Z " fill="#D5D5D5" transform="translate(289,336)"/>
<path d="M0 0 C3.63 0 7.26 0 11 0 C9.85388265 5.73058676 8.47605477 10.71024662 6 16 C4.68 16 3.36 16 2 16 C1.34 10.72 0.68 5.44 0 0 Z " fill="#D4D4D4" transform="translate(212,336)"/>
</svg>
