<?xml version="1.0" encoding="UTF-8"?>
<svg version="1.1" xmlns="http://www.w3.org/2000/svg" width="512" height="512">
<path d="M0 0 C0.69228195 0.26359314 1.3845639 0.52718628 2.0978241 0.79876709 C10.46460956 4.02171011 18.71165094 7.53346696 26.95950317 11.04699707 C31.90629111 13.15407182 36.85791318 15.2497481 41.80859375 17.34765625 C42.82184219 17.7774176 43.83509064 18.20717896 44.87904358 18.64996338 C54.36325791 22.6712253 63.86155577 26.65839552 73.36526489 30.6333313 C76.03054287 31.74870623 78.69491836 32.86621361 81.35913086 33.98413086 C89.19290511 37.26829407 97.03229508 40.53560401 104.90190125 43.73312378 C108.2619272 45.09873065 111.61851885 46.47267345 114.97506714 47.84680176 C117.28973108 48.78962945 119.60960151 49.71868644 121.92993164 50.64746094 C123.32988267 51.21998763 124.72955749 51.79319033 126.12890625 52.3671875 C127.33724121 52.85485596 128.54557617 53.34252441 129.79052734 53.8449707 C135.28326858 56.70148201 138.91683269 60.65693742 140.98046875 66.50390625 C141.2679884 72.24279844 139.62689884 76.0258342 135.98046875 80.50390625 C133.40645288 82.20872287 130.68893821 83.41670012 127.85546875 84.62890625 C127.14648438 84.94988281 126.4375 85.27085938 125.70703125 85.6015625 C120.19385079 88.07059476 114.59334371 90.25875626 108.98046875 92.50390625 C108.98046875 109.00390625 108.98046875 125.50390625 108.98046875 142.50390625 C111.29046875 143.82390625 113.60046875 145.14390625 115.98046875 146.50390625 C117.90625 148.25 117.90625 148.25 119.29296875 149.94140625 C119.76347656 150.49699219 120.23398437 151.05257812 120.71875 151.625 C124.37067112 157.06330977 124.28748553 162.16794644 124.28125 168.51171875 C124.28553513 169.47415497 124.28982025 170.43659119 124.29423523 171.42819214 C124.29996563 173.45716567 124.30048832 175.48615975 124.29614258 177.51513672 C124.2929727 180.62502762 124.31649219 183.73397594 124.34179688 186.84375 C124.34406894 188.81640505 124.34477379 190.78906266 124.34375 192.76171875 C124.35295975 193.69299591 124.36216949 194.62427307 124.37165833 195.58377075 C124.36231514 196.8805928 124.36231514 196.8805928 124.3527832 198.20361328 C124.35341263 198.9635257 124.35404205 199.72343811 124.35469055 200.50637817 C123.86921233 203.09777283 123.10475068 203.96761038 120.98046875 205.50390625 C119.04541016 205.88485718 119.04541016 205.88485718 116.83203125 205.89208984 C115.58558838 205.90627457 115.58558838 205.90627457 114.31396484 205.92074585 C113.42016113 205.91467316 112.52635742 205.90860046 111.60546875 205.90234375 C110.22415771 205.90664902 110.22415771 205.90664902 108.81494141 205.91104126 C106.86815781 205.91308256 104.92135373 205.90754808 102.97460938 205.89501953 C99.99172176 205.87896681 97.01018914 205.89486597 94.02734375 205.9140625 C92.13671575 205.91208008 90.2460886 205.90823643 88.35546875 205.90234375 C87.46166504 205.90841644 86.56786133 205.91448914 85.64697266 205.92074585 C84.81601074 205.91128937 83.98504883 205.90183289 83.12890625 205.89208984 C82.39849121 205.88970306 81.66807617 205.88731628 80.91552734 205.88485718 C78.36899525 205.38352675 77.49819558 204.59175704 75.98046875 202.50390625 C75.5927887 200.52656555 75.5927887 200.52656555 75.57641602 198.2512207 C75.55738976 196.96892326 75.55738976 196.96892326 75.53797913 195.66072083 C75.54091476 194.73885483 75.5438504 193.81698883 75.546875 192.8671875 C75.54163315 191.91377975 75.5363913 190.96037201 75.5309906 189.97807312 C75.52456387 187.95812961 75.52591579 185.93814871 75.53442383 183.91821289 C75.5428895 180.8451751 75.51425339 177.77402383 75.48242188 174.70117188 C75.48080852 172.73567764 75.48138995 170.77018013 75.484375 168.8046875 C75.47314102 167.89294266 75.46190704 166.98119781 75.45033264 166.04182434 C75.52711702 158.91563195 77.22519324 153.58706484 82.015625 148.2265625 C82.68464844 147.67871094 83.35367187 147.13085938 84.04296875 146.56640625 C84.71457031 146.00050781 85.38617188 145.43460938 86.078125 144.8515625 C87.98046875 143.50390625 87.98046875 143.50390625 90.98046875 142.50390625 C90.98046875 128.64390625 90.98046875 114.78390625 90.98046875 100.50390625 C81.08046875 104.79390625 71.18046875 109.08390625 60.98046875 113.50390625 C60.9664502 117.6949707 60.9664502 117.6949707 60.95214844 121.97070312 C60.91820328 131.25869893 60.8625582 140.54647664 60.79656601 149.83429718 C60.75725403 155.45904108 60.72498626 161.08363222 60.70947266 166.70849609 C60.69419816 172.14872694 60.65956391 177.58853737 60.61215973 183.02857971 C60.59745636 185.09188661 60.58943417 187.15525356 60.5885849 189.21861267 C60.57593126 204.56289102 59.21216515 218.3620232 52.73046875 232.50390625 C52.2096875 233.65890625 51.68890625 234.81390625 51.15234375 236.00390625 C50.765625 236.82890625 50.37890625 237.65390625 49.98046875 238.50390625 C51.02203125 238.72304687 52.06359375 238.9421875 53.13671875 239.16796875 C60.800091 240.84010829 68.25370912 242.74787243 75.60546875 245.50390625 C76.24291016 245.74061035 76.88035156 245.97731445 77.53710938 246.22119141 C88.39001647 250.42940328 88.39001647 250.42940328 91.41796875 254.37890625 C92.20189646 257.34041095 92.41712274 259.44732834 91.98046875 262.50390625 C89.98046875 265.37890625 89.98046875 265.37890625 86.98046875 267.50390625 C81.16294651 268.3622292 77.69166204 267.27447132 72.64453125 264.37890625 C70.99878386 263.34877163 70.99878386 263.34877163 68.98046875 263.50390625 C68.64015625 264.24253906 68.29984375 264.98117187 67.94921875 265.7421875 C57.3096583 288.01169302 39.9158799 304.95293207 16.58984375 313.28515625 C15.39875 313.68734375 14.20765625 314.08953125 12.98046875 314.50390625 C12.01625 314.84421875 11.05203125 315.18453125 10.05859375 315.53515625 C-11.45106947 321.81365254 -36.23286416 318.00141426 -55.73828125 307.51953125 C-72.01794521 297.51916625 -86.35611319 283.29535923 -94.01953125 265.50390625 C-94.01953125 264.51390625 -94.01953125 263.52390625 -94.01953125 262.50390625 C-123.44002723 276.18252646 -145.07356204 297.15424768 -157.14453125 327.75390625 C-158.49062952 330.89677887 -159.01619315 331.50149145 -161.95703125 333.62890625 C-165.31682495 334.58884731 -166.80435998 334.85766257 -170.01953125 333.50390625 C-172.39453125 331.44140625 -172.39453125 331.44140625 -174.01953125 328.50390625 C-172.72724728 305.1696466 -152.16362516 282.31241821 -136.03417969 267.28466797 C-118.89170681 252.13231737 -97.2241303 243.10020299 -75.01953125 238.50390625 C-75.01953125 235.12819019 -75.75621944 233.79289002 -77.26953125 230.81640625 C-84.03882484 216.07630619 -84.57838421 202.09185689 -84.41015625 186.16015625 C-84.40267694 184.0531061 -84.39699202 181.94604891 -84.39300537 179.83898926 C-84.37788196 174.3480845 -84.33871787 168.85761682 -84.29418945 163.36688232 C-84.2529467 157.74204416 -84.23493298 152.11713395 -84.21484375 146.4921875 C-84.1722082 135.49590387 -84.10412204 124.49994169 -84.01953125 113.50390625 C-84.73105347 113.38472336 -85.44257568 113.26554047 -86.17565918 113.14274597 C-89.15712045 112.47299858 -91.71531478 111.48881425 -94.52148438 110.2824707 C-96.13972107 109.59088615 -96.13972107 109.59088615 -97.79064941 108.8853302 C-98.94899292 108.38434311 -100.10733643 107.88335602 -101.30078125 107.3671875 C-103.10838928 106.59159737 -103.10838928 106.59159737 -104.95251465 105.80033875 C-107.50575536 104.70455593 -110.05760381 103.60561501 -112.60839844 102.50415039 C-115.8391552 101.10912877 -119.07229224 99.71973969 -122.30640411 98.33251667 C-124.82448093 97.25209785 -127.34169456 96.16968037 -129.85862732 95.08659935 C-131.61781365 94.32963066 -133.37732181 93.57341004 -135.13684082 92.81721497 C-138.43672799 91.39204888 -141.72851937 89.94943113 -145.01953125 88.50390625 C-146.18959717 88.00233002 -147.35966309 87.50075378 -148.56518555 86.98397827 C-150.28572144 86.22656845 -150.28572144 86.22656845 -152.04101562 85.45385742 C-153.58323792 84.78407112 -153.58323792 84.78407112 -155.15661621 84.10075378 C-159.15123417 81.87267654 -162.05501648 79.12604472 -164.39453125 75.19140625 C-165.58118955 70.08877557 -164.88901434 66.1803279 -162.53295898 61.63769531 C-159.68702205 57.47902988 -155.6606811 56.06512306 -151.125 54.203125 C-150.24265182 53.82403488 -149.36030365 53.44494476 -148.45121765 53.05436707 C-145.64741418 51.85421086 -142.83395699 50.67890086 -140.01953125 49.50390625 C-138.24483652 48.74740684 -136.47089692 47.98913323 -134.69775391 47.22900391 C-129.25247847 44.90091909 -123.79349319 42.60621185 -118.33203125 40.31640625 C-114.38761713 38.66111618 -110.4436208 37.00483546 -106.5 35.34765625 C-105.52756348 34.93925003 -104.55512695 34.53084381 -103.55322266 34.11006165 C-97.35316012 31.50111381 -91.17427557 28.84744176 -85.0078125 26.16015625 C-82.75865559 25.18525965 -80.50916697 24.21113216 -78.25961304 23.2371521 C-76.86426125 22.62972199 -75.47083234 22.0178529 -74.07949829 21.40127563 C-72.17097602 20.55571154 -70.25637548 19.72565028 -68.33984375 18.8984375 C-67.28039551 18.43284424 -66.22094727 17.96725098 -65.12939453 17.48754883 C-61.55732528 16.35771157 -58.74565575 16.1886528 -55.01953125 16.50390625 C-52.01953125 18.56640625 -52.01953125 18.56640625 -50.01953125 21.50390625 C-49.89453125 25.06640625 -49.89453125 25.06640625 -51.01953125 28.50390625 C-54.5435299 31.81420841 -58.18308163 33.64813021 -62.6171875 35.5078125 C-63.26793747 35.7837323 -63.91868744 36.0596521 -64.5891571 36.34393311 C-66.75046578 37.2586793 -68.91618799 38.16245527 -71.08203125 39.06640625 C-73.4071594 40.0467148 -75.73109654 41.02981002 -78.05496216 42.0131073 C-79.71105904 42.71371612 -81.36754268 43.41341134 -83.02438354 44.11225891 C-89.65955594 46.91466743 -96.27045864 49.77076177 -102.875 52.64453125 C-103.86560928 53.07503281 -104.85621857 53.50553436 -105.87684631 53.94908142 C-109.81275205 55.65972348 -113.74857655 57.3705083 -117.681427 59.08816528 C-120.43304922 60.28930226 -123.18698204 61.48499289 -125.94140625 62.6796875 C-126.7567131 63.0373822 -127.57201996 63.3950769 -128.41203308 63.76361084 C-132.89610505 65.70253243 -137.28932274 67.27646203 -142.01953125 68.50390625 C-142.01953125 69.16390625 -142.01953125 69.82390625 -142.01953125 70.50390625 C-141.4361499 70.66173584 -140.85276855 70.81956543 -140.25170898 70.98217773 C-133.25888967 72.9660975 -126.72823937 75.64221266 -120.08203125 78.56640625 C-117.5853906 79.6502271 -115.08814069 80.73251419 -112.58984375 81.8125 C-111.91878098 82.10302246 -111.2477182 82.39354492 -110.55632019 82.69287109 C-101.55552056 86.58140783 -92.50427405 90.35005653 -83.45703125 94.12890625 C-81.63947029 94.88863506 -79.82192481 95.64840092 -78.00439453 96.40820312 C-74.27528549 97.96683662 -70.54593134 99.52488184 -66.81640625 101.08251953 C-57.82472899 104.83804034 -48.83464272 108.59736295 -39.84524536 112.3583374 C-36.99727018 113.5495753 -34.14891825 114.73990895 -31.30053711 115.93017578 C-29.5701332 116.6539318 -27.83974496 117.37772531 -26.109375 118.1015625 C-24.91882507 118.59866982 -24.91882507 118.59866982 -23.70422363 119.1058197 C-18.24718561 121.39007907 -18.24718561 121.39007907 -16.01953125 122.50390625 C-9.37353796 123.04798002 -4.96911226 121.63193098 1.0078125 118.83984375 C2.29005707 118.26338356 2.29005707 118.26338356 3.59820557 117.67527771 C6.37758876 116.4228998 9.14747628 115.15081348 11.91796875 113.87890625 C14.80320455 112.57421719 17.69088621 111.27505668 20.57881165 109.97633362 C22.52720481 109.09989453 24.47486586 108.22182611 26.42179871 107.34214783 C35.61275895 103.19532463 44.87505072 99.22831789 54.16796875 95.31640625 C55.58782619 94.71732533 57.00766723 94.11820551 58.42749023 93.51904297 C61.61032764 92.17710701 64.79479081 90.8390874 67.98046875 89.50390625 C61.87358704 88.61066738 61.87358704 88.61066738 55.76651001 87.71876526 C50.37659373 86.93219649 44.98711583 86.14282179 39.59838867 85.34814453 C29.46618747 83.85804484 19.33498995 82.3961332 9.17578125 81.1015625 C6.79435179 80.79058449 4.4131012 80.47826988 2.03189087 80.1656189 C0.54846057 79.97565328 -0.93596343 79.79328131 -2.42129517 79.61880493 C-4.47122942 79.37778879 -6.51643755 79.1115072 -8.5625 78.83984375 C-10.26442505 78.63174072 -10.26442505 78.63174072 -12.00073242 78.41943359 C-15.79691622 77.26814453 -17.49862471 75.51664774 -20.01953125 72.50390625 C-20.85018129 69.52012388 -20.42875464 67.67538752 -20.01953125 64.50390625 C-18.89453125 62.56640625 -18.89453125 62.56640625 -17.01953125 61.50390625 C-11.42920029 60.04979379 -6.44952418 60.91479431 -0.8425293 61.76733398 C0.16801514 61.91349152 1.17855957 62.05964905 2.21972656 62.2102356 C4.40885887 62.52811347 6.59737853 62.85023309 8.78533363 63.17611504 C12.25264134 63.69254789 15.72139733 64.19799002 19.1907196 64.70069885 C25.30889839 65.58909658 31.42559065 66.48730023 37.54187012 67.38867188 C47.3202089 68.82953614 57.09974825 70.2619294 66.88109398 71.68223763 C70.29017068 72.17968184 73.69798444 72.68519492 77.10578918 73.19126892 C79.20890416 73.49821464 81.31206642 73.80483664 83.4152832 74.11108398 C84.355327 74.25291611 85.29537079 74.39474823 86.26390076 74.5408783 C94.45603267 75.71964513 101.68814881 76.62626213 109.35546875 73.00390625 C114.73046875 70.50390625 114.73046875 70.50390625 117.98046875 70.50390625 C117.98046875 69.84390625 117.98046875 69.18390625 117.98046875 68.50390625 C117.44090546 68.33284363 116.90134216 68.16178101 116.34542847 67.98553467 C110.59684547 66.12177639 105.04527759 63.95132894 99.48828125 61.58203125 C98.59757431 61.20542862 97.70686737 60.82882599 96.78916931 60.44081116 C93.89315797 59.21522063 90.99928911 57.98466003 88.10546875 56.75390625 C86.07488482 55.89324582 84.04420332 55.03281554 82.01342773 54.17260742 C70.70793006 49.37999182 59.41528428 44.5576472 48.13220215 39.71252441 C46.04630171 38.81783583 43.95935885 37.92562456 41.87207031 37.03417969 C40.47456419 36.43695468 39.07710341 35.83962357 37.6796875 35.2421875 C36.98763214 34.94633759 36.29557678 34.65048767 35.58255005 34.34567261 C30.81751171 32.30376667 26.06785665 30.22855569 21.32279968 28.14067078 C17.84978483 26.61680902 14.36963464 25.10971804 10.88815308 23.60531616 C9.21996463 22.87985691 7.55491307 22.1471346 5.89334106 21.40664673 C3.5838357 20.37828555 1.26446966 19.37618344 -1.05859375 18.37890625 C-1.73210373 18.07143967 -2.40561371 17.76397308 -3.09953308 17.44718933 C-8.75519571 15.07001516 -14.15273448 14.99892097 -19.92080688 17.24389648 C-20.51026093 17.51532471 -21.09971497 17.78675293 -21.70703125 18.06640625 C-25.23993683 19.59955395 -27.22569632 20.08122896 -31.01953125 19.50390625 C-33.89453125 18.00390625 -33.89453125 18.00390625 -36.01953125 15.50390625 C-36.86530239 10.17554804 -36.86530239 10.17554804 -36.01953125 7.50390625 C-27.07839404 -3.36377434 -12.33056556 -4.75455578 0 0 Z M-68.01953125 120.50390625 C-68.01953125 128.42390625 -68.01953125 136.34390625 -68.01953125 144.50390625 C-56.14007095 150.47837166 -44.2618517 156.44626295 -32.26953125 162.19140625 C-31.39594971 162.61276855 -30.52236816 163.03413086 -29.62231445 163.46826172 C-28.80980225 163.8551416 -27.99729004 164.24202148 -27.16015625 164.640625 C-26.45407227 164.97795654 -25.74798828 165.31528809 -25.02050781 165.6628418 C-17.59488172 168.78403285 -8.7392215 169.0393278 -1.1875 166.24609375 C2.60635627 164.65074035 6.29058547 162.83876369 9.97119141 160.99951172 C13.63919967 159.17651816 17.33026783 157.4041271 21.0234375 155.6328125 C28.68945271 151.95090407 36.33738447 148.23318753 43.98046875 144.50390625 C43.98046875 136.58390625 43.98046875 128.66390625 43.98046875 120.50390625 C31.58875625 125.36880079 19.35523266 130.45872431 7.20922852 135.90942383 C6.19530029 136.36212646 5.18137207 136.8148291 4.13671875 137.28125 C3.23759766 137.68593506 2.33847656 138.09062012 1.41210938 138.50756836 C-2.92164167 140.28327499 -6.77316079 140.74067625 -11.45703125 140.87890625 C-12.56949219 140.92789063 -13.68195313 140.976875 -14.828125 141.02734375 C-20.91685419 140.63464598 -26.46913687 137.85307124 -32.01953125 135.50390625 C-32.7137619 135.21149048 -33.40799255 134.91907471 -34.1232605 134.61779785 C-39.51829097 132.33883231 -44.89524848 130.01878617 -50.26953125 127.69140625 C-52.66790348 126.65381088 -55.06659347 125.61697926 -57.46624756 124.58235168 C-58.94606772 123.94424454 -60.42514067 123.30440113 -61.90338135 122.66264343 C-64.85937254 121.15904458 -64.85937254 121.15904458 -68.01953125 120.50390625 Z M94.04296875 159.75390625 C91.84375655 163.37613811 91.86070128 166.98762196 91.8828125 171.14453125 C91.88603516 172.21445313 91.88925781 173.284375 91.89257812 174.38671875 C91.90095703 175.49789062 91.90933594 176.6090625 91.91796875 177.75390625 C91.92248047 178.88054687 91.92699219 180.0071875 91.93164062 181.16796875 C91.94341464 183.94663731 91.96134975 186.72527852 91.98046875 189.50390625 C97.26046875 189.50390625 102.54046875 189.50390625 107.98046875 189.50390625 C108.03445516 185.60788717 108.07413793 181.71261763 108.10546875 177.81640625 C108.12222656 176.71361328 108.13898438 175.61082031 108.15625 174.47460938 C108.16269531 173.40791016 108.16914063 172.34121094 108.17578125 171.2421875 C108.18625488 170.26290283 108.19672852 169.28361816 108.20751953 168.2746582 C107.87178018 164.1775551 106.89527988 161.41871738 103.98046875 158.50390625 C98.73258537 157.9295751 98.73258537 157.9295751 94.04296875 159.75390625 Z M-68.01953125 163.50390625 C-68.44206657 199.01962471 -67.38861376 225.29407756 -41.4140625 252.0703125 C-40.28448163 253.21674813 -39.1531406 254.36145387 -38.01953125 255.50390625 C-36.75689453 256.78587891 -36.75689453 256.78587891 -35.46875 258.09375 C-28.44084378 264.79709928 -21.75901448 267.66624269 -12.01953125 268.00390625 C0.91146114 267.50173179 7.6282195 261.79035133 16.42724609 253.03369141 C17.83899187 251.6432483 19.29248746 250.29551666 20.75 248.953125 C35.69062683 234.93050904 42.78453205 216.60349925 43.98046875 196.50390625 C44.09493774 190.77378538 44.07580151 185.047272 44.04296875 179.31640625 C44.03794072 177.77669417 44.03338013 176.2369805 44.02929688 174.69726562 C44.01840139 170.96611197 44.00120957 167.23501971 43.98046875 163.50390625 C39.22278005 164.96101741 34.83312408 166.92316085 30.38671875 169.12890625 C29.67696899 169.47646973 28.96721924 169.8240332 28.23596191 170.18212891 C25.98235959 171.28582287 23.73114075 172.39425017 21.48046875 173.50390625 C18.51381743 174.96656392 15.54478702 176.42422307 12.57421875 177.87890625 C11.56615173 178.37898193 11.56615173 178.37898193 10.53771973 178.88916016 C-2.78845638 185.41277946 -15.93203184 186.07918745 -30.01953125 181.50390625 C-36.46772979 178.87095801 -42.60735773 175.54838057 -48.76953125 172.31640625 C-51.22056476 171.04830676 -53.67390774 169.7848807 -56.12921143 168.52507019 C-57.64354679 167.74626658 -59.15503132 166.96188861 -60.66326904 166.17134094 C-64.15578808 164.19247199 -64.15578808 164.19247199 -68.01953125 163.50390625 Z M-77.01953125 256.50390625 C-75.6686907 267.58079879 -65.19400627 278.71668435 -57.01953125 285.50390625 C-39.72765025 298.778266 -20.23364181 302.84728688 1.31054688 300.21972656 C20.25930403 296.87001736 35.96286598 284.84906441 46.98046875 269.50390625 C50.9489761 263.48125509 50.9489761 263.48125509 51.98046875 256.50390625 C47.38794141 254.38370195 42.92558224 253.00502679 37.98046875 254.50390625 C32.40704244 258.41786772 28.03080468 263.63565791 23.5234375 268.69140625 C15.22499334 277.89173863 4.44342763 283.56330558 -8.01953125 284.50390625 C-22.2860206 285.20553687 -35.1980517 280.31459127 -45.89453125 270.84375 C-49.62325106 267.18993751 -53.04802191 263.2650153 -56.44140625 259.30078125 C-59.54080188 255.43964445 -59.54080188 255.43964445 -64.14453125 254.19140625 C-68.57479483 254.54868557 -72.71989775 255.41193584 -77.01953125 256.50390625 Z " fill="#0DBADC" transform="translate(188.01953125,10.49609375)"/>
<path d="M0 0 C2.4824603 1.94498058 4.87586095 3.96088248 7.2578125 6.02734375 C8.07765625 6.7028125 8.8975 7.37828125 9.7421875 8.07421875 C21.92540857 18.44130748 36.50335907 36.30755637 38.7578125 52.65234375 C38.2578125 56.02734375 38.2578125 56.02734375 36.1953125 58.96484375 C33.2578125 61.02734375 33.2578125 61.02734375 29.7578125 61.65234375 C25.27253455 60.85140126 24.18582894 59.47903343 21.2578125 56.02734375 C19.8334601 53.43985237 18.71149148 50.7492511 17.5703125 48.02734375 C13.84917881 39.67188714 9.23258285 32.91760311 3.2578125 26.02734375 C2.62359375 25.28097656 1.989375 24.53460938 1.3359375 23.765625 C-13.3544234 7.78828804 -36.69241505 -1.05506427 -58.0625 -2 C-83.69854116 -1.80949863 -105.66059186 6.76097268 -123.7421875 25.02734375 C-124.47050781 25.73375 -125.19882812 26.44015625 -125.94921875 27.16796875 C-140.68996128 42.40297681 -147.41581036 64.20995759 -147.9921875 85.02734375 C-147.31224785 109.585164 -138.26279222 130.94155695 -120.7421875 148.02734375 C-120.01386719 148.7646875 -119.28554688 149.50203125 -118.53515625 150.26171875 C-102.41473885 165.69425192 -79.41997815 172.43633147 -57.46337891 171.97998047 C-33.69740611 170.76242897 -12.38238061 160.46731708 3.9453125 143.27734375 C17.27745725 127.87024981 23.9962188 109.74389585 25.4362793 89.66381836 C25.85110131 84.64318369 26.52785882 80.75729743 30.2578125 77.02734375 C32.18359375 76.7890625 32.18359375 76.7890625 34.5703125 76.71484375 C35.74013672 76.65876953 35.74013672 76.65876953 36.93359375 76.6015625 C40.25691984 77.2103735 41.3132082 78.27867834 43.2578125 81.02734375 C43.6723063 83.73983992 43.82863648 85.94809962 43.7578125 88.65234375 C43.74572754 89.39726074 43.73364258 90.14217773 43.72119141 90.90966797 C43.02549658 111.08481796 35.43478697 134.17885537 21.41796875 149.0859375 C18.94083278 151.80062089 18.94083278 151.80062089 19.43310547 154.85327148 C20.31221974 158.23674237 21.53053879 160.7392964 23.29296875 163.75390625 C24.24840576 165.40543701 24.24840576 165.40543701 25.22314453 167.09033203 C25.92208234 168.27773885 26.62114138 169.4650743 27.3203125 170.65234375 C28.03855407 171.88730233 28.75582368 173.12282665 29.47216797 174.35888672 C30.96851801 176.93931949 32.46907385 179.51724052 33.97216797 182.09375 C36.22659356 185.96513381 38.45175388 189.85273573 40.66796875 193.74609375 C41.02373489 194.37091644 41.37950104 194.99573914 41.74604797 195.63949585 C42.79190693 197.47695789 43.83739024 199.31463323 44.8828125 201.15234375 C48.86695392 208.15237896 52.87212979 215.12533262 57.10083008 221.98120117 C59.5712436 226.35016841 59.53343065 228.99377569 58.2578125 233.77734375 C56.2578125 237.02734375 56.2578125 237.02734375 53.1496582 238.33911133 C48.50421848 239.16060901 45.45435887 238.54919426 40.98828125 237.2890625 C40.22606766 237.08883987 39.46385406 236.88861725 38.67854309 236.68232727 C36.26265241 236.04316349 33.85437601 235.37922187 31.4453125 234.71484375 C29.80836627 234.27900499 28.1709991 233.84474399 26.53320312 233.41210938 C14.74841201 230.27264351 14.74841201 230.27264351 12.2578125 229.02734375 C11.89429688 230.68056641 11.89429688 230.68056641 11.5234375 232.3671875 C10.63316646 236.40592339 9.73153622 240.44205278 8.82666016 244.47753906 C8.45573123 246.14019213 8.08806015 247.80357637 7.72412109 249.46777344 C7.22270428 251.76037042 6.71012927 254.05022397 6.1953125 256.33984375 C6.04545898 257.03779053 5.89560547 257.7357373 5.74121094 258.45483398 C4.82660815 262.46234139 3.67259277 265.6842843 1.2578125 269.02734375 C-1.84267678 270.57758839 -4.32112968 270.3172639 -7.7421875 270.02734375 C-12.57102604 267.00547504 -14.63122318 263.17504742 -17.1796875 258.27734375 C-18.05732325 256.64574901 -18.93767754 255.01561453 -19.8203125 253.38671875 C-20.52510742 252.08250977 -20.52510742 252.08250977 -21.24414062 250.75195312 C-23.88053983 245.95693762 -26.65885711 241.24553711 -29.4296875 236.52734375 C-34.60667834 227.69086706 -39.7523271 218.83736896 -44.8671875 209.96484375 C-45.49455811 208.876875 -46.12192871 207.78890625 -46.76831055 206.66796875 C-49.7696128 201.46010287 -52.76478335 196.24891072 -55.7421875 191.02734375 C-59.7021875 191.02734375 -63.6621875 191.02734375 -67.7421875 191.02734375 C-68.17039795 191.81906982 -68.5986084 192.6107959 -69.03979492 193.42651367 C-70.64497987 196.38434604 -72.25793913 199.33765704 -73.8762207 202.28833008 C-74.5727051 203.56201684 -75.26612146 204.83738658 -75.95629883 206.11450195 C-76.95356359 207.95854171 -77.96200323 209.79608358 -78.97265625 211.6328125 C-79.57489014 212.73778076 -80.17712402 213.84274902 -80.79760742 214.98120117 C-82.80902125 218.13203737 -85.01148134 220.48917085 -87.7421875 223.02734375 C-88.0721875 223.35734375 -88.4021875 223.68734375 -88.7421875 224.02734375 C-93.05637519 224.52513464 -95.07680327 224.49452842 -98.6796875 221.96484375 C-100.68656484 219.1065639 -101.32556748 217.67830408 -101.22094727 214.23217773 C-100.10078732 209.0735013 -96.91916143 204.57280113 -94.2421875 200.08984375 C-93.62214844 199.02443359 -93.00210938 197.95902344 -92.36328125 196.86132812 C-90.83620586 194.2418065 -89.29569426 191.63124737 -87.7421875 189.02734375 C-90.83060021 187.43381593 -93.94981147 186.19365527 -97.22412109 185.02368164 C-108.83149165 180.8599018 -118.78297501 175.32932601 -128.7421875 168.02734375 C-129.00700928 168.73584473 -129.27183105 169.4443457 -129.54467773 170.17431641 C-130.79984868 173.16471959 -132.27661116 175.87005508 -133.90234375 178.67578125 C-134.5274585 179.75738525 -135.15257324 180.83898926 -135.79663086 181.95336914 C-136.45928955 183.09153076 -137.12194824 184.22969238 -137.8046875 185.40234375 C-138.48399055 186.57468111 -139.16310774 187.74712619 -139.84204102 188.91967773 C-143.92667932 195.96294867 -148.05274941 202.98045001 -152.30297852 209.92529297 C-154.01649106 212.31073278 -154.01649106 212.31073278 -154.7421875 215.02734375 C-153.7975061 214.75470703 -153.7975061 214.75470703 -152.83374023 214.4765625 C-149.95169066 213.6506238 -147.06581932 212.83889697 -144.1796875 212.02734375 C-143.18904297 211.74117187 -142.19839844 211.455 -141.17773438 211.16015625 C-130.88091739 208.28662593 -130.88091739 208.28662593 -125.7421875 209.02734375 C-120.69460468 212.062953 -119.91333358 218.18354445 -118.4921875 223.52734375 C-118.2240625 224.47738281 -117.9559375 225.42742187 -117.6796875 226.40625 C-116.55698252 230.47891961 -115.7421875 233.76749726 -115.7421875 238.02734375 C-115.0615625 237.67671875 -114.3809375 237.32609375 -113.6796875 236.96484375 C-109.8517412 235.74315876 -107.59814894 235.90560951 -103.7421875 237.02734375 C-101.2421875 239.71484375 -101.2421875 239.71484375 -99.7421875 243.02734375 C-99.96103032 248.76775933 -102.7104086 252.94295034 -105.6171875 257.71484375 C-106.06449219 258.47345703 -106.51179688 259.23207031 -106.97265625 260.01367188 C-110.861924 266.51299395 -110.861924 266.51299395 -113.7421875 269.02734375 C-115.86328125 269.49609375 -115.86328125 269.49609375 -118.1796875 269.52734375 C-119.32244141 269.57375 -119.32244141 269.57375 -120.48828125 269.62109375 C-123.87617227 268.72861639 -124.79617437 266.89618143 -126.7421875 264.02734375 C-127.60272755 261.45739075 -128.2922827 259.05280275 -128.8828125 256.42578125 C-129.05472107 255.70750153 -129.22662964 254.9892218 -129.40374756 254.24917603 C-129.76263032 252.7395087 -130.11525436 251.22834116 -130.46191406 249.71582031 C-130.99278892 247.39971989 -131.54148342 245.08842734 -132.09375 242.77734375 C-132.44113909 241.30623359 -132.78752834 239.83488688 -133.1328125 238.36328125 C-133.29525452 237.67261566 -133.45769653 236.98195007 -133.62506104 236.27035522 C-134.27020939 233.44748921 -134.7421875 230.93448087 -134.7421875 228.02734375 C-135.74958984 228.35605469 -135.74958984 228.35605469 -136.77734375 228.69140625 C-144.33896263 231.09161044 -151.96227368 233.25860141 -159.6171875 235.33984375 C-160.60340088 235.61844238 -161.58961426 235.89704102 -162.60571289 236.18408203 C-168.06013698 237.64124732 -172.23922177 238.5248483 -177.7421875 237.02734375 C-180.58654498 234.47471524 -181.64604113 233.02522912 -182.01416016 229.20458984 C-181.70292046 225.56861725 -180.75311587 223.53951168 -178.953125 220.37890625 C-178.34823242 219.30318359 -177.74333984 218.22746094 -177.12011719 217.11914062 C-176.45283563 215.96333279 -175.78518306 214.80773908 -175.1171875 213.65234375 C-174.4329495 212.44781599 -173.74969479 211.24272919 -173.06738281 210.03710938 C-170.97784113 206.35621674 -168.86268001 202.69047003 -166.7421875 199.02734375 C-166.11280273 197.93776367 -165.48341797 196.84818359 -164.83496094 195.72558594 C-159.7503148 186.94003794 -154.65163043 178.16336157 -149.38671875 169.484375 C-148.60506348 168.17919922 -148.60506348 168.17919922 -147.80761719 166.84765625 C-146.83479713 165.22439314 -145.85046268 163.60795225 -144.85253906 162 C-142.38195294 157.91312258 -142.38195294 157.91312258 -141.734375 153.27734375 C-142.92221589 150.6254199 -144.3508163 148.86754333 -146.3046875 146.71484375 C-160.36723335 129.72890127 -166.14577035 107.08845109 -166.1171875 85.46484375 C-166.11697601 84.80259796 -166.11676453 84.14035217 -166.11654663 83.45803833 C-166.08260386 72.79823828 -165.1470104 63.14134225 -161.7421875 53.02734375 C-161.37996094 51.90070313 -161.01773437 50.7740625 -160.64453125 49.61328125 C-156.43368892 37.65163423 -149.95481545 26.672196 -141.7421875 17.02734375 C-141.12730469 16.2796875 -140.51242187 15.53203125 -139.87890625 14.76171875 C-105.67613099 -25.5413511 -41.99646401 -30.21113152 0 0 Z M-1.04541016 168.87231445 C-12.55071869 176.56153633 -24.49020352 181.96973302 -37.7421875 186.02734375 C-35.74367557 189.69482323 -33.743272 193.36126733 -31.7421875 197.02734375 C-31.12102051 198.16558594 -30.49985352 199.30382812 -29.85986328 200.4765625 C-28.18995562 203.53426579 -26.51514935 206.58925581 -24.83813477 209.64306641 C-24.14958352 210.89849719 -23.46240656 212.15468269 -22.77661133 213.41162109 C-18.37774387 221.471495 -13.79261857 229.3514 -8.7421875 237.02734375 C-6.85982122 234.20379432 -6.3086077 232.74858818 -5.62890625 229.53515625 C-5.43232422 228.66503906 -5.23574219 227.79492188 -5.03320312 226.8984375 C-4.63303168 225.07759267 -4.24229184 223.25464769 -3.86132812 221.4296875 C-2.61421258 216.00012337 -1.47784142 212.42821066 3.2578125 209.02734375 C5.40625 208.6171875 5.40625 208.6171875 7.6328125 208.96484375 C8.48746094 209.09632813 9.34210938 209.2278125 10.22265625 209.36328125 C15.21349204 210.45522731 20.12482077 211.7838334 25.03515625 213.1875 C28.18660344 214.15343532 28.18660344 214.15343532 31.2578125 214.02734375 C30.01229651 210.76745273 28.63096572 207.74444351 26.89453125 204.71875 C26.42571533 203.89914795 25.95689941 203.0795459 25.47387695 202.23510742 C24.96945068 201.36217041 24.46502441 200.4892334 23.9453125 199.58984375 C23.42348389 198.68274658 22.90165527 197.77564941 22.36401367 196.84106445 C20.66770846 193.89977845 18.9641036 190.96284735 17.2578125 188.02734375 C16.35724121 186.47708496 16.35724121 186.47708496 15.43847656 184.89550781 C13.65478947 181.83190857 11.86419184 178.7724844 10.0703125 175.71484375 C9.22376099 174.26476929 9.22376099 174.26476929 8.36010742 172.78540039 C7.83779541 171.89973389 7.3154834 171.01406738 6.77734375 170.1015625 C6.31432861 169.31354248 5.85131348 168.52552246 5.37426758 167.71362305 C4.82162231 166.87891479 4.82162231 166.87891479 4.2578125 166.02734375 C2.19607868 166.02734375 0.61314049 167.75796817 -1.04541016 168.87231445 Z " fill="#1EDDB3" transform="translate(445.7421875,234.97265625)"/>
<path d="M0 0 C16.47528999 12.24125567 27.06246569 28.13075898 30.609375 48.41015625 C32.09012479 69.59815391 29.55928666 89.30469522 15.5703125 106.1953125 C3.10705151 120.27234234 -12.56152711 131.23403364 -31.92333984 132.5871582 C-51.77297826 133.04132951 -72.94285291 131.4737057 -88.24609375 116.9453125 C-90.33355968 114.14540086 -90.51465497 111.82098035 -90.390625 108.41015625 C-89.25411556 106.03381832 -88.24621471 104.26574596 -86.390625 102.41015625 C-82.44738598 101.72850224 -78.8313517 101.58496391 -75.296875 103.609375 C-73.96328929 104.65983835 -72.64579684 105.73100166 -71.34375 106.8203125 C-60.52772042 115.62456058 -45.76088253 116.76703882 -32.390625 115.41015625 C-27.84840521 114.49134623 -23.67728866 113.15770237 -19.390625 111.41015625 C-18.66875 111.13300781 -17.946875 110.85585938 -17.203125 110.5703125 C-4.05717438 104.8189591 4.15554102 93.91969367 10.0546875 81.32421875 C14.96736949 67.96034956 14.40836827 51.35953061 8.609375 38.41015625 C1.51577295 23.80990697 -8.67184557 14.92861318 -23.81640625 9.22265625 C-38.56938352 4.56617784 -52.65199201 5.9675083 -66.640625 12.53515625 C-80.60413705 20.00946617 -89.60497141 31.33277451 -94.390625 46.41015625 C-95.68650935 51.20151812 -95.53825486 55.9843898 -95.515625 60.91015625 C-95.51949219 61.75191406 -95.52335937 62.59367187 -95.52734375 63.4609375 C-95.52084402 67.58826915 -95.36892984 71.37835449 -94.390625 75.41015625 C-93.91517784 79.8476631 -93.86537707 81.68407823 -96.515625 85.34765625 C-99.390625 87.41015625 -99.390625 87.41015625 -102.390625 87.97265625 C-106.31197538 87.23740305 -107.73488214 86.42478328 -110.390625 83.41015625 C-113.49479347 76.19187155 -113.90317872 68.98237679 -113.828125 61.22265625 C-113.82055176 60.12348877 -113.81297852 59.02432129 -113.80517578 57.8918457 C-113.37327507 36.47177746 -104.37129287 19.59207571 -89.17578125 4.83203125 C-64.75476072 -16.40363878 -26.66493281 -17.73305172 0 0 Z " fill="#18D3BF" transform="translate(425.390625,259.58984375)"/>
<path d="M0 0 C0.86625 -0.00773437 1.7325 -0.01546875 2.625 -0.0234375 C5.51059893 0.46065969 6.22098981 1.09242506 8 3.375 C8.40063477 5.56396484 8.40063477 5.56396484 8.44140625 8.0859375 C8.46783203 9.00117188 8.49425781 9.91640625 8.52148438 10.859375 C8.53501953 11.81328125 8.54855469 12.7671875 8.5625 13.75 C8.44051118 21.8531479 8.44051118 21.8531479 11 29.375 C14.31857999 31.03428999 18.03114612 30.51373505 21.67953491 30.50630188 C22.58905367 30.50841759 23.49857244 30.51053331 24.43565238 30.51271313 C27.5018726 30.51873376 30.5680519 30.51771152 33.63427734 30.5168457 C35.82509939 30.5198758 38.0159208 30.52339684 40.20674133 30.52737427 C44.93379156 30.53527464 49.6608342 30.54041243 54.38788986 30.54366493 C61.85787022 30.54956276 69.32780263 30.56609096 76.79776001 30.58500671 C79.3523998 30.59134437 81.90703961 30.59766999 84.46167946 30.60398388 C85.74118642 30.60714969 87.02069338 30.6103155 88.33897328 30.61357725 C94.96165668 30.62961251 101.58434261 30.64428605 108.20703125 30.65795898 C108.8717581 30.65933486 109.53648495 30.66071073 110.22135504 30.66212829 C120.99498975 30.68406143 131.76861272 30.69481513 142.54226582 30.70232973 C153.5984435 30.71039699 164.65451712 30.73393944 175.71063769 30.7702834 C181.92031279 30.79008895 188.12981078 30.80243374 194.3395195 30.79744911 C200.17869232 30.79281911 206.01752911 30.80651781 211.85663414 30.83446121 C214.00287079 30.84140084 216.14914197 30.84147 218.29537773 30.83426094 C221.2194888 30.82542908 224.1424782 30.84097437 227.0664978 30.86274719 C227.92116367 30.85430466 228.77582953 30.84586212 229.65639436 30.83716375 C235.38709871 30.91638061 235.38709871 30.91638061 238.52733803 33.26614666 C240.23472206 35.71112221 240.51256069 36.98010877 240.4375 39.9375 C240.43556641 41.08412109 240.43556641 41.08412109 240.43359375 42.25390625 C239.89756987 44.87607711 239.09719643 45.75152324 237 47.375 C233.0736833 48.68377223 229.33363631 48.52305658 225.24058533 48.52217102 C224.33444553 48.52584771 223.42830574 48.5295244 222.49470717 48.5333125 C219.44560314 48.54436238 216.39653318 48.54819543 213.34741211 48.55200195 C211.16617728 48.55826571 208.98494352 48.56491243 206.80371094 48.57191467 C200.86745976 48.5893346 194.93121665 48.59987957 188.99494624 48.6081202 C185.28601806 48.61326921 181.57709238 48.61934505 177.86816597 48.62563133 C166.2635932 48.64468784 154.65902681 48.65891692 143.05444139 48.6672433 C141.7186673 48.66821182 140.38289322 48.66918607 139.04711914 48.67016602 C138.38453166 48.67064976 137.72194417 48.6711335 137.03927828 48.6716319 C126.98129729 48.67941009 116.92341487 48.70123696 106.86547852 48.73168945 C95.18138482 48.76694979 83.49737112 48.78828716 71.81322294 48.79202431 C65.63017257 48.79437421 59.44729879 48.8033268 53.26429558 48.82848549 C47.44401722 48.85178484 41.62403149 48.85599174 35.80371857 48.84572411 C33.67126809 48.84522906 31.53880313 48.8515401 29.40639687 48.86528015 C26.48668324 48.88303539 23.56801564 48.87587476 20.64830017 48.86274719 C19.81179347 48.87371644 18.97528678 48.88468568 18.11343139 48.89598733 C10.9621122 48.8187852 4.16213149 46.96956943 -1.4375 42.375 C-1.953125 41.715 -2.46875 41.055 -3 40.375 C-3.53625 39.715 -4.0725 39.055 -4.625 38.375 C-8.74701697 32.37933895 -8.3390807 26.99739827 -8.31567383 19.84790039 C-8.31250449 17.81537708 -8.33602515 15.78429765 -8.36132812 13.75195312 C-8.36197266 12.47126953 -8.36261719 11.19058594 -8.36328125 9.87109375 C-8.36775269 8.11043579 -8.36775269 8.11043579 -8.37231445 6.31420898 C-8 3.375 -8 3.375 -6.62573242 1.49389648 C-4.36650597 -0.06099687 -2.72105816 -0.02429516 0 0 Z " fill="#23E8A6" transform="translate(16,407.625)"/>
<path d="M0 0 C1.07607513 -0.00788544 1.07607513 -0.00788544 2.17388916 -0.01593018 C4.54583492 -0.02913686 6.91710988 -0.02039017 9.2890625 -0.01025391 C10.93668751 -0.01227446 12.58431165 -0.01518574 14.23193359 -0.01895142 C17.68530796 -0.02337566 21.13844956 -0.01694062 24.59179688 -0.00292969 C29.0206861 0.01416241 33.44902996 0.00432175 37.87789917 -0.01364708 C41.28023394 -0.0244823 44.68243919 -0.02103981 48.08477783 -0.0132637 C49.71787582 -0.01126096 51.35098552 -0.01372357 52.98406982 -0.02070236 C55.26573888 -0.02831274 57.54652202 -0.0167195 59.828125 0 C61.7764624 0.00358017 61.7764624 0.00358017 63.76416016 0.00723267 C66.9140625 0.38818359 66.9140625 0.38818359 68.83203125 1.76400757 C70.3386448 4.02550011 70.31314843 5.69055911 70.2890625 8.38818359 C70.30066406 9.68755859 70.30066406 9.68755859 70.3125 11.01318359 C69.81727596 13.9651073 69.33861286 14.64897146 66.9140625 16.38818359 C63.76416016 16.76913452 63.76416016 16.76913452 59.828125 16.77636719 C58.75204987 16.78425262 58.75204987 16.78425262 57.65423584 16.79229736 C55.28229008 16.80550405 52.91101512 16.79675736 50.5390625 16.78662109 C48.89143749 16.78864165 47.24381335 16.79155293 45.59619141 16.7953186 C42.14281704 16.79974285 38.68967544 16.79330781 35.23632812 16.77929688 C30.8074389 16.76220477 26.37909504 16.77204544 21.95022583 16.79001427 C18.54789106 16.80084949 15.14568581 16.797407 11.74334717 16.78963089 C10.11024918 16.78762815 8.47713948 16.79009075 6.84405518 16.79706955 C4.56238612 16.80467993 2.28160298 16.79308669 0 16.77636719 C-1.9483374 16.77278702 -1.9483374 16.77278702 -3.93603516 16.76913452 C-7.0859375 16.38818359 -7.0859375 16.38818359 -9.00390625 15.01235962 C-10.5105198 12.75086708 -10.48502343 11.08580808 -10.4609375 8.38818359 C-10.46867188 7.52193359 -10.47640625 6.65568359 -10.484375 5.76318359 C-9.47773673 -0.23717003 -5.33724836 0.00980747 0 0 Z " fill="#1EDEB2" transform="translate(210.0859375,375.61181640625)"/>
<path d="M0 0 C0.86625 -0.00773437 1.7325 -0.01546875 2.625 -0.0234375 C5.57692371 0.47178654 6.26078787 0.95044964 8 3.375 C8.38095093 6.52490234 8.38095093 6.52490234 8.38818359 10.4609375 C8.39344055 11.17832092 8.39869751 11.89570435 8.40411377 12.63482666 C8.41732045 15.00677242 8.40857376 17.37804738 8.3984375 19.75 C8.40045805 21.39762501 8.40336934 23.04524915 8.40713501 24.69287109 C8.41155925 28.14624546 8.40512421 31.59938706 8.39111328 35.05273438 C8.37402118 39.4816236 8.38386185 43.90996746 8.40183067 48.33883667 C8.4126659 51.74117144 8.40922341 55.14337669 8.4014473 58.54571533 C8.39944456 60.17881332 8.40190716 61.81192302 8.40888596 63.44500732 C8.41649634 65.72667638 8.40490309 68.00745952 8.38818359 70.2890625 C8.38579681 71.5879541 8.38341003 72.8868457 8.38095093 74.22509766 C8 77.375 8 77.375 6.62417603 79.29296875 C4.36268348 80.7995823 2.69762448 80.77408593 0 80.75 C-1.299375 80.76160156 -1.299375 80.76160156 -2.625 80.7734375 C-5.57692371 80.27821346 -6.26078787 79.79955036 -8 77.375 C-8.38095093 74.22509766 -8.38095093 74.22509766 -8.38818359 70.2890625 C-8.39344055 69.57167908 -8.39869751 68.85429565 -8.40411377 68.11517334 C-8.41732045 65.74322758 -8.40857376 63.37195262 -8.3984375 61 C-8.40045805 59.35237499 -8.40336934 57.70475085 -8.40713501 56.05712891 C-8.41155925 52.60375454 -8.40512421 49.15061294 -8.39111328 45.69726562 C-8.37402118 41.2683764 -8.38386185 36.84003254 -8.40183067 32.41116333 C-8.4126659 29.00882856 -8.40922341 25.60662331 -8.4014473 22.20428467 C-8.39944456 20.57118668 -8.40190716 18.93807698 -8.40888596 17.30499268 C-8.41649634 15.02332362 -8.40490309 12.74254048 -8.38818359 10.4609375 C-8.38579681 9.1620459 -8.38341003 7.8631543 -8.38095093 6.52490234 C-8 3.375 -8 3.375 -6.62417603 1.45703125 C-4.36268348 -0.0495823 -2.69762448 -0.02408593 0 0 Z " fill="#19D3BF" transform="translate(384,279.625)"/>
<path d="M0 0 C2.5 1.5 2.5 1.5 4 4 C4.45338653 7.17370568 4.68000641 8.98854305 4 12 C2.0625 14.4375 2.0625 14.4375 -1 17 C-12.30398715 27.14516449 -19.16949148 38.66182391 -24 53 C-26.9012883 61.38736072 -26.9012883 61.38736072 -30 64 C-33.59606794 65.09445546 -35.29673757 65.31966474 -38.75 63.75 C-41 62 -41 62 -43 59 C-43.59907736 53.02420333 -42.08956952 48.36539387 -40 42.875 C-39.68385742 42.0382373 -39.36771484 41.20147461 -39.04199219 40.33935547 C-33.63864216 26.53403477 -17.95600588 -3.34772991 0 0 Z " fill="#19D4BD" transform="translate(84,296)"/>
<path d="M0 0 C2.62114075 2.09877604 3.85969641 3.27021649 4.50170898 6.60961914 C4.49985596 7.57504639 4.49800293 8.54047363 4.49609375 9.53515625 C4.49673828 10.59154297 4.49738281 11.64792969 4.49804688 12.73632812 C4.47806641 13.83396484 4.45808594 14.93160156 4.4375 16.0625 C4.44458984 17.16400391 4.45167969 18.26550781 4.45898438 19.40039062 C4.39476197 27.4874729 4.39476197 27.4874729 2.60546875 29.81054688 C0.50670256 31.36547219 -0.84234443 31.43312368 -3.4375 31.4375 C-4.19933594 31.45683594 -4.96117187 31.47617187 -5.74609375 31.49609375 C-8.87496175 30.80741743 -9.98076324 29.45325152 -12 27 C-12.51757812 24.49804688 -12.51757812 24.49804688 -12.53125 21.71875 C-12.53640625 20.71199219 -12.5415625 19.70523437 -12.546875 18.66796875 C-12.53140625 17.62253906 -12.5159375 16.57710938 -12.5 15.5 C-12.51546875 14.45457031 -12.5309375 13.40914063 -12.546875 12.33203125 C-12.54171875 11.32527344 -12.5365625 10.31851562 -12.53125 9.28125 C-12.52673828 8.36408203 -12.52222656 7.44691406 -12.51757812 6.50195312 C-11.84333313 3.24267824 -10.56303733 2.06111887 -8 0 C-4.61786861 -1.12737713 -3.35228621 -1.06292002 0 0 Z " fill="#1DDDB3" transform="translate(20,361)"/>
</svg>
