<?xml version="1.0" encoding="UTF-8"?>
<svg version="1.1" xmlns="http://www.w3.org/2000/svg" width="512" height="512">
<path d="M0 0 C2.29721733 -0.00457064 4.59443331 -0.00987881 6.89164734 -0.0158844 C11.69011005 -0.0247818 16.48840604 -0.02243146 21.28686523 -0.01245117 C27.3957202 -0.00097523 33.50399589 -0.02116993 39.61277485 -0.05036831 C44.35297726 -0.06883337 49.09304354 -0.06841724 53.83327293 -0.06273079 C56.08362833 -0.06257878 58.33399367 -0.06852163 60.58431435 -0.08102226 C76.37500579 -0.15638994 91.41063515 0.48187293 105.63671875 8.18359375 C106.62406006 8.70010498 106.62406006 8.70010498 107.63134766 9.22705078 C115.86523589 13.64430382 122.80893139 18.66816924 129.01171875 25.68359375 C133.60399238 30.48029292 138.00620326 31.77298557 144.28857422 33.04370117 C157.56429653 35.79369458 167.50572415 44.54942542 175.42578125 55.28125 C181.66207841 65.13990701 184.64228249 75.76384277 184.52148438 87.38085938 C184.51716148 88.11482689 184.51283859 88.8487944 184.5083847 89.60500336 C184.41187 96.75661657 183.75895587 103.81605568 182.96852112 110.91963196 C182.5501414 114.7338036 182.18061039 118.55292663 181.80078125 122.37109375 C181.31881357 127.17728079 180.82298495 131.9810728 180.28417969 136.78125 C179.84403577 140.71392591 179.44721904 144.64894452 179.07829285 148.58891296 C178.93132277 150.07357943 178.76873477 151.55679389 178.58955383 153.03791809 C177.43236478 161.40831926 177.43236478 161.40831926 179.97680664 169.21679688 C182.0372481 171.58934474 182.0372481 171.58934474 184.27478027 173.50646973 C187.78493453 176.80713119 189.46466386 181.05683651 191.32421875 185.43359375 C191.73671875 186.38234375 192.14921875 187.33109375 192.57421875 188.30859375 C195.81827926 201.82551253 194.08229419 215.25257485 187.32421875 227.43359375 C179.82213221 237.79714808 169.89811338 245.46318165 157.20703125 247.828125 C155.58525055 248.07236908 153.95508563 248.26009727 152.32421875 248.43359375 C152.17726563 249.12582031 152.0303125 249.81804687 151.87890625 250.53125 C145.07861889 280.19457244 126.81213669 306.84778 101.32421875 323.58984375 C97.38600953 326.0102015 93.41645156 328.28343753 89.32421875 330.43359375 C89.32421875 334.39359375 89.32421875 338.35359375 89.32421875 342.43359375 C106.00303509 354.12001566 117.5016781 359.14788359 138.30859375 358.3515625 C153.86532645 357.9440101 167.14856351 365.15920103 178.32421875 375.43359375 C189.46145468 387.15495044 194.80874895 401.82594538 194.72827148 417.89038086 C194.73856636 419.36081848 194.73856636 419.36081848 194.74906921 420.86096191 C194.76718853 424.06110613 194.76352432 427.26075366 194.7578125 430.4609375 C194.76237831 432.70007993 194.76768507 434.93922097 194.7736969 437.17835999 C194.78259631 441.85081716 194.78023733 446.52310306 194.77026367 451.19555664 C194.75872117 457.18682756 194.7790824 463.1775137 194.80818081 469.16870785 C194.82649886 473.78318534 194.82626009 478.39752112 194.82054329 483.01202583 C194.82038984 485.22206003 194.8264536 487.43210368 194.83883476 489.6421032 C194.85367616 492.72263728 194.84312138 495.80206932 194.82592773 498.88256836 C194.8355957 499.79533035 194.84526367 500.70809235 194.85522461 501.64851379 C194.81130591 505.39736728 194.73816752 507.74804657 192.77626038 510.99719238 C189.40911914 512.96965738 186.38582779 513.00109703 182.58984375 512.96704102 C181.81539917 512.97565659 181.04095459 512.98427216 180.24304199 512.9931488 C177.68642636 513.01582774 175.13090507 513.00906727 172.57421875 513 C170.79589512 513.00523451 169.01757427 513.01151035 167.23925781 513.01878357 C163.5135389 513.02919111 159.78820185 513.02462098 156.0625 513.01000977 C151.28709109 512.9928152 146.5128846 513.016323 141.73760986 513.05149937 C138.06583681 513.07345469 134.39435235 513.07203658 130.72253418 513.06373405 C128.96185995 513.06291362 127.20116472 513.06979463 125.44055176 513.08450508 C122.97914589 513.10191886 120.51991201 513.08743805 118.05859375 513.06469727 C117.33119995 513.07638947 116.60380615 513.08808167 115.85437012 513.10012817 C112.06648762 513.02889135 110.60137738 512.70305675 107.84082031 510.01914978 C106.32421875 507.43359375 106.32421875 507.43359375 106.32421875 505.43359375 C100.05421875 505.43359375 93.78421875 505.43359375 87.32421875 505.43359375 C86.99421875 506.75359375 86.66421875 508.07359375 86.32421875 509.43359375 C85.27374172 511.15936375 85.27374172 511.15936375 83.32421875 512.43359375 C80.5200355 512.73059941 77.93730812 512.84251031 75.1318512 512.8212738 C73.86429667 512.82935211 73.86429667 512.82935211 72.57113498 512.83759362 C69.72899879 512.85194373 66.88732373 512.84475217 64.04516602 512.83764648 C62.01182682 512.84334637 59.97849082 512.85030914 57.94515991 512.85844421 C52.41420775 512.87643299 46.88341374 512.87519649 41.35244107 512.86950183 C36.73988664 512.8664182 32.12736295 512.87249322 27.51481289 512.87854058 C16.63574459 512.89260301 5.75675479 512.89101025 -5.12231445 512.87963867 C-16.35645984 512.86815563 -27.59036655 512.88223244 -38.82448047 512.90903515 C-48.46020965 512.93116608 -58.09586376 512.93783541 -67.73161656 512.93195873 C-73.49080273 512.92858172 -79.2498359 512.93105351 -85.00900078 512.94820976 C-90.42383406 512.96363527 -95.83831282 512.95977222 -101.25313187 512.94090462 C-103.24296181 512.93720653 -105.23281777 512.94036251 -107.22262383 512.95079041 C-109.93430582 512.96391876 -112.64479999 512.95252575 -115.35643005 512.93479919 C-116.14815863 512.9444042 -116.9398872 512.95400921 -117.75560755 512.96390527 C-121.2282452 512.91703708 -123.29854227 512.7015655 -126.16399479 510.66609097 C-127.80999962 508.23538973 -128.1776699 507.11065983 -128.18371582 504.21243286 C-128.19499512 503.37733688 -128.20627441 502.54224091 -128.21789551 501.68183899 C-128.20979858 500.77379013 -128.20170166 499.86574127 -128.19335938 498.93017578 C-128.20387329 497.48536583 -128.20387329 497.48536583 -128.21459961 496.0113678 C-128.23222695 492.82108854 -128.22053049 489.63169489 -128.20703125 486.44140625 C-128.20972699 484.21621532 -128.2136101 481.99102553 -128.21862793 479.76583862 C-128.22453124 475.09345323 -128.21594114 470.42137333 -128.19726562 465.74902344 C-128.1746082 459.79325731 -128.18750995 453.83821749 -128.21155548 447.88247871 C-128.22610423 443.28043284 -128.22136382 438.67855507 -128.21104431 434.07650375 C-128.20839512 431.88311551 -128.21158238 429.68971149 -128.22096252 427.49634171 C-128.28807603 407.37057164 -125.79696698 390.12358472 -111.35546875 374.85546875 C-101.89097687 366.3015548 -88.88456545 358.31878241 -75.7668457 358.46630859 C-74.70167725 358.52512207 -73.63650879 358.58393555 -72.5390625 358.64453125 C-57.94071925 359.08448132 -46.69701926 357.90322465 -33.86328125 350.62109375 C-32.74928955 350.01120605 -31.63529785 349.40131836 -30.48754883 348.77294922 C-24.68360203 345.17865934 -24.68360203 345.17865934 -21.76806641 339.24462891 C-21.50522615 336.24860216 -21.45199069 333.42988329 -21.67578125 330.43359375 C-22.97322266 330.06041016 -22.97322266 330.06041016 -24.296875 329.6796875 C-48.91187428 320.60201725 -68.15659563 294.27367616 -78.9140625 271.51953125 C-82.02850284 264.56141576 -85.67578125 256.11766078 -85.67578125 248.43359375 C-86.51496094 248.33884766 -86.51496094 248.33884766 -87.37109375 248.2421875 C-99.07072143 246.45526687 -110.35843528 240.88303354 -117.67578125 231.43359375 C-125.6955388 220.09215172 -128.98248321 208.17898057 -126.98828125 194.30859375 C-124.52687174 181.88819182 -119.05703967 172.4937321 -109.05859375 164.625 C-107.529491 163.46243196 -107.529491 163.46243196 -106.67578125 161.43359375 C-107.53816406 161.18351563 -108.40054688 160.9334375 -109.2890625 160.67578125 C-112.88745571 159.35595537 -115.68581924 157.69301057 -118.86328125 155.55859375 C-119.88808594 154.88054687 -120.91289063 154.2025 -121.96875 153.50390625 C-125.13155395 151.085023 -127.28024726 149.24645789 -128.14453125 145.28515625 C-128.21211553 140.46977641 -127.80891384 137.51403592 -124.29296875 133.87890625 C-122.49521921 132.27222188 -120.6500473 130.73064512 -118.80078125 129.18359375 C-109.80739609 121.44588878 -104.5251642 111.1121046 -102.67578125 99.43359375 C-102.56641488 97.54398583 -102.45957241 95.65402505 -102.38574219 93.76269531 C-101.83202459 79.8051931 -100.79532941 60.00513165 -90.67578125 49.43359375 C-89.45890625 49.41296875 -88.24203125 49.39234375 -86.98828125 49.37109375 C-83.65355985 49.14918992 -82.79753155 48.56238041 -80.4453125 46.07421875 C-74.35977532 38.33375348 -74.35977532 38.33375348 -73.05078125 29.12109375 C-73.09229111 26.29842314 -73.00374203 24.89682619 -71.359375 22.57421875 C-69.23859367 20.64382071 -67.05172998 19.04148655 -64.67578125 17.43359375 C-63.24105469 16.44359375 -63.24105469 16.44359375 -61.77734375 15.43359375 C-53.89029455 10.29240613 -45.67858571 6.23849845 -36.67578125 3.43359375 C-35.88009232 3.1793866 -35.08440338 2.92517944 -34.26460266 2.66326904 C-22.98385387 -0.42901289 -11.61022692 -0.02033224 0 0 Z " fill="#020202" transform="translate(222.67578125,-0.43359375)"/>
<path d="M0 0 C3.50943734 3.14081931 4.39393309 6.76857771 5.625 11.1875 C5.8415625 11.91775391 6.058125 12.64800781 6.28125 13.40039062 C9.05295522 23.05858568 9.17531062 32.47967164 9.203125 42.47265625 C9.20736607 43.50924283 9.20736607 43.50924283 9.21169281 44.56677055 C9.22661595 48.22802984 9.23588732 51.88925047 9.24023438 55.55053711 C9.24569234 59.28641411 9.26968315 63.02192176 9.29820633 66.75768375 C9.31705408 69.67063855 9.32205001 72.58350853 9.32357025 75.49651909 C9.32797736 77.5295475 9.34651375 79.56253008 9.36553955 81.59547424 C9.33618302 94.06150998 7.28364816 105.88826736 2.8125 117.5625 C2.51134277 118.35914063 2.21018555 119.15578125 1.89990234 119.9765625 C-8.7213236 147.16515527 -29.66684881 167.09629311 -56 179 C-61.21530073 181.0909944 -66.55768246 182.62601081 -72 184 C-73.23363281 184.31839844 -74.46726562 184.63679687 -75.73828125 184.96484375 C-103.20326057 191.2582973 -132.17492281 184.444944 -155.828125 169.68359375 C-168.1872443 161.5043143 -179.20404956 150.60486552 -187 138 C-187.495 137.28457031 -187.99 136.56914062 -188.5 135.83203125 C-192.04306018 130.47130739 -194.42471826 124.79655309 -196.6875 118.8125 C-196.97302734 118.07136963 -197.25855469 117.33023926 -197.55273438 116.56665039 C-202.12718865 103.96681426 -203.44964234 91.64069366 -203.29296875 78.31640625 C-203.28735229 76.88053335 -203.28309194 75.44465458 -203.28010559 74.0087738 C-203.26881765 70.28517926 -203.23949567 66.56195302 -203.20599365 62.83850098 C-203.17493987 59.01673358 -203.16152597 55.19490489 -203.14648438 51.37304688 C-203.11460487 43.91519924 -203.06361158 36.45765181 -203 29 C-201.87799446 28.99780016 -201.87799446 28.99780016 -200.73332214 28.99555588 C-182.4682961 28.95838051 -164.20345962 28.89922468 -145.93858337 28.81609726 C-137.10553717 28.77641714 -128.27257864 28.74396897 -119.43945312 28.72900391 C-111.73363218 28.71592987 -104.02800503 28.68882004 -96.32229328 28.64538693 C-92.24836458 28.62290038 -88.17467375 28.60708153 -84.10067749 28.60811615 C-80.25261087 28.60887044 -76.40506748 28.59061731 -72.55713654 28.55883217 C-71.15773157 28.55043251 -69.75826721 28.54851411 -68.35884857 28.55419731 C-42.53318312 28.64496842 -19.3627608 18.92269464 -1 1 C-0.67 0.67 -0.34 0.34 0 0 Z " fill="#FDCCBD" transform="translate(353,141)"/>
<path d="M0 0 C2.14699859 -0.00015537 4.29399744 -0.00165055 6.44099426 -0.00440979 C10.91481098 -0.00578563 15.38830391 0.00663003 19.86206055 0.02954102 C25.56763774 0.05797463 31.27268013 0.05516308 36.97829723 0.0424509 C41.40265901 0.0354652 45.82689925 0.04331511 50.2512455 0.05570793 C52.35417526 0.0601907 54.45711821 0.06058734 56.56004906 0.05664253 C77.42529288 0.03580895 77.42529288 0.03580895 87.51953125 3.49609375 C88.62167969 3.84929688 89.72382813 4.2025 90.859375 4.56640625 C109.82513539 12.26679017 123.10243361 25.56718154 131.23046875 44.30078125 C131.86855469 45.88246094 131.86855469 45.88246094 132.51953125 47.49609375 C133.03386719 48.76839844 133.03386719 48.76839844 133.55859375 50.06640625 C139.14239951 66.71345332 135.59210888 85.96268719 128.51953125 101.49609375 C119.23185613 118.82073463 104.35215489 131.60726643 85.51953125 137.49609375 C76.1241039 140.1726073 67.27486004 140.93528458 57.54394531 140.90014648 C56.09179159 140.90586547 54.63964235 140.91283555 53.1875 140.92094421 C49.28222815 140.93872625 45.37718282 140.93773529 41.47188282 140.93200183 C38.19218359 140.92888687 34.91252644 140.93502811 31.63283324 140.94104058 C23.8837665 140.95503633 16.13481011 140.95356714 8.38574219 140.94213867 C0.43713667 140.9306737 -7.51113078 140.94471709 -15.45969176 140.97153515 C-22.32473019 140.99381554 -29.18966347 141.00030163 -36.05473542 140.99445873 C-40.13691197 140.99111588 -44.21887221 140.99332299 -48.30101776 141.01070976 C-87.64226096 141.16237849 -87.64226096 141.16237849 -103.54296875 132.24609375 C-104.22939453 131.88257813 -104.91582031 131.5190625 -105.62304688 131.14453125 C-107.25151763 130.27905029 -108.86765523 129.39041295 -110.48046875 128.49609375 C-108.97526952 124.97328705 -106.89864688 122.7187245 -104.23046875 119.99609375 C-93.32866577 108.02685901 -89.39990749 93.09160564 -88.8359375 77.25512695 C-88.41781576 66.59643124 -86.12256125 56.75788511 -82.27734375 46.8046875 C-81.26672154 43.87685551 -80.94500467 41.55588849 -81.48046875 38.49609375 C-82.85552974 36.61718941 -82.85552974 36.61718941 -84.48046875 35.49609375 C-82.26019008 29.43473297 -79.22673384 23.93769993 -74.48046875 19.49609375 C-72.29296875 19.39453125 -72.29296875 19.39453125 -69.98046875 19.99609375 C-67.15095118 20.6675047 -65.29739833 20.8990049 -62.64892578 19.59277344 C-60.55300981 18.2562323 -58.54460651 16.84511 -56.54296875 15.37109375 C-55.84824463 14.86054443 -55.15352051 14.34999512 -54.43774414 13.82397461 C-53.75317139 13.32003174 -53.06859863 12.81608887 -52.36328125 12.296875 C-36.6755384 0.74926942 -18.7023185 -0.11131043 0 0 Z " fill="#DC7E65" transform="translate(224.48046875,14.50390625)"/>
<path d="M0 0 C7.21552293 2.8624299 11.41018412 8.72920907 14.703125 15.50390625 C16.05989987 19.29225054 17.07581677 23.09120498 18 27 C18.76841967 29.98553246 19.56700971 32.96245302 20.375 35.9375 C20.57818848 36.68974854 20.78137695 37.44199707 20.99072266 38.21704102 C24.23991008 49.87184379 28.70209949 60.99718075 37 70 C37.78375 70.86625 38.5675 71.7325 39.375 72.625 C51.47133036 83.56929889 64.77701574 90.45073426 81.3125 90.25 C82.15208252 90.24033203 82.99166504 90.23066406 83.85668945 90.22070312 C99.7559213 89.91338251 115.51237798 84.55428133 127 73 C138.47838734 59.79511142 144.02153165 43.82529947 148.28125 27.0859375 C148.4875 26.28615479 148.69375 25.48637207 148.90625 24.66235352 C149.28925741 23.14654501 149.65517363 21.62626585 150 20.10131836 C151.41737943 14.46371772 153.92350408 11.07707153 158 7 C158.5667041 6.34878174 159.1334082 5.69756348 159.71728516 5.02661133 C163.63146123 0.94380079 166.49222707 -0.4506195 172.1796875 -0.71875 C174.41234494 -0.68189009 176.64465981 -0.60816892 178.875 -0.5 C180.58429688 -0.46519531 180.58429688 -0.46519531 182.328125 -0.4296875 C190.57138941 -0.21430529 190.57138941 -0.21430529 193 1 C193 41.59 193 82.18 193 124 C177.16 124.495 177.16 124.495 161 125 C157.68558593 127.79991832 157.68558593 127.79991832 157 132 C150.4 132 143.8 132 137 132 C136.01 130.02 135.02 128.04 134 126 C130.66608329 124.88869443 128.15459629 124.86128642 124.64094543 124.84178162 C123.99318089 124.83684364 123.34541634 124.83190566 122.67802256 124.82681805 C120.50385683 124.81143952 118.32972064 124.8030815 116.15551758 124.79467773 C114.59844197 124.78509949 113.04136897 124.77508944 111.48429871 124.76467896 C107.25322297 124.73761804 103.02213607 124.7166149 98.79102159 124.69667697 C94.37072601 124.67482475 89.95046491 124.64743232 85.53019714 124.62062073 C77.15798123 124.57068351 68.7857462 124.52574849 60.41349286 124.48259836 C49.10134011 124.42400816 37.78923268 124.35771575 26.4771204 124.29184818 C8.65144413 124.1882574 -9.17427095 124.09497894 -27 124 C-27 83.41 -27 42.82 -27 1 C-19.79801455 -2.60099273 -7.70860772 -1.32575569 0 0 Z " fill="#3591BB" transform="translate(173,373)"/>
<path d="M0 0 C3.50943734 3.14081931 4.39393309 6.76857771 5.625 11.1875 C5.8415625 11.91775391 6.058125 12.64800781 6.28125 13.40039062 C9.05295522 23.05858568 9.17531062 32.47967164 9.203125 42.47265625 C9.20736607 43.50924283 9.20736607 43.50924283 9.21169281 44.56677055 C9.22661595 48.22802984 9.23588732 51.88925047 9.24023438 55.55053711 C9.24569234 59.28641411 9.26968315 63.02192176 9.29820633 66.75768375 C9.31705408 69.67063855 9.32205001 72.58350853 9.32357025 75.49651909 C9.32797736 77.5295475 9.34651375 79.56253008 9.36553955 81.59547424 C9.33618302 94.06150998 7.28364816 105.88826736 2.8125 117.5625 C2.51134277 118.35914063 2.21018555 119.15578125 1.89990234 119.9765625 C-7.51304443 144.07215916 -25.02030046 162.51809333 -47.5625 174.8125 C-48.25875488 175.19809082 -48.95500977 175.58368164 -49.67236328 175.98095703 C-54.65589265 178.6170956 -59.45186796 180.03683326 -65 181 C-61.83378735 178.37463506 -58.68356928 176.17588884 -55.125 174.125 C-35.1983517 161.50299905 -17.26715565 139.31813698 -12 116 C-12.99 116.495 -12.99 116.495 -14 117 C-17.95215076 117.29557554 -21.91309123 117.2779886 -25.875 117.3125 C-27.52822266 117.35600586 -27.52822266 117.35600586 -29.21484375 117.40039062 C-30.80619141 117.41295898 -30.80619141 117.41295898 -32.4296875 117.42578125 C-33.88737549 117.44765503 -33.88737549 117.44765503 -35.37451172 117.4699707 C-38.76351582 116.86332826 -39.92593973 115.70133263 -42 113 C-42.5 109.5 -42.5 109.5 -42 106 C-39.97406176 103.40057344 -38.7744608 102.16123509 -35.51391602 101.48242188 C-34.60311279 101.47791016 -33.69230957 101.47339844 -32.75390625 101.46875 C-31.75166016 101.46359375 -30.74941406 101.4584375 -29.71679688 101.453125 C-28.67587891 101.46859375 -27.63496094 101.4840625 -26.5625 101.5 C-25.00692383 101.47679687 -25.00692383 101.47679687 -23.41992188 101.453125 C-18.77486612 101.4769917 -15.83273818 101.50742275 -11.77734375 103.90625 C-10 106 -10 106 -10 108 C-9.34 108 -8.68 108 -8 108 C-7.93941406 107.443125 -7.87882812 106.88625 -7.81640625 106.3125 C-7.73261719 105.549375 -7.64882813 104.78625 -7.5625 104 C-7.48128906 103.2575 -7.40007812 102.515 -7.31640625 101.75 C-7.08260698 99.71796687 -6.80076897 97.69132934 -6.49291992 95.66918945 C-5.74365522 89.64649833 -5.81775799 83.60366366 -5.796875 77.54296875 C-5.78832489 75.59660271 -5.78832489 75.59660271 -5.77960205 73.61091614 C-5.76914147 70.86666479 -5.76326856 68.12244225 -5.75976562 65.37817383 C-5.75540592 62.60394965 -5.74160334 59.83004085 -5.71875 57.0559082 C-5.29854548 33.83367647 -5.29854548 33.83367647 -9 11 C-9.66 10.67 -10.32 10.34 -11 10 C-10.28972656 9.36191406 -9.57945312 8.72382813 -8.84765625 8.06640625 C-7.92855469 7.24011719 -7.00945312 6.41382813 -6.0625 5.5625 C-5.14597656 4.73878906 -4.22945313 3.91507813 -3.28515625 3.06640625 C-1.61665644 1.56046061 -1.61665644 1.56046061 0 0 Z " fill="#FCAE9C" transform="translate(353,141)"/>
<path d="M0 0 C9.07566403 4.53783201 15.20569456 12.61408655 19 22 C20.68870268 28.0124874 21.2850367 33.69227507 21.22705078 39.91625977 C21.22734283 40.75638107 21.22763489 41.59650238 21.22793579 42.46208191 C21.22655601 45.20529962 21.21105934 47.94823671 21.1953125 50.69140625 C21.19157755 52.60668286 21.18873286 54.52196139 21.18673706 56.4372406 C21.17913855 61.45298636 21.1595229 66.46861439 21.1373291 71.48431396 C21.11678881 76.61257332 21.10771791 81.7408519 21.09765625 86.86914062 C21.07627313 96.91282019 21.04112218 106.95638184 21 117 C14.07 117 7.14 117 0 117 C0 78.39 0 39.78 0 0 Z " fill="#CFE2F3" transform="translate(381,380)"/>
<path d="M0 0 C0 38.28 0 76.56 0 116 C-6.6 116 -13.2 116 -20 116 C-20.06797664 104.97697765 -20.12293164 93.95409622 -20.15543652 82.93091106 C-20.17104302 77.81152703 -20.19218903 72.69229476 -20.22631836 67.57299805 C-20.25909148 62.6257511 -20.27689067 57.67864946 -20.28463173 52.73130226 C-20.29014317 50.85080493 -20.30090507 48.97031488 -20.31719017 47.08987999 C-20.51197721 23.64991683 -20.51197721 23.64991683 -14.0625 13.625 C-13.27746094 12.40296875 -13.27746094 12.40296875 -12.4765625 11.15625 C-4.83695652 0 -4.83695652 0 0 0 Z " fill="#E7F3FC" transform="translate(130,381)"/>
<path d="M0 0 C16.32441587 2.83902885 30.84246443 13.5314163 40.5625 26.625 C44.47487342 32.4188294 47.38841092 38.52642464 50 45 C50.34289062 45.84820312 50.68578125 46.69640625 51.0390625 47.5703125 C56.62286826 64.21735957 53.07257763 83.46659344 46 99 C36.60968308 116.51610238 21.78318393 128.75381057 3 135 C0.67542453 135.38974918 -1.65746598 135.7390595 -4 136 C-1.55078413 133.35614445 1.16709514 131.42278029 4.125 129.375 C20.19564054 117.70264003 31.68038369 100.88448092 35 81 C35.27714308 76.87110448 35.27961908 72.76179816 35.25 68.625 C35.25773437 67.5525 35.26546875 66.48 35.2734375 65.375 C35.22465863 45.32688483 27.64097418 27.38997516 13.5 13.125 C9.67513659 9.42816549 5.77187264 6.09843904 1.36328125 3.12109375 C0.91339844 2.75113281 0.46351563 2.38117187 0 2 C0 1.34 0 0.68 0 0 Z " fill="#D3684A" transform="translate(307,17)"/>
<path d="M0 0 C1.56234375 0.39832031 1.56234375 0.39832031 3.15625 0.8046875 C26.588894 6.64147087 47.43535424 7.46727464 71 2 C72.69622388 1.62064463 74.3928263 1.24297695 76.08984375 0.8671875 C76.83999756 0.7007373 77.59015137 0.53428711 78.36303711 0.36279297 C78.90323486 0.24307129 79.44343262 0.12334961 80 0 C80.76580785 6.84022546 80.76580785 6.84022546 78.86767578 9.71484375 C77.17585089 11.42317685 75.4132605 12.96512774 73.5625 14.5 C72.18781084 15.7085088 70.8141539 16.91819253 69.44140625 18.12890625 C68.35496826 19.06887451 68.35496826 19.06887451 67.24658203 20.02783203 C63.40580078 23.39947199 59.71035353 26.9237677 56 30.4375 C55.30720947 31.0871875 54.61441895 31.736875 53.90063477 32.40625 C49.51668447 36.52336952 45.22651911 40.72147489 41 45 C38.08165783 43.68516427 36.05079071 42.28366724 33.828125 39.98828125 C33.25030273 39.39885742 32.67248047 38.80943359 32.07714844 38.20214844 C31.47418945 37.57856445 30.87123047 36.95498047 30.25 36.3125 C25.94490353 31.92763849 21.62968728 27.68380022 16.93359375 23.71484375 C13.59279151 20.75199086 10.5102558 17.52829149 7.39453125 14.33203125 C5.07101382 11.91408677 5.07101382 11.91408677 2.19921875 10.19921875 C0 8 0 8 -0.31323242 5.97192383 C-0.31257534 3.97854632 -0.165541 1.986492 0 0 Z " fill="#FCA48D" transform="translate(216,336)"/>
<path d="M0 0 C8.28255973 2.32946992 14.60074189 9.94369646 19 17 C22.23405841 23.50458061 23.65496065 29.20324835 23.5 36.4375 C23.49154053 37.37271484 23.48308105 38.30792969 23.47436523 39.27148438 C23.12212049 54.73681969 21.25655237 70.16917021 19.70999146 85.54969788 C18.97046 93.02452571 18.43123857 100.50120036 18 108 C14.04 107.34 10.08 106.68 6 106 C5.78085937 105.07960938 5.56171875 104.15921875 5.3359375 103.2109375 C5.01882813 101.94507813 4.70171875 100.67921875 4.375 99.375 C4.20766357 98.69421387 4.04032715 98.01342773 3.86791992 97.31201172 C2.60409156 92.47936482 0.72321603 88.52673203 -1.6875 84.125 C-3.5925901 79.91674128 -4.38790011 77.26253269 -2.9296875 72.90625 C-1.7273563 69.96928094 -0.35050294 67.12560241 1.03125 64.26953125 C10.63968884 44.31942532 6.78985237 20.06370792 0 0 Z " fill="#C15539" transform="translate(368,50)"/>
<path d="M0 0 C2.67688441 1.66400923 3.73689434 3.00246992 4.54296875 6.05859375 C4.85127027 7.62118182 5.15321403 9.18503594 5.44921875 10.75 C6.50507847 15.06329929 8.83404125 17.9400375 12.0625 20.875 C17.23272908 22.85508773 22.86419224 23.0018736 28.1640625 21.30859375 C32.53143605 19.08773784 34.38003955 16.51883704 36 12 C36.5183848 9.68903264 36.98758148 7.3873992 37.375 5.05078125 C38.13080427 2.57079849 38.92414306 1.54247703 41 0 C42.9375 -0.3984375 42.9375 -0.3984375 45 -0.375 C46.0209375 -0.38660156 46.0209375 -0.38660156 47.0625 -0.3984375 C49.62877453 0.12930444 50.4836856 0.87159538 52 3 C53.37681637 10.45465437 51.71398313 17.50577526 48 24 C43.39844507 30.64786852 37.94710448 35.90812993 30 38 C21.19788963 39.1964646 11.88274208 39.371118 4.109375 34.61328125 C-3.41267136 28.86030875 -9.04982004 22.46198425 -11 13 C-11.46307774 8.68806301 -11.73778152 5.2099617 -9.4375 1.4375 C-6.04481874 -0.56331202 -3.87285839 -0.55326548 0 0 Z " fill="#050404" transform="translate(235,249)"/>
<path d="M0 0 C5.70191484 4.03198807 10.64933351 8.42461658 15.5 13.4375 C19.97973177 17.99692064 24.46069581 22.44259537 29.34765625 26.5703125 C32.04528788 28.90443349 34.50986742 31.4476141 37 34 C35.38814492 38.16893381 32.33808149 40.84983853 29.125 43.8125 C28.33029297 44.5849707 28.33029297 44.5849707 27.51953125 45.37304688 C23.65589292 48.95386305 23.65589292 48.95386305 20.9453125 49.14453125 C18.07790359 47.45748143 16.0434572 45.27985369 13.75 42.875 C10.67574534 39.6674684 7.60521053 36.61705008 4.234375 33.72265625 C-0.57723822 29.5664455 -5.02989948 25.07992243 -9.5 20.5625 C-10.32242188 19.73556641 -11.14484375 18.90863281 -11.9921875 18.05664062 C-13.99712113 16.04005041 -15.99966253 14.02114764 -18 12 C-15.66069552 9.55314129 -13.50919924 7.50511069 -10.546875 5.859375 C-9.928125 5.51132812 -9.309375 5.16328125 -8.671875 4.8046875 C-8.03765625 4.45664062 -7.4034375 4.10859375 -6.75 3.75 C-6.1003125 3.38648438 -5.450625 3.02296875 -4.78125 2.6484375 C-3.19081574 1.75966541 -1.59585552 0.87900064 0 0 Z " fill="#D4E8FA" transform="translate(207,356)"/>
<path d="M0 0 C6.47713607 3.46479154 12.81642857 7.03318059 19 11 C14.31429594 16.62883299 9.31520448 21.83578987 4.125 27 C3.36058594 27.76828125 2.59617187 28.5365625 1.80859375 29.328125 C-2.41052556 33.54008112 -6.70601774 37.5869568 -11.25341797 41.44335938 C-13.04154184 43.03702415 -14.63054288 44.73698291 -16.25 46.5 C-17.1575 47.325 -18.065 48.15 -19 49 C-22.21245861 48.7168991 -23.94130618 47.45575912 -26.234375 45.27734375 C-26.80800781 44.73916016 -27.38164062 44.20097656 -27.97265625 43.64648438 C-28.55917969 43.08251953 -29.14570313 42.51855469 -29.75 41.9375 C-30.35199219 41.36966797 -30.95398438 40.80183594 -31.57421875 40.21679688 C-33.05563212 38.81768425 -34.5286488 37.40969053 -36 36 C-32.78470713 28.50329083 -25.24577054 23.15237958 -19.171875 17.953125 C-16.47213376 15.52530015 -13.92408739 12.95842431 -11.375 10.375 C-7.72521077 6.68460116 -4.08360542 3.2006637 0 0 Z " fill="#D5E8FA" transform="translate(304,356)"/>
<path d="M0 0 C0 19.8 0 39.6 0 60 C-10.10942459 56.6301918 -16.09274587 53.29658347 -21 43.75 C-24.58324688 35.93653112 -25.33283418 27.6402205 -22.875 19.3125 C-19.26890718 9.96337046 -10.64846174 0 0 0 Z " fill="#F5A998" transform="translate(135,172)"/>
<path d="M0 0 C7.94041255 1.32340209 13.30573491 4.50744392 18.375 10.8125 C23.46409517 18.27650624 25.08704214 26.04425508 24 35 C22.00805897 43.6910284 18.07575912 50.48469385 10.6875 55.6015625 C6.75512903 57.91700462 4.66795371 59 0 59 C0 39.53 0 20.06 0 0 Z " fill="#F2917D" transform="translate(377,172)"/>
<path d="M0 0 C1.56234375 0.39832031 1.56234375 0.39832031 3.15625 0.8046875 C26.588894 6.64147087 47.43535424 7.46727464 71 2 C72.69622388 1.62064463 74.3928263 1.24297695 76.08984375 0.8671875 C76.83999756 0.7007373 77.59015137 0.53428711 78.36303711 0.36279297 C78.90323486 0.24307129 79.44343262 0.12334961 80 0 C80.4836272 7.37531486 80.4836272 7.37531486 78.5 9.9375 C75.72355283 11.11749005 73.14074612 11.37450598 70.16308594 11.71655273 C66.8643164 12.14881813 63.63165448 12.88702157 60.375 13.5625 C45.44752371 16.35302687 30.41934332 15.81489839 15.59765625 12.72265625 C12.57551489 12.11560288 9.69198181 11.73137744 6.625 11.5 C3 11 3 11 1.2734375 9.96875 C-0.79159756 6.77618046 -0.18404813 3.742312 0 0 Z " fill="#F0907C" transform="translate(216,336)"/>
<path d="M0 0 C3.14360362 0.57739658 4.81119223 1.33051819 7.01293945 3.65649414 C9.46624839 8.11171231 8.76876528 13.62157113 8.6875 18.5625 C8.70683594 19.738125 8.72617187 20.91375 8.74609375 22.125 C8.69172003 31.69477519 8.69172003 31.69477519 5.75 34.87109375 C3.0625 36.5625 3.0625 36.5625 -0.5625 36.625 C-4.33430517 35.43757985 -5.03815688 34.90810606 -6.9375 31.5625 C-7.567936 27.08583303 -7.40090131 22.57874642 -7.375 18.0625 C-7.39498047 16.82628906 -7.41496094 15.59007812 -7.43554688 14.31640625 C-7.43490234 13.12917969 -7.43425781 11.94195312 -7.43359375 10.71875 C-7.43544678 9.63400391 -7.4372998 8.54925781 -7.43920898 7.43164062 C-6.64097174 2.8667335 -4.50284154 0.86224625 0 0 Z " fill="#040303" transform="translate(310.9375,191.4375)"/>
<path d="M0 0 C3.15460081 0.57941647 4.81584102 1.35181973 7.02612305 3.68334961 C9.40644346 7.99932752 8.63881142 13.34281049 8.5 18.125 C8.49419922 19.26130859 8.48839844 20.39761719 8.48242188 21.56835938 C8.34186964 31.09780079 8.34186964 31.09780079 6.0625 34.5625 C3.0625 36.5625 3.0625 36.5625 -0.4375 36.375 C-4.97767395 35.32103105 -4.97767395 35.32103105 -6.9375 32.5625 C-7.59249645 27.94665494 -7.40054961 23.28199666 -7.375 18.625 C-7.39498047 17.33658203 -7.41496094 16.04816406 -7.43554688 14.72070312 C-7.43490234 13.48384766 -7.43425781 12.24699219 -7.43359375 10.97265625 C-7.43544678 9.83965088 -7.4372998 8.70664551 -7.43920898 7.53930664 C-6.65783574 2.90315871 -4.58160682 0.87732897 0 0 Z " fill="#060504" transform="translate(199.9375,191.4375)"/>
<path d="M0 0 C1.55557617 -0.04253906 1.55557617 -0.04253906 3.14257812 -0.0859375 C10.71597466 -0.10539388 10.71597466 -0.10539388 14.78515625 2.8046875 C16.5625 5.5 16.5625 5.5 16.5625 9.125 C15.26340992 13.50942902 15.26340992 13.50942902 12.5625 15.5 C8.44846238 16.17167961 4.28775487 16.00933877 0.125 16 C-1.02033203 16.02835937 -2.16566406 16.05671875 -3.34570312 16.0859375 C-11.70576304 16.10550464 -11.70576304 16.10550464 -15.22265625 13.1953125 C-16.89017342 9.49567634 -16.58057401 7.3578748 -15.4375 3.5 C-10.97497786 -0.82622836 -5.86274529 -0.01452073 0 0 Z " fill="#FE9084" transform="translate(184.4375,242.5)"/>
<path d="M0 0 C1.00224609 -0.00515625 2.00449219 -0.0103125 3.03710938 -0.015625 C4.07802734 -0.00015625 5.11894531 0.0153125 6.19140625 0.03125 C7.74698242 0.00804687 7.74698242 0.00804687 9.33398438 -0.015625 C13.90650448 0.007869 16.91582373 0.05469327 20.94140625 2.34375 C22.75390625 4.53125 22.75390625 4.53125 23.31640625 8.03125 C22.66226436 12.10146623 21.93607267 13.03020718 18.75390625 15.53125 C16.16015625 16.04882812 16.16015625 16.04882812 13.25390625 16.0625 C12.20203125 16.06765625 11.15015625 16.0728125 10.06640625 16.078125 C8.97328125 16.06265625 7.88015625 16.0471875 6.75390625 16.03125 C5.11421875 16.05445313 5.11421875 16.05445313 3.44140625 16.078125 C2.38953125 16.07296875 1.33765625 16.0678125 0.25390625 16.0625 C-0.70515625 16.05798828 -1.66421875 16.05347656 -2.65234375 16.04882812 C-5.99243416 15.38231912 -7.18540844 14.20012368 -9.24609375 11.53125 C-9.74609375 8.03125 -9.74609375 8.03125 -9.24609375 4.53125 C-6.41984171 0.90496244 -4.55384387 0.02255774 0 0 Z " fill="#FE8F83" transform="translate(320.24609375,242.46875)"/>
<path d="M0 0 C4.39831531 3.68022301 8.53758412 7.454292 12.51953125 11.58203125 C15.4654915 14.40362379 18.06349928 14.11799439 22.02734375 14.1328125 C24.21324535 14.06879933 24.21324535 14.06879933 27 13 C31.42759056 21.32387026 29.3878225 28.24465082 27 37 C15.15110735 32.04500853 8.41566602 23.20327545 3.58984375 11.61328125 C0 2.52367688 0 2.52367688 0 0 Z " fill="#E1EDF6" transform="translate(208,407)"/>
<path d="M0 0 C-3.11384107 14.12154242 -9.42508253 25.16261883 -21.4375 33.5625 C-24 35 -24 35 -26 35 C-26.53518883 32.9620493 -27.05254093 30.91940991 -27.5625 28.875 C-27.85253906 27.73804688 -28.14257812 26.60109375 -28.44140625 25.4296875 C-29.31676189 20.05512632 -28.16881751 15.91598635 -26 11 C-25.01 11.33 -24.02 11.66 -23 12 C-17.6435491 12.74107439 -17.6435491 12.74107439 -12.875 10.61328125 C-10.81961282 8.81871024 -8.89434797 6.96330711 -7 5 C-2.11138614 0 -2.11138614 0 0 0 Z " fill="#E2EEF7" transform="translate(303,409)"/>
<path d="M0 0 C2.88314103 5.76628206 3.14160796 10.23594792 3.11352539 16.62402344 C3.11367142 17.49267532 3.11381744 18.36132721 3.1139679 19.25630188 C3.11327191 22.12401843 3.10549415 24.99166981 3.09765625 27.859375 C3.09579096 29.8490597 3.09436758 31.83874485 3.09336853 33.82843018 C3.08955212 39.06285879 3.07972929 44.29725961 3.06866455 49.53167725 C3.05843162 54.87397892 3.05386687 60.21628509 3.04882812 65.55859375 C3.03810626 76.0390747 3.02104032 86.51953504 3 97 C2.01 97 1.02 97 0 97 C0 64.99 0 32.98 0 0 Z " fill="#E9F5FF" transform="translate(382,400)"/>
<path d="M0 0 C4.43458973 1.3937282 6.87378374 3.60582235 10 7 C9.5247412 8.64696604 9.04468109 10.29254728 8.5625 11.9375 C8.29566406 12.85402344 8.02882813 13.77054687 7.75390625 14.71484375 C7 17 7 17 6 18 C4.14712498 18.07226502 2.29166122 18.0838122 0.4375 18.0625 C-0.57441406 18.05347656 -1.58632812 18.04445313 -2.62890625 18.03515625 C-3.41136719 18.02355469 -4.19382813 18.01195312 -5 18 C-5.5345256 16.75579353 -6.05208611 15.50429064 -6.5625 14.25 C-6.85253906 13.55390625 -7.14257812 12.8578125 -7.44140625 12.140625 C-8.10572207 9.59485528 -8.01502029 8.42043299 -7 6 C-5.37109375 4.296875 -5.37109375 4.296875 -3.4375 2.75 C-2.79683594 2.22921875 -2.15617188 1.7084375 -1.49609375 1.171875 C-1.00238281 0.78515625 -0.50867188 0.3984375 0 0 Z " fill="#F77D84" transform="translate(255,402)"/>
<path d="M0 0 C0.721875 0.00257813 1.44375 0.00515625 2.1875 0.0078125 C2.909375 0.00523437 3.63125 0.00265625 4.375 0 C6.1875 0.1328125 6.1875 0.1328125 7.1875 1.1328125 C7.42231693 3.31574024 7.60113323 5.50484424 7.75 7.6953125 C7.83378906 8.89285156 7.91757812 10.09039062 8.00390625 11.32421875 C8.06449219 12.25105469 8.12507813 13.17789062 8.1875 14.1328125 C4.2275 14.1328125 0.2675 14.1328125 -3.8125 14.1328125 C-3.67220581 11.9866099 -3.52511836 9.84085032 -3.375 7.6953125 C-3.29378906 6.50035156 -3.21257812 5.30539062 -3.12890625 4.07421875 C-2.71202054 0.19872564 -2.71202054 0.19872564 0 0 Z " fill="#F27A81" transform="translate(253.8125,434.8671875)"/>
</svg>
