<?xml version="1.0" encoding="UTF-8"?>
<svg version="1.1" xmlns="http://www.w3.org/2000/svg" width="512" height="512">
<path d="M0 0 C1.77708595 -0.0099852 1.77708595 -0.0099852 3.59007263 -0.02017212 C6.08517926 -0.03024225 8.58031252 -0.0349909 11.07543945 -0.03466797 C14.83656737 -0.03902253 18.59650228 -0.07535435 22.35742188 -0.11328125 C49.01460868 -0.237846 72.35777385 4.83812311 93.30859375 22.3359375 C93.9634375 22.84511719 94.61828125 23.35429687 95.29296875 23.87890625 C114.01035552 39.03998953 125.34909559 64.2323818 128.07714844 87.71484375 C129.88168341 108.15101197 127.57480566 128.18016169 124.30859375 148.3359375 C124.18554871 149.09628296 124.06250366 149.85662842 123.93572998 150.64001465 C122.75968165 157.8836169 121.56670215 165.12431245 120.32763672 172.35742188 C120.2013942 173.09574249 120.07515167 173.83406311 119.94508362 174.59475708 C119.60176483 176.59653874 119.25569588 178.59784818 118.90942383 180.59912109 C115.15248233 203.96512945 116.74746264 224.81155356 125.22363281 246.75634766 C129.47208781 257.81603533 131.0514539 269.64038183 128.30859375 281.3359375 C129.27345703 281.48289062 129.27345703 281.48289062 130.2578125 281.6328125 C144.61253794 284.00820216 157.25823131 287.56293473 166.8046875 299.125 C171.9667013 306.71383068 173.26072042 315.03562708 173.77052307 324.02833557 C173.80812947 324.67609717 173.84573586 325.32385877 173.88448185 325.9912495 C174.00889058 328.14837777 174.12860241 330.30573985 174.24829102 332.46313477 C174.33684117 334.01614883 174.42566462 335.56914732 174.51473999 337.12213135 C174.7554817 341.33568462 174.99195966 345.54946685 175.22734952 349.76332211 C175.42499076 353.29585041 175.6245193 356.82827119 175.82397884 360.36069721 C176.29554843 368.71416715 176.76345691 377.06783689 177.22924805 385.42163086 C177.70707652 393.98993382 178.19163876 402.55783719 178.6795097 411.12557369 C179.09991145 418.51341129 179.5156844 425.90150025 179.92796749 433.28979534 C180.17343378 437.68750541 180.42060591 442.08510136 180.67239571 446.4824543 C182.468046 477.90739369 182.468046 477.90739369 182.61694336 490.77709961 C182.63480424 491.58699876 182.65266512 492.39689791 182.67106724 493.23133945 C182.66718788 498.89158049 181.46867186 503.04115519 177.5546875 507.19921875 C176.95785156 507.67746094 176.36101562 508.15570313 175.74609375 508.6484375 C175.14667969 509.13957031 174.54726563 509.63070313 173.9296875 510.13671875 C170.90324185 512.37555927 168.9314778 512.46375662 165.21222496 512.47295189 C164.12635703 512.47802643 163.04048911 512.48310097 161.92171609 512.48832929 C160.11767625 512.48907593 160.11767625 512.48907593 158.27719116 512.48983765 C157.0070585 512.4942199 155.73692584 512.49860215 154.42830431 512.5031172 C150.8909778 512.51510164 147.35366494 512.52073549 143.81632209 512.52529836 C140.00566189 512.53124748 136.19501807 512.54285915 132.3843689 512.55358887 C123.17485679 512.5781303 113.96533924 512.59274339 104.75580448 512.60564893 C102.15514127 512.60935986 99.55447861 512.61333318 96.95381594 512.6174016 C80.80907694 512.64263916 64.66433712 512.6646955 48.51958275 512.67712975 C44.77851737 512.68005952 41.03745203 512.68302117 37.29638672 512.68603516 C36.3665444 512.68678121 35.43670207 512.68752726 34.47868271 512.68829592 C19.41714998 512.7009484 4.35573534 512.73416876 -10.7057422 512.77583699 C-26.16441458 512.81825387 -41.62302652 512.84182457 -57.08175695 512.84705031 C-65.763108 512.85046492 -74.44427459 512.8622257 -83.12556839 512.89515305 C-90.51956887 512.9231515 -97.91334711 512.93415389 -105.30739649 512.92295758 C-109.07962547 512.91777015 -112.85138902 512.92066241 -116.62355042 512.94542313 C-120.71539063 512.97205776 -124.80620615 512.95985817 -128.89810181 512.94393921 C-130.0874107 512.9578213 -131.2767196 512.97170338 -132.50206816 512.98600614 C-139.42781369 512.91953531 -144.44294302 512.09850495 -149.69140625 507.3359375 C-155.12567754 500.83185824 -154.89415483 492.77664184 -154.4589386 484.69708252 C-154.42177976 483.97184159 -154.38462093 483.24660066 -154.34633607 482.49938273 C-154.22118574 480.09194706 -154.08586462 477.68519816 -153.95043945 475.27832031 C-153.85798866 473.54296837 -153.76612072 471.80758529 -153.67478943 470.07217407 C-153.42539222 465.37323963 -153.16662958 460.67486711 -152.90523553 455.97658634 C-152.74203975 453.03640061 -152.58079422 450.09611447 -152.42021751 447.15578461 C-151.85910572 436.88402401 -151.2900843 426.61273451 -150.71411133 416.34179688 C-150.17871609 406.7905122 -149.66111957 397.23837444 -149.15174228 387.68567014 C-148.71259167 379.46560987 -148.26057403 371.24632073 -147.79876012 363.02750278 C-147.52364092 358.12706626 -147.25368332 353.22648226 -146.99685097 348.32505035 C-146.75467129 343.71123616 -146.49639409 339.09859202 -146.22614479 334.48633957 C-146.1301142 332.80173361 -146.03965252 331.11679862 -145.95544052 329.43156052 C-145.31721447 316.75860679 -144.15522383 303.7575059 -134.69140625 294.3359375 C-124.48170639 285.76138489 -111.33648865 283.31871729 -98.69140625 280.3359375 C-98.7378125 279.06621094 -98.78421875 277.79648437 -98.83203125 276.48828125 C-99.1777665 262.91320535 -97.64995809 251.91724351 -92.12890625 239.3359375 C-79.22070881 209.25665026 -89.37174149 173.3167407 -94.67236328 142.4543457 C-96.69098243 130.68698536 -97.89921936 119.38265179 -97.93164062 107.43676758 C-97.94127804 105.30183902 -97.97235773 103.16790431 -98.00390625 101.03320312 C-98.21466096 73.62580693 -88.32287322 49.9548845 -70.69140625 29.3359375 C-70.09714844 28.63855469 -69.50289063 27.94117187 -68.890625 27.22265625 C-51.5277874 8.4811318 -24.86230104 0.04977528 0 0 Z " fill="#242021" transform="translate(242.69140625,-0.3359375)"/>
<path d="M0 0 C0.66 0 1.32 0 2 0 C2.3403125 0.67804688 2.680625 1.35609375 3.03125 2.0546875 C10.936564 17.23457237 21.46599535 28.48866512 38 34 C38.04789169 34.56883408 38.09578339 35.13766815 38.14512634 35.72373962 C38.64666934 41.67800853 39.14988819 47.63213415 39.65405273 53.58618164 C39.84165172 55.80424474 40.02883243 58.02234325 40.21557617 60.24047852 C40.48504765 63.4403625 40.75605455 66.64011342 41.02734375 69.83984375 C41.1508445 71.31226784 41.1508445 71.31226784 41.27684021 72.81443787 C41.71061642 77.91243449 42.19639107 82.9977529 42.78874207 88.07989502 C44.23072124 101.18591826 42.00007148 111.21087694 33.94482422 121.69335938 C30.26945499 126.05249676 26.21364098 130.04206061 22.16015625 134.0456543 C20.62962334 135.55793181 19.10724468 137.07805698 17.5859375 138.59960938 C2.41743748 153.71352481 -10.10353762 165.28110332 -32.28613281 165.31689453 C-43.10851094 165.15848965 -50.84904672 162.07261705 -59 155 C-59.74507812 154.36320313 -60.49015625 153.72640625 -61.2578125 153.0703125 C-66.84553799 148.1653316 -72.09413229 142.95492173 -77.31201172 137.66455078 C-80.21197423 134.73704336 -83.14005583 131.94893199 -86.3125 129.3125 C-93.53785423 123.11061032 -100.00752936 115.46528714 -102 106 C-102.22830528 102.8560073 -102.23092114 99.7254372 -102.2109375 96.57421875 C-102.20746307 95.65716156 -102.20398865 94.74010437 -102.20040894 93.79525757 C-102.09519117 84.15451377 -101.32483396 74.59385788 -100.40087891 65.00146484 C-100.12057125 62.07882344 -99.85822299 59.15493005 -99.59765625 56.23046875 C-99.42291229 54.34365365 -99.24716936 52.45693073 -99.0703125 50.5703125 C-98.99313995 49.70987335 -98.91596741 48.8494342 -98.8364563 47.96292114 C-98.3574302 43.09305387 -97.64714994 38.62071271 -96 34 C-93.7578125 32.2578125 -93.7578125 32.2578125 -91.125 31.125 C-89.82949219 30.54105469 -89.82949219 30.54105469 -88.5078125 29.9453125 C-84.03596902 28.25966434 -80.29651113 27.87943385 -75.49609375 27.859375 C-47.78578245 27.52509848 -24.28909179 22.99542636 -3 4 C-1.99710461 2.66884313 -0.99607268 1.33626981 0 0 Z " fill="#FAB174" transform="translate(288,76)"/>
<path d="M0 0 C0.09904741 5.79757488 -0.28703389 11.36901039 -0.9375 17.125 C-1.20434766 19.83769994 -1.46264878 22.55114565 -1.72119141 25.26464844 C-1.90118059 27.03049683 -2.10004242 28.79457058 -2.32177734 30.55566406 C-4.73777251 49.84616812 0.67166304 67.12647067 6.00439453 85.45141602 C8.73955084 94.89279553 11.14875041 104.39519508 13.5 113.9375 C15.94830815 123.85074771 18.43587574 133.74636804 21.08886719 143.60717773 C22.38078276 148.41793623 23.62649807 153.24033666 24.875 158.0625 C26.86499567 165.72296802 28.90476908 173.36766769 31 181 C33.15413338 188.86730081 35.28688844 196.73989302 37.375 204.625 C37.76945312 206.09259766 37.76945312 206.09259766 38.171875 207.58984375 C38.41164063 208.50121094 38.65140625 209.41257812 38.8984375 210.3515625 C39.11161621 211.15416504 39.32479492 211.95676758 39.54443359 212.78369141 C40 215 40 215 40 219 C20.2 219 0.4 219 -20 219 C-20.33 181.05 -20.66 143.1 -21 104 C-22.98 104 -24.96 104 -27 104 C-29.46144677 106.46144677 -29.25595262 107.14487753 -29.2784729 110.53042603 C-29.28963638 111.48397476 -29.30079987 112.4375235 -29.31230164 113.41996765 C-29.31446182 114.46941055 -29.31662201 115.51885345 -29.31884766 116.60009766 C-29.33391609 118.25376595 -29.33391609 118.25376595 -29.34928894 119.94084167 C-29.3802731 123.59857646 -29.3971984 127.25623756 -29.4140625 130.9140625 C-29.43276189 133.4446985 -29.45233436 135.97532818 -29.4727478 138.50595093 C-29.51894046 144.49469972 -29.5563019 150.48344114 -29.58942068 156.47227132 C-29.62761161 163.28965931 -29.67702963 170.10695132 -29.72740483 176.92425847 C-29.83078895 190.9494345 -29.92002819 204.97467234 -30 219 C-36.03225939 219.09899561 -42.06404427 219.17152907 -48.09692383 219.21972656 C-50.14843993 219.23982199 -52.19989889 219.26710324 -54.2512207 219.30175781 C-57.20278025 219.35036669 -60.15358148 219.37298952 -63.10546875 219.390625 C-64.02023483 219.41127014 -64.93500092 219.43191528 -65.87748718 219.45318604 C-70.11882716 219.45467516 -72.38054048 219.38502797 -76.0559082 217.10058594 C-79.2115349 213.69093982 -79.13586137 211.62970565 -79.125 207.0625 C-79.12757812 206.00160156 -79.13015625 204.94070313 -79.1328125 203.84765625 C-79.02644259 200.76605737 -78.81039475 197.76118837 -78.515625 194.6953125 C-78.00928557 189.39853443 -77.78656273 184.12912779 -77.625 178.8125 C-77.19204889 166.56697891 -76.41700583 154.35144272 -75.625 142.125 C-74.23783719 120.70242805 -73.10942937 99.2717419 -72.09033203 77.82861328 C-71.81233004 72.03452149 -71.51058825 66.24213252 -71.18865967 60.45031738 C-71.06041328 58.104873 -70.93878701 55.75905925 -70.82305908 53.41296387 C-70.64519051 49.89604699 -70.43744689 46.38202062 -70.22265625 42.8671875 C-70.17475449 41.81927032 -70.12685272 40.77135315 -70.07749939 39.69168091 C-69.49760297 31.04323995 -67.07354234 23.60949854 -60.625 17.5625 C-54.48160958 12.49344633 -46.43043856 10.93140023 -38.88671875 9.08203125 C-37.31057549 8.68886971 -37.31057549 8.68886971 -35.70259094 8.2877655 C-33.4937409 7.73797866 -31.28418612 7.19101628 -29.07397461 6.64672852 C-25.67985182 5.81061594 -22.2880353 4.96561879 -18.89648438 4.11914062 C-16.74752438 3.58541965 -14.59844011 3.05219878 -12.44921875 2.51953125 C-11.4315593 2.26645706 -10.41389984 2.01338287 -9.36540222 1.75263977 C-8.42715103 1.52207382 -7.48889984 1.29150787 -6.5222168 1.05395508 C-5.69505661 0.84982498 -4.86789642 0.64569489 -4.01567078 0.43537903 C-2 0 -2 0 0 0 Z " fill="#504F4F" transform="translate(178,283)"/>
<path d="M0 0 C6.62051868 1.55609581 6.62051868 1.55609581 9.65734863 2.2718811 C13.64792218 3.21242631 17.63921583 4.14951703 21.6328125 5.07714844 C25.48248426 5.97306199 29.32682668 6.88963988 33.16894531 7.81738281 C34.73573328 8.19217792 36.30414544 8.56024124 37.87402344 8.921875 C48.97703104 11.48586851 59.56029129 13.97440176 66.07421875 24.2265625 C71.40062498 34.42988921 70.30361225 48.07572904 70.81539917 59.32580566 C71.02614666 63.9414971 71.24710226 68.55669587 71.46875 73.171875 C71.53569313 74.56669098 71.53569313 74.56669098 71.60398865 75.98968506 C72.06050235 85.40628525 72.60985076 94.81576049 73.17724609 104.22631836 C73.26143268 105.62353278 73.34557867 107.02074965 73.4296875 108.41796875 C73.49462906 109.49587929 73.49462906 109.49587929 73.56088257 110.5955658 C74.32799633 123.39917337 75.03556723 136.2063191 75.75680542 149.01257324 C75.88234554 151.24139886 76.00796941 153.47021976 76.13368225 155.69903564 C76.25459821 157.84464519 76.37515824 159.99027483 76.49534607 162.13592529 C76.75260998 166.71188108 77.01424224 171.28725587 77.30322266 175.86132812 C77.85989443 184.70027873 78.20964165 193.51634306 78.25 202.375 C78.270625 203.5609375 78.29125 204.746875 78.3125 205.96875 C78.32023437 207.66644531 78.32023437 207.66644531 78.328125 209.3984375 C78.3374707 210.40567871 78.34681641 211.41291992 78.35644531 212.45068359 C78 215 78 215 76.66699219 216.78759766 C73.79628618 218.87546029 71.2325436 219.12382145 67.80395508 219.11352539 C66.96331009 219.11344986 66.1226651 219.11337433 65.25654602 219.11329651 C64.35333115 219.10813522 63.45011627 219.10297394 62.51953125 219.09765625 C61.59154221 219.0962413 60.66355316 219.09482635 59.70744324 219.09336853 C56.74242942 219.08776937 53.77749101 219.07521704 50.8125 219.0625 C48.80273547 219.05748489 46.79296975 219.052922 44.78320312 219.04882812 C39.85543968 219.03780021 34.92773263 219.02053617 30 219 C29.99503478 218.12920775 29.99503478 218.12920775 29.98996925 217.24082375 C29.90881947 203.12830078 29.81675362 189.01588456 29.71247292 174.90351295 C29.66230838 168.07892737 29.61586603 161.25435403 29.578125 154.4296875 C29.54171998 147.84848685 29.49502332 141.26741202 29.44193649 134.68632126 C29.42334611 132.17043738 29.40825551 129.65452522 29.39665604 127.1385994 C29.3798729 123.62562706 29.3508573 120.11295949 29.31884766 116.60009766 C29.31668747 115.55065475 29.31452728 114.50121185 29.31230164 113.41996765 C29.30113815 112.46641891 29.28997467 111.51287018 29.2784729 110.53042603 C29.27294214 109.69896875 29.26741138 108.86751148 29.26171303 108.01085854 C29.17814051 105.77151866 29.17814051 105.77151866 27 104 C24.45809998 103.7499227 24.45809998 103.7499227 22 104 C20.40895419 105.59104581 20.85873908 107.24124253 20.84178162 109.44813538 C20.82709839 110.88901772 20.82709839 110.88901772 20.81211853 112.35900879 C20.80636307 113.42139771 20.8006076 114.48378662 20.79467773 115.57836914 C20.78477814 116.69042221 20.77487854 117.80247528 20.76467896 118.94822693 C20.73295477 122.64384798 20.70826353 126.33948191 20.68359375 130.03515625 C20.66303364 132.58963872 20.64203744 135.14411771 20.62062073 137.69859314 C20.57096433 143.74758491 20.52572441 149.7965943 20.48259836 155.84563488 C20.4284319 163.40558942 20.36755631 170.96548796 20.30664062 178.52539062 C20.19795954 192.01688413 20.09946727 205.50842843 20 219 C0.2 219 -19.6 219 -40 219 C-38.87528345 208.87755102 -38.87528345 208.87755102 -37.80078125 204.8984375 C-37.56423828 204.00833984 -37.32769531 203.11824219 -37.08398438 202.20117188 C-36.82939453 201.26853516 -36.57480469 200.33589844 -36.3125 199.375 C-35.76675659 197.33077468 -35.22118858 195.28650252 -34.67578125 193.2421875 C-34.39686035 192.20545898 -34.11793945 191.16873047 -33.83056641 190.10058594 C-32.52860796 185.24024723 -31.26534072 180.36997381 -30 175.5 C-29.49891017 173.57806965 -28.99760771 171.65619472 -28.49609375 169.734375 C-28.12460205 168.3102832 -28.12460205 168.3102832 -27.74560547 166.85742188 C-27.00914899 164.03506214 -26.27221768 161.2128268 -25.53515625 158.390625 C-22.84717397 148.09622478 -20.16834951 137.79950779 -17.5 127.5 C-14.83465878 117.21210385 -12.15966671 106.92678872 -9.47265625 96.64453125 C-8.45461675 92.74738069 -7.44236949 88.84877722 -6.43359375 84.94921875 C-6.17473389 83.95156494 -5.91587402 82.95391113 -5.64916992 81.92602539 C-5.13745762 79.95066421 -4.62845689 77.9745984 -4.12231445 75.99780273 C-3.09255363 72.00966997 -2.05936775 68.04980504 -0.734375 64.1484375 C4.27009648 49.09978032 2.13154087 33.19701314 0.71240234 17.66479492 C0.17345988 11.74360729 -0.09879501 5.94622491 0 0 Z " fill="#504F4F" transform="translate(336,283)"/>
<path d="M0 0 C1.48879921 -0.00855011 1.48879921 -0.00855011 3.00767517 -0.01727295 C5.09942579 -0.02666933 7.19119085 -0.03323543 9.28295898 -0.03710938 C12.4317509 -0.04677343 15.57987749 -0.07783194 18.72851562 -0.109375 C44.54405902 -0.24623892 68.95800357 4.9669623 88.4140625 23.08984375 C107.80576451 43.70067045 115.59062265 66.08315827 115.58764648 94.24365234 C115.58985832 96.59360212 115.60814049 98.94310013 115.62695312 101.29296875 C115.6298832 102.79166508 115.63187057 104.29036361 115.6328125 105.7890625 C115.63999802 106.48905365 115.64718353 107.1890448 115.65458679 107.9102478 C115.63728433 111.57378259 115.49368262 113.06611669 113.40234375 116.203125 C113.06203125 115.55085938 112.72171875 114.89859375 112.37109375 114.2265625 C107.93795277 106.23276042 103.39923161 101.2695966 94.52734375 98.578125 C93.41746094 98.31128906 93.41746094 98.31128906 92.28515625 98.0390625 C90.40234375 97.203125 90.40234375 97.203125 89.4921875 95.265625 C87.9108265 92.27294181 85.97469316 91.95715123 82.83984375 90.828125 C68.86203729 85.32728968 61.42513388 77.27847836 55.24194336 63.83837891 C52.6951256 58.36186896 52.6951256 58.36186896 48.40234375 54.203125 C45.43196283 53.45305319 45.43196283 53.45305319 42.40234375 54.203125 C39.89004525 56.32038731 39.89004525 56.32038731 37.71484375 59.203125 C26.49913528 72.4718422 9.641099 81.64934318 -7.59765625 84.203125 C-14.18758263 84.67932223 -20.77696872 84.82084161 -27.38208008 84.83911133 C-37.8591139 84.91531517 -47.86508301 85.64464528 -56.72265625 91.765625 C-57.61210937 92.36503906 -58.5015625 92.96445313 -59.41796875 93.58203125 C-61.65578151 95.16431282 -61.65578151 95.16431282 -63.59765625 97.203125 C-65.12523946 97.66878234 -66.67029757 98.07825201 -68.22265625 98.453125 C-76.16479259 100.73706305 -81.51307265 104.97655402 -85.59765625 112.203125 C-86.29195004 113.5222832 -86.9729612 114.84961906 -87.59765625 116.203125 C-87.92765625 116.203125 -88.25765625 116.203125 -88.59765625 116.203125 C-92.46024992 84.75057654 -88.20713767 56.55414044 -68.78515625 31.015625 C-54.56817574 13.91082032 -35.30238831 2.79370365 -13.12918091 0.41491699 C-8.75525251 0.04898613 -4.38719556 0.0200178 0 0 Z " fill="#7B282D" transform="translate(244.59765625,9.796875)"/>
<path d="M0 0 C3.28588331 2.6984072 4.7247623 6.25302121 6.375 10.0625 C6.68026611 10.75770752 6.98553223 11.45291504 7.30004883 12.16918945 C9.88775456 18.28231322 11.70340279 24.51512413 13.22607422 30.97094727 C14.34160541 35.48137441 15.46916378 38.75788633 19 42 C21.31749351 42.71980047 23.65064541 43.39219912 26 44 C25.42780417 54.38834407 24.40065581 64.65455595 23.0390625 74.96875 C22.84549512 76.46157725 22.65233881 77.95445786 22.45956421 79.4473877 C21.95517545 83.34502265 21.44529006 87.24191826 20.93414307 91.13867188 C20.42407597 95.0347184 19.91929006 98.93144849 19.4140625 102.828125 C18.54478541 109.52772036 17.67021882 116.22661012 16.79312515 122.92518616 C16.21573083 127.33876066 15.64434684 131.75306953 15.07714844 136.16796875 C14.93957123 137.23535278 14.80199402 138.30273682 14.6602478 139.40246582 C14.41182862 141.33157059 14.16467017 143.26083837 13.9190979 145.19030762 C13.75684219 146.44672058 13.75684219 146.44672058 13.59130859 147.72851562 C13.50029877 148.43995728 13.40928894 149.15139893 13.31552124 149.88439941 C12.95972097 152.2700748 12.47304419 154.63477907 12 157 C4.41 157 -3.18 157 -11 157 C-11.268125 154.6384375 -11.53625 152.276875 -11.8125 149.84375 C-12.20657259 146.39563033 -12.60305756 142.94779041 -13 139.5 C-13.10549164 138.58304352 -13.21098328 137.66608704 -13.31967163 136.72134399 C-14.84484193 123.50673291 -16.44955397 110.3032365 -18.11328125 97.10546875 C-18.24923517 96.02571714 -18.24923517 96.02571714 -18.38793564 94.92415237 C-19.29912512 87.68843986 -20.21381866 80.45319754 -21.13891315 73.21924877 C-21.40324458 71.14822496 -21.66595748 69.07700303 -21.92802429 67.00569153 C-22.25163279 64.44970916 -22.57814384 61.89409202 -22.90803528 59.33891296 C-23.05222397 58.19541885 -23.19641266 57.05192474 -23.3449707 55.8737793 C-23.47200882 54.87984665 -23.59904694 53.885914 -23.72993469 52.86186218 C-24.0102911 49.890946 -24.04637247 46.98230493 -24 44 C-22.01432292 43.38151042 -20.02864583 42.76302083 -18.04296875 42.14453125 C-14.72161305 40.28380999 -13.50270865 37.68393426 -12.42895508 34.0871582 C-11.85978605 31.81438228 -11.33407025 29.53414984 -10.8125 27.25 C-8.44420801 17.50206832 -4.58574541 8.88701529 0 0 Z " fill="#E6E4E4" transform="translate(256,345)"/>
<path d="M0 0 C0.15176193 1.22662354 0.30352386 2.45324707 0.45988464 3.71704102 C1.91496507 15.47753063 3.37031563 27.23798679 4.82590771 38.99841309 C5.57360121 45.03945354 6.32121078 51.08050436 7.06860352 57.12158203 C13.8080306 111.7118668 13.8080306 111.7118668 20.71380615 166.28128052 C21.33618033 171.13384905 21.95488743 175.98688609 22.57421875 180.83984375 C23.26581092 186.25822448 23.95795283 191.67652866 24.65478516 197.09423828 C25.14377111 200.89616795 25.6294236 204.6985071 26.11227417 208.5012207 C26.36659926 210.49658993 26.62476257 212.49146879 26.88305664 214.48632812 C27.10723267 216.2584668 27.10723267 216.2584668 27.3359375 218.06640625 C27.46532715 219.07646729 27.5947168 220.08652832 27.72802734 221.12719727 C28.00966002 224.10203726 28.04714208 227.0136879 28 230 C25.69 230 23.38 230 21 230 C20.86948242 229.4423999 20.73896484 228.8847998 20.60449219 228.31030273 C18.24938473 218.27222432 15.85652502 208.25650753 13.15625 198.3046875 C11.5994913 192.54862859 10.1179274 186.77286727 8.625 181 C6.40312376 172.4147508 4.17748159 163.83054476 1.9375 155.25 C1.69330322 154.31446289 1.44910645 153.37892578 1.19750977 152.41503906 C0.46517528 149.60998194 -0.26737058 146.80498011 -1 144 C-4.17709497 131.83602194 -7.34690008 119.67022297 -10.5 107.5 C-12.74618489 98.83233977 -14.9937734 90.16505253 -17.25 81.5 C-17.48396484 80.59958984 -17.71792969 79.69917969 -17.95898438 78.77148438 C-18.18392578 77.90845703 -18.40886719 77.04542969 -18.640625 76.15625 C-18.85887939 75.30981934 -19.07713379 74.46338867 -19.30200195 73.59130859 C-19.78477268 71.79902861 -20.30127178 70.01561907 -20.84448242 68.24072266 C-22.70890351 62.02960208 -23.33044289 56.82463736 -22.8125 50.375 C-22.75570068 49.49763184 -22.69890137 48.62026367 -22.64038086 47.71630859 C-22.44557806 44.80925148 -22.22231746 41.9050727 -22 39 C-21.84804039 36.7761042 -21.69702514 34.5521437 -21.546875 32.328125 C-21.38726729 30.09361704 -21.2258407 27.85923818 -21.0625 25.625 C-20.98813721 24.5736084 -20.91377441 23.5222168 -20.8371582 22.43896484 C-20.61365843 19.61616956 -20.33655562 16.81140224 -20 14 C-19.9172583 13.29383545 -19.8345166 12.5876709 -19.74926758 11.86010742 C-19.25815194 9.28354458 -18.57578391 7.45055715 -16.48120117 5.81152344 C-14.54794006 4.74029242 -12.61295695 3.88615486 -10.5625 3.0625 C-9.88123047 2.76021484 -9.19996094 2.45792969 -8.49804688 2.14648438 C-5.52567497 0.86262932 -3.26564753 0 0 0 Z " fill="#504F4F" transform="translate(207,272)"/>
<path d="M0 0 C2.81376295 1.14281146 5.62602416 2.28908741 8.4375 3.4375 C9.23994141 3.76298828 10.04238281 4.08847656 10.86914062 4.42382812 C11.63291016 4.73642578 12.39667969 5.04902344 13.18359375 5.37109375 C13.89056396 5.65911865 14.59753418 5.94714355 15.32592773 6.24389648 C17 7 17 7 18 8 C18.3042254 10.53463877 18.5491136 13.05048007 18.75390625 15.59375 C18.85166603 16.7630304 18.85166603 16.7630304 18.95140076 17.95593262 C19.08900037 19.62033224 19.22418148 21.28493325 19.35717773 22.94970703 C19.55724242 25.43469595 19.7692537 27.91844949 19.98242188 30.40234375 C22.40155729 59.5013209 22.40155729 59.5013209 18.75 72.6875 C18.54503906 73.49509766 18.34007812 74.30269531 18.12890625 75.13476562 C16.88637686 79.95803879 15.49740005 84.73649056 14.109375 89.51953125 C11.68558915 97.95872328 9.59399466 106.47406777 7.5 115 C5.15252215 124.55801723 2.73205401 134.06342422 -0.01757812 143.515625 C-1.83720606 149.96933522 -3.40471063 156.48797894 -5 163 C-6.88367052 170.68920191 -8.78279273 178.36078029 -10.9921875 185.96484375 C-13.46658425 194.48736276 -15.54970131 203.09967988 -17.65087891 211.7199707 C-18.1626499 213.81537536 -18.67877756 215.90967171 -19.1953125 218.00390625 C-19.49453613 219.22924072 -19.79375977 220.4545752 -20.10205078 221.71704102 C-20.88925712 224.59511704 -21.82261489 227.26259581 -23 230 C-24.98 230 -26.96 230 -29 230 C-28.49944546 215.42188985 -26.41470923 201.04484495 -24.45599365 186.605896 C-23.66527018 180.77208596 -22.88412456 174.93699373 -22.10546875 169.1015625 C-21.93092163 167.79421646 -21.75637451 166.48687042 -21.57653809 165.13990784 C-20.29520017 155.47996505 -19.13235741 145.80867827 -18.01171875 136.12890625 C-16.13148083 119.89228812 -14.05009066 103.68619799 -11.91110229 87.48186493 C-11.1218831 81.49762619 -10.33762867 75.51273294 -9.55292511 69.5279007 C-9.35677946 68.03207522 -9.16054688 66.53626114 -8.96422577 65.04045868 C-7.65898635 55.09362473 -6.37443797 45.14444372 -5.1171875 35.19140625 C-4.97632721 34.07770157 -4.83546692 32.96399689 -4.69033813 31.81654358 C-4.04408784 26.70153358 -3.40159412 21.5860866 -2.76416016 16.4699707 C-2.54078154 14.69611479 -2.31731732 12.92226964 -2.09375 11.1484375 C-1.99625458 10.35502457 -1.89875916 9.56161163 -1.79830933 8.74415588 C-1.41169216 5.69381848 -0.97527712 2.92583136 0 0 Z " fill="#504F4F" transform="translate(308,272)"/>
<path d="M0 0 C0.98440741 3.11795257 0.96667491 5.2360959 0.29296875 8.421875 C0.11926758 9.27378418 -0.05443359 10.12569336 -0.23339844 11.00341797 C-0.42450195 11.90979004 -0.61560547 12.81616211 -0.8125 13.75 C-6.16773511 40.74278146 -8.0504762 67.29166293 2.5 93.21875 C3.00213502 94.47831762 3.50205742 95.73876911 4 97 C4.28012939 97.692146 4.56025879 98.38429199 4.84887695 99.09741211 C7.062659 105.01717119 7.36720418 110.2820694 7.1875 116.5625 C7.16719727 117.93245117 7.16719727 117.93245117 7.14648438 119.33007812 C7.11155315 121.55403259 7.06251586 123.77667952 7 126 C-13.19061104 124.02666257 -40.26849307 116.70830771 -55 102 C-57.14687838 98.17077248 -57.44404185 94.47751972 -57.625 90.125 C-57.69976562 88.95195312 -57.77453125 87.77890625 -57.8515625 86.5703125 C-56.77401096 82.05250466 -55.09358028 80.89145136 -51.54931641 78.07617188 C-46.74827978 74.16619146 -42.43584212 69.69933041 -38.04492188 65.34008789 C-36.93250786 64.23922087 -35.8156344 63.14284172 -34.69433594 62.05102539 C-21.36358386 49.06892975 -14.41411902 37.01697453 -13.4375 18.125 C-13.37272461 16.949375 -13.37272461 16.949375 -13.30664062 15.75 C-13.20146649 13.83349351 -13.10032075 11.91676667 -13 10 C-12.43692139 9.75427246 -11.87384277 9.50854492 -11.29370117 9.25537109 C-6.146262 6.96804323 -3.30502744 4.54441273 0 0 Z " fill="#7B282D" transform="translate(354,152)"/>
<path d="M0 0 C2.34375 2.1484375 2.34375 2.1484375 4.6875 4.296875 C7.90100725 6.66357966 11.40038829 8.29848451 15 10 C15.02578125 11.14855469 15.0515625 12.29710937 15.078125 13.48046875 C15.77449991 35.10781704 22.88331994 48.90054029 38.48876953 63.60058594 C42.17139912 67.01073663 45.9344452 70.35249352 49.85888672 73.48266602 C53.5086286 76.65722697 55.43674283 78.9332395 55.859375 83.84765625 C55.859375 85.58631979 55.82222058 87.32533705 55.75 89.0625 C55.7603125 89.93455078 55.770625 90.80660156 55.78125 91.70507812 C55.69444153 96.48316103 55.25509209 100.09980712 51.7265625 103.67407227 C48.00590387 106.53138236 43.8662824 108.4749465 39.625 110.4375 C38.61928955 110.91050537 37.6135791 111.38351074 36.57739258 111.87084961 C22.96176467 118.08072634 8.7005445 122.28809521 -6 125 C-7.09548038 109.98278984 -4.93314713 98.93242603 1.08886719 85.17675781 C5.46281329 74.72710522 5.26973189 63.74912864 5.3125 52.625 C5.31611542 51.90256104 5.31973083 51.18012207 5.32345581 50.43579102 C5.34980221 37.24732793 3.88065301 24.62081463 1.45751953 11.6484375 C0.7890517 7.77888626 0.383464 3.90729633 0 0 Z " fill="#7A282D" transform="translate(161,153)"/>
<path d="M0 0 C0.83402344 0.40992188 1.66804687 0.81984375 2.52734375 1.2421875 C17.72656564 8.51970726 33.10220226 10.65708106 49.5703125 5.8671875 C52.51888038 4.81480475 55.26115345 3.51357309 58 2 C58.66 2 59.32 2 60 2 C60.09796875 2.72445312 60.1959375 3.44890625 60.296875 4.1953125 C61.21146465 10.10860766 62.24204395 14.18511881 66 19 C66.68857199 20.32215386 67.35975862 21.65377818 68 23 C63.08743293 29.07868147 58.10184636 35.08000212 53 41 C44.32578022 50.7961366 44.32578022 50.7961366 36.5078125 61.24609375 C35 63 35 63 33.08984375 63.77734375 C28.93106806 64.08679893 26.7674821 63.63896788 23.50390625 60.921875 C20.8652389 58.04033499 18.41765831 55.06900841 16 52 C14.5214913 50.20779033 13.04234146 48.41610936 11.5625 46.625 C10.47582031 45.27921875 10.47582031 45.27921875 9.3671875 43.90625 C6.23345531 40.05889563 3.02309762 36.27922599 -0.19506836 32.50244141 C-2.85297004 29.37763092 -5.45399149 26.21663546 -8 23 C-6.80559227 20.51165057 -5.53864131 18.30796196 -4 16 C-1.12424434 11.09619278 -0.69327671 5.55533573 0 0 Z " fill="#FAB174" transform="translate(227,243)"/>
<path d="M0 0 C1.16000253 3.4800076 0.85677333 5.40939614 0.37915039 9.03198242 C0.21890884 10.27304245 0.0586673 11.51410248 -0.10643005 12.79277039 C-0.28825574 14.14702272 -0.47023049 15.50125505 -0.65234375 16.85546875 C-0.83372982 18.24115863 -1.01451306 19.62692755 -1.19471741 21.01277161 C-1.6703982 24.65827292 -2.1542644 28.30264254 -2.63983154 31.94683838 C-3.13396762 35.66638516 -3.62037082 39.38694194 -4.10742188 43.10742188 C-5.06404058 50.40595961 -6.02930716 57.7033193 -7 65 C-15.61648339 59.93395683 -19.51891169 53.27093965 -23 44 C-23.42667969 42.92878906 -23.85335938 41.85757813 -24.29296875 40.75390625 C-25.41388153 37.31832882 -26.0812955 34.61764971 -26 31 C-23.69074453 26.92589903 -20.42190617 24.14715458 -17 21 C-15.44658657 19.19418942 -13.92522173 17.36030352 -12.4375 15.5 C-11.33921875 14.14455078 -11.33921875 14.14455078 -10.21875 12.76171875 C-6.80558517 8.51328999 -3.39422273 4.26358768 0 0 Z " fill="#E6E4E4" transform="translate(295,281)"/>
<path d="M0 0 C8.22326356 8.22326356 15.71938753 16.9375168 23 26 C23.763125 26.81855469 24.52625 27.63710938 25.3125 28.48046875 C27 31 27 31 26.98046875 33.65625 C24.10882959 43.95454216 19.66436801 54.33563199 12 62 C10.68 62.66 9.36 63.32 8 64 C5.36 42.88 2.72 21.76 0 0 Z " fill="#E5E3E3" transform="translate(218,281)"/>
<path d="M0 0 C-0.31147023 3.93758215 -0.62436942 7.87504957 -0.9375 11.8125 C-1.06801758 13.46282227 -1.06801758 13.46282227 -1.20117188 15.14648438 C-1.75516473 22.10217245 -2.35126398 29.05249996 -3 36 C-9.01666576 33.40457556 -11.46342626 30.57886851 -14.1171875 24.5859375 C-15.95052976 19.21570486 -15.66048464 14.96560523 -13.3125 9.75 C-10.59236535 4.83060755 -5.83338566 0 0 0 Z " fill="#F5AD72" transform="translate(180,117)"/>
<path d="M0 0 C3.3125 0.25 3.3125 0.25 6.1875 1.75 C10.34155202 3.74394497 12.72825976 3.69363615 17.3125 3.25 C18.67411311 2.28886134 20.01105198 1.29115841 21.3125 0.25 C24.4375 -0.0625 24.4375 -0.0625 27.3125 0.25 C29.3125 2.25 29.3125 2.25 29.8125 4.5625 C29.19498936 7.88161971 27.71064105 9.07628088 25.11328125 11.13671875 C19.11537188 14.84475383 13.19109573 14.98953814 6.3125 14.25 C1.98851305 12.8522781 -1.78614092 10.81197623 -4.6875 7.25 C-4.13829663 0.38495783 -4.13829663 0.38495783 0 0 Z " fill="#292322" transform="translate(245.6875,194.75)"/>
<path d="M0 0 C4.5680663 0.99684498 7.5033246 2.81553203 10.20703125 6.76171875 C12.78171349 11.39250765 13.98576608 15.69279474 13 21 C11.26016918 26.6288644 9.19348285 30.85657617 4 34 C3.34 34 2.68 34 2 34 C1.66058296 30.02132817 1.32958345 26.04199752 1 22.0625 C0.90460938 20.94552734 0.80921875 19.82855469 0.7109375 18.67773438 C0.19757694 12.42573608 -0.10643087 6.27276963 0 0 Z " fill="#F6AE72" transform="translate(337,118)"/>
<path d="M0 0 C0.66 0.66 1.32 1.32 2 2 C1.625 5.125 1.625 5.125 1 8 C-5.75 9.125 -5.75 9.125 -8 8 C-12.87281059 7.69205286 -17.67734309 7.88305278 -22.5 8.625 C-24.2325 8.810625 -24.2325 8.810625 -26 9 C-28 7 -28 7 -28.4375 4.0625 C-28 1 -28 1 -25.8125 -0.8125 C-17.47407953 -4.33316642 -7.93474129 -4.38943135 0 0 Z " fill="#2B2423" transform="translate(244,128)"/>
<path d="M0 0 C0.125 2.875 0.125 2.875 0 6 C-0.66 6.66 -1.32 7.32 -2 8 C-3.88783135 7.79773236 -5.77539341 7.58301625 -7.65234375 7.296875 C-13.12588286 6.60471365 -18.5121316 6.74021345 -23.9375 7.6875 C-27 8 -27 8 -29 6.875 C-30 5 -30 5 -29.8125 2.4375 C-29 0 -29 0 -27 -2 C-18.05879781 -6.2353063 -8.33168346 -4.71287145 0 0 Z " fill="#2B2423" transform="translate(300,129)"/>
<path d="M0 0 C0.66 0.33 1.32 0.66 2 1 C1.35721163 5.44031437 -0.36122568 9.16794126 -2.25 13.1875 C-6.20656594 21.86021064 -8.6830179 30.77478096 -11 40 C-12.32 40 -13.64 40 -15 40 C-15.33970765 37.50072231 -15.67188032 35.00080405 -16 32.5 C-16.09539062 31.80390625 -16.19078125 31.1078125 -16.2890625 30.390625 C-16.91657205 25.54983706 -17.37882051 20.87731403 -17 16 C-15.53125 14.44140625 -15.53125 14.44140625 -13.5 13.5625 C-7.86016278 10.62696975 -2.86827477 5.73654955 0 0 Z " fill="#F5B84A" transform="translate(245,339)"/>
<path d="M0 0 C2.66782967 2.59160597 5.01052718 5.01403623 7.25 8 C10.36777435 11.86964919 14.61000845 13.83847911 19 16 C18.03644647 31.74487472 18.03644647 31.74487472 17 39 C15.35 38.67 13.7 38.34 12 38 C11.5978125 36.25589844 11.5978125 36.25589844 11.1875 34.4765625 C8.33447959 22.64766366 4.27408943 11.95387806 -1 1 C-0.67 0.67 -0.34 0.34 0 0 Z " fill="#F7B94B" transform="translate(267,340)"/>
<path d="M0 0 C1.67542976 0.28604898 3.34385343 0.61781233 5 1 C5.50471197 2.76949612 6.00360685 4.54065223 6.5 6.3125 C6.7784375 7.29863281 7.056875 8.28476562 7.34375 9.30078125 C8 12 8 12 8 15 C4.44646071 16.1845131 1.72986522 16.26641894 -2 16 C-3.71875 14.484375 -3.71875 14.484375 -5 13 C-4.35780498 11.01964979 -3.71114356 9.04074744 -3.0625 7.0625 C-2.70285156 5.96035156 -2.34320313 4.85820312 -1.97265625 3.72265625 C-1 1 -1 1 0 0 Z " fill="#F2B64A" transform="translate(255,316)"/>
<path d="M0 0 C2.3151023 2.08359207 2.90276165 3.44435228 3.4375 6.5 C2.84836233 9.86650098 1.73925021 11.00108769 -1 13 C-3.87523324 13.49089348 -5.29445572 13.41359492 -7.8125 11.9375 C-9.67036623 8.90624457 -9.37133265 6.46577141 -9 3 C-6.85106865 -0.70093733 -4.00059138 -0.58341958 0 0 Z " fill="#2E2624" transform="translate(235,144)"/>
<path d="M0 0 C1.875 1.125 1.875 1.125 3 3 C3.54400387 6.65259739 3.43774093 8.3433886 1.375 11.4375 C-1 13 -1 13 -4.125 12.9375 C-7 12 -7 12 -9 9 C-9.32502803 5.87973093 -9.51151479 3.85252465 -7.875 1.125 C-5.11909116 -0.52854531 -3.14924548 -0.39365568 0 0 Z " fill="#2D2624" transform="translate(288,145)"/>
</svg>
