<?xml version="1.0" encoding="UTF-8"?>
<svg version="1.1" xmlns="http://www.w3.org/2000/svg" width="512" height="512">
<path d="M0 0 C2.40295439 0.65539839 4.80654502 1.30846755 7.21069336 1.95947266 C11.94355138 3.24366909 16.67421702 4.53523323 21.40249729 5.8361702 C33.08186058 9.04827787 44.78238275 12.18010663 56.484375 15.30859375 C60.60838429 16.41193954 64.7322992 17.51563792 68.85620117 18.61938477 C70.39769978 19.0319422 70.39769978 19.0319422 71.97033978 19.45283413 C87.46598725 23.60060301 102.95927683 27.75616121 118.43672848 31.971385 C123.46698627 33.33751379 128.50430893 34.67035065 133.55235767 35.96916771 C136.55251446 36.74431453 139.54745813 37.53837062 142.54162407 38.33630753 C143.90361084 38.69425097 145.26792448 39.04348086 146.6346302 39.38296127 C153.48825188 41.08803802 158.87777686 42.44012913 163.24208069 48.24484253 C165.46575291 52.52006135 165.80956905 56.63428563 164.62109375 61.2734375 C162.59817771 66.15383583 159.9407227 68.31494597 155.1875 70.46875 C153.1875 71.0625 153.1875 71.0625 149.1875 71.0625 C149.1875 87.2325 149.1875 103.4025 149.1875 120.0625 C151.1675 120.3925 153.1475 120.7225 155.1875 121.0625 C161.21064166 124.29660069 165.62237962 128.8664454 168.375 135.1171875 C170.3833531 142.39746748 170.72510849 150.86039419 167.3125 157.75 C166.20576668 159.47520195 165.0890375 161.19685378 163.87744141 162.85009766 C162.80912191 166.27582706 164.56902728 168.69484555 166.0234375 171.7734375 C170.23236124 181.78546531 170.02771031 191.73650606 169.85986328 202.44775391 C169.81206211 205.71745233 169.81885967 208.98393973 169.83203125 212.25390625 C169.8208931 214.34897769 169.80668308 216.44403556 169.7890625 218.5390625 C169.79088531 219.50784332 169.79270813 220.47662415 169.79458618 221.47476196 C169.67519756 227.16675478 169.0274269 230.57185758 165.1875 235.0625 C158.45230836 240.99588311 153.17253572 240.2776296 144.4375 240.3125 C143.16132813 240.333125 141.88515625 240.35375 140.5703125 240.375 C138.71792969 240.38273437 138.71792969 240.38273437 136.828125 240.390625 C135.69922852 240.3999707 134.57033203 240.40931641 133.40722656 240.41894531 C129.110032 239.94321707 125.7491886 238.48693805 122.54296875 235.5625 C119.43993276 231.57733004 118.07599018 228.81060991 118.01049805 223.79736328 C117.99766281 222.93861603 117.98482758 222.07986877 117.97160339 221.19509888 C117.96052299 219.80301712 117.96052299 219.80301712 117.94921875 218.3828125 C117.941147 217.41906708 117.93307526 216.45532166 117.92475891 215.46237183 C117.91091833 213.41633907 117.90019606 211.37028322 117.89233398 209.32421875 C117.88087655 207.25090679 117.8605252 205.17762286 117.83081055 203.10449219 C117.64445332 190.09904811 118.04581277 179.40262557 123.38452148 167.36303711 C124.49619232 165.04850806 124.49619232 165.04850806 123.140625 162.88671875 C122.57859375 162.18160156 122.0165625 161.47648438 121.4375 160.75 C116.73462978 154.22839964 115.52072347 148.63611776 116.58984375 140.6484375 C118.23378227 133.53544861 121.59768661 127.92184928 127.1484375 123.21875 C129.1875 122.0625 129.1875 122.0625 136.1875 120.0625 C136.1875 105.2125 136.1875 90.3625 136.1875 75.0625 C132.619375 76.114375 129.05125 77.16625 125.375 78.25 C117.37801944 80.59175733 109.36965091 82.87370863 101.3125 85 C100.51739014 85.21100342 99.72228027 85.42200684 98.90307617 85.6394043 C93.44314641 87.0625 93.44314641 87.0625 91.1875 87.0625 C91.2074855 88.6055909 91.2074855 88.6055909 91.22787476 90.17985535 C91.34952103 99.87609441 91.4394555 109.57217861 91.49837303 119.26900768 C91.52968189 124.25428769 91.57214654 129.23895157 91.64013672 134.22387695 C91.70534523 139.03498192 91.74120939 143.84549444 91.75676346 148.65700722 C91.76784716 150.49229574 91.78949175 152.32755194 91.82188034 154.16258812 C91.86546555 156.73434791 91.87143355 159.30366252 91.86865234 161.87573242 C91.890224 162.63386734 91.91179565 163.39200226 91.934021 164.17311096 C91.90019751 167.06520497 91.77291118 169.36293171 89.87193584 171.6346035 C63.24334919 194.15520461 19.13801476 202.55719524 -14.50073242 204.80322266 C-16.77258108 204.814618 -16.77258108 204.814618 -17.8125 206.0625 C-16.90935059 206.44881592 -16.00620117 206.83513184 -15.07568359 207.2331543 C-13.78743189 207.78433542 -12.49918348 208.33552426 -11.2109375 208.88671875 C-10.51483368 209.18447708 -9.81872986 209.48223541 -9.10153198 209.78901672 C-5.20767421 211.45521727 -1.31516111 213.12446734 2.57519531 214.79882812 C9.64897014 217.8418162 16.72246101 220.88190419 23.83590698 223.83125305 C26.56403629 224.96391159 29.28679202 226.10914142 32.00897217 227.25601196 C33.28119042 227.78803892 34.55594681 228.31404206 35.83331299 228.83358765 C45.59909206 232.80958792 53.02190262 237.07073039 57.41015625 246.99609375 C64.6246582 266.17434266 59.14770448 288.05450634 51.109375 306.08203125 C46.68247891 315.51077451 40.87963369 324.09771695 34.1875 332.0625 C33.52234375 332.87332031 32.8571875 333.68414062 32.171875 334.51953125 C22.551265 345.78395051 8.70511254 357.04554448 -6.6171875 358.3984375 C-7.97381527 358.42205384 -9.33066915 358.43491556 -10.6875 358.4375 C-11.35652344 358.46199219 -12.02554687 358.48648437 -12.71484375 358.51171875 C-21.88076114 358.56470093 -28.46522929 353.12430177 -35.5 347.8125 C-36.31235107 347.20696289 -37.12470215 346.60142578 -37.96166992 345.97753906 C-45.12500699 340.62261521 -52.22403322 335.18236949 -59.32495117 329.74511719 C-64.62193504 325.69855758 -69.97253238 321.75912931 -75.42700195 317.92871094 C-80.82668105 314.11010091 -86.06324282 310.08423572 -91.3125 306.0625 C-93.98887774 304.022079 -96.66644995 301.98324025 -99.34472656 299.9453125 C-100.90216467 298.75704947 -102.45662232 297.56486033 -104.00683594 296.3671875 C-105.88888225 294.91623461 -107.78513359 293.48664141 -109.6875 292.0625 C-110.71617187 291.27875 -111.74484375 290.495 -112.8046875 289.6875 C-116.38548573 287.75293888 -118.80101592 287.74077697 -122.8125 288.0625 C-122.77189453 289.95548828 -122.77189453 289.95548828 -122.73046875 291.88671875 C-122.73443912 299.39733842 -123.33988549 306.86726716 -123.92944336 314.3503418 C-124.12583745 316.88581163 -124.30413914 319.42218497 -124.48242188 321.95898438 C-124.60826189 323.58341995 -124.73517692 325.20777268 -124.86328125 326.83203125 C-124.91341873 327.58418411 -124.96355621 328.33633698 -125.01521301 329.11128235 C-125.41965212 333.89753651 -126.34377276 337.59377276 -129.8125 341.0625 C-132.5625 341.4375 -132.5625 341.4375 -135.8125 341.0625 C-137.54523495 339.46463106 -139.20051313 337.78210864 -140.8125 336.0625 C-141.84644607 335.02093921 -142.88434568 333.98329095 -143.92578125 332.94921875 C-146.88802083 329.98697917 -149.85026042 327.02473958 -152.8125 324.0625 C-153.29082275 324.39048584 -153.76914551 324.71847168 -154.26196289 325.05639648 C-156.45755394 326.55094567 -158.6659278 328.02545801 -160.875 329.5 C-161.62716797 330.01626953 -162.37933594 330.53253906 -163.15429688 331.06445312 C-167.76343652 334.1172599 -171.22309965 335.99201576 -176.8125 336.0625 C-179.3125 334.25 -179.3125 334.25 -180.8125 331.0625 C-180.38583066 322.0046655 -178.46322966 313.08106364 -176.80126953 304.18261719 C-176.30867459 301.54199334 -175.82384221 298.90002407 -175.33984375 296.2578125 C-175.02910078 294.57804078 -174.71791899 292.89835016 -174.40625 291.21875 C-174.26143188 290.4292395 -174.11661377 289.639729 -173.96740723 288.82629395 C-172.92787783 283.29325565 -172.92787783 283.29325565 -171.8125 281.0625 C-172.493125 280.98 -173.17375 280.8975 -173.875 280.8125 C-177.67653104 279.84189633 -180.43204805 278.05334332 -183.8125 276.0625 C-184.69550781 276.82433594 -185.57851562 277.58617187 -186.48828125 278.37109375 C-192.95284504 283.937248 -199.43617434 289.46634419 -206.08203125 294.81640625 C-208.0787973 296.45895343 -210.02051237 298.12117698 -211.94921875 299.83984375 C-212.4788623 300.30374512 -213.00850586 300.76764648 -213.55419922 301.24560547 C-215.04085669 302.55110977 -216.5149728 303.87085556 -217.98828125 305.19140625 C-221.26829689 307.36447332 -222.95479418 307.54334718 -226.8125 307.0625 C-228.625 306 -228.625 306 -229.8125 304.0625 C-230.84955861 298.55046247 -230.93346036 293.2057162 -230.875 287.625 C-230.87048828 286.79806641 -230.86597656 285.97113281 -230.86132812 285.11914062 C-230.84965811 283.10022854 -230.83172718 281.08135426 -230.8125 279.0625 C-231.42770508 278.93198242 -232.04291016 278.80146484 -232.67675781 278.66699219 C-235.47556213 278.06415655 -238.26881391 277.43860789 -241.0625 276.8125 C-242.51462891 276.50505859 -242.51462891 276.50505859 -243.99609375 276.19140625 C-247.915608 275.29937887 -251.13510117 274.4921644 -254.546875 272.328125 C-255.8125 270.0625 -255.8125 270.0625 -256.12890625 266.734375 C-254.17237731 261.27699458 -250.50975344 259.36367972 -245.75 256.3125 C-244.85418213 255.7134082 -243.95836426 255.11431641 -243.03540039 254.49707031 C-241.19709571 253.26838338 -239.35321356 252.04800108 -237.50390625 250.8359375 C-233.54160139 248.22507189 -229.64878216 245.51682586 -225.75 242.8125 C-222.45001933 240.54343571 -219.14477517 238.28401678 -215.8125 236.0625 C-215.81701081 233.16411624 -215.81701081 233.16411624 -216.8125 230.0625 C-219.51383678 228.0983343 -219.51383678 228.0983343 -223.0859375 226.74609375 C-223.74975433 226.46011826 -224.41357117 226.17414276 -225.09750366 225.87950134 C-226.55495776 225.25389614 -228.01681765 224.6384825 -229.4822998 224.03192139 C-231.85912095 223.04310452 -234.21799945 222.01953312 -236.57519531 220.98486328 C-240.92123952 219.07962455 -245.27759045 217.19948161 -249.63793945 215.32723999 C-252.50377207 214.0965402 -255.36825092 212.86273543 -258.23242188 211.62817383 C-266.78787685 207.94134487 -275.34657014 204.26207914 -283.90707397 200.58699036 C-287.2550326 199.14888465 -290.60184104 197.70811584 -293.94842529 196.26681519 C-296.24261868 195.28005674 -298.53849974 194.29730624 -300.83447266 193.31469727 C-307.14080134 190.60683154 -313.42182704 187.84909819 -319.6171875 184.89453125 C-320.53999512 184.45471924 -321.46280273 184.01490723 -322.41357422 183.56176758 C-328.26187848 179.90672621 -331.11609484 173.53899792 -332.8125 167.0625 C-335.88088262 138.05867665 -324.30516973 110.92429195 -306.5625 88.5 C-305.31642984 87.01752127 -304.06689875 85.53793818 -302.8125 84.0625 C-302.37164062 83.47726563 -301.93078125 82.89203125 -301.4765625 82.2890625 C-293.54304665 72.04761477 -280.61580789 62.56961162 -267.8125 60.0625 C-265.90025176 59.89586122 -263.98141412 59.79722716 -262.0625 59.75 C-260.58523438 59.69392578 -260.58523438 59.69392578 -259.078125 59.63671875 C-251.24970369 60.65741005 -245.40688887 65.67147503 -239.4375 70.5 C-233.39187609 75.29819369 -227.28629888 79.9590897 -221 84.4375 C-214.25563319 89.25087001 -207.6370323 94.20722583 -201.0625 99.25 C-194.18374852 104.52331567 -187.26309073 109.69526043 -180.1640625 114.66796875 C-177.6726032 116.42362005 -175.24822606 118.2504004 -172.8359375 120.11328125 C-172.16481934 120.62528076 -171.49370117 121.13728027 -170.80224609 121.66479492 C-169.51229151 122.6519663 -168.230726 123.65023645 -166.95947266 124.66137695 C-162.66832477 127.92201082 -161.59485293 128.0625 -155.8125 128.0625 C-155.8125 114.5325 -155.8125 101.0025 -155.8125 87.0625 C-161.4225 85.7425 -167.0325 84.4225 -172.8125 83.0625 C-176.55913663 82.12032995 -180.29952239 81.17036728 -184.03515625 80.1875 C-184.99095078 79.93629395 -185.9467453 79.68508789 -186.9315033 79.42626953 C-188.91522782 78.90338852 -190.89859283 78.37914159 -192.8815918 77.85351562 C-194.89226275 77.32219078 -196.90400479 76.79490424 -198.91674805 76.27148438 C-201.87522277 75.5020948 -204.83042692 74.72113434 -207.78515625 73.9375 C-208.67485611 73.70820801 -209.56455597 73.47891602 -210.48121643 73.24267578 C-217.13052209 71.45709784 -223.47828828 69.5134223 -228.3125 64.4375 C-230.34876987 59.8558928 -230.60721757 55.99938188 -229.8125 51.0625 C-227.32022555 45.98564464 -224.32954176 43.28018798 -218.96946907 41.42439651 C-216.72616944 40.7665339 -214.4739592 40.16407204 -212.21118164 39.57666016 C-211.34909938 39.34620845 -210.48701712 39.11575674 -209.59881115 38.87832165 C-206.72531119 38.1121063 -203.84902326 37.35693705 -200.97265625 36.6015625 C-198.9267892 36.0579899 -196.88111866 35.51367719 -194.83563232 34.96867371 C-189.32736382 33.5030681 -183.81666989 32.04679949 -178.30530167 30.59289932 C-169.10901205 28.16561589 -159.91589531 25.72631461 -150.72249413 23.28811836 C-148.39043121 22.66979707 -146.05826837 22.05185256 -143.72600746 21.43427849 C-128.8444985 17.4929912 -113.98358509 13.4866247 -99.14953804 9.37025452 C-96.42392631 8.61470005 -93.69748922 7.8622108 -90.97068787 7.11096191 C-89.65719282 6.74905321 -89.65719282 6.74905321 -88.31716251 6.37983322 C-86.58860562 5.90366165 -84.86001615 5.42760831 -83.13139248 4.95167923 C-78.99927504 3.81237431 -74.86992811 2.66447087 -70.74563599 1.49713135 C-44.39249836 -5.95387208 -26.59977734 -7.457552 0 0 Z M-49.66796875 9.5703125 C-50.69144913 9.84332687 -51.7149295 10.11634125 -52.76942444 10.39762878 C-56.18391045 11.31239952 -59.59169554 12.24998368 -63 13.1875 C-65.45824545 13.85073662 -67.91691831 14.51239077 -70.37597656 15.17260742 C-75.82202045 16.63663046 -81.26496645 18.11175163 -86.70654297 19.59228516 C-96.63156122 22.2911446 -106.56755067 24.948713 -116.50390625 27.60546875 C-120.10722382 28.56932649 -123.71048388 29.53339906 -127.3137207 30.49755859 C-128.65525664 30.85651781 -128.65525664 30.85651781 -130.02389431 31.22272873 C-143.49132415 34.82701202 -156.95473407 38.44624396 -170.41646862 42.07173538 C-175.53971686 43.45136732 -180.66371282 44.82818696 -185.78815079 46.20339298 C-189.25376937 47.1338734 -192.71890172 48.06615491 -196.18392181 48.99886131 C-197.83102395 49.44183118 -199.47832472 49.88406315 -201.1258316 50.32552528 C-203.39139177 50.93272955 -205.65622473 51.54257541 -207.92089844 52.15307617 C-208.59358009 52.33268827 -209.26626175 52.51230038 -209.9593277 52.69735527 C-212.35073822 53.34423725 -214.59037434 53.95143717 -216.8125 55.0625 C-216.4825 56.0525 -216.1525 57.0425 -215.8125 58.0625 C-213.29239778 59.13597975 -213.29239778 59.13597975 -210.11547852 59.88989258 C-208.87565216 60.21988251 -207.63582581 60.54987244 -206.35842896 60.88986206 C-204.96946708 61.24576348 -203.58045784 61.60148013 -202.19140625 61.95703125 C-200.73487351 62.33991579 -199.27865273 62.72398876 -197.82272339 63.10916138 C-194.67118079 63.94041222 -191.51770649 64.76372083 -188.36251831 65.58102417 C-183.34324992 66.88137484 -178.32858995 68.19886958 -173.31469727 69.51977539 C-168.02698553 70.91210835 -162.7390471 72.30353152 -157.44963074 73.68937683 C-138.82392202 78.57065999 -120.22652087 83.55620553 -101.63180542 88.55404663 C-97.19912462 89.74533433 -92.76587404 90.93448364 -88.33236694 92.12269211 C-84.97015574 93.02385151 -81.60813608 93.92572403 -78.2461586 94.82775497 C-76.70357381 95.24153881 -75.16093132 95.6551076 -73.61822128 96.06842422 C-71.47630804 96.64240686 -69.33470575 97.21753921 -67.19311523 97.79272461 C-66.16760056 98.06686251 -66.16760056 98.06686251 -65.12136841 98.34653854 C-61.43734125 99.33612069 -57.7659873 100.35939444 -54.10305786 101.42459106 C-53.31273446 101.6518541 -52.52241106 101.87911715 -51.70813847 102.11326694 C-50.21096554 102.54514982 -48.71570127 102.98373957 -47.22300625 103.43085384 C-38.08202048 106.05553063 -30.36559681 106.49563722 -21.16357422 104.01586914 C-20.26344038 103.78733026 -19.36330654 103.55879137 -18.43589592 103.32332706 C-15.55664293 102.58696354 -12.68457351 101.82634097 -9.8125 101.0625 C-7.92744583 100.57132234 -6.04221224 100.08083271 -4.15679932 99.59103394 C1.83777952 98.02431611 7.82134734 96.41759938 13.8046875 94.80859375 C16.00311552 94.21972006 18.20161353 93.63110763 20.400177 93.04273987 C26.12576812 91.50976508 31.85043363 89.97336266 37.57489014 88.43615723 C43.38010294 86.87790039 49.18617562 85.32285449 54.9921875 83.76757812 C63.51072907 81.4854109 72.02877555 79.20140852 80.54638672 76.91577148 C89.09120159 74.62297244 97.63806759 72.33802293 106.1875 70.0625 C106.1875 69.7325 106.1875 69.4025 106.1875 69.0625 C105.50666257 69.0024988 104.82582514 68.9424976 104.12435627 68.88067818 C87.55658643 67.42005063 70.98959543 65.9509139 54.42342091 64.47230721 C46.41212085 63.75746888 38.40058432 63.04551074 30.38842773 62.34033203 C23.40487337 61.72567694 16.42182347 61.10561846 9.43932551 60.47907245 C5.74228909 60.14752407 2.0450569 59.81868263 -1.65279198 59.49631119 C-5.78126922 59.13629631 -9.90857415 58.76422177 -14.03588867 58.39111328 C-15.26156052 58.28609497 -16.48723236 58.18107666 -17.75004578 58.07287598 C-18.87600159 57.9691568 -20.0019574 57.86543762 -21.16203308 57.75857544 C-22.13821185 57.6719269 -23.11439062 57.58527836 -24.12015057 57.4960041 C-26.97097638 57.03698319 -29.24584819 56.38931558 -31.8125 55.0625 C-32.75 52.125 -32.75 52.125 -32.8125 49.0625 C-30.8125 46.0625 -30.8125 46.0625 -28.61474895 45.34608364 C-25.30452756 45.01109391 -22.29098588 45.21162523 -18.97651672 45.52516174 C-18.30143057 45.58697174 -17.62634441 45.64878173 -16.93080109 45.71246475 C-14.67493453 45.92070624 -12.42018338 46.1392269 -10.1652832 46.35766602 C-8.54538549 46.50920694 -6.92542411 46.66006876 -5.30540466 46.81030273 C-1.81887742 47.13485481 1.6672048 47.46373705 5.15302086 47.79583931 C10.67074179 48.321016 16.18958571 48.83362152 21.70869446 49.34397888 C37.40222251 50.79710682 53.09415078 52.26706144 68.78491211 53.74975586 C77.45246527 54.56868193 86.12093307 55.37713946 94.79049617 56.17451233 C100.27078081 56.67918754 105.74963857 57.19679077 111.22778451 57.72414982 C114.64611254 58.05014014 118.06548065 58.36393685 121.48525047 58.67440033 C123.06345191 58.82011042 124.64120857 58.97074062 126.21841812 59.12682152 C139.50506257 60.56683649 139.50506257 60.56683649 152.1875 57.0625 C152.1875 56.4025 152.1875 55.7425 152.1875 55.0625 C129.168594 48.30683667 105.9473722 42.27208891 82.76734066 36.09942532 C77.93198124 34.81164582 73.09682652 33.52309895 68.26171875 32.234375 C67.29686869 31.97731844 66.33201862 31.72026188 65.33793068 31.45541573 C52.45353752 28.02152196 39.5820573 24.54373855 26.72272491 21.01719093 C21.83662241 19.67885359 16.9482586 18.34879445 12.05990601 17.01870251 C7.49976649 15.77673106 2.94378636 14.52077101 -1.6095953 13.25426292 C-4.42462492 12.47499696 -7.24326318 11.70948468 -10.06304359 10.94760895 C-11.94872529 10.43371097 -13.82986966 9.9032499 -15.71073914 9.37200928 C-27.54526342 6.20182737 -37.90659703 6.26643913 -49.66796875 9.5703125 Z M-263.8125 73.0625 C-263.1525 74.17625 -262.4925 75.29 -261.8125 76.4375 C-256.53265998 88.51111266 -259.54337523 103.10700171 -263.98242188 114.98339844 C-271.66128845 134.21670073 -284.77683277 156.6762326 -304.48828125 165.22265625 C-309.35331875 166.80988396 -313.71571341 167.39489913 -318.8125 167.0625 C-317.48767784 169.57966211 -316.34615431 171.62767056 -314.125 173.4375 C-308.40186134 174.98429423 -302.97698386 173.15085692 -297.9453125 170.41796875 C-293.60325872 167.65845838 -289.69501166 164.4277589 -285.8125 161.0625 C-285.14347656 160.49015625 -284.47445312 159.9178125 -283.78515625 159.328125 C-266.95770626 143.77391764 -253.09991661 117.43706472 -251.57421875 94.4765625 C-251.42497981 86.85752202 -251.44048493 81.43315052 -255.8125 75.0625 C-259.04041555 72.9105563 -260.09650809 72.86163557 -263.8125 73.0625 Z M-292.375 93.0625 C-306.70594845 107.6473828 -317.18069467 128.58738383 -317.11328125 149.05859375 C-317.03172865 152.24178534 -317.03172865 152.24178534 -314.8125 155.0625 C-306.49343219 153.04982231 -301.76668095 149.09620256 -295.8125 143.0625 C-295.19503906 142.45535156 -294.57757813 141.84820312 -293.94140625 141.22265625 C-280.65312645 127.19784362 -271.63681293 107.09723171 -271.546875 87.91796875 C-271.60303181 84.8618499 -271.60303181 84.8618499 -273.8125 82.0625 C-281.06960964 82.0625 -287.38687147 88.31290363 -292.375 93.0625 Z M-238.8125 88.0625 C-238.89886719 89.17625 -238.98523438 90.29 -239.07421875 91.4375 C-240.01950955 102.20786986 -241.9790859 111.9521212 -245.8125 122.0625 C-246.06128906 122.71959961 -246.31007812 123.37669922 -246.56640625 124.05371094 C-255.40547165 146.80653131 -270.4197278 168.61579617 -291.8125 181.0625 C-289.45581603 183.73751226 -287.16813768 184.98402204 -283.90820312 186.38745117 C-282.40888245 187.03909492 -282.40888245 187.03909492 -280.87927246 187.7039032 C-279.25293884 188.39767815 -279.25293884 188.39767815 -277.59375 189.10546875 C-276.46666626 189.59275955 -275.33958252 190.08005035 -274.17834473 190.58210754 C-270.55924612 192.14477964 -266.93593338 193.69740961 -263.3125 195.25 C-260.93331913 196.27605616 -258.55440982 197.30274226 -256.17578125 198.33007812 C-243.08394208 203.97722501 -229.96510849 209.55841928 -216.8125 215.0625 C-215.8225 213.5775 -215.8225 213.5775 -214.8125 212.0625 C-214.23113281 211.20398438 -213.64976562 210.34546875 -213.05078125 209.4609375 C-208.11821015 201.78344121 -208.11821015 201.78344121 -208.2109375 193 C-208.71423908 191.37897673 -209.28661013 189.77961378 -209.875 188.1875 C-212.09568261 180.78522464 -211.44624634 173.84701811 -207.94140625 166.99609375 C-204.88276303 161.75724118 -201.50240776 158.3227397 -195.8125 156.0625 C-192.52001204 155.258662 -189.2336986 154.57083989 -185.8984375 153.96875 C-181.36741681 152.63812114 -178.79685555 150.51459897 -176.16015625 146.625 C-175.73605469 145.779375 -175.31195313 144.93375 -174.875 144.0625 C-174.43285156 143.216875 -173.99070312 142.37125 -173.53515625 141.5 C-172.56672738 139.12511198 -172.56672738 139.12511198 -173.53710938 137.09521484 C-174.96622782 134.81748893 -176.31621091 133.66439765 -178.49609375 132.1015625 C-179.6250708 131.28196045 -179.6250708 131.28196045 -180.77685547 130.44580078 C-181.59299316 129.86556152 -182.40913086 129.28532227 -183.25 128.6875 C-184.99099509 127.42723483 -186.73187747 126.16681394 -188.47265625 124.90625 C-189.36355957 124.26558594 -190.25446289 123.62492187 -191.17236328 122.96484375 C-195.1966574 120.06514893 -199.19367893 117.12896082 -203.1875 114.1875 C-203.95457275 113.62393799 -204.72164551 113.06037598 -205.51196289 112.47973633 C-212.70292963 107.18030811 -219.80044716 101.76002732 -226.87255859 96.30322266 C-228.12286865 95.34295166 -228.12286865 95.34295166 -229.3984375 94.36328125 C-230.1311084 93.79778564 -230.8637793 93.23229004 -231.61865234 92.6496582 C-233.94081397 90.96967014 -236.3359868 89.50300971 -238.8125 88.0625 Z M-142.8125 91.0625 C-143.13561734 96.32720957 -143.37044105 101.58608984 -143.52661133 106.85839844 C-143.59171984 108.64783237 -143.68025157 110.43658143 -143.79321289 112.22363281 C-144.7418679 121.8933303 -144.7418679 121.8933303 -141.60736084 130.68994141 C-137.15708071 134.77254798 -132.08100068 136.93317371 -126.04394531 137.27734375 C-123.0148393 137.0759526 -120.71509927 136.58323451 -117.875 135.5625 C-110.05357701 133.08138395 -103.27946574 133.51703425 -95.8125 137.0625 C-87.84918853 141.95335271 -85.49892549 149.09384453 -83.375 157.8125 C-82.10487112 162.59377049 -80.925485 165.06344844 -76.8125 168.0625 C-75.00589589 169.01131193 -73.19271213 169.94764618 -71.375 170.875 C-65.4489599 173.99354869 -61.1870325 177.74904993 -59.10546875 184.28125 C-58.90566406 184.9928125 -58.70585937 185.704375 -58.5 186.4375 C-57.943125 187.63375 -57.38625 188.83 -56.8125 190.0625 C-49.12098966 192.57219028 -41.34003668 192.40966549 -33.3125 192.375 C-32.63298279 192.37284485 -31.95346558 192.3706897 -31.25335693 192.36846924 C0.41802311 192.2084427 54.21659387 187.03340613 78.1875 163.0625 C78.48163485 159.94419701 78.48163485 159.94419701 78.41455078 156.22607422 C78.41484283 155.52352509 78.41513489 154.82097595 78.41543579 154.09713745 C78.41404023 151.77036269 78.39846872 149.44390646 78.3828125 147.1171875 C78.37908317 145.50578995 78.37623582 143.89439013 78.37423706 142.2829895 C78.36659431 138.03816486 78.34694039 133.7934767 78.3248291 129.54870605 C78.30438443 125.2186874 78.2952383 120.88864674 78.28515625 116.55859375 C78.26369504 108.05983314 78.22955145 99.56118354 78.1875 91.0625 C73.68651181 91.64564479 69.37738284 92.4375421 64.99389648 93.60961914 C63.2179435 94.08130272 63.2179435 94.08130272 61.40611267 94.56251526 C59.50159081 95.07491005 59.50159081 95.07491005 57.55859375 95.59765625 C56.20566537 95.95855829 54.85264095 96.31910046 53.49952698 96.67930603 C49.9279051 97.6311149 46.3575894 98.58773521 42.78753662 99.54541016 C39.26991981 100.48818031 35.75111786 101.42650183 32.23242188 102.36523438 C30.8384232 102.73747338 29.4444311 103.10973698 28.05044556 103.48202515 C25.26133441 104.22681784 22.47188055 104.97030947 19.68222046 105.71304321 C13.4225048 107.38169269 7.16665233 109.06082627 0.92544842 110.79762745 C-1.77083678 111.54697409 -4.46946148 112.28768281 -7.16831779 113.02770805 C-9.0159255 113.53817136 -10.86004909 114.06119464 -12.70399475 114.58473206 C-25.91557131 118.198847 -36.56861107 118.57952959 -49.8125 115.0625 C-51.37030962 114.66094594 -52.92820653 114.2597304 -54.48617554 113.85879517 C-58.95386796 112.69781873 -63.41221054 111.5039497 -67.86865807 110.30060768 C-70.82273639 109.50305754 -73.7780032 108.71005169 -76.7335968 107.9181366 C-84.05772778 105.95478153 -91.37986193 103.98402327 -98.70196533 102.01312256 C-104.92595406 100.33806772 -111.15072905 98.66599784 -117.37662697 96.9980526 C-120.28849839 96.21661723 -123.19914994 95.43074814 -126.10978699 94.64472961 C-127.88392246 94.16893558 -129.65811469 93.69335316 -131.43237305 93.21801758 C-132.24115906 92.99831299 -133.04994507 92.7786084 -133.88323975 92.55224609 C-136.94173829 91.73681133 -139.63210596 91.0625 -142.8125 91.0625 Z M131.375 137.9375 C129.46944163 141.34744656 128.78685029 144.20949511 129.625 148.0859375 C131.13639045 152.7059833 132.78324192 155.66888148 137.1875 158.0625 C141.81845516 159.39433485 145.71268883 159.7045626 150.0625 157.4375 C153.82293899 154.57956637 155.79453977 152.71498158 156.5 147.953125 C156.71909155 143.87254484 156.35955397 141.41984287 154.5625 137.6875 C150.96924634 133.71600911 147.98738182 132.28748523 142.6875 131.625 C137.69535388 132.24901827 134.8238498 134.36972434 131.375 137.9375 Z M-160.8125 144.0625 C-163.01747299 146.9808466 -164.69654028 149.81545537 -166.25 153.125 C-169.26372725 158.79080723 -173.91289359 162.60877582 -179.8125 165.0625 C-181.84539527 165.59704617 -183.88819176 166.09480511 -185.9375 166.5625 C-191.37922634 167.82089922 -194.77752182 169.25229204 -198.125 173.875 C-199.63539291 178.68079563 -199.0333407 182.75890598 -197.3125 187.375 C-194.46715055 195.4073262 -195.27575016 202.15046835 -198.66015625 209.8828125 C-199.8125 212.0625 -199.8125 212.0625 -202 214.75 C-204.50260498 217.94297877 -204.8125 220.01705472 -204.8125 224.0625 C-204.17544914 227.35826312 -203.05514279 229.55689246 -200.8125 232.0625 C-197.60945936 234.0326242 -194.31875856 235.68410449 -190.953125 237.359375 C-184.86325175 240.66184358 -182.10135985 244.52033321 -180.0625 251.0625 C-179.2899628 253.98837363 -178.61455564 256.92497187 -177.9375 259.875 C-176.41377207 264.19222914 -173.92853086 267.00448457 -169.8125 269.0625 C-164.99787793 269.40640158 -161.3460763 269.050085 -156.75 267.5625 C-149.1308072 265.12342913 -143.03970314 265.82149565 -135.8125 269.0625 C-134.1329609 270.12576727 -132.46645796 271.20986136 -130.8125 272.3125 C-126.56419757 274.96190789 -123.70820261 275.81539669 -118.7734375 274.78515625 C-113.36909771 272.79351709 -111.39534731 268.38233944 -108.875 263.5625 C-104.99632511 256.20093338 -100.77340349 252.89604192 -92.8125 250.0625 C-91.2749794 249.71053745 -89.73296696 249.3777445 -88.1875 249.0625 C-83.39160803 248.0592777 -80.19240426 246.72790169 -77 242.875 C-74.72116645 237.47776264 -75.3623689 232.946072 -77.3125 227.625 C-80.07275921 219.9121226 -79.24195773 213.92687645 -76.0390625 206.47265625 C-74.84990319 204.13599608 -73.50240024 202.0819875 -72 199.9375 C-70.17093765 197.12878506 -69.45150636 195.30519303 -69.6875 191.9375 C-70.59130991 187.77671743 -72.47963469 184.7076312 -75.8125 182.0625 C-78.31445399 180.69032819 -80.86200126 179.4767917 -83.4453125 178.265625 C-89.42927336 175.22427196 -92.53270345 170.16195567 -94.8125 164.0625 C-95.29343812 162.0051536 -95.75070281 159.94216809 -96.1875 157.875 C-97.37095557 152.83970391 -97.37095557 152.83970391 -100.5 148.875 C-104.39324577 146.74473344 -107.36944562 145.73244453 -111.8125 146.0625 C-113.71182351 146.80291425 -115.61039522 147.5466306 -117.48828125 148.33984375 C-124.50063737 150.52015616 -131.82406768 149.95289305 -138.375 146.75 C-140.705314 145.44140883 -142.74755602 144.1159012 -144.8125 142.41796875 C-149.69526728 139.10874952 -156.5120798 140.37642555 -160.8125 144.0625 Z M137.1875 171.0625 C136.383125 172.63 135.57875 174.1975 134.75 175.8125 C134.29753906 176.69421875 133.84507812 177.5759375 133.37890625 178.484375 C131.71235312 182.0906867 131.06393895 185.19585162 131.04223633 189.15673828 C131.03585648 189.95081085 131.02947662 190.74488342 131.02290344 191.5630188 C131.02179062 192.41105072 131.0206778 193.25908264 131.01953125 194.1328125 C131.01620285 195.01025116 131.01287445 195.88768982 131.00944519 196.79171753 C131.00439074 198.64255246 131.00203641 200.49339646 131.00219727 202.34423828 C131.00000265 205.18406987 130.98180928 208.02351794 130.96289062 210.86328125 C130.95995809 212.661457 130.95797236 214.4596346 130.95703125 216.2578125 C130.94984573 217.10989288 130.94266022 217.96197327 130.93525696 218.83987427 C130.74117436 223.42903427 130.74117436 223.42903427 133.1875 227.0625 C136.64585879 227.53932157 140.13747512 227.43287157 143.625 227.4375 C144.59244141 227.46199219 145.55988281 227.48648438 146.55664062 227.51171875 C147.48541016 227.51558594 148.41417969 227.51945312 149.37109375 227.5234375 C150.22243896 227.53165527 151.07378418 227.53987305 151.95092773 227.54833984 C154.29484019 227.23344972 154.29484019 227.23344972 155.96582031 225.45556641 C157.58955328 222.2749448 157.55963058 219.87902101 157.55078125 216.3125 C157.55127975 215.65854248 157.55177826 215.00458496 157.55229187 214.33081055 C157.54995534 212.94560716 157.54025144 211.56039922 157.52368164 210.17529297 C157.50038586 208.09692491 157.50308644 206.01986917 157.50976562 203.94140625 C157.48588229 192.19818302 156.49452327 181.67654653 151.1875 171.0625 C146.5675 171.0625 141.9475 171.0625 137.1875 171.0625 Z M-58.8125 203.0625 C-63.57141116 208.754531 -67.05204837 213.51672628 -66.8125 221.0625 C-66.37856712 222.49366994 -65.8959686 223.91066661 -65.375 225.3125 C-62.62680736 232.73901128 -62.57228755 240.18897268 -65.875 247.4375 C-69.57511505 253.87652703 -73.68248707 257.61615307 -80.8125 259.8125 C-83.73928626 260.58971942 -86.66174035 261.24348565 -89.625 261.875 C-96.01398309 264.25520939 -98.70863908 270.33592931 -101.89453125 276.01171875 C-103.01677833 278.14439017 -103.01677833 278.14439017 -102.8125 281.0625 C-101.06555072 282.82301854 -101.06555072 282.82301854 -98.7109375 284.50390625 C-97.83566406 285.16455078 -96.96039063 285.82519531 -96.05859375 286.50585938 C-95.11113281 287.20517578 -94.16367188 287.90449219 -93.1875 288.625 C-92.22199219 289.34880859 -91.25648438 290.07261719 -90.26171875 290.81835938 C-84.63160775 295.02402974 -78.95270691 299.15355571 -73.20263672 303.19360352 C-67.80066515 307.01191208 -62.5620136 311.03830626 -57.3125 315.0625 C-50.35290058 320.3956377 -43.34537954 325.61980435 -36.1796875 330.671875 C-31.60414132 333.90134977 -27.10731157 337.23911853 -22.60791016 340.57348633 C-16.43138093 345.13219454 -12.4983834 346.13944414 -4.8125 345.0625 C14.81958707 338.30906205 29.44371399 320.21423259 38.3984375 302.08203125 C45.14451492 287.51181961 50.56043406 270.00021612 46.125 254 C42.54755213 245.62982213 34.31111862 242.40041011 26.38671875 239.078125 C24.80571129 238.39735649 24.80571129 238.39735649 23.19276428 237.70283508 C19.7584962 236.22741999 16.31697398 234.7698359 12.875 233.3125 C10.50049317 232.29662066 8.12647359 231.27960173 5.75292969 230.26147461 C0.92518752 228.19285399 -3.90547987 226.1313083 -8.73876953 224.07568359 C-15.37415627 221.25237717 -21.99923222 218.40564021 -28.62109375 215.55078125 C-39.50253245 210.86334991 -39.50253245 210.86334991 -50.390625 206.19140625 C-51.13593979 205.87069656 -51.88125458 205.54998688 -52.64915466 205.21955872 C-55.63019201 203.71795473 -55.63019201 203.71795473 -58.8125 203.0625 Z M-209.47265625 247.44140625 C-210.1797876 247.94768555 -210.88691895 248.45396484 -211.61547852 248.97558594 C-212.36112061 249.51989258 -213.1067627 250.06419922 -213.875 250.625 C-215.4061559 251.72539136 -216.9374056 252.82565222 -218.46875 253.92578125 C-219.5825 254.73136475 -219.5825 254.73136475 -220.71875 255.55322266 C-223.41929781 257.49990953 -226.14370021 259.40922357 -228.875 261.3125 C-229.64972656 261.85390625 -230.42445313 262.3953125 -231.22265625 262.953125 C-231.74730469 263.31921875 -232.27195312 263.6853125 -232.8125 264.0625 C-229.81975283 265.67397925 -226.8929082 266.70303476 -223.625 267.625 C-218.92066327 268.95433673 -218.92066327 268.95433673 -217.8125 270.0625 C-217.57596477 272.58846259 -217.39076308 275.09357207 -217.25 277.625 C-217.20681641 278.33591797 -217.16363281 279.04683594 -217.11914062 279.77929688 C-217.01278223 281.54011912 -216.91211154 283.3012832 -216.8125 285.0625 C-213.96780821 283.7511807 -211.73422334 282.30267874 -209.38671875 280.234375 C-208.43829102 279.40486328 -208.43829102 279.40486328 -207.47070312 278.55859375 C-206.82037109 277.98238281 -206.17003906 277.40617187 -205.5 276.8125 C-204.21239722 275.68211209 -202.92463745 274.55190296 -201.63671875 273.421875 C-201.00733398 272.86371094 -200.37794922 272.30554688 -199.72949219 271.73046875 C-198.43718903 270.60603992 -197.12451511 269.50465642 -195.79394531 268.42578125 C-195.1594043 267.90886719 -194.52486328 267.39195312 -193.87109375 266.859375 C-193.2980249 266.40401367 -192.72495605 265.94865234 -192.13452148 265.47949219 C-190.4650459 263.94718836 -190.4650459 263.94718836 -190.1875 260.5625 C-191.08974891 255.50990612 -192.45240318 252.31797399 -196.25 248.8125 C-201.20207901 245.43059238 -204.24742433 243.65835164 -209.47265625 247.44140625 Z M-154.5390625 279.5625 C-155.74296631 279.98015625 -155.74296631 279.98015625 -156.97119141 280.40625 C-157.57882324 280.6228125 -158.18645508 280.839375 -158.8125 281.0625 C-159.6705809 285.42174878 -160.52497959 289.78169816 -161.37597656 294.14233398 C-161.66598078 295.62560501 -161.95698946 297.10868001 -162.24902344 298.59155273 C-162.66866187 300.72328744 -163.08468046 302.85570146 -163.5 304.98828125 C-163.75136719 306.27130127 -164.00273437 307.55432129 -164.26171875 308.8762207 C-164.8976671 312.01627101 -164.8976671 312.01627101 -164.8125 315.0625 C-161.74329942 313.94642706 -159.10920219 312.6309654 -156.375 310.875 C-152.8125 309.0625 -152.8125 309.0625 -149.875 308.75 C-145.60610904 310.5795247 -143.35824279 313.57712642 -140.44921875 317.12890625 C-139.90910156 317.76699219 -139.36898437 318.40507812 -138.8125 319.0625 C-138.4825 319.0625 -138.1525 319.0625 -137.8125 319.0625 C-137.16336162 312.6513953 -136.56722417 306.23772887 -136.03955078 299.81542969 C-135.90230594 298.15137289 -135.75919095 296.4877657 -135.60498047 294.82519531 C-134.83100067 288.18921308 -134.83100067 288.18921308 -137.1328125 282.20703125 C-142.46681988 277.93743342 -148.19716455 277.33645904 -154.5390625 279.5625 Z " fill="#167CFF" transform="translate(337.8125,79.9375)"/>
<path d="M0 0 C8.80109887 6.24402285 15.0789993 15.97581825 17.3125 26.640625 C18.20039563 41.32729198 16.81887911 52.13303842 7.578125 64.12890625 C-0.13028496 72.67460901 -10.15790436 77.38488127 -21.5 78.578125 C-34.15068878 79.12755774 -44.45079458 75.68472137 -54.12890625 67.6015625 C-62.10579432 60.16347577 -67.40192034 50.70099243 -68.0234375 39.625 C-68.31867378 25.7651168 -65.23862675 14.94236077 -55.72265625 4.48046875 C-40.39724001 -10.34610935 -17.51814824 -11.27730793 0 0 Z M-48.6875 16.640625 C-54.70302465 24.39748573 -55.58828297 32.06980592 -54.6875 41.640625 C-52.74784555 49.59761657 -48.91593268 55.93980528 -41.984375 60.3671875 C-33.54937802 64.93073715 -26.54832093 66.72160837 -17.125 64.640625 C-7.87471125 61.72704535 -2.44055847 56.20998515 2.21875 47.875 C5.55757963 41.05424804 5.59279524 31.639392 3.375 24.390625 C-0.40485676 16.11773095 -7.34128754 9.89423325 -15.6875 6.640625 C-28.41536802 2.84048445 -39.85283344 7.25379178 -48.6875 16.640625 Z " fill="#1671FF" transform="translate(225.6875,252.359375)"/>
</svg>
