<?xml version="1.0" encoding="UTF-8"?>
<svg version="1.1" xmlns="http://www.w3.org/2000/svg" width="512" height="512">
<path d="M0 0 C0.81210937 0.65935547 0.81210937 0.65935547 1.640625 1.33203125 C4.40712522 2.45400078 6.60926056 1.96966001 9.50195312 1.51342773 C24.0473863 -0.59540733 38.46413914 0.5800988 50.625 9.4375 C60.93740583 18.31230278 67.35860576 27.70873249 69.75 41.1875 C70.85794922 41.39052734 70.85794922 41.39052734 71.98828125 41.59765625 C85.23739284 44.40909416 95.84099903 51.72750767 103.5 62.9375 C109.88478818 74.19204188 112.5215187 88.45336409 109.22705078 101.21289062 C108.6313305 102.94875205 107.97360045 104.66297087 107.3125 106.375 C106.12550986 109.34848629 106.12550986 109.34848629 105.75 112.1875 C107.05029484 114.86083345 108.68801534 116.62554904 110.71875 118.7890625 C118.81392425 128.34759517 118.590599 141.20271634 117.95605469 153.02050781 C117.69960927 155.71743849 117.07410928 158.21647697 116.3125 160.8125 C115.52100156 163.89717544 115.55310981 164.81527268 117.0703125 167.68359375 C118.32386526 169.40657317 119.60854297 171.10729702 120.921875 172.78515625 C127.25484778 181.10733201 126.73389364 192.19308987 125.75 202.1875 C123.60441141 212.95375704 116.95761068 221.34576889 108.1640625 227.68359375 C98.03358463 233.99465197 87.33810503 233.94733202 75.75 234.1875 C75.481875 235.0846875 75.21375 235.981875 74.9375 236.90625 C67.91077465 259.28082282 55.92634998 279.1078204 36.75 293.1875 C53.0134396 300.00304867 69.33820781 306.64890981 85.73046875 313.1484375 C87.47424676 313.84075473 89.21799048 314.53315836 90.96170044 315.22564697 C98.10868535 318.06313135 105.25594588 320.89984791 112.40893555 323.72216797 C116.86094337 325.47911186 121.30947173 327.2446206 125.75588417 329.01567459 C127.42379597 329.6781908 129.09294422 330.33760415 130.7634182 330.99363327 C153.30355618 339.84911288 171.20750056 352.2147334 182.75 374.1875 C187.45901699 385.2626311 190.05217565 395.69137532 190.04052734 407.69262695 C190.04724457 408.70188736 190.05396179 409.71114777 190.06088257 410.75099182 C190.07975379 414.05930608 190.08378 417.36741666 190.0859375 420.67578125 C190.09236854 422.98504214 190.09909713 425.29430221 190.10610962 427.6035614 C190.11805187 432.4291676 190.12179314 437.25470234 190.12060547 442.08032227 C190.12040143 448.26891433 190.14780492 454.45705155 190.18214989 460.64553547 C190.20435142 465.4075482 190.20844523 470.16944981 190.20738602 474.93150902 C190.20974825 477.21411915 190.2186066 479.49673205 190.23405075 481.77929115 C190.25359152 484.96297213 190.24792133 488.14564944 190.23583984 491.3293457 C190.24707886 492.273302 190.25831787 493.2172583 190.26989746 494.18981934 C190.26150848 495.05738358 190.25311951 495.92494781 190.24447632 496.81880188 C190.24556585 497.5703571 190.24665539 498.32191233 190.24777794 499.09624195 C189.51833537 502.16076635 188.21399991 503.24641938 185.75 505.1875 C182.53910828 505.68889666 182.53910828 505.68889666 178.6472168 505.69086456 C177.92792936 505.69667833 177.20864193 505.70249209 176.46755791 505.70848203 C174.04444153 505.72314204 171.62232864 505.70916963 169.19921875 505.69543457 C167.44969666 505.70004113 165.70017843 505.7063924 163.95066833 505.71434355 C159.13305618 505.73109367 154.31575959 505.72276478 149.49814606 505.71039867 C144.30652186 505.70137369 139.11495313 505.7153052 133.92333984 505.72631836 C123.74900862 505.7441355 113.5747952 505.74024938 103.40045929 505.7286678 C95.13398774 505.7196463 86.86754928 505.71840391 78.60107422 505.72276306 C76.83848975 505.72368246 76.83848975 505.72368246 75.04029751 505.72462043 C72.65343856 505.72589929 70.26657962 505.72719614 67.87972069 505.7285108 C45.48084582 505.73992596 23.08203636 505.72678821 0.68317223 505.70530933 C-18.54979295 505.68743752 -37.78266157 505.69054136 -57.015625 505.70898438 C-79.33255098 505.73037456 -101.64941958 505.73882723 -123.96635437 505.72653532 C-126.34459431 505.72526108 -128.72283426 505.7240036 -131.10107422 505.72276306 C-132.27131417 505.72214596 -133.44155413 505.72152886 -134.6472559 505.72089306 C-142.90694108 505.7174346 -151.16658997 505.72327917 -159.42626953 505.73268127 C-169.48757235 505.74388208 -179.5487503 505.74090168 -189.61003876 505.7195583 C-194.74670793 505.70902202 -199.88316865 505.70496984 -205.01983643 505.71815491 C-209.71763953 505.73003139 -214.41504 505.72359504 -219.11280632 505.7022447 C-220.81664568 505.69775842 -222.52051873 505.70009 -224.22433662 505.70974785 C-226.53245366 505.72183241 -228.83917392 505.70951971 -231.1472168 505.69086456 C-232.43154099 505.69021515 -233.71586517 505.68956574 -235.03910828 505.68889666 C-238.80110015 505.10144298 -239.98145223 504.18551734 -242.25 501.1875 C-242.75336456 499.11579514 -242.75336456 499.11579514 -242.75793457 496.86590576 C-242.76921387 496.00845764 -242.78049316 495.15100952 -242.79211426 494.26757812 C-242.78401733 493.33461914 -242.77592041 492.40166016 -242.76757812 491.44042969 C-242.7745874 490.45117493 -242.78159668 489.46192017 -242.78881836 488.44268799 C-242.80645118 485.1646329 -242.79474566 481.8874393 -242.78125 478.609375 C-242.78394595 476.32171463 -242.78782924 474.03405538 -242.79284668 471.74639893 C-242.79875104 466.94117369 -242.79015785 462.13624542 -242.77148438 457.33105469 C-242.74884901 451.21182562 -242.76171386 445.09330432 -242.78577423 438.97410202 C-242.80033919 434.24158559 -242.7955749 429.50923229 -242.78526306 424.77671051 C-242.78261714 422.52357141 -242.78578926 420.27041691 -242.79518127 418.01729584 C-242.88003959 391.90566059 -237.22510123 370.99247662 -218.84375 351.65625 C-205.86677469 339.35340328 -190.00014288 333.49828914 -173.64453125 327.03515625 C-171.26850609 326.08599102 -168.89291783 325.13573148 -166.51774597 324.18443298 C-160.93893977 321.95293062 -155.35604791 319.73199217 -149.77089852 317.51643795 C-142.78518648 314.74462564 -135.80565208 311.95738012 -128.82617188 309.16992188 C-121.70478879 306.32625359 -114.582936 303.48383343 -107.45698547 300.65162659 C-106.37991837 300.22333054 -105.30285126 299.79503448 -104.19314575 299.35375977 C-102.1773232 298.55239167 -100.16121987 297.75172938 -98.14479065 296.95188904 C-97.26051392 296.60026703 -96.37623718 296.24864502 -95.46516418 295.8863678 C-94.69483762 295.58058335 -93.92451105 295.27479891 -93.13084126 294.95974827 C-91.20834263 294.19749657 -91.20834263 294.19749657 -89.25 293.1875 C-90.39275391 292.17042969 -90.39275391 292.17042969 -91.55859375 291.1328125 C-109.54245364 274.99210077 -121.91385667 257.66490066 -128.25 234.1875 C-129.49394531 234.16171875 -130.73789063 234.1359375 -132.01953125 234.109375 C-147.16160565 233.65569129 -158.37750724 231.48165578 -169.22265625 220.12109375 C-177.79964499 209.9416103 -179.37026197 199.17068252 -178.47753906 186.26269531 C-177.72948471 179.44031122 -175.31116999 174.26322442 -170.875 169.125 C-168.69699837 166.4630985 -168.69699837 166.4630985 -168.3125 163.17578125 C-168.71332205 161.5808435 -169.13634138 159.99141502 -169.57421875 158.40625 C-172.17618116 146.01308798 -171.2909255 132.41059198 -165.25 121.1875 C-163.93395809 119.63355821 -162.58113142 118.10975347 -161.1875 116.625 C-159.29626373 114.58123003 -159.29626373 114.58123003 -158.25 112.1875 C-158.78152084 108.92377555 -159.90878791 106.12429917 -161.09375 103.0390625 C-164.84567616 92.09206055 -163.17381546 78.63536999 -158.79296875 68.16796875 C-152.91809625 56.81979731 -143.20736468 47.78791912 -131.25 43.1875 C-128.24687944 42.33646732 -125.32980329 41.73391671 -122.25 41.1875 C-122.11464844 40.44886719 -121.97929687 39.71023437 -121.83984375 38.94921875 C-119.02840584 25.70010716 -111.70999233 15.09650097 -100.5 7.4375 C-87.94375194 0.31424389 -74.0154819 -0.48093269 -59.9453125 1.87890625 C-55.82825396 2.22271981 -54.64329075 1.81238255 -51.375 -0.5625 C-36.52815694 -10.17717246 -14.68038297 -10.10687904 0 0 Z M-47.9375 17.9375 C-50.89798866 20.36208298 -51.99794421 21.1440421 -55.875 21.8125 C-59.25 21.1875 -59.25 21.1875 -62.25 19.6875 C-68.78833665 16.60282198 -77.28322944 17.29417902 -84.1640625 18.84375 C-92.58697374 21.86869645 -99.11674394 27.49302842 -103.23046875 35.4453125 C-104.97463516 40.1365187 -105.71014158 45.00269588 -106.4765625 49.9296875 C-107.25 53.1875 -107.25 53.1875 -108.39453125 55.05078125 C-111.22397028 56.78418495 -114.04772527 57.01177835 -117.3125 57.5 C-126.52261899 59.10908348 -134.21493603 62.67434823 -140 70.234375 C-145.39702082 78.66722002 -146.67421521 87.26959551 -145.25 97.1875 C-143.92191578 100.4770034 -142.35081062 103.44684537 -140.60546875 106.53125 C-138.56560189 110.52868361 -138.40053839 112.7857444 -139.25 117.1875 C-141.375 119.6875 -141.375 119.6875 -144.25 122.1875 C-152.49800397 131.69332457 -154.08009641 139.62431016 -153.25 152.1875 C-152.92 153.1775 -152.59 154.1675 -152.25 155.1875 C-151.62738281 155.03410156 -151.00476563 154.88070312 -150.36328125 154.72265625 C-146.06725228 153.98419205 -141.78758048 153.82287838 -137.4375 153.625 C-136.55384766 153.58181641 -135.67019531 153.53863281 -134.75976562 153.49414062 C-132.59000377 153.38858464 -130.4200209 153.28758929 -128.25 153.1875 C-127.81945312 152.03507813 -127.38890625 150.88265625 -126.9453125 149.6953125 C-126.38054935 148.19258013 -125.81543548 146.68997952 -125.25 145.1875 C-124.99959961 144.5181543 -124.74919922 143.84880859 -124.49121094 143.15917969 C-118.40988914 127.08768128 -110.39136071 114.34618077 -98.25 102.1875 C-97.45980469 101.38570313 -96.66960937 100.58390625 -95.85546875 99.7578125 C-85.22610212 89.56913271 -72.13548356 82.80649774 -58.25 78.1875 C-57.03957031 77.77371094 -55.82914062 77.35992187 -54.58203125 76.93359375 C-35.79635572 71.22299803 -12.79073943 71.84929195 5.75 78.1875 C6.37825684 78.39648926 7.00651367 78.60547852 7.65380859 78.82080078 C23.2376325 84.11050455 36.21255864 92.53614879 47.75 104.1875 C48.61238281 105.02796875 49.47476563 105.8684375 50.36328125 106.734375 C61.87329738 118.54869949 68.49396804 132.77454142 73.75 148.1875 C74.4044503 149.85900143 75.06589606 151.5279145 75.75 153.1875 C77.06355469 153.24808594 78.37710938 153.30867187 79.73046875 153.37109375 C81.46615541 153.45553256 83.20183198 153.54017888 84.9375 153.625 C85.80181641 153.66431641 86.66613281 153.70363281 87.55664062 153.74414062 C91.70914122 153.95097016 95.69537862 154.18853531 99.75 155.1875 C102.40964205 147.20857386 101.52761002 137.93861525 98.0234375 130.37109375 C95.46507922 125.9842156 92.29945844 122.45153188 88.375 119.25 C86.3854193 116.72476296 86.08174078 114.75521617 86.2109375 111.56640625 C86.89259249 108.55823313 88.22794311 106.30483002 89.75 103.625 C93.94999294 95.75250138 94.11522601 87.87594172 92.046875 79.2578125 C88.9605532 70.65272885 83.6168401 64.98587838 75.75 60.46484375 C70.97574803 58.43205678 66.07155789 57.68828231 60.97265625 56.92578125 C57.75 56.1875 57.75 56.1875 55.890625 55.046875 C54.15382629 52.21565518 53.92622546 49.39314373 53.4375 46.125 C51.61335378 35.80058057 47.66909144 28.66836883 39.015625 22.59375 C30.95155114 17.58846278 23.1866449 17.36508849 13.75 18.1875 C11.19605407 18.94974115 9.15081901 19.9870905 6.75 21.1875 C2.70737259 22.04267118 0.62066686 21.75141017 -2.85546875 19.5 C-4.76746897 18.06534052 -6.67228607 16.62106487 -8.5703125 15.16796875 C-20.72156984 6.18737477 -36.75736929 8.65836795 -47.9375 17.9375 Z M-88.8671875 115.74609375 C-101.21818487 128.67897701 -108.75790076 143.72700378 -112.25 161.1875 C-104.66 161.1875 -97.07 161.1875 -89.25 161.1875 C-87.93 158.2175 -86.61 155.2475 -85.25 152.1875 C-81.75601692 145.58775418 -76.25835678 141.82880486 -69.4453125 139.0390625 C-60.72154587 136.7141467 -50.46591828 137.06705436 -42.29296875 140.99609375 C-34.34337453 145.63209038 -29.68517824 152.33230639 -27.25 161.1875 C-26.59 161.1875 -25.93 161.1875 -25.25 161.1875 C-25.01925781 160.53523438 -24.78851563 159.88296875 -24.55078125 159.2109375 C-21.1741345 150.16205805 -17.04504981 144.57707278 -8.25 140.1875 C-3.63448472 138.32304044 0.62585271 137.80075447 5.5625 137.8125 C6.26810059 137.81411133 6.97370117 137.81572266 7.70068359 137.81738281 C13.56524118 137.9549282 17.8048083 139.13530642 22.75 142.1875 C24.3278125 143.0228125 24.3278125 143.0228125 25.9375 143.875 C31.68789107 148.60309932 34.42056482 154.19919447 36.75 161.1875 C44.34 161.1875 51.93 161.1875 59.75 161.1875 C55.60886918 138.4112805 42.26706534 117.87193909 23.22021484 104.63842773 C-12.60228439 80.897185 -58.36493826 85.92673069 -88.8671875 115.74609375 Z M-71.625 160.8125 C-73.82907893 165.39020239 -74.0471639 169.19302411 -73.25 174.1875 C-70.92031069 179.02608548 -68.08858548 181.85781069 -63.25 184.1875 C-58.25552411 184.9846639 -54.45270239 184.76657893 -49.875 182.5625 C-46.29092287 179.31976355 -43.65464759 176.72274104 -42.8671875 171.7890625 C-42.61116081 166.10527006 -43.31373068 162.53811345 -47.25 158.1875 C-51.60061345 154.25123068 -55.16777006 153.54866081 -60.8515625 153.8046875 C-65.78524104 154.59214759 -68.38226355 157.22842287 -71.625 160.8125 Z M-7.625 160.8125 C-9.82907893 165.39020239 -10.0471639 169.19302411 -9.25 174.1875 C-6.92031069 179.02608548 -4.08858548 181.85781069 0.75 184.1875 C5.74447589 184.9846639 9.54729761 184.76657893 14.125 182.5625 C17.70907713 179.31976355 20.34535241 176.72274104 21.1328125 171.7890625 C21.38883919 166.10527006 20.68626932 162.53811345 16.75 158.1875 C12.39938655 154.25123068 8.83222994 153.54866081 3.1484375 153.8046875 C-1.78524104 154.59214759 -4.38226355 157.22842287 -7.625 160.8125 Z M-155.25 176.1875 C-160.9520998 183.43185508 -162.04899425 190.08591334 -161.25 199.1875 C-159.47107978 205.917937 -154.75793807 210.21383727 -149.25 214.1875 C-143.13724949 217.38941694 -137.09084262 217.1875 -130.25 217.1875 C-130.25 201.3475 -130.25 185.5075 -130.25 169.1875 C-139.77679023 169.1875 -147.81807371 169.71087578 -155.25 176.1875 Z M77.75 169.1875 C77.75 185.0275 77.75 200.8675 77.75 217.1875 C86.73686393 217.1875 93.62483628 217.04596795 100.75 211.1875 C106.11008585 205.78885238 109.02261914 201.18665968 109.125 193.375 C108.99261723 186.19102849 106.98106704 181.91435971 102.5 176.4375 C94.65885371 170.02201667 87.82224908 169.1875 77.75 169.1875 Z M-114.25 177.1875 C-114.62745924 211.36853157 -114.51641774 242.48113166 -90.25 269.1875 C-89.42435547 270.13496094 -89.42435547 270.13496094 -88.58203125 271.1015625 C-73.61020091 287.29331976 -50.58327609 296.23295285 -28.87109375 297.21875 C-5.18761851 297.01436186 16.16305692 289.16766257 33.75 273.1875 C34.38164062 272.63707031 35.01328125 272.08664062 35.6640625 271.51953125 C52.97677904 255.51119746 60.68934366 232.12571723 61.75 209.1875 C61.88361121 203.5837493 61.84607646 197.97973516 61.8125 192.375 C61.80746824 190.89257966 61.80290834 189.41015764 61.79882812 187.92773438 C61.78883327 184.34757898 61.7692367 180.76766443 61.75 177.1875 C53.5 177.1875 45.25 177.1875 36.75 177.1875 C35.43 180.1575 34.11 183.1275 32.75 186.1875 C29.25629273 192.78672484 23.76004898 196.54321213 16.94921875 199.3359375 C8.63196794 201.5498089 -1.71906477 201.55774459 -9.36328125 197.37890625 C-9.98589844 196.98574219 -10.60851562 196.59257812 -11.25 196.1875 C-11.88292969 195.82527344 -12.51585937 195.46304688 -13.16796875 195.08984375 C-19.78411404 190.92830247 -23.20651979 184.61833713 -25.25 177.1875 C-25.91 177.1875 -26.57 177.1875 -27.25 177.1875 C-27.48074219 177.83976563 -27.71148437 178.49203125 -27.94921875 179.1640625 C-31.3258655 188.21294195 -35.45495019 193.79792722 -44.25 198.1875 C-48.86551528 200.05195956 -53.12585271 200.57424553 -58.0625 200.5625 C-59.12090088 200.56008301 -59.12090088 200.56008301 -60.20068359 200.55761719 C-66.06524118 200.4200718 -70.3048083 199.23969358 -75.25 196.1875 C-76.301875 195.630625 -77.35375 195.07375 -78.4375 194.5 C-84.18789107 189.77190068 -86.92056482 184.17580553 -89.25 177.1875 C-97.5 177.1875 -105.75 177.1875 -114.25 177.1875 Z M23.75 307.1875 C11.54 319.3975 -0.67 331.6075 -13.25 344.1875 C-10.17003351 348.03745812 -7.88011368 350.48157961 -4.125 353.4375 C-0.39695303 356.42389306 3.22367524 359.465363 6.75 362.6875 C12.7813448 368.1784363 18.95503739 373.65752493 25.75 378.1875 C28.43356388 365.51974502 30.76294678 352.78932167 33.01730347 340.03930664 C33.33840711 338.22535631 33.66125545 336.41171394 33.98587036 334.59838867 C34.44903981 332.00660627 34.90516393 329.41367804 35.359375 326.8203125 C35.49981735 326.03967438 35.6402597 325.25903625 35.78495789 324.45474243 C35.91231827 323.71831512 36.03967865 322.98188782 36.17089844 322.22314453 C36.28318787 321.58619659 36.39547729 320.94924866 36.51116943 320.29299927 C36.81582254 317.60721702 36.75 314.8905057 36.75 312.1875 C32.46 310.5375 28.17 308.8875 23.75 307.1875 Z M-83.3125 309.6875 C-84.96958984 310.38359375 -84.96958984 310.38359375 -86.66015625 311.09375 C-87.51480469 311.4546875 -88.36945313 311.815625 -89.25 312.1875 C-88.65742841 320.05372507 -87.59895299 327.76069676 -86.25390625 335.53125 C-86.06030014 336.66276489 -85.86669403 337.79427979 -85.66722107 338.96008301 C-85.26012634 341.33022027 -84.85075966 343.69996834 -84.43920898 346.06933594 C-83.80969837 349.70367461 -83.19262729 353.33998944 -82.57617188 356.9765625 C-82.1778347 359.28658802 -81.77877215 361.59648861 -81.37890625 363.90625 C-81.19550186 364.99369507 -81.01209747 366.08114014 -80.82313538 367.20153809 C-80.64632736 368.20688599 -80.46951935 369.21223389 -80.28735352 370.24804688 C-80.13492691 371.1319812 -79.98250031 372.01591553 -79.82545471 372.92663574 C-79.31745469 375.44633532 -79.31745469 375.44633532 -77.25 378.1875 C-76.25033203 377.26130859 -76.25033203 377.26130859 -75.23046875 376.31640625 C-69.61169317 371.15341945 -63.89352151 366.21271736 -57.953125 361.41796875 C-54.36358799 358.456082 -50.92842693 355.33992309 -47.48828125 352.20703125 C-44.80387852 349.78497853 -42.05118216 347.47267492 -39.25 345.1875 C-43.48723978 340.13056941 -47.91091625 335.37908853 -52.58203125 330.72265625 C-53.25924728 330.04448349 -53.93646332 329.36631073 -54.63420105 328.66758728 C-56.05235102 327.24876167 -57.47174506 325.83117853 -58.89233398 324.41479492 C-61.07718386 322.23535248 -63.25658031 320.05055718 -65.43554688 317.86523438 C-66.81738736 316.4840538 -68.19953754 315.10318298 -69.58203125 313.72265625 C-70.2361348 313.06652847 -70.89023834 312.4104007 -71.56416321 311.73439026 C-76.72512578 306.60048713 -76.72074283 306.9120233 -83.3125 309.6875 Z M-46.25 312.1875 C-41.65819554 317.60719335 -41.65819554 317.60719335 -36.8203125 322.71484375 C-36.253125 323.27880859 -35.6859375 323.84277344 -35.1015625 324.42382812 C-34.53179687 324.98521484 -33.96203125 325.54660156 -33.375 326.125 C-32.78203125 326.71345703 -32.1890625 327.30191406 -31.578125 327.90820312 C-30.13773534 329.33697674 -28.6942033 330.76258132 -27.25 332.1875 C-23.90215892 330.7325489 -21.70622627 328.88944509 -19.140625 326.30859375 C-18.38652344 325.55255859 -17.63242187 324.79652344 -16.85546875 324.01757812 C-16.07816406 323.22802734 -15.30085938 322.43847656 -14.5 321.625 C-13.70722656 320.83158203 -12.91445313 320.03816406 -12.09765625 319.22070312 C-8.34322533 316.12280028 -8.34322533 316.12280028 -6.25 312.1875 C-19.45 312.1875 -32.65 312.1875 -46.25 312.1875 Z M-137.39060974 330.82411194 C-138.27676468 331.18129807 -139.16291962 331.53848419 -140.07592773 331.90649414 C-141.08135117 332.30763931 -142.0867746 332.70878448 -143.12266541 333.12208557 C-144.21527176 333.5677739 -145.30787811 334.01346222 -146.43359375 334.47265625 C-147.55886978 334.9259581 -148.68414581 335.37925995 -149.84352112 335.84629822 C-152.23502128 336.81196136 -154.62494736 337.78153034 -157.01342773 338.75463867 C-160.6368523 340.22938619 -164.26614438 341.68885723 -167.89648438 343.14648438 C-170.22172707 344.08762086 -172.54660825 345.02965112 -174.87109375 345.97265625 C-175.94548203 346.40417496 -177.0198703 346.83569366 -178.1268158 347.2802887 C-189.71767223 352.02531055 -199.34545625 357.31350357 -208.25 366.1875 C-208.88808594 366.80238281 -209.52617187 367.41726563 -210.18359375 368.05078125 C-226.11700146 384.62294472 -226.41543734 407.03484338 -226.34765625 428.54296875 C-226.3457875 430.29844624 -226.34436576 432.05392426 -226.34336853 433.80940247 C-226.33957932 438.39435303 -226.3297804 442.97927111 -226.31866455 447.56420898 C-226.30655787 453.08437682 -226.30203105 458.60455561 -226.29621124 464.12473297 C-226.28656619 472.47901113 -226.26738463 480.83321824 -226.25 489.1875 C-205.13 489.1875 -184.01 489.1875 -162.25 489.1875 C-161.92 479.9475 -161.59 470.7075 -161.25 461.1875 C-158.25 458.1875 -158.25 458.1875 -156.3125 457.7890625 C-155.631875 457.79679687 -154.95125 457.80453125 -154.25 457.8125 C-153.2290625 457.80089844 -153.2290625 457.80089844 -152.1875 457.7890625 C-150.25 458.1875 -150.25 458.1875 -147.25 461.1875 C-146.755 475.0475 -146.755 475.0475 -146.25 489.1875 C-126.12 489.1875 -105.99 489.1875 -85.25 489.1875 C-89.12476251 484.66694373 -93.0079313 480.22459272 -97.0625 475.875 C-101.40768502 471.19138611 -105.70847596 466.47252772 -109.97265625 461.71484375 C-112.54809775 458.85667797 -115.14685764 456.02039739 -117.75 453.1875 C-121.84169207 448.73417383 -125.89822977 444.25090112 -129.9375 439.75 C-132.52615164 436.88149412 -135.13604987 434.03291718 -137.75 431.1875 C-141.29933071 427.31946405 -144.84644232 423.44951434 -148.375 419.5625 C-149.09945312 418.76585937 -149.82390625 417.96921875 -150.5703125 417.1484375 C-153.31876862 413.93977478 -153.57047551 411.55360475 -153.50897217 407.3296814 C-153.08821646 403.84924925 -151.43910269 401.14032521 -149.6015625 398.23828125 C-149.22897308 397.6177739 -148.85638367 396.99726654 -148.47250366 396.35795593 C-147.28959176 394.39486994 -146.08356577 392.44737527 -144.875 390.5 C-143.67861904 388.53923775 -142.48726647 386.57554991 -141.29891968 384.60990906 C-140.56117804 383.39321167 -139.81799085 382.17979378 -139.06851196 380.97029114 C-137.12152226 377.7974201 -135.51559689 374.6901846 -134.25 371.1875 C-135.06005493 370.65793701 -135.06005493 370.65793701 -135.88647461 370.11767578 C-138.32333905 368.52075632 -140.7554473 366.91673702 -143.1875 365.3125 C-144.03763672 364.75691406 -144.88777344 364.20132813 -145.76367188 363.62890625 C-146.57255859 363.09394531 -147.38144531 362.55898438 -148.21484375 362.0078125 C-148.9637085 361.51555176 -149.71257324 361.02329102 -150.48413086 360.51611328 C-152.25 359.1875 -152.25 359.1875 -153.25 357.1875 C-153.80910987 351.50321627 -153.80910987 351.50321627 -153.25 349.1875 C-149.44063686 344.81514077 -144.83406023 341.1488895 -140.4375 337.375 C-139.74462891 336.77751953 -139.05175781 336.18003906 -138.33789062 335.56445312 C-136.64342817 334.10370963 -134.94744286 332.64477785 -133.25 331.1875 C-135.22570027 329.91480702 -135.22570027 329.91480702 -137.39060974 330.82411194 Z M51.75 330.1875 C49.7446452 336.55360784 48.62464421 343.00714388 47.48754883 349.5769043 C47.27107193 350.81020477 47.05459503 352.04350525 46.83155823 353.31417847 C46.24198085 356.67911827 45.65586578 360.04462072 45.07184052 363.41052604 C44.7064911 365.51482988 44.34008224 367.61894644 43.97330284 369.72300148 C42.69319216 377.06668944 41.41712873 384.41106768 40.14477539 391.75610352 C38.95921036 398.59947836 37.76465026 405.44124217 36.56595594 412.28232831 C35.53588621 418.16342554 34.51213723 424.0456003 33.49329585 429.92865306 C32.88519226 433.43933962 32.27452058 436.94953189 31.65744972 440.4586544 C30.97055909 444.36629651 30.29680039 448.27613917 29.62426758 452.1862793 C29.31501343 453.92952736 29.31501343 453.92952736 28.99951172 455.70799255 C28.81866531 456.77197266 28.63781891 457.83595276 28.45149231 458.93217468 C28.29093259 459.85593745 28.13037287 460.77970022 27.9649477 461.7314558 C27.75060783 464.18055482 27.9945964 465.86571165 28.75 468.1875 C31.2732627 465.52312335 33.79314655 462.85557299 36.3125 460.1875 C37.01697266 459.44371094 37.72144531 458.69992187 38.44726562 457.93359375 C42.42961437 453.71267112 46.31982886 449.43367949 50.12182617 445.04980469 C52.56762258 442.25230357 55.09308982 439.53189595 57.625 436.8125 C61.95766956 432.13895228 66.2500409 427.43309657 70.50390625 422.6875 C74.56440647 418.16798671 78.65925568 413.6796326 82.75 409.1875 C81.38948833 404.54518689 79.41428101 400.62869502 76.87109375 396.546875 C76.49896255 395.93861877 76.12683136 395.33036255 75.74342346 394.70367432 C74.56377368 392.77807294 73.37592736 390.85769385 72.1875 388.9375 C70.99736055 387.00193086 69.80890411 385.06533779 68.62086487 383.128479 C67.88349976 381.92773615 67.14457092 380.72795187 66.40391541 379.52923584 C63.46618459 374.76771459 61.57111954 370.91967103 62.75 365.1875 C66.38407763 360.725515 71.46055444 358.03846429 76.265625 354.9921875 C77.08546875 354.39664062 77.9053125 353.80109375 78.75 353.1875 C78.75 352.5275 78.75 351.8675 78.75 351.1875 C77.24212839 349.81258701 75.66460239 348.51385538 74.0625 347.25 C70.74432709 344.60320838 67.44877266 341.9511399 64.23046875 339.18359375 C63.65063232 338.68529053 63.0707959 338.1869873 62.47338867 337.67358398 C61.33937009 336.69571586 60.20794255 335.7148335 59.0793457 334.73071289 C56.63402583 332.63164638 54.8413774 331.21795913 51.75 330.1875 Z M80.75 330.1875 C83.5582488 333.94064193 86.51000261 336.79038693 90.1875 339.6875 C100.29594017 347.67302714 100.29594017 347.67302714 101.37890625 351.28515625 C101.1981562 356.63323125 101.1981562 356.63323125 99.19921875 359.10546875 C95.97701332 361.84460032 92.54180087 364.13432514 89 366.4375 C88.30261719 366.89640625 87.60523438 367.3553125 86.88671875 367.828125 C85.17725789 368.95215406 83.46400488 370.07041224 81.75 371.1875 C83.25355845 375.34877052 85.34383628 378.99391997 87.6640625 382.73828125 C88.43313518 384.00665038 89.20133768 385.27554747 89.96875 386.54492188 C91.16977682 388.52480085 92.37557982 390.50093426 93.59667969 392.46850586 C94.78138962 394.38228648 95.94289787 396.30865068 97.1015625 398.23828125 C97.46714264 398.81564529 97.83272278 399.39300934 98.2093811 399.98786926 C100.97528023 404.65869746 101.1824282 407.92090662 100.75 413.1875 C99.53515625 415.3671875 99.53515625 415.3671875 97.8125 417.0625 C97.16925781 417.72507812 96.52601563 418.38765625 95.86328125 419.0703125 C94.81720703 420.11832031 94.81720703 420.11832031 93.75 421.1875 C92.32577313 422.76403631 90.90945141 424.34774039 89.5 425.9375 C85.63596411 430.22211123 81.74031198 434.47689781 77.83691406 438.72558594 C74.95634952 441.86345143 72.09499119 445.01736695 69.25 448.1875 C65.47462783 452.39434327 61.66019552 456.56424853 57.8359375 460.7265625 C54.22737716 464.65767572 50.65489698 468.61971641 47.09375 472.59375 C45.33338688 474.54188519 43.56341251 476.47823276 41.78125 478.40625 C41.27787109 478.95152344 40.77449219 479.49679687 40.25585938 480.05859375 C39.2695362 481.12551142 38.28132251 482.1906852 37.29101562 483.25390625 C34.72289704 486.0058707 34.72289704 486.0058707 32.75 489.1875 C52.88 489.1875 73.01 489.1875 93.75 489.1875 C94.08 479.9475 94.41 470.7075 94.75 461.1875 C97.75 458.1875 97.75 458.1875 99.6875 457.7890625 C100.368125 457.79679687 101.04875 457.80453125 101.75 457.8125 C102.7709375 457.80089844 102.7709375 457.80089844 103.8125 457.7890625 C105.75 458.1875 105.75 458.1875 108.75 461.1875 C109.245 475.0475 109.245 475.0475 109.75 489.1875 C130.87 489.1875 151.99 489.1875 173.75 489.1875 C173.80831919 475.53711749 173.80831919 475.53711749 173.84765625 461.88671875 C173.85954097 456.30676395 173.87349076 450.72687572 173.90087891 445.14697266 C173.92285542 440.64061257 173.93462002 436.13432403 173.93975449 431.62791443 C173.94340629 429.92181779 173.95053491 428.21572438 173.96146011 426.50965881 C174.10565522 403.02537493 171.47099837 382.41718548 154.6875 364.5 C142.50696882 353.07714024 126.88059502 347.68337826 111.58691406 341.61181641 C107.96238708 340.17256441 104.34411711 338.71839651 100.7265625 337.26171875 C98.42742644 336.34028927 96.12795936 335.41968518 93.828125 334.5 C92.74492981 334.06574707 91.66173462 333.63149414 90.54571533 333.18408203 C89.54997498 332.78946777 88.55423462 332.39485352 87.52832031 331.98828125 C86.65121399 331.63934814 85.77410767 331.29041504 84.87042236 330.9309082 C82.80993287 330.07721664 82.80993287 330.07721664 80.75 330.1875 Z M-105.25 330.1875 C-111.90828104 335.59151568 -118.50260067 341.05750871 -125.00854492 346.64379883 C-129.03468505 350.07984253 -129.03468505 350.07984253 -131.25 351.1875 C-129.8543156 355.37455321 -126.85514371 356.57484932 -123.25 358.75 C-116.37420382 362.93909236 -116.37420382 362.93909236 -115.25 365.1875 C-114.77717558 371.23973271 -115.61061357 374.95528905 -118.86328125 380.13671875 C-119.23349899 380.7572261 -119.60371674 381.37773346 -119.9851532 382.01704407 C-121.16142424 383.98000982 -122.36120354 385.9272716 -123.5625 387.875 C-124.35773016 389.19238863 -125.15136513 390.51074158 -125.94335938 391.83007812 C-127.40213172 394.25438123 -128.86931594 396.67304571 -130.34887695 399.0847168 C-130.97624756 400.10863525 -131.60361816 401.13255371 -132.25 402.1875 C-132.8689917 403.06510986 -133.4879834 403.94271973 -134.12573242 404.84692383 C-135.52843672 407.09881786 -135.52843672 407.09881786 -134.6394043 409.27441406 C-133.20021578 411.25604844 -131.71437118 413.02797363 -130.01953125 414.796875 C-129.38080078 415.46976562 -128.74207031 416.14265625 -128.08398438 416.8359375 C-127.08334961 417.87621094 -127.08334961 417.87621094 -126.0625 418.9375 C-121.56939887 423.64072625 -117.1611743 428.38369253 -112.90014648 433.29882812 C-110.44767914 436.10579474 -107.91473606 438.83466701 -105.375 441.5625 C-100.28089819 447.05795046 -95.24944095 452.60568689 -90.25 458.1875 C-88.56292761 460.06288476 -86.87543573 461.93789225 -85.1875 463.8125 C-83.875 465.27083333 -82.5625 466.72916667 -81.25 468.1875 C-80.11531423 464.74992607 -80.37945164 462.20852387 -80.98945618 458.66401672 C-81.27334702 456.97931274 -81.27334702 456.97931274 -81.56297302 455.26057434 C-81.77849319 454.03287827 -81.99401337 452.80518219 -82.21606445 451.5402832 C-82.43703796 450.24408051 -82.65801147 448.94787781 -82.88568115 447.61239624 C-83.49177324 444.05966619 -84.10826266 440.50881382 -84.72711205 436.95828652 C-85.24235391 433.99626974 -85.75236682 431.03336295 -86.2623288 428.07043332 C-87.46469626 421.0846588 -88.67530025 414.10034691 -89.89135742 407.11694336 C-91.14736711 399.90343286 -92.39098185 392.68786537 -93.62829238 385.4711259 C-94.6901679 379.27971745 -95.75891134 373.08952312 -96.83339471 366.90029019 C-97.47550029 363.20150099 -98.1151239 359.50232715 -98.7484684 355.80202675 C-99.45414141 351.68173073 -100.17417768 347.56407421 -100.89575195 343.4465332 C-101.10519943 342.21276443 -101.31464691 340.97899567 -101.53044128 339.70783997 C-101.72816132 338.59316345 -101.92588135 337.47848694 -102.1295929 336.33003235 C-102.38319061 334.86802635 -102.38319061 334.86802635 -102.64191151 333.37648487 C-102.84258071 332.65411986 -103.04324991 331.93175486 -103.25 331.1875 C-103.91 330.8575 -104.57 330.5275 -105.25 330.1875 Z M-33.875 362.75 C-34.50293457 363.2955957 -35.13086914 363.84119141 -35.77783203 364.40332031 C-37.60596315 365.99345034 -39.42848611 367.58979869 -41.25 369.1875 C-42.14203125 369.96480469 -43.0340625 370.74210937 -43.953125 371.54296875 C-45.72278753 373.08664919 -47.48881869 374.63415997 -49.25 376.1875 C-45.61152476 386.05116757 -45.61152476 386.05116757 -38.25 393.1875 C-30.60698243 395.50800985 -21.85773238 395.70482439 -14.25 393.1875 C-8.91936194 389.45318357 -5.99432194 383.95057607 -3.25 378.1875 C-6.81792205 369.57794897 -17.80774461 362.44001486 -25.25 357.1875 C-28.82803984 357.1875 -31.28638435 360.47342003 -33.875 362.75 Z M7.04174805 390.50415039 C2.58730729 395.04292202 -1.17535891 399.58332833 -1.31195068 406.17889404 C-0.33112928 414.54597569 2.17002051 422.57366506 4.5625 430.625 C5.2453243 433.10827728 5.92182149 435.5933035 6.59179688 438.08007812 C8.23861297 444.13802259 9.9628592 450.16955141 11.75 456.1875 C12.08 456.1875 12.41 456.1875 12.75 456.1875 C14.04008476 448.91153028 15.32084561 441.63396319 16.59521484 434.35522461 C17.0296043 431.88056522 17.466107 429.40627579 17.90478516 426.93237305 C18.53587231 423.3712384 19.15928497 419.80883147 19.78125 416.24609375 C19.97811401 415.14478622 20.17497803 414.0434787 20.37780762 412.90879822 C21.77047562 405.08770934 21.77047562 405.08770934 21.75 397.1875 C19.42955787 394.41428844 19.42955787 394.41428844 16.3125 392.25 C15.30316406 391.47785156 14.29382813 390.70570313 13.25390625 389.91015625 C10.08415297 387.53109071 10.08415297 387.53109071 7.04174805 390.50415039 Z M-68.875 391.875 C-69.89851562 392.55949219 -70.92203125 393.24398438 -71.9765625 393.94921875 C-75.6612526 399.19768626 -74.23230575 404.12597709 -73.25 410.1875 C-73.1159375 411.03623688 -72.981875 411.88497375 -72.84375 412.75942993 C-71.70738238 419.85451671 -70.45386137 426.92717346 -69.1875 434 C-68.8060682 436.15679989 -68.42520414 438.31370026 -68.04492188 440.47070312 C-67.11982481 445.71081212 -66.18772283 450.94963648 -65.25 456.1875 C-61.25341475 448.6651376 -59.55783215 439.95620814 -57.36791992 431.7746582 C-56.75098927 429.52045738 -56.10762988 427.27331272 -55.43725586 425.03442383 C-50.87148946 411.58629924 -50.87148946 411.58629924 -53.34619141 398.26806641 C-55.90056963 394.42773997 -58.81259575 391.253141 -62.25 388.1875 C-64.61407804 388.1875 -67.07492164 390.60583083 -68.875 391.875 Z M-35.25 409.1875 C-38.11718052 417.27074138 -40.19306108 425.52173456 -42.26171875 433.8359375 C-42.63836941 435.34051581 -43.01522949 436.84504172 -43.39228821 438.34951782 C-44.17698548 441.48390921 -44.9591553 444.61891727 -45.73950195 447.75439453 C-46.74007431 451.77386817 -47.74703667 455.79170919 -48.75586224 459.80911827 C-49.53306014 462.90708318 -50.30690189 466.00587876 -51.07972145 469.10493851 C-51.44988195 470.5875807 -51.82109 472.06996177 -52.1933651 473.55207443 C-52.71134844 475.61640192 -53.22480361 477.68180381 -53.73706055 479.74755859 C-54.03001511 480.92176361 -54.32296967 482.09596863 -54.62480164 483.30575562 C-55.35600954 486.18466886 -55.35600954 486.18466886 -55.25 489.1875 C-36.11 489.1875 -16.97 489.1875 2.75 489.1875 C1.06054051 479.88459361 1.06054051 479.88459361 -1.02172852 470.71240234 C-1.18622498 470.04915955 -1.35072144 469.38591675 -1.52020264 468.70257568 C-2.05294344 466.55864118 -2.5907062 464.41600746 -3.12890625 462.2734375 C-3.50500206 460.76702929 -3.88088845 459.26056878 -4.25657654 457.75405884 C-5.03847305 454.62208258 -5.82288123 451.49074947 -6.60913086 448.35986328 C-7.61829173 444.34045289 -8.62101489 440.31946805 -9.62191868 436.29799461 C-10.39400906 433.19882735 -11.16943929 430.10050346 -11.94590569 427.00242996 C-12.31734857 425.51866196 -12.68773996 424.03463032 -13.05706978 422.55033493 C-13.57053366 420.48890281 -14.08847434 418.42864815 -14.60766602 416.36865234 C-14.90141617 415.19603851 -15.19516632 414.02342468 -15.49781799 412.8152771 C-15.99273927 410.28302211 -15.99273927 410.28302211 -17.25 409.1875 C-18.59267413 409.10118126 -19.93974322 409.08043527 -21.28515625 409.08984375 C-22.09404297 409.09306641 -22.90292969 409.09628906 -23.73632812 409.09960938 C-25.0115332 409.11217773 -25.0115332 409.11217773 -26.3125 409.125 C-27.16650391 409.12951172 -28.02050781 409.13402344 -28.90039062 409.13867188 C-31.01695663 409.15049627 -33.13348685 409.16843231 -35.25 409.1875 Z " fill="#FFAD8C" transform="translate(282.25,6.8125)"/>
<path d="M0 0 C1.82946533 1.01636963 3.65338627 2.04270408 5.4765625 3.0703125 C8.75228956 2.99041672 10.51151176 2.05172247 13.4140625 0.5078125 C19.87252163 -2.32657677 27.95628396 -2.14357665 34.53515625 0.125 C37.95065478 1.80052758 40.77973744 3.37348744 43.4765625 6.0703125 C45.93337778 6.37577577 45.93337778 6.37577577 48.78125 6.34375 C49.83957031 6.364375 50.89789063 6.385 51.98828125 6.40625 C54.22257992 6.43220004 56.45698134 6.45048405 58.69140625 6.4609375 C59.75230469 6.48414063 60.81320312 6.50734375 61.90625 6.53125 C63.36393799 6.54357666 63.36393799 6.54357666 64.85107422 6.55615234 C68.2199219 7.21588763 69.40086728 8.37876483 71.4765625 11.0703125 C72.43361793 16.4344076 71.728481 19.20097825 68.73046875 23.7265625 C67.52282747 25.35829018 66.29122241 26.97249266 65.0390625 28.5703125 C64.39888184 29.40892822 63.75870117 30.24754395 63.09912109 31.11157227 C54.62385898 42.01245397 46.29307405 49.67420907 32.33984375 51.81640625 C24.65759313 52.49764266 18.28621009 51.50117413 11.44921875 47.91015625 C9.22050497 46.80916632 9.22050497 46.80916632 5.4765625 47.0703125 C3.45826952 47.89811166 3.45826952 47.89811166 1.4140625 49.0078125 C-8.00605078 53.34013956 -17.96691402 52.60774289 -27.640625 49.359375 C-37.56929024 45.01309182 -44.32404662 36.45701237 -50.6484375 28.0078125 C-51.51988403 26.87448486 -51.51988403 26.87448486 -52.40893555 25.71826172 C-54.99125414 22.14381982 -56.89795453 19.24282606 -57.140625 14.76171875 C-56.4410794 10.57772768 -55.79203088 9.62654244 -52.5234375 7.0703125 C-50.0090332 6.61962891 -50.0090332 6.61962891 -47.19921875 6.671875 C-46.16990234 6.66671875 -45.14058594 6.6615625 -44.08007812 6.65625 C-41.93673697 6.68205784 -39.79347471 6.71576548 -37.65039062 6.7578125 C-30.81882069 6.70679891 -26.77509901 5.70320122 -21.35229492 1.45849609 C-16.0005587 -2.60370817 -6.06760265 -2.23543255 0 0 Z M-16.8359375 19.0078125 C-21.08033354 23.20285509 -25.79760686 23.04960425 -31.5234375 23.0703125 C-27.54913201 29.52855893 -23.81433059 32.60622949 -16.4765625 34.63671875 C-11.37332073 35.57626908 -7.87860082 34.80296399 -3.5234375 32.0703125 C-1.14632141 28.25251999 -0.2932499 26.267288 -1.1484375 21.8203125 C-2.73141942 18.37307467 -2.73141942 18.37307467 -5.5234375 16.0703125 C-10.6787304 15.29701856 -13.11545172 15.2783617 -16.8359375 19.0078125 Z M18.0390625 17.7578125 C16.23003584 20.43517195 15.55193147 21.8294467 15.4765625 25.0703125 C16.73067645 29.61647558 17.6319973 31.54038924 21.6640625 34.0703125 C28.34623984 35.82301475 33.67302186 34.57071876 39.64453125 31.390625 C42.77176585 29.13688237 44.46890451 26.33275673 46.4765625 23.0703125 C45.76371094 23.06773437 45.05085938 23.06515625 44.31640625 23.0625 C37.803596 22.79953323 34.75088594 21.96251618 30.1640625 17.38671875 C28.11598898 15.78903177 26.86594292 15.55426149 24.2890625 15.4453125 C20.51837331 15.78373315 20.51837331 15.78373315 18.0390625 17.7578125 Z " fill="#FFA29C" transform="translate(248.5234375,216.9296875)"/>
</svg>
