<?xml version="1.0" encoding="UTF-8"?>
<svg version="1.1" xmlns="http://www.w3.org/2000/svg" width="512" height="512">
<path d="M0 0 C1.216875 -0.01417969 2.43375 -0.02835937 3.6875 -0.04296875 C6.80829877 0.1741623 8.44216444 0.46633962 11 2.1875 C14.17952406 6.16190508 14.27716504 9.19852929 14 14.1875 C14 15.1775 14 16.1675 14 17.1875 C14.71285156 16.91035156 15.42570313 16.63320313 16.16015625 16.34765625 C25.75321836 12.71959373 34.71326136 11.36734111 45 12.1875 C45.99 12.8475 46.98 13.5075 48 14.1875 C48.63059543 18.91696574 47.5150197 21.26859364 45 25.1875 C45.7528125 25.043125 46.505625 24.89875 47.28125 24.75 C60.79085393 22.38909834 79.37312216 20.37568727 91.625 28.125 C92.800625 29.1459375 92.800625 29.1459375 94 30.1875 C95.11375 31.0228125 95.11375 31.0228125 96.25 31.875 C99.28276403 35.88258104 100.2296943 40.2725699 99.8359375 45.26953125 C97.98898765 52.25761761 91.75775359 55.49351953 86 59.1875 C85.01 59.8475 84.02 60.5075 83 61.1875 C83.01316362 63.08867113 83.01316362 63.08867113 84 65.1875 C86.13842065 66.58801493 88.07963868 67.67809262 90.375 68.75 C91.01566406 69.05446045 91.65632812 69.3589209 92.31640625 69.67260742 C104.78164093 75.44026653 117.449258 76.18872227 131 77.1875 C132.07421875 79.4921875 132.07421875 79.4921875 133 82.1875 C130.36595738 89.11919111 122.75735184 97.80882408 116 101.1875 C117.16015625 101.65929687 117.16015625 101.65929687 118.34375 102.140625 C121.57237424 103.46723793 124.78843844 104.82012348 128 106.1875 C128.79277344 106.52136719 129.58554687 106.85523437 130.40234375 107.19921875 C135.24346824 109.40141933 138.14590614 111.63878792 141 116.1875 C141.74696928 121.41628494 140.76883454 124.73758735 138 129.1875 C135.8125 131.5625 135.8125 131.5625 134 133.1875 C134.7425 134.0125 135.485 134.8375 136.25 135.6875 C142.7984685 143.64583708 145.538234 152.94560837 144.875 163.25 C143.37788075 174.10841662 138.15528845 182.88503009 129.875 189.9375 C124.67566695 193.80821302 117.6105446 197.1875 111 197.1875 C110.90847656 197.8990625 110.81695312 198.610625 110.72265625 199.34375 C108.98467798 206.18292937 103.59474463 212.57124507 97.6875 216.3125 C93.04509843 218.89265827 89.30615656 219.28761616 84 219.1875 C83.87625 219.868125 83.7525 220.54875 83.625 221.25 C79.65161293 239.92491923 68.50704113 257.9346029 53 269.1875 C54.42991299 283.74926695 61.95401486 295.39240583 72.96484375 304.69140625 C82.56325623 312.26704166 93.25195296 317.95153659 103.9375 323.82421875 C115.23040964 330.04551502 126.3235515 336.59718348 136 345.1875 C136.84046875 345.92226563 137.6809375 346.65703125 138.546875 347.4140625 C157.48297729 365.03037584 160.53232493 389.54319562 161.59098816 414.1829834 C161.80633197 420.17256134 161.97935438 426.16248385 162.13311768 432.15386963 C162.20506214 434.84423712 162.28897688 437.5341715 162.37307549 440.22418213 C162.62148102 448.20179709 162.81668093 456.17974101 162.96282196 464.15997314 C162.98796575 465.53120505 163.01399606 466.90242094 163.04084015 468.27362061 C163.13371906 473.07822258 163.19326017 477.88220511 163.23828125 482.6875 C163.26037155 483.92765869 163.28246185 485.16781738 163.30522156 486.44555664 C163.34219625 494.43181387 162.90023338 500.56220828 157.75 507 C152.21789087 511.40054135 147.21782889 512.63743795 140.25732422 512.54394531 C139.51038079 512.54596419 138.76343737 512.54798307 137.99385929 512.55006313 C135.51389056 512.55300956 133.03457923 512.53444027 130.5546875 512.515625 C128.77861165 512.51293226 127.00253355 512.51148231 125.22645569 512.51118469 C120.43762589 512.50626997 115.64907321 512.48205444 110.86033249 512.45360184 C106.87147584 512.43208734 102.88261928 512.42133131 98.89372158 512.41050434 C71.24076581 512.33365587 43.58840191 512.08992297 15.9375 511.75 C15.12501549 511.74027664 14.31253098 511.73055328 13.47542572 511.72053528 C8.79356444 511.66430912 4.11181159 511.60329177 -0.56988716 511.53481102 C-2.6200419 511.50537936 -4.67024263 511.47920452 -6.72044373 511.45320129 C-15.83873925 511.30859058 -24.90558525 510.8247933 -34 510.1875 C-34.33 510.8475 -34.66 511.5075 -35 512.1875 C-35.33 511.8575 -35.66 511.5275 -36 511.1875 C-37.33240825 511.07245324 -38.67071685 511.02468261 -40.00793457 511.004776 C-40.87137482 510.98946335 -41.73481506 510.9741507 -42.62442017 510.95837402 C-43.57916229 510.94640991 -44.53390442 510.9344458 -45.51757812 510.92211914 C-46.51763885 510.90567856 -47.51769958 510.88923798 -48.54806519 510.87229919 C-50.72901677 510.83694324 -52.91000471 510.80378031 -55.09101868 510.77250862 C-58.54658203 510.72243407 -62.00197257 510.66561469 -65.45739746 510.60679626 C-75.28557421 510.44058413 -85.11390845 510.28546513 -94.94238281 510.13793945 C-100.94777277 510.04732401 -106.95296033 509.947709 -112.95811462 509.84267998 C-115.24489335 509.80453065 -117.53173298 509.76986243 -119.81861877 509.7387867 C-123.02836691 509.69502659 -126.23773976 509.63985529 -129.44726562 509.58227539 C-130.3858139 509.57233551 -131.32436218 509.56239563 -132.29135132 509.55215454 C-141.32686519 509.36723754 -149.971691 508.31238801 -157 502.1875 C-169.00427701 486.93640861 -162.64275784 461.35721205 -160.65625 443.52758789 C-160.25168967 439.89019176 -159.86655855 436.25113647 -159.484375 432.61132812 C-158.21336827 420.7234353 -156.75236926 408.87655732 -154.96484375 397.0546875 C-154.80924988 396.0138652 -154.65365601 394.97304291 -154.49334717 393.90068054 C-150.57802574 368.89469722 -141.39370432 347.43715873 -121.3125 331.4375 C-114.29916019 326.44450047 -106.76111884 322.82964413 -99 319.1875 C-94.70142694 317.16885028 -90.40704597 315.14204032 -86.11886597 313.10140991 C-84.23927696 312.21200052 -82.35356744 311.33673273 -80.46704102 310.4621582 C-71.84412122 306.37424253 -63.53901198 301.85009517 -56.82104492 294.94921875 C-55 293.1875 -55 293.1875 -53 293.1875 C-52.7215625 292.60742188 -52.443125 292.02734375 -52.15625 291.4296875 C-51.05116628 289.2867211 -49.82526537 287.32464071 -48.5 285.3125 C-46.421237 281.97666792 -44.85362604 279.06761835 -44 275.1875 C-43.835 274.45917969 -43.67 273.73085938 -43.5 272.98046875 C-43.12837861 270.03072394 -43.17789122 268.06072868 -44 265.1875 C-46.03988645 262.69350456 -48.20745486 260.53134381 -50.58349609 258.36010742 C-60.36615475 249.41484434 -66.02647081 236.66773957 -70 224.1875 C-70.99 224.5175 -71.98 224.8475 -73 225.1875 C-82.92018556 225.90533075 -90.15795035 225.77691054 -98.11328125 219.52734375 C-104.0646984 214.22873287 -107.40554043 207.91412722 -108.234375 199.9296875 C-108.25 198 -108.25 198 -108 195.1875 C-108.67804688 195.02894531 -109.35609375 194.87039062 -110.0546875 194.70703125 C-120.71147854 192.03545344 -130.40964699 188.18046087 -137.25 179.25 C-141.56104313 171.70567452 -142.17626011 164.11369596 -140.48828125 155.609375 C-137.20803051 145.68861665 -128.68019263 137.59021577 -120 132.1875 C-120.60328125 132.01734375 -121.2065625 131.8471875 -121.828125 131.671875 C-126.49427813 130.25697695 -129.90985252 129.17894049 -133 125.1875 C-134.42662219 122.33425563 -134.31033868 120.35295451 -134 117.1875 C-131.32837233 113.19879033 -128.65870905 111.12654135 -124.4296875 108.92578125 C-123.36878906 108.36439453 -122.30789062 107.80300781 -121.21484375 107.22460938 C-120.11269531 106.65548828 -119.01054687 106.08636719 -117.875 105.5 C-115.6833271 104.35325361 -113.49314454 103.20365295 -111.3046875 102.05078125 C-109.8503833 101.29728394 -109.8503833 101.29728394 -108.36669922 100.52856445 C-105.91044642 99.27568383 -105.91044642 99.27568383 -104 97.1875 C-104.886875 96.630625 -105.77375 96.07375 -106.6875 95.5 C-113.55333886 90.91200415 -118.60191536 84.8187251 -121.6875 77.1875 C-122.10386719 76.176875 -122.52023438 75.16625 -122.94921875 74.125 C-124.54047529 69.67658023 -125.12685595 65.62909692 -125.1328125 60.9140625 C-125.13410156 59.9240625 -125.13539063 58.9340625 -125.13671875 57.9140625 C-125.13285156 56.89054687 -125.12898438 55.86703125 -125.125 54.8125 C-125.13080078 53.28882812 -125.13080078 53.28882812 -125.13671875 51.734375 C-125.11823959 37.50542524 -125.11823959 37.50542524 -122.25 34.125 C-120 33.1875 -120 33.1875 -117.58203125 33.87109375 C-114.68864933 35.34623703 -113.42120806 36.76518809 -111.4375 39.3125 C-101.10217239 51.32852575 -87.0742944 56.02494155 -72 59.1875 C-72.56589844 57.99511719 -73.13179688 56.80273438 -73.71484375 55.57421875 C-74.45581836 54.00785469 -75.19669888 52.44144612 -75.9375 50.875 C-76.31068359 50.08931641 -76.68386719 49.30363281 -77.06835938 48.49414062 C-77.42607422 47.73681641 -77.78378906 46.97949219 -78.15234375 46.19921875 C-78.48226318 45.50272217 -78.81218262 44.80622559 -79.15209961 44.08862305 C-81.35671723 39.14553135 -81.61253095 34.52526975 -81 29.1875 C-78.92436682 25.78346158 -77.51003267 25.33184887 -73.6875 24.25 C-68.4161687 24.1606554 -64.94909514 25.37381568 -61.14453125 28.9140625 C-59.96211391 30.13933932 -58.80352525 31.38828528 -57.67578125 32.6640625 C-55.66427696 34.49270277 -54.74583698 35.2180659 -52 35.1875 C-47.94957499 31.93213524 -45.75190231 28.28408556 -43.4375 23.6875 C-38.3530757 13.63607458 -32.06080314 7.67559254 -21.30859375 3.88671875 C-17.88617145 2.90531507 -14.46408413 2.00828936 -11 1.1875 C-10.02353516 0.89552734 -10.02353516 0.89552734 -9.02734375 0.59765625 C-6.01228715 -0.0123263 -3.07209181 0.01627167 0 0 Z " fill="#040404" transform="translate(257,-0.1875)"/>
<path d="M0 0 C0.95583984 -0.01224609 1.91167969 -0.02449219 2.89648438 -0.03710938 C20.72292387 -0.07356426 36.78782254 7.43201406 49.5 19.8125 C66.03179311 36.62395638 72.44394681 58.40921616 72.41259766 81.45654297 C72.38778893 84.08336858 72.34742834 86.71009935 72.29052734 89.33642578 C72.26812988 90.55056152 72.24573242 91.76469727 72.22265625 93.015625 C72.19308838 94.1077832 72.16352051 95.19994141 72.13305664 96.32519531 C72.31222435 99.18310311 72.82629791 100.77483901 74.3125 103.1875 C78.08171101 102.60504643 80.81872528 101.49980198 84.125 99.625 C88.94620198 97.16417816 91.93859752 96.27666907 97.3125 97.1875 C100.00355198 99.36324416 101.76782928 101.09815856 103.3125 104.1875 C104.08104355 111.56551809 101.78671803 117.78867858 97.44140625 123.7578125 C94.04058152 127.75651379 91.45884307 130.67478704 86.3125 132.1875 C83.63671875 132.3828125 83.63671875 132.3828125 81 132.3125 C80.11699219 132.29445312 79.23398437 132.27640625 78.32421875 132.2578125 C77.66035156 132.23460937 76.99648438 132.21140625 76.3125 132.1875 C76.04824219 133.15171875 75.78398437 134.1159375 75.51171875 135.109375 C68.89995431 158.17232193 58.51057818 176.4643584 37.3125 188.8125 C20.84949435 197.35659154 1.94993558 198.93603638 -15.80859375 193.56640625 C-34.18872032 187.35646663 -49.004463 174.16259642 -58.0625 157 C-60.99730672 150.54342522 -62.88352818 143.88125237 -64.2578125 136.9375 C-64.53133855 135.17096216 -64.53133855 135.17096216 -65.6875 134.1875 C-69.30492026 133.63940602 -71.40940669 134.46577183 -74.5 136.1875 C-78.66360106 138.36694596 -82.04089402 139.23208584 -86.6875 138.1875 C-92.70217224 135.50943426 -96.67482481 131.70968158 -99.9375 126 C-101.42564391 120.41946034 -101.53863494 115.23796144 -99.3125 109.875 C-91.33768932 101.71031288 -82.3157459 101.48444141 -71.4921875 101.23046875 C-70.23664063 101.21628906 -68.98109375 101.20210938 -67.6875 101.1875 C-66.65980354 97.71938229 -66.89219254 95.04931492 -67.40332031 91.46728516 C-70.27586613 68.42275518 -65.04916989 45.26486141 -50.75 26.75 C-49.41839979 25.20936952 -48.06434121 23.68783651 -46.6875 22.1875 C-46.01203125 21.42050781 -45.3365625 20.65351562 -44.640625 19.86328125 C-32.61232909 6.93505809 -17.41160539 0.011508 0 0 Z " fill="#FCD8C2" transform="translate(258.6875,78.8125)"/>
<path d="M0 0 C1 1 1 1 1.28125 3.234375 C0.92181394 6.76882962 -0.40428904 8.40582083 -2.5 11.25 C-6.08543293 16.56682911 -6.72467805 19.68494838 -6 26 C-3.76228439 26.84573606 -3.76228439 26.84573606 -1 27 C1.7217032 25.51472447 1.7217032 25.51472447 4.3125 23.3125 C12.97538349 16.64068248 20.91053499 12.61760465 32 13 C30.97076815 16.51654217 29.7638198 19.48360094 27.8125 22.5625 C25.71590532 25.78928996 25.71590532 25.78928996 26.25 28.9375 C26.4975 29.618125 26.745 30.29875 27 31 C31.65622204 30.52243877 35.23447474 29.1034917 39.36328125 27.03515625 C46.36106061 24.28787991 53.34902115 23.63756012 60.8125 23.6875 C61.68326172 23.69241455 62.55402344 23.6973291 63.45117188 23.70239258 C71.40839699 23.84638468 79.50763751 24.0508939 85.8125 29.375 C87 32 87 32 87.25 34.4375 C84.97844317 39.09419151 80.16526254 41.58487523 75.9140625 44.36328125 C73.00583522 46.47026224 71.27250166 47.84881951 70.42578125 51.42578125 C70.2498141 55.52156847 70.38457448 58.00620176 72.58203125 61.5546875 C75.51183734 64.51762549 78.66208249 66.28226729 82.375 68.0625 C83.07963379 68.40611572 83.78426758 68.74973145 84.51025391 69.10375977 C94.22142754 73.69364504 104.22699811 76.5035483 115 77 C111.9075816 84.86511037 102.26199183 90.28831529 95 94 C95 95.98 95 97.96 95 100 C95.969375 100.06316406 96.93875 100.12632813 97.9375 100.19140625 C105.74396444 100.84824498 112.70553736 102.22735795 119.9375 105.3125 C120.97487305 105.73801147 120.97487305 105.73801147 122.03320312 106.17211914 C123.96484375 107.05078125 123.96484375 107.05078125 127 109 C127.94140625 111.73046875 127.94140625 111.73046875 128 114 C124.92307254 116.6815279 122.80265337 117.42087807 118.75 117.6875 C117.85796875 117.75324219 116.9659375 117.81898437 116.046875 117.88671875 C115.03367187 117.94279297 115.03367187 117.94279297 114 118 C113.65508834 120.36050709 113.65508834 120.36050709 114 123 C115.75162426 124.84327805 115.75162426 124.84327805 118.125 126.3125 C124.7779734 131.13485965 129.57372743 137.04721769 132 145 C133.01754328 154.28508244 131.35409203 162.88227196 125.58203125 170.36328125 C121.02387973 175.0789985 115.67401714 178.65774271 109 179 C108.84144531 178.34773437 108.68289063 177.69546875 108.51953125 177.0234375 C106.81450431 170.6366515 105.05305949 165.50944747 99.1640625 161.86328125 C96.58794072 160.83562256 94.58355895 160.69949593 91.8125 160.6875 C90.93207031 160.67074219 90.05164063 160.65398437 89.14453125 160.63671875 C84.86630543 161.13097341 81.03063369 162.52594924 77 164 C77.02094727 163.34217529 77.04189453 162.68435059 77.06347656 162.0065918 C77.86830944 132.71933476 72.79522726 107.30657314 52.25 85.15625 C34.61013986 68.25138403 15.58343473 63.42298984 -8.08984375 63.7265625 C-26.5482993 64.31217708 -42.67280134 75.0587876 -55.125 88.125 C-70.25540881 106.01484812 -77.66404733 128.5594339 -77.1875 151.8125 C-77.17396484 153.08931641 -77.16042969 154.36613281 -77.14648438 155.68164062 C-77.11157893 158.78822548 -77.06255244 161.89387016 -77 165 C-77.99 165.10957031 -78.98 165.21914062 -80 165.33203125 C-90.12802148 166.51835769 -98.37426062 167.72894617 -106 175 C-107.01860386 176.31917549 -108.02261332 177.65000257 -109 179 C-119.54969971 176.71356318 -128.63053698 173.04052816 -135 164 C-137.33944574 159.32110851 -136.6634623 153.2104622 -135.19921875 148.33203125 C-129.84861207 136.47243913 -118.95416262 130.85884089 -108 125 C-107.81742076 122.59403131 -107.81742076 122.59403131 -108 120 C-111.92460528 115.96326314 -115.205196 115.77017871 -120.75 115.5 C-121.87921875 115.4896875 -123.0084375 115.479375 -124.171875 115.46875 C-125.10515625 115.3140625 -126.0384375 115.159375 -127 115 C-128.17675781 112.97070312 -128.17675781 112.97070312 -129 111 C-128.20416504 110.57702637 -127.40833008 110.15405273 -126.58837891 109.71826172 C-123.58660189 108.12123787 -120.58611627 106.52183573 -117.58642578 104.92089844 C-116.29720819 104.2334441 -115.00750831 103.54689333 -113.71728516 102.86132812 C-109.46346482 100.60055648 -105.22910738 98.30667702 -101 96 C-99.96198242 95.45375977 -98.92396484 94.90751953 -97.85449219 94.34472656 C-96.94086914 93.84166992 -96.02724609 93.33861328 -95.0859375 92.8203125 C-93.89170166 92.17860107 -93.89170166 92.17860107 -92.67333984 91.52392578 C-90.70455237 90.07380842 -90.70455237 90.07380842 -90.74462891 87.32373047 C-90.8710376 86.17348389 -90.8710376 86.17348389 -91 85 C-91.79664063 84.82984375 -92.59328125 84.6596875 -93.4140625 84.484375 C-104.47633216 81.95431819 -110.01898775 77.64134967 -116.6875 68.75 C-121.20215165 59.29072987 -121.37390271 50.26155208 -121 40 C-117.3071043 41.6640277 -114.21302168 43.94441324 -110.9375 46.3125 C-96.47224465 56.44912192 -81.56101356 59.73058146 -64 59 C-63.53522179 53.7298878 -64.76786219 51.15687789 -67.6875 46.8125 C-77 32.49018928 -77 32.49018928 -77 25 C-72.9223453 25.12356529 -71.15035366 26.61940633 -68.4375 29.4375 C-67.60025391 30.36369141 -67.60025391 30.36369141 -66.74609375 31.30859375 C-63.83804932 34.12555849 -61.65168604 34.9396587 -57.625 35.3125 C-52.33601168 34.85655273 -49.35329108 33.3185913 -45.5625 29.625 C-43.10430586 26.49924516 -41.43108179 23.0317145 -39.625 19.5 C-34.20022756 9.27773073 -27.83158044 5.74721777 -17 2 C-11.26876 0.26625498 -5.97815357 -0.32025823 0 0 Z " fill="#FCFCFC" transform="translate(261,8)"/>
<path d="M0 0 C0.99 0.495 0.99 0.495 2 1 C1.60208252 1.57854736 1.20416504 2.15709473 0.79418945 2.75317383 C-1.04194487 5.43363659 -2.86471837 8.12294109 -4.6875 10.8125 C-5.62625977 12.17665039 -5.62625977 12.17665039 -6.58398438 13.56835938 C-13.16228894 23.31527137 -19.22458647 32.87032051 -17 45 C-12.77414693 56.36211857 -2.6323087 62.58066626 7.84765625 67.578125 C10 69 10 69 11.0078125 70.88671875 C10.99652641 73.93960578 9.70075357 75.19926306 7.8125 77.5625 C-0.7396536 89.4157849 -1.70037652 101.71821776 0 116 C1.56466043 124.22674298 4.18781559 132.12668636 7 140 C7.3206543 140.90057129 7.64130859 141.80114258 7.97167969 142.72900391 C12.50655431 155.19875344 17.73495922 168.66513422 25.76171875 179.34375 C27 181 27 181 27 183 C10.17 183 -6.66 183 -24 183 C-24 156.93 -24 130.86 -24 104 C-25.32 103.67 -26.64 103.34 -28 103 C-30.67874018 105.67874018 -30.26687878 107.02650317 -30.30297852 110.7722168 C-30.31962051 111.98495773 -30.33626251 113.19769867 -30.35340881 114.44718933 C-30.36198291 115.78119866 -30.37048 117.11520848 -30.37890625 118.44921875 C-30.39509798 119.82291324 -30.41227971 121.19659638 -30.43040466 122.57026672 C-30.4762012 126.20259235 -30.51090139 129.83493429 -30.54260254 133.46740723 C-30.59428663 139.23414636 -30.66082489 145.00071017 -30.73081779 150.76725197 C-30.75318873 152.76029447 -30.76946424 154.7534025 -30.78553772 156.74650574 C-30.88009222 165.53421499 -31.33020305 174.24020003 -32 183 C-35.94691631 183.07182884 -39.89339083 183.12902194 -43.84082031 183.16479492 C-45.83152905 183.18701479 -47.82203968 183.22516595 -49.8125 183.26367188 C-58.5890766 183.33016109 -66.76678585 183.17491061 -74 177.75 C-82.33320508 166.29184301 -77.46296071 147.99581343 -75.91796875 134.953125 C-75.23680449 129.17685204 -74.624519 123.39724373 -74.05078125 117.609375 C-66.78098111 44.52625485 -66.78098111 44.52625485 -42.4375 22.625 C-33.56862446 15.64153576 -23.0833185 10.95828818 -13 6 C-11.86908936 5.43877441 -11.86908936 5.43877441 -10.71533203 4.86621094 C-3.06285014 1.08889418 -3.06285014 1.08889418 0 0 Z " fill="#EDEFF7" transform="translate(180,318)"/>
<path d="M0 0 C21.85686194 8.31991349 46.93674654 23.78393538 58 45 C70.89119422 73.75727942 67.09024467 111.47963189 67.23117065 142.43014526 C67.24370135 144.84743293 67.26120084 147.26470005 67.28372192 149.68191528 C67.3136307 153.11228961 67.32350935 156.54216606 67.328125 159.97265625 C67.34042648 161.01103638 67.35272797 162.0494165 67.36540222 163.1192627 C67.33734497 172.27845115 67.33734497 172.27845115 64 176 C59.93722711 179.32523866 56.12320377 179.40186627 51.07421875 179.29296875 C50.32662796 179.28872391 49.57903717 179.28447906 48.80879211 179.28010559 C46.43465268 179.26339056 44.06138033 179.22575347 41.6875 179.1875 C40.07227794 179.17244381 38.45704249 179.15875703 36.84179688 179.14648438 C32.89420012 179.1135108 28.94724678 179.06177969 25 179 C24.15490135 169.73795224 23.80778414 160.5490784 23.8125 151.25 C23.8117749 150.58678741 23.8110498 149.92357483 23.81030273 149.24026489 C23.81167482 137.75982018 24.47367313 126.3941324 25.5625 114.96484375 C25.91206954 111.29368085 26.09961447 107.69196146 26 104 C24.35 103.67 22.7 103.34 21 103 C18.09639934 108.05288513 18.25292499 113.41848789 17.875 119.125 C17.74762451 120.97871216 17.74762451 120.97871216 17.61767578 122.86987305 C16.46377788 141.21787004 16.88032794 159.63033874 17 178 C-1.15 178 -19.3 178 -38 178 C-34.32399714 168.80999284 -28.99352622 160.43558159 -23.5625 152.1875 C-12.04054848 134.50119202 -1.92206449 115.76939841 -5 94 C-6.98241842 86.2402479 -10.49028404 79.5713004 -15 73 C-14.3709375 72.52691406 -13.741875 72.05382812 -13.09375 71.56640625 C-2.24976704 63.18844954 4.6323357 55.10299291 9 42 C9.84670816 25.97767635 7.11219499 14.47757491 0 0 Z " fill="#EEF0F8" transform="translate(344,325)"/>
<path d="M0 0 C7.28509572 4.58239633 11.94968886 10.58946315 14.80078125 18.76171875 C14.9296875 21.56640625 14.9296875 21.56640625 14.80078125 23.76171875 C17.11078125 23.43171875 19.42078125 23.10171875 21.80078125 22.76171875 C22.043125 22.10945313 22.28546875 21.4571875 22.53515625 20.78515625 C26.56294413 10.28192478 31.96214222 2.3774741 42.30078125 -2.67578125 C49.05052953 -5.3571881 54.76524886 -4.76367596 61.50390625 -2.27734375 C72.55363859 2.72134469 79.30318355 10.61627743 83.80078125 21.76171875 C86.34243553 32.10871133 85.02952298 40.50947297 79.78125 49.6875 C74.96137448 57.1692397 68.20533273 60.9958141 59.80078125 63.76171875 C56.6876105 64.25514614 53.91831668 64.17030059 50.80078125 63.76171875 C49.70830078 63.63603516 49.70830078 63.63603516 48.59375 63.5078125 C40.67348961 62.19008091 33.48051952 58.30149382 28.42578125 52.01171875 C24.35082428 45.96874278 21.01857951 39.19263526 21.80078125 31.76171875 C19.82078125 31.76171875 17.84078125 31.76171875 15.80078125 31.76171875 C15.75953125 32.99921875 15.71828125 34.23671875 15.67578125 35.51171875 C14.70163236 43.85780523 10.95658655 51.47980542 4.42578125 56.82421875 C-3.3442125 62.1913909 -12.71611038 64.99261581 -22.19921875 63.76171875 C-31.41754967 60.93648598 -39.43597408 55.18760989 -44.19921875 46.76171875 C-47.98830991 39.31419474 -49.10188614 30.78825419 -46.54589844 22.69238281 C-42.02024014 11.09102151 -35.67473702 3.04802983 -24.19921875 -2.23828125 C-14.65482237 -5.76922587 -8.95821681 -4.88319569 0 0 Z " fill="#080706" transform="translate(244.19921875,151.23828125)"/>
<path d="M0 0 C3.78482084 17.55664089 6.53075864 35.27390023 9.31555176 53.00933838 C9.93995045 56.98063291 10.56874545 60.95123104 11.19726562 64.921875 C11.90364006 69.38538978 12.60962433 73.8489621 13.31217957 78.31307983 C13.41841141 78.98775803 13.52464325 79.66243622 13.63409424 80.3575592 C13.91929498 82.16952226 14.20418932 83.98153353 14.48905945 85.79354858 C14.83348733 87.95503537 15.19012268 90.11460781 15.55815125 92.27220154 C15.96101897 94.75934662 16.12896106 97.05950383 16.1328125 99.57421875 C16.13474609 100.82428711 16.13474609 100.82428711 16.13671875 102.09960938 C16.13285156 102.95361328 16.12898438 103.80761719 16.125 104.6875 C16.13080078 105.93950195 16.13080078 105.93950195 16.13671875 107.21679688 C16.12694624 113.5835878 15.58164463 119.60190911 15 126 C-5.46 126 -25.92 126 -47 126 C-47 107.60115359 -47 107.60115359 -45.0234375 99.76953125 C-44.81570709 98.88754562 -44.60797668 98.00556 -44.39395142 97.09684753 C-43.73759552 94.33109483 -43.05644066 91.57216395 -42.375 88.8125 C-41.94247558 86.99190041 -41.5114804 85.17093682 -41.08203125 83.34960938 C-36.89148411 65.76359099 -31.85264413 48.43209028 -26.4375 31.1875 C-26.054729 29.96135986 -25.67195801 28.73521973 -25.27758789 27.47192383 C-24.18725372 23.98059113 -23.09383071 20.49023845 -22 17 C-21.43718796 15.19801409 -20.87465164 13.39594203 -20.3125 11.59375 C-19.21060511 8.06178669 -18.10642365 4.53054784 -17 1 C-15.47968196 0.82869656 -13.9587061 0.66322927 -12.4375 0.5 C-11.59058594 0.4071875 -10.74367188 0.314375 -9.87109375 0.21875 C-6.57280943 -0.03254785 -3.30679584 -0.01361522 0 0 Z " fill="#5A5C6C" transform="translate(273,376)"/>
<path d="M0 0 C4.33333333 4.33333333 8.66666667 8.66666667 13 13 C13.804375 13.76054687 14.60875 14.52109375 15.4375 15.3046875 C18.35934582 18.37797045 20.6738766 21.59201949 23 25.125 C23.43570313 25.78443604 23.87140625 26.44387207 24.3203125 27.12329102 C32.46329863 39.68975932 37.18463886 52.89798371 35 68 C30.41602829 82.29024634 19.85994859 89.97273937 8 98 C8.50511438 101.96009677 9.27941892 103.67805116 12.3125 106.25 C18.25224812 111.83604648 20.57473852 118.86897625 21.23828125 126.875 C21.71817875 147.08121043 10.3167321 164.39402054 0 181 C-4.89809983 188.8887985 -9.65596429 196.78911432 -14 205 C-14.33 205 -14.66 205 -15 205 C-15.20592458 194.23011756 -14.56552407 183.66466998 -13.6796875 172.94140625 C-13.53856514 171.18121961 -13.39798045 169.4209898 -13.25788879 167.66072083 C-12.95855974 163.91155938 -12.65596894 160.16268207 -12.35067749 156.41400146 C-11.62146894 147.45795491 -10.90871632 138.50058975 -10.19386101 129.54338837 C-9.94812812 126.46681404 -9.70171195 123.39029497 -9.45521545 120.31378174 C-8.36313545 106.66585994 -7.30220094 93.01582392 -6.26953125 79.36328125 C-6.16771545 78.01753493 -6.16771545 78.01753493 -6.06384277 76.64460182 C-5.47862736 68.90357537 -4.89631783 61.16233161 -4.31610107 53.42092896 C-3.96572767 48.74668296 -3.61439339 44.07251045 -3.26171875 39.3984375 C-3.20707458 38.67407187 -3.15243042 37.94970623 -3.09613037 37.20339012 C-2.15759646 24.79391187 -1.12246413 12.39424095 0 0 Z " fill="#FAFAFA" transform="translate(311,298)"/>
<path d="M0 0 C0.00331015 0.58689763 0.00662029 1.17379526 0.01003075 1.77847767 C0.09276848 16.34212234 0.1852836 30.90568491 0.28752708 45.4692049 C0.33676507 52.51322293 0.38313555 59.55723414 0.421875 66.60131836 C0.6061133 99.77959953 1.1351871 132.90310359 2.64952469 166.05311394 C3.05256955 174.92882775 3.35219944 183.80694909 3.625 192.6875 C3.64594538 193.36193744 3.66689075 194.03637487 3.68847084 194.73124981 C3.79474728 198.15409647 3.89904569 201.57699214 4 205 C-13.56887354 188.49867954 -26.66260678 154.21383605 -27.61132812 130.32373047 C-27.67113619 119.61167833 -25.72883726 111.51227741 -19.25 102.8125 C-17.04061406 99.79491877 -15.45419644 97.52144619 -15.125 93.75 C-16.33172631 88.57831581 -18.63907547 86.80345148 -23 84 C-25.95542851 82.24617305 -28.96528845 80.61184313 -32 79 C-37.73395604 75.85194571 -41.20894454 71.87640589 -44 66 C-45.41745794 60.67980786 -44.10295364 56.66099046 -41.625 51.875 C-40.44840433 49.89743545 -39.23636929 47.94075498 -38 46 C-37.63551758 45.42443359 -37.27103516 44.84886719 -36.89550781 44.25585938 C-8.68769968 0 -8.68769968 0 0 0 Z " fill="#FDFDFD" transform="translate(214,295)"/>
<path d="M0 0 C3.02896639 1.1358624 5.88684655 2.4429339 8.75 3.9375 C26.17187757 12.71368926 45.42793361 12.84079215 64 8 C67.54698487 6.79807677 70.99353979 5.38926995 74.42578125 3.890625 C77 3 77 3 80 4 C80.31654027 7.55978078 80.31699512 9.48498078 78.41796875 12.5703125 C77.31388672 13.83488281 77.31388672 13.83488281 76.1875 15.125 C75.36894531 16.07246094 74.55039062 17.01992188 73.70703125 17.99609375 C72.80739324 18.99982756 71.90497987 20.00107981 71 21 C70.54028809 21.50934082 70.08057617 22.01868164 69.60693359 22.54345703 C67.27172876 25.12165925 64.91848454 27.68210067 62.55078125 30.23046875 C60.5044649 32.45227318 58.51935577 34.70033738 56.5625 37 C51.69498959 42.63104146 46.2987135 47.77959261 41 53 C35.16595675 50.97604744 31.78114464 47.31494671 27.5 43 C26.70698486 42.20416504 25.91396973 41.40833008 25.09692383 40.58837891 C17.43592713 32.71957661 11.01597376 24.16698934 5 15 C4.52103271 14.2874707 4.04206543 13.57494141 3.54858398 12.84082031 C2.86324585 11.7942627 2.86324585 11.7942627 2.1640625 10.7265625 C1.55038818 9.79577881 1.55038818 9.79577881 0.92431641 8.84619141 C-0.5985604 5.80446018 -0.34759633 3.33692472 0 0 Z " fill="#FBD7C1" transform="translate(222,271)"/>
<path d="M0 0 C7.44700734 3.08565604 11.86383528 8.62594844 15.3125 15.6875 C17.14029256 24.49413687 16.83887108 33.21748235 12 41 C7.55224264 45.91258446 3.08251038 49.65305078 -3.609375 50.40625 C-15.9282751 50.86486929 -15.9282751 50.86486929 -20.75 47.3125 C-22.52734375 45.640625 -22.52734375 45.640625 -24 44 C-24.763125 43.195625 -25.52625 42.39125 -26.3125 41.5625 C-30.59264607 35.06301893 -31.92405893 29.7421154 -31 22 C-28.6004138 14.80124139 -24.60914075 9.07493687 -19 4 C-18.175 3.236875 -17.35 2.47375 -16.5 1.6875 C-11.04401753 -0.94306298 -5.93718953 -0.93146327 0 0 Z " fill="#FCD7C1" transform="translate(236,156)"/>
<path d="M0 0 C7.14768848 3.7440273 12.36206009 10.23459005 15.84765625 17.33984375 C17.84323167 23.96030005 17.68873479 30.28765033 14.78515625 36.58984375 C11.58178931 42.39423513 7.27041375 45.72467208 1.84765625 49.33984375 C-5.88553756 50.15703331 -14.18296626 50.84371297 -20.609375 45.8359375 C-27.60879772 39.04915547 -30.02792525 33.24501387 -30.46484375 23.52734375 C-30.36710632 15.40291994 -26.7252327 9.04542053 -21.15234375 3.33984375 C-15.48719426 -2.04204827 -7.28338361 -2.23392347 0 0 Z " fill="#FCD7C2" transform="translate(304.15234375,156.66015625)"/>
<path d="M0 0 C4.26964109 1.4232137 5.1876362 4.51938297 7.125 8.3125 C7.48464844 8.98990234 7.84429687 9.66730469 8.21484375 10.36523438 C12.32537845 18.2399104 12.32537845 18.2399104 11.63586426 21.96974182 C11.40604858 22.66107712 11.17623291 23.35241241 10.93945312 24.06469727 C10.55245491 25.25628197 10.55245491 25.25628197 10.15763855 26.47193909 C9.72382622 27.75620033 9.72382622 27.75620033 9.28125 29.06640625 C8.98773148 29.96499863 8.69421295 30.863591 8.39179993 31.78941345 C7.76218326 33.71656011 7.1283989 35.64234914 6.49087524 37.56689453 C4.8363786 42.56875449 3.21789815 47.58209938 1.60546875 52.59765625 C1.28777023 53.58581329 0.97007172 54.57397034 0.64274597 55.59207153 C-2.79009598 66.35063085 -5.68126875 77.20740151 -8.32177734 88.1875 C-9.51442753 93.13326318 -10.76150589 98.06555304 -12 103 C-12.33 103 -12.66 103 -13 103 C-13.81746411 87.90550016 -14.3790765 72.82089524 -14.66699219 57.70703125 C-14.68400177 56.81603729 -14.70101135 55.92504333 -14.71853638 55.00704956 C-14.75235533 53.22265953 -14.78546431 51.4382559 -14.81784058 49.65383911 C-14.91264463 44.86095505 -15.07494454 40.0808434 -15.33872986 35.29429626 C-15.51211755 32.03105907 -15.62320131 28.76533344 -15.75 25.5 C-15.83838135 24.35152588 -15.9267627 23.20305176 -16.01782227 22.01977539 C-16.15950465 17.00799703 -16.07372949 14.19540107 -12.63867188 10.37109375 C-9.84585885 8.08555814 -6.96436009 6.0542587 -4 4 C-2.6356555 2.69841648 -1.29011066 1.37519818 0 0 Z " fill="#59CDF8" transform="translate(237,356)"/>
<path d="M0 0 C1.10605785 3.45796256 0.97039229 6.35757796 0.67041016 9.95849609 C0.57345856 11.16009369 0.47650696 12.36169128 0.37661743 13.59970093 C0.2652243 14.894534 0.15383118 16.18936707 0.0390625 17.5234375 C-0.07257645 18.87094018 -0.18370354 20.21848536 -0.29434204 21.56607056 C-0.52748001 24.38912808 -0.76495864 27.21177416 -1.00585938 30.03417969 C-1.31357403 33.64035996 -1.61339224 37.24713872 -1.9102993 40.85422325 C-2.13978665 43.63746104 -2.37204632 46.42046158 -2.6052742 49.20338821 C-2.77053849 51.17632889 -2.9346418 53.1493667 -3.09872437 55.12240601 C-3.20198029 56.33030792 -3.30523621 57.53820984 -3.41162109 58.78271484 C-3.50124115 59.8409848 -3.59086121 60.89925476 -3.68319702 61.98959351 C-4.0022225 65.02111921 -4.46770573 67.99921255 -5 71 C-9.06911173 68.01549945 -12.05351895 64.62843704 -15.0625 60.625 C-18.07125942 56.68006562 -21.11566885 52.81453119 -24.41796875 49.109375 C-24.97411865 48.48337402 -25.53026855 47.85737305 -26.10327148 47.21240234 C-27.18492999 46.00549917 -28.2766618 44.80753434 -29.37915039 43.61962891 C-30.859375 41.9609375 -30.859375 41.9609375 -33 39 C-32.70993135 35.4892903 -31.11258171 33.71407894 -28.71875 31.2421875 C-28.04577881 30.53892334 -27.37280762 29.83565918 -26.67944336 29.11108398 C-25.96022705 28.37317627 -25.24101074 27.63526855 -24.5 26.875 C-23.03179223 25.34317585 -21.5643395 23.81062765 -20.09765625 22.27734375 C-19.38883301 21.53983887 -18.68000977 20.80233398 -17.94970703 20.04248047 C-11.75697216 13.55507502 -5.88068813 6.76940948 0 0 Z " fill="#AFE6F5" transform="translate(303,292)"/>
<path d="M0 0 C3.10005209 3.06735648 5.96816342 6.1039308 8.625 9.5625 C15.6476669 18.44021099 23.20178786 26.84042336 32 34 C30.42128215 38.35437212 27.02564209 40.77883339 23.5625 43.625 C22.29170001 44.68859008 21.022185 45.75371722 19.75390625 46.8203125 C19.1211377 47.35172852 18.48836914 47.88314453 17.83642578 48.43066406 C14.29166566 51.45987412 10.90129186 54.65503889 7.5 57.84375 C4.80900285 60.16473504 1.96880157 62.05274348 -1 64 C-1.02571812 57.61776609 -1.04301819 51.23554593 -1.05493164 44.85327148 C-1.05990723 42.68985495 -1.06669009 40.52644168 -1.07543945 38.36303711 C-1.12595817 25.53425567 -0.97046052 12.79541805 0 0 Z " fill="#AEE5F3" transform="translate(223,295)"/>
<path d="M0 0 C2.8617818 1.8526544 4.60859986 4.10493316 6.72265625 6.7734375 C7.48707031 7.72992188 8.25148438 8.68640625 9.0390625 9.671875 C9.73902344 10.57164062 10.43898438 11.47140625 11.16015625 12.3984375 C11.76988281 13.07390625 12.37960937 13.749375 13.0078125 14.4453125 C14.16015625 16.3984375 14.16015625 16.3984375 13.90234375 18.765625 C13.61617188 19.59320313 13.33 20.42078125 13.03515625 21.2734375 C12.62910156 22.50707031 12.62910156 22.50707031 12.21484375 23.765625 C11.03260795 26.71683584 9.58193872 29.55487256 8.16015625 32.3984375 C-0.25484375 32.8934375 -0.25484375 32.8934375 -8.83984375 33.3984375 C-18.22690379 19.05709578 -18.22690379 19.05709578 -17.55688477 14.45483398 C-16.72977089 12.08276038 -15.82227635 11.09116119 -13.96875 9.41796875 C-13.39447266 8.89396484 -12.82019531 8.36996094 -12.22851562 7.83007812 C-11.62587891 7.29576172 -11.02324219 6.76144531 -10.40234375 6.2109375 C-9.80357422 5.66501953 -9.20480469 5.11910156 -8.58789062 4.55664062 C-2.60364234 -0.85129707 -2.60364234 -0.85129707 0 0 Z " fill="#595B6B" transform="translate(263.83984375,335.6015625)"/>
<path d="M0 0 C1.73147664 1.62325935 3.36768816 3.27851198 5 5 C5.69738281 5.71671875 6.39476562 6.4334375 7.11328125 7.171875 C7.83902344 7.98140625 8.56476563 8.7909375 9.3125 9.625 C10.00988281 10.38039063 10.70726562 11.13578125 11.42578125 11.9140625 C15.35302397 19.61262763 12.75325255 30.93634572 12.125 39.32421875 C12.03621582 40.55163284 11.94743164 41.77904694 11.85595703 43.0436554 C11.57433991 46.92521723 11.28726037 50.80635214 11 54.6875 C10.80648318 57.33522819 10.61421728 59.98304539 10.421875 62.63085938 C9.95206681 69.08754835 9.47778535 75.54389669 9 82 C8.34 82 7.68 82 7 82 C6.89042969 81.13761719 6.78085937 80.27523437 6.66796875 79.38671875 C5.05423698 66.96229613 3.07287274 54.60701917 1.06556702 42.24087524 C0.61434495 39.4601507 0.16398984 36.67928585 -0.28646851 33.8984375 C-0.61848355 31.85265259 -0.9523467 29.80717545 -1.28637695 27.76171875 C-1.6931398 25.25564196 -2.0945224 22.74868359 -2.48950195 20.24072266 C-2.79263114 18.31641045 -3.10522786 16.39348889 -3.43823242 14.47412109 C-4.09109888 10.3606294 -3.98023596 7.71924551 -2.0625 4 C-1.68222656 3.236875 -1.30195313 2.47375 -0.91015625 1.6875 C-0.60980469 1.130625 -0.30945313 0.57375 0 0 Z " fill="#57C9F3" transform="translate(284,360)"/>
</svg>
