<?xml version="1.0" encoding="UTF-8"?>
<svg version="1.1" xmlns="http://www.w3.org/2000/svg" width="512" height="512">
<path d="M0 0 C2.6328125 1.6171875 2.6328125 1.6171875 5.125 3.875 C6.07375 4.7 7.0225 5.525 8 6.375 C8.99 7.24125 9.98 8.1075 11 9 C53.74170433 43.72763476 107.50818026 64.64403088 162.84106445 64.35839844 C167.30239123 64.41773325 170.14105243 64.45792373 173.96484375 66.87109375 C176.81388352 71.25128734 178.37111496 75.7220235 179.9375 80.6875 C180.27740967 81.73969727 180.61731934 82.79189453 180.9675293 83.87597656 C188.67697078 108.38841804 194.07349674 134.38015153 194.203125 160.16015625 C194.21018463 161.09953033 194.21724426 162.03890442 194.22451782 163.00674438 C194.40393621 193.90463062 191.57129517 221.94010288 184 252 C185.155 252.165 186.31 252.33 187.5 252.5 C203.4898042 256.06170994 217.38109338 267.03384094 229 278 C229.75152344 278.67546875 230.50304687 279.3509375 231.27734375 280.046875 C249.44554109 297.03366056 260.452066 323.25966016 261.37109375 347.8984375 C261.89469014 379.75938399 254.25744483 407.39731217 232.02954102 430.92797852 C211.02864617 452.57119287 183.80305133 464.51689573 153.5625 465.25 C122.60688979 464.50743664 94.12620288 453.10354626 72.625 430.54956055 C60 416.94037661 60 416.94037661 60 412 C54.51640104 414.6925456 49.05848992 417.41952907 43.67578125 420.30859375 C33.0188474 426.0242464 22.25325369 431.3087061 11.13818359 436.07958984 C9.28900234 436.87559502 7.45009972 437.69539932 5.61328125 438.51953125 C4.22689453 439.09767578 4.22689453 439.09767578 2.8125 439.6875 C2.07644531 440.00074219 1.34039062 440.31398438 0.58203125 440.63671875 C-7.12182568 441.72061995 -14.83499586 437.62083238 -21.6875 434.5625 C-22.68571777 434.12075439 -23.68393555 433.67900879 -24.71240234 433.22387695 C-55.98265033 419.24154568 -84.45124353 401.91794787 -110 379 C-110.54317871 378.51853516 -111.08635742 378.03707031 -111.64599609 377.54101562 C-124.80274476 365.85479594 -136.45384783 353.08015022 -147 339 C-147.41314453 338.4544043 -147.82628906 337.90880859 -148.25195312 337.34667969 C-192.38088462 278.7761882 -208.71194212 204.60758015 -199.1875 132.46875 C-196.51723634 114.01704116 -192.07838395 96.00988592 -186.4375 78.25 C-186.16897217 77.3744043 -185.90044434 76.49880859 -185.6237793 75.59667969 C-184.45068011 72.06227483 -183.31283607 69.3969908 -180.99609375 66.45703125 C-176.31562562 64.18087139 -171.76260578 64.4519271 -166.625 64.4375 C-110.28101044 63.14171904 -56.06088815 41.9000652 -13.57421875 4.88671875 C-12.80722656 4.24347656 -12.04023438 3.60023437 -11.25 2.9375 C-10.59515625 2.36902344 -9.9403125 1.80054688 -9.265625 1.21484375 C-5.98254696 -0.54556534 -3.67002525 -0.43959643 0 0 Z " fill="#010101" transform="translate(225,33)"/>
<path d="M0 0 C3.48486132 1.30582546 6.20034428 3.84053752 9.08813477 6.1340332 C17.90846486 12.93303765 27.24821106 18.45829824 37.02563477 23.7590332 C37.71125488 24.13543945 38.396875 24.5118457 39.10327148 24.8996582 C60.27645412 36.42304673 84.06773449 43.47909171 108.02563477 45.7590332 C109.83955405 45.94408588 111.6533498 46.1303522 113.46704102 46.31762695 C118.31837805 46.8146676 123.17136835 47.29151164 128.02563477 47.7590332 C146.05728327 86.39828 144.77369033 140.2575432 131.04125977 180.02075195 C130.53852539 181.37620117 130.53852539 181.37620117 130.02563477 182.7590332 C129.69563477 183.7490332 129.36563477 184.7390332 129.02563477 185.7590332 C126.17672519 186.92271479 123.38091602 187.92663623 120.46313477 188.8840332 C106.33223033 193.82079149 94.12030072 200.61189306 83.02563477 210.7590332 C81.74946289 211.91338867 81.74946289 211.91338867 80.44750977 213.09106445 C65.95527721 226.84979444 56.48634628 244.71313694 51.02563477 263.7590332 C50.79102539 264.55567383 50.55641602 265.35231445 50.31469727 266.1730957 C49.40668066 269.68672519 49.02553989 272.7369744 49.04125977 276.3918457 C49.00203889 286.41277903 49.00203889 286.41277903 46.47875977 289.8918457 C43.78076984 291.87228512 41.03199173 293.27749516 38.02563477 294.7590332 C36.41979058 295.63510395 34.81719336 296.5171402 33.21704102 297.40356445 C4.98920505 312.84485507 4.98920505 312.84485507 -3.97436523 311.7590332 C-7.12225105 310.70745768 -10.09601712 309.3534464 -13.09936523 307.9465332 C-13.97246338 307.54345947 -14.84556152 307.14038574 -15.74511719 306.72509766 C-66.59734655 282.86832751 -109.47102475 242.89997827 -129.00952148 189.32543945 C-130.80769313 184.17856297 -132.43406551 178.98834006 -133.97436523 173.7590332 C-134.18287109 173.06003906 -134.39137695 172.36104492 -134.60620117 171.64086914 C-135.94672863 167.04961911 -137.04164128 162.44640291 -137.97436523 157.7590332 C-138.12389648 157.01298828 -138.27342773 156.26694336 -138.42749023 155.49829102 C-144.88735909 121.45868036 -143.63004579 79.51300775 -128.97436523 47.7590332 C-127.6762793 47.67266602 -126.37819336 47.58629883 -125.04077148 47.49731445 C-84.73326846 44.49904941 -43.53800392 32.57874698 -11.50561523 7.0090332 C-10.9171582 6.54247314 -10.32870117 6.07591309 -9.72241211 5.59521484 C-8.58268972 4.68327775 -7.45311981 3.75846028 -6.33569336 2.81933594 C-2.47357445 -0.30189415 -2.47357445 -0.30189415 0 0 Z " fill="#E1F1F2" transform="translate(221.974365234375,98.240966796875)"/>
<path d="M0 0 C0.76578369 0.30566895 1.53156738 0.61133789 2.32055664 0.92626953 C25.23606649 10.38757024 43.93720063 28.18154051 53.921875 50.93359375 C63.17835657 73.58507324 64.38352935 99.59864715 55.375 122.5625 C49.90678494 135.57585793 42.96490757 145.85256324 33.0625 155.875 C32.47984375 156.52984375 31.8971875 157.1846875 31.296875 157.859375 C17.23906146 173.3371697 -6.00951904 181.74469255 -26.41967773 183.03149414 C-53.6775019 184.22878876 -77.17850031 176.36387456 -97.87109375 158.31640625 C-116.78354987 140.24333792 -127.4567403 115.68883577 -128.22290039 89.59765625 C-128.55447707 63.16711118 -117.54298542 39.69910977 -99.4375 20.9375 C-89.307797 10.81101176 -77.40013425 3.71549771 -63.9375 -1.125 C-62.87273437 -1.5375 -61.80796875 -1.95 -60.7109375 -2.375 C-42.2620197 -8.48222796 -17.97744504 -7.2794622 0 0 Z " fill="#EC4B23" transform="translate(410.9375,300.125)"/>
<path d="M0 0 C3.44436282 1.22128351 5.98869851 3.77375774 8.74487305 6.10449219 C36.91974807 29.22180579 71.43605439 45.50927448 106.71850586 54.13232422 C109.30109374 54.79171983 111.85507483 55.53228992 114.41674805 56.26855469 C120.00670699 57.79909244 125.55797606 58.67387071 131.30737305 59.35449219 C132.32573242 59.47928955 133.3440918 59.60408691 134.39331055 59.73266602 C145.25269422 60.98919943 156.13441836 61.45056233 167.05737305 61.72949219 C172.59696389 78.55886413 177.01668614 95.27287617 180.05737305 112.72949219 C180.23993652 113.7580835 180.4225 114.7866748 180.6105957 115.84643555 C187.25820247 154.23381245 182.62291745 193.3426188 173.05737305 230.72949219 C169.73868713 231.7519504 166.87453716 231.7739309 163.41674805 231.60839844 C162.34682617 231.56005859 161.2769043 231.51171875 160.17456055 231.46191406 C159.06338867 231.40583984 157.9522168 231.34976563 156.80737305 231.29199219 C155.68073242 231.23978516 154.5540918 231.18757812 153.39331055 231.13378906 C150.61437333 231.00426233 147.83580881 230.86930165 145.05737305 230.72949219 C145.62196429 225.32464122 146.584728 220.15786084 147.82226562 214.8684082 C154.89939638 184.47142517 155.32167546 153.29686593 149.05737305 122.72949219 C148.74214822 121.09279667 148.42703749 119.45607918 148.11206055 117.81933594 C146.54979529 110.02452409 144.4855323 102.42360332 142.05737305 94.85449219 C141.82034668 94.0985376 141.58332031 93.34258301 141.33911133 92.5637207 C141.1017627 91.85787842 140.86441406 91.15203613 140.61987305 90.42480469 C140.41491211 89.80621582 140.20995117 89.18762695 139.9987793 88.55029297 C138.65927088 85.95951138 137.38472495 84.51941347 135.05737305 82.72949219 C132.4197123 82.20977533 130.12426777 81.92227079 127.4675293 81.78808594 C126.72715927 81.73427261 125.98678925 81.68045929 125.22398376 81.62501526 C122.85675977 81.4549612 120.48892255 81.30915929 118.11987305 81.16699219 C107.47029306 80.49038895 97.41299944 79.51091976 87.05737305 76.72949219 C85.72853642 76.40803109 84.39920482 76.08859913 83.0690918 75.77246094 C55.12868141 68.58215556 30.41617683 55.10745706 8.36206055 36.63964844 C4.15647568 32.84409038 4.15647568 32.84409038 -1.13012695 31.54199219 C-5.71915645 32.97136203 -7.87388789 35.09509053 -11.3137207 38.35449219 C-31.71327974 56.78381149 -57.84110918 68.24903117 -83.94262695 75.72949219 C-84.85157715 75.99455566 -85.76052734 76.25961914 -86.69702148 76.53271484 C-92.70229639 78.23752636 -98.63536038 79.50143338 -104.81762695 80.35449219 C-105.70240723 80.48146484 -106.5871875 80.6084375 -107.4987793 80.73925781 C-115.07561258 81.75893381 -122.63556665 82.16818573 -130.27807617 82.26318359 C-131.52355225 82.2929126 -131.52355225 82.2929126 -132.79418945 82.32324219 C-133.88981201 82.33387695 -133.88981201 82.33387695 -135.00756836 82.34472656 C-137.56221435 82.85269049 -138.37132813 83.66961675 -139.94262695 85.72949219 C-140.93480305 87.92617884 -140.93480305 87.92617884 -141.66137695 90.41308594 C-141.95399414 91.34185547 -142.24661133 92.270625 -142.5480957 93.22753906 C-142.84329102 94.19755859 -143.13848633 95.16757813 -143.44262695 96.16699219 C-143.73782227 97.10220703 -144.03301758 98.03742188 -144.3371582 99.00097656 C-154.87147922 132.85466458 -158.79921396 171.80671378 -150.94262695 206.72949219 C-150.6377987 208.19430665 -150.33311312 209.65915082 -150.02856445 211.12402344 C-149.11547039 215.3582317 -148.06840262 219.5471696 -146.94262695 223.72949219 C-146.77037598 224.37273437 -146.598125 225.01597656 -146.4206543 225.67871094 C-137.18266979 259.32101093 -119.0070672 289.66784256 -94.94262695 314.72949219 C-94.40621582 315.29313477 -93.86980469 315.85677734 -93.31713867 316.4375 C-70.41307023 340.39318464 -42.12679917 357.40639079 -11.94262695 370.72949219 C-11.27779297 371.04418457 -10.61295898 371.35887695 -9.92797852 371.68310547 C-3.7269522 374.38859029 1.29687896 374.01508279 7.65112305 371.84277344 C10.4915752 370.71230613 13.27350322 369.49275097 16.05737305 368.22949219 C17.05615479 367.78677979 18.05493652 367.34406738 19.08398438 366.88793945 C26.15291769 363.71073211 33.05212422 360.27065414 39.82885742 356.51074219 C42.89499393 354.81458157 45.63781802 353.478378 49.05737305 352.72949219 C49.14374023 353.32632812 49.23010742 353.92316406 49.3190918 354.53808594 C50.77182048 363.50768599 53.39494761 372.06136662 56.05737305 380.72949219 C46.68785962 386.76191864 37.0978479 391.91402155 27.05737305 396.72949219 C26.3180957 397.0860791 25.57881836 397.44266602 24.81713867 397.81005859 C22.56665406 398.89328541 20.31295429 399.96942202 18.05737305 401.04199219 C17.37578125 401.36748047 16.69418945 401.69296875 15.99194336 402.02832031 C12.67387485 403.58919166 9.33089665 405.0823336 5.93237305 406.45996094 C5.03131836 406.8277063 5.03131836 406.8277063 4.11206055 407.20288086 C-0.85041706 408.47475161 -4.7263287 407.71755145 -9.3293457 405.67480469 C-10.8460083 405.00783569 -10.8460083 405.00783569 -12.39331055 404.32739258 C-13.46145996 403.84133545 -14.52960938 403.35527832 -15.63012695 402.85449219 C-16.74210449 402.3548999 -17.85408203 401.85530762 -18.99975586 401.34057617 C-46.83502216 388.69417879 -73.62152573 372.80815208 -95.94262695 351.72949219 C-97.18859145 350.66226272 -98.43856651 349.59969661 -99.69262695 348.54199219 C-109.68324985 339.80779652 -118.8249979 330.22156484 -126.94262695 319.72949219 C-127.74055664 318.7253125 -128.53848633 317.72113281 -129.3605957 316.68652344 C-147.16409165 294.14931044 -159.78745795 269.56075469 -169.94262695 242.72949219 C-170.37744385 241.59108887 -170.37744385 241.59108887 -170.82104492 240.4296875 C-190.40092224 188.39690372 -191.23278009 116.98405666 -169.2277832 65.47558594 C-168.80368164 64.569375 -168.37958008 63.66316406 -167.94262695 62.72949219 C-167.12922852 62.65956055 -166.31583008 62.58962891 -165.4777832 62.51757812 C-141.62221711 60.43122237 -117.82694296 58.18761189 -94.94262695 50.72949219 C-94.01933594 50.42946289 -93.09604492 50.12943359 -92.14477539 49.8203125 C-62.15076118 39.90064668 -33.40223382 25.83697078 -9.1418457 5.36621094 C-7.80573242 4.24666016 -7.80573242 4.24666016 -6.44262695 3.10449219 C-5.66918945 2.43160156 -4.89575195 1.75871094 -4.09887695 1.06542969 C-1.94262695 -0.27050781 -1.94262695 -0.27050781 0 0 Z " fill="#488BA8" transform="translate(221.942626953125,50.2705078125)"/>
<path d="M0 0 C1.78684581 0.83306131 3.57379544 1.66589996 5.36083984 2.49853516 C6.2697699 2.92765198 7.17869995 3.3567688 8.11517334 3.79888916 C12.3493997 5.78649188 16.61680103 7.69903433 20.8828125 9.6171875 C22.57379764 10.38165306 24.26455068 11.1466322 25.95507812 11.91210938 C26.80320068 12.2960083 27.65132324 12.67990723 28.52514648 13.07543945 C31.22087764 14.29629486 33.91613665 15.51818807 36.61132812 16.74023438 C45.18656709 20.62670217 53.76725157 24.49851052 62.375 28.3125 C64.51955945 29.26651722 66.66381719 30.22120879 68.80795288 31.17617798 C70.14819774 31.77081628 71.48984058 32.36231446 72.83291626 32.95053101 C74.6693434 33.75490064 76.50083936 34.57050099 78.33203125 35.38671875 C79.35296875 35.83660156 80.37390625 36.28648437 81.42578125 36.75 C83.83203125 38.07421875 83.83203125 38.07421875 85.83203125 41.07421875 C86.26953125 44.01171875 86.26953125 44.01171875 85.83203125 47.07421875 C81.62724818 51.23609587 76.32568131 53.39470634 71.01953125 55.82421875 C70.13587891 56.23542969 69.25222656 56.64664063 68.34179688 57.0703125 C66.17462762 58.07775334 64.00475372 59.07882573 61.83203125 60.07421875 C61.82838562 60.78308228 61.82473999 61.4919458 61.82098389 62.22229004 C61.78298279 68.93062552 61.72599409 75.63850663 61.64812851 82.34650421 C61.60876222 85.79449761 61.57652135 89.24223979 61.56103516 92.69042969 C61.54287463 96.6624369 61.4928755 100.63374821 61.44140625 104.60546875 C61.44017761 105.83285767 61.43894897 107.06024658 61.43768311 108.3248291 C61.30093184 116.37373784 60.2852869 121.76365833 55.1484375 128.17578125 C43.69616563 138.12318889 30.34080301 140.65379079 15.83203125 143.07421875 C14.95119873 143.25073975 14.07036621 143.42726074 13.1628418 143.60913086 C8.77517426 144.22178985 4.46053238 144.25637417 0.03515625 144.27734375 C-1.38630707 144.28589386 -1.38630707 144.28589386 -2.83648682 144.2946167 C-4.84361668 144.30404332 -6.85076187 144.31059137 -8.85791016 144.31445312 C-11.86650361 144.32405451 -14.87438215 144.35505627 -17.8828125 144.38671875 C-39.12697614 144.50381058 -64.68407156 142.94384351 -80.91796875 127.3984375 C-84.64519256 123.13118978 -85.29239872 119.7380621 -85.37329102 114.22583008 C-85.40320885 112.42430229 -85.40320885 112.42430229 -85.43373108 110.58638 C-85.45044357 109.2894371 -85.46715607 107.9924942 -85.484375 106.65625 C-85.50495168 105.31531645 -85.52594834 103.97438929 -85.54734802 102.63346863 C-85.60249502 99.10719986 -85.65193669 95.58087327 -85.70019531 92.05450439 C-85.75046425 88.45490382 -85.80612214 84.85538702 -85.86132812 81.25585938 C-85.96881949 74.19538378 -86.06978631 67.13483082 -86.16796875 60.07421875 C-90.78796875 58.09421875 -95.40796875 56.11421875 -100.16796875 54.07421875 C-100.28140625 55.18023437 -100.39484375 56.28625 -100.51171875 57.42578125 C-101.15195528 62.54091041 -102.38650359 67.4624886 -103.66796875 72.44921875 C-103.89355469 73.35027344 -104.11914062 74.25132812 -104.3515625 75.1796875 C-106.02703505 81.79235135 -106.02703505 81.79235135 -107.16796875 84.07421875 C-108.14447004 91.09837007 -104.25940033 97.1161868 -101.3671875 103.28710938 C-98.48640569 109.65683803 -96.84827692 114.46243059 -99.35546875 121.32421875 C-101.4131511 124.44621956 -102.82804805 125.45372126 -106.16796875 127.07421875 C-110.50295008 127.55716097 -114.81522235 127.27274766 -119.16796875 127.07421875 C-120.18503906 127.04328125 -121.20210937 127.01234375 -122.25 126.98046875 C-127.94227604 126.6689899 -131.77467022 126.02818743 -136.16796875 122.07421875 C-139.14274932 118.60364142 -139.98575716 115.15597312 -139.84375 110.6640625 C-138.17444798 104.26667962 -132.80211693 98.98174282 -128.42480469 94.15014648 C-123.11944075 87.96924253 -121.30487523 82.00060766 -119.54296875 74.13671875 C-118.9618086 71.739372 -118.37977452 69.34223693 -117.796875 66.9453125 C-117.52117676 65.7785498 -117.24547852 64.61178711 -116.96142578 63.40966797 C-115.86966223 58.82022991 -114.70273743 54.25543059 -113.48046875 49.69921875 C-113.30241699 48.98773682 -113.12436523 48.27625488 -112.94091797 47.54321289 C-111.76281272 43.1530225 -110.29042081 40.36178661 -107.16796875 37.07421875 C-104.72817044 35.72708203 -102.44092458 34.60885758 -99.88671875 33.54296875 C-99.16947128 33.23027039 -98.45222382 32.91757202 -97.71324158 32.59539795 C-96.1722217 31.92522476 -94.62853389 31.26115913 -93.08248901 30.60266113 C-89.80672515 29.20738007 -86.54386293 27.7830831 -83.28013611 26.35992432 C-81.62164461 25.63690302 -79.96251221 24.9153501 -78.30274963 24.19525146 C-71.01097628 21.02675303 -63.80181575 17.70351265 -56.60546875 14.32421875 C-52.12802546 12.2371729 -47.64835174 10.1549455 -43.16796875 8.07421875 C-42.56412354 7.79326355 -41.96027832 7.51230835 -41.33813477 7.22283936 C-37.01973262 5.21529679 -32.69005041 3.2340898 -28.35546875 1.26171875 C-27.23390381 0.73932617 -26.11233887 0.21693359 -24.95678711 -0.32128906 C-23.90628174 -0.7953418 -22.85577637 -1.26939453 -21.7734375 -1.7578125 C-20.85715576 -2.17780518 -19.94087402 -2.59779785 -18.99682617 -3.03051758 C-11.66478265 -5.35092869 -6.56340191 -3.16418451 0 0 Z " fill="#010302" transform="translate(248.16796875,156.92578125)"/>
<path d="M0 0 C-0.38091797 1.25490234 -0.38091797 1.25490234 -0.76953125 2.53515625 C-3.34963616 11.26112903 -5.54371329 20.00633196 -7 29 C-7.25704712 30.58506348 -7.25704712 30.58506348 -7.51928711 32.20214844 C-8.97102035 41.97883656 -9.34162425 51.50886367 -9.3125 61.375 C-9.31774185 62.54388763 -9.31774185 62.54388763 -9.3230896 63.73638916 C-9.36470727 74.03105098 -8.59319974 83.71221318 -6.8125 93.875 C-5.83474151 99.71708348 -5.09642833 104.25781363 -8.1796875 109.53125 C-10.75809916 113.11220801 -13.75156264 116.02812512 -17 119 C-19.69542917 123.04314376 -19.66452365 126.25108711 -19 131 C-16.91190863 135.10160805 -15.23987984 137.29324461 -11 139 C-8.49264635 139.45148706 -8.49264635 139.45148706 -5.796875 139.6328125 C-4.8171875 139.71660156 -3.8375 139.80039062 -2.828125 139.88671875 C-1.81234375 139.96535156 -0.7965625 140.04398438 0.25 140.125 C1.796875 140.25455078 1.796875 140.25455078 3.375 140.38671875 C5.91615699 140.59848183 8.45769121 140.80263154 11 141 C11 141.33 11 141.66 11 142 C9.35 142.33 7.7 142.66 6 143 C16.81469097 166.60245808 29.05957492 187.12403128 47 206 C47.52013672 206.55268555 48.04027344 207.10537109 48.57617188 207.67480469 C67.20012019 227.34516099 89.08071994 241.89068622 113.18505859 254.02954102 C115 255 115 255 118 257 C114.86406413 258.50081776 111.7148247 259.97145767 108.5625 261.4375 C107.68400391 261.85837891 106.80550781 262.27925781 105.90039062 262.71289062 C99.685684 265.57945272 93.62651763 268.23517448 86.74584961 266.39819336 C84.31995747 265.4659514 82.01780918 264.4002693 79.6875 263.25 C78.82793701 262.84241455 77.96837402 262.4348291 77.08276367 262.01489258 C74.37079877 260.70935095 71.6830408 259.36391965 69 258 C67.71464355 257.34813721 67.71464355 257.34813721 66.40332031 256.68310547 C17.42563896 231.50074233 -21.7676975 189.36599815 -38.73071289 136.52172852 C-39.50630264 134.01974297 -40.25988438 131.51268737 -41 129 C-41.20850586 128.30100586 -41.41701172 127.60201172 -41.63183594 126.88183594 C-42.9723634 122.29058591 -44.06727604 117.68736971 -45 113 C-45.14953125 112.25395508 -45.2990625 111.50791016 -45.453125 110.73925781 C-51.91299385 76.69964716 -50.65568056 34.75397455 -36 3 C-35.39639648 2.9498877 -34.79279297 2.89977539 -34.17089844 2.84814453 C-19.0336978 1.63391718 -19.0336978 1.63391718 -4.046875 -0.73046875 C-2 -1 -2 -1 0 0 Z " fill="#B9D0D4" transform="translate(129,143)"/>
<path d="M0 0 C2.72705494 1.29511681 5.14520351 2.72480781 7.58203125 4.50390625 C8.25830566 4.99246094 8.93458008 5.48101562 9.63134766 5.984375 C10.35112793 6.50515625 11.0709082 7.0259375 11.8125 7.5625 C42.62341971 29.50390703 76.19080643 43.84126122 113 52 C114.34964844 52.30744141 114.34964844 52.30744141 115.7265625 52.62109375 C130.99102839 55.91393004 146.44622558 56.49707827 162 57 C167.53959084 73.82937194 171.9593131 90.54338399 175 108 C175.18256348 109.02859131 175.36512695 110.05718262 175.55322266 111.11694336 C182.20082942 149.50432026 177.5655444 188.61312661 168 226 C164.68131409 227.02245821 161.81716411 227.04443871 158.359375 226.87890625 C156.75449219 226.80639648 156.75449219 226.80639648 155.1171875 226.73242188 C154.00601563 226.67634766 152.89484375 226.62027344 151.75 226.5625 C150.62335938 226.51029297 149.49671875 226.45808594 148.3359375 226.40429688 C145.55700028 226.27477014 142.77843576 226.13980947 140 226 C140.56459124 220.59514903 141.52735495 215.42836865 142.76489258 210.13891602 C149.84202333 179.74193299 150.26430242 148.56737374 144 118 C143.68477517 116.36330448 143.36966444 114.72658699 143.0546875 113.08984375 C141.49242225 105.29503191 139.42815925 97.69411114 137 90.125 C136.64446045 88.99106812 136.64446045 88.99106812 136.28173828 87.83422852 C136.04438965 87.12838623 135.80704102 86.42254395 135.5625 85.6953125 C135.35753906 85.07672363 135.15257812 84.45813477 134.94140625 83.82080078 C133.60189783 81.2300192 132.3273519 79.78992128 130 78 C127.36233925 77.48028314 125.06689472 77.1927786 122.41015625 77.05859375 C121.66978622 77.00478043 120.9294162 76.9509671 120.16661072 76.89552307 C117.79938672 76.72546901 115.43154951 76.57966711 113.0625 76.4375 C102.41292001 75.76089676 92.3556264 74.78142757 82 72 C80.67116338 71.6785389 79.34183177 71.35910695 78.01171875 71.04296875 C50.07130836 63.85266337 25.35880379 50.37796487 3.3046875 31.91015625 C-0.90089736 28.1145982 -0.90089736 28.1145982 -6.1875 26.8125 C-10.93163494 28.29018137 -13.4073675 30.72668881 -16.88671875 34.1875 C-19.01588916 36.01362767 -20.26420349 36.60476077 -23 37 C-18.16134648 28.19425168 -12.96076952 19.66106395 -7.5625 11.1875 C-6.93520996 10.20249512 -6.30791992 9.21749023 -5.66162109 8.20263672 C-1.14054505 1.14054505 -1.14054505 1.14054505 0 0 Z " fill="#489AB6" transform="translate(227,55)"/>
<path d="M0 0 C2 3 2 3 1.85972786 5.91266918 C0.88565464 9.41062059 -0.21233893 10.84250494 -2.75564575 13.39729309 C-3.96679298 14.63175674 -3.96679298 14.63175674 -5.20240784 15.89115906 C-6.09483688 16.77503799 -6.98726593 17.65891693 -7.90673828 18.56958008 C-8.85221389 19.5234728 -9.79663046 20.47841622 -10.74006653 21.43432617 C-13.30098317 24.0222767 -15.87751581 26.5941264 -18.45799494 29.16255403 C-20.61242916 31.30985231 -22.75899717 33.46492741 -24.9055928 35.62005728 C-29.97044593 40.70485789 -35.04793457 45.77678742 -40.13378906 50.84057617 C-45.37698345 56.0614076 -50.59988874 61.30191116 -55.81296551 66.55280191 C-60.29300233 71.06408742 -64.78461973 75.5636015 -69.28585422 80.05373687 C-71.97258128 82.73398098 -74.65489955 85.41827792 -77.32645035 88.113657 C-79.83950409 90.6479796 -82.36676587 93.1672246 -84.90559959 95.67571259 C-86.27519951 97.03598162 -87.63007074 98.41103048 -88.98442078 99.78648376 C-95.73534532 106.4106875 -95.73534532 106.4106875 -99.97238159 107.16703796 C-103 107 -103 107 -105.125 105.25 C-113.73115317 90.33266783 -116.83839455 75.97748968 -116 59 C-115.979375 58.15953125 -115.95875 57.3190625 -115.9375 56.453125 C-114.98413314 40.60340089 -106.19095905 25.63014029 -96 14 C-95.40703125 13.31164062 -94.8140625 12.62328125 -94.203125 11.9140625 C-71.22925512 -12.92520708 -28.35560412 -19.87260348 0 0 Z " fill="#050303" transform="translate(417,323)"/>
<path d="M0 0 C4.32512692 3.31487829 6.31676047 7.19031907 8.1875 12.1875 C8.43435547 12.79658203 8.68121094 13.40566406 8.93554688 14.03320312 C15.83696977 31.79286471 14.96949631 52.43358344 8 70 C4.20524881 78.61187468 -0.75560957 85.98410188 -7 93 C-7.62648438 93.70898438 -8.25296875 94.41796875 -8.8984375 95.1484375 C-20.92042193 107.95553112 -39.50709006 116.61106487 -57.08984375 117.23828125 C-73.69048953 117.55351035 -87.42177542 115.69229745 -102 107 C-104 105 -104 105 -104.68130493 101.98692322 C-104.46557123 95.97553613 -99.10466534 92.14525384 -95.09912109 88.20922852 C-94.14188656 87.2441416 -93.18615314 86.27756381 -92.23181152 85.30961609 C-89.64016241 82.69035922 -87.02698917 80.09362122 -84.40853834 77.50119138 C-81.66990513 74.78402323 -78.94880203 72.04939369 -76.2250061 69.31736755 C-71.648822 64.73302703 -67.05843455 60.16328889 -62.45947266 55.60180664 C-57.14346896 50.32875153 -51.85111072 45.03283299 -46.57069337 39.72415978 C-41.48858146 34.61601234 -36.38968817 29.52493672 -31.28310013 24.44126701 C-29.11091641 22.27818135 -26.94488062 20.10920266 -24.78358078 17.93524361 C-22.23786621 15.37608673 -19.67782441 12.83218321 -17.10598755 10.2992878 C-15.71595027 8.92332213 -14.34060047 7.53256829 -12.96572876 6.14144897 C-12.13289368 5.326978 -11.30005859 4.51250702 -10.44198608 3.6733551 C-9.72483114 2.95976113 -9.0076762 2.24616716 -8.26878929 1.51094913 C-5.31221544 -0.45804495 -3.48613771 -0.43161345 0 0 Z " fill="#040303" transform="translate(441,348)"/>
<path d="M0 0 C0.15218918 7.17135411 0.25723191 14.34229164 0.32958984 21.51489258 C0.35975455 23.95450401 0.40069271 26.39400706 0.45263672 28.83325195 C0.52546047 32.34092949 0.55946074 35.84717298 0.5859375 39.35546875 C0.61690521 40.44522507 0.64787292 41.53498138 0.67977905 42.65776062 C0.68306219 50.05214964 0.68306219 50.05214964 -1.28778076 52.7869873 C-18.02071479 67.09908717 -52.21000849 66.31692145 -73.0078125 64.77734375 C-105.37552284 61.95411594 -105.37552284 61.95411594 -116.51123047 53.77929688 C-119.66077309 50.01513377 -118.83805166 45.01437149 -118.68359375 40.35546875 C-118.67368912 39.2305452 -118.66378448 38.10562164 -118.65357971 36.9466095 C-118.61444089 33.35890516 -118.52661098 29.77427713 -118.4375 26.1875 C-118.40238589 23.75329944 -118.37044708 21.31905085 -118.34179688 18.88476562 C-118.26468053 12.92213014 -118.14759419 6.96128482 -118 1 C-111.9046776 2.90487207 -106.12498839 5.16540793 -100.34375 7.87109375 C-99.55657593 8.23469498 -98.76940186 8.5982962 -97.95837402 8.97291565 C-95.47015598 10.12332021 -92.98500357 11.28017068 -90.5 12.4375 C-88.01434497 13.58980804 -85.52807119 14.74077081 -83.04162598 15.89137268 C-81.5038309 16.60356004 -79.96659623 17.31695935 -78.43005371 18.03184509 C-77.00601093 18.69349332 -75.57988551 19.35067946 -74.15161133 20.00314331 C-72.65989673 20.6942652 -71.17843157 21.40777885 -69.70581055 22.13870239 C-64.94604423 24.4297079 -61.39035946 25.70872032 -56 25 C-53.32317232 24.03818385 -50.90728055 23.04420098 -48.36328125 21.81640625 C-47.64946793 21.48515244 -46.9356546 21.15389862 -46.20021057 20.81260681 C-43.89843905 19.74130918 -41.6056856 18.65203692 -39.3125 17.5625 C-37.73584582 16.8254159 -36.15853144 16.08974236 -34.58056641 15.35546875 C-31.4727941 13.9080412 -28.36782611 12.45487185 -25.26513672 10.99658203 C-19.82580025 8.44426289 -14.35628039 5.96078152 -8.875 3.5 C-8.06587158 3.13334229 -7.25674316 2.76668457 -6.4230957 2.38891602 C-1.12118595 0 -1.12118595 0 0 0 Z " fill="#00979E" transform="translate(295,223)"/>
<path d="M0 0 C4.23555354 3.30579788 7.69559091 6.82731324 11.18310547 10.90771484 C34.65023002 37.9318021 65.52713829 56.66668563 98 71 C98.66483398 71.31469238 99.32966797 71.62938477 100.01464844 71.95361328 C106.21567476 74.6590981 111.23950591 74.2855906 117.59375 72.11328125 C120.43420215 70.98281394 123.21613018 69.76325878 126 68.5 C126.99878174 68.0572876 127.99756348 67.6145752 129.02661133 67.15844727 C136.09554465 63.98123992 142.99475117 60.54116195 149.77148438 56.78125 C152.83762088 55.08508938 155.58044497 53.74888581 159 53 C159.12955078 53.89525391 159.12955078 53.89525391 159.26171875 54.80859375 C160.71444744 63.7781938 163.33757456 72.33187443 166 81 C156.63048657 87.03242645 147.04047485 92.18452936 137 97 C136.26072266 97.35658691 135.52144531 97.71317383 134.75976562 98.08056641 C132.50928101 99.16379323 130.25558124 100.23992983 128 101.3125 C127.3184082 101.63798828 126.63681641 101.96347656 125.93457031 102.29882812 C122.6165018 103.85969947 119.27352361 105.35284141 115.875 106.73046875 C115.27429688 106.97563232 114.67359375 107.2207959 114.0546875 107.47338867 C109.09220989 108.74525942 105.21629825 107.98805927 100.61328125 105.9453125 C99.60217285 105.5006665 98.59106445 105.05602051 97.54931641 104.59790039 C95.94709229 103.8688147 95.94709229 103.8688147 94.3125 103.125 C93.20052246 102.62540771 92.08854492 102.12581543 90.94287109 101.61108398 C63.11136222 88.96639372 36.31304474 73.08285786 14 52 C12.65070436 50.82770322 11.29666328 49.66084179 9.9375 48.5 C9.30714844 47.93410156 8.67679688 47.36820312 8.02734375 46.78515625 C6.56114692 45.49411203 5.04597976 44.25798426 3.50390625 43.05859375 C-0.03982519 40.05664964 -2.60684321 37.70520331 -3.671875 33.0859375 C-3.76151953 29.3298318 -3.47004654 25.71800417 -3 22 C-2.88978516 21.0817041 -2.77957031 20.1634082 -2.66601562 19.21728516 C-1.87856148 12.79578411 -0.9798091 6.39481792 0 0 Z " fill="#489AB7" transform="translate(112,350)"/>
<path d="M0 0 C1.18327881 0.5165918 2.36655762 1.03318359 3.58569336 1.56542969 C4.9218712 2.18108368 6.25650868 2.80008834 7.58984375 3.421875 C8.68436356 3.92736626 8.68436356 3.92736626 9.80099487 4.44306946 C11.3679157 5.16702288 12.93420226 5.8923504 14.49990845 6.618927 C18.63494521 8.53763583 22.77468519 10.44614674 26.9140625 12.35546875 C27.75340836 12.74290756 28.59275421 13.13034637 29.45753479 13.52952576 C37.88929598 17.41800186 46.34698687 21.2481724 54.8125 25.0625 C55.48892548 25.36740356 56.16535095 25.67230713 56.86227417 25.9864502 C60.574077 27.65935298 64.28663338 29.33057056 68 31 C68 31.66 68 32.32 68 33 C58.89079278 37.18922506 49.77384867 41.3610418 40.64727783 45.51231384 C35.55839585 47.82859899 30.47797235 50.16231655 25.40301514 52.50894165 C22.1432997 54.01193925 18.87700526 55.50021454 15.60900879 56.98510742 C14.04296653 57.700341 12.47968603 58.4216544 10.91931152 59.14916992 C8.72926043 60.16907142 6.53032631 61.16682052 4.328125 62.16015625 C3.68782349 62.46454117 3.04752197 62.76892609 2.38781738 63.08253479 C-2.79023749 65.37447969 -6.56572162 65.21553619 -11.86407471 63.34022522 C-13.90035787 62.51921742 -15.89423886 61.63240763 -17.890625 60.71875 C-18.62945923 60.38891113 -19.36829346 60.05907227 -20.1295166 59.71923828 C-22.50705355 58.6549041 -24.87856366 57.57784938 -27.25 56.5 C-28.87637353 55.7683152 -30.50300184 55.03719644 -32.12988281 54.30664062 C-43.15252935 49.34474699 -54.12965175 44.28827753 -65 39 C-65 38.67 -65 38.34 -65 38 C-50.65523387 36.80315033 -36.29630727 36.67280042 -21.91015625 36.44775391 C-18.69523234 36.39615987 -15.48044409 36.33895625 -12.265625 36.28125 C-11.27822327 36.26767456 -10.29082153 36.25409912 -9.27349854 36.2401123 C-8.36114441 36.22339478 -7.44879028 36.20667725 -6.50878906 36.18945312 C-5.70797913 36.17692505 -4.90716919 36.16439697 -4.08209229 36.15148926 C-1.80442115 36.07178014 -1.80442115 36.07178014 1 35 C1.2784375 33.1128125 1.2784375 33.1128125 1.5625 31.1875 C1.66691406 30.47980469 1.77132812 29.77210938 1.87890625 29.04296875 C2.13904799 26.7974658 2.13904799 26.7974658 1 24 C-19.46 24 -39.92 24 -61 24 C-57.2889899 21.21674242 -53.70092455 19.33592131 -49.515625 17.453125 C-48.41574249 16.95168976 -48.41574249 16.95168976 -47.29364014 16.44012451 C-44.94779928 15.37219585 -42.59891643 14.3111439 -40.25 13.25 C-38.71725686 12.55250302 -37.184703 11.85458995 -35.65234375 11.15625 C-32.6112345 9.77150986 -29.56455811 8.40016002 -26.51367188 7.03710938 C-23.48890497 5.68329674 -20.49031126 4.28579789 -17.50195312 2.85351562 C-16.07946109 2.18872931 -14.65693649 1.52401268 -13.234375 0.859375 C-12.27087128 0.38120331 -12.27087128 0.38120331 -11.28790283 -0.10662842 C-6.74208061 -2.196307 -4.4951572 -2.07128012 0 0 Z " fill="#00969C" transform="translate(241,169)"/>
<path d="M0 0 C0.99 0.99 0.99 0.99 2 2 C-24.07 28.07 -50.14 54.14 -77 81 C-79 80 -79 80 -79.8515625 77.91015625 C-84.64595683 60.25806804 -82.46502059 43.84360504 -73.9375 27.75 C-67.57803218 17.60250135 -58.73775197 9.31554278 -48 4 C-46.89398438 3.43732422 -46.89398438 3.43732422 -45.765625 2.86328125 C-31.39934256 -3.98872226 -15.12494919 -5.70456561 0 0 Z " fill="#FBFCFC" transform="translate(397,329)"/>
<path d="M0 0 C5.31873568 14.37324999 4.79261326 32.03611799 -1.54492188 45.95092773 C-5.29278054 53.72809414 -9.7227626 60.00150316 -16 66 C-16.61230469 66.63164062 -17.22460938 67.26328125 -17.85546875 67.9140625 C-29.31950302 79.01144322 -44.5510135 83.20107553 -60.0625 83.375 C-60.98482422 83.38909912 -61.90714844 83.40319824 -62.85742188 83.41772461 C-69.34631779 83.37205259 -74.8957232 82.17720583 -81 80 C-81 79.34 -81 78.68 -81 78 C-79.50994682 76.530509 -79.50994682 76.530509 -77.46212769 74.83201599 C-73.30730536 71.29637242 -69.44141142 67.56408608 -65.60595703 63.68774414 C-64.91549789 62.99421844 -64.22503876 62.30069275 -63.51365662 61.58615112 C-62.03012831 60.09552366 -60.54773262 58.60376826 -59.06637955 57.11097908 C-56.72401123 54.75110232 -54.37801407 52.39488888 -52.03097534 50.03965759 C-45.36401135 43.34832745 -38.70284737 36.65124454 -32.04589844 29.94995117 C-27.96252632 25.8398837 -23.87436692 21.73462956 -19.78316879 17.63235283 C-18.22548893 16.06844967 -16.66971102 14.50264979 -15.11584854 12.93495369 C-12.95427381 10.75428321 -10.78672023 8.57973105 -8.61767578 6.40649414 C-7.97353226 5.75358902 -7.32938873 5.1006839 -6.66572571 4.42799377 C-2.22789887 0 -2.22789887 0 0 0 Z " fill="#FCFDFD" transform="translate(437,368)"/>
<path d="M0 0 C2.97 0.99 5.94 1.98 9 3 C8.97381592 3.99854004 8.94763184 4.99708008 8.9206543 6.02587891 C8.82979327 9.74928159 8.77262229 13.47258738 8.7253418 17.19677734 C8.70027872 18.80501818 8.66621829 20.41314602 8.62280273 22.02099609 C8.56178152 24.33980239 8.53371037 26.65709665 8.51171875 28.9765625 C8.48591232 29.68930328 8.4601059 30.40204407 8.43351746 31.13638306 C8.4313703 35.00394856 8.97102462 37.43129619 11.37109375 40.39160156 C27.16468864 56.06199233 57.13159214 55.31767966 77.66650391 55.3112793 C88.64214898 55.18214594 99.22003593 53.98004764 110 52 C111.99964331 51.66453352 113.99948255 51.33021362 116 51 C104.84465501 63.31200518 80.28672393 63.26491918 64.65234375 64.12988281 C45.18757357 64.9562174 17.8698912 64.80481965 1.48876953 52.77929688 C-1.66077309 49.01513377 -0.83805166 44.01437149 -0.68359375 39.35546875 C-0.67368912 38.2305452 -0.66378448 37.10562164 -0.65357971 35.9466095 C-0.61444089 32.35890516 -0.52661098 28.77427713 -0.4375 25.1875 C-0.40238589 22.75329944 -0.37044708 20.31905085 -0.34179688 17.88476562 C-0.26467878 11.92199448 -0.14389109 5.96151849 0 0 Z " fill="#147B7C" transform="translate(177,224)"/>
<path d="M0 0 C0.98742187 0.42539063 1.97484375 0.85078125 2.9921875 1.2890625 C3.94351563 1.72992188 4.89484375 2.17078125 5.875 2.625 C7.32519531 3.29402344 7.32519531 3.29402344 8.8046875 3.9765625 C9.89136719 4.48316406 9.89136719 4.48316406 11 5 C9.45350037 8.09299925 6.92616769 8.5537277 3.8046875 9.93359375 C3.17901886 10.21219742 2.55335022 10.49080109 1.90872192 10.77784729 C-0.09988681 11.6704773 -2.11235173 12.55402145 -4.125 13.4375 C-5.45859154 14.02871479 -6.79192807 14.62050515 -8.125 15.21289062 C-11.7455736 16.81879609 -15.37008406 18.41529212 -19 20 C-20.7929248 20.82153564 -20.7929248 20.82153564 -22.62207031 21.65966797 C-25.68145984 22.87360614 -27.7935145 23.40579355 -31.0390625 23.51171875 C-32.39620361 23.56501343 -32.39620361 23.56501343 -33.78076172 23.61938477 C-34.71936035 23.64186279 -35.65795898 23.66434082 -36.625 23.6875 C-38.07737061 23.73765259 -38.07737061 23.73765259 -39.55908203 23.78881836 C-46.70532995 24.01843824 -53.85054312 24.12140587 -61 24 C-57.51114505 21.08928545 -53.62608432 19.30225373 -49.515625 17.453125 C-48.78237 17.11883484 -48.04911499 16.78454468 -47.29364014 16.44012451 C-44.94779928 15.37219585 -42.59891643 14.3111439 -40.25 13.25 C-38.71725686 12.55250302 -37.184703 11.85458995 -35.65234375 11.15625 C-32.6112345 9.77150986 -29.56455811 8.40016002 -26.51367188 7.03710938 C-23.48890497 5.68329674 -20.49031126 4.28579789 -17.50195312 2.85351562 C-16.07946109 2.18872931 -14.65693649 1.52401268 -13.234375 0.859375 C-12.27087128 0.38120331 -12.27087128 0.38120331 -11.28790283 -0.10662842 C-6.80269508 -2.16844301 -4.44801712 -2.04810501 0 0 Z " fill="#147A7B" transform="translate(241,169)"/>
<path d="M0 0 C2 1 2 1 2.8515625 3.06640625 C3.56770833 5.37760417 4.28385417 7.68880208 5 10 C1.37 9.67 -2.26 9.34 -6 9 C-4.02 6.03 -2.04 3.06 0 0 Z " fill="#EEBB07" transform="translate(130,260)"/>
</svg>
