<?xml version="1.0" encoding="UTF-8"?>
<svg version="1.1" xmlns="http://www.w3.org/2000/svg" width="512" height="512">
<path d="M0 0 C1.12175629 0.00131424 1.12175629 0.00131424 2.26617432 0.00265503 C14.71787656 0.05063175 26.53138127 0.9322415 38.5625 4.375 C39.38814453 4.61105957 40.21378906 4.84711914 41.06445312 5.09033203 C78.84659636 16.33363674 109.30426978 41.87632716 128.1875 76.375 C137.98613405 94.90922876 143.79721963 116.4917679 143.66015625 137.46875 C143.65803383 138.71694519 143.65803383 138.71694519 143.65586853 139.99035645 C143.65032167 142.6186093 143.63777945 145.24677338 143.625 147.875 C143.61997812 149.66926959 143.61541642 151.46354054 143.61132812 153.2578125 C143.60036972 157.63024195 143.58314248 162.00260598 143.5625 166.375 C144.18125 166.65859375 144.8 166.9421875 145.4375 167.234375 C152.87163512 171.22475635 157.13162763 181.67037063 159.5625 189.375 C159.85060547 190.25478516 159.85060547 190.25478516 160.14453125 191.15234375 C162.88072799 205.70277315 159.55796795 219.11779678 151.5625 231.375 C145.75241374 238.80849271 138.09647556 243.72082751 128.86376953 245.50048828 C125.36536641 246.26922651 122.37198938 247.07212582 119.5625 249.375 C116.71054373 254.08908206 115.56738554 259.51104713 114.16015625 264.7890625 C106.83983981 292.18272902 83.76985205 313.84001117 60.5625 328.375 C59.2425 329.035 57.9225 329.695 56.5625 330.375 C56.5625 334.335 56.5625 338.295 56.5625 342.375 C71.95282392 352.54142224 83.3452725 358.97738798 102.25927734 358.35986328 C113.76400386 358.43547204 125.76262257 365.50900981 133.9375 373.1875 C142.27072026 382.16040729 148.64092111 394.55591652 148.70967102 406.973526 C148.72040398 408.31301552 148.72040398 408.31301552 148.73135376 409.67956543 C148.73404266 410.64648315 148.73673157 411.61340088 148.73950195 412.60961914 C148.74607315 413.63780258 148.75264435 414.66598602 148.75941467 415.72532654 C148.77909221 419.12027055 148.79079414 422.51517057 148.80078125 425.91015625 C148.80485678 427.07002989 148.8089323 428.22990353 148.81313133 429.42492485 C148.83396222 435.55680029 148.84828032 441.68865351 148.85766602 447.82055664 C148.86876134 454.16168952 148.90320586 460.50247448 148.94283772 466.84348392 C148.96892835 471.71529307 148.97735083 476.58701804 148.98094749 481.45889091 C148.98582817 483.79733077 148.99748395 486.1357665 149.01598549 488.47413826 C149.04022946 491.73963611 149.03943939 495.00421586 149.0324707 498.26977539 C149.05168579 499.72318832 149.05168579 499.72318832 149.07128906 501.20596313 C149.02127399 507.61772083 149.02127399 507.61772083 146.98783875 510.97422791 C143.63567304 512.91029567 141.15346714 512.88319578 137.28710938 512.89257812 C136.56143265 512.8995874 135.83575592 512.90659668 135.08808899 512.91381836 C132.69375127 512.93139717 130.30059934 512.91977706 127.90625 512.90625 C126.24002862 512.90894497 124.57380877 512.91282744 122.90759277 512.91784668 C119.41724662 512.92374153 115.92731021 512.9151795 112.43701172 512.89648438 C107.96438737 512.87369445 103.4927231 512.88681766 99.02013397 512.91077423 C95.57998427 512.92523277 92.14006197 512.92062605 88.6999054 512.91026306 C87.0508869 512.90759591 85.40184773 512.91086515 83.75285339 512.92018127 C81.44731008 512.93034829 79.14331843 512.91484614 76.83789062 512.89257812 C74.87076111 512.88780457 74.87076111 512.88780457 72.8638916 512.88293457 C69.5625 512.375 69.5625 512.375 67.10778809 510.53015137 C65.5625 508.375 65.5625 508.375 65.5625 505.375 C59.2925 505.375 53.0225 505.375 46.5625 505.375 C45.9025 507.025 45.2425 508.675 44.5625 510.375 C42.11452486 512.82297514 40.77004234 512.6203132 37.42861331 512.6564731 C36.70956014 512.65405802 35.99050697 512.65164293 35.24966431 512.64915466 C34.48715343 512.65439134 33.72464255 512.65962802 32.93902528 512.66502339 C30.37026798 512.68008943 27.8017087 512.68072997 25.23291016 512.68139648 C23.39676067 512.68901355 21.56061439 512.69744025 19.72447205 512.70661926 C14.72654132 512.72861601 9.72867178 512.73737011 4.73069811 512.74244571 C1.61061274 512.7460832 -1.50945645 512.75232006 -4.62953568 512.7594471 C-15.50758828 512.78395964 -26.38559307 512.79699737 -37.26367188 512.80053711 C-47.41459085 512.80417373 -57.5652077 512.83407354 -67.71603429 512.87594169 C-76.42180816 512.91059487 -85.12748167 512.92608469 -93.83332407 512.92678314 C-99.03703314 512.92757767 -104.24043471 512.93639637 -109.44407272 512.96478081 C-114.33775276 512.99087633 -119.23086851 512.9932145 -124.12458611 512.97712517 C-125.92253406 512.97530386 -127.72051383 512.98206256 -129.51839256 512.99794388 C-131.96983567 513.01828115 -134.41928144 513.00792762 -136.87069702 512.98973083 C-137.58528875 513.0029308 -138.29988047 513.01613077 -139.03612649 513.02973074 C-142.73805893 512.96679506 -144.17425987 512.62939399 -146.87798882 510.01652336 C-148.7357256 506.86986102 -148.95274985 504.93908026 -148.98339844 501.29956055 C-149.00311707 500.09869308 -149.02283569 498.89782562 -149.04315186 497.66056824 C-149.04438049 496.37394791 -149.04560913 495.08732758 -149.046875 493.76171875 C-149.06186515 492.42362982 -149.07859407 491.08555933 -149.09698486 489.74751282 C-149.14057816 486.23765183 -149.16063919 482.72804039 -149.17572021 479.21795654 C-149.19532065 475.63148288 -149.23728719 472.04527758 -149.27734375 468.45898438 C-149.35255828 461.43109095 -149.40290253 454.40320757 -149.4375 447.375 C-150.11029495 447.51375549 -150.7830899 447.65251099 -151.47627258 447.79547119 C-152.81120003 448.0673526 -152.81120003 448.0673526 -154.1730957 448.34472656 C-155.49166313 448.6147348 -155.49166313 448.6147348 -156.83686829 448.89019775 C-160.44480869 449.56277957 -163.96062641 449.87902033 -167.625 450.125 C-169.59533203 450.27195312 -169.59533203 450.27195312 -171.60546875 450.421875 C-176.445513 450.36266957 -180.60850288 449.91981031 -184.3984375 446.71875 C-184.86507812 446.1103125 -185.33171875 445.501875 -185.8125 444.875 C-186.29460937 444.2665625 -186.77671875 443.658125 -187.2734375 443.03125 C-189.48479081 439.88489495 -189.56646042 437.8515189 -189.57794189 434.03437805 C-189.58365204 432.90056702 -189.58936218 431.76675598 -189.59524536 430.59858704 C-189.59636322 429.34829208 -189.59748108 428.09799713 -189.59863281 426.80981445 C-189.60359772 425.49737762 -189.60856262 424.1849408 -189.61367798 422.83273315 C-189.62681935 419.22245595 -189.63325212 415.61219736 -189.63768864 412.00189996 C-189.64062096 409.74139358 -189.64472642 407.48089225 -189.64919281 405.22038841 C-189.66288197 398.1345002 -189.67253757 391.04862359 -189.6763947 383.96272308 C-189.6808573 375.81035666 -189.69831492 367.65815944 -189.7273953 359.50584441 C-189.74912821 353.19139342 -189.75910538 346.87698955 -189.76043582 340.56250161 C-189.76147703 336.79882218 -189.76723528 333.03530145 -189.78525543 329.27166176 C-189.80193438 325.71836695 -189.80379748 322.1653466 -189.79511642 318.61202621 C-189.79399835 316.71242497 -189.80756807 314.81283204 -189.8218689 312.9132843 C-189.68970837 285.13710817 -177.92383656 259.68594382 -158.5 240.1875 C-155.87113551 237.60402598 -153.50557719 235.42038479 -150.4375 233.375 C-151.85766152 229.63342061 -153.56686981 226.16049106 -155.4375 222.625 C-161.22479739 211.06452058 -161.94387285 199.85531994 -158.4765625 187.36328125 C-156.60706246 181.98671158 -154.31517219 175.61251549 -149.70019531 172.02416992 C-146.33420919 169.33694818 -144.650091 167.49059253 -143.82714844 163.17211914 C-143.66334026 159.9163245 -143.60028059 156.68743413 -143.65466309 153.42803955 C-143.71046563 149.83292451 -143.64486727 146.23944208 -143.59375 142.64453125 C-143.58260162 141.57467987 -143.58260162 141.57467987 -143.57122803 140.48321533 C-143.3177718 121.49151584 -139.28040915 102.90106154 -131.875 85.4375 C-131.59430664 84.7686377 -131.31361328 84.09977539 -131.02441406 83.41064453 C-129.40010409 79.78754662 -127.99713412 77.26649185 -124.4375 75.375 C-123.344375 75.375 -122.25125 75.375 -121.125 75.375 C-115.83051978 73.93920875 -114.59414992 70.72358305 -111.91796875 66.13671875 C-110.71847095 63.89913315 -109.54886791 61.65737019 -108.4375 59.375 C-108.7675 59.045 -109.0975 58.715 -109.4375 58.375 C-109.99603932 54.39540732 -110.34107915 51.80474871 -108.15625 48.34765625 C-106.33423566 46.25648071 -104.41938488 44.31487962 -102.4375 42.375 C-101.88191406 41.76140625 -101.32632813 41.1478125 -100.75390625 40.515625 C-81.92085042 20.21451359 -55.1739801 7.98055384 -28.4375 2.375 C-27.5606958 2.18953613 -26.6838916 2.00407227 -25.78051758 1.81298828 C-17.19643009 0.18270246 -8.70325228 -0.02497121 0 0 Z M-69.4375 322.375 C-69.4375 331.615 -69.4375 340.855 -69.4375 350.375 C-61.32356253 347.38680718 -61.32356253 347.38680718 -54.4375 342.375 C-53.5701045 338.25355714 -53.83341059 334.52308058 -54.4375 330.375 C-56.7485361 329.03907203 -59.06121755 327.70615569 -61.375 326.375 C-62.03435547 325.9934375 -62.69371094 325.611875 -63.37304688 325.21875 C-66.23518502 323.24990953 -66.23518502 323.24990953 -69.4375 322.375 Z " fill="#010101" transform="translate(270.4375,-0.37499999999999994)"/>
<path d="M0 0 C0.66 0 1.32 0 2 0 C3.04198001 1.71334323 4.0062566 3.4740346 4.9375 5.25 C15.18310414 23.25420478 32.42311354 35.20023856 52.30157471 40.68528748 C62.61341782 43.15900293 73.39959095 42.68291434 83.9375 42.75 C86.18166307 42.77821623 88.42580521 42.80815134 90.66992188 42.83984375 C96.11319905 42.91302946 101.55634983 42.96506305 107 43 C107.10288179 50.46651191 107.17207458 57.93283593 107.21972656 65.39990234 C107.23962785 67.93089629 107.26675873 70.46184559 107.30175781 72.99267578 C107.55514519 91.81041513 107.28069878 110.52575379 99.25 127.9375 C98.90638428 128.71416016 98.56276855 129.49082031 98.20874023 130.29101562 C93.03857957 141.67926293 86.2741189 151.61760462 78 161 C77.20916016 161.91652344 77.20916016 161.91652344 76.40234375 162.8515625 C59.21051242 181.40642905 32.18714208 192.78558858 7.18359375 194.21875 C-20.14317805 195.07483968 -47.36557898 187.41335487 -68 169 C-68.804375 168.33742188 -69.60875 167.67484375 -70.4375 166.9921875 C-90.52207188 149.98306569 -102.58201319 124.92998739 -106 99 C-106.24531503 94.55496773 -106.2346414 90.12645071 -106.1953125 85.67578125 C-106.1924826 84.44836716 -106.18965271 83.22095306 -106.18673706 81.9563446 C-106.1756325 78.07495962 -106.15054606 74.19381405 -106.125 70.3125 C-106.11495763 67.6647169 -106.10583399 65.01693014 -106.09765625 62.36914062 C-106.07572508 55.91268013 -106.04234558 49.45635718 -106 43 C-105.43338654 42.99191315 -104.86677307 42.98382629 -104.2829895 42.97549438 C-98.34469509 42.88892383 -92.40671454 42.78940252 -86.46875 42.68261719 C-84.25754093 42.64451516 -82.04627383 42.60963079 -79.83496094 42.578125 C-76.64236825 42.53206415 -73.45016861 42.47414002 -70.2578125 42.4140625 C-68.79313034 42.39673569 -68.79313034 42.39673569 -67.29885864 42.37905884 C-45.9505326 41.92790421 -26.94961318 33.17274173 -12 18 C-6.97573065 12.41169351 -3.05248498 6.8680912 0 0 Z " fill="#FDCCBD" transform="translate(270,134)"/>
<path d="M0 0 C1.1653125 0.28875 2.330625 0.5775 3.53125 0.875 C24.18978727 6.60211924 41.80940936 18.16063689 57 33 C57.78890625 33.72703125 58.5778125 34.4540625 59.390625 35.203125 C79.78429908 54.45589423 93.03922801 84.1330138 95 112 C95.12296872 117.36827037 95.10104846 122.73236536 95.06640625 128.1015625 C95.0610652 129.5511864 95.05621935 131.00081221 95.05187988 132.45043945 C95.04029084 135.96700004 95.02201731 139.48348742 95 143 C86.22810849 143.09324882 77.45639121 143.16404022 68.68410969 143.20724869 C64.60945772 143.22800111 60.53514828 143.25608837 56.46069336 143.30175781 C52.51841623 143.3456622 48.57646564 143.36922956 44.63396263 143.37950897 C43.14025936 143.38682134 41.64657115 143.40109716 40.15300941 143.42292023 C21.98302575 143.67751554 5.64259018 138.34251349 -7.65234375 125.56640625 C-15.87802522 116.57427193 -20.61041868 107.60628961 -24 96 C-24.29970703 95.01193359 -24.29970703 95.01193359 -24.60546875 94.00390625 C-25.3745043 90.09781479 -25.29372905 86.06442303 -25.42578125 82.09375 C-26.10540545 78.43210126 -27.05771387 77.22008862 -30 75 C-33.04253508 74.41654524 -33.04253508 74.41654524 -36 75 C-38.03667615 76.54506466 -38.86073078 77.72146156 -40 80 C-40.1926052 81.71669848 -40.38119112 83.4340002 -40.54370117 85.15380859 C-41.84248626 98.35069468 -45.58270378 109.58291418 -54 120 C-54.54527344 120.70769531 -55.09054688 121.41539062 -55.65234375 122.14453125 C-64.70815512 133.28850618 -78.82537953 140.94577847 -93 143 C-98.25284836 143.26615715 -103.49669141 143.23374209 -108.75390625 143.1953125 C-110.265618 143.19157551 -111.77733219 143.18873179 -113.28904724 143.18673706 C-117.23950054 143.17915453 -121.18980332 143.15955326 -125.14019775 143.1373291 C-129.18263718 143.11675378 -133.22510127 143.10771052 -137.26757812 143.09765625 C-145.17845396 143.07630147 -153.08920818 143.04223175 -161 143 C-161.07532769 138.14773788 -161.12914464 133.29583137 -161.16479492 128.44311523 C-161.17968883 126.79950009 -161.20001089 125.15592326 -161.22631836 123.51245117 C-161.44955461 109.18593662 -159.8158797 96.19221739 -155.0625 82.5625 C-154.82337891 81.83869141 -154.58425781 81.11488281 -154.33789062 80.36914062 C-152.83362177 75.94365308 -151.01419381 71.83699446 -148.81616211 67.71142578 C-147.64602742 65.2577482 -147.42488591 63.65990268 -148 61 C-149.30014261 59.30731434 -150.63120384 57.63766683 -152 56 C-148.66666667 51 -145.33333333 46 -142 41 C-140.109375 41.19921875 -140.109375 41.19921875 -137.75 41.6875 C-133.68033185 41.82763205 -131.65749021 40.98449784 -128.75390625 38.28125 C-126.97424075 36.47343333 -125.25022899 34.62059305 -123.52197266 32.76367188 C-92.57369812 -0.36499275 -43.00043389 -11.10712314 0 0 Z " fill="#D5684A" transform="translate(304,19)"/>
<path d="M0 0 C11.33267931 0 11.33267931 0 15.09570312 3.35107422 C15.60037109 3.87459473 16.10503906 4.39811523 16.625 4.9375 C17.17349609 5.49453613 17.72199219 6.05157227 18.28710938 6.62548828 C25.31765276 14.58971101 27.51938309 25.05701336 30.20947266 35.08935547 C35.61098487 54.97719631 43.51769996 71.85984696 61.91796875 82.72265625 C71.78654729 87.91866073 80.52350167 90.23726475 91.625 90.3125 C92.41269775 90.31813965 93.20039551 90.3237793 94.01196289 90.32958984 C110.44943055 90.12718755 125.27733557 83.407223 137.1875 72.25 C145.28834702 63.61786084 149.54308523 53.88648072 153.1875 42.75 C153.62794318 41.45336535 154.06960347 40.15714352 154.51245117 38.86132812 C156.67885122 32.45413139 158.49438065 26.13222159 159.8125 19.5 C161.28105022 13.59099934 164.01006866 9.90083185 168.125 5.5625 C168.90580933 4.71751953 168.90580933 4.71751953 169.70239258 3.85546875 C175.01780697 -1.20087233 176.65089125 0 185 0 C185 40.92 185 81.84 185 124 C177.74 124.33 170.48 124.66 163 125 C158.9254644 128.47825081 158.9254644 128.47825081 158 132 C151.4 132 144.8 132 138 132 C137.01 129.525 137.01 129.525 136 127 C132.6399162 124.75994413 131.52015836 124.74375207 127.59004211 124.7215271 C125.90523239 124.70478188 125.90523239 124.70478188 124.18638611 124.68769836 C122.95352371 124.68553818 121.72066132 124.68337799 120.45043945 124.68115234 C119.15277649 124.67110672 117.85511353 124.6610611 116.51812744 124.65071106 C112.95851385 124.62337905 109.3989399 124.60825225 105.8392489 124.59528303 C102.11960816 124.57966644 98.40004856 124.55287156 94.6804657 124.5272522 C87.63636019 124.48043827 80.59223946 124.44370685 73.54805773 124.41057932 C64.02964237 124.36523485 54.51132728 124.30435293 44.99299526 124.24433136 C29.99538041 124.15016849 14.9977371 124.07679747 0 124 C0 83.08 0 42.16 0 0 Z " fill="#3591BA" transform="translate(178,373)"/>
<path d="M0 0 C2.55104102 1.08790451 2.55104102 1.08790451 4.69775391 1.25878906 C6.99250818 1.57024639 8.67391713 1.93448157 10.72265625 3.02734375 C12.59668075 6.02586131 13.35132775 9.24791757 14.22265625 12.65234375 C14.78897348 14.5743504 15.36462029 16.49363091 15.94921875 18.41015625 C16.23829102 19.3630957 16.52736328 20.31603516 16.82519531 21.29785156 C20.48702217 32.43474609 27.58160315 47.46242747 36.99023438 54.79443359 C41.58941149 58.73490272 43.87978018 62.12710539 44.46362305 68.17041016 C44.75830859 74.42090924 44.55643084 80.65221297 44.34765625 86.90234375 C44.31103715 89.0871752 44.27844821 91.27207813 44.25 93.45703125 C44.18363303 97.44475581 44.10614831 101.43119193 43.97900391 105.41748047 C43.95407867 106.21338593 43.92915344 107.00929138 43.9034729 107.82931519 C43.72540037 109.99398594 43.3125976 111.94065732 42.72265625 114.02734375 C41.21638672 114.06601562 41.21638672 114.06601562 39.6796875 114.10546875 C24.18034763 114.67528341 9.06593795 118.45675347 -2.66015625 129.28515625 C-11.51479928 138.82421613 -17.19374212 150.73289056 -17.59375 163.76171875 C-17.63564453 165.05722656 -17.67753906 166.35273438 -17.72070312 167.6875 C-17.76051046 169.05077851 -17.80022281 170.41405981 -17.83984375 171.77734375 C-17.88306649 173.1562625 -17.92668196 174.53516901 -17.97070312 175.9140625 C-18.07678333 179.28505565 -18.17884225 182.65612201 -18.27734375 186.02734375 C-24.54273135 188.47500131 -30.49362735 189.32165591 -37.15625 189.625 C-38.33145203 189.68596863 -38.33145203 189.68596863 -39.53039551 189.74816895 C-41.44576871 189.84674896 -43.36152604 189.93781706 -45.27734375 190.02734375 C-45.32422976 173.84078369 -45.35941346 157.65424592 -45.38096809 141.4676342 C-45.39124583 133.95056757 -45.4052385 126.43354332 -45.42822266 118.91650391 C-45.44826451 112.35858063 -45.46108558 105.80068808 -45.46552074 99.24273503 C-45.46811 95.77586822 -45.47412123 92.30908925 -45.48880386 88.84225082 C-45.50512727 84.9558533 -45.50531659 81.06953881 -45.50439453 77.18310547 C-45.51158508 76.05524628 -45.51877563 74.92738708 -45.52618408 73.76535034 C-45.45869635 47.26862922 -36.57096034 25.70758866 -18.21484375 6.71484375 C-16.91210079 5.47534074 -15.60010317 4.24546298 -14.27734375 3.02734375 C-13.71402344 2.46273437 -13.15070313 1.898125 -12.5703125 1.31640625 C-8.15672302 -2.59070575 -5.35228108 -2.08193905 0 0 Z " fill="#D4684A" transform="translate(141.27734375,243.97265625)"/>
<path d="M0 0 C7.7029597 1.54059194 13.7429888 5.80129379 18.65234375 11.94140625 C24.34424149 20.63598627 26.15745656 28.74332331 26.11352539 38.92114258 C26.11367142 39.80944763 26.11381744 40.69775269 26.1139679 41.61297607 C26.11327293 44.54018624 26.1055 47.46733225 26.09765625 50.39453125 C26.09579059 52.42762721 26.09436739 54.46072362 26.09336853 56.49382019 C26.08955499 61.83838141 26.07973462 67.18291536 26.06866455 72.52746582 C26.05842543 77.98380158 26.05386555 83.44014177 26.04882812 88.89648438 C26.03811132 99.59767015 26.02052392 110.29882854 26 121 C17.42 121 8.84 121 0 121 C0 81.07 0 41.14 0 0 Z " fill="#D2E5F5" transform="translate(378,376)"/>
<path d="M0 0 C0 39.93 0 79.86 0 121 C-8.25 121 -16.5 121 -25 121 C-25.06788817 109.02974909 -25.12288103 97.05962691 -25.15543652 85.08922672 C-25.17106475 79.53035874 -25.19225114 73.97162978 -25.22631836 68.4128418 C-25.25901309 63.04415465 -25.27687438 57.67560088 -25.28463173 52.30682182 C-25.29015709 50.26279032 -25.30094668 48.21876577 -25.31719017 46.17479134 C-25.33909882 43.30264876 -25.34196131 40.43105113 -25.34057617 37.55883789 C-25.351362 36.72157669 -25.36214783 35.88431549 -25.3732605 35.02168274 C-25.31769423 24.31143798 -21.27188693 15.32680242 -13.75 7.7265625 C-5.27030686 0 -5.27030686 0 0 0 Z " fill="#E9F5FE" transform="translate(163,376)"/>
<path d="M0 0 C4.95 0 9.9 0 15 0 C15.10017105 7.46659601 15.17207426 14.93278612 15.21972656 22.39990234 C15.23962785 24.93089629 15.26675873 27.46184559 15.30175781 29.99267578 C15.55514519 48.81041513 15.28069878 67.52575379 7.25 84.9375 C6.73457642 86.10249023 6.73457642 86.10249023 6.20874023 87.29101562 C1.03857957 98.67926293 -5.7258811 108.61760462 -14 118 C-14.52722656 118.61101562 -15.05445313 119.22203125 -15.59765625 119.8515625 C-26.27128165 131.37143441 -43.10998854 143.1655837 -59 145 C-55.42330853 142.05681846 -51.72911216 139.44125158 -47.875 136.875 C-29.21299689 124.0924428 -10.97652791 102.73487488 -6 80 C-6.99 80.495 -6.99 80.495 -8 81 C-11.95215076 81.29557554 -15.91309123 81.2779886 -19.875 81.3125 C-21.52822266 81.35600586 -21.52822266 81.35600586 -23.21484375 81.40039062 C-24.80619141 81.41295898 -24.80619141 81.41295898 -26.4296875 81.42578125 C-27.88737549 81.44765503 -27.88737549 81.44765503 -29.37451172 81.4699707 C-32.76351582 80.86332826 -33.92593973 79.70133263 -36 77 C-36.5 73.5 -36.5 73.5 -36 70 C-33.98032301 67.41454748 -32.76965138 66.16620758 -29.52978516 65.46655273 C-26.55993513 65.43083834 -23.59503392 65.40610039 -20.625 65.4375 C-19.08199219 65.40172852 -19.08199219 65.40172852 -17.5078125 65.36523438 C-9.06756867 65.38154928 -9.06756867 65.38154928 -5.2734375 68.53515625 C-4.52320313 69.34855469 -3.77296875 70.16195312 -3 71 C-0.96139104 62.88277954 -0.66105768 55.02130201 -0.5859375 46.6796875 C-0.56718422 45.32633336 -0.54760787 43.97299041 -0.5272522 42.61965942 C-0.4763634 39.09186456 -0.43650918 35.56403197 -0.39910889 32.03607178 C-0.35879475 28.42239381 -0.30782886 24.80886689 -0.2578125 21.1953125 C-0.1615669 14.13031383 -0.07798824 7.06522727 0 0 Z " fill="#FCAE9C" transform="translate(362,177)"/>
<path d="M0 0 C19.47744636 5.56498467 36.64823971 16.97581199 51 31 C51.79019531 31.72832031 52.58039063 32.45664062 53.39453125 33.20703125 C74.67034472 53.29050491 88.25810822 84.65853871 89.11132812 113.80273438 C89.2674854 122.86998689 89.1555269 131.93335777 89 141 C84.05 141 79.1 141 74 141 C73.98582031 138.66808594 73.97164063 136.33617187 73.95703125 133.93359375 C73.49559381 90.4569087 62.70195128 54.7847852 31.29296875 23.28515625 C21.9495066 14.24954594 11.29591667 7.34943332 0 1 C0 0.67 0 0.34 0 0 Z " fill="#C15539" transform="translate(310,21)"/>
<path d="M0 0 C0.66644531 0.19335938 1.33289063 0.38671875 2.01953125 0.5859375 C2.94121094 0.84632813 3.86289063 1.10671875 4.8125 1.375 C6.15248047 1.75785156 6.15248047 1.75785156 7.51953125 2.1484375 C18.25134192 4.77417793 28.5591226 5.39539367 39.5625 5.375 C40.75780838 5.37717529 40.75780838 5.37717529 41.9772644 5.37939453 C53.82996554 5.37700779 64.59254253 4.36662777 76 1 C76.99 1 77.98 1 79 1 C79.57750775 4.6960496 79.81402382 6.83346444 77.62890625 9.96484375 C75.65887204 12.06815723 73.61496195 14.04253522 71.5 16 C70.45585937 17.00933594 70.45585937 17.00933594 69.390625 18.0390625 C65.30636467 21.95692704 61.07906642 25.69047288 56.80371094 29.39697266 C53.52306432 32.31260959 50.53067339 35.50495475 47.4921875 38.66796875 C44.80043791 41.18673757 42.11162877 43.03832099 39 45 C38.2265625 44.21496094 37.453125 43.42992187 36.65625 42.62109375 C31.57512154 37.48759939 26.49721402 32.45613641 20.9921875 27.7734375 C17.66912003 24.81525587 14.59809975 21.60549511 11.47265625 18.44140625 C8.11766855 15.12881966 4.58374052 12.05974713 1 9 C0 8 0 8 -0.09765625 6.15234375 C-0.06510417 4.1015625 -0.03255208 2.05078125 0 0 Z " fill="#FCA58D" transform="translate(231,336)"/>
<path d="M0 0 C5.003688 -0.1580112 8.67531866 0.40113046 13 3 C16.31446077 8.49285013 17.51324148 15.15125466 19.18310547 21.28662109 C22.52151114 32.37539595 29.9998759 47.5449076 39.26757812 54.76708984 C43.86675524 58.70755897 46.15712393 62.09976164 46.7409668 68.14306641 C47.03565234 74.39356549 46.83377459 80.62486922 46.625 86.875 C46.5883809 89.05983145 46.55579196 91.24473438 46.52734375 93.4296875 C46.46097678 97.41741206 46.38349206 101.40384818 46.25634766 105.39013672 C46.23142242 106.18604218 46.20649719 106.98194763 46.18081665 107.80197144 C46 110 46 110 45 114 C40.38 114 35.76 114 31 114 C31.04189453 112.34548828 31.08378906 110.69097656 31.12695312 108.98632812 C31.27210276 102.82913026 31.36372255 96.67208256 31.43945312 90.51367188 C31.47508565 87.85095037 31.53410739 85.19169215 31.60351562 82.52929688 C31.70091936 78.69617355 31.7460123 74.86538798 31.78125 71.03125 C31.82254028 69.84760864 31.86383057 68.66396729 31.90637207 67.44445801 C31.94302455 61.09999179 31.94302455 61.09999179 29.25256348 55.52148438 C27.2574644 53.52876731 25.18863791 51.77325114 23 50 C11.65095557 35.92143855 2.59795652 17.99426726 0 0 Z " fill="#C25639" transform="translate(139,244)"/>
<path d="M0 0 C2.3125 1.375 2.3125 1.375 4 4 C4.33575329 5.59552182 4.62247104 7.2017085 4.875 8.8125 C5.75246103 14.20489689 7.94735803 17.3988752 12 21 C14.67655801 22.33827901 16.82434052 22.20578556 19.8125 22.25 C20.85019531 22.27578125 21.88789063 22.3015625 22.95703125 22.328125 C26.37667646 21.95938277 28.16694076 20.87881764 31 19 C31.66 19 32.32 19 33 19 C34.55392977 15.67015049 35.27983612 12.53505311 35.875 8.9375 C36.47679602 5.87837024 36.96634937 4.05435872 38.625 1.375 C42.33241166 -0.77139622 44.74282116 -0.54059414 49 0 C51.72989243 2.76091394 52.43131879 4.84896725 52.4375 8.6875 C52.14613675 17.31438571 47.85832194 24.80265479 42 31 C35.8341218 36.11608428 28.38913408 38.52973563 20.5 39.375 C10.21855197 38.27341628 1.22351189 34.34625116 -5.375 26.1875 C-9.85748415 19.63809261 -12.40259708 11.96930158 -11 4 C-8.21093968 -0.57405892 -5.10245628 -0.72892233 0 0 Z " fill="#050404" transform="translate(250,249)"/>
<path d="M0 0 C4.39383706 1.59623144 8.28995807 3.78024333 12.3125 6.125 C12.95767578 6.49753906 13.60285156 6.87007813 14.26757812 7.25390625 C15.84675945 8.16632213 17.42361864 9.08275509 19 10 C19 13 19 13 17.65820312 14.69824219 C17.03880859 15.30829102 16.41941406 15.91833984 15.78125 16.546875 C15.09546875 17.2275 14.4096875 17.908125 13.703125 18.609375 C12.97609375 19.31578125 12.2490625 20.0221875 11.5 20.75 C10.80390625 21.4409375 10.1078125 22.131875 9.390625 22.84375 C5.98114557 26.20271862 2.51781523 29.45514736 -1.109375 32.578125 C-5.51063546 36.37507854 -9.47992851 40.53854075 -13.41796875 44.80859375 C-15.046875 46.5 -15.046875 46.5 -18 49 C-22.29714593 48.5624289 -24.50747333 45.95957971 -27.5625 43.0625 C-30.32184016 40.46040853 -32.84271117 38.10485922 -36 36 C-36 35.34 -36 34.68 -36 34 C-34.53125 32.5546875 -34.53125 32.5546875 -32.5 30.875 C-29.53322639 28.35742098 -26.72425751 25.77831024 -24 23 C-21.50060236 20.46185201 -18.96218208 18.05871697 -16.25 15.75 C-10.51898432 10.83278854 -5.2959677 5.37540722 0 0 Z " fill="#D4E8F9" transform="translate(318,356)"/>
<path d="M0 0 C2.11695668 1.45330756 3.93552215 2.99560678 5.796875 4.765625 C6.51488281 5.44496094 7.23289063 6.12429688 7.97265625 6.82421875 C8.71386719 7.53449219 9.45507812 8.24476563 10.21875 8.9765625 C10.94449219 9.66363281 11.67023438 10.35070312 12.41796875 11.05859375 C16.0769877 14.53498786 19.68209906 18.05521215 23.234375 21.640625 C26.48457493 24.91090772 29.88731938 27.84858285 33.5 30.7109375 C34.96875 32.3515625 34.96875 32.3515625 34.96875 36.3515625 C33.10083442 38.42800324 31.30296804 40.20931295 29.21875 42.0390625 C28.67992187 42.53728516 28.14109375 43.03550781 27.5859375 43.54882812 C22.59382974 48.03563717 22.59382974 48.03563717 18.96875 48.3515625 C17.22387695 47.26611328 17.22387695 47.26611328 15.45703125 45.546875 C14.78961914 44.90854736 14.12220703 44.27021973 13.43457031 43.61254883 C12.72397461 42.90767334 12.01337891 42.20279785 11.28125 41.4765625 C10.54100586 40.76072998 9.80076172 40.04489746 9.03808594 39.30737305 C6.66629652 37.00385636 4.31526816 34.68080214 1.96875 32.3515625 C1.18483887 31.57603027 0.40092773 30.80049805 -0.40673828 30.00146484 C-4.72558472 25.72215018 -9.02146625 21.42085628 -13.29882812 17.10009766 C-15.53528709 14.84283736 -17.78219173 12.59626213 -20.03125 10.3515625 C-17.13088446 8.45037022 -14.20884617 6.58549626 -11.28125 4.7265625 C-10.45625 4.18515625 -9.63125 3.64375 -8.78125 3.0859375 C-7.98203125 2.58320313 -7.1828125 2.08046875 -6.359375 1.5625 C-5.6262207 1.09118652 -4.89306641 0.61987305 -4.13769531 0.13427734 C-2.03125 -0.6484375 -2.03125 -0.6484375 0 0 Z " fill="#D4E8F9" transform="translate(223.03125,356.6484375)"/>
<path d="M0 0 C3.46532161 3.46532161 4.81249559 5.17290006 6.6875 9.4375 C7.31205078 10.82775391 7.31205078 10.82775391 7.94921875 12.24609375 C10.10979482 17.90857006 10.13850496 23.21445188 10.11352539 29.1965332 C10.11367142 30.11409897 10.11381744 31.03166473 10.1139679 31.97703552 C10.11327275 35.00164171 10.10549897 38.02618586 10.09765625 41.05078125 C10.09579066 43.15113796 10.09436742 45.25149511 10.09336853 47.35185242 C10.08955449 52.8739645 10.07973368 58.39605019 10.06866455 63.91815186 C10.05842652 69.55545698 10.05386578 75.19276638 10.04882812 80.83007812 C10.03811043 91.88673033 10.02104735 102.94336297 10 114 C6.7 114 3.4 114 0 114 C0 76.38 0 38.76 0 0 Z " fill="#E9F5FE" transform="translate(379,383)"/>
<path d="M0 0 C12 0 12 0 14.9375 2 C15.9584375 3.485 15.9584375 3.485 17 5 C17.65742188 5.94166016 17.65742188 5.94166016 18.328125 6.90234375 C23.26924085 14.29981891 25.12092771 21.10191408 24 30 C21.58851052 38.30049169 18.03443915 45.91640602 10.5 50.53125 C3.87083333 54 3.87083333 54 0 54 C0 36.18 0 18.36 0 0 Z " fill="#F5937E" transform="translate(392,177)"/>
<path d="M0 0 C0 17.82 0 35.64 0 54 C-8.32554237 52.61240961 -13.53111528 48.38521728 -18.74609375 41.8203125 C-23.97425276 34.23052403 -23.84730713 25.93523882 -23 17 C-22.16434455 13.57779196 -20.91748169 10.94204653 -19 8 C-18.53722656 7.23429688 -18.07445312 6.46859375 -17.59765625 5.6796875 C-12.23726118 -1.84321413 -10.41174893 0 0 0 Z " fill="#FCAE9C" transform="translate(149,177)"/>
<path d="M0 0 C0.66644531 0.19335938 1.33289063 0.38671875 2.01953125 0.5859375 C2.94121094 0.84632813 3.86289063 1.10671875 4.8125 1.375 C6.15248047 1.75785156 6.15248047 1.75785156 7.51953125 2.1484375 C18.25134192 4.77417793 28.5591226 5.39539367 39.5625 5.375 C40.75780838 5.37717529 40.75780838 5.37717529 41.9772644 5.37939453 C53.82996554 5.37700779 64.59254253 4.36662777 76 1 C76.99 1 77.98 1 79 1 C79 3.31 79 5.62 79 8 C67.06388329 13.96805836 53.05290521 15.19956989 39.875 15.1875 C38.49175537 15.1862915 38.49175537 15.1862915 37.08056641 15.18505859 C29.55054948 15.11807257 22.41438964 14.35743245 15 13 C13.9584375 12.84402344 12.916875 12.68804687 11.84375 12.52734375 C10.8640625 12.37394531 9.884375 12.22054688 8.875 12.0625 C8.02679688 11.92972656 7.17859375 11.79695313 6.3046875 11.66015625 C3.5869267 10.881679 2.00974885 9.99139498 0 8 C-0.52799676 5.23857697 -0.18598981 2.83634455 0 0 Z " fill="#F1917C" transform="translate(231,336)"/>
<path d="M0 0 C1.96453125 -0.01546875 1.96453125 -0.01546875 3.96875 -0.03125 C7.5 0.5 7.5 0.5 9.93359375 2.34765625 C11.5 4.5 11.5 4.5 12.0625 7.4375 C11.31555085 11.50422314 9.69954812 12.97012474 6.5 15.5 C5.51 15.5 4.52 15.5 3.5 15.5 C3.52320313 16.53640625 3.54640625 17.5728125 3.5703125 18.640625 C3.58907667 20.01040944 3.60727618 21.3802017 3.625 22.75 C3.64175781 23.43191406 3.65851563 24.11382812 3.67578125 24.81640625 C3.71190707 28.53736538 3.71293235 31.42241197 1.5 34.5 C-1.99124017 36.82749345 -3.39222251 37.00299316 -7.5 36.5 C-10.38605416 34.32697099 -11.38918145 33.13396577 -12.01757812 29.5390625 C-12.02208984 28.41242188 -12.02660156 27.28578125 -12.03125 26.125 C-12.03640625 24.89265625 -12.0415625 23.6603125 -12.046875 22.390625 C-12.03140625 21.10671875 -12.0159375 19.8228125 -12 18.5 C-12.01546875 17.21609375 -12.0309375 15.9321875 -12.046875 14.609375 C-12.04171875 13.37703125 -12.0365625 12.1446875 -12.03125 10.875 C-12.02673828 9.74835938 -12.02222656 8.62171875 -12.01757812 7.4609375 C-10.80361618 0.51615899 -6.30705497 -0.04966185 0 0 Z " fill="#050403" transform="translate(330.5,191.5)"/>
<path d="M0 0 C1.96453125 -0.01546875 1.96453125 -0.01546875 3.96875 -0.03125 C8.09390425 0.58934843 9.0040001 1.24677155 11.5 4.5 C12.33353721 9.12660839 12.10255292 13.8067402 12.0625 18.5 C12.08634766 19.78390625 12.11019531 21.0678125 12.13476562 22.390625 C12.13283203 23.62296875 12.13089844 24.8553125 12.12890625 26.125 C12.12963135 27.25164062 12.13035645 28.37828125 12.13110352 29.5390625 C11.5 32.5 11.5 32.5 9.11694336 34.859375 C6.5 36.5 6.5 36.5 4 37.125 C1.04590182 36.38647546 -0.68420792 35.24446264 -2.5625 32.83203125 C-4.698357 27.51908696 -3.82256675 21.13416589 -3.5 15.5 C-4.28761719 15.36980469 -5.07523438 15.23960937 -5.88671875 15.10546875 C-8.5 14.5 -8.5 14.5 -10.3125 12.8125 C-11.87766945 9.76453845 -11.99366687 7.88514427 -11.5 4.5 C-8.25386318 0.00910395 -5.35132905 -0.04213645 0 0 Z " fill="#060404" transform="translate(210.5,191.5)"/>
<path d="M0 0 C1.00224609 -0.00515625 2.00449219 -0.0103125 3.03710938 -0.015625 C4.07802734 -0.00015625 5.11894531 0.0153125 6.19140625 0.03125 C7.74698242 0.00804687 7.74698242 0.00804687 9.33398438 -0.015625 C13.92920636 0.00798565 16.91614723 0.04784871 20.94921875 2.375 C22.75390625 4.53125 22.75390625 4.53125 23.19140625 7.53125 C22.77826007 10.36425234 22.33198497 12.16413192 20.75390625 14.53125 C16.64889747 16.58375439 11.39073681 15.80444834 6.87890625 15.84375 C5.77675781 15.87275391 4.67460937 15.90175781 3.5390625 15.93164062 C1.94771484 15.94420898 1.94771484 15.94420898 0.32421875 15.95703125 C-0.64757324 15.97161377 -1.61936523 15.98619629 -2.62060547 16.0012207 C-6.00960957 15.39457826 -7.17203348 14.23258263 -9.24609375 11.53125 C-9.74609375 8.03125 -9.74609375 8.03125 -9.24609375 4.53125 C-6.41984171 0.90496244 -4.55384387 0.02255774 0 0 Z " fill="#FE8F83" transform="translate(335.24609375,242.46875)"/>
<path d="M0 0 C0.99322266 0.00580078 1.98644531 0.01160156 3.00976562 0.01757812 C11.31967259 0.15747555 11.31967259 0.15747555 14.9375 2.4375 C16.49210305 5.54670609 16.66470693 9.06833028 15.9375 12.4375 C11.30104027 16.83517499 5.97038607 15.91412839 -0.0625 15.875 C-1.7021875 15.9049707 -1.7021875 15.9049707 -3.375 15.93554688 C-4.426875 15.93490234 -5.47875 15.93425781 -6.5625 15.93359375 C-7.5215625 15.93544678 -8.480625 15.9372998 -9.46875 15.93920898 C-12.80425463 15.29402242 -13.98772349 14.07798853 -16.0625 11.4375 C-16.625 8.5 -16.625 8.5 -16.0625 5.4375 C-11.74473463 -0.80130504 -6.93576717 -0.23043917 0 0 Z " fill="#FE8F83" transform="translate(199.0625,242.5625)"/>
<path d="M0 0 C1.83622442 5.50867326 -1.66450443 10.93590564 -4 16 C-8.55914816 24.08007446 -14.85955298 31.83560125 -23.5625 35.5 C-24.7690625 35.7475 -24.7690625 35.7475 -26 36 C-29.41532258 19.06451613 -29.41532258 19.06451613 -25 12 C-24.34 12.33 -23.68 12.66 -23 13 C-18.92337639 13.74427983 -15.42964756 13.89449919 -11.83984375 11.6484375 C-9.7837939 9.84988907 -7.8833435 7.97810292 -6 6 C-4.83379959 4.85369213 -3.66717899 3.70781146 -2.5 2.5625 C-1.675 1.716875 -0.85 0.87125 0 0 Z " fill="#E2EEF7" transform="translate(317,408)"/>
<path d="M0 0 C1.18998121 0.8716226 2.37681214 1.74754599 3.5625 2.625 C4.66851562 3.43710937 4.66851562 3.43710937 5.796875 4.265625 C7.81702808 5.85595828 9.51638014 7.54400403 11.3125 9.375 C14.43529224 12.1637261 16.79364328 12.375 20.9375 12.375 C22.62692628 12.2795008 24.31588697 12.16445227 26 12 C30.00092569 19.2238936 27.58282365 27.31199941 26 35 C16.4700251 31.52239513 9.87456066 24.76937091 5 16 C0 4.89873418 0 4.89873418 0 0 Z " fill="#E3EFF7" transform="translate(224,409)"/>
<path d="M0 0 C2.35116804 0.99281568 3.89451571 2.21302682 5.78515625 3.921875 C6.70554687 4.74365234 6.70554687 4.74365234 7.64453125 5.58203125 C8.1034375 6.00355469 8.56234375 6.42507813 9.03515625 6.859375 C8.55989745 8.50634104 8.07983734 10.15192228 7.59765625 11.796875 C7.33082031 12.71339844 7.06398438 13.62992187 6.7890625 14.57421875 C6.03515625 16.859375 6.03515625 16.859375 5.03515625 17.859375 C3.18228123 17.93164002 1.32681747 17.9431872 -0.52734375 17.921875 C-1.53925781 17.91285156 -2.55117188 17.90382813 -3.59375 17.89453125 C-4.37621094 17.88292969 -5.15867187 17.87132812 -5.96484375 17.859375 C-6.49936935 16.61516853 -7.01692986 15.36366564 -7.52734375 14.109375 C-7.81738281 13.41328125 -8.10742188 12.7171875 -8.40625 12 C-9.0662631 9.47071903 -8.91912364 8.27915616 -7.96484375 5.859375 C-6.6953125 4.12109375 -6.6953125 4.12109375 -5.15234375 2.546875 C-4.65089844 2.01449219 -4.14945312 1.48210937 -3.6328125 0.93359375 C-1.96484375 -0.140625 -1.96484375 -0.140625 0 0 Z " fill="#F77D84" transform="translate(270.96484375,402.140625)"/>
<path d="M0 0 C2.97 0 5.94 0 9 0 C10.41779633 5.13951171 11 8.50953976 11 14 C7.04 14 3.08 14 -1 14 C-1.14285714 4.42857143 -1.14285714 4.42857143 0 0 Z " fill="#EF797F" transform="translate(266,435)"/>
</svg>
