<?xml version="1.0" encoding="UTF-8"?>
<svg version="1.1" xmlns="http://www.w3.org/2000/svg" width="512" height="512">
<path d="M0 0 C1.55825267 0.00113056 3.11650747 0.00049056 4.67475891 -0.00177002 C8.87251122 -0.00290999 13.06979924 0.02048192 17.26744437 0.04852581 C21.66629367 0.0736601 26.06515553 0.07589089 30.46406555 0.08062744 C38.77947014 0.09302207 47.09466247 0.12579574 55.40997392 0.1660254 C66.65670781 0.21924739 77.90350043 0.24071699 89.15032864 0.26403427 C106.84948266 0.30155999 124.54818892 0.38127398 142.24731445 0.45410156 C142.24731445 32.13410156 142.24731445 63.81410156 142.24731445 96.45410156 C146.86731445 96.45410156 151.48731445 96.45410156 156.24731445 96.45410156 C163.34881265 98.78745097 168.01243911 103.31055001 172.24731445 109.45410156 C175.25041211 116.63414612 175.60765358 124.91154056 173.37231445 132.37597656 C169.73791458 140.26644997 164.87841913 144.64629011 156.80981445 147.70410156 C152.34907202 149.21982328 147.82109792 150.33878324 143.24731445 151.45410156 C143.03977539 152.700625 142.83223633 153.94714844 142.6184082 155.23144531 C138.361752 179.34614157 128.50674985 200.8526854 108.38110352 215.84423828 C97.50204078 223.45410156 97.50204078 223.45410156 94.24731445 223.45410156 C94.24731445 235.00410156 94.24731445 246.55410156 94.24731445 258.45410156 C99.69231445 259.93910156 99.69231445 259.93910156 105.24731445 261.45410156 C107.43647017 262.15466493 109.61824634 262.87927625 111.78735352 263.63964844 C112.94777161 264.04437378 114.1081897 264.44909912 115.30377197 264.86608887 C117.13980988 265.5129364 117.13980988 265.5129364 119.01293945 266.17285156 C120.33532017 266.63576801 121.65781238 267.09836604 122.98040771 267.56066895 C126.45482498 268.77616323 129.92760991 269.99625669 133.40008545 271.21728516 C136.82075138 272.41906273 140.2431137 273.61598884 143.6652832 274.81347656 C149.80065324 276.96089396 155.93205343 279.11940956 162.06218719 281.28172302 C166.23725813 282.75239508 170.41747224 284.20727282 174.60211563 285.65047455 C177.3800867 286.60988704 180.15543137 287.57675806 182.93044281 288.54469299 C184.83810877 289.20719359 186.74909862 289.86009956 188.66021729 290.51257324 C214.46584164 299.54074676 234.94104095 314.78681713 247.05981445 339.76660156 C254.32548034 354.9258304 254.85054669 370.13036152 254.77856445 386.61035156 C254.78126562 388.81034516 254.78515321 391.01033759 254.79016113 393.21032715 C254.79601685 397.78909837 254.78761424 402.36755478 254.76879883 406.94628906 C254.7459033 412.80141198 254.75922444 418.65580557 254.78308868 424.5109024 C254.79756102 429.04062373 254.79293587 433.5701727 254.78257751 438.09989929 C254.77991982 440.25917143 254.78314609 442.41845948 254.79249573 444.57771301 C254.80269695 447.5922691 254.7871146 450.60564842 254.76489258 453.62011719 C254.7729895 454.50129211 254.78108643 455.38246704 254.78942871 456.29034424 C254.69532406 463.20922033 252.87313207 468.4576417 248.2824707 473.69628906 C247.63149414 474.23511719 246.98051758 474.77394531 246.30981445 475.32910156 C245.66141602 475.88339844 245.01301758 476.43769531 244.3449707 477.00878906 C239.88274424 480.08332127 236.05790132 480.70481647 230.68858624 480.71137047 C229.71608944 480.71662958 229.71608944 480.71662958 228.72394624 480.72199494 C226.54843785 480.73130918 224.37319714 480.72638565 222.19767761 480.7215271 C220.62338792 480.72526335 219.04910008 480.72986477 217.47481519 480.73525774 C213.14613441 480.74750627 208.81753081 480.7472251 204.48883665 480.74486899 C199.82136743 480.7444613 195.15392311 480.75549548 190.48646545 480.76498413 C181.34101286 480.78160524 172.19558604 480.78709418 163.0501196 480.78820889 C155.61704593 480.78915883 148.18398078 480.79326644 140.75090981 480.79961014 C119.68203568 480.81722555 98.61318194 480.82644854 77.5443004 480.82494919 C75.84014514 480.82482932 75.84014514 480.82482932 74.1015625 480.82470703 C72.96407365 480.82462527 71.8265848 480.82454351 70.65462659 480.82445927 C52.21778043 480.82364628 33.78101595 480.84278652 15.34419342 480.87098376 C-3.58145702 480.89970048 -22.50706761 480.91352473 -41.43274039 480.91179621 C-52.06013829 480.91113189 -62.68745057 480.91664254 -73.31482887 480.93815231 C-82.36295753 480.95634815 -91.41096175 480.96072458 -100.45910076 480.94713347 C-105.0757962 480.94059576 -109.69225279 480.94051554 -114.30892563 480.95783997 C-118.53627397 480.9735403 -122.76319348 480.9707383 -126.99053117 480.9532717 C-128.51877963 480.95019509 -130.04705986 480.9538591 -131.57527087 480.96499185 C-140.75280264 481.02741393 -147.78207802 480.80987784 -154.99487305 474.48925781 C-155.53370117 473.83828125 -156.0725293 473.18730469 -156.62768555 472.51660156 C-157.18198242 471.86820312 -157.7362793 471.21980469 -158.30737305 470.55175781 C-162.01656761 465.16841327 -162.04964306 460.2886209 -162.04321289 453.96069336 C-162.04993011 453.01030685 -162.05664734 452.05992035 -162.06356812 451.08073425 C-162.08256307 447.93820963 -162.0864744 444.7958988 -162.08862305 441.65332031 C-162.09505458 439.45677097 -162.10178321 437.26022249 -162.10879517 435.06367493 C-162.120775 430.45283019 -162.12447572 425.84206037 -162.12329102 421.23120117 C-162.12308886 415.36202756 -162.1502809 409.49334379 -162.18483543 403.6242857 C-162.2072387 399.08138387 -162.21112431 394.5385969 -162.21007156 389.99564552 C-162.21241161 387.83459615 -162.22114361 385.67354283 -162.2367363 383.51254845 C-162.33994617 367.71757552 -161.25744628 353.18765667 -154.12768555 338.76660156 C-153.78995117 338.06801025 -153.4522168 337.36941895 -153.10424805 336.6496582 C-149.5218033 329.53587696 -144.96007497 323.44972706 -139.75268555 317.45410156 C-139.10686523 316.70773437 -138.46104492 315.96136719 -137.7956543 315.19238281 C-125.79424376 302.33192394 -109.55809274 295.12842363 -93.20581055 289.54785156 C-91.91791359 289.10157123 -90.63027663 288.65453994 -89.34288025 288.20681763 C-85.93377241 287.02335957 -82.5213871 285.849652 -79.10821152 284.67798615 C-75.57274659 283.46248532 -72.04037878 282.23805426 -68.5078125 281.01416016 C-64.26528765 279.54484184 -60.02251028 278.07627801 -55.77827454 276.61190796 C-47.43637413 273.73346372 -39.1028251 270.83276757 -30.7800293 267.89941406 C-29.82993988 267.56484192 -28.87985046 267.23026978 -27.90097046 266.88555908 C-24.40065759 265.65250356 -20.90053412 264.41893924 -17.40197754 263.1809082 C-15.09665698 262.36558807 -12.79006833 261.55396216 -10.4831543 260.74316406 C-9.81855698 260.5067923 -9.15395966 260.27042053 -8.46922302 260.02688599 C-3.98028597 258.45410156 -3.98028597 258.45410156 -1.75268555 258.45410156 C-1.75268555 246.90410156 -1.75268555 235.35410156 -1.75268555 223.45410156 C-4.72268555 222.46410156 -4.72268555 222.46410156 -7.75268555 221.45410156 C-27.78991371 208.84422768 -41.94803641 189.74352145 -47.9753418 166.87597656 C-49.13566799 161.76820901 -50.03069636 156.64102388 -50.75268555 151.45410156 C-51.74268555 151.22335938 -52.73268555 150.99261719 -53.75268555 150.75488281 C-64.15038534 148.22983999 -72.37927231 145.55897762 -78.75268555 136.45410156 C-83.03954621 129.35860805 -82.94648332 120.80231558 -81.16674805 112.82910156 C-78.59287122 106.02839948 -73.03567046 100.595833 -66.56494141 97.36010742 C-63.07339277 96.2352583 -60.10119267 96.26067152 -56.44018555 96.32910156 C-55.18592773 96.34714844 -53.93166992 96.36519531 -52.6394043 96.38378906 C-51.68678711 96.40699219 -50.73416992 96.43019531 -49.75268555 96.45410156 C-49.76156799 95.70178757 -49.77045044 94.94947357 -49.77960205 94.17436218 C-49.86017234 87.04049501 -49.92086328 79.90685238 -49.95993423 72.7726469 C-49.98069724 69.1059629 -50.00880399 65.4396588 -50.05444336 61.77319336 C-50.09830995 58.22643684 -50.12190722 54.68004279 -50.13219452 51.13303566 C-50.14304476 49.13965002 -50.17420378 47.14640763 -50.20587158 45.15324402 C-50.20904568 32.12110488 -46.52685546 22.17046422 -37.75268555 12.45410156 C-26.35574262 2.16231674 -14.93522547 -0.15312115 0 0 Z " fill="#000001" transform="translate(209.752685546875,15.5458984375)"/>
<path d="M0 0 C1.6605529 3.94424587 3.31428364 7.89126634 4.9621582 11.84082031 C5.52188336 13.17978961 6.08336119 14.5180278 6.64672852 15.85546875 C9.84752513 23.45771635 12.88257219 31.00868368 15 39 C18.02134237 37.70952194 21.04203814 36.41753758 24.0625 35.125 C24.99030273 34.72804932 25.91810547 34.33109863 26.87402344 33.92211914 C32.0834523 31.68981717 37.28630386 29.44339184 42.48046875 27.17578125 C43.52775146 26.71864746 44.57503418 26.26151367 45.65405273 25.79052734 C47.70244113 24.89531652 49.75014193 23.99853057 51.79711914 23.10009766 C53.18918579 22.49174072 53.18918579 22.49174072 54.609375 21.87109375 C55.43405273 21.50943115 56.25873047 21.14776855 57.10839844 20.77514648 C59 20 59 20 60 20 C60.09796875 20.61746094 60.1959375 21.23492187 60.296875 21.87109375 C61.26046905 27.3286911 62.61896919 31.83310648 65.29296875 36.69921875 C67.5010428 43.8846089 62.93668245 53.00017619 60.6875 59.8125 C60.29626953 61.05193359 59.90503906 62.29136719 59.50195312 63.56835938 C59.11330078 64.74849609 58.72464844 65.92863281 58.32421875 67.14453125 C57.7996106 68.75871948 57.7996106 68.75871948 57.2644043 70.40551758 C55.77789229 73.45575181 55.06755948 73.7706677 52 75 C49.68807983 75.5062561 49.68807983 75.5062561 47.11474609 75.86962891 C46.14628754 76.00962311 45.17782898 76.14961731 44.18002319 76.29385376 C43.13834991 76.43664764 42.09667664 76.57944153 41.0234375 76.7265625 C39.94301178 76.87910492 38.86258606 77.03164734 37.74942017 77.18881226 C35.46184881 77.50987671 33.17377574 77.82738363 30.88525391 78.14160156 C27.40764195 78.62050486 23.93234471 79.11409967 20.45703125 79.609375 C18.22929086 79.92016237 16.00142972 80.23008566 13.7734375 80.5390625 C12.22914566 80.75932602 12.22914566 80.75932602 10.65365601 80.98403931 C-3.06502006 82.84154494 -3.06502006 82.84154494 -8 82 C-11.39572863 79.34672837 -11.90358678 77.74419603 -12.45410156 73.49487305 C-12.4331543 72.18043213 -12.41220703 70.86599121 -12.390625 69.51171875 C-12.38496521 68.80852005 -12.37930542 68.10532135 -12.37347412 67.3808136 C-12.35119769 65.14899752 -12.30102373 62.91882539 -12.25 60.6875 C-12.22992343 59.16864309 -12.21167468 57.64976084 -12.1953125 56.13085938 C-12.15477269 52.41944009 -12.07648291 48.71154561 -12 45 C-17.28 45 -22.56 45 -28 45 C-27.97174439 49.80345428 -27.92824611 54.60208757 -27.84741211 59.40429688 C-27.82439176 61.03342897 -27.80987431 62.66270651 -27.80444336 64.29199219 C-27.8675983 77.93424523 -27.8675983 77.93424523 -22 90 C-14.78687664 96.68052112 -8.50716642 97.47033966 1.0090332 97.31713867 C13.54834965 96.83551349 26.04250299 94.59265513 38.44280434 92.75948906 C42.50702548 92.16154064 46.57338173 91.57847213 50.63952637 90.99377441 C58.31266478 89.88820952 65.98390981 88.77005632 73.65450048 87.6469655 C84.10194298 86.11792713 94.55201723 84.60711168 105.00200748 83.09560299 C107.51196728 82.73253823 110.02191755 82.36940778 112.53186035 82.00622559 C113.34504117 81.88856952 114.15822198 81.77091346 114.99604464 81.64969206 C119.82800993 80.95016267 124.65952484 80.24761599 129.49064064 79.54224396 C132.48101754 79.10566045 135.47153191 78.67002283 138.4620533 78.23443031 C139.85132828 78.0317643 141.2405294 77.82859129 142.62965202 77.62488365 C144.5195607 77.34775267 146.40973641 77.07244449 148.29992676 76.79724121 C149.35873299 76.64237999 150.41753922 76.48751877 151.50843048 76.32796478 C154 76 154 76 156 76 C156 92.83 156 109.66 156 127 C127.06092519 132.88063488 98.11897745 138.74648519 69.17044975 144.58038443 C65.74258965 145.27120859 62.31476525 145.96220971 58.88696289 146.65332031 C58.20463001 146.79088859 57.52229713 146.92845687 56.8192875 147.07019389 C45.81220084 149.2898212 34.80805983 151.52372795 23.80496488 153.76304877 C12.49082166 156.06533726 1.173538 158.351664 -10.14656192 160.62448406 C-16.494749 161.89957083 -22.84134656 163.18159187 -29.18460655 164.48098755 C-35.17039806 165.7069183 -41.1598198 166.91327913 -47.15240669 168.1055336 C-49.33648814 168.54349359 -51.51922395 168.9882354 -53.70034027 169.44073105 C-64.39077877 171.65457377 -74.77599493 173.37031301 -85.71858215 173.45141602 C-87.03535888 173.46533213 -87.03535888 173.46533213 -88.37873715 173.47952938 C-91.92964638 173.42458845 -94.35115025 173.34553764 -97.51758862 171.6592865 C-100.8676082 167.90955662 -100.16164192 163.16320098 -100.17700195 158.4362793 C-100.18357315 157.56100082 -100.19014435 156.68572235 -100.19691467 155.78392029 C-100.21665593 152.88068553 -100.2283178 149.97750277 -100.23828125 147.07421875 C-100.24235678 146.07944834 -100.2464323 145.08467793 -100.25063133 144.05976295 C-100.2715047 138.78520541 -100.28579579 133.51067391 -100.29516602 128.23608398 C-100.30617793 122.81731311 -100.34051346 117.39895884 -100.38033772 111.98033428 C-100.40664632 107.79095258 -100.41487087 103.60166749 -100.41844749 99.41221046 C-100.42328395 97.41696196 -100.43481271 95.4217169 -100.45348549 93.42654991 C-100.5822352 78.74639941 -99.21095639 66.07739814 -92.3125 52.8125 C-91.79985596 51.81379883 -91.79985596 51.81379883 -91.27685547 50.79492188 C-78.54112171 26.85843631 -55.49926023 18.07573032 -31.24365234 9.70605469 C-27.71105439 8.48655546 -24.18530661 7.24865763 -20.66015625 6.0078125 C-18.41443261 5.22289861 -16.16835177 4.43900578 -13.921875 3.65625 C-12.86885193 3.28761841 -11.81582886 2.91898682 -10.730896 2.53918457 C-9.75847961 2.20463257 -8.78606323 1.87008057 -7.78417969 1.52539062 C-6.93007507 1.2297522 -6.07597046 0.93411377 -5.19598389 0.6295166 C-3 0 -3 0 0 0 Z " fill="#023988" transform="translate(164,307)"/>
<path d="M0 0 C7.26747102 1.8950673 14.3783943 4.05065516 21.4609375 6.546875 C22.41336334 6.88116516 23.36578918 7.21545532 24.34707642 7.55987549 C26.34608776 8.26364175 28.34432133 8.96962088 30.34179688 9.67773438 C33.3570753 10.74366345 36.37754366 11.79385914 39.3984375 12.84375 C62.21103363 20.86074303 82.04220624 31.32902279 93.08496094 53.91748047 C98.39841082 65.28440714 100.14342769 75.62452872 100.16113281 88.02050781 C100.16609772 88.8721048 100.17106262 89.72370178 100.17617798 90.60110474 C100.1906452 93.38512 100.19757164 96.16907852 100.203125 98.953125 C100.20736607 100.38768162 100.20736607 100.38768162 100.21169281 101.85121918 C100.22661414 106.90146658 100.23589108 111.95168588 100.24023438 117.00195312 C100.24574252 122.21285757 100.26983964 127.42350383 100.29820633 132.63432693 C100.31681975 136.65090702 100.32203738 140.66742431 100.32357025 144.68404388 C100.3265947 146.60577574 100.33461623 148.52750654 100.34775543 150.44919586 C100.36480642 153.13202326 100.36293933 155.81421075 100.35644531 158.49707031 C100.3656601 159.28781952 100.37487488 160.07856873 100.3843689 160.89328003 C100.35005606 165.41754873 99.9061893 168.4553289 97 172 C80.30013087 177.56662304 59.39051534 170.65796008 43 167 C38.27253824 165.97121608 33.54246758 164.95469019 28.8125 163.9375 C27.66322021 163.68790527 26.51394043 163.43831055 25.32983398 163.18115234 C16.31118508 161.23628982 7.25965839 159.53973824 -1.81884766 157.90087891 C-12.5463918 155.94455952 -23.19524363 153.65870933 -33.84765625 151.33203125 C-39.2199578 150.15890455 -44.6032703 149.0547082 -50 148 C-46.91928922 146.28459076 -44.11444258 145.49107605 -40.65576172 144.8425293 C-39.5871994 144.63859055 -38.51863708 144.43465179 -37.41769409 144.22453308 C-35.69113083 143.90262749 -35.69113083 143.90262749 -33.9296875 143.57421875 C-31.48167247 143.10272397 -29.03375895 142.63070188 -26.5859375 142.15820312 C-22.7361516 141.42160945 -18.88566778 140.68950055 -15.03320312 139.96704102 C-11.30854805 139.26591539 -7.58782707 138.54630884 -3.8671875 137.82421875 C-2.72829071 137.61568771 -1.58939392 137.40715668 -0.41598511 137.19230652 C7.61462418 135.61646036 16.21278414 133.45409967 21.9375 127.1875 C27.64678724 118.36405608 27.47074555 109.86312362 27.51171875 99.6875 C27.52858525 98.10708234 27.54673811 96.52667793 27.56611633 94.94628906 C27.61340889 90.81016177 27.64335182 86.67408824 27.66955566 82.53778076 C27.69946653 78.30763131 27.74596042 74.07766671 27.79101562 69.84765625 C27.87681254 61.56518015 27.9427272 53.2827225 28 45 C22.72 45 17.44 45 12 45 C12 47.97 12 50.94 12 54 C4.0599565 55.75664679 -3.78372566 57.18506417 -11.875 58 C-18.60424667 58.67883384 -25.20918176 59.66508213 -31.85986328 60.88793945 C-49.18530562 64.07003891 -49.18530562 64.07003891 -57 64 C-58.5422624 60.44640205 -60.05492998 56.88093839 -61.5625 53.3125 C-62.00013672 52.30509766 -62.43777344 51.29769531 -62.88867188 50.25976562 C-63.50258789 48.79506836 -63.50258789 48.79506836 -64.12890625 47.30078125 C-64.51119385 46.40528564 -64.89348145 45.50979004 -65.28735352 44.5871582 C-66.80454445 39.07921976 -63.9144018 33.92582525 -61.9375 28.81640625 C-60.96168593 25.88489814 -60.43193014 23.05500586 -60 20 C-48.66637291 24.56774792 -37.46090525 29.39486358 -26.29321289 34.35473633 C-25.26059326 34.81259521 -24.22797363 35.2704541 -23.1640625 35.7421875 C-22.24061035 36.1532373 -21.3171582 36.56428711 -20.36572266 36.98779297 C-17.92229796 38.07170598 -17.92229796 38.07170598 -15 39 C-14.85522217 38.45359863 -14.71044434 37.90719727 -14.5612793 37.34423828 C-12.28661871 29.25490968 -9.06779751 21.6031163 -5.8125 13.875 C-5.24759029 12.52362827 -4.68313388 11.17206696 -4.11914062 9.8203125 C-2.7513051 6.54467601 -1.37738003 3.27163651 0 0 Z " fill="#043979" transform="translate(348,307)"/>
<path d="M0 0 C5.61 0 11.22 0 17 0 C18.4540625 3.0009375 18.4540625 3.0009375 19.9375 6.0625 C23.87865741 13.65696687 28.99660699 18.36277775 36.75 21.9375 C45.95180546 24.84045053 54.8549518 23.47190288 63.4140625 19.39453125 C71.90348809 14.8163969 74.82841999 8.42955369 79 0 C82 1 82 1 83.2890625 3.4765625 C83.72992188 4.51554688 84.17078125 5.55453125 84.625 6.625 C88.24798083 14.16689821 93.19289966 18.46187157 100.75 21.9375 C109.95180546 24.84045053 118.8549518 23.47190288 127.4140625 19.39453125 C136.02103452 14.75300707 138.68231339 8.54901949 143 0 C148.61 0 154.22 0 160 0 C160.0816158 4.27122673 160.14080329 8.54086322 160.1875 12.8125 C160.21263672 14.00810547 160.23777344 15.20371094 160.26367188 16.43554688 C160.42383726 36.02911266 152.0956351 54.2685538 138.67333984 68.45141602 C130.52180568 76.22254525 120.34462878 81.75268503 110.44091797 86.9777832 C108.59896158 87.95126137 106.76615186 88.94060291 104.93359375 89.93164062 C103.74008633 90.56865165 102.54609338 91.20475402 101.3515625 91.83984375 C100.29791504 92.40050537 99.24426758 92.96116699 98.15869141 93.53881836 C92.12246533 96.33112112 86.42000678 97.38258997 79.8125 97.4375 C79.13380859 97.47037109 78.45511719 97.50324219 77.75585938 97.53710938 C58.24384282 97.73565903 33.50867721 79.77576661 19.73046875 66.875 C5.42186283 51.99186115 -0.40361933 33.09453726 -0.125 12.9375 C-0.11597656 11.69033203 -0.10695312 10.44316406 -0.09765625 9.15820312 C-0.07426301 6.10538483 -0.03839832 3.05266644 0 0 Z " fill="#F7C8C8" transform="translate(176,144)"/>
<path d="M0 0 C9.05346761 6.52092307 14.82284622 14.68061938 17.58203125 25.4921875 C18.12200116 30.34053071 18.14276643 35.11818916 18.08203125 39.9921875 C18.10523438 41.85423828 18.10523438 41.85423828 18.12890625 43.75390625 C18.08557831 54.03346082 16.41163718 63.02443497 9.51953125 70.9921875 C8.84792969 71.78625 8.17632812 72.5803125 7.484375 73.3984375 C5.58203125 75.4921875 5.58203125 75.4921875 3.98632812 76.86254883 C2.21296045 78.92048159 2.21360798 79.97394972 2.2109375 82.66015625 C2.19353516 83.47162109 2.17613281 84.28308594 2.15820312 85.11914062 C2.14919291 86.80662461 2.14389546 88.4941331 2.14257812 90.18164062 C1.98143635 97.23298247 0.30516808 102.38467152 -4.3828125 107.734375 C-5.03378906 108.27320313 -5.68476563 108.81203125 -6.35546875 109.3671875 C-7.00386719 109.92148438 -7.65226562 110.47578125 -8.3203125 111.046875 C-14.82154432 115.52630847 -21.78937792 115.16682478 -29.41796875 114.4921875 C-36.07756208 112.81133167 -40.60344322 108.02840428 -44.41796875 102.4921875 C-46.57555911 98.54485824 -46.53581943 95.18009078 -46.49121094 90.80444336 C-46.44304399 80.98506694 -46.44304399 80.98506694 -51.66796875 72.9296875 C-52.4775 72.19363281 -53.28703125 71.45757812 -54.12109375 70.69921875 C-59.25404259 65.76704853 -62.1699233 58.61453188 -62.5949707 51.55053711 C-62.6616659 47.84350661 -62.70289662 44.13721952 -62.73046875 40.4296875 C-62.75947266 39.15673828 -62.78847656 37.88378906 -62.81835938 36.57226562 C-62.90143759 24.12970497 -60.10539595 14.59248253 -51.41796875 5.4921875 C-37.63784493 -7.66275112 -16.31305228 -10.17259803 0 0 Z " fill="#000000" transform="translate(446.41796875,53.5078125)"/>
<path d="M0 0 C5.28 0 10.56 0 16 0 C16.09796875 1.46050781 16.1959375 2.92101562 16.296875 4.42578125 C17.44576388 19.96116355 19.1994054 34.10674429 31.25 45.25 C41.11965393 53.0761573 51.79525514 54.96861311 64 56 C64 61.61 64 67.22 64 73 C60.9371875 73.0928125 60.9371875 73.0928125 57.8125 73.1875 C45.05128643 74.15328307 35.59466657 78.47113054 27 88 C19.68392955 96.99008657 17.6328702 106.19021219 16.8125 117.5625 C16.73064453 118.57119141 16.64878906 119.57988281 16.56445312 120.61914062 C16.36629431 123.07864126 16.18172494 125.53923054 16 128 C10.72 128 5.44 128 0 128 C-0.09796875 126.53949219 -0.1959375 125.07898438 -0.296875 123.57421875 C-1.53468152 106.8350445 -3.76972926 94.88012841 -16.0625 82.8125 C-25.46954441 74.8212315 -36.01237278 73.36326143 -48 73 C-48 67.39 -48 61.78 -48 56 C-45.56625 55.7525 -43.1325 55.505 -40.625 55.25 C-27.96634657 53.74426629 -17.80952335 49.34368603 -9.6875 39.125 C-1.47152094 27.22207188 -0.92864292 14.08441767 0 0 Z " fill="#000000" transform="translate(64,16)"/>
<path d="M0 0 C1.03938721 0.56195068 2.07877441 1.12390137 3.1496582 1.70288086 C4.25784912 2.31139893 5.36604004 2.91991699 6.5078125 3.546875 C7.65660889 4.17150635 8.80540527 4.7961377 9.98901367 5.43969727 C18.64674473 10.15617395 27.23886223 14.98821403 35.80834961 19.86303711 C42.6966594 23.78133194 49.63330484 27.58108698 56.6328125 31.296875 C56.6328125 37.896875 56.6328125 44.496875 56.6328125 51.296875 C51.0228125 51.296875 45.4128125 51.296875 39.6328125 51.296875 C38.9109375 49.770625 38.1890625 48.244375 37.4453125 46.671875 C32.15389514 36.29368074 25.7350623 31.99762493 14.6328125 28.296875 C3.21436485 27.33215851 -4.62108588 29.54197433 -13.578125 36.58984375 C-17.80591938 40.62378729 -20.48017903 45.80739582 -22.3671875 51.296875 C-23.0271875 51.296875 -23.6871875 51.296875 -24.3671875 51.296875 C-24.82158203 50.31847656 -24.82158203 50.31847656 -25.28515625 49.3203125 C-30.54604297 38.34529343 -35.19121203 34.18437424 -46.3671875 29.296875 C-52.89460649 27.12106867 -60.81414184 27.24456871 -67.1796875 29.921875 C-77.06018216 35.10686853 -82.23481294 40.9659386 -86.3671875 51.296875 C-91.9771875 51.296875 -97.5871875 51.296875 -103.3671875 51.296875 C-103.3671875 40.076875 -103.3671875 28.856875 -103.3671875 17.296875 C-96.7465625 15.811875 -96.7465625 15.811875 -89.9921875 14.296875 C-79.08201355 11.84271416 -68.18951873 9.32329776 -57.30935669 6.73947144 C-45.7414472 3.99589517 -34.16446757 1.29561365 -22.5546875 -1.265625 C-21.39235596 -1.52931885 -20.23002441 -1.7930127 -19.0324707 -2.06469727 C-17.96085693 -2.29729248 -16.88924316 -2.5298877 -15.78515625 -2.76953125 C-14.85469482 -2.97521729 -13.9242334 -3.18090332 -12.96557617 -3.39282227 C-7.90865078 -3.99672644 -4.38743524 -2.38613546 0 0 Z " fill="#F7C8C8" transform="translate(279.3671875,76.703125)"/>
<path d="M0 0 C1.6605529 3.94424587 3.31428364 7.89126634 4.9621582 11.84082031 C5.52188336 13.17978961 6.08336119 14.5180278 6.64672852 15.85546875 C9.84752513 23.45771635 12.88257219 31.00868368 15 39 C18.02134237 37.70952194 21.04203814 36.41753758 24.0625 35.125 C24.99030273 34.72804932 25.91810547 34.33109863 26.87402344 33.92211914 C32.0834523 31.68981717 37.28630386 29.44339184 42.48046875 27.17578125 C44.05139282 26.49008057 44.05139282 26.49008057 45.65405273 25.79052734 C47.70244113 24.89531652 49.75014193 23.99853057 51.79711914 23.10009766 C52.72516357 22.69452637 53.65320801 22.28895508 54.609375 21.87109375 C55.43405273 21.50943115 56.25873047 21.14776855 57.10839844 20.77514648 C59 20 59 20 60 20 C60.09796875 20.61746094 60.1959375 21.23492187 60.296875 21.87109375 C61.26046905 27.3286911 62.61896919 31.83310648 65.29296875 36.69921875 C67.5010428 43.8846089 62.93668245 53.00017619 60.6875 59.8125 C60.29626953 61.05193359 59.90503906 62.29136719 59.50195312 63.56835938 C59.11330078 64.74849609 58.72464844 65.92863281 58.32421875 67.14453125 C57.97447998 68.22065674 57.62474121 69.29678223 57.2644043 70.40551758 C55.77789229 73.45575181 55.06755948 73.7706677 52 75 C49.68807983 75.5062561 49.68807983 75.5062561 47.11474609 75.86962891 C45.66205826 76.07962021 45.66205826 76.07962021 44.18002319 76.29385376 C43.13834991 76.43664764 42.09667664 76.57944153 41.0234375 76.7265625 C39.94301178 76.87910492 38.86258606 77.03164734 37.74942017 77.18881226 C35.46184881 77.50987671 33.17377574 77.82738363 30.88525391 78.14160156 C27.40764195 78.62050486 23.93234471 79.11409967 20.45703125 79.609375 C18.22929086 79.92016237 16.00142972 80.23008566 13.7734375 80.5390625 C12.22914566 80.75932602 12.22914566 80.75932602 10.65365601 80.98403931 C-3.06502006 82.84154494 -3.06502006 82.84154494 -8 82 C-11.39572863 79.34672837 -11.90358678 77.74419603 -12.45410156 73.49487305 C-12.4331543 72.18043213 -12.41220703 70.86599121 -12.390625 69.51171875 C-12.38496521 68.80852005 -12.37930542 68.10532135 -12.37347412 67.3808136 C-12.35119769 65.14899752 -12.30102373 62.91882539 -12.25 60.6875 C-12.22992343 59.16864309 -12.21167468 57.64976084 -12.1953125 56.13085938 C-12.15136357 52.42004455 -12.08239921 48.7101829 -12 45 C-14.64 45 -17.28 45 -20 45 C-20 32.13 -20 19.26 -20 6 C-3 0 -3 0 0 0 Z " fill="#0052A3" transform="translate(164,307)"/>
<path d="M0 0 C5.94 0 11.88 0 18 0 C18.226875 1.77375 18.45375 3.5475 18.6875 5.375 C20.50184841 16.08469549 25.53000102 25.31159494 34.42578125 31.7578125 C41.89372142 36.4493561 48.17386931 37.89673366 57 39 C57 44.94 57 50.88 57 57 C55.22625 57.226875 53.4525 57.45375 51.625 57.6875 C40.91530451 59.50184841 31.68840506 64.53000102 25.2421875 73.42578125 C20.5506439 80.89372142 19.10326634 87.17386931 18 96 C12.06 96 6.12 96 0 96 C-0.3403125 93.339375 -0.3403125 93.339375 -0.6875 90.625 C-2.50184841 79.91530451 -7.53000102 70.68840506 -16.42578125 64.2421875 C-23.89372142 59.5506439 -30.17386931 58.10326634 -39 57 C-39 51.06 -39 45.12 -39 39 C-36.339375 38.6596875 -36.339375 38.6596875 -33.625 38.3125 C-22.91530451 36.49815159 -13.68840506 31.46999898 -7.2421875 22.57421875 C-2.5506439 15.10627858 -1.10326634 8.82613069 0 0 Z " fill="#010000" transform="translate(439,200)"/>
<path d="M0 0 C1.1568631 -0.00137466 2.3137262 -0.00274933 3.50564575 -0.00416565 C5.41104378 0.00122726 5.41104378 0.00122726 7.35493469 0.00672913 C8.70511371 0.00701118 10.05529288 0.00685291 11.4054718 0.00628662 C15.07254598 0.00599935 18.73958753 0.0118848 22.40665412 0.01886058 C26.23835571 0.02510573 30.07005802 0.02569884 33.90176392 0.02688599 C41.15840293 0.02999587 48.4150269 0.03820465 55.67165929 0.04823548 C63.93275461 0.05940725 72.19385065 0.06490975 80.45495164 0.06993091 C97.44937201 0.08038753 114.44377774 0.09798036 131.43818665 0.12025452 C130.65223128 4.60394272 129.81236631 6.91066899 126.43818665 10.12025452 C119.43158146 13.65289658 111.94353662 15.33897299 104.31318665 16.93275452 C103.1515802 17.18355774 101.98997375 17.43436096 100.79316711 17.69276428 C98.30125753 18.23042607 95.80855475 18.76442251 93.31513977 19.2950592 C86.72709742 20.69729996 80.14468874 22.12520101 73.56318665 23.55775452 C72.89281372 23.70329773 72.2224408 23.84884094 71.53175354 23.99879456 C60.67986851 26.3581404 49.88571904 28.9169155 39.09980774 31.56312561 C29.67915039 33.85930609 20.21978756 35.91749389 10.73042297 37.90809631 C1.49697052 39.8573442 -7.6756797 42.0180497 -16.83427429 44.29237366 C-18.29462097 44.65190125 -18.29462097 44.65190125 -19.7844696 45.01869202 C-21.06462952 45.33846008 -21.06462952 45.33846008 -22.37065125 45.66468811 C-24.56181335 46.12025452 -24.56181335 46.12025452 -27.56181335 46.12025452 C-27.67926579 42.30801939 -27.74947939 38.49625769 -27.81181335 34.68275452 C-27.84532898 33.61347717 -27.8788446 32.54419983 -27.91337585 31.44252014 C-28.03748051 21.29696446 -25.38837629 14.30007045 -18.49931335 6.84681702 C-13.21275226 2.13580895 -7.00236955 -0.00640656 0 0 Z " fill="#9C684B" transform="translate(203.5618133544922,31.879745483398438)"/>
<path d="M0 0 C5.28 0 10.56 0 16 0 C16.515625 2.289375 17.03125 4.57875 17.5625 6.9375 C19.7685591 15.63125034 23.35559352 22.05099963 31.1875 26.875 C36.5334676 29.5479838 42.18600601 30.73027717 48 32 C48 37.28 48 42.56 48 48 C45.69 48.53625 43.38 49.0725 41 49.625 C32.17620517 51.87600679 26.02425541 55.52722749 20.95703125 63.2890625 C18.08701885 68.41994181 17.20740196 74.30796219 16 80 C10.72 80 5.44 80 0 80 C-0.7734375 76.5659375 -0.7734375 76.5659375 -1.5625 73.0625 C-3.7685591 64.36874966 -7.35559352 57.94900037 -15.1875 53.125 C-20.5334676 50.4520162 -26.18600601 49.26972283 -32 48 C-32 42.72 -32 37.44 -32 32 C-29.710625 31.484375 -27.42125 30.96875 -25.0625 30.4375 C-16.36874966 28.2314409 -9.94900037 24.64440648 -5.125 16.8125 C-2.4520162 11.4665324 -1.26972283 5.81399399 0 0 Z " fill="#000000" transform="translate(88,192)"/>
<path d="M0 0 C1.64832694 0.40669001 3.29353012 0.82604069 4.9375 1.25 C5.85402344 1.48203125 6.77054687 1.7140625 7.71484375 1.953125 C11.93298507 3.29731272 15.95442955 5.20196869 20 7 C20 19.54 20 32.08 20 45 C17.36 45 14.72 45 12 45 C12 47.97 12 50.94 12 54 C4.0599565 55.75664679 -3.78372566 57.18506417 -11.875 58 C-18.60424667 58.67883384 -25.20918176 59.66508213 -31.85986328 60.88793945 C-49.18530562 64.07003891 -49.18530562 64.07003891 -57 64 C-58.5422624 60.44640205 -60.05492998 56.88093839 -61.5625 53.3125 C-62.00013672 52.30509766 -62.43777344 51.29769531 -62.88867188 50.25976562 C-63.50258789 48.79506836 -63.50258789 48.79506836 -64.12890625 47.30078125 C-64.51119385 46.40528564 -64.89348145 45.50979004 -65.28735352 44.5871582 C-66.80454445 39.07921976 -63.9144018 33.92582525 -61.9375 28.81640625 C-60.96168593 25.88489814 -60.43193014 23.05500586 -60 20 C-48.66637291 24.56774792 -37.46090525 29.39486358 -26.29321289 34.35473633 C-25.26059326 34.81259521 -24.22797363 35.2704541 -23.1640625 35.7421875 C-22.24061035 36.1532373 -21.3171582 36.56428711 -20.36572266 36.98779297 C-17.92229796 38.07170598 -17.92229796 38.07170598 -15 39 C-14.85522217 38.45359863 -14.71044434 37.90719727 -14.5612793 37.34423828 C-12.28661871 29.25490968 -9.06779751 21.6031163 -5.8125 13.875 C-5.24759029 12.52362827 -4.68313388 11.17206696 -4.11914062 9.8203125 C-2.7513051 6.54467601 -1.37738003 3.27163651 0 0 Z " fill="#0052A3" transform="translate(348,307)"/>
<path d="M0 0 C4.7497638 1.89158755 9.45492899 3.879333 14.16015625 5.87890625 C19.78281261 8.09857939 24.76130363 8.18313506 30.75 8.1875 C32.05324219 8.20586914 32.05324219 8.20586914 33.3828125 8.22460938 C41.3949114 8.24265464 47.92218116 6.64859833 55.3125 3.4375 C58.20121383 2.19102553 61.01467661 0.9951078 64 0 C65.9230959 9.22888792 67.47746876 19.01045104 64 28 C60.13877978 32.82450734 54.71266264 35.8680572 49.375 38.8125 C48.68307556 39.19766785 47.99115112 39.58283569 47.27825928 39.97967529 C45.25344168 41.07727607 43.21359124 42.12504076 41.1484375 43.14453125 C40.52304077 43.45454575 39.89764404 43.76456024 39.2532959 44.08396912 C35.06392624 45.97688496 32.40048113 46.2663671 28 45 C18.05014388 41.2368655 7.15511654 36.03797622 0 28 C-3.29350937 19.00780387 -1.77944058 9.2130047 0 0 Z " fill="#F6B5B5" transform="translate(224,248)"/>
<path d="M0 0 C5.44334186 3.7348477 10.34502301 9.0359623 12.140625 15.46875 C13.22230128 26.18862923 14.23707374 38.66320889 7.140625 47.46875 C6.64820313 48.10039063 6.15578125 48.73203125 5.6484375 49.3828125 C4.140625 51.09375 4.140625 51.09375 1.140625 53.46875 C-0.509375 53.46875 -2.159375 53.46875 -3.859375 53.46875 C-3.859375 45.54875 -3.859375 37.62875 -3.859375 29.46875 C-9.139375 29.46875 -14.419375 29.46875 -19.859375 29.46875 C-19.859375 37.38875 -19.859375 45.30875 -19.859375 53.46875 C-24.859375 53.46875 -24.859375 53.46875 -26.73828125 52.25390625 C-27.29386719 51.68542969 -27.84945313 51.11695313 -28.421875 50.53125 C-28.98003906 49.98597656 -29.53820312 49.44070312 -30.11328125 48.87890625 C-35.28887452 41.73496655 -36.50281695 35.10241837 -36.359375 26.40625 C-36.37484375 25.46458984 -36.3903125 24.52292969 -36.40625 23.55273438 C-36.36409387 15.98043979 -34.72667348 10.70023129 -29.67578125 5.0078125 C-28.56009766 4.06035156 -28.56009766 4.06035156 -27.421875 3.09375 C-26.68066406 2.44664063 -25.93945312 1.79953125 -25.17578125 1.1328125 C-17.68122943 -4.25113198 -8.10718954 -4.08275732 0 0 Z " fill="#F7B341" transform="translate(435.859375,66.53125)"/>
<path d="M0 0 C0.78159988 0.15605713 1.56319977 0.31211426 2.3684845 0.47290039 C4.91853077 0.98415079 7.46590775 1.50757008 10.01342773 2.03125 C11.79403141 2.39073242 13.57479078 2.74944441 15.35569763 3.10742188 C20.01786594 4.04669236 24.67785941 4.99634352 29.33746338 5.94824219 C34.1025204 6.91974386 38.86957938 7.88131631 43.63647461 8.84375 C52.97113207 10.72992303 62.30352 12.62707917 71.63452148 14.53125 C71.63452148 14.86125 71.63452148 15.19125 71.63452148 15.53125 C15.20452148 15.53125 -41.22547852 15.53125 -99.36547852 15.53125 C-99.36547852 15.20125 -99.36547852 14.87125 -99.36547852 14.53125 C-88.83142076 12.43504375 -78.29557203 10.34810971 -67.75737095 8.27282715 C-62.8635445 7.30878968 -57.97037932 6.34163065 -53.07861328 5.3671875 C-48.35329772 4.42602322 -43.62639387 3.49325544 -38.89829826 2.56616211 C-37.09930941 2.2119079 -35.30090182 1.85468796 -33.5031147 1.49438477 C-30.97509253 0.98827046 -28.44516463 0.49296825 -25.91455078 0 C-25.18014771 -0.14961182 -24.44574463 -0.29922363 -23.68908691 -0.45336914 C-15.54853573 -2.01378882 -8.08327145 -1.68974462 0 0 Z " fill="#0051A2" transform="translate(269.365478515625,464.46875)"/>
<path d="M0 0 C5.28 0 10.56 0 16 0 C16.37125 1.381875 16.7425 2.76375 17.125 4.1875 C18.75004042 9.12482376 20.74489133 11.10290473 25 14 C29.45053441 16.22526721 34.22058647 15.24681428 38.75 13.8125 C45.13053439 10.25412505 45.96364 7.12726001 48 0 C53.28 0 58.56 0 64 0 C64 8.93670854 60.91282344 16.06928215 55.36328125 23.0625 C53.6601047 24.64608304 52.00159285 25.81634686 50 27 C49.20980469 27.48082031 48.41960937 27.96164063 47.60546875 28.45703125 C39.61739071 32.70252514 31.18224309 33.65661903 22.390625 31.30078125 C20.10628525 30.36735277 18.09710933 29.29801738 16 28 C15.30261719 27.5875 14.60523438 27.175 13.88671875 26.75 C6.9380387 22.14371869 2.50890384 14.89015087 0 7 C0 4.69 0 2.38 0 0 Z " fill="#040302" transform="translate(224,184)"/>
<path d="M0 0 C0.04944549 6.05060637 0.08574129 12.10109505 0.10986328 18.15185547 C0.11991954 20.21014454 0.13356629 22.26841933 0.15087891 24.32666016 C0.17514354 27.28551763 0.18648688 30.24418617 0.1953125 33.203125 C0.20563507 34.12305237 0.21595764 35.04297974 0.22659302 35.99078369 C0.22674408 36.8513739 0.22689514 37.71196411 0.22705078 38.59863281 C0.231492 39.35364075 0.23593323 40.10864868 0.24050903 40.88653564 C-0.04242492 43.37280747 -0.62232517 44.91102738 -2 47 C-8.90717735 50.20690377 -16.37748646 52 -24 52 C-24 35.5 -24 19 -24 2 C-7 0 -7 0 0 0 Z " fill="#F7C9C9" transform="translate(360,378)"/>
<path d="M0 0 C0.81170654 0.49749756 1.62341309 0.99499512 2.4597168 1.50756836 C3.7890625 2.31484375 3.7890625 2.31484375 5.14526367 3.13842773 C6.05727539 3.70239258 6.96928711 4.26635742 7.90893555 4.84741211 C8.8402832 5.41524414 9.77163086 5.98307617 10.73120117 6.56811523 C13.02374211 7.96715304 15.31187307 9.37289692 17.59643555 10.78491211 C15.4726803 13.11368026 13.56288365 14.45639743 10.69506836 15.74609375 C9.91705872 16.09978531 9.13904907 16.45347687 8.33746338 16.81788635 C7.49995544 17.18985641 6.66244751 17.56182648 5.79956055 17.94506836 C4.93256531 18.33560898 4.06557007 18.7261496 3.17230225 19.12852478 C1.33794679 19.95291727 -0.49793194 20.77392747 -2.33520508 21.59179688 C-5.13283886 22.83817859 -7.92471954 24.09678497 -10.71606445 25.35717773 C-12.50219205 26.15804597 -14.28864034 26.95819944 -16.07543945 27.75756836 C-16.90485046 28.13156265 -17.73426147 28.50555695 -18.58880615 28.8908844 C-23.14157905 30.90946442 -27.57791756 32.54699717 -32.40356445 33.78491211 C-33.91240658 30.35122617 -35.40909846 26.91237662 -36.90356445 23.47241211 C-37.33282227 22.49594727 -37.76208008 21.51948242 -38.2043457 20.51342773 C-38.61040039 19.57563477 -39.01645508 18.6378418 -39.43481445 17.67163086 C-40.00039062 16.3755188 -40.00039062 16.3755188 -40.57739258 15.05322266 C-41.40356445 12.78491211 -41.40356445 12.78491211 -41.40356445 9.78491211 C-36.65860975 8.04178203 -31.90813429 6.31501789 -27.15185547 4.60302734 C-25.53533326 4.01860361 -23.92039732 3.4297724 -22.30712891 2.83642578 C-19.9852548 1.98333191 -17.65810023 1.14635488 -15.3293457 0.31225586 C-14.61144363 0.04460922 -13.89354156 -0.22303741 -13.15388489 -0.49879456 C-7.88129919 -2.36132553 -4.94969341 -2.50224724 0 0 Z " fill="#023886" transform="translate(220.403564453125,291.215087890625)"/>
<path d="M0 0 C0.7031987 0.24274155 1.4063974 0.48548309 2.13090515 0.73558044 C4.36307085 1.50689083 6.59365255 2.28267141 8.82421875 3.05859375 C10.34299636 3.58428087 11.86187553 4.10967469 13.38085938 4.63476562 C17.09233019 5.91848219 20.80238754 7.20620844 24.51171875 8.49609375 C23.91399211 11.93102951 23.03644091 14.93840871 21.6640625 18.140625 C21.30634766 18.98173828 20.94863281 19.82285156 20.58007812 20.68945312 C20.20689453 21.55376953 19.83371094 22.41808594 19.44921875 23.30859375 C19.07216797 24.19224609 18.69511719 25.07589844 18.30664062 25.98632812 C17.37923185 28.15810817 16.4466662 30.32755314 15.51171875 32.49609375 C9.1173954 30.49723975 3.02307776 28.08735599 -3.08203125 25.3359375 C-3.95476685 24.94539688 -4.82750244 24.55485626 -5.72668457 24.15248108 C-7.5528313 23.33359924 -9.37797653 22.51248061 -11.20214844 21.68920898 C-14.00494942 20.42608197 -16.81278558 19.17465504 -19.62109375 17.92382812 C-21.4000543 17.12439788 -23.17871147 16.32429212 -24.95703125 15.5234375 C-25.79858765 15.14944321 -26.64014404 14.77544891 -27.50720215 14.39012146 C-28.66476013 13.86431236 -28.66476013 13.86431236 -29.84570312 13.32788086 C-30.52693237 13.02160263 -31.20816162 12.7153244 -31.91003418 12.39976501 C-33.48828125 11.49609375 -33.48828125 11.49609375 -34.48828125 9.49609375 C-30.94010808 7.28468042 -27.37272842 5.10636011 -23.80078125 2.93359375 C-22.79337891 2.30517578 -21.78597656 1.67675781 -20.74804688 1.02929688 C-19.77158203 0.43955078 -18.79511719 -0.15019531 -17.7890625 -0.7578125 C-16.89356689 -1.30767822 -15.99807129 -1.85754395 -15.07543945 -2.42407227 C-9.96086662 -4.55880433 -4.98759171 -1.7419299 0 0 Z " fill="#023987" transform="translate(308.48828125,292.50390625)"/>
<path d="M0 0 C5.67476113 1.96434039 9.31400331 5.62800662 12 11 C12.3962444 16.84460492 11.95926533 20.77196458 9 26 C4.7026008 30.65852518 1.25564586 31.81809308 -4.875 32.3125 C-9.23455451 32.24767391 -11.6384369 30.82676897 -15 28 C-19.39893104 23.00661882 -20.35676337 20.08984773 -20.28125 13.5390625 C-19.73016315 8.56397287 -16.99302299 5.87480597 -13.375 2.6875 C-8.92314854 -0.47565762 -5.3540278 -0.48837416 0 0 Z " fill="#8495B7" transform="translate(292,120)"/>
<path d="M0 0 C5.67476113 1.96434039 9.31400331 5.62800662 12 11 C12.3962444 16.84460492 11.95926533 20.77196458 9 26 C4.7026008 30.65852518 1.25564586 31.81809308 -4.875 32.3125 C-9.23455451 32.24767391 -11.6384369 30.82676897 -15 28 C-19.39893104 23.00661882 -20.35676337 20.08984773 -20.28125 13.5390625 C-19.73016315 8.56397287 -16.99302299 5.87480597 -13.375 2.6875 C-8.92314854 -0.47565762 -5.3540278 -0.48837416 0 0 Z " fill="#8495B7" transform="translate(228,120)"/>
<path d="M0 0 C2.45960695 1.64121255 3.20638599 2.68322319 4.171875 5.44921875 C4.65152481 11.30094649 4.13196477 15.21972681 1.171875 20.44921875 C-3.1255242 25.10774393 -6.57247914 26.26731183 -12.703125 26.76171875 C-17.06267951 26.69689266 -19.4665619 25.27598772 -22.828125 22.44921875 C-26.43533433 18.45204084 -27.96802445 15.45079573 -28.078125 10.07421875 C-28.10390625 9.32398438 -28.1296875 8.57375 -28.15625 7.80078125 C-27.72155752 4.68548517 -26.72957164 2.95176788 -24.828125 0.44921875 C-15.37263113 -5.69611008 -9.68025486 -4.64945574 0 0 Z " fill="#00A0F9" transform="translate(267.828125,317.55078125)"/>
<path d="M0 0 C0.66 0 1.32 0 2 0 C3.48046875 1.72265625 3.48046875 1.72265625 5.1875 4.0625 C9.68695401 10.00252765 14.27688579 15.53657753 21 19 C19.82089473 22.53731582 18.8449371 23.06827369 15.875 25.1875 C10.10518819 29.5309628 5.04539066 34.36487348 2 41 C1.34 41 0.68 41 0 41 C-1.15625 39.34765625 -1.15625 39.34765625 -2.5 37.0625 C-6.72523797 30.46904222 -12.50637355 25.3290843 -19 21 C-19 20.34 -19 19.68 -19 19 C-17.49609375 17.73828125 -17.49609375 17.73828125 -15.4375 16.3125 C-10.07802976 12.41384112 -5.27254394 8.18480138 -1.6875 2.5625 C-1.130625 1.716875 -0.57375 0.87125 0 0 Z " fill="#F6CC93" transform="translate(71,60)"/>
<path d="M0 0 C0 10.89 0 21.78 0 33 C-3.6526057 31.53895772 -6.8859006 30.06722424 -10.31640625 28.20703125 C-11.82654297 27.38948364 -11.82654297 27.38948364 -13.3671875 26.55541992 C-14.42164063 25.98025635 -15.47609375 25.40509277 -16.5625 24.8125 C-17.63628906 24.22895752 -18.71007812 23.64541504 -19.81640625 23.04418945 C-26.95276498 19.15286035 -34.03858656 15.19822083 -41 11 C-37.669003 8.77933533 -34.68949363 8.1243189 -30.84765625 7.34375 C-29.8028434 7.12205139 -29.8028434 7.12205139 -28.73692322 6.89587402 C-26.51336064 6.42441719 -24.28818034 5.9613482 -22.0625 5.5 C-19.84047209 5.03831118 -17.61896383 4.57464729 -15.39878845 4.10412598 C-14.01867578 3.81168186 -12.63748635 3.52426144 -11.25514221 3.24255371 C-7.5011949 2.4476996 -3.69958629 0 0 0 Z " fill="#825234" transform="translate(336,57)"/>
<path d="M0 0 C3.690959 1.23031967 4.40627699 2.591885 6.6875 5.6875 C10.30298975 10.36281791 14.0697731 13.77437283 19 17 C17.55901187 20.52582203 15.84359196 22.08238114 12.75 24.25 C8.22866121 27.61726524 5.09897169 31.32116038 2 36 C-1.690959 34.76968033 -2.40627699 33.408115 -4.6875 30.3125 C-8.30298975 25.63718209 -12.0697731 22.22562717 -17 19 C-15.76968033 15.309041 -14.408115 14.59372301 -11.3125 12.3125 C-6.63718209 8.69701025 -3.22562717 4.9302269 0 0 Z " fill="#F7BD69" transform="translate(447,230)"/>
<path d="M0 0 C0.85722656 0.16242188 1.71445313 0.32484375 2.59765625 0.4921875 C10.31588457 1.64416188 18.32981914 1.42701039 26 0 C26.81674796 1.74802146 27.62823451 3.49850189 28.4375 5.25 C29.11619141 6.71179688 29.11619141 6.71179688 29.80859375 8.203125 C30.78382356 10.49251695 31.4974274 12.57378746 32 15 C24.36234166 16.81560816 16.79305936 18.27388397 9 19.1875 C8.29496338 19.27112793 7.58992676 19.35475586 6.86352539 19.44091797 C2.89028062 19.88076056 -1.00377071 20.08117341 -5 20 C-4.45484328 12.91296261 -2.39081395 6.67203894 0 0 Z " fill="#0086F6" transform="translate(243,358)"/>
<path d="M0 0 C3.63303084 1.69586126 5.94549046 3.73800488 8.75 6.625 C9.54921875 7.44226562 10.3484375 8.25953125 11.171875 9.1015625 C11.77515625 9.72804688 12.3784375 10.35453125 13 11 C10.97699054 15.43626553 8.02132242 18.38251359 4.625 21.8125 C4.0475 22.42287109 3.47 23.03324219 2.875 23.66210938 C2.31039063 24.23380859 1.74578125 24.80550781 1.1640625 25.39453125 C0.65311035 25.91893799 0.1421582 26.44334473 -0.38427734 26.98364258 C-2 28 -2 28 -4.0480957 27.78320312 C-6.89333855 26.64154721 -8.64049223 24.83143659 -10.8125 22.6875 C-11.62332031 21.90761719 -12.43414062 21.12773438 -13.26953125 20.32421875 C-15 18 -15 18 -14.80566406 16.07055664 C-13.85429127 13.62552856 -12.71642318 12.37273607 -10.83984375 10.546875 C-10.21142578 9.928125 -9.58300781 9.309375 -8.93554688 8.671875 C-8.27619141 8.03765625 -7.61683594 7.4034375 -6.9375 6.75 C-6.27427734 6.1003125 -5.61105469 5.450625 -4.92773438 4.78125 C-3.29170683 3.1805324 -1.64909088 1.58723807 0 0 Z " fill="#15110E" transform="translate(473,26)"/>
<path d="M0 0 C2.93230193 1.32120828 4.98664899 2.74638197 7.234375 5.0390625 C7.80800781 5.61914062 8.38164062 6.19921875 8.97265625 6.796875 C9.55917969 7.40015625 10.14570313 8.0034375 10.75 8.625 C11.35199219 9.23601563 11.95398438 9.84703125 12.57421875 10.4765625 C14.05405305 11.97988624 15.52764676 13.48934856 17 15 C15.46356148 18.68069887 13.21849055 20.98775204 10.375 23.75 C9.55773437 24.54921875 8.74046875 25.3484375 7.8984375 26.171875 C7.27195312 26.77515625 6.64546875 27.3784375 6 28 C3.06769807 26.67879172 1.01335101 25.25361803 -1.234375 22.9609375 C-1.80800781 22.38085938 -2.38164062 21.80078125 -2.97265625 21.203125 C-3.55917969 20.59984375 -4.14570313 19.9965625 -4.75 19.375 C-5.35199219 18.76398437 -5.95398438 18.15296875 -6.57421875 17.5234375 C-8.05405305 16.02011376 -9.52764676 14.51065144 -11 13 C-9.46356148 9.31930113 -7.21849055 7.01224796 -4.375 4.25 C-3.55773437 3.45078125 -2.74046875 2.6515625 -1.8984375 1.828125 C-0.95871094 0.92320313 -0.95871094 0.92320313 0 0 Z " fill="#120F0A" transform="translate(373,26)"/>
<path d="M0 0 C3.3 0 6.6 0 10 0 C10 7.26 10 14.52 10 22 C-0.83050847 19.59322034 -0.83050847 19.59322034 -4 17 C-6.06364871 13.36404752 -6.60280359 10.13351036 -6 6 C-3.5625 3.1875 -3.5625 3.1875 -1 1 C-0.67 0.67 -0.34 0.34 0 0 Z " fill="#F2B2B2" transform="translate(150,128)"/>
<path d="M0 0 C10 0 10 0 13.0625 2.4375 C13.701875 3.283125 14.34125 4.12875 15 5 C15.33 5.33 15.66 5.66 16 6 C16.04196411 10.13766166 15.72856196 13.84644357 13.5 17.375 C9.58464746 19.91997915 4.73741933 22 0 22 C0 14.74 0 7.48 0 0 Z " fill="#F3B2B2" transform="translate(352,128)"/>
<path d="M0 0 C3.18559952 1.39633107 5.23943845 3.04557493 7.625 5.5625 C10.04521959 8.14015389 10.04521959 8.14015389 13 10 C13 10.66 13 11.32 13 12 C11.35546875 13.62109375 11.35546875 13.62109375 9.1875 15.4375 C6.68897282 17.54463676 4.2757944 19.65241398 2 22 C-1.45201639 20.52278578 -3.64961936 18.56205999 -6.25 15.875 C-6.95640625 15.15054688 -7.6628125 14.42609375 -8.390625 13.6796875 C-8.92171875 13.12539062 -9.4528125 12.57109375 -10 12 C-8.52278578 8.54798361 -6.56205999 6.35038064 -3.875 3.75 C-3.15054688 3.04359375 -2.42609375 2.3371875 -1.6796875 1.609375 C-1.12539062 1.07828125 -0.57109375 0.5471875 0 0 Z " fill="#F0B765" transform="translate(95,221)"/>
<path d="M0 0 C5.28 0 10.56 0 16 0 C16 5.28 16 10.56 16 16 C10.72 16 5.44 16 0 16 C0 10.72 0 5.44 0 0 Z " fill="#000000" transform="translate(480,80)"/>
<path d="M0 0 C5.28 0 10.56 0 16 0 C16 5.28 16 10.56 16 16 C10.72 16 5.44 16 0 16 C0 10.72 0 5.44 0 0 Z " fill="#000000" transform="translate(416,16)"/>
<path d="M0 0 C5.28 0 10.56 0 16 0 C16.43612335 10.9030837 16.43612335 10.9030837 13 15 C10.19084526 16.40457737 8.11189466 16.24895157 5 16 C1.8640843 14.22015595 1.15897264 13.47691793 0 10 C-0.13143471 6.66155835 -0.04340976 3.34255132 0 0 Z " fill="#C87F20" transform="translate(416,136)"/>
</svg>
