<?xml version="1.0" encoding="UTF-8"?>
<svg version="1.1" xmlns="http://www.w3.org/2000/svg" width="512" height="512">
<path d="M0 0 C11.80628858 10.09048952 18.44672531 22.33593724 23.64453125 36.828125 C25.30569202 41.11144864 27.49123571 43.42800908 30.8359375 46.4921875 C37.41842552 53.39074489 40.86351613 62.25029751 42.70703125 71.453125 C42.93390625 72.54625 43.16078125 73.639375 43.39453125 74.765625 C45.13473291 95.30000458 40.91172287 114.78932076 32.58203125 133.515625 C29.52515434 140.88488185 28.63145524 148.07317984 27.74291992 155.96508789 C24.76230384 182.14220276 14.14850397 203.01165228 -4.29296875 221.453125 C-4.4506128 223.23182226 -4.54397552 225.01630976 -4.609375 226.80078125 C-4.65126953 227.88037109 -4.69316406 228.95996094 -4.73632812 230.07226562 C-4.77564453 231.20857422 -4.81496094 232.34488281 -4.85546875 233.515625 C-4.89865234 234.65580078 -4.94183594 235.79597656 -4.98632812 236.97070312 C-5.09279714 239.79804695 -5.19481082 242.62548238 -5.29296875 245.453125 C-4.49826172 245.43741455 -3.70355469 245.4217041 -2.88476562 245.40551758 C30.35242209 244.83536605 58.34838072 250.18169024 83.08886719 273.82324219 C101.44011893 292.30739376 110.99887549 316.65622865 111.01342773 342.55029297 C111.02175125 343.82304581 111.03007477 345.09579865 111.03865051 346.40711975 C111.06040678 349.86743876 111.06936653 353.32766959 111.07447696 356.78804922 C111.0781375 358.95270532 111.08438565 361.11733883 111.09147835 363.28198624 C111.11588936 370.84034479 111.1290104 378.3986353 111.13256836 385.95703125 C111.13621607 392.99533002 111.16622026 400.03319613 111.20797294 407.07136238 C111.24263824 413.1276425 111.25811599 419.18377856 111.25881439 425.24015725 C111.25960731 428.85201755 111.26835509 432.46343408 111.29681206 436.0751915 C111.327783 440.09454998 111.31895163 444.11286616 111.30639648 448.13232422 C111.32123077 449.32717941 111.33606506 450.52203461 111.35134888 451.75309753 C111.34158524 452.84639877 111.33182159 453.93970001 111.32176208 455.06613159 C111.32377341 456.01549528 111.32578474 456.96485897 111.32785702 457.94299126 C110.70703125 460.453125 110.70703125 460.453125 108.83022118 462.75974846 C104.26754684 465.23360559 100.23558065 464.99321468 95.1212616 464.93414307 C94.0430152 464.93756077 92.96476881 464.94097847 91.85384828 464.94449973 C88.23457195 464.9510974 84.61603438 464.92907033 80.99682617 464.90722656 C78.40498879 464.9060985 75.81315012 464.90673114 73.22131348 464.90899658 C67.63808203 464.91109337 62.05503765 464.89855 56.47185326 464.87604523 C48.39955194 464.84352848 40.32734103 464.83311856 32.25498132 464.82809326 C19.15797338 464.81934009 6.06106514 464.79272392 -7.03588867 464.75488281 C-19.75788881 464.71816329 -32.47986186 464.68985125 -45.2019043 464.67285156 C-46.37830363 464.67127522 -46.37830363 464.67127522 -47.5784686 464.66966704 C-51.512926 464.66444686 -55.44738358 464.65939204 -59.3818413 464.65441942 C-92.01895636 464.61295669 -124.65594921 464.54250768 -157.29296875 464.453125 C-157.26976562 465.29617188 -157.2465625 466.13921875 -157.22265625 467.0078125 C-157.20460937 468.10351562 -157.1865625 469.19921875 -157.16796875 470.328125 C-157.14476562 471.41867187 -157.1215625 472.50921875 -157.09765625 473.6328125 C-157.29296875 476.453125 -157.29296875 476.453125 -159.29296875 478.453125 C-162.24137783 478.71039391 -162.24137783 478.71039391 -166.10313416 478.72055054 C-166.81170344 478.72508165 -167.52027273 478.72961276 -168.25031382 478.73428118 C-170.63691192 478.74699318 -173.02328379 478.74530042 -175.40991211 478.74365234 C-177.11647843 478.74963376 -178.82304203 478.75643841 -180.52960205 478.76400757 C-185.17678259 478.78172402 -189.82388953 478.78636559 -194.47110057 478.78763914 C-198.35225472 478.7895364 -202.23339167 478.79689278 -206.11453921 478.80398333 C-215.27892363 478.8202898 -224.44326875 478.8251506 -233.60766602 478.82373047 C-243.04836353 478.82253156 -252.48883148 478.84357807 -261.92947096 478.8752178 C-270.03918115 478.90142456 -278.14881664 478.91209577 -286.25856882 478.91081965 C-291.09972185 478.91031088 -295.94067142 478.91594554 -300.78178215 478.93717575 C-305.34302134 478.95662975 -309.90386474 478.95663389 -314.46511841 478.94214249 C-316.1327275 478.94006145 -317.8003618 478.94471295 -319.46792793 478.9568634 C-331.89591879 479.0414957 -342.3585973 477.7730817 -352.22265625 469.5 C-360.40612105 461.4091782 -364.58882624 452.28907101 -364.69886106 440.81158441 C-364.69285102 439.87441082 -364.68684097 438.93723722 -364.6806488 437.97166443 C-364.68603434 436.95281459 -364.69141988 435.93396476 -364.69696862 434.88424069 C-364.71121108 431.48967813 -364.70415355 428.09550756 -364.69702148 424.70092773 C-364.70272688 422.25940641 -364.7096918 419.81788775 -364.71781921 417.37637329 C-364.73388492 411.44525354 -364.73585572 405.51423171 -364.73060631 399.5831018 C-364.72655691 394.76119639 -364.72801728 389.93932222 -364.73335457 385.11741829 C-364.73410299 384.42988253 -364.73485141 383.74234678 -364.73562251 383.0339766 C-364.73715406 381.63706325 -364.7386924 380.24014991 -364.74023748 378.84323657 C-364.75394749 365.7603282 -364.7485348 352.67747972 -364.73705227 339.59457273 C-364.72711558 327.63418274 -364.7400707 315.67394735 -364.76398646 303.7135812 C-364.78838512 291.41870663 -364.79798382 279.12390406 -364.79133373 266.82900578 C-364.78784397 259.93184571 -364.79005782 253.0348046 -364.80758476 246.13766289 C-364.82385711 239.65413442 -364.81911328 233.17082864 -364.80027962 226.68730545 C-364.79659031 224.30891158 -364.79971208 221.93049587 -364.81016541 219.55212212 C-364.82335257 216.30360727 -364.81184697 213.05607459 -364.79417419 209.80760193 C-364.8037792 208.86819761 -364.81338421 207.9287933 -364.82328027 206.96092218 C-364.74769698 200.20111108 -363.34109416 194.54058106 -358.4765625 189.61328125 C-357.90035156 189.25105469 -357.32414062 188.88882813 -356.73046875 188.515625 C-355.86228516 187.94521484 -355.86228516 187.94521484 -354.9765625 187.36328125 C-351.03691839 185.23349685 -347.627979 185.32042227 -343.22846985 185.30595398 C-342.50467878 185.30227729 -341.78088771 185.2986006 -341.03516358 185.2948125 C-338.60326923 185.28377568 -336.17141761 185.27993182 -333.73950195 185.27612305 C-331.99836593 185.26985835 -330.25723124 185.26321155 -328.51609802 185.25621033 C-322.79199149 185.23516684 -317.06788468 185.22480713 -311.34375 185.21484375 C-309.37298252 185.21079619 -307.40221518 185.20667927 -305.43144798 185.20249367 C-296.17192667 185.18344074 -286.91241334 185.16921037 -277.6528762 185.1608817 C-266.96650699 185.15111087 -256.280345 185.12479578 -245.5940488 185.08438081 C-237.33320799 185.05421168 -229.07242655 185.03941203 -220.81153172 185.03610069 C-215.87825688 185.03375095 -210.9452034 185.02480045 -206.01198769 184.99963951 C-201.3686863 184.97634014 -196.72575171 184.97213307 -192.082407 184.98240089 C-190.38127929 184.98289592 -188.68013341 184.97658513 -186.97906113 184.96284485 C-169.45995812 184.82929173 -169.45995812 184.82929173 -162.79424 190.79430676 C-156.70230148 197.30696209 -157.01069322 205.0613307 -157.09765625 213.41796875 C-157.10048615 214.45127823 -157.10331604 215.48458771 -157.10623169 216.54920959 C-157.11737228 219.82980222 -157.14246571 223.11011573 -157.16796875 226.390625 C-157.17800645 228.62304292 -157.18713092 230.85546514 -157.1953125 233.08789062 C-157.21729154 238.543063 -157.25070791 243.99807405 -157.29296875 249.453125 C-156.50792969 249.24816406 -155.72289062 249.04320312 -154.9140625 248.83203125 C-153.86347656 248.56261719 -152.81289062 248.29320312 -151.73046875 248.015625 C-150.18166016 247.61537109 -150.18166016 247.61537109 -148.6015625 247.20703125 C-142.78286374 245.88116483 -137.22853873 245.32896691 -131.265625 245.35546875 C-129.33686523 245.36030273 -129.33686523 245.36030273 -127.36914062 245.36523438 C-126.0312493 245.37358698 -124.69335868 245.38205189 -123.35546875 245.390625 C-121.99023601 245.39564841 -120.62500149 245.40020983 -119.25976562 245.40429688 C-115.93745418 245.41603649 -112.61523467 245.43245821 -109.29296875 245.453125 C-108.01015426 229.98447751 -108.01015426 229.98447751 -112.3046875 215.734375 C-114.81412605 213.10701305 -114.81412605 213.10701305 -117.58984375 210.80859375 C-132.12166806 198.14574685 -139.21292348 171.92210462 -140.640625 153.43359375 C-141.36676006 144.42059199 -143.47052167 138.46404827 -148.26171875 130.8125 C-158.74616043 113.47284645 -161.17779127 91.09834288 -156.60546875 71.515625 C-152.54247615 55.61196319 -144.94581761 41.8914796 -134.29296875 29.453125 C-133.63941406 28.65390625 -132.98585937 27.8546875 -132.3125 27.03125 C-102.88264804 -7.64407276 -39.59403536 -31.82655813 0 0 Z " fill="#364049" transform="translate(383.29296875,32.546875)"/>
<path d="M0 0 C1.0856866 -0.00551503 1.0856866 -0.00551503 2.19330627 -0.01114148 C4.62520062 -0.0221783 7.05705224 -0.02602216 9.4889679 -0.02983093 C11.23010392 -0.03609563 12.97123861 -0.04274243 14.71237183 -0.04974365 C20.43647836 -0.07078714 26.16058516 -0.08114685 31.88471985 -0.09111023 C33.85548733 -0.09515779 35.82625467 -0.09927471 37.79702187 -0.10346031 C47.05654317 -0.12251324 56.31605651 -0.13674361 65.57559365 -0.14507228 C76.26196286 -0.15484311 86.94812485 -0.18115819 97.63442105 -0.22157317 C105.89526186 -0.2517423 114.1560433 -0.26654195 122.41693813 -0.26985329 C127.35021296 -0.27220303 132.28326645 -0.28115353 137.21648216 -0.30631447 C141.85978355 -0.32961384 146.50271814 -0.33382091 151.14606285 -0.32355309 C152.84719056 -0.32305805 154.54833643 -0.32936885 156.24940872 -0.34310913 C173.76851173 -0.47666225 173.76851173 -0.47666225 180.43422985 5.48835278 C186.57584437 12.0541148 186.22545859 19.95275588 186.18946838 28.37759399 C186.19414836 30.06278878 186.19414836 30.06278878 186.19892287 31.7820279 C186.20689298 35.54222355 186.20058304 39.3022574 186.19429016 43.06245422 C186.19700038 45.75971957 186.20048915 48.4569738 186.20491028 51.15423584 C186.21379434 57.71593619 186.2118871 64.27759073 186.206085 70.83929286 C186.20156655 76.16996724 186.20095639 81.5006288 186.20313263 86.83130455 C186.2034391 87.59022765 186.20374556 88.34915076 186.20406131 89.13107153 C186.20470076 90.67278734 186.20534919 92.21450314 186.2060065 93.75621893 C186.2117064 108.20427076 186.20515623 122.65229719 186.19440576 137.10034486 C186.18546153 149.50537057 186.18703013 161.91035887 186.19624329 174.31538391 C186.20693637 188.71981443 186.21116662 203.12422273 186.20501876 217.52865666 C186.20438165 219.06314321 186.20375291 220.59762976 186.20313263 222.13211632 C186.2026698 223.26464613 186.2026698 223.26464613 186.20219763 224.42005533 C186.20046847 229.74870393 186.20339034 235.07733846 186.20809174 240.40598488 C186.21368949 246.8931024 186.21220714 253.3801715 186.20153025 259.86728344 C186.19625995 263.17892255 186.19530945 266.49046371 186.20082855 269.80210495 C186.20625201 273.38537406 186.19948905 276.96841208 186.18946838 280.55166626 C186.19616055 282.13494523 186.19616055 282.13494523 186.20298791 283.75020963 C186.19516467 285.18138302 186.19516467 285.18138302 186.18718338 286.641469 C186.18685868 287.46926202 186.18653397 288.29705503 186.18619943 289.14993268 C185.9355011 291.14717102 185.9355011 291.14717102 183.9355011 293.14717102 C180.98709202 293.40443993 180.98709202 293.40443993 177.12533569 293.41459656 C176.4167664 293.41912767 175.70819712 293.42365878 174.97815603 293.4283272 C172.59155793 293.4410392 170.20518606 293.43934644 167.81855774 293.43769836 C166.11199142 293.44367978 164.40542781 293.45048443 162.6988678 293.45805359 C158.05168726 293.47577004 153.40458032 293.48041161 148.75736928 293.48168516 C144.87621513 293.48358242 140.99507818 293.4909388 137.11393064 293.49802935 C127.94954622 293.51433582 118.7852011 293.51919662 109.62080383 293.51777649 C100.18010632 293.51657758 90.73963837 293.53762409 81.29899889 293.56926382 C73.1892887 293.59547058 65.0796532 293.60614179 56.96990103 293.60486567 C52.128748 293.6043569 47.28779843 293.60999156 42.4466877 293.63122177 C37.8854485 293.65067578 33.3246051 293.65067991 28.76335144 293.63618851 C27.09574234 293.63410747 25.42810804 293.63875897 23.76054192 293.65090942 C11.33255106 293.73554172 0.86987255 292.46712772 -8.9941864 284.19404602 C-17.1776512 276.10322422 -21.36035639 266.98311703 -21.47039121 255.50563043 C-21.46438117 254.56845684 -21.45837112 253.63128324 -21.45217896 252.66571045 C-21.45756449 251.64686061 -21.46295003 250.62801078 -21.46849877 249.57828671 C-21.48274123 246.18372415 -21.4756837 242.78955358 -21.46855164 239.39497375 C-21.47425703 236.95345243 -21.48122195 234.51193377 -21.48934937 232.07041931 C-21.50541508 226.13929957 -21.50738587 220.20827773 -21.50213646 214.27714782 C-21.49808706 209.45524241 -21.49954743 204.63336824 -21.50488472 199.81146431 C-21.50563314 199.12392855 -21.50638156 198.4363928 -21.50715267 197.72802262 C-21.50868421 196.33110927 -21.51022256 194.93419593 -21.51176763 193.53728259 C-21.52547764 180.45437422 -21.52006495 167.37152574 -21.50858242 154.28861875 C-21.49864573 142.32822876 -21.51160085 130.36799337 -21.53551661 118.40762722 C-21.55991527 106.11275265 -21.56951397 93.81795008 -21.56286389 81.5230518 C-21.55937412 74.62589174 -21.56158797 67.72885062 -21.57911491 60.83170891 C-21.59538726 54.34818044 -21.59064343 47.86487466 -21.57180977 41.38135147 C-21.56812046 39.0029576 -21.57124224 36.62454189 -21.58169556 34.24616814 C-21.59488272 30.99765329 -21.58337712 27.75012061 -21.56570435 24.50164795 C-21.57530935 23.56224363 -21.58491436 22.62283932 -21.59481043 21.6549682 C-21.51922714 14.8951571 -20.11262431 9.23462708 -15.24809265 4.30732727 C-14.67188171 3.94510071 -14.09567078 3.58287415 -13.5019989 3.20967102 C-12.63381531 2.63926086 -12.63381531 2.63926086 -11.74809265 2.05732727 C-7.80844854 -0.07245713 -4.39950915 0.01446829 0 0 Z " fill="#A56B44" transform="translate(40.06449890136719,217.8528289794922)"/>
<path d="M0 0 C11.80628858 10.09048952 18.44672531 22.33593724 23.64453125 36.828125 C25.30569202 41.11144864 27.49123571 43.42800908 30.8359375 46.4921875 C37.41842552 53.39074489 40.86351613 62.25029751 42.70703125 71.453125 C42.93390625 72.54625 43.16078125 73.639375 43.39453125 74.765625 C45.13473291 95.30000458 40.91172287 114.78932076 32.58203125 133.515625 C29.52515434 140.88488185 28.63145524 148.07317984 27.74291992 155.96508789 C24.76230384 182.14220276 14.14850397 203.01165228 -4.29296875 221.453125 C-4.32901393 223.16762993 -4.30571955 224.88344176 -4.2578125 226.59765625 C-4.06166019 246.67513764 -4.06166019 246.67513764 -9.73046875 253.203125 C-11.56689693 254.97173055 -13.42131258 256.72184304 -15.29296875 258.453125 C-16.989327 260.55766945 -18.62544861 262.65819694 -20.23046875 264.828125 C-21.06199229 265.92195108 -21.89534262 267.01439073 -22.73046875 268.10546875 C-23.14941406 268.65444824 -23.56835938 269.20342773 -24 269.76904297 C-27.57984042 274.43175808 -31.23689681 279.03496948 -34.87548828 283.65185547 C-36.33912083 285.51177296 -37.79894484 287.37462446 -39.2578125 289.23828125 C-39.74515869 289.86033447 -40.23250488 290.4823877 -40.73461914 291.12329102 C-41.65764858 292.3016432 -42.58006087 293.48047921 -43.50170898 294.65991211 C-52.46077748 306.08668675 -52.46077748 306.08668675 -57.41796875 307.078125 C-63.47056333 306.10190007 -65.68499841 302.15917327 -69.29296875 297.453125 C-70.453125 295.968125 -70.453125 295.968125 -71.63671875 294.453125 C-73.32486604 292.28101065 -74.99688104 290.09745898 -76.66015625 287.90625 C-79.31407677 284.41393637 -82.01599745 280.96098962 -84.73046875 277.515625 C-85.18566895 276.93756104 -85.64086914 276.35949707 -86.10986328 275.76391602 C-87.03597417 274.58809118 -87.96224439 273.41239182 -88.88867188 272.23681641 C-90.31195166 270.42901354 -91.73256667 268.6191485 -93.15234375 266.80859375 C-93.62615479 266.2045874 -94.09996582 265.60058105 -94.58813477 264.97827148 C-95.47174258 263.85172187 -96.35507609 262.72495702 -97.23803711 261.59790039 C-97.65190674 261.07059326 -98.06577637 260.54328613 -98.4921875 260 C-98.91725586 259.44320557 -99.34232422 258.88641113 -99.78027344 258.31274414 C-101.33329275 256.34989028 -101.33329275 256.34989028 -103.39160156 254.27905273 C-108.78219992 248.40549202 -110.07219604 244.46558347 -109.84204102 236.53173828 C-109.78459717 235.3714209 -109.72715332 234.21110352 -109.66796875 233.015625 C-109.34123136 222.01068919 -109.34123136 222.01068919 -114.85546875 213.078125 C-115.7578125 212.31757813 -116.66015625 211.55703125 -117.58984375 210.7734375 C-132.15863709 198.26785478 -139.22110117 171.81620489 -140.640625 153.43359375 C-141.36676006 144.42059199 -143.47052167 138.46404827 -148.26171875 130.8125 C-158.74616043 113.47284645 -161.17779127 91.09834288 -156.60546875 71.515625 C-152.54247615 55.61196319 -144.94581761 41.8914796 -134.29296875 29.453125 C-133.63941406 28.65390625 -132.98585937 27.8546875 -132.3125 27.03125 C-102.88264804 -7.64407276 -39.59403536 -31.82655813 0 0 Z " fill="#F8C4B7" transform="translate(383.29296875,32.546875)"/>
<path d="M0 0 C11.80628858 10.09048952 18.44672531 22.33593724 23.64453125 36.828125 C25.30569202 41.11144864 27.49123571 43.42800908 30.8359375 46.4921875 C37.41842552 53.39074489 40.86351613 62.25029751 42.70703125 71.453125 C42.93390625 72.54625 43.16078125 73.639375 43.39453125 74.765625 C44.91792139 92.74162862 41.75096212 109.56530153 35.70703125 126.453125 C35.46549316 127.13632813 35.22395508 127.81953125 34.97509766 128.5234375 C30.36900046 141.3592152 30.36900046 141.3592152 24.70703125 146.453125 C24.37703125 146.783125 24.04703125 147.113125 23.70703125 147.453125 C17.56193408 147.91690592 17.56193408 147.91690592 14.546875 146.28125 C12.12338871 143.87319993 11.9907275 142.32704299 11.58203125 138.953125 C11.43507813 137.80199219 11.288125 136.65085938 11.13671875 135.46484375 C10.98979848 134.12800467 10.84684147 132.79072636 10.70703125 131.453125 C10.62743164 130.69209473 10.54783203 129.93106445 10.46582031 129.14697266 C10.12491492 125.85398572 9.7881272 122.56058279 9.45214844 119.26708984 C8.11226907 106.40890385 5.616087 93.55696459 -1.29296875 82.453125 C-1.29296875 81.793125 -1.29296875 81.133125 -1.29296875 80.453125 C-2.03160156 80.83984375 -2.77023437 81.2265625 -3.53125 81.625 C-26.65108811 93.49337941 -50.546427 96.27531062 -75.56347656 88.36572266 C-82.02427455 86.20557392 -88.43726981 83.90530559 -94.80639648 81.48852539 C-95.80872314 81.11074951 -96.8110498 80.73297363 -97.84375 80.34375 C-98.72716064 80.00375977 -99.61057129 79.66376953 -100.52075195 79.31347656 C-103.93960845 78.17222823 -103.93960845 78.17222823 -110.29296875 77.453125 C-110.29296875 85.043125 -110.29296875 92.633125 -110.29296875 100.453125 C-110.95296875 100.453125 -111.61296875 100.453125 -112.29296875 100.453125 C-112.33164062 101.57847656 -112.33164062 101.57847656 -112.37109375 102.7265625 C-112.70944234 108.83221655 -113.49227841 113.83123637 -115.98828125 119.40625 C-117.08327043 121.96341035 -118.04625133 124.50450859 -118.97265625 127.125 C-119.27220215 127.96861084 -119.57174805 128.81222168 -119.88037109 129.68139648 C-120.4781068 131.37402152 -121.06981415 133.06879035 -121.65478516 134.76586914 C-123.26842687 139.27441167 -124.78307812 143.04487213 -128.29296875 146.453125 C-133.41673809 147.27953941 -135.00582428 147.36701431 -139.296875 144.3203125 C-151.42142299 133.58153621 -157.20549483 112.675427 -158.47753906 97.20898438 C-159.96467307 71.63883847 -150.88759368 48.82914657 -134.29296875 29.453125 C-133.63941406 28.65390625 -132.98585937 27.8546875 -132.3125 27.03125 C-102.88264804 -7.64407276 -39.59403536 -31.82655813 0 0 Z " fill="#8F6E4E" transform="translate(383.29296875,32.546875)"/>
<path d="M0 0 C0.69791932 -0.00226556 1.39583864 -0.00453111 2.11490703 -0.00686532 C4.44094061 -0.01316846 6.76691539 -0.01237837 9.09295654 -0.0115509 C10.76545283 -0.01454451 12.43794842 -0.01794751 14.11044312 -0.02172852 C18.6431391 -0.03054764 23.1758162 -0.03290562 27.70851994 -0.0335443 C31.49130412 -0.03449468 35.27408392 -0.03817409 39.05686641 -0.0417164 C47.97547424 -0.0498514 56.89407199 -0.05230133 65.81268311 -0.05158997 C75.02294856 -0.05098796 84.23315567 -0.06156637 93.44340634 -0.07733363 C101.34837917 -0.09038569 109.25333285 -0.09577492 117.15831637 -0.09513456 C121.88113124 -0.09487908 126.60389414 -0.09775834 131.3266983 -0.10831261 C135.7622895 -0.1179555 140.19777858 -0.11809916 144.63337326 -0.11079597 C146.26444777 -0.10974568 147.89552851 -0.11213916 149.52659225 -0.11815643 C151.74587764 -0.12581631 153.96480496 -0.12127213 156.18408203 -0.11352539 C157.42808399 -0.11407016 158.67208595 -0.11461493 159.95378494 -0.1151762 C162.83807373 0.13371277 162.83807373 0.13371277 164.83807373 2.13371277 C165.13000488 5.09416199 165.13000488 5.09416199 165.18865967 8.93840027 C165.20191788 9.63773682 165.21517609 10.33707336 165.22883606 11.05760193 C165.26999685 13.37459736 165.29667611 15.6914987 165.32244873 18.00871277 C165.34623176 19.61532938 165.37059228 21.22193754 165.39550781 22.82853699 C165.44546442 26.19778898 165.48824262 29.56703771 165.52606201 32.93644714 C165.57520345 37.26130042 165.64230986 41.58565429 165.71480942 45.91017151 C165.76842754 49.22827443 165.81243611 52.54645118 165.85352325 55.86473083 C165.87445918 57.45962236 165.89843682 59.05447688 165.92546844 60.64927673 C165.96178809 62.87587132 165.98516837 65.10223167 166.00506592 67.32902527 C166.02123962 68.5976239 166.03741333 69.86622253 166.05407715 71.17326355 C165.83807373 74.13371277 165.83807373 74.13371277 163.83807373 76.13371277 C160.88966465 76.39098167 160.88966465 76.39098167 157.02790833 76.40113831 C156.31933904 76.40566942 155.61076975 76.41020053 154.88072866 76.41486895 C152.49413056 76.42758095 150.10775869 76.42588819 147.72113037 76.42424011 C146.01456405 76.43022153 144.30800045 76.43702618 142.60144043 76.44459534 C137.95425989 76.46231179 133.30715295 76.46695336 128.65994191 76.46822691 C124.77878776 76.47012417 120.89765081 76.47748054 117.01650327 76.4845711 C107.85211885 76.50087757 98.68777373 76.50573837 89.52337646 76.50431824 C80.08267895 76.50311932 70.642211 76.52416584 61.20157152 76.55580556 C53.09186134 76.58201233 44.98222584 76.59268354 36.87247366 76.59140742 C32.03132063 76.59089865 27.19037106 76.5965333 22.34926033 76.61776352 C17.78802114 76.63721752 13.22717774 76.63722166 8.66592407 76.62273026 C6.99831498 76.62064922 5.33068068 76.62530071 3.66311455 76.63745117 C-8.76487631 76.72208347 -19.22755482 75.45366947 -29.09161377 67.18058777 C-37.04297299 59.31924394 -41.21098314 50.83043013 -41.53692627 39.69621277 C-41.21107939 28.02003286 -37.06409133 17.45323174 -28.47442627 9.32121277 C-19.9650572 2.41245439 -10.7854445 0.01451191 0 0 Z " fill="#8B543D" transform="translate(60.16192626953125,434.8662872314453)"/>
<path d="M0 0 C1.16208984 -0.01224609 2.32417969 -0.02449219 3.52148438 -0.03710938 C5.1834082 -0.04000977 5.1834082 -0.04000977 6.87890625 -0.04296875 C8.40559937 -0.04913208 8.40559937 -0.04913208 9.96313477 -0.05541992 C12.4375 0.1875 12.4375 0.1875 14.4375 2.1875 C14.63097926 5.0208147 14.69788456 7.75603943 14.67800903 10.59024048 C14.67971788 11.46991309 14.68142673 12.34958569 14.68318737 13.25591505 C14.68649712 16.22098433 14.67545421 19.18583026 14.66455078 22.15087891 C14.66398699 24.26937352 14.6643026 26.38786853 14.66543579 28.50636292 C14.66601155 34.27262346 14.65422122 40.03880145 14.64028788 45.80504274 C14.6278176 51.82553983 14.62661295 57.84603863 14.62423706 63.86654663 C14.61801137 75.27398142 14.60158587 86.68137806 14.58153808 98.08879602 C14.55921289 111.07287058 14.54819417 124.05694693 14.53814721 137.04103589 C14.51722056 163.75654511 14.48202349 190.47202042 14.4375 217.1875 C13.34123291 217.37723389 12.24496582 217.56696777 11.11547852 217.76245117 C9.66155756 218.02226843 8.20770361 218.28246079 6.75390625 218.54296875 C6.03319946 218.66667847 5.31249268 218.79038818 4.56994629 218.91784668 C-1.21730804 219.96692076 -5.75772041 221.73125522 -10.5625 225.1875 C-11.17222656 225.57164062 -11.78195313 225.95578125 -12.41015625 226.3515625 C-19.09547405 231.14148251 -23.39753853 240.27240976 -25.2578125 248.12109375 C-25.40863281 249.14396484 -25.40863281 249.14396484 -25.5625 250.1875 C-25.8925 250.1875 -26.2225 250.1875 -26.5625 250.1875 C-26.65378301 220.2587038 -26.72455553 190.3299123 -26.76676132 160.40100685 C-26.77176404 156.866296 -26.77694134 153.33158543 -26.78222656 149.796875 C-26.78380043 148.7413451 -26.78380043 148.7413451 -26.78540608 147.66449136 C-26.80280345 136.27583331 -26.83433743 124.88725616 -26.87111118 113.49864608 C-26.90853927 101.80976423 -26.93073979 90.1209247 -26.93885398 78.43198538 C-26.94406994 71.86776895 -26.95633438 65.30373592 -26.98542023 58.73957825 C-27.01257705 52.56068457 -27.02094429 46.3820498 -27.01493073 40.20310211 C-27.01603082 37.93596744 -27.02398285 35.66882408 -27.0393219 33.40174103 C-27.05925343 30.30384642 -27.05442705 27.20692644 -27.04351807 24.10900879 C-27.05516943 23.21404772 -27.0668208 22.31908666 -27.07882524 21.39700556 C-27.01580194 14.76555732 -25.50928554 9.17230858 -20.74609375 4.34765625 C-20.16988281 3.98542969 -19.59367187 3.62320313 -19 3.25 C-18.13181641 2.67958984 -18.13181641 2.67958984 -17.24609375 2.09765625 C-11.89937026 -0.79279984 -5.90363223 0.00328527 0 0 Z " fill="#945B3F" transform="translate(45.5625,217.8125)"/>
<path d="M0 0 C4.6513237 1.9483753 8.16234816 5.41800278 11.91064453 8.69311523 C15.26588943 11.60001777 18.65676862 14.12259307 22.375 16.5625 C25.88280368 19.25096268 25.88280368 19.25096268 26.359375 22.296875 C26.11262708 24.94530266 25.56397613 27.39944339 25 30 C23.58924417 38.31332499 24.44071826 46.08049782 25.51171875 54.39453125 C25.68382414 55.79039165 25.85501195 57.18636544 26.02534485 58.58244324 C26.47596843 62.25336054 26.93999925 65.92246378 27.40667725 69.59136963 C27.77459103 72.50133497 28.13303484 75.41242572 28.49090385 78.32364082 C30.39290247 93.79253492 32.3819177 109.24610654 34.6212616 124.67036438 C36.05843972 134.77561092 36.98076323 144.80763233 38 155 C13.25 155 -11.5 155 -37 155 C-35.87297634 143.72976339 -35.87297634 143.72976339 -35.203125 138.69140625 C-35.05174072 137.5513916 -34.90035645 136.41137695 -34.74438477 135.23681641 C-34.58123779 134.02429199 -34.41809082 132.81176758 -34.25 131.5625 C-34.075896 130.25974121 -33.90179199 128.95698242 -33.72241211 127.61474609 C-32.59361073 119.20857786 -31.4035951 110.81231131 -30.18530273 102.41870117 C-28.18000702 88.60253858 -26.27664827 74.77716782 -24.52584839 60.9262085 C-24.3022563 59.15767921 -24.07728523 57.38932365 -23.8508606 55.62115479 C-23.53517006 53.14904552 -23.22558597 50.67625034 -22.91796875 48.203125 C-22.82448151 47.47545929 -22.73099426 46.74779358 -22.63467407 45.99807739 C-21.74228827 38.69571968 -21.95119238 33.04277619 -24 26 C-24.42578125 23.1171875 -24.42578125 23.1171875 -24 20 C-22.08417678 17.91361064 -20.40818184 16.37745285 -18.1875 14.6875 C-17.60524658 14.22110107 -17.02299316 13.75470215 -16.4230957 13.27416992 C-15.22010499 12.31194069 -14.01128096 11.35696126 -12.796875 10.40917969 C-10.05386193 8.2580015 -7.37573995 6.03169809 -4.6875 3.8125 C-3.12593094 2.54052292 -1.56380825 1.26922313 0 0 Z " fill="#ED524F" transform="translate(325,342)"/>
<path d="M0 0 C1.06224511 -0.00128164 1.06224511 -0.00128164 2.14594972 -0.00258917 C4.53054252 -0.00424273 6.91506573 0.00127539 9.2996521 0.00672913 C11.00435891 0.00701105 12.70906584 0.00685316 14.41377258 0.00628662 C19.05194655 0.00599885 23.69009483 0.01189229 28.32826281 0.01886058 C33.17161969 0.02509751 38.01497712 0.02569819 42.8583374 0.02688599 C52.03455362 0.0299983 61.21075798 0.03821034 70.38696897 0.04823548 C80.83179688 0.05939972 91.27662534 0.06490785 101.72145772 0.06993091 C123.21156056 0.08039303 144.70164713 0.09873728 166.19174194 0.12025452 C166.19174194 11.34025452 166.19174194 22.56025452 166.19174194 34.12025452 C143.73896342 34.21054067 121.28633182 34.28422831 98.83341789 34.3275032 C88.40819679 34.34813035 77.98309646 34.37625392 67.55795288 34.42201233 C58.47162582 34.46187535 49.38538623 34.48768622 40.29897416 34.4966085 C35.48754495 34.50182414 30.67636597 34.51408603 25.86501694 34.54317474 C21.33586405 34.57033535 16.80706435 34.5786982 12.27783775 34.57268524 C10.61617933 34.57378519 8.95450903 34.58173533 7.29292107 34.59707642 C5.02185432 34.61701521 2.75211635 34.61218059 0.48101807 34.60127258 C-1.42432803 34.60680334 -1.42432803 34.60680334 -3.36816597 34.61244583 C-10.16041751 33.64064417 -13.87170922 29.29400442 -17.80825806 24.12025452 C-19.66540478 20.40596108 -19.25173733 16.17402981 -18.80825806 12.12025452 C-14.82053371 3.99143181 -8.87873891 -0.00642456 0 0 Z " fill="#EFE9E9" transform="translate(58.808258056640625,455.87974548339844)"/>
<path d="M0 0 C4.93853889 -0.20302796 8.60243004 0.28320548 13.2109375 2.046875 C14.94102051 2.69390381 14.94102051 2.69390381 16.70605469 3.35400391 C17.91680664 3.81468262 19.12755859 4.27536133 20.375 4.75 C41.89249722 12.66624029 65.41218398 19.32829679 88 11 C88.64437012 10.76941895 89.28874023 10.53883789 89.95263672 10.30126953 C96.35677274 8.00561282 102.68930668 5.54130039 109 3 C119.33888443 22.14818047 119.33888443 22.14818047 118.875 31.52734375 C118 34 118 34 115.47265625 36.34765625 C112.24207826 39.81299978 112.43280244 41.77282748 112.4375 46.4375 C112.43159127 52.293053 111.81865877 55.46330282 108 60 C102.42921467 64.13461045 96.7695189 63.48805207 90.08007812 63.44604492 C88.00550465 63.43752261 85.93367775 63.46634248 83.859375 63.49804688 C82.54453125 63.49740234 81.2296875 63.49675781 79.875 63.49609375 C78.67617188 63.49794678 77.47734375 63.4997998 76.2421875 63.50170898 C72.36899969 62.9023565 70.76079747 61.73147325 68 59 C66.06277405 55.72675616 65 53.8148669 65 50 C59.06 50 53.12 50 47 50 C46.67 52.31 46.34 54.62 46 57 C43.81008403 59.58297781 42.03168312 61.48415844 39 63 C34.77235896 63.25789144 30.54090056 63.27101954 26.30639648 63.29516602 C24.20554948 63.31235234 22.10628799 63.35623599 20.00585938 63.40039062 C18.66407405 63.41052052 17.32227536 63.4190357 15.98046875 63.42578125 C14.15358521 63.44765503 14.15358521 63.44765503 12.28979492 63.4699707 C7.47252954 62.78178993 5.14185557 60.45917649 2.21484375 56.71875 C0.18148042 52.16820055 0.57764594 47.50972957 0.50390625 42.59375 C-0.07556806 38.46106497 -1.44878876 37.17345788 -4 34 C-3.98828125 31.140625 -3.98828125 31.140625 -3.3125 28.25 C-3.10238281 27.28578125 -2.89226562 26.3215625 -2.67578125 25.328125 C-2 23 -2 23 -1 22 C-0.84285346 20.36743242 -0.74914586 18.72864662 -0.68359375 17.08984375 C-0.62075195 15.60581055 -0.62075195 15.60581055 -0.55664062 14.09179688 C-0.51732422 13.05087891 -0.47800781 12.00996094 -0.4375 10.9375 C-0.39431641 9.89271484 -0.35113281 8.84792969 -0.30664062 7.77148438 C-0.20018775 5.18113116 -0.0981724 2.59067814 0 0 Z " fill="#737272" transform="translate(273,110)"/>
<path d="M0 0 C36.96 0 73.92 0 112 0 C110.87416445 11.25835551 110.87416445 11.25835551 109.84375 15.09765625 C109.51697266 16.32838867 109.51697266 16.32838867 109.18359375 17.58398438 C108.95800781 18.40189453 108.73242188 19.21980469 108.5 20.0625 C108.27441406 20.91521484 108.04882812 21.76792969 107.81640625 22.64648438 C106.14405841 28.85594159 106.14405841 28.85594159 105 30 C103.52848222 29.97485227 102.05783847 29.89388849 100.58984375 29.7890625 C99.22762695 29.75039062 99.22762695 29.75039062 97.83789062 29.7109375 C95.92919211 29.65438347 94.02120833 29.54372118 92.11914062 29.375 C88.85108282 29.2070686 88.85108282 29.2070686 84 31 C81.36 35.95 78.72 40.9 76 46 C63.13 46 50.26 46 37 46 C34.36 41.05 31.72 36.1 29 31 C24.39240344 29.59872064 22.61433064 29.2654529 18.125 29.6875 C16.25283005 29.75999571 14.38042394 29.82669915 12.5078125 29.88671875 C11.68941895 29.95076904 10.87102539 30.01481934 10.02783203 30.08081055 C8 30 8 30 6 28 C5.32983398 25.95629883 5.32983398 25.95629883 4.74609375 23.45703125 C4.53146484 22.54759766 4.31683594 21.63816406 4.09570312 20.70117188 C3.87849609 19.74791016 3.66128906 18.79464844 3.4375 17.8125 C3.21642578 16.87857422 2.99535156 15.94464844 2.76757812 14.98242188 C1.59936235 9.96721155 0.73213721 5.12496047 0 0 Z " fill="#B68667" transform="translate(83,218)"/>
<path d="M0 0 C3.45937264 1.28508385 6.40901407 2.80653482 9.5 4.8125 C27.57122295 15.77285712 50.32274547 19.24153249 71 14.8125 C73.01221156 14.25034168 75.01285072 13.64517834 77 13 C78.73636719 12.45472656 78.73636719 12.45472656 80.5078125 11.8984375 C87.38317987 9.59674864 93.63860113 6.80839549 99.890625 3.13671875 C102 2 102 2 104 2 C104.82058197 6.9234918 104.94400068 9.58399898 102.125 13.8125 C99.9295529 16.39215035 97.69098676 18.91287497 95.40673828 21.41308594 C93.14967849 23.95923114 91.11068429 26.66011795 89.0625 29.375 C88.22981888 30.46794512 87.3964779 31.56038782 86.5625 32.65234375 C85.93408203 33.47581299 85.93408203 33.47581299 85.29296875 34.31591797 C81.71312833 38.97863308 78.05607194 43.58184448 74.41748047 48.19873047 C72.95384792 50.05864796 71.49402391 51.92149946 70.03515625 53.78515625 C69.54781006 54.40720947 69.06046387 55.0292627 68.55834961 55.67016602 C67.63532017 56.8485182 66.71290788 58.02735421 65.79125977 59.20678711 C56.83219127 70.63356175 56.83219127 70.63356175 51.875 71.625 C45.82240542 70.64877507 43.60797034 66.70604827 40 62 C39.2265625 61.01 38.453125 60.02 37.65625 59 C35.96810271 56.82788565 34.29608771 54.64433398 32.6328125 52.453125 C29.97889198 48.96081137 27.2769713 45.50786462 24.5625 42.0625 C24.1072998 41.48443604 23.65209961 40.90637207 23.18310547 40.31079102 C22.25699458 39.13496618 21.33072436 37.95926682 20.40429688 36.78369141 C18.98101709 34.97588854 17.56040208 33.1660235 16.140625 31.35546875 C15.67108398 30.75766602 15.20154297 30.15986328 14.71777344 29.54394531 C13.78804263 28.35706867 12.86155217 27.1676459 11.93847656 25.97558594 C9.87505485 23.32175888 7.79545639 20.77506676 5.53125 18.28515625 C1.50382122 13.79684213 -0.47643375 11.04150132 -0.5 4.875 C-0.37367942 3.24636686 -0.22153455 1.61843295 0 0 Z " fill="#F7C4B7" transform="translate(274,268)"/>
<path d="M0 0 C12.87 0 25.74 0 39 0 C41.64 4.95 44.28 9.9 47 15 C51.65324921 16.4575221 53.45362594 16.81688708 58 16.4375 C59.44826172 16.4075293 59.44826172 16.4075293 60.92578125 16.37695312 C63.2948088 16.31831383 65.6386495 16.19176369 68 16 C71.31695519 23.7395621 72.25616885 30.28084424 74 39 C38.03 39 2.06 39 -35 39 C-31 18 -31 18 -29 16 C-26.97216797 15.91918945 -26.97216797 15.91918945 -24.4921875 16.11328125 C-23.58726563 16.14228516 -22.68234375 16.17128906 -21.75 16.20117188 C-19.85406967 16.27458766 -17.95933441 16.39858277 -16.0703125 16.57617188 C-12.82170782 16.75980866 -12.82170782 16.75980866 -8 15 C-5.36 10.05 -2.72 5.1 0 0 Z " fill="#B68667" transform="translate(120,396)"/>
<path d="M0 0 C0.66 -0.33 1.32 -0.66 2 -1 C7.4592422 -1.69089995 12.24100689 -1.22529957 17.08203125 1.4609375 C21.5449744 5.04219942 24.54564806 10.33067703 27.2578125 15.30859375 C28.99113835 17.34782916 28.99113835 17.34782916 32.28515625 17.28515625 C33.53167969 17.21167969 34.77820313 17.13820312 36.0625 17.0625 C39.84765625 16.84765625 39.84765625 16.84765625 43 17 C45 20 45 20 44.875 22.8125 C42.76840561 30.48652241 36.73490878 36.11122737 30.06640625 40.1796875 C23.03595916 42.97060222 15.25260572 40.91469081 8.52734375 38.22265625 C4.98512317 36.50903177 2.06990779 34.45592623 -1 32 C-3.30693579 33.15068845 -5.6099041 34.30863603 -7.91015625 35.47265625 C-8.95042969 35.99730469 -9.99070312 36.52195313 -11.0625 37.0625 C-12.10535156 37.58972656 -13.14820313 38.11695313 -14.22265625 38.66015625 C-20.27646382 41.58062882 -26.67009945 42.12821352 -33.21875 40.421875 C-40.04294035 37.44306175 -46.21854149 30.91063402 -49 24 C-48.68097423 20.65022937 -48.40820361 19.40820361 -46 17 C-43.93400743 17.11558 -41.87119426 17.29152463 -39.8125 17.5 C-34.76902569 17.65270002 -34.76902569 17.65270002 -30.7265625 14.95703125 C-28.97702138 12.37091915 -27.45638808 9.76036346 -26 7 C-19.23602903 -2.63353441 -10.60352695 -1.85561722 0 0 Z " fill="#4E4E4E" transform="translate(329,184)"/>
<path d="M0 0 C4.93853889 -0.20302796 8.60243004 0.28320548 13.2109375 2.046875 C14.94102051 2.69390381 14.94102051 2.69390381 16.70605469 3.35400391 C17.91680664 3.81468262 19.12755859 4.27536133 20.375 4.75 C41.89249722 12.66624029 65.41218398 19.32829679 88 11 C88.64437012 10.76941895 89.28874023 10.53883789 89.95263672 10.30126953 C96.35677274 8.00561282 102.68930668 5.54130039 109 3 C110.20250158 5.24307028 111.3869162 7.4928791 112.5625 9.75 C112.90474609 10.38421875 113.24699219 11.0184375 113.59960938 11.671875 C116.01797096 16.36203081 116.01797096 16.36203081 115.9375 19.21875 C114.74387655 21.48663456 113.29810869 22.99087906 111.4375 24.75 C110.79683594 25.36359375 110.15617187 25.9771875 109.49609375 26.609375 C108.75552734 27.29773438 108.75552734 27.29773438 108 28 C107.31679688 27.67692871 106.63359375 27.35385742 105.9296875 27.02099609 C100.79521313 25.23163177 95.47036306 25.62811721 90.08007812 25.62939453 C88.0056806 25.625012 85.93339807 25.5886248 83.859375 25.55078125 C82.54453125 25.54691406 81.2296875 25.54304688 79.875 25.5390625 C78.67617188 25.53084473 77.47734375 25.52262695 76.2421875 25.51416016 C72.22005085 26.11687491 70.74065715 27.00033178 68 30 C67.01 32.64 66.02 35.28 65 38 C59.06 38 53.12 38 47 38 C46.34 35.69 45.68 33.38 45 31 C43.08641287 28.72761528 41.64405865 27.32202932 39 26 C34.75332817 25.78855483 30.50280971 25.81420396 26.25146484 25.81469727 C24.140093 25.8125156 22.02924779 25.79436897 19.91796875 25.77539062 C18.57291845 25.77245558 17.22786567 25.77047153 15.8828125 25.76953125 C14.65965332 25.76542236 13.43649414 25.76131348 12.17626953 25.75708008 C9.17770578 25.98640913 7.51427383 26.4214427 5 28 C-0.74448244 23.62822505 -0.74448244 23.62822505 -1.40136719 19.44238281 C-1.36567504 16.47585526 -1.16453167 13.57746109 -0.875 10.625 C-0.80023438 9.60277344 -0.72546875 8.58054687 -0.6484375 7.52734375 C-0.46056604 5.01456298 -0.24372404 2.50787584 0 0 Z " fill="#F6C3B6" transform="translate(273,110)"/>
<path d="M0 0 C4.6513237 1.9483753 8.16234816 5.41800278 11.91064453 8.69311523 C15.26588943 11.60001777 18.65676862 14.12259307 22.375 16.5625 C24.82063215 18.4437555 25.85822988 19.24217429 26.4296875 22.296875 C26.23642064 25.002611 25.71875707 27.38527834 25 30 C24.79246094 30.89847656 24.58492188 31.79695313 24.37109375 32.72265625 C23.11126694 37.61078426 22.08614606 40.79827077 18 44 C15.29805042 44.3982295 13.01085428 44.56200004 10.3125 44.53125 C9.57298096 44.5350769 8.83346191 44.53890381 8.0715332 44.54284668 C6.5115421 44.54556271 4.95150522 44.53822292 3.39160156 44.52148438 C1.00742814 44.50006673 -1.37373249 44.52129263 -3.7578125 44.546875 C-5.2760483 44.54423166 -6.79428223 44.53910656 -8.3125 44.53125 C-9.02301514 44.53934692 -9.73353027 44.54744385 -10.46557617 44.55578613 C-13.84011784 44.49204253 -15.68530385 44.23989343 -18.40136719 42.16943359 C-20.52294891 39.29032926 -21.31641418 36.57037623 -22.25 33.125 C-22.58515625 31.93132812 -22.9203125 30.73765625 -23.265625 29.5078125 C-24.55126621 23.36682419 -24.55126621 23.36682419 -24 20 C-22.08417678 17.91361064 -20.40818184 16.37745285 -18.1875 14.6875 C-17.60524658 14.22110107 -17.02299316 13.75470215 -16.4230957 13.27416992 C-15.22010499 12.31194069 -14.01128096 11.35696126 -12.796875 10.40917969 C-10.05386193 8.2580015 -7.37573995 6.03169809 -4.6875 3.8125 C-3.12593094 2.54052292 -1.56380825 1.26922313 0 0 Z " fill="#DB4640" transform="translate(325,342)"/>
<path d="M0 0 C5.68871595 3.78696498 5.68871595 3.78696498 8.5 5.7109375 C26.91944992 17.97138385 47.59582197 22.00569313 69.49658203 18.61328125 C81.39068554 16.00435308 92.93695839 10.08325333 102 2 C102.66 2 103.32 2 104 2 C104 7.28 104 12.56 104 18 C80.34377396 31.16714468 55.75091539 37.90658685 28.8984375 30.26171875 C22.69563931 28.3227677 16.83631938 25.86905604 11 23 C9.906875 22.54496094 8.81375 22.08992188 7.6875 21.62109375 C4.39567087 20.01296804 2.31621636 18.85250598 0 16 C-1.28762384 10.74414115 -0.63114627 5.310554 0 0 Z " fill="#F9B1A6" transform="translate(274,252)"/>
<path d="M0 0 C1.59006363 -0.00845947 1.59006363 -0.00845947 3.21224976 -0.01708984 C4.96404037 -0.01101715 4.96404037 -0.01101715 6.7512207 -0.00482178 C8.59026474 -0.01007874 8.59026474 -0.01007874 10.46646118 -0.01544189 C13.83422435 -0.02275106 17.20174273 -0.02101682 20.56949234 -0.01468372 C24.0893004 -0.00962991 27.6090978 -0.01431345 31.12890625 -0.01745605 C37.04046513 -0.02109751 42.95197408 -0.01629192 48.86352539 -0.0067749 C55.70387237 0.00411002 62.54410014 0.00058457 69.38444424 -0.01042771 C75.25114432 -0.0194955 81.11780846 -0.02078837 86.98451328 -0.01555037 C90.49119077 -0.01242786 93.99781217 -0.012029 97.50448608 -0.01862335 C101.41229915 -0.02545836 105.31997804 -0.01599235 109.2277832 -0.00482178 C110.39564362 -0.00887024 111.56350403 -0.0129187 112.76675415 -0.01708984 C113.82679657 -0.0114502 114.88683899 -0.00581055 115.97900391 0 C116.90373001 0.00075405 117.82845612 0.0015081 118.78120422 0.002285 C120.98950195 0.25396729 120.98950195 0.25396729 122.98950195 2.25396729 C122.73950195 5.31646729 122.73950195 5.31646729 121.98950195 8.25396729 C119.49280893 9.5023138 117.81130041 9.38257529 115.01696777 9.38768005 C113.43952538 9.39407753 113.43952538 9.39407753 111.83021545 9.40060425 C110.67170578 9.40015106 109.51319611 9.39969788 108.31958008 9.39923096 C107.10330429 9.40258957 105.8870285 9.40594818 104.63389587 9.40940857 C101.29305844 9.41729587 97.95228314 9.42058698 94.61144066 9.42122436 C91.82547309 9.42217271 89.03951151 9.42585007 86.25354624 9.42939645 C79.68326928 9.43754366 73.11300603 9.4399804 66.54272461 9.43927002 C59.75691674 9.43866879 52.97118826 9.44922902 46.18540049 9.46501368 C40.36541573 9.47807113 34.54545697 9.48345469 28.72545767 9.48281461 C25.24671738 9.48255914 21.76804765 9.48543729 18.2893219 9.49599266 C14.41265735 9.50743418 10.53610255 9.50293787 6.65942383 9.49688721 C5.50091415 9.50250671 4.34240448 9.50812622 3.14878845 9.51391602 C2.09716019 9.50972153 1.04553192 9.50552704 -0.03796387 9.50120544 C-1.41399151 9.5020226 -1.41399151 9.5020226 -2.81781769 9.50285625 C-5.01049805 9.25396729 -5.01049805 9.25396729 -7.01049805 7.25396729 C-7.26049805 4.75396729 -7.26049805 4.75396729 -7.01049805 2.25396729 C-4.45747544 -0.29905533 -3.54234947 0.00288854 0 0 Z " fill="#F6EFEC" transform="translate(82.010498046875,301.74603271484375)"/>
<path d="M0 0 C1.57527466 -0.00845947 1.57527466 -0.00845947 3.18237305 -0.01708984 C4.33931168 -0.01304138 5.49625031 -0.00899292 6.68824768 -0.00482178 C8.51025192 -0.01007874 8.51025192 -0.01007874 10.36906433 -0.01544189 C13.70590469 -0.02275131 17.042498 -0.02101641 20.37932467 -0.01468372 C23.86796835 -0.00962897 27.35660128 -0.01431382 30.84524536 -0.01745605 C36.70552979 -0.02109772 42.56576386 -0.01629187 48.42604065 -0.0067749 C55.20388403 0.00410499 61.98160706 0.00058831 68.75944752 -0.01042771 C74.57435908 -0.01950095 80.38923438 -0.02078554 86.20415074 -0.01555037 C89.67900221 -0.01243021 93.15379709 -0.01202247 96.62864494 -0.01862335 C100.50272684 -0.02546809 104.37667375 -0.01598339 108.25074768 -0.00482178 C109.40566208 -0.00887024 110.56057648 -0.0129187 111.75048828 -0.01708984 C113.32999268 -0.00863037 113.32999268 -0.00863037 114.94140625 0 C116.3160512 0.00113108 116.3160512 0.00113108 117.71846676 0.002285 C120.03419495 0.25396729 120.03419495 0.25396729 123.03419495 2.25396729 C122.65919495 5.19146729 122.65919495 5.19146729 122.03419495 8.25396729 C119.53750192 9.5023138 117.85599341 9.38257529 115.06166077 9.38768005 C113.48421837 9.39407753 113.48421837 9.39407753 111.87490845 9.40060425 C110.71639877 9.40015106 109.5578891 9.39969788 108.36427307 9.39923096 C107.14799728 9.40258957 105.9317215 9.40594818 104.67858887 9.40940857 C101.33775144 9.41729587 97.99697614 9.42058698 94.65613365 9.42122436 C91.87016608 9.42217271 89.0842045 9.42585007 86.29823923 9.42939645 C79.72796228 9.43754366 73.15769903 9.4399804 66.5874176 9.43927002 C59.80160973 9.43866879 53.01588125 9.44922902 46.23009348 9.46501368 C40.41010872 9.47807113 34.59014997 9.48345469 28.77015066 9.48281461 C25.29141037 9.48255914 21.81274064 9.48543729 18.33401489 9.49599266 C14.45735035 9.50743418 10.58079554 9.50293787 6.70411682 9.49688721 C5.54560715 9.50250671 4.38709747 9.50812622 3.19348145 9.51391602 C2.14185318 9.50972153 1.09022491 9.50552704 0.00672913 9.50120544 C-1.36929852 9.5020226 -1.36929852 9.5020226 -2.77312469 9.50285625 C-4.96580505 9.25396729 -4.96580505 9.25396729 -6.96580505 7.25396729 C-7.21580505 4.75396729 -7.21580505 4.75396729 -6.96580505 2.25396729 C-4.42080346 -0.29103431 -3.52880021 0.00290474 0 0 Z " fill="#F6F0ED" transform="translate(81.96580505371094,278.74603271484375)"/>
<path d="M0 0 C1.59006363 -0.00845947 1.59006363 -0.00845947 3.21224976 -0.01708984 C4.96404037 -0.01101715 4.96404037 -0.01101715 6.7512207 -0.00482178 C8.59026474 -0.01007874 8.59026474 -0.01007874 10.46646118 -0.01544189 C13.83422435 -0.02275106 17.20174273 -0.02101682 20.56949234 -0.01468372 C24.0893004 -0.00962991 27.6090978 -0.01431345 31.12890625 -0.01745605 C37.04046513 -0.02109751 42.95197408 -0.01629192 48.86352539 -0.0067749 C55.70387237 0.00411002 62.54410014 0.00058457 69.38444424 -0.01042771 C75.25114432 -0.0194955 81.11780846 -0.02078837 86.98451328 -0.01555037 C90.49119077 -0.01242786 93.99781217 -0.012029 97.50448608 -0.01862335 C101.41229915 -0.02545836 105.31997804 -0.01599235 109.2277832 -0.00482178 C110.39564362 -0.00887024 111.56350403 -0.0129187 112.76675415 -0.01708984 C113.82679657 -0.0114502 114.88683899 -0.00581055 115.97900391 0 C116.90373001 0.00075405 117.82845612 0.0015081 118.78120422 0.002285 C120.98950195 0.25396729 120.98950195 0.25396729 122.98950195 2.25396729 C122.65978716 5.55111521 122.36681805 6.87665118 119.98950195 9.25396729 C117.81523228 9.50564957 117.81523228 9.50564957 115.06166077 9.50793457 C114.01989182 9.51357422 112.97812286 9.51921387 111.90478516 9.52502441 C110.75719727 9.52097595 109.60960937 9.51692749 108.42724609 9.51275635 C106.61987221 9.51801331 106.61987221 9.51801331 104.77598572 9.52337646 C101.4660033 9.53068577 98.15626994 9.52895105 94.84630132 9.52261829 C91.38568483 9.51756344 87.92507917 9.52224842 84.46446228 9.52539062 C78.65125614 9.52903227 72.83810078 9.52422652 67.02490234 9.51470947 C60.3015902 9.50382963 53.57839939 9.50734624 46.8550902 9.51836228 C41.0868873 9.52743565 35.31872094 9.52872005 29.55051321 9.52348495 C26.10360725 9.52036485 22.65675834 9.51995686 19.20985603 9.52655792 C15.36690677 9.53340289 11.52409357 9.52391776 7.68115234 9.51275635 C5.96280685 9.51882904 5.96280685 9.51882904 4.20974731 9.52502441 C3.16515854 9.51938477 2.12056976 9.51374512 1.04432678 9.50793457 C0.13527116 9.50718052 -0.77378447 9.50642647 -1.71038723 9.50564957 C-4.01049805 9.25396729 -4.01049805 9.25396729 -7.01049805 7.25396729 C-7.32299805 4.75396729 -7.32299805 4.75396729 -7.01049805 2.25396729 C-4.45747544 -0.29905533 -3.54234947 0.00288854 0 0 Z " fill="#F5EDEA" transform="translate(82.010498046875,324.74603271484375)"/>
<path d="M0 0 C1.22332031 -0.01095703 2.44664062 -0.02191406 3.70703125 -0.03320312 C12.64011847 0.0400189 12.64011847 0.0400189 16.3515625 2.29516602 C18.83416255 4.91515541 19.12388539 5.86397132 19.09375 9.40625 C19.09117187 10.32277344 19.08859375 11.23929688 19.0859375 12.18359375 C19.04339844 13.60865234 19.04339844 13.60865234 19 15.0625 C19.00386719 16.48755859 19.00386719 16.48755859 19.0078125 17.94140625 C18.89504017 25.95951861 18.89504017 25.95951861 15.5 29.5625 C10.36995884 31.27251372 4.99596728 30.87362904 -0.375 30.9375 C-2.15197266 30.99357422 -2.15197266 30.99357422 -3.96484375 31.05078125 C-12.50626394 31.13744729 -12.50626394 31.13744729 -16.78125 28.6640625 C-19.22886088 24.24723742 -19.23311959 20.53600102 -19.125 15.5625 C-19.14433594 14.67304688 -19.16367187 13.78359375 -19.18359375 12.8671875 C-19.15281288 8.74255059 -18.80912134 6.12589856 -16.8046875 2.47265625 C-11.44494992 -0.62534809 -6.07090951 -0.11834755 0 0 Z " fill="#BADFFE" transform="translate(361.5,138.4375)"/>
<path d="M0 0 C1.22332031 -0.01933594 2.44664062 -0.03867188 3.70703125 -0.05859375 C12.39689217 -0.01110817 12.39689217 -0.01110817 16.8125 2.53515625 C19.23301525 6.9671645 19.1576622 10.71755744 19 15.6875 C19.00386719 17.03424805 19.00386719 17.03424805 19.0078125 18.40820312 C18.95245123 22.13124861 18.90382643 24.8560863 17.15625 28.18359375 C12.58764098 32.1595766 5.31014971 30.93239281 -0.375 31 C-2.15197266 31.05607422 -2.15197266 31.05607422 -3.96484375 31.11328125 C-12.50626394 31.19994729 -12.50626394 31.19994729 -16.78125 28.7265625 C-19.22886088 24.30973742 -19.23311959 20.59850102 -19.125 15.625 C-19.14433594 14.73554688 -19.16367187 13.84609375 -19.18359375 12.9296875 C-19.15282135 8.80618576 -18.8105187 6.19022989 -16.8046875 2.5390625 C-11.44502989 -0.56523092 -6.07567625 -0.09603282 0 0 Z " fill="#BADFFE" transform="translate(297.5,138.375)"/>
<path d="M0 0 C1.06708191 -0.00426498 2.13416382 -0.00852997 3.23358154 -0.01292419 C5.00479118 -0.01224442 5.00479118 -0.01224442 6.81178284 -0.0115509 C8.04741974 -0.01490952 9.28305664 -0.01826813 10.55613708 -0.02172852 C13.95488279 -0.02962447 17.35356744 -0.03290747 20.75231814 -0.0335443 C23.58545673 -0.03449177 26.41858941 -0.0381682 29.25172573 -0.0417164 C35.93369441 -0.0498686 42.6156496 -0.05229994 49.29762268 -0.05158997 C56.19985678 -0.05098899 63.10201277 -0.06154301 70.0042271 -0.07733363 C75.92185537 -0.09039137 81.83945806 -0.09577461 87.75710064 -0.09513456 C91.29510016 -0.09487904 94.83303032 -0.09775938 98.37101555 -0.10831261 C102.31484429 -0.11975449 106.25856516 -0.11525762 110.20240784 -0.10920715 C111.97058113 -0.11763641 111.97058113 -0.11763641 113.7744751 -0.12623596 C115.3793277 -0.11994423 115.3793277 -0.11994423 117.01660156 -0.11352539 C117.95000083 -0.11407016 118.8834001 -0.11461493 119.84508419 -0.1151762 C122.0717926 0.13371277 122.0717926 0.13371277 124.0717926 2.13371277 C123.51623705 6.68926832 123.51623705 6.68926832 122.0717926 8.13371277 C120.44419607 8.2341156 118.81223681 8.26447325 117.18154907 8.26742554 C115.59354744 8.27382301 115.59354744 8.27382301 113.97346497 8.28034973 C112.21628143 8.27966995 112.21628143 8.27966995 110.42359924 8.27897644 C108.58477425 8.28401436 108.58477425 8.28401436 106.70880127 8.28915405 C103.33691406 8.29704994 99.9650884 8.300333 96.59319615 8.30096984 C93.7824255 8.30191732 90.9716608 8.30559376 88.16089243 8.30914193 C81.53166144 8.31729411 74.90244404 8.31972548 68.27320862 8.3190155 C61.42550583 8.31841453 54.57788178 8.32896851 47.73019892 8.34475917 C41.85927936 8.35781702 35.98838559 8.36320014 30.11745161 8.36256009 C26.60739754 8.36230458 23.09741339 8.36518474 19.58737373 8.37573814 C15.67467776 8.38718027 11.76209051 8.38268308 7.84938049 8.37663269 C6.09523331 8.38506195 6.09523331 8.38506195 4.3056488 8.3936615 C2.71341743 8.38736977 2.71341743 8.38736977 1.08901978 8.38095093 C0.16299485 8.3814957 -0.76303007 8.38204046 -1.71711636 8.38260174 C-3.9282074 8.13371277 -3.9282074 8.13371277 -5.9282074 6.13371277 C-6.1157074 3.57121277 -6.1157074 3.57121277 -5.9282074 1.13371277 C-4.2658302 -0.52866443 -2.28612399 0.00410621 0 0 Z " fill="#F8F3F1" transform="translate(80.92820739746094,370.8662872314453)"/>
<path d="M0 0 C1.59006363 -0.00845947 1.59006363 -0.00845947 3.21224976 -0.01708984 C4.96404037 -0.01101715 4.96404037 -0.01101715 6.7512207 -0.00482178 C8.59026474 -0.01007874 8.59026474 -0.01007874 10.46646118 -0.01544189 C13.83422435 -0.02275106 17.20174273 -0.02101682 20.56949234 -0.01468372 C24.0893004 -0.00962991 27.6090978 -0.01431345 31.12890625 -0.01745605 C37.04046513 -0.02109751 42.95197408 -0.01629192 48.86352539 -0.0067749 C55.70387237 0.00411002 62.54410014 0.00058457 69.38444424 -0.01042771 C75.25114432 -0.0194955 81.11780846 -0.02078837 86.98451328 -0.01555037 C90.49119077 -0.01242786 93.99781217 -0.012029 97.50448608 -0.01862335 C101.41229915 -0.02545836 105.31997804 -0.01599235 109.2277832 -0.00482178 C110.39564362 -0.00887024 111.56350403 -0.0129187 112.76675415 -0.01708984 C113.82679657 -0.0114502 114.88683899 -0.00581055 115.97900391 0 C116.90373001 0.00075405 117.82845612 0.0015081 118.78120422 0.002285 C120.98950195 0.25396729 120.98950195 0.25396729 122.98950195 2.25396729 C122.4339464 6.80952284 122.4339464 6.80952284 120.98950195 8.25396729 C119.34691495 8.35222697 117.70008863 8.38028691 116.05456543 8.38095093 C114.98603836 8.38377075 113.91751129 8.38659058 112.81660461 8.38949585 C111.63422714 8.38747162 110.45184967 8.38544739 109.23364258 8.38336182 C107.99639938 8.38511414 106.75915619 8.38686646 105.48442078 8.38867188 C102.08160754 8.39233015 98.67885475 8.39145691 95.27604485 8.38829279 C91.72239981 8.38576887 88.16875744 8.38810681 84.6151123 8.38967896 C78.64631687 8.39150056 72.67753379 8.38909458 66.70874023 8.38433838 C59.79855627 8.37889577 52.8884018 8.38065844 45.97821856 8.38616478 C40.0555116 8.39069618 34.13281355 8.39134633 28.21010542 8.38872612 C24.66824834 8.38716348 21.12640515 8.38696919 17.58454895 8.3902626 C13.63814132 8.39367557 9.691767 8.38895115 5.74536133 8.38336182 C3.97179512 8.38639816 3.97179512 8.38639816 2.16239929 8.38949585 C1.09387222 8.38667603 0.02534515 8.3838562 -1.07556152 8.38095093 C-2.00988258 8.3805739 -2.94420364 8.38019688 -3.90683746 8.37980843 C-6.01049805 8.25396729 -6.01049805 8.25396729 -7.01049805 7.25396729 C-7.19799805 4.81646729 -7.19799805 4.81646729 -7.01049805 2.25396729 C-4.45747544 -0.29905533 -3.54234947 0.00288854 0 0 Z " fill="#F8F3F1" transform="translate(82.010498046875,347.74603271484375)"/>
<path d="M0 0 C1.75601563 0.00276538 1.75601563 0.00276538 3.54750633 0.00558662 C4.52399684 0.00302335 4.52399684 0.00302335 5.52021444 0.00040829 C7.7114188 -0.0028978 9.90231997 0.00813518 12.09349632 0.01904488 C13.6602738 0.01960875 15.2270518 0.0192929 16.79382896 0.01815987 C21.05601727 0.01758442 25.31809374 0.02936968 29.58025599 0.04330778 C34.03122743 0.05578325 38.48220125 0.05698312 42.93318748 0.0593586 C51.36568751 0.06558275 59.79813587 0.08200619 68.23061311 0.10205758 C77.8290186 0.12438752 87.42742651 0.13540269 97.02585149 0.14544845 C116.77417733 0.16637163 136.52245663 0.20156573 156.27074242 0.24609566 C156.27074242 2.22609566 156.27074242 4.20609566 156.27074242 6.24609566 C103.80074242 6.24609566 51.33074242 6.24609566 -2.72925758 6.24609566 C-3.38925758 4.92609566 -4.04925758 3.60609566 -4.72925758 2.24609566 C-2.72925758 0.24609566 -2.72925758 0.24609566 0 0 Z " fill="#D6C8C8" transform="translate(68.72925758361816,469.75390434265137)"/>
<path d="M0 0 C1.084021 0.00523682 2.16804199 0.01047363 3.28491211 0.01586914 C5.03964844 0.02070313 5.03964844 0.02070313 6.82983398 0.02563477 C8.67738281 0.03820312 8.67738281 0.03820312 10.56225586 0.05102539 C12.41560547 0.05779297 12.41560547 0.05779297 14.30639648 0.06469727 C17.37089703 0.07652931 20.43530307 0.09301366 23.49975586 0.11352539 C24.15975586 1.43352539 24.81975586 2.75352539 25.49975586 4.11352539 C23.49975586 6.11352539 23.49975586 6.11352539 20.88598633 6.34057617 C19.80720215 6.33010254 18.72841797 6.31962891 17.61694336 6.30883789 C16.4503418 6.30239258 15.28374023 6.29594727 14.08178711 6.28930664 C12.8584668 6.27254883 11.63514648 6.25579102 10.37475586 6.23852539 C9.14370117 6.22950195 7.91264648 6.22047852 6.64428711 6.21118164 C3.59591771 6.18755087 0.54793204 6.15460593 -2.50024414 6.11352539 C-2.88243181 4.45737882 -3.21419516 2.78895515 -3.50024414 1.11352539 C-2.50024414 0.11352539 -2.50024414 0.11352539 0 0 Z " fill="#EFE3DD" transform="translate(128.500244140625,421.886474609375)"/>
<path d="M0 0 C1.084021 0.00523682 2.16804199 0.01047363 3.28491211 0.01586914 C5.03964844 0.02070313 5.03964844 0.02070313 6.82983398 0.02563477 C8.67738281 0.03820312 8.67738281 0.03820312 10.56225586 0.05102539 C12.41560547 0.05779297 12.41560547 0.05779297 14.30639648 0.06469727 C17.37089703 0.07652931 20.43530307 0.09301366 23.49975586 0.11352539 C24.15975586 1.43352539 24.81975586 2.75352539 25.49975586 4.11352539 C23.49975586 6.11352539 23.49975586 6.11352539 20.88598633 6.34057617 C19.80720215 6.33010254 18.72841797 6.31962891 17.61694336 6.30883789 C16.4503418 6.30239258 15.28374023 6.29594727 14.08178711 6.28930664 C12.8584668 6.27254883 11.63514648 6.25579102 10.37475586 6.23852539 C9.14370117 6.22950195 7.91264648 6.22047852 6.64428711 6.21118164 C3.59591771 6.18755087 0.54793204 6.15460593 -2.50024414 6.11352539 C-2.88243181 4.45737882 -3.21419516 2.78895515 -3.50024414 1.11352539 C-2.50024414 0.11352539 -2.50024414 0.11352539 0 0 Z " fill="#EFE3DD" transform="translate(128.500244140625,409.886474609375)"/>
<path d="M0 0 C1.084021 0.00523682 2.16804199 0.01047363 3.28491211 0.01586914 C5.03964844 0.02070313 5.03964844 0.02070313 6.82983398 0.02563477 C8.67738281 0.03820312 8.67738281 0.03820312 10.56225586 0.05102539 C12.41560547 0.05779297 12.41560547 0.05779297 14.30639648 0.06469727 C17.37089703 0.07652931 20.43530307 0.09301366 23.49975586 0.11352539 C24.15975586 1.43352539 24.81975586 2.75352539 25.49975586 4.11352539 C23.49975586 6.11352539 23.49975586 6.11352539 20.88598633 6.34057617 C19.80720215 6.33010254 18.72841797 6.31962891 17.61694336 6.30883789 C16.4503418 6.30239258 15.28374023 6.29594727 14.08178711 6.28930664 C12.8584668 6.27254883 11.63514648 6.25579102 10.37475586 6.23852539 C9.14370117 6.22950195 7.91264648 6.22047852 6.64428711 6.21118164 C3.59591771 6.18755087 0.54793204 6.15460593 -2.50024414 6.11352539 C-2.88243181 4.45737882 -3.21419516 2.78895515 -3.50024414 1.11352539 C-2.50024414 0.11352539 -2.50024414 0.11352539 0 0 Z " fill="#EFE3DD" transform="translate(128.500244140625,231.886474609375)"/>
<path d="M0 0 C8.58 0 17.16 0 26 0 C26.66 1.32 27.32 2.64 28 4 C26 6 26 6 23.50976562 6.24291992 C21.97352539 6.23675659 21.97352539 6.23675659 20.40625 6.23046875 C19.29378906 6.22853516 18.18132812 6.22660156 17.03515625 6.22460938 C15.28525391 6.20624023 15.28525391 6.20624023 13.5 6.1875 C11.75009766 6.1865332 11.75009766 6.1865332 9.96484375 6.18554688 C1.2805273 6.14026365 1.2805273 6.14026365 -1 5 C-0.67 3.35 -0.34 1.7 0 0 Z " fill="#EFE4DD" transform="translate(126,244)"/>
</svg>
