<?xml version="1.0" encoding="UTF-8"?>
<svg version="1.1" xmlns="http://www.w3.org/2000/svg" width="512" height="512">
<path d="M0 0 C1.86785156 -0.02320312 1.86785156 -0.02320312 3.7734375 -0.046875 C10.64096856 -0.01758915 15.62970827 0.00529931 21 4.5 C25.47545384 10.57094505 25.49994594 15.54967475 25.25 22.9375 C25.23195313 23.95521484 25.21390625 24.97292969 25.1953125 26.02148438 C25.14847997 28.51531655 25.08291427 31.00715047 25 33.5 C25.61714906 33.49631283 26.23429811 33.49262566 26.87014866 33.48882675 C41.90227392 33.40040321 56.93431912 33.33425528 71.96663761 33.29275131 C79.23623571 33.27214564 86.50565998 33.24406351 93.77514648 33.19824219 C100.11289652 33.15831294 106.45052063 33.13255268 112.78839296 33.12364602 C116.14281492 33.11844146 119.49687668 33.10625137 122.85118294 33.07707977 C126.60030594 33.04803977 130.34868299 33.04404445 134.09790039 33.04589844 C135.20417282 33.03151733 136.31044525 33.01713623 137.45024109 33.00231934 C143.86660437 33.03664859 147.79626422 33.64879678 153 37.5 C158.26462136 43.78165048 157.59774661 50.66538882 157.5 58.5625 C157.51546875 59.81611328 157.5309375 61.06972656 157.546875 62.36132812 C157.51036976 70.94462282 156.74634742 74.75365258 150.6875 80.8125 C147.44190793 82.85042991 144.76935698 83.05368692 141 83.5 C140.94016912 90.52984086 140.94245405 97.55770239 140.98779297 104.58764648 C140.99590061 106.97859126 140.98982247 109.36962813 140.96923828 111.76049805 C140.94209661 115.19963325 140.96608024 118.63521038 141 122.07421875 C140.97087524 123.67604256 140.97087524 123.67604256 140.94116211 125.31022644 C140.91245183 130.82410575 140.91245183 130.82410575 143.77775574 135.24252319 C145.80405321 136.49723651 147.84820688 137.48429256 150 138.5 C154.24247058 143.06753217 156.42819953 148.29337841 158.1640625 154.1953125 C159.11456468 156.8158559 160.39089009 158.95449796 161.875 161.3125 C170.36200264 174.93803526 174.09890579 190.21966974 174.1418457 206.1784668 C174.14705734 207.26080345 174.14705734 207.26080345 174.15237427 208.36500549 C174.15967233 209.91779007 174.16504903 211.47058467 174.16866493 213.02338219 C174.17591097 215.4934389 174.19163727 217.96330602 174.21000671 220.43330383 C174.2620917 227.45152155 174.31038058 234.4696303 174.32592773 241.48803711 C174.33609162 245.79634248 174.36562072 250.10416014 174.40724754 254.4122715 C174.41943822 256.03985697 174.424701 257.66751165 174.42244911 259.29514122 C174.40708397 274.02622768 177.84002381 285.72441126 184.1875 299.0625 C185.07983013 300.95822281 185.96927801 302.85530571 186.85546875 304.75390625 C187.24371826 305.57189697 187.63196777 306.3898877 188.03198242 307.23266602 C191.93602006 316.37687726 191.59649388 330.27451798 188.4375 339.5625 C187.32421875 342.05078125 187.32421875 342.05078125 186 344.5 C185.49082031 345.44230469 184.98164063 346.38460938 184.45703125 347.35546875 C178.70579429 357.10756621 171.06171026 363.39433661 161 368.5 C160.34 368.5 159.68 368.5 159 368.5 C158.1824034 371.69605944 157.7077587 373.75965538 158.9375 376.875 C160.81396901 379.26323329 162.7488144 381.21773188 164.9375 383.3125 C170.77229777 388.9864118 174.07063281 395.48145106 174.25 403.6875 C174.10322989 411.82656998 171.54176987 417.84620027 165.96875 423.7734375 C160.15677647 428.87044603 153.89057293 430.50373976 146.31323242 430.73925781 C136.96962554 431.03002072 136.96962554 431.03002072 129 435.5 C125.84657975 439.73838415 125.27115288 443.72687342 124.5625 448.8125 C122.9154865 459.12737287 119.66220401 467.46337377 111.046875 473.9765625 C104.15371244 478.47553501 99.47699018 479.5 91 479.5 C91 490.39 91 501.28 91 512.5 C30.94 512.5 -29.12 512.5 -91 512.5 C-91 507.22 -91 501.94 -91 496.5 C-92.46050781 496.54640625 -93.92101562 496.5928125 -95.42578125 496.640625 C-108.54681201 496.93621486 -119.59768628 496.92007348 -130.21875 488.2578125 C-135.70286324 482.84585864 -139.48922669 476.06635226 -141 468.5 C-140.95986157 466.74996428 -140.91811508 464.99996491 -140.875 463.25 C-141.31975358 454.77564132 -149.1703007 449.76370908 -155 444.5 C-155.33 456.05 -155.66 467.6 -156 479.5 C-161.94 479.5 -167.88 479.5 -174 479.5 C-173.78939941 478.07478027 -173.57879883 476.64956055 -173.36181641 475.18115234 C-169.28847114 444.99423374 -169.28847114 444.99423374 -179.52978516 417.44482422 C-190.65306113 403.33657472 -205.00581235 391.47555745 -219.0198822 380.35725403 C-222.06678251 377.49940997 -222.89988564 375.37679099 -223.37109375 371.25 C-223.57689687 359.62817685 -221.28763457 349.86642798 -213.0078125 341.24609375 C-206.49056195 335.57836807 -199.32647956 332.51961419 -191 330.5 C-190.97421875 329.40042969 -190.9484375 328.30085938 -190.921875 327.16796875 C-190.55862039 316.38530001 -188.73657398 308.21710095 -184.0625 298.4375 C-183.71388916 297.70595703 -183.36527832 296.97441406 -183.00610352 296.22070312 C-182.31838663 294.79153411 -181.61921187 293.36779313 -180.90600586 291.95117188 C-175.85801614 281.66609236 -174.54723769 271.90295665 -174.48828125 260.51953125 C-174.46135445 258.57852791 -174.46135445 258.57852791 -174.43388367 256.59831238 C-174.38685835 253.1971023 -174.35674505 249.79595626 -174.33044434 246.39453125 C-174.30039572 242.90807443 -174.25395061 239.42183755 -174.20898438 235.93554688 C-174.12349352 229.12382429 -174.05591064 222.31202801 -174 215.5 C-175.80766846 215.52610352 -175.80766846 215.52610352 -177.65185547 215.55273438 C-179.26529596 215.56681531 -180.87874027 215.58046409 -182.4921875 215.59375 C-183.67784302 215.61260254 -183.67784302 215.61260254 -184.88745117 215.63183594 C-204.2788902 215.75110671 -222.30007108 206.89229579 -236 193.5 C-250.93623744 177.91095498 -256.64630347 158.91951523 -256.47314453 137.71069336 C-255.88529841 116.74047471 -246.88204556 98.58689531 -231.75 84.1875 C-217.47925547 72.24048733 -200.64771502 66.12889614 -182.1875 66.1875 C-181.18396484 66.17138672 -180.18042969 66.15527344 -179.14648438 66.13867188 C-171.72337589 66.1339043 -165.11152818 67.41088485 -158 69.5 C-157.9906543 68.7793335 -157.98130859 68.05866699 -157.97167969 67.31616211 C-157.91769993 64.02260295 -157.83410573 60.73042201 -157.75 57.4375 C-157.73582031 56.30376953 -157.72164063 55.17003906 -157.70703125 54.00195312 C-157.51359963 47.36724848 -157.25345524 42.73341797 -153 37.5 C-146.84564122 32.93441646 -141.59993806 32.94837492 -134.09790039 33.04589844 C-132.91669617 33.04531433 -131.73549194 33.04473022 -130.51849365 33.04412842 C-127.29765472 33.04642891 -124.07752136 33.0664146 -120.85682225 33.09442425 C-117.48428651 33.11952021 -114.1117352 33.12178632 -110.73912048 33.12652588 C-104.36080548 33.13893174 -97.98276648 33.17172054 -91.60457271 33.21192384 C-84.33977511 33.25671637 -77.07496396 33.27864731 -69.81006253 33.29870558 C-54.87322155 33.34045565 -39.93663845 33.41076069 -25 33.5 C-25.02094727 32.8702124 -25.04189453 32.2404248 -25.06347656 31.59155273 C-25.14720099 28.70703429 -25.19883621 25.82277232 -25.25 22.9375 C-25.28351563 21.94685547 -25.31703125 20.95621094 -25.3515625 19.93554688 C-25.43685943 13.51695278 -24.83853511 9.70696595 -21 4.5 C-14.72735397 -0.749932 -7.88401709 -0.0979381 0 0 Z M-8 17.5 C-8 22.78 -8 28.06 -8 33.5 C-2.72 33.5 2.56 33.5 8 33.5 C8 28.22 8 22.94 8 17.5 C2.72 17.5 -2.56 17.5 -8 17.5 Z M-140 50.5 C-140 55.78 -140 61.06 -140 66.5 C-47.6 66.5 44.8 66.5 140 66.5 C140 61.22 140 55.94 140 50.5 C47.6 50.5 -44.8 50.5 -140 50.5 Z M-133 83.5 C-128.97406289 88.20592734 -128.97406289 88.20592734 -124.91015625 92.87890625 C-118.16419255 100.85140881 -113.75686045 109.7795795 -110 119.5 C-109.21496094 119.36722656 -108.42992187 119.23445313 -107.62109375 119.09765625 C-106.57050781 118.92105469 -105.51992187 118.74445313 -104.4375 118.5625 C-103.40496094 118.38847656 -102.37242187 118.21445313 -101.30859375 118.03515625 C-97.87907443 117.48044061 -94.43917519 116.99131074 -91 116.5 C-91 105.61 -91 94.72 -91 83.5 C-104.86 83.5 -118.72 83.5 -133 83.5 Z M-74 83.5 C-74 94.06 -74 104.62 -74 115.5 C-25.16 115.5 23.68 115.5 74 115.5 C74 104.94 74 94.38 74 83.5 C25.16 83.5 -23.68 83.5 -74 83.5 Z M91 83.5 C91 94.39 91 105.28 91 116.5 C96.28 117.49 101.56 118.48 107 119.5 C111.5546875 120.88671875 111.5546875 120.88671875 114.875 122.1875 C118.83495273 123.88014443 118.83495273 123.88014443 123 124.5 C123 110.97 123 97.44 123 83.5 C112.44 83.5 101.88 83.5 91 83.5 Z M-183 87.5 C-184.60406253 89.25751978 -186.13567377 91.08175224 -187.625 92.9375 C-188.85089844 94.45150391 -188.85089844 94.45150391 -190.1015625 95.99609375 C-192.1006948 98.10910434 -192.1006948 98.10910434 -192 99.5 C-185.4 99.5 -178.8 99.5 -172 99.5 C-173.7176409 95.20589775 -174.41270407 93.68976448 -177.5 90.6875 C-178.1084375 90.08292969 -178.716875 89.47835937 -179.34375 88.85546875 C-180.90125852 87.28888761 -180.90125852 87.28888761 -183 87.5 Z M-155 90.5 C-153.80100302 93.5831351 -152.52299523 96.56279492 -151 99.5 C-148.36 99.5 -145.72 99.5 -143 99.5 C-146.67557852 95.49027798 -150.18966896 93.04664585 -155 90.5 Z M-215.0625 94.375 C-215.77535156 94.90867187 -216.48820312 95.44234375 -217.22265625 95.9921875 C-219.11046434 97.39364283 -219.11046434 97.39364283 -220 99.5 C-216.66857722 100.00125283 -216.66857722 100.00125283 -213 99.5 C-209.89248365 95.95786152 -209.89248365 95.95786152 -209 91.5 C-211.78014111 91.5 -212.8666901 92.70921318 -215.0625 94.375 Z M-234 116.5 C-234.639375 118.376875 -235.27875 120.25375 -235.9375 122.1875 C-236.29714844 123.24324219 -236.65679687 124.29898438 -237.02734375 125.38671875 C-240.89579886 137.76888228 -239.78130748 151.41988665 -234.8125 163.3515625 C-233.12173874 165.83233779 -233.12173874 165.83233779 -229.86328125 165.98828125 C-228.69152344 165.93027344 -227.51976562 165.87226563 -226.3125 165.8125 C-224.54326172 165.74482422 -224.54326172 165.74482422 -222.73828125 165.67578125 C-221.83464844 165.61777344 -220.93101562 165.55976563 -220 165.5 C-220.14147461 164.78529541 -220.28294922 164.07059082 -220.42871094 163.33422852 C-221.84591068 155.63738934 -222.30546494 148.25343473 -222.25 140.4375 C-222.25773437 139.34373047 -222.26546875 138.24996094 -222.2734375 137.12304688 C-222.25650545 130.00735426 -221.46139308 123.46481384 -220 116.5 C-224.62 116.5 -229.24 116.5 -234 116.5 Z M-201 116.5 C-207.92347762 132.65478112 -207.22773716 147.9979863 -202 164.5 C-199.15983771 167.34016229 -189.39125757 165.95920004 -185.39111328 166.01489258 C-183.63716471 166.0465084 -181.88342913 166.09423927 -180.13037109 166.15844727 C-170.49150867 166.92268392 -170.49150867 166.92268392 -161.76123047 163.91210938 C-160.34222888 161.7704919 -159.62122447 159.98573588 -159 157.5 C-158.68289062 156.39398438 -158.36578125 155.28796875 -158.0390625 154.1484375 C-156.2603781 140.08676268 -157.76510409 130.26341169 -162 116.5 C-174.87 116.5 -187.74 116.5 -201 116.5 Z M-143 116.5 C-142.71729594 118.91802195 -142.42420736 121.3340122 -142.125 123.75 C-142.04636719 124.43191406 -141.96773438 125.11382812 -141.88671875 125.81640625 C-141.40866811 129.60403827 -140.73938799 132.02122402 -139 135.5 C-134.71 132.53 -130.42 129.56 -126 126.5 C-127.32 123.2 -128.64 119.9 -130 116.5 C-134.29 116.5 -138.58 116.5 -143 116.5 Z M-139.6875 159.625 C-152.28309433 175.83223428 -156.60758755 192.71718316 -156.5390625 212.87890625 C-156.54900712 214.50546061 -156.56096234 216.13200376 -156.57479858 217.75852966 C-156.60683127 221.99942897 -156.61752168 226.24007079 -156.62164307 230.4810791 C-156.63046922 237.26822788 -156.66647921 244.05516866 -156.7138176 250.84214592 C-156.7261864 253.18273589 -156.72566444 255.52304749 -156.72354126 257.86366272 C-156.77237819 276.73997877 -161.01491033 291.7906305 -169.32080078 308.67700195 C-172.83348882 315.90585173 -174.39391706 323.0754794 -172.3515625 331.0234375 C-170.77010445 335.41637652 -168.97369025 338.64035006 -165.86993408 342.1328125 C-165.24099998 342.8434938 -164.61206589 343.55417511 -163.96407318 344.28639221 C-163.31592903 345.01688278 -162.66778488 345.74737335 -162 346.5 C-160.80071821 347.87040557 -159.60213122 349.24141949 -158.40423584 350.61303711 C-114.02390661 406.98896376 -114.02390661 406.98896376 -53.63696289 436.89282227 C-33.43937343 436.69362393 -17.2483639 430.40152701 -2.83215332 416.19549561 C5.91264073 407.7275706 5.91264073 407.7275706 11 397.5 C10.00895264 397.48541748 9.01790527 397.47083496 7.99682617 397.45581055 C-32.14008372 396.81805093 -66.26226418 392.81145419 -96 362.5 C-113.52862713 342.88332324 -123.3131699 317.81002021 -123.29052734 291.54956055 C-123.29724457 290.40976746 -123.30396179 289.26997437 -123.31088257 288.09564209 C-123.32974915 284.35928894 -123.33378087 280.62311646 -123.3359375 276.88671875 C-123.34237267 274.26796904 -123.34910155 271.64922004 -123.35610962 269.0304718 C-123.36885089 263.55261066 -123.37187956 258.07479779 -123.37060547 252.59692383 C-123.36940514 246.30013679 -123.39050154 240.00369307 -123.4220928 233.70699281 C-123.45158212 227.60783568 -123.45857661 221.50884109 -123.45738602 215.40961647 C-123.45973288 212.83383596 -123.4685043 210.2580524 -123.48405075 207.68231773 C-123.62544858 181.83960094 -123.62544858 181.83960094 -119 170.5 C-118.72500168 169.80829208 -118.45000336 169.11658417 -118.16667175 168.40391541 C-113.46307662 157.66260067 -105.8442961 148.78359325 -96 142.5 C-93.29251677 144.90665176 -91.15570064 147.51793002 -89.125 150.5 C-88.44824219 151.49 -88.44824219 151.49 -87.7578125 152.5 C-87 154.5 -87 154.5 -87.73046875 156.6484375 C-89 158.5 -89 158.5 -91.1875 160.125 C-98.54408932 166.33723098 -103.20263085 175.38599085 -106 184.5 C-106.17363849 187.23763361 -106.17363849 187.23763361 -106 189.5 C-105.57332031 189.1596875 -105.14664063 188.819375 -104.70703125 188.46875 C-89.68081274 176.81955791 -74.50088409 170.28427175 -56 166.5 C-56.99 157.59 -56.99 157.59 -58 148.5 C-52.39 148.5 -46.78 148.5 -41 148.5 C-40.9175 150.088125 -40.835 151.67625 -40.75 153.3125 C-39.60443748 165.55275711 -34.01234571 177.48136639 -24.96875 185.91015625 C-13.94622031 194.81128637 -1.52640659 198.63885145 12.49291992 198.65771484 C13.3246875 198.66279556 14.15645508 198.66787628 15.01342773 198.67311096 C16.81234387 198.68377469 18.61127294 198.69241039 20.41020775 198.69923019 C23.26599767 198.71108499 26.12164079 198.73055557 28.97737122 198.75234985 C37.09464571 198.81373696 45.21190412 198.8679042 53.3293457 198.90136719 C58.30308798 198.92241713 63.27655997 198.95780185 68.25014687 199.00212479 C70.13617059 199.01620246 72.0222421 199.02498844 73.90831566 199.02817917 C92.82806661 199.06356906 92.82806661 199.06356906 102 202.5 C100.43528449 193.24959751 92.85745605 184.26725229 85.71875 178.34765625 C74.43847504 170.68160732 63.19362504 166.08738297 49.5 166.375 C46.695 166.41625 43.89 166.4575 41 166.5 C41 160.56 41 154.62 41 148.5 C66.65251733 150.17778943 87.27887336 154.84799047 105.6875 174.25 C116.86900945 187.20635222 123.12048726 203.11858288 123.17700195 220.22729492 C123.18357315 221.09644028 123.19014435 221.96558563 123.19691467 222.86106873 C123.21659931 225.7342031 123.22830629 228.60728503 123.23828125 231.48046875 C123.24235678 232.46841242 123.2464323 233.45635609 123.25063133 234.47423744 C123.27148239 239.71451226 123.28578218 244.95476106 123.29516602 250.19506836 C123.30616285 255.56182388 123.34048698 260.92815702 123.38033772 266.29476452 C123.40672539 270.45856904 123.41487782 274.62227687 123.41844749 278.78615761 C123.42326509 280.76135386 123.4347377 282.73654724 123.45348549 284.71166039 C123.70543532 313.04069063 115.94451216 339.01284065 97 360.5 C96.53464844 361.1084375 96.06929688 361.716875 95.58984375 362.34375 C88.55838151 371.46099767 77.64941824 378.44996793 68 384.5 C68.99 385.2734375 68.99 385.2734375 70 386.0625 C70.99 386.866875 71.98 387.67125 73 388.5 C73.61617187 388.96277344 74.23234375 389.42554688 74.8671875 389.90234375 C82.59646778 396.05268545 88.08210506 404.7468212 90 414.5 C90.31886128 418.22656787 90.37146354 421.94482023 90.4140625 425.68359375 C90.44311172 427.26685204 90.44311172 427.26685204 90.4727478 428.88209534 C90.53224553 432.2338162 90.57880965 435.58557197 90.625 438.9375 C90.6632072 441.21811345 90.70226051 443.49871289 90.7421875 445.77929688 C90.83792242 451.3527397 90.92305617 456.92626777 91 462.5 C96.54428945 461.70464929 100.61402298 460.59553228 104.1953125 455.94921875 C106.68595023 451.64133793 107.32568423 447.60441467 107.875 442.6875 C109.02645368 433.4955535 112.15465414 426.47330858 119.375 420.5 C126.96813871 414.81225565 134.99371853 413.94796844 144.19726562 413.50390625 C148.53104466 413.17774514 150.50823502 412.88516302 154.02734375 410.12890625 C156.18563806 407.58760114 156.18563806 407.58760114 156.875 404.3125 C155.69827804 399.18535433 152.98234918 396.63554017 149.359375 392.9296875 C143.61233587 387.011379 140.95185748 382.44651371 140.6875 374.125 C140.8425906 366.51522126 142.86419767 361.15377213 148 355.5 C150.98828125 353.5078125 150.98828125 353.5078125 154.3125 351.625 C163.4976457 346.20131693 169.63365341 340.38782197 172.75 330 C173.87750113 318.7249887 170.51555605 310.03277373 165.5 300.0625 C159.68855245 288.14507441 156.89413095 277.16176792 156.8581543 263.85327148 C156.85294266 262.77575371 156.85294266 262.77575371 156.84762573 261.6764679 C156.84032722 260.13023573 156.83495075 258.5839935 156.83133507 257.03774834 C156.82408462 254.57554347 156.80835405 252.11352832 156.78999329 249.65138245 C156.73793728 242.65522944 156.68965034 235.65918415 156.67407227 228.6628418 C156.66388715 224.36749546 156.63430374 220.0726355 156.59275246 215.77748299 C156.58058865 214.15713269 156.57529388 212.53671328 156.57755089 210.91631889 C156.58999013 199.06719718 155.83711146 187.14251738 150 176.5 C147.2154294 177.59695205 144.58664286 178.71933236 141.9375 180.125 C135.97639328 182.63903196 129.28131963 182.56347478 123.1796875 180.5859375 C116.15156202 177.33411825 111.36097279 173.02103276 108.5078125 165.609375 C106.45457338 157.08053557 107.99700291 150.07193425 112 142.5 C112.33 141.51 112.66 140.52 113 139.5 C111.52484445 138.86559072 110.04456668 138.24309173 108.5625 137.625 C107.73878906 137.27695313 106.91507812 136.92890625 106.06640625 136.5703125 C96.07742864 133.08371395 86.39455441 133.20264529 75.95849609 133.20947266 C74.12931038 133.20348146 72.30012718 133.19667455 70.47094727 133.18911743 C65.5202041 133.17150766 60.56953014 133.16676409 55.61875868 133.16548586 C52.51915367 133.16406053 49.41956604 133.15978365 46.31996536 133.15449142 C35.48755026 133.13600575 24.65518426 133.12781873 13.82275391 133.12939453 C3.75658706 133.13059461 -6.30936492 133.10951467 -16.37547743 133.0779072 C-25.04249846 133.05167159 -33.70944964 133.04103033 -42.37651002 133.04230535 C-47.5418513 133.04281296 -52.7070016 133.03724166 -57.87230301 133.01594925 C-62.73650558 132.99644443 -67.60033743 132.99652531 -72.46455383 133.01098251 C-74.23852969 133.01305681 -76.01252951 133.00845314 -77.78646469 132.9962616 C-102.30118467 132.83884558 -123.2704187 140.74675489 -139.6875 159.625 Z M127.3125 151.1875 C124.71851633 153.78148367 124 154.85351261 124 158.5 C125.39941201 162.03968921 126.4859948 163.23182337 129.875 165 C133.00873052 165.78797845 133.00873052 165.78797845 135.75 164.3125 C138.20086335 162.52368613 138.20086335 162.52368613 140 159.5 C139.916064 155.55500787 139.46631678 153.97891993 136.6875 151.125 C132.97009307 148.87726557 130.99308793 148.87643316 127.3125 151.1875 Z M-220 182.5 C-215.78884683 186.83987125 -215.78884683 186.83987125 -211 190.5 C-210.34 190.5 -209.68 190.5 -209 190.5 C-210.12451727 187.5280615 -211.22293791 185.16559313 -213 182.5 C-216.58357241 182.24984127 -216.58357241 182.24984127 -220 182.5 Z M-192 182.5 C-188.78838398 187.37148812 -188.78838398 187.37148812 -185.25 191.875 C-184.5075 192.74125 -183.765 193.6075 -183 194.5 C-179.612801 193.0611898 -177.6405896 191.27880501 -175.25 188.5 C-174.63640625 187.79875 -174.0228125 187.0975 -173.390625 186.375 C-171.80143078 184.6213343 -171.80143078 184.6213343 -172 182.5 C-178.6 182.5 -185.2 182.5 -192 182.5 Z M-64.3125 185.625 C-65.0537915 185.85018311 -65.79508301 186.07536621 -66.55883789 186.30737305 C-82.22653004 191.27559329 -98.87724487 202.80235731 -107 217.5 C-107.46811134 220.34065475 -107.66884053 222.56439813 -107.61523438 225.38452148 C-107.62078339 226.14012863 -107.6263324 226.89573578 -107.63204956 227.67424011 C-107.64379811 230.15718322 -107.61960119 232.63827971 -107.59375 235.12109375 C-107.59203591 236.86637794 -107.59210761 238.61166471 -107.59387207 240.35694885 C-107.59222094 244.01450267 -107.5735773 247.67144213 -107.54199219 251.32885742 C-107.50258079 255.97162056 -107.49791767 260.61357036 -107.50545502 265.25646877 C-107.50855746 268.86437669 -107.49628512 272.47210864 -107.47932434 276.07997322 C-107.47238396 277.78883824 -107.46915867 279.4977232 -107.47001648 281.2066021 C-107.44908381 308.67623898 -100.52218332 332.3883369 -81 352.5 C-80.38769531 353.18578125 -79.77539062 353.8715625 -79.14453125 354.578125 C-66.32427343 368.4644597 -45.01612944 378.66288831 -26.18423462 379.64717102 C-24.73106339 379.66193733 -24.73106339 379.66193733 -23.24853516 379.67700195 C-21.58487411 379.69625481 -21.58487411 379.69625481 -19.88760376 379.71589661 C-18.10632584 379.72697701 -18.10632584 379.72697701 -16.2890625 379.73828125 C-15.04812836 379.746353 -13.80719421 379.75442474 -12.52865601 379.76274109 C-9.90111679 379.7765555 -7.27355982 379.78728943 -4.64599609 379.79516602 C-1.98280901 379.80397221 0.67911798 379.82702587 3.34228516 379.85668945 C32.05341762 380.176178 56.55460007 375.78991904 78.11328125 355.34375 C78.57500732 354.88830811 79.0367334 354.43286621 79.51245117 353.96362305 C80.56734816 352.92569305 81.63682885 351.90249164 82.71606445 350.88989258 C87.08222811 346.71291547 90.4354646 342.35021437 93.5625 337.1875 C94.03357178 336.41059814 94.50464355 335.63369629 94.98999023 334.83325195 C104.50069048 318.53504972 107.31474573 301.08300379 107.30078125 282.38671875 C107.30720894 280.44512627 107.30720894 280.44512627 107.31376648 278.46430969 C107.32115023 275.75082241 107.32099247 273.03746548 107.31567383 270.32397461 C107.30984634 266.86663669 107.32692636 263.40982881 107.3500185 259.95257854 C107.36835991 256.61810374 107.36457022 253.28374359 107.36328125 249.94921875 C107.37709587 248.1036866 107.37709587 248.1036866 107.39118958 246.22087097 C107.34082512 236.85206436 105.85102286 228.41835478 99 221.5 C91.94044834 216.61261808 86.15211416 215.35349727 77.65820312 215.34228516 C76.81858032 215.33720444 75.97895752 215.33212372 75.1138916 215.32688904 C73.29147887 215.3161972 71.4690531 215.30757238 69.6466217 215.30076981 C66.75291184 215.28894672 63.85934894 215.26948178 60.96569824 215.24765015 C52.73825042 215.18617236 44.5108161 215.13215344 36.28320312 215.09863281 C31.24692556 215.07756458 26.21091396 215.0421592 21.17478943 214.99787521 C19.26447198 214.98380454 17.35410745 214.97501318 15.44374084 214.97182083 C2.14268813 214.9472552 -9.92322122 214.16171863 -22 208 C-22.6707959 207.65960693 -23.3415918 207.31921387 -24.03271484 206.96850586 C-33.46510969 201.92705344 -41.61847782 194.82554044 -46.328125 185.08203125 C-48.06276769 183.11823531 -48.06276769 183.11823531 -51.65234375 183.12890625 C-56.05971458 183.3491243 -60.10840118 184.33191453 -64.3125 185.625 Z M-198.75 352.0625 C-202.08490961 355.67531875 -204.48350295 359.81330198 -206 364.5 C-205.61426056 368.74761825 -204.30681253 370.68587959 -201.30639648 373.64770508 C-200.52566269 374.42813675 -199.74492889 375.20856842 -198.9405365 376.01264954 C-198.09262039 376.8399205 -197.24470428 377.66719147 -196.37109375 378.51953125 C-195.07474754 379.80738777 -195.07474754 379.80738777 -193.75221252 381.1212616 C-190.98988468 383.86120006 -188.21397396 386.58690446 -185.4375 389.3125 C-183.5622396 391.16769895 -181.68787914 393.02380803 -179.81445312 394.88085938 C-175.22002561 399.43118528 -170.61436846 403.96990177 -166 408.5 C-162.6752055 406.92411996 -160.48368383 405.2182851 -157.890625 402.5859375 C-157.13652344 401.82539063 -156.38242188 401.06484375 -155.60546875 400.28125 C-154.82816406 399.4871875 -154.05085938 398.693125 -153.25 397.875 C-152.45722656 397.07320313 -151.66445312 396.27140625 -150.84765625 395.4453125 C-148.89385507 393.46797154 -146.94487897 391.48611091 -145 389.5 C-146.42999927 386.24236371 -148.17756322 384.06964773 -150.68359375 381.55761719 C-151.43777588 380.79713074 -152.19195801 380.03664429 -152.96899414 379.25311279 C-153.78360107 378.44255432 -154.59820801 377.63199585 -155.4375 376.796875 C-156.27337646 375.95908508 -157.10925293 375.12129517 -157.97045898 374.25811768 C-159.73663557 372.49058097 -161.50533688 370.72556398 -163.27636719 368.96289062 C-165.99646881 366.25351726 -168.70571999 363.53362235 -171.4140625 360.8125 C-173.12956717 359.09831643 -174.84569186 357.3847531 -176.5625 355.671875 C-177.37710693 354.8532196 -178.19171387 354.03456421 -179.03100586 353.19110107 C-179.78518799 352.44322327 -180.53937012 351.69534546 -181.31640625 350.92480469 C-181.98099854 350.26180359 -182.64559082 349.59880249 -183.33032227 348.91571045 C-187.39477204 345.46948613 -194.73269138 349.77993828 -198.75 352.0625 Z M8.875 424.5625 C7.62002796 425.82250102 6.36482114 427.08226824 5.109375 428.34179688 C2.07020916 431.39184853 -0.96578227 434.4450262 -4 437.5 C-0.07711742 442.20341126 4.01018696 446.64273951 8.375 450.9375 C8.92027344 451.47826172 9.46554687 452.01902344 10.02734375 452.57617188 C11.34923464 453.88646723 12.67427618 455.19358284 14 456.5 C13.13192399 457.56816445 12.25505217 458.62918085 11.375 459.6875 C10.88773437 460.27917969 10.40046875 460.87085938 9.8984375 461.48046875 C7.44967273 464.08543045 4.77690625 466.24813905 2 468.5 C1.61634277 467.83355469 1.23268555 467.16710937 0.83740234 466.48046875 C-4.35565579 458.19937242 -10.63337934 450.11947862 -20 446.5 C-37.34374312 442.88245448 -56.50706071 445.27438005 -74 446.5 C-74 462.67 -74 478.84 -74 495.5 C-59.84768789 495.61647727 -59.84768789 495.61647727 -45.6953125 495.6953125 C-39.91716695 495.7191598 -34.13927661 495.74727318 -28.36132812 495.80175781 C-23.69936208 495.84544043 -19.03767 495.8691842 -14.37551498 495.87950897 C-12.60302294 495.88686031 -10.83054471 495.9012152 -9.05817032 495.92292023 C5.01550574 496.08830773 13.92581697 495.09836673 24.3882103 484.89455414 C26.00512744 483.27724029 27.60853647 481.64731335 29.2109375 480.015625 C30.35189209 478.87363079 31.49388975 477.73267786 32.63687134 476.5927124 C35.01798766 474.21141759 37.38851962 471.82022228 39.75146484 469.42089844 C42.76714472 466.35979494 45.80452944 463.32139078 48.84972191 460.28967667 C51.20639436 457.93971446 53.55292649 455.57983501 55.8964119 453.21672821 C57.01243103 452.09306147 58.1310982 450.97201784 59.2525444 449.8537674 C66.79226642 442.31764382 73.3744032 435.47635925 74.25 424.3125 C73.70739276 416.03773961 70.64582757 409.55793177 65 403.5 C42.45080819 385.64855649 23.95059984 409.38059271 8.875 424.5625 Z M-134.97119141 403.24414062 C-136.1494751 404.43813477 -136.1494751 404.43813477 -137.3515625 405.65625 C-138.20234375 406.51347656 -139.053125 407.37070312 -139.9296875 408.25390625 C-140.81914062 409.16011719 -141.70859375 410.06632812 -142.625 411 C-143.5221875 411.90621094 -144.419375 412.81242187 -145.34375 413.74609375 C-147.56701538 415.99301089 -149.78549657 418.24445216 -152 420.5 C-150.5735422 423.7586636 -148.83295838 425.9024854 -146.3046875 428.390625 C-145.58925781 429.09960938 -144.87382812 429.80859375 -144.13671875 430.5390625 C-143.39035156 431.26867187 -142.64398438 431.99828125 -141.875 432.75 C-141.12089844 433.49507813 -140.36679688 434.24015625 -139.58984375 435.0078125 C-137.73099228 436.8431342 -135.86762995 438.6736191 -134 440.5 C-131.2686935 439.21711361 -129.30089673 437.95469945 -126.875 436.0625 C-120.12901192 431.17598299 -112.11538739 430.15446673 -104 429.5 C-108.80284555 423.68984624 -113.98539377 418.32838745 -119.31494141 412.99975586 C-120.76625302 411.5462221 -122.20933488 410.08481827 -123.65234375 408.62304688 C-124.56628906 407.70716797 -125.48023438 406.79128906 -126.421875 405.84765625 C-127.25299805 405.01242432 -128.08412109 404.17719238 -128.94042969 403.31665039 C-131.67993745 400.90025906 -132.23141717 400.81994603 -134.97119141 403.24414062 Z M-121 454.5 C-123.52631739 458.79030744 -123.64998589 462.62921962 -123 467.5 C-121.59508479 471.80728496 -119.42374616 474.5228435 -115.5625 476.875 C-107.13814789 480.71768693 -101.01605833 479.5 -91 479.5 C-91 468.61 -91 457.72 -91 446.5 C-93.825625 446.438125 -96.65125 446.37625 -99.5625 446.3125 C-100.43849854 446.28518799 -101.31449707 446.25787598 -102.21704102 446.22973633 C-110.25088707 446.14536053 -115.63066946 448.2102128 -121 454.5 Z M69.67358398 462.69702148 C68.9729332 463.39452011 68.27228241 464.09201874 67.55039978 464.81065369 C66.78997879 465.57309891 66.0295578 466.33554413 65.24609375 467.12109375 C64.47064713 467.89558365 63.6952005 468.67007355 62.89625549 469.46803284 C61.2532547 471.11035146 59.61152273 472.75394025 57.97094727 474.39868164 C55.44854072 476.92643588 52.92085904 479.44882604 50.39257812 481.97070312 C48.80176258 483.56217944 47.21125725 485.15396592 45.62109375 486.74609375 C44.47742592 487.88672523 44.47742592 487.88672523 43.31065369 489.05039978 C42.61315506 489.75105057 41.91565643 490.45170135 41.19702148 491.17358398 C40.57826645 491.79313461 39.95951141 492.41268524 39.32200623 493.05101013 C37.8876674 494.29621482 37.8876674 494.29621482 38 495.5 C49.88 495.5 61.76 495.5 74 495.5 C74 483.62 74 471.74 74 459.5 C72.13014179 459.5 70.92036516 461.45184136 69.67358398 462.69702148 Z " fill="#5173E8" transform="translate(256,-0.5)"/>
<path d="M0 0 C27.72 0 55.44 0 84 0 C84 16.03538846 82.96092151 27.16529568 72.1171875 39.06640625 C63.1338883 47.48597615 51.90806279 51.58335159 39.6640625 51.2421875 C28.01461868 50.18314715 18.18115042 45.7830471 10.125 37.1875 C0.70544157 25.48646578 0 14.96027766 0 0 Z M20 18 C22.76071813 24.90179532 26.72461893 28.18020283 33 32 C39.15783248 34.05261083 46.50989488 34.11793143 52.4375 31.3125 C57.21124967 28.50965528 60.97251024 24.62090542 64 20 C64 19.34 64 18.68 64 18 C49.48 18 34.96 18 20 18 Z " fill="#6B5BEF" transform="translate(214,313)"/>
<path d="M0 0 C6.91100008 4.00523868 10.90784818 8.99390341 13.09375 16.68359375 C14.69171254 24.3671303 13.44068925 31.53051647 9.12109375 38.14453125 C4.26555245 44.21677431 -0.82674577 47.33006061 -8.55078125 48.34765625 C-17.1578294 48.74210382 -23.68362946 46.99641913 -30.28125 41.36328125 C-35.14646908 36.24764648 -37.47757651 29.95693816 -37.8125 22.9375 C-37.47757651 15.91806184 -35.14646908 9.62735352 -30.28125 4.51171875 C-21.55766002 -2.93660066 -10.56443685 -4.78179773 0 0 Z M-18.4375 17.9375 C-19.85791821 20.77833641 -19.75202272 22.79227278 -19.4375 25.9375 C-17.50109458 28.59109262 -16.05891377 29.6984947 -13 30.875 C-9.64647857 30.95679321 -8.08822129 29.92554097 -5.4375 27.9375 C-4.01708179 25.09666359 -4.12297728 23.08272722 -4.4375 19.9375 C-6.37390542 17.28390738 -7.81608623 16.1765053 -10.875 15 C-14.22852143 14.91820679 -15.78677871 15.94945903 -18.4375 17.9375 Z " fill="#546FE9" transform="translate(317.4375,233.0625)"/>
<path d="M0 0 C5.86156614 4.18379902 8.96523874 8.86906005 10.75 15.859375 C11.91809683 23.56432141 10.78481397 31.16255141 6.15625 37.5390625 C0.34619416 43.88254778 -5.62238641 46.65889038 -14.15625 47.0390625 C-22.30934266 46.82352097 -28.63049724 44.23066282 -34.28125 38.2890625 C-38.43319535 32.86683359 -40.45966568 26.39592268 -40.12109375 19.5703125 C-39.04153106 11.66365615 -35.90142739 5.78037321 -29.84375 0.5390625 C-20.90263974 -5.66034012 -9.23908956 -5.36947088 0 0 Z M-20.84375 16.5390625 C-22.26416821 19.37989891 -22.15827272 21.39383528 -21.84375 24.5390625 C-19.90734458 27.19265512 -18.46516377 28.3000572 -15.40625 29.4765625 C-12.05272857 29.55835571 -10.49447129 28.52710347 -7.84375 26.5390625 C-6.42333179 23.69822609 -6.52922728 21.68428972 -6.84375 18.5390625 C-8.78015542 15.88546988 -10.22233623 14.7780678 -13.28125 13.6015625 C-16.63477143 13.51976929 -18.19302871 14.55102153 -20.84375 16.5390625 Z " fill="#546FE9" transform="translate(220.84375,234.4609375)"/>
<path d="M0 0 C22.11 0 44.22 0 67 0 C67 5.94 67 11.88 67 18 C44.89 18 22.78 18 0 18 C0 12.06 0 6.12 0 0 Z " fill="#8E3DFA" transform="translate(445,445)"/>
<path d="M0 0 C22.11 0 44.22 0 67 0 C67 5.94 67 11.88 67 18 C44.89 18 22.78 18 0 18 C0 12.06 0 6.12 0 0 Z " fill="#8546F6" transform="translate(445,412)"/>
<path d="M0 0 C11.22 0 22.44 0 34 0 C34 5.94 34 11.88 34 18 C22.78 18 11.56 18 0 18 C0 12.06 0 6.12 0 0 Z " fill="#7A4EF4" transform="translate(445,379)"/>
<path d="M0 0 C5.94 0 11.88 0 18 0 C18 5.61 18 11.22 18 17 C12.06 17 6.12 17 0 17 C0 11.39 0 5.78 0 0 Z " fill="#9835FD" transform="translate(478,479)"/>
<path d="M0 0 C5.94 0 11.88 0 18 0 C18 5.61 18 11.22 18 17 C12.06 17 6.12 17 0 17 C0 11.39 0 5.78 0 0 Z " fill="#9735FD" transform="translate(445,479)"/>
<path d="M0 0 C5.61 0 11.22 0 17 0 C17 5.94 17 11.88 17 18 C11.39 18 5.78 18 0 18 C0 12.06 0 6.12 0 0 Z " fill="#7B4EF4" transform="translate(495,379)"/>
</svg>
