<?xml version="1.0" encoding="UTF-8"?>
<svg version="1.1" xmlns="http://www.w3.org/2000/svg" width="512" height="512">
<path d="M0 0 C4.37622163 2.60230388 7.54495782 5.96178151 10.48046875 10.08984375 C10.48046875 10.74984375 10.48046875 11.40984375 10.48046875 12.08984375 C11.77984375 11.88359375 13.07921875 11.67734375 14.41796875 11.46484375 C21.59515748 10.72237595 27.09405458 11.59239115 32.79296875 16.21484375 C36.37641819 19.64093613 38.98906589 23.33109121 40.48046875 28.08984375 C40.48046875 29.40984375 40.48046875 30.72984375 40.48046875 32.08984375 C45.52356412 31.7110219 50.56489747 31.31318434 55.60546875 30.90234375 C56.76062485 30.80838318 56.76062485 30.80838318 57.93911743 30.71252441 C72.37851006 29.5182176 86.70325883 27.72716304 101.03759766 25.62817383 C101.81070786 25.51885025 102.58381805 25.40952667 103.38035583 25.29689026 C104.81300834 25.09422768 106.24454641 24.88341832 107.67445374 24.66221619 C112.55426811 23.9804632 116.6741004 24.17299027 121.48046875 25.08984375 C124.46120111 28.45518673 124.81384097 31.74775471 125.48046875 36.08984375 C126.11549316 36.0741333 126.75051758 36.05842285 127.40478516 36.04223633 C130.30492105 35.97955785 133.20491399 35.94074958 136.10546875 35.90234375 C137.60400391 35.86463867 137.60400391 35.86463867 139.1328125 35.82617188 C146.02546479 35.75770182 150.65883632 36.34447166 155.79296875 41.33984375 C159.28689038 47.03364197 158.63996489 54.13994716 158.6484375 60.64453125 C158.6517659 61.54551544 158.6550943 62.44649963 158.65852356 63.37478638 C158.66356433 65.27247613 158.66593277 67.17017466 158.66577148 69.06787109 C158.66795677 71.9490438 158.68613967 74.82983242 158.70507812 77.7109375 C158.70801301 79.56380079 158.70999717 81.41666588 158.7109375 83.26953125 C158.71812302 84.11981903 158.72530853 84.97010681 158.73271179 85.84616089 C158.70667639 92.76493017 158.52415864 99.57453311 154.04296875 105.08984375 C150.3524593 107.97024137 147.69811029 108.21259315 143.15625 108.1875 C142.12822266 108.18427734 141.10019531 108.18105469 140.04101562 108.17773438 C138.96916016 108.16935547 137.89730469 108.16097656 136.79296875 108.15234375 C135.70951172 108.14783203 134.62605469 108.14332031 133.50976562 108.13867188 C130.8332779 108.12688118 128.15690098 108.11042438 125.48046875 108.08984375 C125.33351563 109.01216797 125.33351563 109.01216797 125.18359375 109.953125 C123.97142423 116.50511026 123.97142423 116.50511026 121.7421875 119.16015625 C116.63922491 121.25774709 110.82146961 119.76881615 105.48046875 119.08984375 C104.73812988 118.99928711 103.99579102 118.90873047 103.23095703 118.81542969 C100.9335481 118.52102711 98.645312 118.1879493 96.35546875 117.83984375 C95.63335205 117.74300293 94.91123535 117.64616211 94.16723633 117.54638672 C90.52302965 116.93507825 88.6637984 116.26800109 85.98828125 113.66796875 C84.48046875 111.08984375 84.48046875 111.08984375 84.48046875 108.08984375 C83.4440625 108.02925781 82.40765625 107.96867187 81.33984375 107.90625 C79.97004002 107.82181004 78.600249 107.73716378 77.23046875 107.65234375 C76.54855469 107.61302734 75.86664063 107.57371094 75.1640625 107.53320312 C71.83598834 107.32317903 68.67791473 107.07050373 65.48046875 106.08984375 C65.21234375 106.87359375 64.94421875 107.65734375 64.66796875 108.46484375 C63.48046875 111.08984375 63.48046875 111.08984375 60.48046875 113.08984375 C57.70031466 113.07266463 55.05266362 112.95586514 52.29296875 112.71484375 C51.16858398 112.62976563 51.16858398 112.62976563 50.02148438 112.54296875 C48.17370316 112.40173706 46.32695675 112.24708208 44.48046875 112.08984375 C44.4546875 112.92644531 44.42890625 113.76304688 44.40234375 114.625 C43.99930631 122.8964274 42.64108225 130.02108384 40.22265625 137.91015625 C39.51584476 140.93828549 39.23251179 142.29769762 40.48046875 145.08984375 C42.12643385 146.77695798 43.79284024 148.44440595 45.48046875 150.08984375 C46.63994683 153.56827799 46.67965762 156.73360132 46.71875 160.35546875 C46.72682175 161.06709167 46.73489349 161.7787146 46.74320984 162.51190186 C46.75702923 164.01816386 46.76776097 165.5244569 46.77563477 167.03076172 C46.7871377 168.56308234 46.8075631 170.09536343 46.8371582 171.62744141 C46.8800664 173.84955885 46.89603576 176.0704872 46.90625 178.29296875 C46.93251213 179.30741058 46.93251213 179.30741058 46.95930481 180.34234619 C46.93498228 185.75023669 45.45176916 188.73352027 42.48046875 193.08984375 C38.41595262 196.08984375 38.41595262 196.08984375 35.48046875 196.08984375 C35.53086744 196.68730187 35.58126614 197.28476 35.63319206 197.90032291 C37.0731984 215.10321925 38.24295825 232.3158313 39.29868937 249.54615855 C39.47181776 252.36737659 39.64638207 255.18850515 39.82090938 258.00963694 C40.23244922 264.66246682 40.64166898 271.31543642 41.04931641 277.96850586 C41.46756874 284.79400076 41.88978646 291.61924246 42.31389248 298.44437593 C42.6813427 304.3599249 43.04639753 310.2756184 43.40954578 316.19143301 C43.62503131 319.70144184 43.8413744 323.21139197 44.06003189 326.72120476 C44.30278554 330.61983378 44.5405322 334.51875965 44.77783203 338.41772461 C44.84949585 339.55809174 44.92115967 340.69845886 44.99499512 341.87338257 C46.63005206 369.06703519 39.67586736 388.3740058 23.4296875 410.11328125 C20.41229597 414.15716675 17.50209726 418.27144579 14.60546875 422.40234375 C10.44135608 428.33087654 6.23209926 434.22375814 1.98046875 440.08984375 C-2.226461 445.89545678 -6.3955202 451.72503728 -10.51953125 457.58984375 C-14.7305965 463.5767099 -18.98408114 469.53100064 -23.26953125 475.46484375 C-23.81528809 476.22563232 -24.36104492 476.9864209 -24.92333984 477.77026367 C-27.22781839 480.97373437 -29.54857069 484.12621132 -32.01171875 487.2109375 C-36.65972203 493.07627498 -38.66492855 497.91669004 -39.8515625 505.33984375 C-40.56847481 508.29134237 -41.01605991 509.40558614 -43.51953125 511.08984375 C-45.67578125 511.48828125 -45.67578125 511.48828125 -48.01953125 511.46484375 C-48.79296875 511.47257813 -49.56640625 511.4803125 -50.36328125 511.48828125 C-53.0493017 510.99195138 -53.95164901 510.31101025 -55.51953125 508.08984375 C-55.51953125 506.76984375 -55.51953125 505.44984375 -55.51953125 504.08984375 C-74.65953125 504.08984375 -93.79953125 504.08984375 -113.51953125 504.08984375 C-114.17953125 505.73984375 -114.83953125 507.38984375 -115.51953125 509.08984375 C-117.93440068 511.50471318 -118.64660914 511.38603625 -121.95703125 511.40234375 C-122.73949219 511.41910156 -123.52195313 511.43585937 -124.328125 511.453125 C-126.51953125 511.08984375 -126.51953125 511.08984375 -128.3046875 509.8203125 C-129.51953125 508.08984375 -129.51953125 508.08984375 -129.51953125 504.08984375 C-151.29953125 504.08984375 -173.07953125 504.08984375 -195.51953125 504.08984375 C-195.84953125 505.73984375 -196.17953125 507.38984375 -196.51953125 509.08984375 C-200.31200811 511.61816166 -203.06902837 511.70306544 -207.51953125 511.08984375 C-210.19384614 509.27821108 -210.47873484 508.21223298 -211.51953125 505.08984375 C-243.19953125 504.59484375 -243.19953125 504.59484375 -275.51953125 504.08984375 C-276.17953125 505.73984375 -276.83953125 507.38984375 -277.51953125 509.08984375 C-279.51953125 511.08984375 -279.51953125 511.08984375 -283.39453125 511.46484375 C-286.57709913 511.39553193 -287.32877281 511.23658101 -289.95703125 509.21484375 C-291.51953125 507.08984375 -291.51953125 507.08984375 -292.51953125 505.08984375 C-293.1518013 505.08397751 -293.78407135 505.07811127 -294.4355011 505.07206726 C-301.00539417 505.00822388 -307.57479325 504.92382794 -314.14428711 504.82739258 C-316.59734594 504.79410049 -319.05048216 504.76608205 -321.50366211 504.7434082 C-325.02621503 504.70994146 -328.5480559 504.6576286 -332.0703125 504.6015625 C-333.17039139 504.59517258 -334.27047028 504.58878265 -335.40388489 504.5821991 C-336.93513252 504.55250786 -336.93513252 504.55250786 -338.49731445 504.5222168 C-339.39666214 504.51111374 -340.29600983 504.50001068 -341.22261047 504.48857117 C-343.51953125 504.08984375 -343.51953125 504.08984375 -345.31213379 502.96850586 C-347.11069265 500.17002029 -346.87871823 497.90539696 -346.86010742 494.59887695 C-346.8605455 493.94494965 -346.86098358 493.29102234 -346.86143494 492.61727905 C-346.85934664 490.45808952 -346.83601513 488.2996787 -346.8125 486.140625 C-346.80690416 484.64276046 -346.802634 483.14489043 -346.79963684 481.64701843 C-346.78818705 477.70625629 -346.75871903 473.7658263 -346.7255249 469.82519531 C-346.69482673 465.80343113 -346.68113207 461.78161322 -346.66601562 457.75976562 C-346.63384918 449.86963931 -346.58265153 441.97978286 -346.51953125 434.08984375 C-347.1434375 433.94675781 -347.76734375 433.80367188 -348.41015625 433.65625 C-351.10457695 432.93274815 -351.99498317 432.45289328 -353.51953125 430.08984375 C-354.22733102 424.51592058 -354.22733102 424.51592058 -353.51953125 422.08984375 C-350.0662607 418.65558203 -346.71536338 417.23940661 -342.08203125 415.90234375 C-340.44427734 415.41701172 -340.44427734 415.41701172 -338.7734375 414.921875 C-331.35987701 413.02621067 -324.2017996 412.83933486 -316.57910156 412.79467773 C-315.20595018 412.78312087 -313.83284499 412.76261044 -312.45996094 412.7331543 C-310.45930995 412.69033788 -308.45809923 412.67688986 -306.45703125 412.6640625 C-304.67619141 412.64218872 -304.67619141 412.64218872 -302.859375 412.61987305 C-298.75608051 413.19727377 -296.69442064 414.45451668 -293.51953125 417.08984375 C-293.04217529 417.98276123 -292.56481934 418.87567871 -292.07299805 419.7956543 C-290.6755034 422.43024403 -290.6755034 422.43024403 -287.42504883 422.74926758 C-286.18392334 422.76497803 -284.94279785 422.78068848 -283.6640625 422.796875 C-283.00242599 422.81199631 -282.34078949 422.82711761 -281.65910339 422.84269714 C-279.54973402 422.88562158 -277.44179407 422.89441502 -275.33203125 422.90234375 C-273.9003525 422.92548493 -272.46870783 422.95084951 -271.03710938 422.97851562 C-267.53127802 423.04140991 -264.02592472 423.07371149 -260.51953125 423.08984375 C-258.54711593 408.1528674 -258.54711593 408.1528674 -261.66650391 393.94238281 C-264.96183702 390.28821722 -269.16656464 388.26131212 -273.51953125 386.08984375 C-286.4210622 376.88992655 -294.74957777 361.45049485 -297.51953125 346.08984375 C-298.46828125 346.17234375 -299.41703125 346.25484375 -300.39453125 346.33984375 C-309.831165 346.30171594 -317.81703064 340.54742246 -324.39453125 334.3125 C-333.08753864 325.15111937 -336.40985036 313.79660282 -336.55078125 301.32421875 C-336.08750342 293.77279009 -333.76835123 287.86586471 -328.14453125 282.71484375 C-323.00078195 278.67881018 -319.10214106 278.08984375 -312.51953125 278.08984375 C-312.51953125 251.02984375 -312.51953125 223.96984375 -312.51953125 196.08984375 C-323.40953125 196.08984375 -334.29953125 196.08984375 -345.51953125 196.08984375 C-351.51953125 192.08984375 -351.51953125 192.08984375 -353.51953125 189.08984375 C-353.73984078 186.25858857 -353.84755687 183.52817808 -353.85546875 180.6953125 C-353.86545395 179.45785027 -353.86545395 179.45785027 -353.87564087 178.19538879 C-353.8857645 176.44953642 -353.89045798 174.70364537 -353.89013672 172.95776367 C-353.89449844 170.29735777 -353.93078715 167.63862671 -353.96875 164.97851562 C-353.97462069 163.27995357 -353.97858839 161.58138366 -353.98046875 159.8828125 C-353.99483978 159.09198776 -354.00921082 158.30116302 -354.02401733 157.4863739 C-353.9811064 152.25155566 -353.05863083 149.19337875 -349.51953125 145.08984375 C-346.45381386 143.16810509 -344.10237354 142.83745946 -340.51391983 142.82813072 C-338.99192156 142.81693248 -338.99192156 142.81693248 -337.43917584 142.80550802 C-336.32634315 142.80744275 -335.21351046 142.80937749 -334.06695557 142.81137085 C-332.88339123 142.80557845 -331.6998269 142.79978605 -330.48039699 142.79381812 C-327.19431694 142.7797391 -323.90844029 142.77458662 -320.62234473 142.77316952 C-317.0790715 142.76947812 -313.53584529 142.75432396 -309.99259949 142.74055481 C-303.8534011 142.71826996 -297.71421941 142.70326405 -291.57498932 142.69318771 C-282.69867557 142.67860849 -273.82242001 142.65307381 -264.94614038 142.62485643 C-250.54532643 142.57937466 -236.14450411 142.54276558 -221.74365234 142.51171875 C-207.75372853 142.48153888 -193.76382521 142.4471912 -179.77392578 142.40722656 C-178.48063954 142.40353424 -178.48063954 142.40353424 -177.1612263 142.39976732 C-172.83591205 142.38739283 -168.51059804 142.37493628 -164.18528414 142.36243892 C-128.2967281 142.25885039 -92.40814765 142.16965398 -56.51953125 142.08984375 C-57.15490035 139.02104199 -57.15490035 139.02104199 -59.265625 138.1875 C-60.00941406 137.82527344 -60.75320313 137.46304688 -61.51953125 137.08984375 C-63.24413204 135.6112152 -64.92771271 134.08420612 -66.58203125 132.52734375 C-71.30934738 128.14902411 -76.17561837 124.02951817 -81.20703125 120 C-83.51953125 118.08984375 -83.51953125 118.08984375 -84.91455078 116.49194336 C-87.53079199 114.20641351 -89.84765046 114.7258463 -93.20214844 114.828125 C-100.72019656 115.42124743 -108.17994051 116.53520311 -115.64453125 117.58984375 C-118.20508227 117.95011014 -120.76584289 118.30824149 -123.3276062 118.65979004 C-124.91111122 118.87717603 -126.4939606 119.09941764 -128.07595825 119.32751465 C-140.21992098 120.99758465 -140.21992098 120.99758465 -144.89453125 119.15234375 C-146.72508936 116.82894307 -147.0314652 115.32960859 -147.62109375 112.4609375 C-147.87753662 111.23588501 -147.87753662 111.23588501 -148.13916016 109.98608398 C-148.26468262 109.36032471 -148.39020508 108.73456543 -148.51953125 108.08984375 C-149.19008545 108.1055542 -149.86063965 108.12126465 -150.55151367 108.13745117 C-153.60326635 108.19999033 -156.65488393 108.23889438 -159.70703125 108.27734375 C-161.28967773 108.31504883 -161.28967773 108.31504883 -162.90429688 108.35351562 C-163.92587891 108.36318359 -164.94746094 108.37285156 -166 108.3828125 C-167.40608521 108.40637817 -167.40608521 108.40637817 -168.84057617 108.43041992 C-173.2571534 107.86893945 -176.73487215 105.53238126 -179.51953125 102.08984375 C-182.87411361 93.82822009 -181.82163528 83.54454217 -181.78027344 74.79492188 C-181.7695562 72.09612559 -181.7802109 69.39799478 -181.79296875 66.69921875 C-181.81397953 44.90449419 -181.81397953 44.90449419 -178.16918945 40.43334961 C-174.16073881 36.88240864 -170.60186883 35.98334874 -165.4140625 35.7734375 C-164.43115234 35.73154297 -163.44824219 35.68964844 -162.43554688 35.64648438 C-161.41138672 35.60716797 -160.38722656 35.56785156 -159.33203125 35.52734375 C-158.29626953 35.48416016 -157.26050781 35.44097656 -156.19335938 35.39648438 C-153.63554935 35.29040009 -151.0776428 35.18834229 -148.51953125 35.08984375 C-148.349375 34.46335938 -148.17921875 33.836875 -148.00390625 33.19140625 C-147.7615625 32.37414063 -147.51921875 31.556875 -147.26953125 30.71484375 C-147.0375 29.90273438 -146.80546875 29.090625 -146.56640625 28.25390625 C-145.51953125 26.08984375 -145.51953125 26.08984375 -143.72167969 24.78686523 C-141.08526383 23.95238993 -139.28694859 24.02002808 -136.53515625 24.3125 C-135.47103516 24.42223145 -134.40691406 24.53196289 -133.31054688 24.64501953 C-132.05951172 24.79181152 -130.80847656 24.93860352 -129.51953125 25.08984375 C-128.79757568 25.17369324 -128.07562012 25.25754272 -127.33178711 25.34393311 C-122.22897626 25.93934986 -117.12956163 26.56111548 -112.03057861 27.18835449 C-98.12794014 28.89525933 -84.24743542 30.54799263 -70.27246094 31.54467773 C-68.99097168 31.63664429 -68.99097168 31.63664429 -67.68359375 31.73046875 C-66.60779053 31.80056152 -66.60779053 31.80056152 -65.51025391 31.87207031 C-63.44331572 32.09818128 -61.52261445 32.54002187 -59.51953125 33.08984375 C-59.43703125 31.89359375 -59.35453125 30.69734375 -59.26953125 29.46484375 C-58.41947912 22.94011932 -54.61936902 18.4309205 -49.640625 14.3515625 C-43.55046732 10.72887202 -36.2715018 10.58940585 -29.51953125 12.08984375 C-29.33390625 11.38859375 -29.14828125 10.68734375 -28.95703125 9.96484375 C-23.61675269 -0.71571338 -10.85795694 -3.92233173 0 0 Z M-93.51953125 196.08984375 C-93.51953125 223.14984375 -93.51953125 250.20984375 -93.51953125 278.08984375 C-89.55953125 279.07984375 -85.59953125 280.06984375 -81.51953125 281.08984375 C-76.23072311 284.39534884 -73.67203124 288.36803214 -71.51953125 294.08984375 C-70.99133359 297.03213264 -70.94494939 299.85656954 -71.01953125 302.83984375 C-71.03234131 303.62552734 -71.04515137 304.41121094 -71.05834961 305.22070312 C-71.47595553 317.32507884 -75.88826734 327.12851693 -84.24609375 335.90234375 C-89.975587 341.13475767 -95.62849992 343.9466807 -103.33203125 344.83984375 C-106.12481294 345.21414978 -106.12481294 345.21414978 -108.51953125 346.08984375 C-110.15860399 349.04017469 -110.76661007 350.90129836 -111.51953125 354.08984375 C-116.16037001 367.27863058 -124.91364544 382.21877399 -137.82421875 388.765625 C-143.06897278 391.50985085 -143.06897278 391.50985085 -146.51953125 396.08984375 C-148.06840844 405.04564203 -147.04247227 414.0691112 -146.51953125 423.08984375 C-136.61953125 423.08984375 -126.71953125 423.08984375 -116.51953125 423.08984375 C-115.52953125 419.78984375 -114.53953125 416.48984375 -113.51953125 413.08984375 C-111.86328125 410.19921875 -111.86328125 410.19921875 -110.01953125 407.83984375 C-109.31441406 406.92332031 -108.60929687 406.00679687 -107.8828125 405.0625 C-107.10292969 404.08152344 -106.32304687 403.10054687 -105.51953125 402.08984375 C-104.65778777 400.98520608 -103.79714969 399.87970538 -102.9375 398.7734375 C-100.62583522 395.80780393 -98.29585105 392.85711602 -95.96044922 389.91015625 C-94.02893352 387.47007135 -92.10530985 385.02383968 -90.18310547 382.57641602 C-89.24971362 381.38847741 -88.31516528 380.20144645 -87.37939453 379.01538086 C-85.362717 376.45636973 -83.36856841 373.8884666 -81.4140625 371.28125 C-80.50720703 370.07275391 -80.50720703 370.07275391 -79.58203125 368.83984375 C-79.07800781 368.1540625 -78.57398438 367.46828125 -78.0546875 366.76171875 C-75.40807453 363.87940233 -73.11855403 363.15896176 -69.26953125 362.71484375 C-64.24873259 361.24774479 -61.92982938 357.13437768 -59.21777344 352.92724609 C-55.60297658 345.83086373 -56.58632838 337.33126427 -56.76953125 329.58984375 C-56.80858382 327.00080316 -56.83585276 324.41294583 -56.840271 321.8236084 C-56.84508437 320.22516888 -56.87064594 318.62661584 -56.91998291 317.02893066 C-56.95023202 313.4515486 -56.84521338 311.51167007 -54.62402344 308.63476562 C-52.51953125 307.08984375 -52.51953125 307.08984375 -50.51953125 306.08984375 C-50.34489155 303.00722919 -50.23859058 299.92588542 -50.14453125 296.83984375 C-50.09425781 295.96714844 -50.04398437 295.09445312 -49.9921875 294.1953125 C-49.96318359 292.92880859 -49.96318359 292.92880859 -49.93359375 291.63671875 C-49.90217285 290.86166992 -49.87075195 290.08662109 -49.83837891 289.28808594 C-50.34940542 286.73026342 -50.34940542 286.73026342 -53.51379395 285.47998047 C-56.51953125 283.08984375 -56.51953125 283.08984375 -57.27902222 279.30596924 C-57.31408009 277.75417366 -57.31621492 276.20142413 -57.29248047 274.64941406 C-57.30842506 273.37569695 -57.30842506 273.37569695 -57.32469177 272.07624817 C-57.35277015 269.27288748 -57.33867702 266.47140603 -57.32421875 263.66796875 C-57.33546716 261.72310744 -57.34934705 259.7782597 -57.36575317 257.83343506 C-57.40183833 252.71722059 -57.40215873 247.60160311 -57.39508057 242.48529053 C-57.39416864 237.26352207 -57.42701212 232.04197854 -57.45703125 226.8203125 C-57.51093814 216.57668913 -57.52395048 206.3336082 -57.51953125 196.08984375 C-69.39953125 196.08984375 -81.27953125 196.08984375 -93.51953125 196.08984375 Z " fill="#020101" transform="translate(353.51953125,0.91015625)"/>
<path d="M0 0 C13.27828346 2.27798994 25.30505352 6.79170358 37.6171875 12.09765625 C38.36154053 12.41814941 39.10589355 12.73864258 39.87280273 13.06884766 C41.23043568 13.66313344 42.58230439 14.27089075 43.92602539 14.89599609 C50.50100418 17.90575164 56.9055107 18.26546716 63.84375 16.12109375 C66.9404504 14.83221982 69.96496464 13.4280414 73 12 C81.61667603 8.19606352 90.27464159 4.73546299 99.3125 2.0625 C100.02365967 1.85109375 100.73481934 1.6396875 101.4675293 1.421875 C104.81626376 0.47029551 107.48501676 0 111 0 C111.29132813 0.99 111.58265625 1.98 111.8828125 3 C115.38180326 14.46060971 118.78512165 21.72441363 129.6328125 27.7734375 C131.74610939 28.86844612 133.86996574 29.9380715 136 31 C136.12511514 37.25806679 136.21504381 43.51537995 136.2746582 49.77441406 C136.29955152 51.89628812 136.33347907 54.01807875 136.37719727 56.13964844 C136.78024715 76.22575805 134.45254332 92.92641141 120.25 108.3125 C114.34201076 113.94920402 107.61528839 118.59090245 101.00390625 123.35546875 C96.96631078 126.27094556 93.02672673 129.2904963 89.1081543 132.36328125 C74.50778209 143.79265821 62.6716096 147.88889599 44.05078125 145.64453125 C36.36859139 143.75255391 30.2044843 138.68251825 24 134 C23.20029785 133.39865234 22.4005957 132.79730469 21.57666016 132.17773438 C17.04916894 128.76502711 12.54125025 125.3284553 8.05078125 121.8671875 C5.07780643 119.57772526 2.09081228 117.32153769 -0.95703125 115.1328125 C-14.06883782 105.65108848 -22.12111209 93.05148718 -25 77 C-25.25528985 73.30903632 -25.23400001 69.63579967 -25.1953125 65.9375 C-25.1924826 64.90560547 -25.18965271 63.87371094 -25.18673706 62.81054688 C-25.17561252 59.54024268 -25.15052226 56.27022032 -25.125 53 C-25.11496022 50.77213939 -25.10583612 48.54427446 -25.09765625 46.31640625 C-25.07569855 40.87750929 -25.0422986 35.43877479 -25 30 C-23.96504395 29.59624146 -23.96504395 29.59624146 -22.90917969 29.18432617 C-22.00586914 28.82830322 -21.10255859 28.47228027 -20.171875 28.10546875 C-19.2756543 27.75379639 -18.37943359 27.40212402 -17.45605469 27.03979492 C-10.91817677 24.27191997 -7.21457767 19.14732936 -4 13 C-2.43777116 8.7218964 -1.15707075 4.40367513 0 0 Z " fill="#FBD0A3" transform="translate(95,263)"/>
<path d="M0 0 C89.1 0 178.2 0 270 0 C270 7.59 270 15.18 270 23 C267.74897461 23.0093457 265.49794922 23.01869141 263.17871094 23.02832031 C255.74260449 23.0620825 248.30677579 23.11762699 240.87089157 23.18390274 C236.36231781 23.22341776 231.85394054 23.25558636 227.34521484 23.27099609 C222.99426964 23.28613637 218.64386447 23.32053453 214.29315948 23.36830902 C212.63302554 23.38315008 210.97281451 23.39104258 209.31261444 23.39188385 C206.98744587 23.39424719 204.66377745 23.42127256 202.33886719 23.45410156 C201.6519429 23.4490712 200.96501862 23.44404083 200.25727844 23.43885803 C196.96448669 23.51082607 195.22020258 23.83836966 192.53741455 25.80755615 C190.6453787 28.04851064 190.6453787 28.04851064 191.0625 31.625 C191.6750845 35.25516924 191.6750845 35.25516924 195 37 C197.60702418 37.24012791 200.11964544 37.3727997 202.73046875 37.4140625 C203.39582642 37.43170654 204.06118408 37.44935059 204.7467041 37.4675293 C207.2267258 37.53048619 209.70714861 37.57674903 212.1875 37.625 C217.735625 37.74875 223.28375 37.8725 229 38 C229 53.51 229 69.02 229 85 C222.73 85.33 216.46 85.66 210 86 C206.10519411 86.49908317 202.34181933 87.02399254 198.5 87.75 C197.54279053 87.9248291 196.58558105 88.0996582 195.59936523 88.27978516 C176.88393995 91.81169956 159.00939651 97.10948851 142.0625 105.8984375 C136.69743173 107.82821971 132.2297618 107.77006303 127.09765625 105.4609375 C125.74620915 104.77813788 124.4013299 104.08221926 123.0625 103.375 C110.90664149 97.31659661 98.29380758 92.84377843 85 90 C83.34484375 89.61714844 83.34484375 89.61714844 81.65625 89.2265625 C71.46103837 87.0632928 61.2720323 86.29142921 50.87670898 85.64624023 C49.74305908 85.57477783 48.60940918 85.50331543 47.44140625 85.4296875 C46.41732666 85.37022949 45.39324707 85.31077148 44.33813477 85.24951172 C42 85 42 85 41 84 C40.90704185 82.55710213 40.88253487 81.10970215 40.88647461 79.66381836 C40.88655014 78.7429393 40.88662567 77.82206024 40.88670349 76.87327576 C40.89186478 75.87224319 40.89702606 74.87121063 40.90234375 73.83984375 C40.9037587 72.82024063 40.90517365 71.80063751 40.90663147 70.75013733 C40.91224903 67.47922893 40.9248045 64.20838787 40.9375 60.9375 C40.94251274 58.72591244 40.94707604 56.51432382 40.95117188 54.30273438 C40.96222416 48.86846643 40.97897937 43.43423803 41 38 C41.95306345 37.99780016 41.95306345 37.99780016 42.92538071 37.99555588 C58.38224683 37.95851153 73.83884972 37.89952869 89.29552841 37.81609726 C96.77026482 37.77628004 104.24489553 37.74390127 111.71972656 37.72900391 C118.2344586 37.71600118 124.74895835 37.68907219 131.26355958 37.64538693 C134.71337013 37.62274061 138.16289386 37.60709118 141.61278534 37.60811615 C145.46312558 37.60899925 149.31287864 37.57879209 153.16308594 37.54589844 C154.30819641 37.5509288 155.45330688 37.55595917 156.63311768 37.56114197 C157.68197144 37.54722916 158.7308252 37.53331635 159.8114624 37.51898193 C160.72219387 37.51529476 161.63292534 37.51160759 162.57125473 37.50780869 C165.78348045 36.83618777 166.98866039 35.5439409 169 33 C169.66680368 29.95720628 169.66680368 29.95720628 169 27 C166.67684852 24.60614548 165.26259772 24.03292129 161.93094254 23.61523914 C160.11132318 23.6083257 160.11132318 23.6083257 158.25494385 23.60127258 C157.57774001 23.59462576 156.90053617 23.58797893 156.202811 23.58113068 C153.93485902 23.56248616 151.66743392 23.56510684 149.39941406 23.56762695 C147.77322137 23.55861065 146.1470355 23.54828375 144.52085876 23.53674316 C140.1059293 23.50913149 135.69112864 23.49988301 131.276124 23.49388909 C126.66228174 23.48451626 122.0485361 23.45831377 117.43475342 23.43388367 C108.69778662 23.39018493 99.96083854 23.3616587 91.22379565 23.33856028 C81.27704101 23.31152669 71.3303834 23.26761406 61.38369799 23.22227156 C40.92251583 23.12937696 20.46130739 23.058317 0 23 C0 15.41 0 7.82 0 0 Z " fill="#757381" transform="translate(15,159)"/>
<path d="M0 0 C20.79 0 41.58 0 63 0 C65.9998264 46.08824201 65.9998264 46.08824201 67.0625 67.25 C67.58649422 77.67858612 68.18153446 88.08937234 69 98.5 C69.79787127 108.70039198 70.43644718 118.90463468 70.98925781 129.12084961 C71.07786916 130.75553767 71.16797085 132.39014582 71.25976562 134.0246582 C71.72861621 142.4246063 72.08269764 150.81251046 72.12109375 159.2265625 C72.12670319 159.90997711 72.13231262 160.59339172 72.13809204 161.29751587 C72.10829476 177.74230671 64.51529603 190.05403699 54.82641602 202.63598633 C50.85384528 207.79989975 47.14092548 213.09800431 43.5 218.5 C39.47818103 224.45324823 35.35650392 230.28698851 31 236 C25.36367202 243.39269081 20.11604685 251.02268879 14.91015625 258.72265625 C12.33005401 262.52666408 9.74013391 266.30890728 7 270 C6.67 270 6.34 270 6 270 C5.96559814 269.33919434 5.93119629 268.67838867 5.89575195 267.99755859 C4.2677093 238.54134504 0.448061 207.71243094 -10.1730957 179.93164062 C-11.10382194 176.63191797 -11.1653691 175.20539225 -10 172 C-8.93652191 170.55559923 -7.86788682 169.11395127 -6.74859619 167.71235657 C0.23812617 158.6591828 0.20274976 149.81837353 -0.15625 138.73706055 C-0.25108512 135.77864933 -0.2793196 132.82502622 -0.296875 129.86523438 C-0.32434097 127.97910777 -0.35545419 126.09302992 -0.390625 124.20703125 C-0.40337463 123.32586136 -0.41612427 122.44469147 -0.42926025 121.53681946 C-0.45808289 120.7213414 -0.48690552 119.90586334 -0.51660156 119.06567383 C-0.53708557 118.35067215 -0.55756958 117.63567047 -0.57867432 116.89900208 C-1.13011927 114.41352552 -2.02274747 113.57612857 -4 112 C-5.32 111.34 -6.64 110.68 -8 110 C-8 103.73 -8 97.46 -8 91 C-6.02 90.01 -4.04 89.02 -2 88 C-0.40943351 84.81886702 -0.81992203 81.37405738 -0.79467773 77.87841797 C-0.77982834 76.61976929 -0.77982834 76.61976929 -0.76467896 75.33569336 C-0.73302208 72.55455371 -0.70829 69.77339696 -0.68359375 66.9921875 C-0.66302784 65.06690012 -0.64203146 63.14161729 -0.62062073 61.21633911 C-0.56536259 56.14304282 -0.51596983 51.06970553 -0.46777344 45.99633789 C-0.40876549 39.91233321 -0.34251697 33.82840363 -0.27747345 27.74446106 C-0.17941687 18.49635315 -0.09059302 9.24819761 0 0 Z " fill="#E4EBF2" transform="translate(311,197)"/>
<path d="M0 0 C4.62880099 -0.17803081 8.82005151 0.07294508 13.37890625 0.91015625 C20.45326166 2.12752816 27.54505718 2.87072254 34.6875 3.5625 C35.34275665 3.62725525 35.99801331 3.6920105 36.67312622 3.75872803 C45.66001701 4.64631204 54.63065533 5.39062831 63.65234375 5.7890625 C67.14160496 6.0089226 70.54669865 6.46193772 74 7 C74.13535156 7.7734375 74.27070313 8.546875 74.41015625 9.34375 C75.96539745 16.86850983 78.00714372 22.0287949 84 27 C89.41491974 30.2693855 94.80462342 30.94193029 101 30 C103.18581104 29.05179974 105.18997195 27.94487544 107.2578125 26.765625 C109 26 109 26 111.6875 26.625 C112.450625 27.07875 113.21375 27.5325 114 28 C118.83847675 30.48835947 123.66864253 30.7151821 129 30 C131.19088117 29.05670394 133.18787327 27.94607227 135.2578125 26.765625 C137 26 137 26 139.6875 26.625 C140.450625 27.07875 141.21375 27.5325 142 28 C147.38869687 30.77132982 153.42000623 31.05442497 159.21484375 29.34765625 C164.33225128 27.05906517 168.15282069 23.83618455 171 19 C171.62838123 16.93734656 172.18134444 14.85061871 172.66796875 12.75 C173.04924927 11.13351563 173.04924927 11.13351563 173.43823242 9.484375 C173.62361572 8.66453125 173.80899902 7.8446875 174 7 C175.12680176 6.89453857 176.25360352 6.78907715 177.41455078 6.68041992 C182.6519133 6.18846849 187.88860269 5.68961569 193.125 5.1875 C194.06261169 5.09762817 195.00022339 5.00775635 195.96624756 4.91516113 C207.56111383 3.79749353 219.12372375 2.63084783 230.64111328 0.86401367 C235.13648309 0.18432595 239.43417573 -0.21346711 244 0 C249.29670442 5.29670442 247.22904067 24.7363374 247.25 31.6875 C247.18728077 52.43815769 247.18728077 52.43815769 244 62 C243.06933716 61.93099487 243.06933716 61.93099487 242.11987305 61.8605957 C239.30996485 61.66148492 236.4990558 61.48673209 233.6875 61.3125 C232.71103516 61.23966797 231.73457031 61.16683594 230.72851562 61.09179688 C229.32182617 61.00961914 229.32182617 61.00961914 227.88671875 60.92578125 C227.02264404 60.86817627 226.15856934 60.81057129 225.26831055 60.7512207 C222.94148634 60.81039746 222.94148634 60.81039746 221.25708008 62.31713867 C219.79529455 64.09012166 219.79529455 64.09012166 219 67 C216.41633755 66.85879984 213.83317115 66.71221667 211.25 66.5625 C210.52039063 66.52318359 209.79078125 66.48386719 209.0390625 66.44335938 C201.96781441 66.0255129 201.96781441 66.0255129 199 65 C198.30341637 63.34561387 197.63903117 61.67745682 197 60 C193.97449827 57.159768 191.71216352 56.56956447 187.62109375 56.3046875 C185.93391235 56.19181396 185.93391235 56.19181396 184.21264648 56.07666016 C182.96684814 56.0101123 181.7210498 55.94356445 180.4375 55.875 C179.126604 55.79427246 177.81570801 55.71354492 176.46508789 55.63037109 C167.25077922 55.10097542 158.04039514 54.91075075 148.8125 54.796875 C147.67120132 54.78129547 146.52990265 54.76571594 145.35401917 54.74966431 C139.60024389 54.67336898 133.84776949 54.6206217 128.09350586 54.60498047 C125.94644534 54.583651 123.79939082 54.56170542 121.65234375 54.5390625 C120.17284241 54.54676666 120.17284241 54.54676666 118.66345215 54.55462646 C112.74784111 54.46890609 109.59114105 53.77350348 105 50 C100.74704023 47.87352012 96.68173081 47.47610822 92 47 C92 46.34 92 45.68 92 45 C91.44183594 44.7525 90.88367188 44.505 90.30859375 44.25 C87.58647484 42.77609467 85.43098027 40.9945097 83.0625 39 C78.80371064 35.47765008 74.53173592 31.97918793 70.1875 28.5625 C69.3977478 27.92538086 69.3977478 27.92538086 68.59204102 27.27539062 C62.41699655 22.45603362 56.69803844 21.47855698 49.0390625 21.62109375 C42.95485386 22.37966475 38.20743377 25.3685746 34.125 29.875 C29.10819559 37.25265354 27.81152993 43.71228228 29.45703125 52.41796875 C29.91820555 54.29252617 30.45158094 56.14908568 31 58 C25.83508257 59.61743467 20.87401634 60.53856888 15.5 61.125 C14.77941406 61.21136719 14.05882812 61.29773438 13.31640625 61.38671875 C8.8476011 61.89582313 4.49699458 62.08283937 0 62 C-4.07943787 42.76836431 -6.34383755 19.03151265 0 0 Z " fill="#F2F5F6" transform="translate(220,42)"/>
<path d="M0 0 C89.1 0 178.2 0 270 0 C270 7.59 270 15.18 270 23 C267.74897461 23.0093457 265.49794922 23.01869141 263.17871094 23.02832031 C255.74260449 23.0620825 248.30677579 23.11762699 240.87089157 23.18390274 C236.36231781 23.22341776 231.85394054 23.25558636 227.34521484 23.27099609 C222.99426964 23.28613637 218.64386447 23.32053453 214.29315948 23.36830902 C212.63302554 23.38315008 210.97281451 23.39104258 209.31261444 23.39188385 C206.98744587 23.39424719 204.66377745 23.42127256 202.33886719 23.45410156 C201.6519429 23.4490712 200.96501862 23.44404083 200.25727844 23.43885803 C196.90967514 23.51202405 195.25647314 23.795659 192.6038208 25.90911865 C190.96959129 27.90287892 190.96959129 27.90287892 190 30 C186.72963272 30.14510162 183.46008993 30.23399373 180.1875 30.3125 C179.25873047 30.35439453 178.32996094 30.39628906 177.37304688 30.43945312 C174.82304076 30.48548212 172.50522229 30.48415402 170 30 C167.98828125 27.54296875 167.98828125 27.54296875 167 25 C164.13976486 23.56988243 161.6939943 23.85876932 158.49545288 23.84178162 C157.81995789 23.83684364 157.1444629 23.83190566 156.44849837 23.82681805 C154.17448975 23.811403 151.90050944 23.80307164 149.62646484 23.79467773 C148.00057219 23.78510235 146.37468205 23.77509248 144.74879456 23.76467896 C140.32551634 23.73758695 135.90222741 23.71660069 131.47891188 23.69667697 C126.85975143 23.67484386 122.24062417 23.64744211 117.62149048 23.62062073 C108.8702897 23.57065759 100.11907054 23.52573222 91.36783373 23.48259836 C81.40664906 23.43325689 71.44549768 23.37832733 61.4843452 23.32291877 C40.98959429 23.20904315 20.49481111 23.10241452 0 23 C0 15.41 0 7.82 0 0 Z " fill="#847F8D" transform="translate(15,159)"/>
<path d="M0 0 C0.01458252 0.79696289 0.02916504 1.59392578 0.04418945 2.41503906 C0.11867475 6.02718124 0.21533512 9.63839974 0.3125 13.25 C0.34633789 15.13138672 0.34633789 15.13138672 0.38085938 17.05078125 C0.41630859 18.25605469 0.45175781 19.46132813 0.48828125 20.703125 C0.51446533 21.81333008 0.54064941 22.92353516 0.56762695 24.06738281 C1.0445247 27.3019936 1.66211933 28.7355482 4 31 C8.62400412 31.64380958 8.62400412 31.64380958 12.68676758 29.73706055 C14.29280731 27.61269306 14.41801458 26.41198881 14.51171875 23.76953125 C14.54716797 22.96708984 14.58261719 22.16464844 14.61914062 21.33789062 C14.64169922 20.50451172 14.66425781 19.67113281 14.6875 18.8125 C14.72166016 17.96751953 14.75582031 17.12253906 14.79101562 16.25195312 C14.87341471 14.16843351 14.93838645 12.08423784 15 10 C20.61 10 26.22 10 32 10 C31.01 11.9490625 31.01 11.9490625 30 13.9375 C27.89423844 18.78529641 26.87229597 22.7667485 28 28 C31.28883327 36.24777718 37.03335133 40.8656202 44 46 C45.82115199 47.46850117 47.63353293 48.94793862 49.4375 50.4375 C50.80261719 51.55511719 50.80261719 51.55511719 52.1953125 52.6953125 C54.11041953 54.26900769 56.02171871 55.84734538 57.9296875 57.4296875 C60.60401202 59.64017254 63.29622872 61.82569918 66 64 C66.58652344 64.49113281 67.17304687 64.98226562 67.77734375 65.48828125 C70.34218938 67.46804273 71.95927268 67.99811952 75.21484375 68.1484375 C80.84886347 66.43904452 82.99406831 62.67645798 86.3125 58 C87.53484795 56.33119613 88.75997107 54.66442031 89.98828125 53 C90.78552612 51.88625 90.78552612 51.88625 91.59887695 50.75 C93 49 93 49 95 48 C95 57.24 95 66.48 95 76 C73.55 76 52.1 76 30 76 C29.34 77.65 28.68 79.3 28 81 C26 83 26 83 22.125 83.375 C18.94243212 83.30568818 18.19075844 83.14673726 15.5625 81.125 C14 79 14 79 13 77 C12.36772995 76.99413376 11.7354599 76.98826752 11.08403015 76.98222351 C4.51413708 76.91838013 -2.055262 76.83398419 -8.62475586 76.73754883 C-11.07781469 76.70425674 -13.53095091 76.6762383 -15.98413086 76.65356445 C-19.50668378 76.62009771 -23.02852465 76.56778485 -26.55078125 76.51171875 C-27.65086014 76.50532883 -28.75093903 76.4989389 -29.88435364 76.49235535 C-30.90518539 76.47256119 -31.92601715 76.45276703 -32.9777832 76.43237305 C-34.32680473 76.41571846 -34.32680473 76.41571846 -35.70307922 76.39872742 C-38 76 -38 76 -39.79260254 74.87866211 C-41.5911614 72.08017654 -41.35918698 69.81555321 -41.34057617 66.5090332 C-41.34101425 65.8551059 -41.34145233 65.20117859 -41.34190369 64.5274353 C-41.33981539 62.36824577 -41.31648388 60.20983495 -41.29296875 58.05078125 C-41.28737291 56.55291671 -41.28310275 55.05504668 -41.28010559 53.55717468 C-41.2686558 49.61641254 -41.23918778 45.67598255 -41.20599365 41.73535156 C-41.17529548 37.71358738 -41.16160082 33.69176947 -41.14648438 29.66992188 C-41.11431793 21.77979556 -41.06312028 13.88993911 -41 6 C-27.35813777 0.06206174 -14.67543316 -0.39862847 0 0 Z " fill="#847F8D" transform="translate(48,429)"/>
<path d="M0 0 C6.27 0 12.54 0 19 0 C21.93722893 44.84169493 21.93722893 44.84169493 23.0625 67.25 C23.58649422 77.67858612 24.18153446 88.08937234 25 98.5 C25.79787127 108.70039198 26.43644718 118.90463468 26.98925781 129.12084961 C27.07786916 130.75553767 27.16797085 132.39014582 27.25976562 134.0246582 C27.72861621 142.4246063 28.08269764 150.81251046 28.12109375 159.2265625 C28.12670319 159.90997711 28.13231262 160.59339172 28.13809204 161.29751587 C28.10829476 177.74230671 20.51529603 190.05403699 10.82641602 202.63598633 C6.85384528 207.79989975 3.14092548 213.09800431 -0.5 218.5 C-4.52181897 224.45324823 -8.64349608 230.28698851 -13 236 C-18.63632798 243.39269081 -23.88395315 251.02268879 -29.08984375 258.72265625 C-31.66994599 262.52666408 -34.25986609 266.30890728 -37 270 C-37.33 270 -37.66 270 -38 270 C-38.33699997 265.62527437 -38.66895367 261.25017987 -39 256.875 C-39.09539062 255.6375 -39.19078125 254.4 -39.2890625 253.125 C-39.37929688 251.92617188 -39.46953125 250.72734375 -39.5625 249.4921875 C-39.64628906 248.39245605 -39.73007812 247.29272461 -39.81640625 246.15966797 C-40.36250889 236.76118344 -40.36250889 236.76118344 -37.578125 232.8203125 C-37.05347656 232.06492187 -36.52882813 231.30953125 -35.98828125 230.53125 C-35.12783203 229.34015625 -35.12783203 229.34015625 -34.25 228.125 C-33.66089844 227.28710938 -33.07179688 226.44921875 -32.46484375 225.5859375 C-28.26950381 219.65676327 -23.91650381 213.85021165 -19.53125 208.06103516 C1.99213445 179.5354707 9.75888377 159.73870724 6.78442383 124.03735352 C6.08673263 115.57823262 5.6323145 107.13046797 5.34204102 98.64794922 C5.29454712 97.33528076 5.29454712 97.33528076 5.24609375 95.99609375 C5.22216553 95.24513428 5.1982373 94.4941748 5.17358398 93.72045898 C5.02351769 91.36857611 4.78675602 89.05850549 4.51367188 86.71875 C4.00980725 82.31555217 3.73223478 77.93015511 3.53515625 73.50390625 C3.45761425 71.88948113 3.37997374 70.27506073 3.30224609 68.66064453 C3.26315125 67.82809143 3.2240564 66.99553833 3.18377686 66.13775635 C2.59405624 53.61531956 1.92867777 41.11806489 0.875 28.625 C0.0693517 19.03484603 -0.17497256 9.62349084 0 0 Z " fill="#CCDEE8" transform="translate(355,197)"/>
<path d="M0 0 C0.66 0 1.32 0 2 0 C13.98385422 37.59882786 25.98065729 86.05802812 13 125 C-6.14 125 -25.28 125 -45 125 C-43.53922199 120.61766596 -41.97059223 116.64028646 -40.125 112.4375 C-34.94048811 99.55260351 -32.80706927 87.02765977 -33.0390625 73.14453125 C-33.05805099 71.82573723 -33.05805099 71.82573723 -33.0774231 70.4803009 C-33.15211088 66.02334917 -33.28429457 61.57765658 -33.49853516 57.12524414 C-33.83175456 47.80124372 -33.64636178 41.66760412 -27.19677734 34.31738281 C-26.47184082 33.55264648 -25.7469043 32.78791016 -25 32 C-23.83138273 30.50607784 -22.67810617 28.99998604 -21.54296875 27.48046875 C-20.42656625 26.04785031 -19.30805543 24.61687247 -18.1875 23.1875 C-17.59291992 22.42775879 -16.99833984 21.66801758 -16.38574219 20.88525391 C-15.17676589 19.34059445 -13.96730065 17.79631755 -12.75732422 16.25244141 C-11.0677975 14.0868991 -9.39295166 11.91086352 -7.72265625 9.73046875 C-7.21903564 9.07731689 -6.71541504 8.42416504 -6.1965332 7.7512207 C-5.25154 6.52552066 -4.3110606 5.29632363 -3.37573242 4.06323242 C-2.29689216 2.67157632 -1.15437533 1.32966936 0 0 Z " fill="#847F8D" transform="translate(285,380)"/>
<path d="M0 0 C2.9296875 1.6953125 2.9296875 1.6953125 5.875 4.125 C6.41745361 4.56005859 6.95990723 4.99511719 7.51879883 5.44335938 C10.83551316 8.1231196 14.05385584 10.91137438 17.26953125 13.7109375 C18.00252441 14.3385498 18.73551758 14.96616211 19.49072266 15.61279297 C20.92108943 16.84159216 22.33710884 18.08735788 23.73583984 19.35205078 C28.22097009 23.20803044 31.80328163 24.83906449 37.68359375 25.62011719 C43.08527438 26.50597459 46.99357809 28.99357809 50.8125 32.8125 C53.85613107 37.24750528 55.68855673 41.70685955 57.0625 46.875 C57.371875 47.90625 57.68125 48.9375 58 50 C60.77100394 51.38550197 62.9334706 51.1877467 66 51 C66.99 50.34 67.98 49.68 69 49 C69.40343132 46.76898284 69.40343132 46.76898284 69.25 44.25 C69.22679687 42.98929688 69.22679687 42.98929688 69.203125 41.703125 C68.98367321 38.7827281 68.4814639 35.88878343 68 33 C80.54 33 93.08 33 106 33 C106 44.75042863 104.13915747 54.12351262 100 65 C98.27072948 66.72927052 95.9262498 66.20804362 93.56567383 66.2722168 C92.40389114 66.30441818 91.24210846 66.33661957 90.04512024 66.36979675 C85.41390029 66.4656311 80.7827008 66.54666888 76.15080738 66.60025311 C72.63422944 66.64120302 69.12044151 66.70146921 65.60522461 66.80932617 C61.55546481 66.93316854 57.50852951 66.9749762 53.45703125 67.01171875 C52.20058304 67.06019455 50.94413483 67.10867035 49.64961243 67.15861511 C46.15638725 67.1512807 43.33282283 67.05367955 40 66 C37.12719701 62.99162607 35.62754821 59.78825755 34 56 C30.34273465 50.87982851 25.86619156 47.34081792 20.9609375 43.421875 C18.04504101 41.03684093 15.26827866 38.55411384 12.5 36 C6.49299311 30.47355366 0.17652977 25.36671789 -6.17578125 20.24609375 C-10.33878293 16.80709236 -12.68487448 14.46848325 -13.375 9.0625 C-12.90977662 5.2631757 -11.63608379 3.71361566 -9 1 C-5.88679251 -0.55660375 -3.44038601 -0.2944798 0 0 Z " fill="#FBCFA3" transform="translate(276,78)"/>
<path d="M0 0 C6.6 0 13.2 0 20 0 C20.99 1.98 21.98 3.96 23 6 C26.05508869 7.52754434 29.2760612 7.24000607 32.6328125 7.31640625 C33.29917725 7.33505737 33.96554199 7.3537085 34.65209961 7.3729248 C37.14293067 7.44125784 39.63398141 7.50138403 42.125 7.5625 C50.478125 7.7790625 50.478125 7.7790625 59 8 C59 23.51 59 39.02 59 55 C55.04 55 51.08 55 47 55 C46.92652344 52.16341797 46.92652344 52.16341797 46.8515625 49.26953125 C46.77652275 46.7838396 46.70097544 44.29816323 46.625 41.8125 C46.57859375 39.94368164 46.57859375 39.94368164 46.53125 38.03710938 C46.49257812 36.83505859 46.45390625 35.63300781 46.4140625 34.39453125 C46.3826416 33.28956299 46.3512207 32.18459473 46.31884766 31.04614258 C45.98955735 27.90023506 45.58470734 25.74091222 44 23 C39.9954923 20.90748074 36.5317958 20.74169104 32.0587616 20.7215271 C31.02942354 20.7128385 31.02942354 20.7128385 29.97929078 20.70397437 C27.68691078 20.68701052 25.39473255 20.68410103 23.10229492 20.68115234 C21.45625314 20.67185166 19.81021606 20.66168278 18.16418457 20.65071106 C13.69975699 20.62341278 9.23536097 20.60826214 4.77087188 20.59528303 C0.10366558 20.57965177 -4.5634763 20.55286152 -9.2306366 20.5272522 C-18.06672969 20.48046436 -26.90283491 20.44372025 -35.73898858 20.41057932 C-45.79941242 20.372358 -55.85977156 20.32294785 -65.92014086 20.27259517 C-86.61338542 20.1692752 -107.30665718 20.08149203 -128 20 C-128 31.22 -128 42.44 -128 54 C-128.33 54 -128.66 54 -129 54 C-129 38.82 -129 23.64 -129 8 C-123.39692871 7.98598145 -123.39692871 7.98598145 -117.68066406 7.97167969 C-105.355162 7.93795077 -93.02983685 7.88262662 -80.70447159 7.81609726 C-73.22973518 7.77628004 -65.75510447 7.74390127 -58.28027344 7.72900391 C-51.7655414 7.71600118 -45.25104165 7.68907219 -38.73644042 7.64538693 C-35.28662987 7.62274061 -31.83710614 7.60709118 -28.38721466 7.60811615 C-24.53687442 7.60899925 -20.68712136 7.57879209 -16.83691406 7.54589844 C-15.69180359 7.5509288 -14.54669312 7.55595917 -13.36688232 7.56114197 C-12.31802856 7.54722916 -11.2691748 7.53331635 -10.1885376 7.51898193 C-9.27780613 7.51529476 -8.36707466 7.51160759 -7.42874527 7.50780869 C-4.21957988 6.83682763 -3.03311576 5.52068375 -1 3 C-0.67 2.01 -0.34 1.02 0 0 Z " fill="#646376" transform="translate(185,189)"/>
<path d="M0 0 C5.61 0 11.22 0 17 0 C16.34 1.299375 15.68 2.59875 15 3.9375 C12.89423844 8.78529641 11.87229597 12.7667485 13 18 C16.28883327 26.24777718 22.03335133 30.8656202 29 36 C30.82115199 37.46850117 32.63353293 38.94793862 34.4375 40.4375 C35.80261719 41.55511719 35.80261719 41.55511719 37.1953125 42.6953125 C39.11041953 44.26900769 41.02171871 45.84734538 42.9296875 47.4296875 C45.60401202 49.64017254 48.29622872 51.82569918 51 54 C51.58652344 54.49113281 52.17304687 54.98226562 52.77734375 55.48828125 C55.34218938 57.46804273 56.95927268 57.99811952 60.21484375 58.1484375 C65.84886347 56.43904452 67.99406831 52.67645798 71.3125 48 C72.53484795 46.33119613 73.75997107 44.66442031 74.98828125 43 C75.78552612 41.88625 75.78552612 41.88625 76.59887695 40.75 C78 39 78 39 80 38 C80 47.24 80 56.48 80 66 C58.22 66 36.44 66 14 66 C12.68 62.7 11.36 59.4 10 56 C9.16422462 53.99224498 8.31404022 51.99029594 7.4375 50 C7.04433594 49.0925 6.65117188 48.185 6.24609375 47.25 C5.06553658 44.71209253 5.06553658 44.71209253 2 43 C0.34450469 42.61500109 -1.3222433 42.27206865 -3 42 C-4.90420731 35.19925959 -6.40850553 29.08076251 -6 22 C-5.360625 21.71125 -4.72125 21.4225 -4.0625 21.125 C-1.84793921 20.17176549 -1.84793921 20.17176549 -1 18 C-0.84995027 16.6265365 -0.75161994 15.2471474 -0.68359375 13.8671875 C-0.64169922 13.06152344 -0.59980469 12.25585938 -0.55664062 11.42578125 C-0.51732422 10.58402344 -0.47800781 9.74226563 -0.4375 8.875 C-0.37272461 7.60076172 -0.37272461 7.60076172 -0.30664062 6.30078125 C-0.20045764 4.20071777 -0.09971503 2.10038052 0 0 Z " fill="#E3EAF1" transform="translate(63,439)"/>
<path d="M0 0 C5.61 0 11.22 0 17 0 C17.62991873 25.17341876 13.20805961 43.03186588 3 66 C-18.78 66 -40.56 66 -63 66 C-63 56.76 -63 47.52 -63 38 C-57.3862111 43.6137889 -57.3862111 43.6137889 -55.4296875 46.26171875 C-55.00816406 46.82310547 -54.58664063 47.38449219 -54.15234375 47.96289062 C-53.29240873 49.12393439 -52.43304434 50.28540098 -51.57421875 51.44726562 C-49.51429909 54.18854332 -47.88365686 56.07756209 -45 58 C-39.19878424 57.8767156 -36.04485448 55.96157575 -31.9375 52.125 C-30.80426367 51.11473644 -29.66877073 50.10699954 -28.53125 49.1015625 C-27.95117188 48.5849707 -27.37109375 48.06837891 -26.7734375 47.53613281 C-23.92314663 45.067241 -20.92914136 42.79355028 -17.9375 40.5 C-13.24304437 36.8518871 -8.67561418 33.09609895 -4.25 29.125 C-3.28578125 28.26132812 -2.3215625 27.39765625 -1.328125 26.5078125 C2.73338062 22.13283497 3.29177335 18.42814305 3.3125 12.5625 C3.33763672 10.92474609 3.33763672 10.92474609 3.36328125 9.25390625 C3.1199869 5.37694681 3.1199869 5.37694681 0 0 Z " fill="#E2E9F0" transform="translate(221,439)"/>
<path d="M0 0 C28.05 0 56.1 0 85 0 C85 7.59 85 15.18 85 23 C56.95 23 28.9 23 0 23 C0 15.41 0 7.82 0 0 Z " fill="#F5F8F9" transform="translate(300,159)"/>
<path d="M0 0 C0.54720703 0.38889404 1.09441406 0.77778809 1.65820312 1.1784668 C13.64576565 9.61410383 25.63927343 15.37621089 40.4375 15.25 C41.34048828 15.25773437 42.24347656 15.26546875 43.17382812 15.2734375 C57.14185566 15.23297978 68.954831 10.05927959 79.91796875 1.57421875 C82 0 82 0 83 0 C83.23389694 3.20708688 83.37487528 6.41197595 83.5 9.625 C83.60054687 10.98044922 83.60054687 10.98044922 83.703125 12.36328125 C83.89591573 18.96636389 83.89591573 18.96636389 81.359375 21.89282227 C79.30941968 23.45894767 77.25951696 24.75864732 75 26 C73.6696875 26.77923828 73.6696875 26.77923828 72.3125 27.57421875 C56.9463832 34.97175809 39.75085119 38.23936691 22.9375 33.375 C16.9821278 31.20871423 11.3045263 28.47368825 6 25 C4.91332031 24.32453125 3.82664062 23.6490625 2.70703125 22.953125 C0.69653185 21.23596445 0.07087552 20.339307 -0.4753418 17.72436523 C-0.59088076 15.02105963 -0.52391315 12.38893723 -0.375 9.6875 C-0.34792969 8.75615234 -0.32085937 7.82480469 -0.29296875 6.86523438 C-0.2224825 4.57443128 -0.12404246 2.28842437 0 0 Z " fill="#FAB984" transform="translate(109,408)"/>
<path d="M0 0 C89.1 0 178.2 0 270 0 C270 7.59 270 15.18 270 23 C245.91 23 221.82 23 197 23 C197 22.67 197 22.34 197 22 C212.84 22 228.68 22 245 22 C245 15.07 245 8.14 245 1 C164.15 1 83.3 1 0 1 C0 0.67 0 0.34 0 0 Z " fill="#6E6B77" transform="translate(15,159)"/>
<path d="M0 0 C4.61452434 0.13983407 7.75690356 2.62072314 11.42578125 5.13671875 C13 7 13 7 13.50390625 9.93359375 C12.85904283 13.85776261 11.65968302 14.86321621 8.625 17.375 C7.71105469 18.14328125 6.79710937 18.9115625 5.85546875 19.703125 C4.91316406 20.46109375 3.97085938 21.2190625 3 22 C2.15050781 22.69609375 1.30101562 23.3921875 0.42578125 24.109375 C-2.03020818 26.0988421 -4.50832196 28.05546769 -7 30 C-8.30130859 31.01707031 -8.30130859 31.01707031 -9.62890625 32.0546875 C-11.74941992 33.7072944 -13.87290951 35.35587209 -16 37 C-19.42842515 35.56632905 -21.19077113 33.86115731 -23.453125 30.9375 C-24.071875 30.14085937 -24.690625 29.34421875 -25.328125 28.5234375 C-26.27945313 27.27433594 -26.27945313 27.27433594 -27.25 26 C-27.8996875 25.16726563 -28.549375 24.33453125 -29.21875 23.4765625 C-34 17.26897321 -34 17.26897321 -34 15 C-33.34515625 14.84144531 -32.6903125 14.68289063 -32.015625 14.51953125 C-21.41503117 11.80949243 -7.97585185 7.97585185 0 0 Z " fill="#F0F3F4" transform="translate(197,442)"/>
<path d="M0 0 C0.75023438 0.44730469 1.50046875 0.89460938 2.2734375 1.35546875 C5.50162148 3.26229279 8.74567092 5.13816691 12 7 C13.23556641 7.7115625 13.23556641 7.7115625 14.49609375 8.4375 C21.63453413 12.28960948 29.16178479 14.1292793 37 16 C34.07350403 21.46231893 30.67533851 26.15290677 26.75 30.9375 C26.19570312 31.62134766 25.64140625 32.30519531 25.0703125 33.00976562 C23.71801805 34.67681826 22.35963875 36.3389319 21 38 C16.49669216 36.54597994 13.3652715 34.02080101 9.875 30.9375 C8.72990422 29.94576233 7.5840575 28.95489115 6.4375 27.96484375 C5.86515625 27.46839355 5.2928125 26.97194336 4.703125 26.46044922 C1.27797096 23.52334035 -2.24697706 20.70867133 -5.7578125 17.875 C-6.49773437 17.25625 -7.23765625 16.6375 -8 16 C-8.61617188 15.525625 -9.23234375 15.05125 -9.8671875 14.5625 C-11 13 -11 13 -11.00390625 10.58203125 C-9.67551706 7.16543493 -7.85605358 5.86717926 -4.9375 3.6875 C-4.01839844 2.99011719 -3.09929687 2.29273438 -2.15234375 1.57421875 C-1.44207031 1.05472656 -0.73179688 0.53523438 0 0 Z " fill="#F0F3F4" transform="translate(101,441)"/>
<path d="M0 0 C28.05 0 56.1 0 85 0 C85 7.59 85 15.18 85 23 C56.95 23 28.9 23 0 23 C0 22.67 0 22.34 0 22 C17.82 22 35.64 22 54 22 C54 15.07 54 8.14 54 1 C36.18 1 18.36 1 0 1 C0 0.67 0 0.34 0 0 Z " fill="#DBE1E7" transform="translate(300,159)"/>
<path d="M0 0 C3.19072548 0.41170651 5.72240343 1.02214272 8.75 2 C16.47036577 4.45276371 22.14886152 3.94503342 29.66796875 1.1796875 C33.76458734 -0.08192601 37.93569147 -0.46965426 41.875 1.5 C43.51488934 4.77977867 43.61625796 7.9790247 42.875 11.5 C37.57406726 17.62920348 28.57714945 19.12749206 20.8671875 19.73828125 C11.57162557 19.95960415 3.75225761 18.36897506 -4.3125 13.625 C-6.69629215 10.8302092 -7.19993778 9.17195146 -7.125 5.5 C-5.19712715 1.80491037 -4.15424696 0.66467951 0 0 Z " fill="#050403" transform="translate(132.125,360.5)"/>
<path d="M0 0 C4.6096875 0.12375 4.6096875 0.12375 9.3125 0.25 C9.3125 12.46 9.3125 24.67 9.3125 37.25 C1.86182386 36.00822064 -1.64960944 33.20350471 -6.9375 28.0625 C-11.31964675 21.01976414 -14.34066852 12.60520307 -12.6875 4.25 C-10.3920683 -1.40104161 -5.21150028 -0.19674251 0 0 Z " fill="#FCBA85" transform="translate(45.6875,294.75)"/>
<path d="M0 0 C3.073125 -0.0825 6.14625 -0.165 9.3125 -0.25 C10.27712158 -0.28641602 11.24174316 -0.32283203 12.2355957 -0.36035156 C18.46936362 -0.4418645 18.46936362 -0.4418645 21.078125 1.73046875 C23.85650771 8.57047025 21.9807164 15.77513859 19.33203125 22.3828125 C16.15607078 28.62296944 11.73308179 33.65805851 5 36 C3.35 36 1.7 36 0 36 C0 24.12 0 12.24 0 0 Z " fill="#FCBA85" transform="translate(246,295)"/>
<path d="M0 0 C1.11387085 0.00314209 1.11387085 0.00314209 2.25024414 0.00634766 C9.4911743 0.2129385 15.49157632 2.30407632 20.6875 7.5 C21.02720283 10.50879646 21.24274039 12.59786724 20.6875 15.5 C18.5625 18.0625 18.5625 18.0625 15.6875 19.5 C12.62778068 19.3751135 10.51359142 18.96282077 7.83984375 17.46484375 C3.70387967 15.61079089 -0.87713823 16.05517447 -5.3125 16.5 C-8.61351131 17.89924945 -8.61351131 17.89924945 -11.3125 19.5 C-13.875 20 -13.875 20 -16.3125 19.5 C-19.57201956 17.03725189 -21.08040766 15.51276656 -22 11.5 C-21.22706926 8.12721132 -20.00715012 6.80391107 -17.30859375 4.67578125 C-11.45870899 1.22995872 -6.72254767 -0.05626836 0 0 Z " fill="#060504" transform="translate(184.3125,291.5)"/>
<path d="M0 0 C1.11387085 0.00314209 1.11387085 0.00314209 2.25024414 0.00634766 C9.4911743 0.2129385 15.49157632 2.30407632 20.6875 7.5 C21.02720283 10.50879646 21.24274039 12.59786724 20.6875 15.5 C18.5625 18.0625 18.5625 18.0625 15.6875 19.5 C12.62778068 19.3751135 10.51359142 18.96282077 7.83984375 17.46484375 C3.70387967 15.61079089 -0.87713823 16.05517447 -5.3125 16.5 C-8.61351131 17.89924945 -8.61351131 17.89924945 -11.3125 19.5 C-13.875 20 -13.875 20 -16.3125 19.5 C-19.57201956 17.03725189 -21.08040766 15.51276656 -22 11.5 C-21.22706926 8.12721132 -20.00715012 6.80391107 -17.30859375 4.67578125 C-11.45870899 1.22995872 -6.72254767 -0.05626836 0 0 Z " fill="#060504" transform="translate(116.3125,291.5)"/>
<path d="M0 0 C4.95 0 9.9 0 15 0 C16.18126804 3.54380413 16.12955082 6.37790871 16.1328125 10.1171875 C16.13424759 11.15844284 16.13424759 11.15844284 16.13571167 12.22073364 C16.13639158 13.68833507 16.13455045 15.15593952 16.13037109 16.62353516 C16.12503633 18.85977009 16.13031404 21.09580269 16.13671875 23.33203125 C16.13605762 24.76041711 16.13477573 26.18880284 16.1328125 27.6171875 C16.13168457 28.91253418 16.13055664 30.20788086 16.12939453 31.54248047 C16 35 16 35 15 40 C10.05 40 5.1 40 0 40 C0 26.8 0 13.6 0 0 Z " fill="#E2E8EF" transform="translate(481,53)"/>
<path d="M0 0 C4.95 0 9.9 0 15 0 C15 13.2 15 26.4 15 40 C10.05 40 5.1 40 0 40 C-0.81270875 35.93645625 -1.1286311 32.71923432 -1.1328125 28.6328125 C-1.13410156 27.41722656 -1.13539063 26.20164062 -1.13671875 24.94921875 C-1.13285156 23.68722656 -1.12898437 22.42523438 -1.125 21.125 C-1.12886719 19.87074219 -1.13273438 18.61648437 -1.13671875 17.32421875 C-1.13542969 16.10605469 -1.13414062 14.88789062 -1.1328125 13.6328125 C-1.13168457 12.52824707 -1.13055664 11.42368164 -1.12939453 10.28564453 C-0.99366589 6.83916138 -0.48778414 3.41448898 0 0 Z " fill="#E2E9F0" transform="translate(188,53)"/>
<path d="M0 0 C3 0.625 3 0.625 5.15209961 2.69335938 C7.39336974 6.24906974 7.59612906 9.07918623 7.56640625 13.15625 C7.57570412 14.22655457 7.57570412 14.22655457 7.58518982 15.31848145 C7.59226704 16.82119386 7.58915055 18.32398503 7.57641602 19.82666016 C7.56253641 22.11898644 7.59665607 24.4072361 7.63476562 26.69921875 C7.63571685 28.16406349 7.63385782 29.62891332 7.62890625 31.09375 C7.64216446 31.77409302 7.65542267 32.45443604 7.66908264 33.15539551 C7.59453959 36.98671076 7.06631284 38.54328788 4.62084961 41.55664062 C2 43.625 2 43.625 -0.5625 44.25 C-4.11965453 43.33790909 -5.03726734 41.68425413 -7 38.625 C-7.39065148 35.97004407 -7.56275085 33.7406047 -7.53125 31.09375 C-7.5350769 30.38021362 -7.53890381 29.66667725 -7.54284668 28.93151855 C-7.54555847 27.42877789 -7.53824854 25.92598944 -7.52148438 24.42333984 C-7.50005992 22.13141013 -7.52130639 19.84261421 -7.546875 17.55078125 C-7.54423159 16.08593063 -7.53910632 14.62108194 -7.53125 13.15625 C-7.53934692 12.47590698 -7.54744385 11.79556396 -7.55578613 11.09460449 C-7.48737668 7.59960277 -7.03221367 5.6761669 -5.15429688 2.69335938 C-3 0.625 -3 0.625 0 0 Z " fill="#EEAF7E" transform="translate(344,14.375)"/>
<path d="M0 0 C4.66708542 0.43180558 8.90829446 0.73780579 13.5625 -0.0625 C17.3125 -0.375 17.3125 -0.375 19.875 1.125 C21.82533694 4.51689033 21.80252137 6.77483212 21.3125 10.625 C19.20019244 14.1040948 15.15284276 15.68086258 11.3125 16.625 C3.01078849 17.45319925 -3.66843513 17.34937058 -10.6875 12.625 C-12.6875 9.625 -12.6875 9.625 -12.5625 6.125 C-11.6875 2.625 -11.6875 2.625 -10.11328125 0.8828125 C-6.69572245 -0.88925503 -3.69958511 -0.41025357 0 0 Z " fill="#060504" transform="translate(145.6875,328.375)"/>
<path d="M0 0 C2.28564517 1.97026903 3.5801981 3.83425302 4.7890625 6.58203125 C5.09070313 7.26716797 5.39234375 7.95230469 5.703125 8.65820312 C6.00734375 9.36912109 6.3115625 10.08003906 6.625 10.8125 C6.93695313 11.51181641 7.24890625 12.21113281 7.5703125 12.93164062 C9.30226674 16.92185417 10.67239491 20.61266119 11 25 C9.5625 27.875 9.5625 27.875 7 30 C4.20956195 30.65623799 1.76454524 30.78292785 -1 30 C-5.25872344 26.7997554 -6.86669617 22.41340519 -8.8125 17.625 C-9.13669922 16.8825 -9.46089844 16.14 -9.79492188 15.375 C-11.65639043 10.86283211 -12.44190497 7.8553943 -11 3 C-8.72853534 -1.00846705 -4.13885114 -0.85113471 0 0 Z " fill="#030303" transform="translate(67,482)"/>
<path d="M0 0 C4.5478125 0.2165625 4.5478125 0.2165625 9.1875 0.4375 C10.13391357 0.48060303 11.08032715 0.52370605 12.05541992 0.56811523 C16.12378036 0.77237534 20.02740865 1.02124561 24 2 C23.21955485 9.80445154 21.00764573 14.85058937 15 20 C9.92942449 23.04234531 6.56886682 22 0 22 C0 14.74 0 7.48 0 0 Z " fill="#C69787" transform="translate(56,258)"/>
<path d="M0 0 C4.3003125 0.0309375 4.3003125 0.0309375 8.6875 0.0625 C8.6875 6.6625 8.6875 13.2625 8.6875 20.0625 C-2.2260004 20.54754446 -2.2260004 20.54754446 -6.8125 18.5 C-12.30465182 13.14515198 -13.79144737 8.48749998 -14.3125 1.0625 C-9.54175383 -0.17148119 -4.8865582 -0.04975053 0 0 Z " fill="#CE9D8D" transform="translate(235.3125,258.9375)"/>
<path d="M0 0 C2.15625 1.375 2.15625 1.375 4 4 C4.62698702 7.48586354 4.60344821 10.90391012 4.5625 14.4375 C4.58634766 15.37916016 4.61019531 16.32082031 4.63476562 17.29101562 C4.62478217 22.00653565 4.54590403 24.27962252 1.62890625 28.12890625 C-1 30 -1 30 -3.625 30.5 C-6.4785255 29.89925779 -7.24728716 29.30296146 -9 27 C-9.38818359 24.50390625 -9.38818359 24.50390625 -9.3984375 21.5625 C-9.40230469 20.50289062 -9.40617187 19.44328125 -9.41015625 18.3515625 C-9.39855469 17.24554688 -9.38695312 16.13953125 -9.375 15 C-9.38660156 13.89398438 -9.39820313 12.78796875 -9.41015625 11.6484375 C-9.40628906 10.58882812 -9.40242188 9.52921875 -9.3984375 8.4375 C-9.39505371 7.46683594 -9.39166992 6.49617188 -9.38818359 5.49609375 C-9 3 -9 3 -7.65869141 1.1875 C-5.03483628 -0.69098562 -3.12941868 -0.44705981 0 0 Z " fill="#F4CA9F" transform="translate(375,28)"/>
<path d="M0 0 C3.375 0.875 3.375 0.875 5.375 2.875 C5.85781258 6.83446891 5.74538975 10.82694311 5.75 14.8125 C5.77449219 15.92302734 5.79898437 17.03355469 5.82421875 18.17773438 C5.82808594 19.24185547 5.83195312 20.30597656 5.8359375 21.40234375 C5.84415527 22.37937256 5.85237305 23.35640137 5.86083984 24.36303711 C5.375 26.875 5.375 26.875 3.50244141 28.68579102 C0.79801804 30.19752457 -0.57581916 30.48483617 -3.625 29.875 C-6.12224536 27.67613873 -7.45792354 25.88021512 -8.00976562 22.56005859 C-8.16369419 19.80011951 -8.17039952 17.07619583 -8.125 14.3125 C-8.14046875 13.36697266 -8.1559375 12.42144531 -8.171875 11.44726562 C-8.13329963 4.62424686 -8.13329963 4.62424686 -5.8203125 1.21484375 C-3.625 -0.125 -3.625 -0.125 0 0 Z " fill="#F5CA9F" transform="translate(316.625,28.125)"/>
</svg>
