<?xml version="1.0" encoding="UTF-8"?>
<svg version="1.1" xmlns="http://www.w3.org/2000/svg" width="512" height="512">
<path d="M0 0 C4.74590448 3.9549204 8.95121452 8.17463554 9.875 14.5 C9.936875 15.985 9.936875 15.985 10 17.5 C10.69222656 16.86384766 10.69222656 16.86384766 11.3984375 16.21484375 C25.11864842 3.87749994 37.32688784 -2.70310478 55.94433594 -1.72216797 C61.91424095 -1.07696446 66.960129 1.88023906 70.9375 6.3125 C74.59115327 12.09097291 75.02043259 19.8660191 76 26.5 C76.60585938 26.04109375 77.21171875 25.5821875 77.8359375 25.109375 C86.37363276 18.85715508 95.12501538 14.06638817 106 14.5 C112.744104 15.73115307 118.1656839 18.53922493 122.21875 24.203125 C126.96974503 32.00833112 126.38253842 39.72653292 125 48.5 C119.2786444 71.052851 103.78403852 91.83200673 87.98828125 108.37109375 C87.33214844 109.07363281 86.67601562 109.77617188 86 110.5 C85.40316406 111.05558594 84.80632812 111.61117187 84.19140625 112.18359375 C82.1947112 116.06569264 83.13820014 119.88731708 83.625 124.125 C83.83697111 126.25224482 84.0449624 128.37988819 84.25 130.5078125 C84.36988281 131.73274414 84.48976563 132.95767578 84.61328125 134.21972656 C85.35547892 142.16798028 85.8668027 150.13681525 86.42254639 158.09979248 C86.62452868 160.99324821 86.82876197 163.88653678 87.03369141 166.77978516 C87.35744615 171.35307518 87.67928911 175.92649555 88 180.5 C88.81549316 180.82830811 89.63098633 181.15661621 90.47119141 181.49487305 C91.54546387 181.93355713 92.61973633 182.37224121 93.7265625 182.82421875 C95.32105225 183.47136841 95.32105225 183.47136841 96.94775391 184.1315918 C107.04289829 188.65753039 112.91973477 196.35694058 117.23828125 206.32421875 C120.53719787 215.74727802 119.96029211 226.39432836 116 235.5 C111.13632691 244.83762879 103.73589424 251.81015034 94.04296875 255.90625 C92 256.5 92 256.5 88 256.5 C88.03480469 257.81097656 88.03480469 257.81097656 88.0703125 259.1484375 C88.47063305 286.42742334 82.77547348 310.64184263 63.68017578 330.98046875 C58.60529108 336.14455724 52.96252878 340.40869036 47 344.5 C47.90621094 345.17804688 48.81242187 345.85609375 49.74609375 346.5546875 C70.75612507 362.50150357 83.96654553 383.26261095 88 409.5 C88.61258541 415.57066699 88.56674035 421.65522169 88.53125 427.75 C88.53395615 429.4266787 88.53784778 431.10335586 88.54284668 432.7800293 C88.54867615 436.25568922 88.54038574 439.73093227 88.52148438 443.20654297 C88.49855458 447.63557595 88.51194723 452.06364637 88.53577423 456.49264526 C88.55028981 459.9398717 88.54560243 463.3868729 88.53526306 466.83410645 C88.53261905 468.46700153 88.53578241 470.09991791 88.54518127 471.73278809 C88.59427218 482.63930486 87.88695041 491.80784162 81 500.75 C70.72732312 510.99352326 60.28996811 511.26523364 46.4691925 511.27984619 C43.97677221 511.2633996 41.48435584 511.24635079 38.99194336 511.22875977 C36.34478768 511.23198154 33.69773246 511.23756272 31.05059814 511.24601746 C24.63012591 511.2610712 18.21012059 511.24431432 11.78970646 511.21646655 C4.31021182 511.18519828 -3.16918394 511.18552804 -10.64873164 511.18698429 C-23.98914523 511.18848294 -37.32934224 511.16108071 -50.66967773 511.11743164 C-63.61437928 511.07509911 -76.55889042 511.05392282 -89.50366211 511.0559082 C-90.70164149 511.05608801 -90.70164149 511.05608801 -91.92382247 511.05627144 C-93.11973934 511.05645304 -93.11973934 511.05645304 -94.33981615 511.0566383 C-109.08885753 511.05870627 -123.83781814 511.04105671 -138.58683335 511.01417865 C-143.80185475 511.00512619 -149.01686133 511.00193967 -154.23188972 511.00058174 C-161.24075313 510.99832488 -168.24941176 510.97932793 -175.25820923 510.94908333 C-177.8354259 510.94029557 -180.4126657 510.93663479 -182.98989677 510.93836594 C-186.49604912 510.93983032 -190.00163237 510.92294888 -193.50770569 510.90113831 C-194.53744682 510.90578411 -195.56718795 510.91042992 -196.62813336 510.91521651 C-197.56373953 510.90554317 -198.49934569 510.89586983 -199.46330357 510.88590336 C-200.27281768 510.88379008 -201.0823318 510.88167681 -201.91637665 510.8794995 C-204.50958152 510.40718767 -205.38029217 509.53662194 -207 507.5 C-208.45981076 503.86895394 -207.99262704 500.1473079 -207.82446289 496.29736328 C-207.76606776 494.78982386 -207.70902901 493.28223147 -207.65313721 491.77459717 C-207.6073843 490.56931492 -207.6073843 490.56931492 -207.56070709 489.33968353 C-205.75578674 437.69606579 -212.35813136 394.15960346 -230.35864258 345.75537109 C-237.47334988 326.45700912 -237.47334988 326.45700912 -237 319.5 C-235.625 317.125 -235.625 317.125 -234 315.5 C-233.34 315.5 -232.68 315.5 -232 315.5 C-233.01644184 311.01755461 -234.12174734 306.70422833 -236 302.5 C-239.45855023 300.86806725 -239.45855023 300.86806725 -243 300.5 C-245.61109715 296.97881581 -246.86747111 293.27084959 -248.14477539 289.10839844 C-248.3370723 288.48814285 -248.5293692 287.86788727 -248.72749329 287.22883606 C-249.35741863 285.19096365 -249.97771639 283.15030513 -250.59765625 281.109375 C-251.03649935 279.68061739 -251.47583341 278.25201049 -251.91563416 276.82354736 C-252.83503524 273.83234902 -253.74993104 270.83982313 -254.66137695 267.84619141 C-255.82333808 264.03028956 -256.99416651 260.21718399 -258.16814518 256.40496445 C-259.07606516 253.45451775 -259.98032983 250.50296098 -260.88342094 247.55103302 C-261.31352659 246.14591828 -261.74447447 244.74106103 -262.17631721 243.33647919 C-270.85259909 215.07702106 -270.85259909 215.07702106 -264.84765625 201.98828125 C-259.9386712 193.10859361 -253.37474165 186.88482313 -243.84765625 183.2890625 C-239.61445522 182.11607675 -235.31421565 181.31661378 -231 180.5 C-231.16604736 179.71689453 -231.33209473 178.93378906 -231.50317383 178.12695312 C-236.21339025 155.73749566 -240.14915243 133.41970641 -241 110.5 C-241.04125 109.61570312 -241.0825 108.73140625 -241.125 107.8203125 C-241.67714157 85.66563189 -238.36767467 61.49414017 -223.75 44 C-214.77098592 34.73183123 -203.18492255 30.53070231 -190.46948242 30.15014648 C-182.84844134 30.06840461 -175.96922548 30.79964376 -168.6015625 32.94140625 C-165.82383463 33.5378253 -164.56415956 33.6966078 -162 32.5 C-160.12241073 30.46833293 -160.12241073 30.46833293 -158.375 27.9375 C-148.92585282 15.68860551 -135.83048364 8.47174727 -120.6484375 5.94140625 C-96.94563277 3.07372217 -72.94405532 9.91428822 -52.34765625 21.53125 C-50.11153297 22.62700535 -50.11153297 22.62700535 -47.9765625 22.5078125 C-44.93315552 20.95603582 -43.38399597 18.5636083 -41.3125 15.875 C-31.79696199 3.97484949 -16.02361148 -7.97619771 0 0 Z " fill="#010101" transform="translate(327,1.5)"/>
<path d="M0 0 C1.53514709 9.7091731 2.49532138 19.31034396 3.0625 29.125 C3.17948242 30.96771484 3.17948242 30.96771484 3.29882812 32.84765625 C4.68669974 55.81062305 5.1697754 78.77574591 5.13037109 101.77758789 C5.1245996 105.17421257 5.1280248 108.57075944 5.13394356 111.96738148 C5.13846821 115.29727064 5.13528494 118.6271399 5.1328125 121.95703125 C5.13483673 123.14794876 5.13686096 124.33886627 5.13894653 125.56587219 C5.07038606 150.57390682 2.11969498 173.1508487 -16 192 C-26.73029851 202.47440904 -40.24997227 209.36762042 -55 212 C-55.87817383 212.16330811 -56.75634766 212.32661621 -57.66113281 212.49487305 C-76.53423835 215.35012717 -96.2926914 214.16110657 -115.3399086 214.12917709 C-117.89525568 214.12496662 -120.45060187 214.12202613 -123.00595093 214.11929321 C-161.78563637 214.07224326 -161.78563637 214.07224326 -177.55059814 213.73553467 C-179.02361986 213.70425298 -180.49673222 213.67691141 -181.96990967 213.65411377 C-196.81609766 213.40545233 -209.83926567 211.03772602 -223 204 C-223.67160156 203.64808594 -224.34320313 203.29617188 -225.03515625 202.93359375 C-231.75758984 198.98602218 -232.97899796 191.07012353 -234.875 184.0625 C-236.60826965 177.81756816 -238.39547166 171.63028738 -240.5 165.5 C-242.84007657 158.65977619 -244.816935 151.74258455 -246.75854492 144.77978516 C-248.58497755 138.28514466 -250.67597002 131.94252752 -253.01953125 125.6171875 C-255.57562153 116.18714924 -254.86593379 108.33767495 -252.5625 98.9375 C-249.86818842 88.0936708 -249.86818842 88.0936708 -250 77 C-252.78156762 73.18527869 -255.52166481 71.40747677 -260 70 C-260 69.01 -260 68.02 -260 67 C-259.34515625 66.85304688 -258.6903125 66.70609375 -258.015625 66.5546875 C-240.86417416 62.33950043 -229.24145081 53.61907228 -220.00927734 38.72314453 C-215.63427574 31.25368122 -212.51896073 23.25659349 -210 15 C-206.89603191 16.45210388 -204.03066329 18.20463547 -201.12817383 20.02075195 C-163.51021247 43.38955961 -115.95054286 48.7410065 -72.97070312 39.70214844 C-64.7525938 37.75973535 -56.86076506 35.05868471 -49 32 C-47.86175781 31.58878906 -46.72351563 31.17757812 -45.55078125 30.75390625 C-43.0054402 29.70454311 -41.0358923 28.8498972 -39 27 C-38.26272387 24.74981619 -38.00243921 22.64702684 -37.7421875 20.296875 C-36.41531394 16.19055052 -32.96003015 14.43584114 -29.5078125 12.1171875 C-26.56793216 10.80752118 -25.96609024 11.04778653 -23 12 C-18.77143623 12.41361096 -16.68408541 12.43219701 -13.05078125 10.13671875 C-12.14714844 9.32847656 -11.24351562 8.52023438 -10.3125 7.6875 C-9.40113281 6.88699219 -8.48976563 6.08648437 -7.55078125 5.26171875 C-6.70902344 4.51535156 -5.86726562 3.76898438 -5 3 C-1.20261438 0 -1.20261438 0 0 0 Z " fill="#F0CFA4" transform="translate(395,130)"/>
<path d="M0 0 C3.93460814 4.49968484 4.58399265 8.34243454 4.375 14.125 C4.36210937 14.87056152 4.34921875 15.61612305 4.3359375 16.38427734 C4.18568848 21.84606414 3.48063463 27.10426155 2.45703125 32.47265625 C1.36647558 38.37468897 1.36647558 38.37468897 3.125 43.9375 C5.93512264 45.52990283 7.82764724 45.45319325 11 45 C14.88875326 41.90755208 16.61138699 37.97756404 18.625 33.5625 C25.26690262 19.74229407 34.88748344 6.50214183 49.6328125 0.625 C54.02096748 -0.53358877 58.54643738 -0.95383388 63 0 C65.9221761 2.09937908 66.86278709 3.30825766 67.56640625 6.85546875 C67.55416247 17.29941268 65.6133084 27.85941436 60.8515625 37.26953125 C59.43008647 40.15812704 59.77110782 42.85273257 60 46 C60.66 46.99 61.32 47.98 62 49 C65.92050193 49.65410697 68.46655531 50.07814439 71.78759766 47.74316406 C73.57843376 45.94866143 75.19897907 44.08038043 76.8125 42.125 C78.02924144 40.74057291 79.24932136 39.35907307 80.47265625 37.98046875 C81.06836426 37.30032715 81.66407227 36.62018555 82.27783203 35.91943359 C89.28174312 28.11325994 99.42871953 17.70104449 110.375 16.6875 C114 17 114 17 116.4375 18.375 C118.97114502 22.63152363 118.8041 26.17539999 118 31 C111.60469941 52.38202386 96.98572929 70.91067049 82 87 C80.80759878 88.37075183 79.61986117 89.74557863 78.4375 91.125 C72.29951144 98.13382447 65.70593078 104.2117759 58.41796875 110.01953125 C56.04604113 111.88355487 56.04604113 111.88355487 54.30078125 113.76171875 C53 115 53 115 51 115 C50.814375 116.258125 50.62875 117.51625 50.4375 118.8125 C50.33308594 119.52019531 50.22867188 120.22789062 50.12109375 120.95703125 C49.86095201 123.2025342 49.86095201 123.2025342 51 126 C50.22914063 126.48210937 49.45828125 126.96421875 48.6640625 127.4609375 C47.66117188 128.09257812 46.65828125 128.72421875 45.625 129.375 C44.62726563 130.00148437 43.62953125 130.62796875 42.6015625 131.2734375 C39.9751981 132.89269712 39.9751981 132.89269712 38 135 C37.649375 134.34 37.29875 133.68 36.9375 133 C35.10897654 130.72925646 35.10897654 130.72925646 32.0625 130.4375 C27.47492261 130.70510868 23.56121439 132.7517198 19.40234375 134.56640625 C-7.92663344 146.081601 -43.22144172 148.31957202 -72 141 C-73.55567632 140.64316277 -75.11168435 140.28776952 -76.66796875 139.93359375 C-87.32742318 137.41356259 -97.20908536 133.90568282 -107 129 C-107.91023926 128.54584717 -107.91023926 128.54584717 -108.83886719 128.08251953 C-116.64204223 124.10513215 -122.96491801 119.44962758 -129.42919922 113.59936523 C-133.97525855 109.64894283 -137.06228959 108.69808252 -143 109 C-143.63260324 107.3570741 -144.25560549 105.71045109 -144.875 104.0625 C-145.22304687 103.14597656 -145.57109375 102.22945313 -145.9296875 101.28515625 C-148.47546066 93.47130505 -149.30471658 86.33513358 -149.1875 78.125 C-149.1774292 77.14684326 -149.1673584 76.16868652 -149.15698242 75.16088867 C-149.11993452 72.44002707 -149.06393158 69.72034286 -149 67 C-148.98195312 65.94167969 -148.96390625 64.88335937 -148.9453125 63.79296875 C-148.17242671 49.35819005 -143.32480768 29.57790529 -133.78515625 18.40625 C-131.29993909 16.24729312 -128.86774129 14.61259673 -126 13 C-125.08992188 12.47792969 -124.17984375 11.95585937 -123.2421875 11.41796875 C-108.0639352 4.22514162 -88.4040672 6.9865691 -73.08398438 12.34130859 C-64.74924493 15.34497825 -56.78708173 18.7567399 -49 23 C-51.74677886 28.18544648 -54.77555989 32.32018398 -58.8125 36.5625 C-59.34657471 37.1296875 -59.88064941 37.696875 -60.4309082 38.28125 C-66.18812081 44.33650564 -71.56256692 49.05801545 -79.08203125 52.82421875 C-81.30433649 54.00209499 -81.30433649 54.00209499 -83 57 C-83.23314275 60.10857 -82.99528744 62.01413769 -82 65 C-76.61344037 66.42286481 -73.6104139 66.20635229 -68.625 63.625 C-62.7448333 60.11481739 -57.88835967 55.76193658 -53 51 C-52.39671875 50.44699219 -51.7934375 49.89398438 -51.171875 49.32421875 C-45.36889394 43.86019686 -40.76983243 37.35202947 -36 31 C-11.61274621 -1.40153834 -11.61274621 -1.40153834 0 0 Z " fill="#655D65" transform="translate(319,15)"/>
<path d="M0 0 C4.14211786 0.80305465 8.17413282 1.84427652 12.25 2.9375 C20.75122686 5.14877867 29.26883126 6.17875145 38 7 C37.57847656 8.10859375 37.15695313 9.2171875 36.72265625 10.359375 C36.169154 11.82287248 35.61577504 13.2864166 35.0625 14.75 C34.78470703 15.47960937 34.50691406 16.20921875 34.22070312 16.9609375 C33.95322266 17.66992188 33.68574219 18.37890625 33.41015625 19.109375 C33.16402588 19.75874023 32.91789551 20.40810547 32.66430664 21.07714844 C28.31160276 33.67615459 30.40062521 48.16763696 36 60 C37.35874859 63.09480187 37.35874859 63.09480187 40 65 C46.70659731 65.58998517 53.33655742 63.24983635 59.5625 61 C60.41368408 60.69892334 61.26486816 60.39784668 62.1418457 60.08764648 C69.7575098 57.29050258 76.81982077 53.68363233 83.88671875 49.72265625 C87 48 87 48 88 48 C88.02505615 49.1960083 88.0501123 50.3920166 88.07592773 51.62426758 C88.17003852 56.05797195 88.27025036 60.491521 88.37231445 64.92504883 C88.4156494 66.84460825 88.45732552 68.76420585 88.49731445 70.68383789 C88.55505178 73.44168614 88.61873635 76.19934241 88.68359375 78.95703125 C88.70866249 80.24623222 88.70866249 80.24623222 88.73423767 81.56147766 C88.75418289 82.36208115 88.77412811 83.16268463 88.79467773 83.98754883 C88.81022202 84.6914827 88.8257663 85.39541656 88.84178162 86.12068176 C88.94481604 88.22699083 88.94481604 88.22699083 90 91 C91.43583001 91.10836453 92.8740202 91.18576167 94.3125 91.25 C95.11300781 91.29640625 95.91351563 91.3428125 96.73828125 91.390625 C99.07760903 91.19695445 99.07760903 91.19695445 100.609375 89.51953125 C102.61442453 85.88678701 102.47980008 82.34574251 102.51171875 78.296875 C102.52966995 77.45908508 102.54762115 76.62129517 102.56611633 75.75811768 C102.62019056 73.08879593 102.65410532 70.41965269 102.6875 67.75 C102.72067568 65.93747518 102.75516557 64.1249739 102.79101562 62.3125 C102.87591523 57.87512886 102.94273997 53.43781039 103 49 C106.59100916 50.40365679 110.02007573 51.99245974 113.46923828 53.71704102 C120.68064903 57.27564597 127.9368674 60.19516341 135.625 62.5625 C136.86745483 62.95743652 136.86745483 62.95743652 138.13500977 63.36035156 C143.02568582 64.79671138 146.99937789 65.61895141 152 64 C154.100591 61.48082613 154.100591 61.48082613 155.375 58.25 C156.09816406 56.67992187 156.09816406 56.67992187 156.8359375 55.078125 C161.14658293 43.67950554 161.02719475 27.59646915 156.5625 16.3125 C155.71899109 14.53656529 154.86672966 12.76471842 154 11 C153.64547333 9.67214469 153.30834212 8.33933343 153 7 C154.21816406 6.87882812 155.43632812 6.75765625 156.69140625 6.6328125 C158.31513829 6.46386928 159.93883435 6.29458004 161.5625 6.125 C162.36236328 6.04636719 163.16222656 5.96773438 163.98632812 5.88671875 C167.7173239 5.49077634 170.99243342 5.00238771 174.58984375 3.8671875 C180.18357096 2.44472766 184.71194124 3.03021707 189.6328125 5.890625 C190.80690844 6.66202434 191.9710779 7.44873724 193.125 8.25 C193.99705078 8.82427734 193.99705078 8.82427734 194.88671875 9.41015625 C212.18063578 20.97812312 223.03864073 38.20664025 227.3125 58.5 C228.11922669 64.95381355 228 71.49596146 228 78 C214.47 78 200.94 78 187 78 C186.67 74.37 186.34 70.74 186 67 C183.288243 63.66049055 183.288243 63.66049055 179.5 63.625 C176.17092984 63.72722612 176.17092984 63.72722612 174.31323242 65.0402832 C172.28869371 68.06147157 172.51917215 71.21000134 172.48828125 74.73046875 C172.47033005 75.48088943 172.45237885 76.23131012 172.43388367 77.00447083 C172.37974813 79.3987569 172.34587584 81.79284331 172.3125 84.1875 C172.27932964 85.81187677 172.24484024 87.43622717 172.20898438 89.06054688 C172.1240203 93.04022056 172.05722535 97.0198347 172 101 C170.69442139 101.0093457 169.38884277 101.01869141 168.04370117 101.02832031 C163.15485729 101.0684849 158.26662532 101.13431539 153.37817383 101.20751953 C151.2708325 101.23557657 149.16338893 101.25686626 147.0559082 101.27099609 C131.0300115 101.08750168 131.0300115 101.08750168 116 106 C115.00484375 106.48082031 114.0096875 106.96164062 112.984375 107.45703125 C101.5124355 114.41640714 94.20877648 123.43908003 90.54296875 136.48046875 C89.86575941 139.62291499 89.4546115 142.81771949 89 146 C47.42 146 5.84 146 -37 146 C-37.0625 107.4375 -37.0625 107.4375 -37.02758789 95.41577148 C-37.08989542 77.78061399 -37.48563449 61.7599249 -44.15182495 45.14523315 C-45.35753549 42.0957091 -46.29820953 39.00111054 -47.25 35.86328125 C-48.13889575 33.04074865 -49.03005009 30.21966893 -49.94140625 27.40429688 C-50.22886719 26.48326172 -50.51632813 25.56222656 -50.8125 24.61328125 C-51.19341797 23.41892456 -51.19341797 23.41892456 -51.58203125 22.20043945 C-52.07748943 19.59204893 -52.26012189 18.36654003 -51 16 C-48.15185547 14.7355957 -48.15185547 14.7355957 -44.3671875 13.67578125 C-43.69712677 13.48404831 -43.02706604 13.29231537 -42.33670044 13.09477234 C-40.91485683 12.6911953 -39.49066849 12.29580355 -38.06445312 11.90795898 C-35.89988797 11.31926871 -33.74279102 10.70807602 -31.5859375 10.09179688 C-25.40772285 8.35204733 -19.37217857 6.79690668 -13 6 C-12.75507813 6.84433594 -12.51015625 7.68867188 -12.2578125 8.55859375 C-11.16653817 12.30436009 -10.06017321 16.04558034 -8.95117188 19.78613281 C-8.24172922 22.18323321 -7.53491268 24.58103764 -6.83007812 26.97949219 C-5.74323791 30.67479618 -4.64670128 34.3671328 -3.54534912 38.05813599 C-3.09926433 39.55830578 -2.656096 41.05934595 -2.21588135 42.56124878 C-1.58660993 44.70599728 -0.94681163 46.847351 -0.3046875 48.98828125 C0.06672363 50.24165283 0.43813477 51.49502441 0.82080078 52.78637695 C1.91127199 55.75819321 2.78047475 57.76017211 5 60 C8.44485259 60.43060657 10.84506242 60.63335287 13.9375 58.9375 C16.06414886 55.05949325 15.19143781 50.76222245 14.15234375 46.625 C13.75144531 45.42875 13.35054688 44.2325 12.9375 43 C12.47920731 41.60067292 12.02226037 40.20090463 11.56640625 38.80078125 C11.31648926 38.04104004 11.06657227 37.28129883 10.80908203 36.49853516 C9.27041802 31.74696984 7.82778865 26.96587013 6.375 22.1875 C6.08616943 21.24583984 5.79733887 20.30417969 5.49975586 19.33398438 C3.54363061 12.92090039 1.72999196 6.47764928 0 0 Z " fill="#6DBF7C" transform="translate(172,351)"/>
<path d="M0 0 C4.85763413 2.33802016 9.3927822 5.2114208 14 8 C13.93433838 8.70092773 13.86867676 9.40185547 13.80102539 10.12402344 C13.08514629 18.16237936 12.70456748 26.18543771 12.4375 34.25 C12.37272461 36.10044922 12.37272461 36.10044922 12.30664062 37.98828125 C12.20185595 40.99210867 12.0996846 43.99599975 12 47 C12.66 46.67 13.32 46.34 14 46 C18.65144135 45.58653855 21.35276659 46.02462538 25 49 C29.79331404 55.65916783 30.66182367 61.99795016 30 70 C28.75646088 75.64978008 26.46852423 79.21894103 22 83 C18.78548731 84.60725635 15.56387464 84.05748185 12 84 C11.97484508 89.6335418 11.95693054 95.26704927 11.94506836 100.90063477 C11.94011119 102.80786714 11.93334346 104.71509586 11.92456055 106.62231445 C11.88010832 116.54039062 11.9230274 126.43635349 12.42578125 136.34375 C12.46267563 137.09143143 12.49957001 137.83911285 12.5375824 138.60945129 C13.79368646 160.58655012 20.66711679 179.31130129 32 198 C15.6198168 198.54132796 1.75745909 196.89157741 -13 189 C-13.67160156 188.64808594 -14.34320313 188.29617188 -15.03515625 187.93359375 C-21.75758984 183.98602218 -22.97899796 176.07012353 -24.875 169.0625 C-26.60826965 162.81756816 -28.39547166 156.63028738 -30.5 150.5 C-32.84007657 143.65977619 -34.816935 136.74258455 -36.75854492 129.77978516 C-38.58497755 123.28514466 -40.67597002 116.94252752 -43.01953125 110.6171875 C-45.57562153 101.18714924 -44.86593379 93.33767495 -42.5625 83.9375 C-39.86818842 73.0936708 -39.86818842 73.0936708 -40 62 C-42.78156762 58.18527869 -45.52166481 56.40747677 -50 55 C-50 54.01 -50 53.02 -50 52 C-49.34515625 51.85304687 -48.6903125 51.70609375 -48.015625 51.5546875 C-30.86417416 47.33950043 -19.24145081 38.61907228 -10.00927734 23.72314453 C-5.63427574 16.25368122 -2.51896073 8.25659349 0 0 Z " fill="#EFB885" transform="translate(185,145)"/>
<path d="M0 0 C0.495 0.99 0.495 0.99 1 2 C0.17455193 4.07112424 -0.73849364 6.1074998 -1.6875 8.125 C-6.64739454 19.15228226 -9.63980125 30.88291401 -10 43 C-10.04664795 44.16426514 -10.04664795 44.16426514 -10.09423828 45.35205078 C-10.55688474 57.97834674 -9.77185558 68.91188451 -6 81 C-5.75056641 82.17175781 -5.75056641 82.17175781 -5.49609375 83.3671875 C-5.33238281 83.90601562 -5.16867188 84.44484375 -5 85 C-4.34 85.33 -3.68 85.66 -3 86 C-3.45761719 86.35578125 -3.91523438 86.7115625 -4.38671875 87.078125 C-6.64611263 89.76970318 -7.0238853 92.33627063 -7.8125 95.75 C-10.82722047 107.87850931 -14.91479187 119.25982389 -23 129 C-23.59425781 129.71800781 -24.18851563 130.43601563 -24.80078125 131.17578125 C-32.84900751 140.02383124 -42.30814332 143.51765603 -54.06640625 144.3828125 C-57.07393138 144.73748772 -57.07393138 144.73748772 -58.859375 146.8515625 C-60.28418643 149.53528265 -60.65886779 151.99803654 -61 155 C-64.64987294 152.98743579 -66.66006447 151.7801195 -68.35107422 147.89941406 C-68.76123779 146.10068848 -68.76123779 146.10068848 -69.1796875 144.265625 C-69.41194534 143.2804892 -69.41194534 143.2804892 -69.64889526 142.27545166 C-70.12953389 140.18896943 -70.57001588 138.09746568 -71 136 C-71.13974243 135.33411865 -71.27948486 134.6682373 -71.42346191 133.98217773 C-72.4052257 129.25220389 -73.28364398 124.50674367 -74.125 119.75 C-74.25384583 119.0251239 -74.38269165 118.3002478 -74.51544189 117.55340576 C-75.37247972 112.70687883 -76.19683251 107.8557429 -77 103 C-77.15275391 102.07670898 -77.30550781 101.15341797 -77.46289062 100.20214844 C-79.09474877 89.76960081 -79.23321418 79.2385658 -79.34844971 68.69793701 C-79.36577314 67.18227611 -79.3885893 65.66666512 -79.41766357 64.15118408 C-79.69632416 47.70007666 -77.47364964 29.93113421 -66.2734375 17.0078125 C-58.82868728 10.17495956 -50.49169424 7.64603817 -40.57421875 7.70703125 C-33.21832689 8.30997321 -25.15261158 10.04206604 -18.46484375 13.1953125 C-14.88358445 14.36447164 -12.60403861 14.0413475 -9 13 C-6.4811183 10.34838505 -6.4811183 10.34838505 -4.625 7 C-3.95726562 5.906875 -3.28953125 4.81375 -2.6015625 3.6875 C-2.07304687 2.800625 -1.54453125 1.91375 -1 1 C-0.67 0.67 -0.34 0.34 0 0 Z " fill="#443F44" transform="translate(181,39)"/>
<path d="M0 0 C6.06625966 3.51265321 9.74181111 8.4354645 11.98828125 15 C13.32177801 18.46009922 13.32177801 18.46009922 16.92578125 19.1875 C20.62892095 19.12473492 23.16127648 18.3665532 26.61328125 17.125 C24.79627094 29.45747423 24.79627094 29.45747423 23.48828125 35.25 C21.61454918 44.56346203 22.50586771 52.41149153 25.80078125 61.25 C26.45040625 63.08896619 27.09751147 64.9288243 27.7421875 66.76953125 C28.06203613 67.67268066 28.38188477 68.57583008 28.71142578 69.50634766 C30.0118342 73.2822493 31.14032229 77.09867367 32.23828125 80.9375 C33.78110334 86.29174278 35.37310993 91.6238791 37.05078125 96.9375 C39.24619738 103.89908528 41.3583087 110.88387223 43.43969727 117.88037109 C44.55773734 121.63345242 45.68418246 125.38115003 46.8828125 129.109375 C47.43001953 130.81867188 47.43001953 130.81867188 47.98828125 132.5625 C48.46394531 134.01462891 48.46394531 134.01462891 48.94921875 135.49609375 C49.62201554 138.15957751 49.66183147 140.39276477 49.61328125 143.125 C45.44770947 144.4202156 41.28063478 145.7105298 37.11328125 147 C35.35371094 147.54720703 35.35371094 147.54720703 33.55859375 148.10546875 C17.31356534 153.125 17.31356534 153.125 11.61328125 153.125 C8.31969166 145.41147778 6.00168328 137.67277059 3.99023438 129.54101562 C2.55408466 124.16034573 1.28605338 120.5581992 -3.38671875 117.125 C-6.06462771 116.25261142 -6.06462771 116.25261142 -8.38671875 116.125 C-9.05703594 114.1679132 -9.72286558 112.20928887 -10.38671875 110.25 C-10.75796875 109.15945313 -11.12921875 108.06890625 -11.51171875 106.9453125 C-12.38671875 104.125 -12.38671875 104.125 -12.38671875 102.125 C-10.40671875 101.63 -10.40671875 101.63 -8.38671875 101.125 C-6.4359406 92.72164795 -8.94382695 86.0872985 -11.67382812 78.20703125 C-12.76775811 75.01215628 -13.76209821 71.78794226 -14.76171875 68.5625 C-14.961604 67.92401123 -15.16148926 67.28552246 -15.36743164 66.62768555 C-16.637808 62.56650168 -17.88337966 58.49822409 -19.1171875 54.42578125 C-19.41826416 53.43239746 -19.71934082 52.43901367 -20.02954102 51.41552734 C-20.64011281 49.39692867 -21.24869146 47.377726 -21.85522461 45.35791016 C-23.3755511 40.32322098 -24.99612277 35.37076611 -26.82421875 30.4375 C-28.97437093 24.01508892 -30.00285563 17.17858921 -27.43359375 10.734375 C-21.57082524 0.71571995 -11.31208494 -4.14714734 0 0 Z " fill="#EFCEA3" transform="translate(103.38671875,199.875)"/>
<path d="M0 0 C13.53 0 27.06 0 41 0 C41.1151884 5.83621227 41.21460258 11.66843678 41.2746582 17.50488281 C41.29970683 19.48744109 41.33375584 21.46990789 41.37719727 23.45214844 C41.43827619 26.31207926 41.46630629 29.17078292 41.48828125 32.03125 C41.51408768 32.90865845 41.5398941 33.78606689 41.56648254 34.69006348 C41.56922216 40.7856034 40.37104419 45.55449781 36 50 C30.03670259 54.38514634 25.18658269 54.55628462 17.92407227 54.45410156 C16.83065018 54.45468567 15.73722809 54.45526978 14.610672 54.45587158 C11.01225559 54.45309459 7.41467718 54.42201922 3.81640625 54.390625 C1.31534782 54.38316128 -1.18571646 54.37746897 -3.68678284 54.37347412 C-9.58699416 54.35978485 -15.48689824 54.32828993 -21.38698393 54.28807616 C-28.76770167 54.23886941 -36.14845695 54.21747261 -43.52929688 54.1953125 C-56.68634934 54.15246015 -69.84315572 54.08499384 -83 54 C-82.86191674 52.55826247 -82.71755912 51.11712496 -82.57055664 49.67626953 C-82.49084122 48.87367706 -82.41112579 48.07108459 -82.32899475 47.24417114 C-81.24749273 39.8669239 -75.53040376 33.9204459 -69.94921875 29.40234375 C-64.13302247 25.21794603 -58.78233196 23.88543005 -51.72241211 23.8581543 C-50.69462143 23.85111984 -49.66683075 23.84408539 -48.6078949 23.83683777 C-47.50881302 23.83267349 -46.40973114 23.82850922 -45.27734375 23.82421875 C-42.94204814 23.80103397 -40.60676164 23.7769172 -38.27148438 23.75195312 C-34.59555844 23.71675207 -30.91997101 23.68743628 -27.24389648 23.67407227 C-23.69213286 23.65863911 -20.14134961 23.6184755 -16.58984375 23.57421875 C-15.48873764 23.57612717 -14.38763153 23.57803558 -13.25315857 23.58000183 C-12.22852005 23.56351089 -11.20388153 23.54701996 -10.14819336 23.5300293 C-9.24838242 23.52416306 -8.34857147 23.51829681 -7.42149353 23.51225281 C-4.3692954 23.09656382 -4.3692954 23.09656382 -1 19 C-0.67 12.73 -0.34 6.46 0 0 Z " fill="#F0CFA4" transform="translate(359,443)"/>
<path d="M0 0 C1.97267472 3.53659701 3.0327111 7.25171034 4.125 11.125 C6.34966742 18.8332323 8.65139208 26.51611246 11 34.1875 C11.34740234 35.32541992 11.69480469 36.46333984 12.05273438 37.63574219 C13.74613668 43.13049656 15.52291086 48.52484409 17.625 53.875 C26.4583494 78.10702607 29.29167204 105.36526858 29 131 C22.73 131 16.46 131 10 131 C10.00636475 128.69700928 10.01272949 126.39401855 10.01928711 124.02124023 C10.03540675 116.31383208 10.01246175 108.60687068 9.97153378 100.8995657 C9.94792794 96.23775258 9.93648734 91.57664507 9.95532227 86.91479492 C10.16577997 57.97034839 10.16577997 57.97034839 2.84817505 30.14523315 C1.64246451 27.0957091 0.70179047 24.00111054 -0.25 20.86328125 C-1.13889575 18.04074865 -2.03005009 15.21966893 -2.94140625 12.40429688 C-3.22886719 11.48326172 -3.51632813 10.56222656 -3.8125 9.61328125 C-4.19341797 8.41892456 -4.19341797 8.41892456 -4.58203125 7.20043945 C-5.04127472 4.78270498 -4.77567678 3.31218958 -4 1 C-2.68 0.67 -1.36 0.34 0 0 Z " fill="#5DA46F" transform="translate(125,366)"/>
<path d="M0 0 C2.25080886 1.68810664 3.68999814 3.52709907 5.2265625 5.87109375 C9.62745557 12.37408938 14.68473856 15.88770088 22.4453125 17.51171875 C29.776353 18.04209949 36.12168268 15.22478221 42 11 C44.19746312 8.46622948 45.96965892 5.94601539 47.6953125 3.07421875 C49 1 49 1 51 0 C54.54231061 -0.38503376 56.36257342 -0.41935959 59.375 1.5625 C61.74695992 5.12043987 61.75155196 6.76397985 61 11 C55.68526881 21.2663441 46.87599468 28.30851276 36 32 C25.91408244 34.45200589 15.47055854 33.6780017 6.40234375 28.5234375 C0.68153859 24.74408205 -3.83710944 20.43136136 -8 15 C-8.66 14.154375 -9.32 13.30875 -10 12.4375 C-11.44387305 8.91805945 -11.00611184 6.62200262 -10 3 C-7.08550322 -0.34627408 -4.29616198 -0.62652362 0 0 Z " fill="#050403" transform="translate(242,254)"/>
<path d="M0 0 C-0.99 0.33 -1.98 0.66 -3 1 C-4.09537156 3.2540345 -4.09537156 3.2540345 -5 6 C-26.8148737 55.51596976 -26.8148737 55.51596976 -42.83203125 62.26171875 C-52.80430949 65.65768377 -61.55249774 66.38535869 -72 66 C-69.43482701 64.02327427 -66.83312665 62.29482105 -64.0625 60.625 C-53.22008205 53.40266568 -44.84723238 43.04232603 -37.20605469 32.63818359 C-13.00010891 -0.24074276 -13.00010891 -0.24074276 0 0 Z " fill="#443F44" transform="translate(319,15)"/>
<path d="M0 0 C0.33 0 0.66 0 1 0 C1.00257812 0.77859375 1.00515625 1.5571875 1.0078125 2.359375 C1.39565818 13.58104328 4.5423843 23.40023486 8 34 C8.58240408 35.82238224 9.1631204 37.64530468 9.7421875 39.46875 C10.62238126 42.24022058 11.50361947 45.01129684 12.39086914 47.78051758 C14.61105879 54.71868665 16.72582552 61.68403752 18.79858398 68.66748047 C20.48763981 74.34194258 22.25674573 79.98670688 24.0625 85.625 C26.01766638 91.73670528 27.82437919 97.86849494 29.5 104.0625 C31.57828524 111.73416377 34.01926475 119.2463654 36.578125 126.76953125 C38.24372654 131.67814384 39.75225935 136.62780341 41.23828125 141.59375 C41.92435034 143.97905452 41.92435034 143.97905452 43 146 C40.69 146.33 38.38 146.66 36 147 C32.70641041 139.28647778 30.38840203 131.54777059 28.37695312 123.41601562 C26.94080341 118.03534573 25.67277213 114.4331992 21 111 C18.32209104 110.12761142 18.32209104 110.12761142 16 110 C15.32968281 108.0429132 14.66385317 106.08428887 14 104.125 C13.62875 103.03445313 13.2575 101.94390625 12.875 100.8203125 C12 98 12 98 12 96 C13.98 95.505 13.98 95.505 16 95 C17.95077815 86.59664795 15.4428918 79.9622985 12.71289062 72.08203125 C11.61896064 68.88715628 10.62462054 65.66294226 9.625 62.4375 C9.42511475 61.79901123 9.22522949 61.16052246 9.01928711 60.50268555 C7.74891075 56.44150168 6.50333909 52.37322409 5.26953125 48.30078125 C4.96845459 47.30739746 4.66737793 46.31401367 4.35717773 45.29052734 C3.74660594 43.27192867 3.13802729 41.252726 2.53149414 39.23291016 C1.01116765 34.19822098 -0.60940402 29.24576611 -2.4375 24.3125 C-4.56205963 18.00320171 -5.58468108 11.03683844 -3.09375 4.69140625 C-2 2.75 -2 2.75 0 0 Z " fill="#EDB684" transform="translate(79,206)"/>
<path d="M0 0 C21.45 0 42.9 0 65 0 C62.01083228 7.47291929 56.9872956 11.30940702 49.875 14.9375 C43.91359201 17.23385869 38.18980478 17.49541114 31.875 17.5625 C30.95702637 17.57724365 30.03905273 17.5919873 29.09326172 17.60717773 C19.01631593 17.45646576 10.41370594 13.84868909 3 7 C0 3.5170068 0 3.5170068 0 0 Z " fill="#EEB784" transform="translate(235,359)"/>
<path d="M0 0 C5.25835754 3.19096911 8.33541373 7.02707278 10 13 C10.89779489 20.39558539 10.09994732 26.68557496 6 33 C3.4228285 36.09115795 1.01907075 37.78769359 -3 38.625 C-6.99300668 37.79312361 -9.44439446 36.0833117 -12 33 C-16.08193314 26.38023577 -16.00059793 18.06135784 -14.53125 10.62890625 C-12.41436656 3.9632435 -7.58542135 -1.70284969 0 0 Z " fill="#050403" transform="translate(335,191)"/>
<path d="M0 0 C5.08378549 2.0577227 6.67313962 5.26317708 9 10 C11.05644998 16.66993315 10.71584059 23.83511786 7.9921875 30.2421875 C6.06482243 33.65681066 3.49958962 36.25020519 0 38 C-3.49702205 38.38855801 -5.48693908 38.2687462 -8.625 36.625 C-14.26081575 30.39594049 -15.69373664 23.07248652 -15.38671875 14.8359375 C-14.62344611 9.2386048 -12.47308148 5.55061209 -8.625 1.5 C-5.3959681 -0.34516109 -3.66837432 -0.53497126 0 0 Z " fill="#040403" transform="translate(205,191)"/>
<path d="M0 0 C3 1 3 1 5.0625 4.125 C10.19925179 11.63730667 18.71829582 15.77933726 27 19 C24.94807655 21.23949866 23.17319087 22.56736373 20.3828125 23.75390625 C19.69316406 24.05103516 19.00351563 24.34816406 18.29296875 24.65429688 C17.57753906 24.95400391 16.86210937 25.25371094 16.125 25.5625 C15.41730469 25.86607422 14.70960938 26.16964844 13.98046875 26.48242188 C11.99136662 27.33251301 9.99663184 28.16778512 8 29 C7.06542969 29.39832031 6.13085938 29.79664063 5.16796875 30.20703125 C2.66593238 31.1221905 0.64359548 31.1510626 -2 31 C-5.72424411 21.07362825 -4.62163167 10.8328238 -1 1 C-0.67 0.67 -0.34 0.34 0 0 Z " fill="#5BA06C" transform="translate(221,369)"/>
<path d="M0 0 C9.03725782 4.51862891 9.03725782 4.51862891 11.4375 8 C11.91058594 8.66 12.38367188 9.32 12.87109375 10 C16.07531749 15.67668705 15.78177789 22.70152528 15 29 C12.67793733 34.4077567 8.99343463 38.84625181 4 42 C2.02 42.495 2.02 42.495 0 43 C0 28.81 0 14.62 0 0 Z " fill="#EDB684" transform="translate(415,199)"/>
<path d="M0 0 C3.16174131 2.58687925 3.98679913 5.08200006 5 9 C5.2568301 12.4004879 5.23439177 15.77920854 5.1875 19.1875 C5.18685547 20.08919922 5.18621094 20.99089844 5.18554688 21.91992188 C5.1409337 28.5771989 5.1409337 28.5771989 4 32 C-2.02827452 31.50045653 -6.71812762 30.158183 -12.1875 27.625 C-12.87263672 27.32078125 -13.55777344 27.0165625 -14.26367188 26.703125 C-17.99903286 25.02059474 -21.5314489 23.19562652 -25 21 C-22.53584967 18.94654139 -20.33201098 17.70055664 -17.375 16.375 C-10.1239963 12.85152916 -3.85145569 7.06723424 0 0 Z " fill="#5BA06D" transform="translate(312,368)"/>
<path d="M0 0 C0 3.97624121 -1.50287475 5.79126785 -3.5625 9.1875 C-7.09806816 15.10922263 -9.94707964 21.12933681 -12.38891602 27.58081055 C-14.42067201 32.62148519 -16.58609042 35.0239549 -21 38 C-23.5546875 38.70703125 -23.5546875 38.70703125 -25.875 38.8125 C-26.65617187 38.86019531 -27.43734375 38.90789063 -28.2421875 38.95703125 C-28.82226562 38.97121094 -29.40234375 38.98539063 -30 39 C-24.78895743 23.18466802 -14.40226429 8.50133656 0 0 Z " fill="#443F44" transform="translate(364,18)"/>
<path d="M0 0 C13.53 0 27.06 0 41 0 C41 13.86 41 27.72 41 42 C40.67 42 40.34 42 40 42 C40 28.47 40 14.94 40 1 C32.08 1 24.16 1 16 1 C16 5.95 16 10.9 16 16 C10.72 16 5.44 16 0 16 C0 10.72 0 5.44 0 0 Z " fill="#D4A579" transform="translate(359,443)"/>
<path d="M0 0 C-0.67095703 0.69222656 -0.67095703 0.69222656 -1.35546875 1.3984375 C-8.77547468 9.40381703 -12.31201806 17.25829674 -14 28 C-17.63 28 -21.26 28 -25 28 C-24.72163435 19.37066494 -21.99520553 13.23348816 -16.03515625 6.91796875 C-6.31573889 -1.94330427 -6.31573889 -1.94330427 0 0 Z " fill="#ECB583" transform="translate(301,469)"/>
<path d="M0 0 C0.33 0 0.66 0 1 0 C1 4.62 1 9.24 1 14 C-12.53 14 -26.06 14 -40 14 C-40 11.36 -40 8.72 -40 6 C-34.72 6 -29.44 6 -24 6 C-24 8.31 -24 10.62 -24 13 C-16.08 13 -8.16 13 0 13 C0 8.71 0 4.42 0 0 Z " fill="#539363" transform="translate(399,415)"/>
<path d="M0 0 C-10.12212909 7.99619146 -20.26893372 15.83331616 -31 23 C-31.66 22.67 -32.32 22.34 -33 22 C-9.20200418 -2.91936736 -9.20200418 -2.91936736 0 0 Z " fill="#433E43" transform="translate(430,33)"/>
</svg>
