<?xml version="1.0" encoding="UTF-8"?>
<svg version="1.1" xmlns="http://www.w3.org/2000/svg" width="512" height="512">
<path d="M0 0 C2.70676916 0.0107625 5.41287905 0.00000555 8.11962891 -0.01269531 C38.61496898 -0.03938677 63.36087246 6.60705731 85.76416016 28.13574219 C101.21964562 44.04934657 110.74245303 65.66068196 110.68212891 87.91308594 C110.69558032 89.59343736 110.71060263 91.2737768 110.72705078 92.95410156 C110.74988275 95.57879609 110.76414177 98.20212318 110.75170898 100.8269043 C110.74286042 103.37744388 110.77184768 105.92532249 110.80712891 108.47558594 C110.78878242 109.63996437 110.78878242 109.63996437 110.77006531 110.8278656 C110.8896743 116.25125778 112.34951093 118.93209117 116.15808105 122.7842865 C119.48441035 126.24632665 119.83683276 130.02433501 119.76416016 134.63574219 C119.74675781 136.08207031 119.74675781 136.08207031 119.72900391 137.55761719 C119.57666016 140.26074219 119.57666016 140.26074219 118.82666016 143.88574219 C118.51452792 148.09952742 119.76825315 150.35857954 121.58447266 154.08496094 C125.71715358 163.14757225 124.43840413 176.92241975 121.57666016 186.26074219 C116.97031746 196.29756558 110.60899559 202.9806799 100.44384766 207.26074219 C96.22606918 208.73179299 91.99110326 209.61916369 87.57666016 210.26074219 C87.36912109 211.19273437 87.16158203 212.12472656 86.94775391 213.08496094 C84.18074404 224.53505616 80.09946781 234.00115397 72.57666016 243.26074219 C73.5451848 243.26155934 73.5451848 243.26155934 74.5332756 243.262393 C90.24052224 243.277357 105.94741776 243.31978793 121.65449142 243.39283276 C129.25032516 243.42749359 136.84597722 243.45283968 144.44189453 243.45629883 C151.06213044 243.45933724 157.68204288 243.47981063 164.30215383 243.52126676 C167.80791858 243.54261027 171.31322333 243.55519083 174.81905365 243.54689598 C178.73173607 243.53796505 182.64359043 243.56795764 186.55615234 243.60131836 C187.71996429 243.59269272 188.88377625 243.58406708 190.08285522 243.57518005 C197.92411147 243.68766483 197.92411147 243.68766483 201.32794189 246.67695618 C202.57666016 249.26074219 202.57666016 249.26074219 202.57666016 251.26074219 C208.84666016 251.26074219 215.11666016 251.26074219 221.57666016 251.26074219 C222.23666016 249.61074219 222.89666016 247.96074219 223.57666016 246.26074219 C226.2470153 243.59038705 227.56013935 243.99710446 231.29223633 243.97021484 C232.49075729 243.95745514 233.68927826 243.94469543 234.92411804 243.93154907 C236.22613663 243.92932343 237.52815521 243.92709778 238.86962891 243.92480469 C240.21763756 243.91837726 241.5656448 243.91164894 242.91365051 243.90463257 C245.74414295 243.89264331 248.57451325 243.88895308 251.4050293 243.89013672 C255.01872199 243.89033923 258.63162223 243.86311605 262.24512768 243.8285923 C265.03255244 243.80625891 267.81978904 243.80230123 270.60729408 243.80335617 C272.58307856 243.79986919 274.55880429 243.77823335 276.5344696 243.7562561 C283.42470249 243.79117171 288.03551696 244.00657104 293.57666016 248.26074219 C298.43664954 253.50441494 298.72632466 257.71752364 298.7305603 264.61601257 C298.73494256 265.47864442 298.73932481 266.34127627 298.74383986 267.23004848 C298.75723571 270.13180208 298.7634085 273.03352531 298.76953125 275.93530273 C298.7774316 278.01140989 298.78570051 280.08751567 298.79431152 282.16362 C298.82053955 288.99155362 298.83584003 295.8194934 298.85009766 302.64746094 C298.85545703 304.9971244 298.86083454 307.34678781 298.86623001 309.69645119 C298.88785995 319.46987597 298.90659693 329.24329909 298.9178524 339.01674175 C298.93409318 353.02737173 298.96727309 367.03772445 299.02425325 381.0482499 C299.06294392 390.89718624 299.08248408 400.74604839 299.08777297 410.59505874 C299.09142761 416.47851908 299.10346133 422.36168375 299.1358757 428.24506187 C299.16594058 433.78139641 299.17227355 439.31725612 299.16049194 444.85365486 C299.16027108 446.88374984 299.16858674 448.91386675 299.18614578 450.9438858 C299.20884801 453.72001194 299.2005376 456.49441781 299.18466187 459.27055359 C299.19854395 460.07008554 299.21242604 460.86961748 299.2267288 461.69337767 C299.13389198 468.3019186 296.70654428 473.09506969 292.06316602 477.79154223 C285.23580239 483.71620791 278.82966462 484.41492071 270.00024986 484.39216995 C269.25403753 484.39422259 268.5078252 484.39627522 267.73900038 484.39839005 C265.23657726 484.40404803 262.73420939 484.40260429 260.23178101 484.40118408 C258.42024218 484.40376841 256.60870393 484.40678176 254.79716647 484.41018748 C249.8171946 484.41825282 244.83723714 484.4200468 239.85725951 484.42078495 C234.4869382 484.42263632 229.11662436 484.43018407 223.74630737 484.43692017 C212.00243085 484.4505007 200.25855774 484.45652777 188.51467466 484.46093082 C181.18130769 484.46369372 173.84794204 484.46793116 166.51457596 484.472435 C146.20938131 484.48462729 125.90418772 484.49492669 105.59898949 484.49831009 C103.64971027 484.49863944 103.64971027 484.49863944 101.66105167 484.49897544 C100.35842867 484.49919372 99.05580566 484.499412 97.71370924 484.49963689 C95.07411345 484.50008035 92.43451766 484.50052692 89.79492188 484.50097656 C87.83092723 484.50130871 87.83092723 484.50130871 85.82725592 484.50164756 C64.61258845 484.50559537 43.39795534 484.52304907 22.18330114 484.54633608 C0.40093284 484.57005322 -21.38141822 484.58251211 -43.16379964 484.58367801 C-55.39314035 484.58459456 -67.6224363 484.590342 -79.85176468 484.60849762 C-90.26556312 484.62390346 -100.67930297 484.62901618 -111.09311064 484.62075952 C-116.40493206 484.61685476 -121.7166355 484.61777422 -127.02844238 484.63181686 C-131.8955121 484.64456594 -136.76237529 484.64334934 -141.62944476 484.63122615 C-143.38586228 484.62927091 -145.14229447 484.63233955 -146.89869137 484.64107051 C-171.62418913 484.7561528 -171.62418913 484.7561528 -181.44677734 476.36230469 C-187.91804369 469.4817883 -190.52462326 462.81149923 -190.6003418 453.52368164 C-190.60691299 452.85480423 -190.61348419 452.18592682 -190.62025452 451.4967804 C-190.63991882 449.28919344 -190.65163633 447.08167438 -190.66162109 444.87402344 C-190.66773438 443.73795686 -190.66773438 443.73795686 -190.67397118 442.57893944 C-190.69480532 438.56800996 -190.70911699 434.5571144 -190.71850586 430.54614258 C-190.72954892 426.42160907 -190.76393157 422.2976182 -190.80367756 418.17327595 C-190.82993586 414.98604898 -190.83820593 411.79894937 -190.84178734 408.61162376 C-190.84663162 407.09230076 -190.8581835 405.57298261 -190.87682533 404.05376625 C-190.98714034 394.46572335 -190.82118055 386.24133564 -184.21240234 378.75683594 C-181.58495463 375.09103007 -181.82711796 371.72989071 -181.79833984 367.32324219 C-181.63081738 357.11274819 -181.63081738 357.11274819 -179.42333984 352.26074219 C-176.42333984 350.26074219 -176.42333984 350.26074219 -173.42333984 350.26074219 C-173.42333984 343.99074219 -173.42333984 337.72074219 -173.42333984 331.26074219 C-175.40333984 330.60074219 -177.38333984 329.94074219 -179.42333984 329.26074219 C-181.63342677 324.94074224 -181.48289594 321.15123664 -181.36083984 316.38574219 C-181.65982114 311.07130942 -181.65982114 311.07130942 -184.64990234 306.85449219 C-187.51142243 304.86798238 -190.44471185 303.0654873 -193.42333984 301.26074219 C-203.79438498 293.03668534 -211.29253957 279.25862385 -213.42333984 266.26074219 C-214.48313104 254.12991795 -214.30778121 242.55601285 -209.42333984 231.26074219 C-208.89740234 229.94783203 -208.89740234 229.94783203 -208.36083984 228.60839844 C-202.97122659 216.46305468 -190.93559794 204.18252203 -178.42333984 199.26074219 C-174.50405171 198.52058885 -171.34735936 198.89113438 -167.61083984 200.38574219 C-164.2903463 203.23187951 -162.64981503 206.20769022 -162.16372681 210.61419678 C-162.07661687 213.45694237 -162.08621094 216.28418828 -162.13037109 219.12792969 C-162.13461594 220.16265411 -162.13886078 221.19737854 -162.14323425 222.26345825 C-162.15996989 225.55448899 -162.19761335 228.84489785 -162.23583984 232.13574219 C-162.25089326 234.37271248 -162.26458052 236.60969242 -162.27685547 238.84667969 C-162.30985678 244.31827192 -162.36160443 249.78940176 -162.42333984 255.26074219 C-156.15333984 255.26074219 -149.88333984 255.26074219 -143.42333984 255.26074219 C-143.44952393 253.80780762 -143.47570801 252.35487305 -143.50268555 250.85791016 C-143.59332066 245.45718846 -143.65063851 240.05653374 -143.69799805 234.65527344 C-143.72311165 232.31954638 -143.75720912 229.98389768 -143.80053711 227.6484375 C-143.86132476 224.28723805 -143.88958196 220.92707933 -143.91162109 217.56542969 C-143.93742752 216.52458221 -143.96323395 215.48373474 -143.98982239 214.41134644 C-143.99294667 206.29928899 -143.99294667 206.29928899 -141.01782227 202.61669922 C-137.60000956 199.5131053 -135.48976877 198.77352519 -130.82177734 198.86621094 C-120.03360661 200.64081231 -110.1159359 210.12853939 -103.87255859 218.59667969 C-98.96107596 225.67998012 -95.52897599 232.85073113 -93.42333984 241.26074219 C-93.23126953 242.01613281 -93.03919922 242.77152344 -92.84130859 243.54980469 C-92.248192 247.39674781 -92.23904948 251.18637651 -92.23583984 255.07324219 C-92.22359375 255.84216797 -92.21134766 256.61109375 -92.19873047 257.40332031 C-92.1853697 262.68082417 -92.96006996 267.18845883 -94.42333984 272.26074219 C-89.85936178 272.32515587 -85.29999984 272.3010735 -80.73583984 272.26074219 C-79.44226563 272.28007812 -78.14869141 272.29941406 -76.81591797 272.31933594 C-70.15886369 272.4881637 -70.15886369 272.4881637 -64.54711914 269.53613281 C-63.3126779 267.49246506 -62.3691015 265.44915595 -61.42333984 263.26074219 C-59.40380859 261.16699219 -59.40380859 261.16699219 -57.61083984 259.76074219 C-57.00626953 259.27605469 -56.40169922 258.79136719 -55.77880859 258.29199219 C-55.33150391 257.95167969 -54.88419922 257.61136719 -54.42333984 257.26074219 C-55.20837891 256.55949219 -55.99341797 255.85824219 -56.80224609 255.13574219 C-69.50232288 243.71437315 -80.1480453 231.69778646 -83.42333984 214.26074219 C-83.46317843 212.59455172 -83.4731126 210.92666549 -83.42333984 209.26074219 C-84.02919922 209.23496094 -84.63505859 209.20917969 -85.25927734 209.18261719 C-96.57660465 208.41652119 -104.69625261 204.64447913 -112.42333984 196.26074219 C-118.80290062 188.09179242 -119.81227358 180.12417307 -119.79833984 170.01074219 C-119.79918579 168.47800659 -119.79918579 168.47800659 -119.80004883 166.91430664 C-119.69540673 159.75690128 -118.88528805 153.64240576 -115.42333984 147.26074219 C-115.09333984 146.60074219 -114.76333984 145.94074219 -114.42333984 145.26074219 C-114.88740234 143.96136719 -114.88740234 143.96136719 -115.36083984 142.63574219 C-117.57231331 135.61106176 -116.68846273 129.7221035 -113.42333984 123.26074219 C-111.36083984 120.26074219 -111.36083984 120.26074219 -109.42333984 118.26074219 C-108.76333984 118.26074219 -108.10333984 118.26074219 -107.42333984 118.26074219 C-107.43905029 117.21845459 -107.45476074 116.17616699 -107.47094727 115.10229492 C-107.52607651 111.16048196 -107.55998502 107.21870146 -107.58813477 103.27661133 C-107.60303551 101.58449537 -107.62336318 99.8924167 -107.6496582 98.20043945 C-107.89389444 82.05690323 -105.94301079 68.24383692 -99.42333984 53.26074219 C-99.07013672 52.43058594 -98.71693359 51.60042969 -98.35302734 50.74511719 C-96.04338457 45.68936371 -96.04338457 45.68936371 -93.67724609 44.05371094 C-91.42333984 43.26074219 -91.42333984 43.26074219 -88.53662109 43.50292969 C-84.75759916 43.20895308 -83.50101719 41.87204282 -81.03466797 39.09277344 C-80.56480469 38.52945313 -80.09494141 37.96613281 -79.61083984 37.38574219 C-78.87704102 36.55236328 -78.87704102 36.55236328 -78.12841797 35.70214844 C-74.09405588 31.23100221 -74.09405588 31.23100221 -73.67333984 25.44824219 C-73.74037109 24.78179687 -73.80740234 24.11535156 -73.87646484 23.42871094 C-72.95376561 19.01407235 -69.03168558 16.6834081 -65.50537109 14.23339844 C-59.0899833 10.48534033 -52.69524868 7.3402793 -45.67333984 4.88574219 C-45.02083252 4.64734619 -44.3683252 4.4089502 -43.69604492 4.16333008 C-29.8413272 -0.36229377 -14.41498081 -0.06795821 0 0 Z " fill="#010101" transform="translate(213.42333984375,13.7392578125)"/>
<path d="M0 0 C6.27 0 12.54 0 19 0 C19.99 1.98 20.98 3.96 22 6 C24.57577542 7.28788771 26.46754029 7.15285685 29.35180664 7.18945312 C30.46959 7.20617065 31.58737335 7.22288818 32.73902893 7.2401123 C33.95050095 7.25368774 35.16197296 7.26726318 36.41015625 7.28125 C37.6479332 7.29965942 38.88571014 7.31806885 40.16099548 7.33703613 C44.80340449 7.40596731 49.44590631 7.46633973 54.08843994 7.52606201 C58.63326649 7.58496804 63.17795271 7.65110446 67.72265625 7.71875 C68.9361525 7.73232544 70.14964874 7.74590088 71.3999176 7.7598877 C72.5145488 7.77660522 73.62917999 7.79332275 74.77758789 7.81054688 C75.76416885 7.82307495 76.75074982 7.83560303 77.76722717 7.84851074 C80 8 80 8 81 9 C81.10888578 11.60615585 81.15224396 14.18621383 81.15390015 16.79327393 C81.1582824 17.61956165 81.16266465 18.44584938 81.1671797 19.29717612 C81.18061827 22.08776805 81.18675787 24.87832838 81.19287109 27.66894531 C81.20076811 29.66095627 81.20903681 31.65296578 81.21765137 33.64497375 C81.24391882 40.20601018 81.25918415 46.76705314 81.2734375 53.328125 C81.27879532 55.58312739 81.28417282 57.83812973 81.28956985 60.09313202 C81.3112059 69.4710192 81.32994383 78.84890462 81.34119225 88.22681046 C81.35743807 101.68460267 81.39062309 115.14210642 81.44759309 128.59978986 C81.48624791 138.05203933 81.50581968 147.5042115 81.51111281 156.95653796 C81.51477251 162.60687039 81.52685936 168.2568955 81.55921555 173.90714264 C81.58921744 179.22265841 81.5956361 184.53767965 81.58383179 189.85326195 C81.58361039 191.80560076 81.59196999 193.75796199 81.60948563 195.71022224 C81.63208348 198.37367854 81.62392658 201.03532748 81.60800171 203.6987915 C81.6218838 204.47340768 81.63576588 205.24802386 81.65006864 206.04611325 C81.59632032 209.68867439 81.07849076 211.87369512 79.14733791 214.98124599 C74.49623538 217.96453922 70.45539727 217.67663041 65.03459167 217.60127258 C63.91550976 217.60554471 62.79642784 217.60981683 61.64343435 217.61421841 C57.88582712 217.62246776 54.12933092 217.59492908 50.37182617 217.56762695 C47.68144207 217.5662169 44.99112646 217.56678731 42.30075073 217.56983948 C36.50467064 217.57246076 30.70887206 217.55677866 24.91286278 217.52865028 C16.53286517 217.48800814 8.15300363 217.47499237 -0.22708186 217.46871033 C-13.82325868 217.45776824 -27.41928549 217.42449643 -41.01538086 217.37719727 C-54.22240448 217.33129942 -67.42938734 217.29590863 -80.63647461 217.2746582 C-81.45061078 217.27334459 -82.26474696 217.27203097 -83.10355393 217.27067754 C-87.18785195 217.26415234 -91.27215026 217.2578338 -95.35644877 217.25161803 C-129.23774131 217.19978769 -163.11885226 217.11172481 -197 217 C-197.02332556 189.89744054 -197.04097749 162.79488257 -197.05181217 135.6923151 C-197.05697586 123.10908231 -197.06401994 110.52585575 -197.07543945 97.94262695 C-197.08538407 86.97939899 -197.0918529 76.01617552 -197.09408849 65.05294317 C-197.09539598 59.24411711 -197.09848421 53.43530395 -197.10573006 47.62648201 C-197.11248678 42.16585248 -197.11461768 36.70524124 -197.11310768 31.24460793 C-197.11338417 29.234168 -197.11539134 27.2237275 -197.11920547 25.21329117 C-197.12413729 22.48108415 -197.12300019 19.74894733 -197.12025452 17.01673889 C-197.12316736 16.21033449 -197.1260802 15.40393008 -197.12908131 14.57308918 C-197.11412121 9.11412121 -197.11412121 9.11412121 -196 8 C-193.54059844 7.89655693 -191.10894792 7.85840901 -188.64883423 7.86196899 C-187.870138 7.85914771 -187.09144177 7.85632643 -186.28914869 7.85341966 C-183.65971556 7.84503532 -181.03032434 7.84373216 -178.40087891 7.84228516 C-176.52384827 7.83761978 -174.64681877 7.83247668 -172.76979065 7.82688904 C-168.71770966 7.81558685 -164.66563612 7.80716298 -160.61354446 7.80076981 C-154.21087122 7.79011784 -147.80825135 7.76988107 -141.40560913 7.74765015 C-123.19556112 7.68562986 -104.98551593 7.6316805 -86.77539062 7.59863281 C-76.72583882 7.58031443 -66.67637601 7.55141368 -56.62688959 7.5106281 C-51.30425236 7.48951116 -45.98172751 7.47409423 -40.65904617 7.47182083 C-35.65383085 7.4696806 -30.64884951 7.45387547 -25.64370537 7.42743111 C-23.80343731 7.42021271 -21.96314097 7.41814936 -20.12286186 7.42153358 C-17.61667222 7.4254072 -15.11123771 7.41104295 -12.60513306 7.39199829 C-11.50450734 7.40029283 -11.50450734 7.40029283 -10.38164675 7.40875494 C-6.53698108 7.3654316 -6.53698108 7.3654316 -3.14967918 5.72550011 C-1.74125808 3.68880653 -1.74125808 3.68880653 0 0 Z " fill="#586B75" transform="translate(416,265)"/>
<path d="M0 0 C1.04623535 0.40790771 2.0924707 0.81581543 3.17041016 1.23608398 C6.57526246 4.56191081 6.48254483 5.58795958 6.74462891 10.21459961 C6.7708585 12.86562225 6.76471228 15.50276751 6.7265625 18.15234375 C6.72552381 19.57279966 6.72656496 20.99325847 6.72958374 22.41371155 C6.7294043 25.39579051 6.70857437 28.37678825 6.67236328 31.35864258 C6.62735644 35.14446481 6.62583149 38.92868283 6.63939857 42.71469784 C6.64615476 45.65344486 6.63267062 48.59183981 6.61314011 51.53051949 C6.60553845 52.92367255 6.60309626 54.31686523 6.6063118 55.71003532 C6.61228527 71.21047389 2.65883166 86.76359819 -8.30554199 98.32032776 C-13.70684357 103.67449782 -17.76841389 106.67343414 -25.56213379 106.70399475 C-26.48006714 106.67921555 -27.39800049 106.65443634 -28.34375 106.62890625 C-29.79654358 106.63167824 -29.79654358 106.63167824 -31.27868652 106.63450623 C-34.3533354 106.63873339 -37.42566244 106.60473654 -40.5 106.5625 C-43.57417846 106.52557511 -46.64690048 106.49800048 -49.72131348 106.50120544 C-51.62695822 106.50295907 -53.53280591 106.482177 -55.43786621 106.43495178 C-62.88252066 106.43730942 -67.74601819 108.74601819 -73 114 C-75.85647242 114.2293518 -78.58075094 114.33238657 -81.4375 114.3125 C-82.25283203 114.30758545 -83.06816406 114.3026709 -83.90820312 114.29760742 C-90.31771666 114.17371219 -96.00247162 113.37022322 -102 111 C-102.83660156 110.67128906 -103.67320312 110.34257812 -104.53515625 110.00390625 C-116.83721357 104.50886055 -126.79996837 93.99182989 -131.8125 81.5625 C-137.00013117 67.69930816 -136.67710021 53.21415296 -136.86499023 38.62304688 C-136.90525495 35.785324 -136.98212499 32.95213209 -137.09057617 30.11621094 C-137.93984425 7.36103637 -137.93984425 7.36103637 -134.83370972 1.97924805 C-131.51847871 -1.47177011 -127.49572938 -2.73031274 -123 -4 C-121.29716097 -4.7778305 -119.60194059 -5.57274976 -117.91796875 -6.390625 C-116.34735472 -7.02598614 -114.7703994 -7.64589593 -113.1875 -8.25 C-112.34219727 -8.58008057 -111.49689453 -8.91016113 -110.62597656 -9.25024414 C-73.97962378 -23.18370804 -33.92114256 -18.95593261 0 0 Z " fill="#FCDCCC" transform="translate(280,152)"/>
<path d="M0 0 C1.50261357 0.0009452 3.00544592 0.0345811 4.50683594 0.09521484 C5.30023376 0.10370453 6.09363159 0.11219421 6.91107178 0.12094116 C9.43918074 0.15446542 11.96407056 0.22973254 14.49121094 0.30615234 C16.20731062 0.33625368 17.92346043 0.36362921 19.63964844 0.38818359 C23.84140503 0.45425221 28.04076275 0.55775864 32.24121094 0.68115234 C32.24667938 1.76657066 32.24667938 1.76657066 32.2522583 2.87391663 C32.29022718 9.71498992 32.34718043 16.55567444 32.42511368 23.39640141 C32.46451408 26.91280463 32.49673843 30.42896025 32.51220703 33.94555664 C32.53033921 37.99454389 32.58032227 42.0426074 32.63183594 46.09130859 C32.63306458 47.34573257 32.63429321 48.60015656 32.63555908 49.89259338 C32.74805307 56.62841496 32.9698774 61.32124164 37.24121094 66.68115234 C40.76318974 69.24357871 43.79998818 68.88810577 47.95800781 68.30078125 C51.7840884 67.26243731 54.17012645 65.06221122 56.99121094 62.36865234 C57.58264893 61.83393311 58.17408691 61.29921387 58.78344727 60.74829102 C60.62145899 59.07837075 62.43273287 57.38296019 64.24121094 55.68115234 C65.37433063 54.63059907 66.50841959 53.58109012 67.64355469 52.53271484 C69.27597431 51.02375553 70.90719809 49.51372751 72.5324707 47.99707031 C85.24700898 36.17825332 85.24700898 36.17825332 90.24121094 33.68115234 C90.24121094 70.97115234 90.24121094 108.26115234 90.24121094 146.68115234 C50.67871094 146.99365234 50.67871094 146.99365234 38.21557617 147.0690918 C34.50871489 147.10568311 34.50871489 147.10568311 30.80189514 147.14616394 C29.15891329 147.16224731 27.51586871 147.17258028 25.87281799 147.17826843 C23.37475353 147.18805745 20.87750011 147.21645138 18.37963867 147.2487793 C17.65535644 147.24735333 16.9310742 147.24592737 16.18484402 147.2444582 C9.92549568 147.35955586 5.42970002 148.89982402 0.55371094 152.86865234 C-6.62384855 161.59811658 -6.51234533 169.83762822 -6.75878906 180.68115234 C-10.05878906 180.68115234 -13.35878906 180.68115234 -16.75878906 180.68115234 C-16.87996094 179.72853516 -17.00113281 178.77591797 -17.12597656 177.79443359 C-17.29355469 176.54017578 -17.46113281 175.28591797 -17.63378906 173.99365234 C-17.87742187 172.13160156 -17.87742187 172.13160156 -18.12597656 170.23193359 C-18.62027455 166.73672365 -18.62027455 166.73672365 -19.91503906 163.85693359 C-20.19347656 163.13892578 -20.47191406 162.42091797 -20.75878906 161.68115234 C-20.30503906 160.97990234 -19.85128906 160.27865234 -19.38378906 159.55615234 C-16.86445746 155.09887335 -17.18877371 150.69165765 -17.75878906 145.68115234 C-18.50126107 143.41709641 -18.50126107 143.41709641 -19.44628906 141.36865234 C-19.87941406 140.15177734 -20.31253906 138.93490234 -20.75878906 137.68115234 C-19.79564843 135.66314339 -18.78920333 133.6656539 -17.75878906 131.68115234 C-17.13974679 126.21676681 -16.84923145 120.83791409 -19.44628906 115.86865234 C-20.75878906 112.68115234 -20.75878906 112.68115234 -19.44628906 109.43115234 C-19.15109375 108.85751953 -18.85589844 108.28388672 -18.55175781 107.69287109 C-16.6278612 102.81204964 -16.71971522 97.10565797 -18.77832031 92.30224609 C-20.3765857 89.68031827 -21.88897999 87.36812682 -24.31326294 85.45343018 C-26.39885728 82.8964009 -26.19442516 80.94069424 -26.27392578 77.66845703 C-26.3268428 75.81072662 -26.3268428 75.81072662 -26.38082886 73.91546631 C-26.4020152 72.56134938 -26.42118079 71.20719955 -26.43847656 69.85302734 C-26.44945499 69.16946419 -26.46043343 68.48590103 -26.47174454 67.78162384 C-26.5284169 64.16203861 -26.56626366 60.54280021 -26.58935547 56.92285156 C-26.61693967 53.1942178 -26.70969106 49.47022255 -26.81767082 45.74317551 C-26.88882256 42.86733423 -26.91055528 39.99258908 -26.9192543 37.11594391 C-26.93197375 35.74263207 -26.96312108 34.36935594 -27.01351547 32.9969101 C-27.16188593 28.67637362 -27.10211317 24.80808952 -25.75878906 20.68115234 C-23.17131932 18.17091755 -20.72997417 16.65466821 -17.50808716 15.05548096 C-12.44524778 12.52465135 -8.74605216 8.6066893 -6.17944336 3.60083008 C-3.75878906 0.68115234 -3.75878906 0.68115234 0 0 Z " fill="#25A4FC" transform="translate(113.7587890625,301.31884765625)"/>
<path d="M0 0 C3.71016869 0.0161418 7.41925796 0.00004864 11.12939453 -0.01904297 C13.52392815 -0.0170613 15.9184611 -0.01321922 18.31298828 -0.00732422 C19.40391785 -0.01339691 20.49484741 -0.0194696 21.61883545 -0.02572632 C41.26963805 0.15148987 60.03618261 8.66497321 74.26611328 22.07861328 C88.93165689 37.6366324 96.6322497 57.30816203 96.14111328 78.64111328 C96.12757813 79.77935547 96.11404297 80.91759766 96.10009766 82.09033203 C96.06521382 84.85778315 96.01620645 87.62417433 95.95361328 90.39111328 C92.9494615 89.22925806 90.08864933 88.00317425 87.27392578 86.43798828 C50.7616743 66.42486887 8.02390422 58.56178286 -33.04638672 67.39111328 C-34.21572754 67.64054687 -34.21572754 67.64054687 -35.40869141 67.89501953 C-53.7343151 71.95568297 -70.44511133 79.0386083 -86.61669922 88.48486328 C-90.04638672 90.39111328 -90.04638672 90.39111328 -92.04638672 90.39111328 C-92.3738423 72.46669851 -92.40451067 53.92829921 -82.04638672 38.39111328 C-81.55182576 34.12221479 -81.55182576 34.12221479 -83.54638672 30.51611328 C-84.04138672 30.14486328 -84.53638672 29.77361328 -85.04638672 29.39111328 C-82.08621435 22.8583191 -76.7969305 17.57332694 -71.04638672 13.39111328 C-70.38638672 14.05111328 -69.72638672 14.71111328 -69.04638672 15.39111328 C-62.60185551 16.62517245 -59.16976545 13.79767362 -53.91748047 10.27001953 C-37.49525753 -0.47704065 -18.92828216 -0.098074 0 0 Z " fill="#25A5FC" transform="translate(213.04638671875,29.60888671875)"/>
<path d="M0 0 C7.67211202 -0.02526605 15.3442134 -0.04283123 23.01635742 -0.05493164 C25.62866619 -0.05997377 28.24097211 -0.06680725 30.85327148 -0.07543945 C34.59880268 -0.08751036 38.34429672 -0.09322935 42.08984375 -0.09765625 C43.26586655 -0.10281754 44.44188934 -0.10797882 45.65354919 -0.11329651 C46.73459427 -0.11337204 47.81563934 -0.11344757 48.92944336 -0.11352539 C49.88652695 -0.115746 50.84361053 -0.11796661 51.82969666 -0.12025452 C54 0 54 0 55 1 C55.10888578 3.60615585 55.15224396 6.18621383 55.15390015 8.79327393 C55.16047353 10.03270551 55.16047353 10.03270551 55.1671797 11.29717612 C55.18061827 14.08776805 55.18675787 16.87832838 55.19287109 19.66894531 C55.20076811 21.66095627 55.20903681 23.65296578 55.21765137 25.64497375 C55.24391882 32.20601018 55.25918415 38.76705314 55.2734375 45.328125 C55.27879532 47.58312739 55.28417282 49.83812973 55.28956985 52.09313202 C55.3112059 61.4710192 55.32994383 70.84890462 55.34119225 80.22681046 C55.35743807 93.68460267 55.39062309 107.14210642 55.44759309 120.59978986 C55.48624791 130.05203933 55.50581968 139.5042115 55.51111281 148.95653796 C55.51477251 154.60687039 55.52685936 160.2568955 55.55921555 165.90714264 C55.58921744 171.22265841 55.5956361 176.53767965 55.58383179 181.85326195 C55.58361039 183.80560076 55.59196999 185.75796199 55.60948563 187.71022224 C55.63208348 190.37367854 55.62392658 193.03532748 55.60800171 195.6987915 C55.62882484 196.86071577 55.62882484 196.86071577 55.65006864 198.04611325 C55.59163642 202.00610573 55.14025543 203.81955862 52.68107033 206.98334885 C49.12158073 209.66073061 46.93250367 209.57634469 42.51171875 209.48828125 C41.4569207 209.47766914 41.4569207 209.47766914 40.3808136 209.46684265 C38.14859773 209.43899212 35.91894923 209.3762832 33.6875 209.3125 C32.16865619 209.28740451 30.6497728 209.26459352 29.13085938 209.24414062 C25.41974752 209.18920007 21.71012459 209.10299739 18 209 C18.33 208.01 18.66 207.02 19 206 C19.10573046 203.27738299 19.15484225 200.57970895 19.15821838 197.85664368 C19.16315636 197.01695217 19.16809434 196.17726066 19.17318195 195.31212395 C19.18858364 192.48843949 19.19692481 189.6647778 19.20532227 186.84106445 C19.21489869 184.82094115 19.22490863 182.80081985 19.23532104 180.78070068 C19.26240171 175.28726473 19.28339415 169.79382017 19.30332303 164.30035424 C19.32516309 158.5627842 19.35256146 152.82524081 19.37937927 147.08769226 C19.42933296 136.21864638 19.47426186 125.34958572 19.51740164 114.48051089 C19.56675115 102.10822863 19.62167775 89.73597312 19.67708123 77.36371672 C19.79094236 51.90916925 19.89757457 26.45459584 20 1 C13.4 1 6.8 1 0 1 C0 0.67 0 0.34 0 0 Z " fill="#465960" transform="translate(442,273)"/>
<path d="M0 0 C1.42192997 -0.00524576 2.84385646 -0.01152569 4.26577759 -0.01878357 C7.23627167 -0.02915003 10.20628563 -0.02468253 13.17675781 -0.01000977 C16.95837061 0.00715307 20.73846025 -0.01630343 24.51990318 -0.05149937 C27.4541912 -0.07360577 30.38812233 -0.072 33.3224678 -0.06373405 C34.71534519 -0.06292135 36.10825061 -0.06965269 37.50104904 -0.08450508 C47.47881655 -0.1745979 55.03207965 1.06530538 62.7890625 7.62890625 C63.5625 8.58796875 63.5625 8.58796875 64.3515625 9.56640625 C64.8878125 10.20578125 65.4240625 10.84515625 65.9765625 11.50390625 C70.16237682 17.78262773 70.06905167 24.24093045 69.3515625 31.56640625 C67.74487849 37.01176233 64.68468257 40.92264619 60.3515625 44.56640625 C59.61871536 45.20743034 59.61871536 45.20743034 58.87106323 45.86140442 C52.26278375 50.83554509 44.94186698 50.31225331 37.046875 50.265625 C35.55768262 50.27154497 34.06849501 50.2787963 32.57931519 50.28730774 C29.4674997 50.29914628 26.35640131 50.29255288 23.24462891 50.27319336 C19.28119099 50.25034026 15.31990206 50.27706538 11.3566761 50.31825542 C8.28337368 50.34398933 5.21057465 50.34121127 2.13720322 50.33036232 C0.67733689 50.32888796 -0.78257043 50.33642125 -2.24233627 50.3536129 C-11.40416725 50.44399809 -18.34063499 49.54345751 -25.6484375 43.56640625 C-27.90234375 41.15234375 -27.90234375 41.15234375 -29.2109375 38.94140625 C-29.89349609 37.83925781 -29.89349609 37.83925781 -30.58984375 36.71484375 C-33.7473927 30.30653408 -33.73446826 22.06516543 -31.5859375 15.31640625 C-28.75849085 8.86877089 -23.49669198 4.49160218 -17.25559998 1.4369812 C-11.70324119 -0.41704383 -5.79502494 -0.0261419 0 0 Z " fill="#010303" transform="translate(339.6484375,352.43359375)"/>
<path d="M0 0 C0.0093457 1.23564697 0.01869141 2.47129395 0.02832031 3.74438477 C0.06833736 8.34988822 0.13412875 12.9547319 0.20751953 17.55981445 C0.23566132 19.54898573 0.25690951 21.53826743 0.27099609 23.52758789 C0.29251982 26.3952662 0.33921812 29.26162649 0.390625 32.12890625 C0.39185364 33.01147598 0.39308228 33.89404572 0.39434814 34.80335999 C0.5319785 40.66871176 1.41063889 44.2838075 5 49 C11.33201657 53.27432968 18.13509226 52.47748716 25.5 52.4375 C26.80582031 52.45748047 28.11164062 52.47746094 29.45703125 52.49804688 C30.71902344 52.49740234 31.98101562 52.49675781 33.28125 52.49609375 C34.42658203 52.49794678 35.57191406 52.4997998 36.75195312 52.50170898 C41.65956363 51.7436558 44.62710974 49.58785334 47.84301758 45.8684082 C49.55107083 41.63377692 49.48009029 37.63332266 49.51171875 33.10546875 C49.53864555 31.68443596 49.53864555 31.68443596 49.56611633 30.23469543 C49.62015087 27.21900843 49.65409327 24.2034791 49.6875 21.1875 C49.7206791 19.13864997 49.75516931 17.08982072 49.79101562 15.04101562 C49.87587356 10.02745762 49.94271765 5.01394583 50 0 C59.36475891 3.5162401 63.73952466 11.68499205 67.87109375 20.3984375 C72.14364299 30.24451982 71.58293559 44.14806639 68 54.1875 C62.55852983 66.0207816 53.23295854 75.32768945 41 80 C28.02025161 83.75693867 15.08503127 83.51998962 3 77 C-7.27217862 70.5288416 -13.66929704 62.25658373 -18 51 C-18.36738281 50.05640625 -18.73476563 49.1128125 -19.11328125 48.140625 C-21.98836189 37.95752 -20.5619353 26.43247211 -16 17 C-6.11798561 0 -6.11798561 0 0 0 Z " fill="#FBCE59" transform="translate(35,232)"/>
<path d="M0 0 C2.19689119 -0.00219275 4.3932851 -0.02037928 6.59008789 -0.03930664 C7.9826643 -0.04223956 9.37524309 -0.04422503 10.76782227 -0.04516602 C12.67156616 -0.05132935 12.67156616 -0.05132935 14.61376953 -0.05761719 C17.63891602 0.18530273 17.63891602 0.18530273 19.63891602 2.18530273 C20.26391602 4.93530273 20.26391602 4.93530273 19.63891602 8.18530273 C17.84985352 9.70092773 17.84985352 9.70092773 15.63891602 11.18530273 C12.17418532 13.4210058 12.17418532 13.4210058 10.88891602 17.31030273 C12.0009769 21.57320279 14.20795394 23.31082591 17.88891602 25.56030273 C19.63891602 27.18530273 19.63891602 27.18530273 20.38891602 29.99780273 C19.49590841 33.79308505 18.75527919 34.08009995 15.63891602 36.18530273 C12.17418532 38.4210058 12.17418532 38.4210058 10.88891602 42.31030273 C12.16279124 47.19349111 15.67566209 49.35440707 19.63891602 52.18530273 C19.51391602 55.43530273 19.51391602 55.43530273 18.63891602 59.18530273 C15.63891602 61.56030273 15.63891602 61.56030273 12.63891602 63.18530273 C11.33144892 64.28453815 11.33144892 64.28453815 11.32641602 66.99780273 C11.35101123 70.23314401 11.35101123 70.23314401 13.38891602 72.37280273 C15.44161659 74.02636709 17.49390372 75.6531511 19.63891602 77.18530273 C19.38330278 79.52842404 19.04620829 81.86373676 18.63891602 84.18530273 C14.2764285 86.36654649 8.47178935 85.49483848 3.62792969 85.53540039 C2.18570757 85.55190142 0.74356526 85.57911444 -0.69824219 85.61743164 C-14.19056453 85.97383846 -14.19056453 85.97383846 -18.66186523 83.03686523 C-23.12251914 78.32445228 -24.73509375 74.27583785 -24.74926758 67.81616211 C-24.75872406 66.57467407 -24.76818054 65.33318604 -24.77792358 64.05407715 C-24.77255335 62.71239907 -24.76640027 61.37072393 -24.75952148 60.02905273 C-24.76154495 58.63952482 -24.76445866 57.24999794 -24.76821899 55.86047363 C-24.77262958 52.95546304 -24.76625255 50.05073014 -24.75219727 47.14575195 C-24.73510572 43.43352908 -24.74495377 39.72195703 -24.76291466 36.009758 C-24.77378703 33.14258983 -24.77029044 30.27557441 -24.76253128 27.40840149 C-24.76053879 26.04014508 -24.76295494 24.67187452 -24.76996994 23.30363464 C-24.77764055 21.38724048 -24.76386455 19.47079729 -24.74926758 17.55444336 C-24.7468808 16.46667603 -24.74449402 15.37890869 -24.74203491 14.25817871 C-24.14156277 9.41457214 -22.42667536 6.17097476 -18.86108398 2.87280273 C-13.16827825 -0.96984114 -6.59967627 -0.00074062 0 0 Z " fill="#FCDCCC" transform="translate(62.361083984375,396.814697265625)"/>
<path d="M0 0 C7.82734925 2.15926876 18.1129451 6.1129451 24 12 C24.11509822 13.95551223 24.15968114 15.91520347 24.17700195 17.87402344 C24.19625481 19.76299347 24.19625481 19.76299347 24.21589661 21.69012451 C24.22407187 23.07987066 24.23151408 24.46962128 24.23828125 25.859375 C24.24235678 26.55934853 24.2464323 27.25932205 24.25063133 27.9805069 C24.27153851 31.69777636 24.2858102 35.41500859 24.29516602 39.13232422 C24.30613614 42.94157296 24.34041058 46.75022212 24.38033772 50.55926132 C24.40674211 53.51075173 24.41487951 56.46210585 24.41844749 59.41370392 C24.42326609 60.8152895 24.43474193 62.216871 24.45348549 63.61833954 C24.64921084 79.24650286 20.66663247 94.81190293 9.58203125 106.4296875 C9.05996094 106.94789063 8.53789062 107.46609375 8 108 C7.50886719 108.58007812 7.01773437 109.16015625 6.51171875 109.7578125 C2.2753333 113.94550386 -1.60948004 114.32860277 -7.3449707 114.40649414 C-11.23804123 114.36031427 -15.11224137 114.21163202 -19 114 C-18.61473145 113.57154785 -18.22946289 113.1430957 -17.83251953 112.70166016 C-14.39398491 108.79825698 -11.49002346 104.89570857 -8.875 100.375 C-7.91207031 98.74691406 -7.91207031 98.74691406 -6.9296875 97.0859375 C-0.35497928 83.88060215 -0.50351744 71.6311454 -0.75 57.1875 C-0.77010431 55.12697057 -0.78834809 53.0664221 -0.8046875 51.00585938 C-0.8483515 46.00342862 -0.91716023 41.00192909 -1 36 C-1.99 36.66 -2.98 37.32 -4 38 C-7.36050693 38.42900088 -9.24864614 38.46551272 -12.15625 36.6640625 C-15.1071792 32.40021988 -14.6180591 28.05914594 -14.5625 23 C-14.58634766 22.00226563 -14.61019531 21.00453125 -14.63476562 19.9765625 C-14.62012793 12.69675 -14.62012793 12.69675 -11.62890625 9.3359375 C-8.7319028 7.86376041 -7.1970495 7.49520271 -4 8 C-3.01 8.66 -2.02 9.32 -1 10 C-0.67 6.7 -0.34 3.4 0 0 Z " fill="#FCCCBD" transform="translate(262,144)"/>
<path d="M0 0 C1.2571582 0.00491455 2.51431641 0.0098291 3.80957031 0.01489258 C37.95554648 0.43878266 72.33904506 11.47287406 98.9375 33.3125 C99.84628906 33.99570313 100.75507813 34.67890625 101.69140625 35.3828125 C103.9375 37.3125 103.9375 37.3125 105 40.3125 C104.9375 43.3125 104.9375 43.3125 103.3125 45.6875 C100.42144345 47.66559133 99.38285415 47.79336238 95.9375 47.3125 C93.16796875 45.44140625 93.16796875 45.44140625 90.125 42.875 C60.45467276 18.88103316 21.72229959 9.97542167 -15.76513672 13.57177734 C-20.28040669 14.18348689 -24.64471561 15.19235088 -29.0625 16.3125 C-30.10921875 16.50585938 -31.1559375 16.69921875 -32.234375 16.8984375 C-53.17026952 20.90854665 -72.48761995 32.31097718 -89.0625 45.3125 C-92.29503796 47.46752531 -93.31400923 47.78106135 -97.0625 47.3125 C-98.875 46.1875 -98.875 46.1875 -100.0625 44.3125 C-100.5625 41.4375 -100.5625 41.4375 -100.0625 38.3125 C-76.49084592 12.00790052 -34.12968473 -0.16028779 0 0 Z " fill="#DAF0F7" transform="translate(213.0625,107.6875)"/>
<path d="M0 0 C16.98444672 2.94847538 33.5239761 14.46349703 43.4375 28.32421875 C53.49273468 43.03416275 58.59907706 58.37278088 58.1875 76.25 C58.16719727 77.95736328 58.16719727 77.95736328 58.14648438 79.69921875 C58.11160054 82.46666987 58.06259317 85.23306105 58 88 C54.97066177 86.82906937 52.08946172 85.58730148 49.25 84.01171875 C48.56478271 83.63716553 47.87956543 83.2626123 47.17358398 82.87670898 C46.09765991 82.28805054 46.09765991 82.28805054 45 81.6875 C37.84265963 77.82339057 30.69763345 74.66405053 23 72 C22.9906543 71.35675781 22.98130859 70.71351562 22.97167969 70.05078125 C22.51997353 45.21579976 18.35423948 21.35423948 0 3 C0 2.01 0 1.02 0 0 Z " fill="#0591F9" transform="translate(251,32)"/>
<path d="M0 0 C0.74214752 -0.00073013 1.48429504 -0.00146027 2.24893188 -0.00221252 C4.6844578 0.00125105 7.11803392 0.04004942 9.55322266 0.0793457 C11.24857539 0.08867831 12.94394167 0.09579231 14.63931274 0.1007843 C19.08825308 0.11981909 23.53636927 0.16888871 27.98498535 0.2243042 C32.52975314 0.27557319 37.0746549 0.29831461 41.61962891 0.32348633 C50.52760021 0.37701189 59.43474502 0.46491814 68.34228516 0.56762695 C68.34228516 7.16762695 68.34228516 13.76762695 68.34228516 20.56762695 C41.28228516 20.56762695 14.22228516 20.56762695 -13.65771484 20.56762695 C-13.65771484 5.56762695 -13.65771484 5.56762695 -11.13632202 2.16560364 C-7.26733097 0.38829531 -4.17882408 -0.1090144 0 0 Z " fill="#44575E" transform="translate(135.65771484375,461.432373046875)"/>
<path d="M0 0 C8.25 0 16.5 0 25 0 C25 17.82 25 35.64 25 54 C16.75 54 8.5 54 0 54 C-0.22786458 50.71223958 -0.45572917 47.42447917 -0.68359375 44.13671875 C-0.8867371 40.97409042 -0.8867371 40.97409042 -2 38 C-3.98 37.34 -5.96 36.68 -8 36 C-8 29.73 -8 23.46 -8 17 C-6.02 16.34 -4.04 15.68 -2 15 C-1.34 10.05 -0.68 5.1 0 0 Z " fill="#F8DB74" transform="translate(48,328)"/>
<path d="M0 0 C3.35459258 0.99395336 4.31543443 1.34518426 6.375 4 C7 6.3046875 7 6.3046875 7.375 8.875 C8.41130763 14.5788372 9.47480928 17.66788196 14.3671875 21.09765625 C18.91972689 23.61620726 23.20485722 23.62763873 28.3125 23.5625 C29.16779297 23.58634766 30.02308594 23.61019531 30.90429688 23.63476562 C37.13573479 23.62050604 41.65414319 22.17718107 46.375 18 C48.45724041 14.32137527 49.42154357 10.8304307 50.3125 6.75 C51.375 3 51.375 3 53.1875 1 C55.9515142 -0.26354935 57.36980597 -0.58637932 60.375 0 C63.1875 2 63.1875 2 65.375 5 C66.41373944 12.79054582 64.16426825 19.78340373 59.6875 26.1875 C54.03744513 33.19077788 46.73412653 38.3025292 37.62597656 39.30151367 C34.55734296 39.43817245 31.5089699 39.45849824 28.4375 39.4375 C27.40431641 39.45748047 26.37113281 39.47746094 25.30664062 39.49804688 C18.43180896 39.49369296 13.37019507 38.37125488 7.375 35 C6.17810547 34.33097656 6.17810547 34.33097656 4.95703125 33.6484375 C-2.3272527 28.40632587 -6.95696698 20.84057499 -8.625 12 C-9.16577739 7.51927305 -9.14103009 5.75058922 -6.5625 2 C-3.625 0 -3.625 0 0 0 Z " fill="#060504" transform="translate(186.625,211)"/>
<path d="M0 0 C1.31141464 -0.00241196 2.62282928 -0.00482391 3.97398376 -0.00730896 C6.74216925 -0.01015903 9.50954205 0.00445614 12.27758789 0.03198242 C15.81750966 0.06609945 19.35598256 0.06002958 22.89597416 0.04131985 C26.28495911 0.02818516 29.67352516 0.04646986 33.0625 0.0625 C34.330298 0.05754013 35.59809601 0.05258026 36.90431213 0.04747009 C38.6765641 0.07122459 38.6765641 0.07122459 40.48461914 0.09545898 C41.52131241 0.10165756 42.55800568 0.10785614 43.62611389 0.11424255 C47.18620828 0.75969014 48.87460046 2.15354733 51.46484375 4.62890625 C53.01508839 7.72939553 52.7547639 10.20784843 52.46484375 13.62890625 C50.6692197 16.38219646 49.41229453 18.15518086 46.46484375 19.62890625 C44.55168361 19.75072592 42.6343506 19.80904804 40.7175293 19.83764648 C38.91006477 19.86658241 38.91006477 19.86658241 37.06608582 19.89610291 C31.55295012 19.95367043 26.03996461 20.00342302 20.52661133 20.03393555 C17.61535544 20.05174562 14.70506884 20.08655748 11.79418945 20.13647461 C8.27747577 20.19670903 4.7616603 20.2274147 1.24445534 20.23710823 C-0.74377292 20.24981048 -2.73174379 20.29185234 -4.71955872 20.33433533 C-13.51583534 20.31423926 -13.51583534 20.31423926 -16.47160339 18.32695007 C-18.72819325 15.7075073 -20.2441242 13.05137023 -20.22265625 9.56640625 C-19.5248537 5.56990076 -18.86536279 4.09853055 -15.68118286 1.64578247 C-10.83872154 -0.6487761 -5.24597838 -0.05494843 0 0 Z " fill="#6BF4C1" transform="translate(341.53515625,367.37109375)"/>
<path d="M0 0 C-0.00902344 0.9178125 -0.01804688 1.835625 -0.02734375 2.78125 C0.14672674 9.98625448 0.38227927 14.8993174 5.69921875 19.99609375 C6.83810547 20.98802734 6.83810547 20.98802734 8 22 C8.98879327 22.92506576 9.97424228 23.85371401 10.95703125 24.78515625 C15.49073036 29.04578314 20.09971013 33.15874713 25 37 C23.48947977 40.67670584 21.3511385 42.71874462 18.375 45.3125 C17.47523438 46.10269531 16.57546875 46.89289063 15.6484375 47.70703125 C14.77445313 48.46371094 13.90046875 49.22039062 13 50 C11.66635729 51.166313 10.33299624 52.33294819 9 53.5 C8.36578125 54.05042969 7.7315625 54.60085938 7.078125 55.16796875 C5.51099203 56.54952018 3.96190805 57.95158429 2.421875 59.36328125 C1.54015625 60.17152344 0.6584375 60.97976563 -0.25 61.8125 C-1.46429688 62.93591797 -1.46429688 62.93591797 -2.703125 64.08203125 C-4.77361383 65.81095985 -6.58650417 66.85577953 -9 68 C-9.16248415 60.02001212 -9.28671318 52.04071974 -9.3626852 44.05948448 C-9.39915646 40.35302515 -9.44858712 36.64770069 -9.52807617 32.94189453 C-9.60436608 29.36266635 -9.64603622 25.78452658 -9.6641407 22.20454788 C-9.67703473 20.84170016 -9.70221637 19.47890938 -9.7401104 18.11652756 C-10.0242494 7.47379319 -10.0242494 7.47379319 -7.46536255 3.79180908 C-3.20525586 0 -3.20525586 0 0 0 Z " fill="#EEF7FB" transform="translate(171,283)"/>
<path d="M0 0 C3.12496939 -0.05552799 6.24969086 -0.09356729 9.375 -0.125 C10.26445313 -0.14175781 11.15390625 -0.15851563 12.0703125 -0.17578125 C12.92109375 -0.18222656 13.771875 -0.18867188 14.6484375 -0.1953125 C15.82672119 -0.21102295 15.82672119 -0.21102295 17.02880859 -0.22705078 C19 0 19 0 21 2 C21.625 4.75 21.625 4.75 21 8 C19.2109375 9.515625 19.2109375 9.515625 17 11 C13.53526931 13.23570307 13.53526931 13.23570307 12.25 17.125 C13.36206088 21.38790005 15.56903793 23.12552318 19.25 25.375 C21 27 21 27 21.75 29.8125 C20.8569924 33.60778231 20.11636318 33.89479722 17 36 C13.53526931 38.23570307 13.53526931 38.23570307 12.25 42.125 C13.52387523 47.00818838 17.03674607 49.16910434 21 52 C20.875 55.25 20.875 55.25 20 59 C17 61.375 17 61.375 14 63 C12.69253291 64.09923541 12.69253291 64.09923541 12.6875 66.8125 C12.71209522 70.04784127 12.71209522 70.04784127 14.75 72.1875 C16.80270058 73.84106435 18.85498771 75.46784836 21 77 C20.74438677 79.3431213 20.40729228 81.67843403 20 84 C17.703463 85.1482685 16.41686833 85.11561175 13.8671875 85.09765625 C13.06152344 85.09443359 12.25585938 85.09121094 11.42578125 85.08789062 C10.16314453 85.07532227 10.16314453 85.07532227 8.875 85.0625 C8.02550781 85.05798828 7.17601563 85.05347656 6.30078125 85.04882812 C4.20049091 85.03702874 2.1002367 85.01909306 0 85 C0.42388 84.29031067 0.42388 84.29031067 0.85632324 83.56628418 C4.74020456 76.16867929 4.58469382 68.96834031 4.53125 60.78125 C4.53395078 59.31351465 4.53783805 57.84578105 4.54284668 56.37805176 C4.54871432 53.31517351 4.5402683 50.25276469 4.52148438 47.18994141 C4.49869565 43.28625359 4.51183363 39.38366618 4.53577423 35.48001862 C4.55030706 32.45314412 4.5455923 29.42652564 4.53526306 26.39964294 C4.53261636 24.96129726 4.5357922 23.52292746 4.54518127 22.08460999 C4.58702975 13.87430133 4.27792841 7.16240473 0 0 Z " fill="#FCCBBD" transform="translate(61,397)"/>
<path d="M0 0 C3.5625 0.375 3.5625 0.375 6.5625 2.5 C8.5625 5.375 8.5625 5.375 8.625 8.4375 C7.40861372 11.80045031 6.40701407 13.22239476 3.5625 15.375 C0.3125 16.625 0.3125 16.625 -2.4375 17.375 C-2.48039755 19.30609581 -2.48039755 19.30609581 -1.4375 21.375 C0.88229381 22.40601947 3.21679915 23.40436517 5.5625 24.375 C7.5625 26.1875 7.5625 26.1875 8.5625 28.375 C8.49412168 31.72553788 8.16840442 33.61761947 6.0625 36.25 C2.21892222 37.97961 -1.29725623 38.01695417 -5.4375 37.375 C-10.94256663 34.62246668 -15.46504875 30.29235374 -17.4375 24.375 C-17.92264482 18.86343667 -18.20487316 13.99828938 -15.8125 8.9375 C-10.8539394 3.58747409 -7.31963622 0.79850577 0 0 Z " fill="#050404" transform="translate(214.4375,162.625)"/>
<path d="M0 0 C1.98 0.66 3.96 1.32 6 2 C8.86815458 2.01940565 11.65428809 1.81521024 14.51171875 1.58203125 C17 2 17 2 18.8046875 3.9609375 C20.39483746 8.00386779 20.47662103 11.50563052 20.4375 15.8125 C20.4674707 16.96588867 20.4674707 16.96588867 20.49804688 18.14257812 C20.49273565 24.43638303 18.93225493 29.82288353 14.58789062 34.5300293 C9.79854752 38.7528992 6.3261608 40 0 40 C0 26.8 0 13.6 0 0 Z " fill="#FCAE9C" transform="translate(301,167)"/>
<path d="M0 0 C0 12.87 0 25.74 0 39 C-6.66760218 39 -8.97051396 37.92256924 -14 34 C-19.40162581 28.3140781 -20.34529426 23.11173796 -20.3125 15.5625 C-20.32861328 14.82451172 -20.34472656 14.08652344 -20.36132812 13.32617188 C-20.36564302 8.47191714 -19.55915264 5.26075281 -17 1 C-16.32453125 1.01160156 -15.6490625 1.02320313 -14.953125 1.03515625 C-14.06109375 1.04417969 -13.1690625 1.05320313 -12.25 1.0625 C-11.36828125 1.07410156 -10.4865625 1.08570313 -9.578125 1.09765625 C-6.25984053 0.97196366 -3.32958091 0 0 0 Z " fill="#FACABB" transform="translate(129,168)"/>
<path d="M0 0 C3.72890255 -0.1164862 7.45733514 -0.18734576 11.1875 -0.25 C12.77014648 -0.30027344 12.77014648 -0.30027344 14.38476562 -0.3515625 C22.24290413 -0.45071882 22.24290413 -0.45071882 26.17578125 1.890625 C28.55706391 4.64414243 28.9645422 5.62414728 29.3125 9.3125 C28.95124058 13.57536111 27.98007946 15.01992054 25 18 C22.49502996 19.25248502 20.79146726 19.11374406 17.9921875 19.09765625 C17.00605469 19.09443359 16.01992188 19.09121094 15.00390625 19.08789062 C13.97136719 19.07951172 12.93882812 19.07113281 11.875 19.0625 C10.31458984 19.05573242 10.31458984 19.05573242 8.72265625 19.04882812 C6.14838038 19.03701952 3.57421854 19.02055075 1 19 C1.24230347 17.83307617 1.24230347 17.83307617 1.48950195 16.64257812 C1.96190435 14.19720103 2.1656255 11.98494265 2.1875 9.5 C2.20167969 8.7678125 2.21585937 8.035625 2.23046875 7.28125 C1.95846006 4.58882503 1.0394318 2.48619109 0 0 Z " fill="#00F0A5" transform="translate(365,368)"/>
<path d="M0 0 C2.77505548 2.04521176 4.72305106 3.64587198 5.43505859 7.12719727 C5.56479609 9.62323381 5.53450245 12.06516232 5.4375 14.5625 C5.43169922 15.41263672 5.42589844 16.26277344 5.41992188 17.13867188 C5.33846253 21.29309836 5.26344536 24.40003501 3 28 C-0.49124017 30.32749345 -1.89222251 30.50299316 -6 30 C-8.15625 28.6640625 -8.15625 28.6640625 -10 26 C-10.62930074 22.32747332 -10.60333203 18.71811658 -10.5625 15 C-10.59827148 13.50339844 -10.59827148 13.50339844 -10.63476562 11.9765625 C-10.62011716 4.691395 -10.62011716 4.691395 -7.62109375 1.34765625 C-4.63061671 -0.18992136 -3.29186226 -0.74066901 0 0 Z " fill="#080706" transform="translate(258,152)"/>
<path d="M0 0 C3.79428365 1.37240047 4.82808932 2.62295138 6.9375 6.0625 C7.46215094 9.10051005 7.40678879 12.05068927 7.3125 15.125 C7.31121094 15.92744141 7.30992187 16.72988281 7.30859375 17.55664062 C7.24802726 21.61123035 7.13855268 24.54256624 4.9375 28.0625 C1.44625983 30.38999345 0.04527749 30.56549316 -4.0625 30.0625 C-6.21875 28.7265625 -6.21875 28.7265625 -8.0625 26.0625 C-8.69180074 22.38997332 -8.66583203 18.78061658 -8.625 15.0625 C-8.66077148 13.56589844 -8.66077148 13.56589844 -8.69726562 12.0390625 C-8.68265473 4.77257717 -8.68265473 4.77257717 -5.71875 1.37890625 C-3.0625 0.0625 -3.0625 0.0625 0 0 Z " fill="#080706" transform="translate(176.0625,151.9375)"/>
<path d="M0 0 C14.20713766 6.13649882 27.45222563 13.57420669 39 24 C40.125 27.0625 40.125 27.0625 40 30 C38.375 32.375 38.375 32.375 36 34 C32.25207346 34.68144119 31.01230437 34.00807381 27.7734375 31.8828125 C26.63089909 30.97565816 25.49825899 30.05592012 24.375 29.125 C23.23745161 28.21034961 22.09944625 27.2962672 20.9609375 26.3828125 C19.98382813 25.59648437 19.00671875 24.81015625 18 24 C17.01 23.34 16.02 22.68 15 22 C14.4453125 20.01171875 14.4453125 20.01171875 14.125 17.6875 C12.68826201 10.43429045 7.33100434 7.36497346 1.57421875 3.33203125 C1.05472656 2.89246094 0.53523438 2.45289062 0 2 C0 1.34 0 0.68 0 0 Z " fill="#C2E7F6" transform="translate(278,121)"/>
<path d="M0 0 C5.94 0 11.88 0 18 0 C18 8.58 18 17.16 18 26 C14.1427728 23.68566368 11.9620549 22.17385203 9 19.0625 C6.6860019 16.63455502 4.89296721 14.93533436 2 13.1875 C-0.57005286 10.37650469 -0.2981889 8.99473887 -0.3125 5.25 C-0.209375 3.5175 -0.10625 1.785 0 0 Z " fill="#F8C8BA" transform="translate(186,281)"/>
</svg>
