<?xml version="1.0" encoding="UTF-8"?>
<svg version="1.1" xmlns="http://www.w3.org/2000/svg" width="512" height="512">
<path d="M0 0 C1.55825267 0.00113056 3.11650747 0.00049056 4.67475891 -0.00177002 C8.87251122 -0.00290999 13.06979924 0.02048192 17.26744437 0.04852581 C21.66629367 0.0736601 26.06515553 0.07589089 30.46406555 0.08062744 C38.77947014 0.09302207 47.09466247 0.12579574 55.40997392 0.1660254 C66.65670781 0.21924739 77.90350043 0.24071699 89.15032864 0.26403427 C106.84948266 0.30155999 124.54818892 0.38127398 142.24731445 0.45410156 C142.24731445 32.13410156 142.24731445 63.81410156 142.24731445 96.45410156 C146.86731445 96.45410156 151.48731445 96.45410156 156.24731445 96.45410156 C163.34881265 98.78745097 168.01243911 103.31055001 172.24731445 109.45410156 C175.25041211 116.63414612 175.60765358 124.91154056 173.37231445 132.37597656 C169.73791458 140.26644997 164.87841913 144.64629011 156.80981445 147.70410156 C152.34907202 149.21982328 147.82109792 150.33878324 143.24731445 151.45410156 C143.03977539 152.700625 142.83223633 153.94714844 142.6184082 155.23144531 C138.361752 179.34614157 128.50674985 200.8526854 108.38110352 215.84423828 C97.50204078 223.45410156 97.50204078 223.45410156 94.24731445 223.45410156 C94.24731445 235.00410156 94.24731445 246.55410156 94.24731445 258.45410156 C99.69231445 259.93910156 99.69231445 259.93910156 105.24731445 261.45410156 C107.43647017 262.15466493 109.61824634 262.87927625 111.78735352 263.63964844 C112.94777161 264.04437378 114.1081897 264.44909912 115.30377197 264.86608887 C117.13980988 265.5129364 117.13980988 265.5129364 119.01293945 266.17285156 C120.33532017 266.63576801 121.65781238 267.09836604 122.98040771 267.56066895 C126.45482498 268.77616323 129.92760991 269.99625669 133.40008545 271.21728516 C136.82075138 272.41906273 140.2431137 273.61598884 143.6652832 274.81347656 C149.80065324 276.96089396 155.93205343 279.11940956 162.06218719 281.28172302 C166.23725813 282.75239508 170.41747224 284.20727282 174.60211563 285.65047455 C177.3800867 286.60988704 180.15543137 287.57675806 182.93044281 288.54469299 C184.83810877 289.20719359 186.74909862 289.86009956 188.66021729 290.51257324 C214.46584164 299.54074676 234.94104095 314.78681713 247.05981445 339.76660156 C254.32548034 354.9258304 254.85054669 370.13036152 254.77856445 386.61035156 C254.78126562 388.81034516 254.78515321 391.01033759 254.79016113 393.21032715 C254.79601685 397.78909837 254.78761424 402.36755478 254.76879883 406.94628906 C254.7459033 412.80141198 254.75922444 418.65580557 254.78308868 424.5109024 C254.79756102 429.04062373 254.79293587 433.5701727 254.78257751 438.09989929 C254.77991982 440.25917143 254.78314609 442.41845948 254.79249573 444.57771301 C254.80269695 447.5922691 254.7871146 450.60564842 254.76489258 453.62011719 C254.7729895 454.50129211 254.78108643 455.38246704 254.78942871 456.29034424 C254.69532406 463.20922033 252.87313207 468.4576417 248.2824707 473.69628906 C247.63149414 474.23511719 246.98051758 474.77394531 246.30981445 475.32910156 C245.66141602 475.88339844 245.01301758 476.43769531 244.3449707 477.00878906 C239.88274424 480.08332127 236.05790132 480.70481647 230.68858624 480.71137047 C229.71608944 480.71662958 229.71608944 480.71662958 228.72394624 480.72199494 C226.54843785 480.73130918 224.37319714 480.72638565 222.19767761 480.7215271 C220.62338792 480.72526335 219.04910008 480.72986477 217.47481519 480.73525774 C213.14613441 480.74750627 208.81753081 480.7472251 204.48883665 480.74486899 C199.82136743 480.7444613 195.15392311 480.75549548 190.48646545 480.76498413 C181.34101286 480.78160524 172.19558604 480.78709418 163.0501196 480.78820889 C155.61704593 480.78915883 148.18398078 480.79326644 140.75090981 480.79961014 C119.68203568 480.81722555 98.61318194 480.82644854 77.5443004 480.82494919 C75.84014514 480.82482932 75.84014514 480.82482932 74.1015625 480.82470703 C72.96407365 480.82462527 71.8265848 480.82454351 70.65462659 480.82445927 C52.21778043 480.82364628 33.78101595 480.84278652 15.34419342 480.87098376 C-3.58145702 480.89970048 -22.50706761 480.91352473 -41.43274039 480.91179621 C-52.06013829 480.91113189 -62.68745057 480.91664254 -73.31482887 480.93815231 C-82.36295753 480.95634815 -91.41096175 480.96072458 -100.45910076 480.94713347 C-105.0757962 480.94059576 -109.69225279 480.94051554 -114.30892563 480.95783997 C-118.53627397 480.9735403 -122.76319348 480.9707383 -126.99053117 480.9532717 C-128.51877963 480.95019509 -130.04705986 480.9538591 -131.57527087 480.96499185 C-140.75280264 481.02741393 -147.78207802 480.80987784 -154.99487305 474.48925781 C-155.53370117 473.83828125 -156.0725293 473.18730469 -156.62768555 472.51660156 C-157.18198242 471.86820312 -157.7362793 471.21980469 -158.30737305 470.55175781 C-162.01656761 465.16841327 -162.04964306 460.2886209 -162.04321289 453.96069336 C-162.04993011 453.01030685 -162.05664734 452.05992035 -162.06356812 451.08073425 C-162.08256307 447.93820963 -162.0864744 444.7958988 -162.08862305 441.65332031 C-162.09505458 439.45677097 -162.10178321 437.26022249 -162.10879517 435.06367493 C-162.120775 430.45283019 -162.12447572 425.84206037 -162.12329102 421.23120117 C-162.12308886 415.36202756 -162.1502809 409.49334379 -162.18483543 403.6242857 C-162.2072387 399.08138387 -162.21112431 394.5385969 -162.21007156 389.99564552 C-162.21241161 387.83459615 -162.22114361 385.67354283 -162.2367363 383.51254845 C-162.33994617 367.71757552 -161.25744628 353.18765667 -154.12768555 338.76660156 C-153.78995117 338.06801025 -153.4522168 337.36941895 -153.10424805 336.6496582 C-149.5218033 329.53587696 -144.96007497 323.44972706 -139.75268555 317.45410156 C-139.10686523 316.70773437 -138.46104492 315.96136719 -137.7956543 315.19238281 C-125.79424376 302.33192394 -109.55809274 295.12842363 -93.20581055 289.54785156 C-91.91791359 289.10157123 -90.63027663 288.65453994 -89.34288025 288.20681763 C-85.93377241 287.02335957 -82.5213871 285.849652 -79.10821152 284.67798615 C-75.57274659 283.46248532 -72.04037878 282.23805426 -68.5078125 281.01416016 C-64.26528765 279.54484184 -60.02251028 278.07627801 -55.77827454 276.61190796 C-47.43637413 273.73346372 -39.1028251 270.83276757 -30.7800293 267.89941406 C-29.82993988 267.56484192 -28.87985046 267.23026978 -27.90097046 266.88555908 C-24.40065759 265.65250356 -20.90053412 264.41893924 -17.40197754 263.1809082 C-15.09665698 262.36558807 -12.79006833 261.55396216 -10.4831543 260.74316406 C-9.81855698 260.5067923 -9.15395966 260.27042053 -8.46922302 260.02688599 C-3.98028597 258.45410156 -3.98028597 258.45410156 -1.75268555 258.45410156 C-1.75268555 246.90410156 -1.75268555 235.35410156 -1.75268555 223.45410156 C-4.72268555 222.46410156 -4.72268555 222.46410156 -7.75268555 221.45410156 C-27.78991371 208.84422768 -41.94803641 189.74352145 -47.9753418 166.87597656 C-49.13566799 161.76820901 -50.03069636 156.64102388 -50.75268555 151.45410156 C-51.74268555 151.22335938 -52.73268555 150.99261719 -53.75268555 150.75488281 C-64.15038534 148.22983999 -72.37927231 145.55897762 -78.75268555 136.45410156 C-83.03954621 129.35860805 -82.94648332 120.80231558 -81.16674805 112.82910156 C-78.59287122 106.02839948 -73.03567046 100.595833 -66.56494141 97.36010742 C-63.07339277 96.2352583 -60.10119267 96.26067152 -56.44018555 96.32910156 C-55.18592773 96.34714844 -53.93166992 96.36519531 -52.6394043 96.38378906 C-51.68678711 96.40699219 -50.73416992 96.43019531 -49.75268555 96.45410156 C-49.76156799 95.70178757 -49.77045044 94.94947357 -49.77960205 94.17436218 C-49.86017234 87.04049501 -49.92086328 79.90685238 -49.95993423 72.7726469 C-49.98069724 69.1059629 -50.00880399 65.4396588 -50.05444336 61.77319336 C-50.09830995 58.22643684 -50.12190722 54.68004279 -50.13219452 51.13303566 C-50.14304476 49.13965002 -50.17420378 47.14640763 -50.20587158 45.15324402 C-50.20904568 32.12110488 -46.52685546 22.17046422 -37.75268555 12.45410156 C-26.35574262 2.16231674 -14.93522547 -0.15312115 0 0 Z M-27.06518555 26.82910156 C-33.42848254 34.81780594 -33.9243306 43.59373401 -33.81518555 53.39160156 C-33.81067383 54.17083984 -33.80616211 54.95007813 -33.80151367 55.75292969 C-33.78985463 57.65335425 -33.77192432 59.55373862 -33.75268555 61.45410156 C-26.81185624 60.74254426 -20.1298482 59.29369864 -13.33251953 57.74194336 C-12.10698868 57.46536896 -10.88145782 57.18879456 -9.61878967 56.90383911 C-6.27457286 56.14895424 -2.93146819 55.38925047 0.41141629 54.62849021 C3.92988659 53.82847698 7.44925418 53.03242894 10.9684906 52.23579407 C16.88439489 50.89598436 22.79958684 49.55306576 28.71435547 48.20825195 C35.51499244 46.66205869 42.31668917 45.12060138 49.1189943 43.58176488 C55.69872762 42.09317409 62.27771357 40.60130518 68.85636711 39.10795021 C71.63761634 38.47665536 74.41910678 37.84644032 77.20080757 37.21713829 C102.25354405 33.77654203 102.25354405 33.77654203 123.24731445 22.45410156 C123.9600966 20.47006879 124.63338133 18.47091354 125.24731445 16.45410156 C108.33975256 16.40729339 91.43221102 16.37206962 74.52459908 16.35047722 C66.67335971 16.34018314 58.82216071 16.32615868 50.97094727 16.30322266 C44.12447006 16.28323141 37.27802211 16.27037156 30.43151653 16.26592457 C26.80940114 16.26332687 23.18736939 16.25726045 19.56528091 16.24264145 C15.5128032 16.22641941 11.4604691 16.22612554 7.40795898 16.22705078 C6.218965 16.21986023 5.02997101 16.21266968 3.8049469 16.20526123 C-8.37425692 16.23526536 -18.51798545 17.48388278 -27.06518555 26.82910156 Z M115.74731445 44.70410156 C106.30469063 47.23722242 96.8062391 49.4098393 87.24731445 51.45410156 C89.82757914 54.39459801 92.78840937 56.01662344 96.20043945 57.88769531 C97.06810944 58.36650902 97.06810944 58.36650902 97.95330811 58.85499573 C99.79869312 59.87204428 101.64785087 60.88199217 103.49731445 61.89160156 C105.32798733 62.89724025 107.15786771 63.90430949 108.9876709 64.91152954 C110.72210733 65.86524298 112.45832335 66.81571777 114.19458008 67.76611328 C116.64512478 69.12112496 119.06853907 70.50700016 121.48168945 71.92675781 C124.01255004 73.61524718 124.01255004 73.61524718 126.24731445 73.45410156 C126.24731445 63.22410156 126.24731445 52.99410156 126.24731445 42.45410156 C122.65518036 42.45410156 119.19833084 43.76532453 115.74731445 44.70410156 Z M47.40625 60.27416992 C46.55012619 60.46763504 45.69400238 60.66110016 44.81193542 60.86042786 C42.00091602 61.49763215 39.19250156 62.14559802 36.3840332 62.79394531 C34.42598105 63.24054113 32.46779305 63.68654174 30.50947571 64.13197327 C26.41572876 65.06473771 22.32315674 66.00243905 18.23144531 66.9440918 C12.97928867 68.15272148 7.72514973 69.35244288 2.4702177 70.54894161 C-1.56821055 71.46885315 -5.60596757 72.39168006 -9.64348412 73.31558418 C-11.58152104 73.75904505 -13.51967325 74.20200239 -15.45794106 74.64445305 C-18.15878956 75.2618054 -20.85880849 75.88265535 -23.55859375 76.50463867 C-24.36327087 76.68805817 -25.167948 76.87147766 -25.99700928 77.06045532 C-29.98011768 77.94672836 -29.98011768 77.94672836 -33.75268555 79.45410156 C-33.75268555 90.34410156 -33.75268555 101.23410156 -33.75268555 112.45410156 C-28.14268555 112.45410156 -22.53268555 112.45410156 -16.75268555 112.45410156 C-16.19581055 110.92785156 -15.63893555 109.40160156 -15.06518555 107.82910156 C-11.88343809 99.96896586 -7.37437114 95.25805314 0.24731445 91.45410156 C8.59872456 88.08526758 19.39419816 87.95908678 27.87231445 91.14160156 C36.30231938 95.19421699 41.29082746 101.23680293 44.55981445 109.95410156 C44.78668945 110.77910156 45.01356445 111.60410156 45.24731445 112.45410156 C45.90731445 112.45410156 46.56731445 112.45410156 47.24731445 112.45410156 C47.47805664 111.80183594 47.70879883 111.14957031 47.9465332 110.47753906 C51.32317996 101.42865962 55.45226465 95.84367434 64.24731445 91.45410156 C72.59872456 88.08526758 83.39419816 87.95908678 91.87231445 91.14160156 C99.03692181 94.58589354 103.69077343 99.3281335 107.24731445 106.45410156 C108.23731445 109.42410156 108.23731445 109.42410156 109.24731445 112.45410156 C114.85731445 112.45410156 120.46731445 112.45410156 126.24731445 112.45410156 C126.24731445 106.18410156 126.24731445 99.91410156 126.24731445 93.45410156 C124.61149414 92.5453125 122.97567383 91.63652344 121.2902832 90.70019531 C106.88793945 82.69889323 92.4855957 74.69759115 78.08325195 66.69628906 C77.08519531 66.14682617 76.08713867 65.59736328 75.05883789 65.03125 C73.26306484 64.02389555 71.48283702 62.98795678 69.72485352 61.91601562 C68.96140625 61.45678711 68.19795898 60.99755859 67.41137695 60.52441406 C66.76894043 60.1223877 66.12650391 59.72036133 65.46459961 59.30615234 C59.62188975 57.06093572 53.27392498 58.90469622 47.40625 60.27416992 Z M0.87231445 112.07910156 C-1.33176448 116.65680396 -1.54984945 120.45962567 -0.75268555 125.45410156 C1.57700376 130.29268705 4.40872897 133.12441226 9.24731445 135.45410156 C14.24179034 136.25126547 18.04461206 136.03318049 22.62231445 133.82910156 C26.20639159 130.58636511 28.84266686 127.9893426 29.63012695 123.05566406 C29.88615364 117.37187162 29.18358377 113.80471502 25.24731445 109.45410156 C20.896701 105.51783225 17.32954439 104.81526238 11.64575195 105.07128906 C6.71207342 105.85874915 4.11505091 108.49502443 0.87231445 112.07910156 Z M64.87231445 112.07910156 C62.66823552 116.65680396 62.45015055 120.45962567 63.24731445 125.45410156 C65.57700376 130.29268705 68.40872897 133.12441226 73.24731445 135.45410156 C78.24179034 136.25126547 82.04461206 136.03318049 86.62231445 133.82910156 C90.20639159 130.58636511 92.84266686 127.9893426 93.63012695 123.05566406 C93.88615364 117.37187162 93.18358377 113.80471502 89.24731445 109.45410156 C84.896701 105.51783225 81.32954439 104.81526238 75.64575195 105.07128906 C70.71207342 105.85874915 68.11505091 108.49502443 64.87231445 112.07910156 Z M-62.75268555 115.45410156 C-65.2189221 119.1534564 -65.53206276 122.1633367 -64.75268555 126.45410156 C-63.00667765 129.53498701 -63.00667765 129.53498701 -59.75268555 131.45410156 C-56.45268555 132.11410156 -53.15268555 132.77410156 -49.75268555 133.45410156 C-49.75268555 126.52410156 -49.75268555 119.59410156 -49.75268555 112.45410156 C-55.4463827 112.45410156 -57.86098378 112.91417949 -62.75268555 115.45410156 Z M142.24731445 112.45410156 C142.24731445 119.38410156 142.24731445 126.31410156 142.24731445 133.45410156 C151.4594209 132.28632257 151.4594209 132.28632257 155.37231445 129.32910156 C157.48973322 126.08239279 158.00454947 124.20290969 157.71606445 120.38769531 C156.83790185 116.76527456 155.31471934 115.47858879 152.24731445 113.45410156 C148.94731445 113.12410156 145.64731445 112.79410156 142.24731445 112.45410156 Z M-33.75268555 128.45410156 C-34.22668575 154.76111258 -30.22040349 176.43977727 -11.8894043 196.56738281 C-4.6121577 203.65838124 4.47279307 208.42317608 13.37231445 213.14160156 C14.40485352 213.69654297 15.43739258 214.25148438 16.5012207 214.82324219 C35.87878119 225.35749413 35.87878119 225.35749413 57.31762695 223.82519531 C64.13962992 221.65440479 70.20393715 218.63202795 76.43481445 215.14160156 C77.43706055 214.59826172 78.43930664 214.05492187 79.47192383 213.49511719 C100.94218515 201.67880053 116.56429291 186.71826103 124.02075195 162.99316406 C126.81860065 151.76122076 126.34627854 139.93393527 126.24731445 128.45410156 C120.63731445 128.45410156 115.02731445 128.45410156 109.24731445 128.45410156 C108.69043945 129.98035156 108.13356445 131.50660156 107.55981445 133.07910156 C104.378067 140.93923726 99.86900005 145.65014998 92.24731445 149.45410156 C83.89590435 152.82293554 73.10043075 152.94911634 64.62231445 149.76660156 C56.57403655 145.8770492 52.18211624 140.33652209 48.24731445 132.45410156 C47.5793457 130.14550781 47.5793457 130.14550781 47.24731445 128.45410156 C46.58731445 128.45410156 45.92731445 128.45410156 45.24731445 128.45410156 C45.01657227 129.10636719 44.78583008 129.75863281 44.5480957 130.43066406 C41.17144895 139.47954351 37.04236426 145.06452878 28.24731445 149.45410156 C19.89590435 152.82293554 9.10043075 152.94911634 0.62231445 149.76660156 C-7.42596345 145.8770492 -11.81788376 140.33652209 -15.75268555 132.45410156 C-16.08268555 131.13410156 -16.41268555 129.81410156 -16.75268555 128.45410156 C-22.36268555 128.45410156 -27.97268555 128.45410156 -33.75268555 128.45410156 Z M14.24731445 233.45410156 C12.44925516 242.02056976 10.99816814 251.11288244 14.24731445 259.45410156 C21.67470813 267.43892365 32.3923495 272.13579746 42.24731445 276.45410156 C43.07448975 276.91719727 43.90166504 277.38029297 44.75390625 277.85742188 C47.87379505 278.60402015 49.32184172 277.76872066 52.00588989 276.14007568 C52.58313812 275.76417297 53.16038635 275.38827026 53.75512695 275.00097656 C54.36242645 274.62555725 54.96972595 274.25013794 55.59542847 273.86334229 C57.53221715 272.66046737 59.45190243 271.43291516 61.37231445 270.20410156 C62.6720552 269.39123755 63.97282699 268.58001965 65.2746582 267.77050781 C69.63402639 265.05091098 73.9718194 262.3044316 78.24731445 259.45410156 C78.66469317 256.73926563 78.66469317 256.73926563 78.5402832 253.57128906 C78.53061523 252.4046875 78.52094727 251.23808594 78.51098633 250.03613281 C78.48584961 248.8128125 78.46071289 247.58949219 78.43481445 246.32910156 C78.4212793 245.09804688 78.40774414 243.86699219 78.39379883 242.59863281 C78.35834988 239.55002313 78.30893524 236.50227656 78.24731445 233.45410156 C74.58890212 234.65810425 71.03558788 235.93430627 67.49731445 237.45410156 C52.34268885 243.51595181 36.47110233 242.63782823 21.52075195 236.29785156 C19.74100064 235.39179635 17.98980548 234.42989654 16.24731445 233.45410156 C15.58731445 233.45410156 14.92731445 233.45410156 14.24731445 233.45410156 Z M-4.98706055 276.75488281 C-5.66569153 276.99192429 -6.34432251 277.22896576 -7.04351807 277.47319031 C-8.47028626 277.97445753 -9.89562392 278.47981314 -11.31958008 278.98901367 C-13.50470326 279.76732024 -15.69645374 280.52434586 -17.8894043 281.28027344 C-19.27657335 281.77053765 -20.66330853 282.26203159 -22.04956055 282.75488281 C-23.03542145 283.09257439 -23.03542145 283.09257439 -24.04119873 283.43708801 C-26.07682296 284.14716357 -26.07682296 284.14716357 -28.75268555 285.45410156 C-29.94429984 289.02894445 -29.50057011 289.73998039 -28.1003418 293.12207031 C-27.73618164 294.01474609 -27.37202148 294.90742188 -26.99682617 295.82714844 C-26.60688477 296.75591797 -26.21694336 297.6846875 -25.81518555 298.64160156 C-25.42911133 299.58197266 -25.04303711 300.52234375 -24.64526367 301.49121094 C-23.68946906 303.81579784 -22.72501548 306.13639355 -21.75268555 308.45410156 C-18.35780385 307.86368837 -15.4061016 307.01264311 -12.25366211 305.62817383 C-11.39637512 305.25431046 -10.53908813 304.88044708 -9.65582275 304.49525452 C-8.28837921 303.8890049 -8.28837921 303.8890049 -6.89331055 303.27050781 C-5.94832703 302.85494125 -5.00334351 302.43937469 -4.02972412 302.01121521 C-2.03830723 301.13363382 -0.04803416 300.25345287 1.94116211 299.37084961 C4.99652986 298.01694923 8.05716459 296.67551355 11.1184082 295.33496094 C13.0523323 294.48089085 14.98593744 293.62609812 16.91918945 292.77050781 C17.83891541 292.36836563 18.75864136 291.96622345 19.70623779 291.55189514 C20.55091614 291.17487961 21.39559448 290.79786407 22.26586914 290.40942383 C23.01245789 290.0793483 23.75904663 289.74927277 24.52825928 289.40919495 C26.42650994 288.56626134 26.42650994 288.56626134 27.24731445 286.45410156 C24.02914486 284.43598048 20.79615048 282.44293643 17.55981445 280.45410156 C16.64780273 279.88175781 15.73579102 279.30941406 14.79614258 278.71972656 C13.90991211 278.17832031 13.02368164 277.63691406 12.1105957 277.07910156 C11.29888916 276.57636719 10.48718262 276.07363281 9.65087891 275.55566406 C4.46876217 273.18068075 0.12696193 274.93346156 -4.98706055 276.75488281 Z M80.3840332 277.07910156 C79.49780273 277.62050781 78.61157227 278.16191406 77.69848633 278.71972656 C76.78647461 279.29207031 75.87446289 279.86441406 74.93481445 280.45410156 C73.53779297 281.31261719 73.53779297 281.31261719 72.11254883 282.18847656 C69.81785414 283.60059637 67.52997507 285.02264017 65.24731445 286.45410156 C67.40299518 288.83078317 69.34162539 290.14510032 72.2722168 291.43115234 C73.47894547 291.96653122 73.47894547 291.96653122 74.71005249 292.51272583 C76.00853622 293.07538651 76.00853622 293.07538651 77.33325195 293.64941406 C78.22718658 294.04232635 79.12112122 294.43523865 80.04214478 294.84005737 C81.93196469 295.66874284 83.82331423 296.49394747 85.71606445 297.31591797 C88.60815467 298.5729471 91.49439731 299.8427055 94.38012695 301.11425781 C96.21833364 301.9184094 98.05686487 302.72181959 99.89575195 303.52441406 C100.75735931 303.90356964 101.61896667 304.28272522 102.50668335 304.67337036 C106.39455138 306.35462495 110.01077675 307.89146171 114.24731445 308.45410156 C115.6168845 305.1895065 116.9652593 301.91656979 118.30981445 298.64160156 C118.69975586 297.71283203 119.08969727 296.7840625 119.49145508 295.82714844 C119.85561523 294.93447266 120.21977539 294.04179687 120.5949707 293.12207031 C121.1055603 291.88880005 121.1055603 291.88880005 121.62646484 290.63061523 C122.51117544 288.30513579 122.51117544 288.30513579 121.24731445 285.45410156 C119.00432441 284.40239099 116.87701132 283.55395527 114.54418945 282.75488281 C113.86938538 282.51497116 113.1945813 282.27505951 112.49932861 282.02787781 C111.06883548 281.52230165 109.6362839 281.02251828 108.2019043 280.52807617 C106.0149413 279.77268995 103.83609455 278.99683986 101.6574707 278.21777344 C100.26597972 277.72890017 98.87406509 277.24123074 97.48168945 276.75488281 C96.83254578 276.5236824 96.1834021 276.29248199 95.5145874 276.05427551 C89.39638405 273.9666271 85.92398862 273.64790337 80.3840332 277.07910156 Z M-53.33740234 293.88769531 C-54.26654953 294.20222656 -55.19569672 294.51675781 -56.15299988 294.84082031 C-57.66220757 295.36095703 -57.66220757 295.36095703 -59.2019043 295.89160156 C-60.24731888 296.24996094 -61.29273346 296.60832031 -62.36982727 296.97753906 C-64.5924761 297.74177054 -66.81422903 298.50861173 -69.03515625 299.27783203 C-72.3779745 300.43261072 -75.72616163 301.57068306 -79.07495117 302.70800781 C-104.26274025 311.35411139 -124.91373954 320.66604073 -138.06518555 345.32910156 C-145.73185651 361.64207366 -145.91606534 378.07790826 -145.95581055 395.69628906 C-145.95863792 396.54936771 -145.9614653 397.40244637 -145.96437836 398.28137589 C-145.97925176 402.78166247 -145.9885602 407.28191789 -145.99291992 411.78222656 C-145.99843796 416.41564322 -146.02256916 421.04877099 -146.05089188 425.68209648 C-146.0695226 429.26464691 -146.07472373 432.84712706 -146.0762558 436.42972183 C-146.07927359 438.13850639 -146.0872725 439.84728997 -146.10044098 441.55602646 C-146.11753749 443.94138627 -146.11561461 446.32602921 -146.10913086 448.71142578 C-146.11834564 449.40970993 -146.12756042 450.10799408 -146.13705444 450.82743835 C-146.09805514 455.41860165 -145.33838037 458.63947222 -142.75268555 462.45410156 C-131.72106623 468.89754135 -113.93706433 462.86873616 -102.32299805 460.48535156 C-100.18107265 460.05625102 -98.03890399 459.62836325 -95.89651489 459.20158386 C-90.09619415 458.04270776 -84.29930014 456.86746342 -78.50288391 455.68923569 C-72.4041719 454.45251128 -66.30242709 453.23094112 -60.20092773 452.00805664 C-50.49923513 450.0620379 -40.79894235 448.10918528 -31.09970188 446.15099061 C-14.38332422 442.77645488 2.3398713 439.43659635 19.06491518 436.10531187 C22.55533051 435.40999821 26.04565813 434.71424464 29.53598022 434.01846313 C30.220566 433.88199446 30.90515177 433.74552579 31.61048257 433.6049217 C33.67188324 433.19398266 35.73328101 432.78302913 37.79467773 432.37207031 C38.46975176 432.23749003 39.14482578 432.10290975 39.84035659 431.96425128 C43.88836284 431.15724532 47.93635316 430.35015953 51.98432636 429.54298782 C53.32949967 429.27476265 54.67467574 429.00655135 56.01985455 428.73835373 C64.37117995 427.07326316 72.72208633 425.40609664 81.07223892 423.73513222 C83.40999891 423.26763194 85.74789516 422.80081252 88.08593369 422.33470726 C91.27517957 421.69880526 94.46394268 421.06053693 97.65258789 420.42163086 C98.5897508 420.23532356 99.52691372 420.04901627 100.49247551 419.85706329 C101.34563913 419.68559029 102.19880276 419.51411728 103.07781982 419.33744812 C103.81580685 419.18995967 104.55379387 419.04247122 105.31414413 418.89051342 C107.44807037 418.44249283 107.44807037 418.44249283 110.24731445 417.45410156 C110.24731445 401.28410156 110.24731445 385.11410156 110.24731445 368.45410156 C100.69693058 369.13627184 91.420173 370.00899908 81.98095703 371.40356445 C80.61751247 371.60120668 79.25400011 371.79838163 77.89042664 371.99513245 C74.98516487 372.41521498 72.08036107 372.83828777 69.17588234 373.26375008 C64.57292849 373.9377495 59.96878349 374.60335406 55.36442566 375.26768494 C43.10883008 377.0372626 30.85484472 378.81789117 18.60150117 380.60299152 C10.5276686 381.77914658 2.45320898 382.95078777 -5.62248307 384.11411279 C-10.18989143 384.77243366 -14.75619741 385.43780092 -19.32177961 386.10866368 C-22.16994929 386.52551489 -25.01903613 386.93580957 -27.8684063 387.34436607 C-29.79803553 387.62299059 -31.72654615 387.90932895 -33.65499878 388.19598389 C-45.5134067 389.88281282 -55.73018275 391.18078614 -66.00268555 384.26660156 C-71.70165258 378.43811255 -73.34926554 372.5774513 -73.36206055 364.57910156 C-73.3785968 363.76916748 -73.39513306 362.9592334 -73.41217041 362.12475586 C-73.46029729 359.56779128 -73.48194141 357.01141973 -73.50268555 354.45410156 C-73.53087495 352.70797854 -73.56080649 350.96188272 -73.5925293 349.21582031 C-73.66929019 344.96165058 -73.71013359 340.70929705 -73.75268555 336.45410156 C-68.47268555 336.45410156 -63.19268555 336.45410156 -57.75268555 336.45410156 C-57.77588867 338.48953125 -57.7990918 340.52496094 -57.82299805 342.62207031 C-57.83691032 344.60456859 -57.85074957 346.5870681 -57.86254883 348.56958008 C-57.87257481 349.94200739 -57.8861991 351.31441351 -57.90356445 352.68676758 C-57.92796182 354.66510683 -57.93813039 356.64360524 -57.94799805 358.62207031 C-57.95847168 359.81082764 -57.96894531 360.99958496 -57.97973633 362.22436523 C-57.67996805 366.48848848 -56.99044925 369.20391489 -53.95263672 372.2722168 C-44.70406273 377.24084921 -23.93586416 370.38416231 -13.94018555 368.89160156 C-11.6869909 368.55850934 -9.43373612 368.22582362 -7.18041992 367.89355469 C-1.70380603 367.08509126 3.77204301 366.27160456 9.24731445 365.45410156 C10.92590292 360.7711605 12.56393166 356.07660241 14.16674805 351.3671875 C14.71682244 349.76902897 15.2775778 348.17450368 15.84936523 346.58398438 C16.67223742 344.28913315 17.4550801 341.98370738 18.23168945 339.67285156 C18.49294617 338.97043335 18.75420288 338.26801514 19.02337646 337.54431152 C20.37769716 333.36767508 20.4375122 331.11212647 18.42504883 327.13964844 C18.04521851 326.50828979 17.66538818 325.87693115 17.27404785 325.22644043 C15.82926355 322.73246548 15.42169504 320.28330548 14.99731445 317.45410156 C14.77301758 316.03097656 14.77301758 316.03097656 14.54418945 314.57910156 C14.39723633 313.52722656 14.39723633 313.52722656 14.24731445 312.45410156 C8.15061338 314.37342405 2.31692093 316.61828018 -3.5065918 319.24707031 C-4.29291489 319.59796219 -5.07923798 319.94885406 -5.88938904 320.31037903 C-8.36644741 321.41682958 -10.84084006 322.52909953 -13.31518555 323.64160156 C-15.00837104 324.39915178 -16.70172896 325.15631673 -18.39526367 325.91308594 C-22.51640834 327.75564937 -26.63517529 329.60343156 -30.75268555 331.45410156 C-31.0267498 330.60906822 -31.0267498 330.60906822 -31.30635071 329.7469635 C-32.94244539 324.76182055 -34.71123595 319.87963765 -36.6706543 315.01269531 C-36.93276199 314.35954849 -37.19486969 313.70640167 -37.46492004 313.03346252 C-38.28754446 310.98517429 -39.11378747 308.93836976 -39.94018555 306.89160156 C-40.50488094 305.48740209 -41.06933597 304.08310593 -41.63354492 302.67871094 C-43.0038234 299.26938904 -44.37734695 295.86138584 -45.75268555 292.45410156 C-48.7506869 292.45410156 -50.52810462 292.93052379 -53.33740234 293.88769531 Z M138.24731445 292.45410156 C136.1066557 297.68505172 133.97052671 302.91781928 131.83862305 308.15234375 C131.11233559 309.93377902 130.38480049 311.71470615 129.65600586 313.49511719 C128.61025875 316.05043937 127.56897359 318.60753968 126.52856445 321.16503906 C126.20045776 321.96404633 125.87235107 322.76305359 125.53430176 323.58627319 C123.85484379 327.39632706 123.85484379 327.39632706 123.24731445 331.45410156 C122.74254578 331.2308168 122.2377771 331.00753204 121.7177124 330.77748108 C116.46348063 328.45401674 111.20729439 326.13501867 105.94995117 323.81860352 C103.98818294 322.95353737 102.02691581 322.08733393 100.06616211 321.2199707 C97.24764902 319.97340301 94.42735885 318.7309372 91.60668945 317.48925781 C90.73050964 317.10069107 89.85432983 316.71212433 88.95159912 316.31178284 C88.13105042 315.95148483 87.31050171 315.59118683 86.46508789 315.2199707 C85.38587067 314.74364952 85.38587067 314.74364952 84.28485107 314.25770569 C82.28947044 313.47072788 80.33803353 312.92324381 78.24731445 312.45410156 C78.13774414 313.16695313 78.02817383 313.87980469 77.9152832 314.61425781 C76.46215187 323.39211618 76.46215187 323.39211618 74.55981445 327.26660156 C71.9277123 333.65884965 75.37242104 339.77664345 77.80981445 345.82910156 C78.30384766 347.07626953 78.30384766 347.07626953 78.80786133 348.34863281 C79.61576419 350.38595307 80.43003557 352.42053216 81.24731445 354.45410156 C90.15524827 353.87567325 98.93633767 352.90168685 107.7668457 351.60644531 C108.9914299 351.4302919 110.2160141 351.25413849 111.47770691 351.07264709 C115.33899795 350.51628604 119.19940593 349.95404998 123.05981445 349.39160156 C125.69836111 349.00986992 128.33710023 348.62948842 130.97583008 348.24902344 C137.40031183 347.32185593 143.82408168 346.38988044 150.24731445 345.45410156 C150.24731445 342.48410156 150.24731445 339.51410156 150.24731445 336.45410156 C155.52731445 336.45410156 160.80731445 336.45410156 166.24731445 336.45410156 C166.20690944 345.96460564 166.14971834 355.47460938 166.06341171 364.98480988 C166.02399279 369.40134615 165.99177708 373.81768471 165.97631836 378.234375 C165.96111474 382.50105054 165.9266042 386.76718234 165.87900543 391.03361511 C165.86422966 392.65694946 165.85627563 394.28036145 165.8554306 395.90376282 C165.84558995 405.33390911 165.78431518 412.7094912 159.67700195 420.44238281 C151.85078871 427.10842877 141.2671959 428.19836157 131.45825195 430.15332031 C129.68159653 430.51318779 129.68159653 430.51318779 127.86904907 430.88032532 C124.12100637 431.63846613 120.37170023 432.39013425 116.62231445 433.14160156 C114.06623831 433.65744889 111.5102478 434.17372069 108.9543457 434.69042969 C102.71965034 435.9498971 96.48390741 437.20406644 90.24731445 438.45410156 C90.24731445 438.78410156 90.24731445 439.11410156 90.24731445 439.45410156 C105.78951237 442.56721606 121.33193117 445.67922522 136.87461281 448.78992367 C144.0915623 450.23434422 151.30843943 451.67912449 158.52514648 453.12475586 C164.81622933 454.38496772 171.10744772 455.64450031 177.39882886 456.90322214 C180.72912657 457.5695421 184.05935606 458.2361988 187.38942337 458.90366936 C191.10961619 459.64915806 194.83004736 460.39344599 198.55053711 461.13745117 C200.20131256 461.46868484 200.20131256 461.46868484 201.88543701 461.80661011 C209.03617872 463.23482713 215.93110245 464.60783562 223.24731445 464.70410156 C224.42293945 464.72988281 225.59856445 464.75566406 226.80981445 464.78222656 C230.695389 464.41133081 233.00548314 463.62160506 236.24731445 461.45410156 C238.44891886 457.36274101 238.53259234 453.44525295 238.50610352 448.90429688 C238.50960815 448.16034164 238.51311279 447.41638641 238.51672363 446.64988708 C238.52551154 444.19390468 238.51969502 441.73821185 238.51293945 439.28222656 C238.51428865 437.55889837 238.51623131 435.83557055 238.51873779 434.11224365 C238.52168651 430.49422595 238.51740583 426.87630699 238.50805664 423.25830078 C238.49676493 418.66953099 238.50315714 414.08099785 238.51520157 409.49223709 C238.52251537 405.92637432 238.52008747 402.36056524 238.51494598 398.79470062 C238.51363022 397.10618816 238.51518265 395.4176705 238.51990509 393.72916412 C238.56954702 370.95609184 236.42872338 351.14255746 222.24731445 332.45410156 C221.75489258 331.79023438 221.2624707 331.12636719 220.75512695 330.44238281 C207.85366484 314.22444315 187.1206332 307.98949755 168.27001953 301.58740234 C164.89155649 300.43940253 161.5193759 299.27422677 158.14770508 298.10644531 C155.99765403 297.36717572 153.8472754 296.628858 151.6965332 295.89160156 C150.69039474 295.54484375 149.68425629 295.19808594 148.64762878 294.84082031 C147.7184816 294.52628906 146.78933441 294.21175781 145.83203125 293.88769531 C145.01647263 293.60982178 144.200914 293.33194824 143.36064148 293.0456543 C141.13158157 292.31932438 141.13158157 292.31932438 138.24731445 292.45410156 Z M38.62231445 300.70410156 C37.66067383 301.12175781 36.6990332 301.53941406 35.70825195 301.96972656 C32.97102843 303.62075028 32.21570665 304.44988485 31.24731445 307.45410156 C30.55059612 312.3635354 30.71072355 316.33964353 32.87231445 320.82910156 C36.11505091 324.41317869 38.71207342 327.04945397 43.64575195 327.83691406 C49.32954439 328.09294075 52.896701 327.39037088 57.24731445 323.45410156 C61.25975869 319.01929477 61.67263189 315.55948087 61.58325195 309.82128906 C61.20842571 307.18007159 60.78503495 305.64169203 59.24731445 303.45410156 C56.77230899 301.88705433 56.77230899 301.88705433 53.87231445 300.70410156 C52.91583008 300.27613281 51.9593457 299.84816406 50.97387695 299.40722656 C46.15830061 297.72384458 43.09309485 298.70369847 38.62231445 300.70410156 Z M34.24731445 342.45410156 C33.2424455 345.41080374 32.24425421 348.36971733 31.24731445 351.32910156 C30.96114258 352.17085938 30.6749707 353.01261719 30.38012695 353.87988281 C30.10942383 354.68554688 29.8387207 355.49121094 29.55981445 356.32128906 C29.18276367 357.43673096 29.18276367 357.43673096 28.7980957 358.57470703 C28.15356952 360.4475747 28.15356952 360.4475747 28.24731445 362.45410156 C46.30312616 360.33674896 46.30312616 360.33674896 64.24731445 357.45410156 C62.06118304 349.8459231 62.06118304 349.8459231 59.24731445 342.45410156 C58.58860352 342.61652344 57.92989258 342.77894531 57.2512207 342.94628906 C53.55021453 343.5719468 49.92514778 343.59967168 46.18481445 343.57910156 C45.47776367 343.58296875 44.77071289 343.58683594 44.04223633 343.59082031 C40.60398962 343.58436351 37.55322424 343.37360195 34.24731445 342.45410156 Z M126.24731445 365.45410156 C126.24731445 381.62410156 126.24731445 397.79410156 126.24731445 414.45410156 C143.881645 412.54812805 143.881645 412.54812805 149.24731445 406.45410156 C150.15766949 403.72303646 150.36947158 402.15516917 150.36083984 399.34985352 C150.36072655 398.11891716 150.36072655 398.11891716 150.36061096 396.8631134 C150.35544968 395.98177231 150.35028839 395.10043121 150.3449707 394.19238281 C150.34355576 393.28658981 150.34214081 392.38079681 150.34068298 391.44755554 C150.33508447 388.55387065 150.32253226 385.66026307 150.30981445 382.76660156 C150.30479926 380.80501414 150.30023639 378.8434255 150.29614258 376.88183594 C150.28511552 372.07256135 150.26785192 367.26334456 150.24731445 362.45410156 C142.1850567 362.45410156 134.21091407 364.1966911 126.24731445 365.45410156 Z M36.44946289 448.92285156 C35.66859314 449.07890869 34.88772339 449.23496582 34.08319092 449.39575195 C31.50694414 449.91155784 28.93182966 450.43280174 26.35668945 450.95410156 C24.56885396 451.31316099 22.78095015 451.67188041 20.99298096 452.03027344 C16.29053069 452.9738159 11.58902283 453.92197512 6.88769531 454.87109375 C2.08885739 455.83904923 -2.71085606 456.8026425 -7.51049805 457.76660156 C-16.92542332 459.65816284 -26.33935892 461.55460184 -35.75268555 463.45410156 C-35.75268555 463.78410156 -35.75268555 464.11410156 -35.75268555 464.45410156 C18.36731445 464.45410156 72.48731445 464.45410156 128.24731445 464.45410156 C128.24731445 464.12410156 128.24731445 463.79410156 128.24731445 463.45410156 C117.88660162 461.36343034 107.52506358 459.27690402 97.16244888 457.19567871 C92.35080519 456.22917348 87.53945847 455.26123788 82.72875977 454.29003906 C78.08697377 453.35299549 73.44444825 452.4197019 68.80138397 451.48901367 C67.02928511 451.13311471 65.25745781 450.77586081 63.48590851 450.41723633 C61.00636431 449.91552832 58.52590206 449.41862764 56.04516602 448.92285156 C55.31148804 448.77323975 54.57781006 448.62362793 53.82189941 448.46948242 C47.64250793 447.24361792 42.55089338 447.67864617 36.44946289 448.92285156 Z " fill="#2BA5A6" transform="translate(209.752685546875,15.5458984375)"/>
<path d="M0 0 C9.05346761 6.52092307 14.82284622 14.68061938 17.58203125 25.4921875 C18.12200116 30.34053071 18.14276643 35.11818916 18.08203125 39.9921875 C18.10523438 41.85423828 18.10523438 41.85423828 18.12890625 43.75390625 C18.08557831 54.03346082 16.41163718 63.02443497 9.51953125 70.9921875 C8.84792969 71.78625 8.17632812 72.5803125 7.484375 73.3984375 C5.58203125 75.4921875 5.58203125 75.4921875 3.98632812 76.86254883 C2.21296045 78.92048159 2.21360798 79.97394972 2.2109375 82.66015625 C2.19353516 83.47162109 2.17613281 84.28308594 2.15820312 85.11914062 C2.14919291 86.80662461 2.14389546 88.4941331 2.14257812 90.18164062 C1.98143635 97.23298247 0.30516808 102.38467152 -4.3828125 107.734375 C-5.03378906 108.27320313 -5.68476563 108.81203125 -6.35546875 109.3671875 C-7.00386719 109.92148438 -7.65226562 110.47578125 -8.3203125 111.046875 C-14.82154432 115.52630847 -21.78937792 115.16682478 -29.41796875 114.4921875 C-36.07756208 112.81133167 -40.60344322 108.02840428 -44.41796875 102.4921875 C-46.57555911 98.54485824 -46.53581943 95.18009078 -46.49121094 90.80444336 C-46.44304399 80.98506694 -46.44304399 80.98506694 -51.66796875 72.9296875 C-52.4775 72.19363281 -53.28703125 71.45757812 -54.12109375 70.69921875 C-59.25404259 65.76704853 -62.1699233 58.61453188 -62.5949707 51.55053711 C-62.6616659 47.84350661 -62.70289662 44.13721952 -62.73046875 40.4296875 C-62.75947266 39.15673828 -62.78847656 37.88378906 -62.81835938 36.57226562 C-62.90143759 24.12970497 -60.10539595 14.59248253 -51.41796875 5.4921875 C-37.63784493 -7.66275112 -16.31305228 -10.17259803 0 0 Z M-41.0703125 19.35546875 C-46.89752036 27.78380708 -47.34836505 38.08390694 -46.10546875 47.98046875 C-44.61413207 55.90319488 -40.39178837 61.26509534 -34.41796875 66.4921875 C-33.09796875 66.4921875 -31.77796875 66.4921875 -30.41796875 66.4921875 C-30.41796875 58.5721875 -30.41796875 50.6521875 -30.41796875 42.4921875 C-25.13796875 42.4921875 -19.85796875 42.4921875 -14.41796875 42.4921875 C-14.41796875 50.4121875 -14.41796875 58.3321875 -14.41796875 66.4921875 C-8.34381334 65.27735642 -6.19370503 63.19316608 -2.41796875 58.4921875 C2.59175136 50.08820051 2.61855209 39.20548039 0.89453125 29.8046875 C-0.90777136 22.93877281 -4.00517344 18.09411869 -9.85546875 13.9921875 C-20.58587144 8.17122389 -32.99810992 10.25277222 -41.0703125 19.35546875 Z M-30.41796875 82.4921875 C-30.58223785 90.27788534 -30.58223785 90.27788534 -27.41796875 96.4921875 C-24.57713234 97.91260571 -22.56319597 97.80671022 -19.41796875 97.4921875 C-16.57016256 95.26012319 -15.56799209 93.94225751 -14.41796875 90.4921875 C-14.41796875 87.8521875 -14.41796875 85.2121875 -14.41796875 82.4921875 C-19.69796875 82.4921875 -24.97796875 82.4921875 -30.41796875 82.4921875 Z " fill="#2AB09A" transform="translate(446.41796875,53.5078125)"/>
<path d="M0 0 C5.28 0 10.56 0 16 0 C16.09796875 1.46050781 16.1959375 2.92101562 16.296875 4.42578125 C17.44576388 19.96116355 19.1994054 34.10674429 31.25 45.25 C41.11965393 53.0761573 51.79525514 54.96861311 64 56 C64 61.61 64 67.22 64 73 C60.9371875 73.0928125 60.9371875 73.0928125 57.8125 73.1875 C45.05128643 74.15328307 35.59466657 78.47113054 27 88 C19.68392955 96.99008657 17.6328702 106.19021219 16.8125 117.5625 C16.73064453 118.57119141 16.64878906 119.57988281 16.56445312 120.61914062 C16.36629431 123.07864126 16.18172494 125.53923054 16 128 C10.72 128 5.44 128 0 128 C-0.09796875 126.53949219 -0.1959375 125.07898438 -0.296875 123.57421875 C-1.53468152 106.8350445 -3.76972926 94.88012841 -16.0625 82.8125 C-25.46954441 74.8212315 -36.01237278 73.36326143 -48 73 C-48 67.39 -48 61.78 -48 56 C-45.56625 55.7525 -43.1325 55.505 -40.625 55.25 C-27.96634657 53.74426629 -17.80952335 49.34368603 -9.6875 39.125 C-1.47152094 27.22207188 -0.92864292 14.08441767 0 0 Z M7 45 C5.65632361 46.55467281 5.65632361 46.55467281 4.3125 48.5625 C1.23430582 52.81190952 -2.22018377 56.37840864 -6 60 C-6.98162997 60.97669715 -7.96109542 61.95557901 -8.9375 62.9375 C-9.9584375 63.9584375 -9.9584375 63.9584375 -11 65 C-10.3709375 65.46148437 -9.741875 65.92296875 -9.09375 66.3984375 C-2.68750072 71.28030818 2.2414387 76.51346952 7 83 C10.53221019 81.8225966 10.98287321 80.91642487 13.0625 77.9375 C17.00061297 72.66414702 21.73293104 68.88936481 27 65 C24.49221823 62.48322976 21.97659636 59.97723658 19.4296875 57.5 C18.16511719 56.2625 18.16511719 56.2625 16.875 55 C16.02679688 54.175 15.17859375 53.35 14.3046875 52.5 C12 50 12 50 10.3203125 47.1875 C9.88460937 46.465625 9.44890625 45.74375 9 45 C8.34 45 7.68 45 7 45 Z " fill="#29B198" transform="translate(64,16)"/>
<path d="M0 0 C5.94 0 11.88 0 18 0 C18.226875 1.77375 18.45375 3.5475 18.6875 5.375 C20.50184841 16.08469549 25.53000102 25.31159494 34.42578125 31.7578125 C41.89372142 36.4493561 48.17386931 37.89673366 57 39 C57 44.94 57 50.88 57 57 C55.22625 57.226875 53.4525 57.45375 51.625 57.6875 C40.91530451 59.50184841 31.68840506 64.53000102 25.2421875 73.42578125 C20.5506439 80.89372142 19.10326634 87.17386931 18 96 C12.06 96 6.12 96 0 96 C-0.3403125 93.339375 -0.3403125 93.339375 -0.6875 90.625 C-2.50184841 79.91530451 -7.53000102 70.68840506 -16.42578125 64.2421875 C-23.89372142 59.5506439 -30.17386931 58.10326634 -39 57 C-39 51.06 -39 45.12 -39 39 C-36.339375 38.6596875 -36.339375 38.6596875 -33.625 38.3125 C-22.91530451 36.49815159 -13.68840506 31.46999898 -7.2421875 22.57421875 C-2.5506439 15.10627858 -1.10326634 8.82613069 0 0 Z M8 31 C6.92580696 32.31224136 5.91573391 33.67724678 4.9375 35.0625 C1.24440427 39.98662764 -2.99441188 43.46998208 -8 47 C-6.81427674 50.55716979 -5.81144761 51.07266425 -2.8125 53.1875 C1.72784624 56.58188026 4.88371314 60.29501788 8 65 C11.55716979 63.81427674 12.07266425 62.81144761 14.1875 59.8125 C17.58188026 55.27215376 21.29501788 52.11628686 26 49 C24.81427674 45.44283021 23.81144761 44.92733575 20.8125 42.8125 C16.76333814 39.79497174 13.9811115 36.69243807 11.19140625 32.50390625 C10.79824219 32.00761719 10.40507812 31.51132813 10 31 C9.34 31 8.68 31 8 31 Z " fill="#2AA7A4" transform="translate(439,200)"/>
<path d="M0 0 C5.28 0 10.56 0 16 0 C16.515625 2.289375 17.03125 4.57875 17.5625 6.9375 C19.7685591 15.63125034 23.35559352 22.05099963 31.1875 26.875 C36.5334676 29.5479838 42.18600601 30.73027717 48 32 C48 37.28 48 42.56 48 48 C45.69 48.53625 43.38 49.0725 41 49.625 C32.17620517 51.87600679 26.02425541 55.52722749 20.95703125 63.2890625 C18.08701885 68.41994181 17.20740196 74.30796219 16 80 C10.72 80 5.44 80 0 80 C-0.7734375 76.5659375 -0.7734375 76.5659375 -1.5625 73.0625 C-3.7685591 64.36874966 -7.35559352 57.94900037 -15.1875 53.125 C-20.5334676 50.4520162 -26.18600601 49.26972283 -32 48 C-32 42.72 -32 37.44 -32 32 C-29.710625 31.484375 -27.42125 30.96875 -25.0625 30.4375 C-16.36874966 28.2314409 -9.94900037 24.64440648 -5.125 16.8125 C-2.4520162 11.4665324 -1.26972283 5.81399399 0 0 Z M4.8359375 31.96875 C4.02382812 32.8040625 3.21171875 33.639375 2.375 34.5 C1.14910156 35.75296875 1.14910156 35.75296875 -0.1015625 37.03125 C-0.72804688 37.6809375 -1.35453125 38.330625 -2 39 C-0.59155282 42.21524305 1.10344786 44.32183868 3.625 46.75 C4.25664063 47.36359375 4.88828125 47.9771875 5.5390625 48.609375 C6.02117187 49.06828125 6.50328125 49.5271875 7 50 C10.21524305 48.59155282 12.32183868 46.89655214 14.75 44.375 C15.67039062 43.42753906 15.67039062 43.42753906 16.609375 42.4609375 C17.06828125 41.97882813 17.5271875 41.49671875 18 41 C16.60249952 37.84164893 14.94801766 35.67727175 12.5 33.25 C11.8915625 32.63640625 11.283125 32.0228125 10.65625 31.390625 C8.00318969 29.16305549 7.36551345 29.66747513 4.8359375 31.96875 Z " fill="#2AA8A3" transform="translate(88,192)"/>
<path d="M0 0 C5.61 0 11.22 0 17 0 C17.391875 1.4025 17.78375 2.805 18.1875 4.25 C19.59260476 8.50546012 21.09783683 10.59866882 25 13 C28.71236414 14.85618207 32.94843088 14.44809981 37 14 C41.46811466 11.8065619 43.90863356 9.51294863 46 5 C46.33 3.35 46.66 1.7 47 0 C52.61 0 58.22 0 64 0 C64 10.26259131 61.12559313 17.51485859 54 25 C44.8820811 32.18492009 35.18443479 32.89207855 24 32 C20.59787722 31.15307835 17.93787128 29.8919891 15 28 C14.29359375 27.56429687 13.5871875 27.12859375 12.859375 26.6796875 C6.16842441 22.14470987 1.81718846 15.92954964 0 8 C0 5.36 0 2.72 0 0 Z " fill="#2AAAA1" transform="translate(224,184)"/>
<path d="M0 0 C3.68069887 1.53643852 5.98775204 3.78150945 8.75 6.625 C9.54921875 7.44226562 10.3484375 8.25953125 11.171875 9.1015625 C11.77515625 9.72804688 12.3784375 10.35453125 13 11 C11.67879172 13.93230193 10.25361803 15.98664899 7.9609375 18.234375 C7.38085938 18.80800781 6.80078125 19.38164063 6.203125 19.97265625 C5.59984375 20.55917969 4.9965625 21.14570312 4.375 21.75 C3.76398438 22.35199219 3.15296875 22.95398438 2.5234375 23.57421875 C1.02011376 25.05405305 -0.48934856 26.52764676 -2 28 C-5.68069887 26.46356148 -7.98775204 24.21849055 -10.75 21.375 C-11.54921875 20.55773437 -12.3484375 19.74046875 -13.171875 18.8984375 C-13.77515625 18.27195312 -14.3784375 17.64546875 -15 17 C-13.67879172 14.06769807 -12.25361803 12.01335101 -9.9609375 9.765625 C-9.38085938 9.19199219 -8.80078125 8.61835937 -8.203125 8.02734375 C-7.59984375 7.44082031 -6.9965625 6.85429688 -6.375 6.25 C-5.76398438 5.64800781 -5.15296875 5.04601562 -4.5234375 4.42578125 C-3.02011376 2.94594695 -1.51065144 1.47235324 0 0 Z " fill="#2AB495" transform="translate(473,26)"/>
<path d="M0 0 C2.93230193 1.32120828 4.98664899 2.74638197 7.234375 5.0390625 C7.80800781 5.61914062 8.38164062 6.19921875 8.97265625 6.796875 C9.55917969 7.40015625 10.14570313 8.0034375 10.75 8.625 C11.35199219 9.23601563 11.95398438 9.84703125 12.57421875 10.4765625 C14.05405305 11.97988624 15.52764676 13.48934856 17 15 C15.46356148 18.68069887 13.21849055 20.98775204 10.375 23.75 C9.55773437 24.54921875 8.74046875 25.3484375 7.8984375 26.171875 C7.27195312 26.77515625 6.64546875 27.3784375 6 28 C3.06769807 26.67879172 1.01335101 25.25361803 -1.234375 22.9609375 C-1.80800781 22.38085938 -2.38164062 21.80078125 -2.97265625 21.203125 C-3.55917969 20.59984375 -4.14570313 19.9965625 -4.75 19.375 C-5.35199219 18.76398437 -5.95398438 18.15296875 -6.57421875 17.5234375 C-8.05405305 16.02011376 -9.52764676 14.51065144 -11 13 C-9.46356148 9.31930113 -7.21849055 7.01224796 -4.375 4.25 C-3.55773437 3.45078125 -2.74046875 2.6515625 -1.8984375 1.828125 C-0.95871094 0.92320313 -0.95871094 0.92320313 0 0 Z " fill="#29B495" transform="translate(373,26)"/>
<path d="M0 0 C5.28 0 10.56 0 16 0 C16 5.28 16 10.56 16 16 C10.72 16 5.44 16 0 16 C0 10.72 0 5.44 0 0 Z " fill="#2AB199" transform="translate(480,80)"/>
<path d="M0 0 C5.28 0 10.56 0 16 0 C16 5.28 16 10.56 16 16 C10.72 16 5.44 16 0 16 C0 10.72 0 5.44 0 0 Z " fill="#2AB594" transform="translate(416,16)"/>
</svg>
