<?xml version="1.0" encoding="UTF-8"?>
<svg version="1.1" xmlns="http://www.w3.org/2000/svg" width="512" height="512">
<path d="M0 0 C0.88059586 -0.00570007 1.76119171 -0.01140015 2.66847229 -0.01727295 C4.52660949 -0.02667204 6.38476298 -0.03323653 8.24291992 -0.03710938 C11.02749369 -0.04674041 13.81130431 -0.07778179 16.59570312 -0.109375 C31.09390124 -0.19618524 45.04880552 1.07877708 58.81640625 5.953125 C59.55632812 6.20916504 60.29625 6.46520508 61.05859375 6.72900391 C72.5170096 10.81883004 82.43829828 16.15731206 91.62890625 24.203125 C92.30179687 24.73292969 92.9746875 25.26273438 93.66796875 25.80859375 C112.74993841 41.20340991 122.59769904 66.97017749 125.16796875 90.75390625 C125.72509464 96.51229136 125.77647493 102.23428211 125.75390625 108.015625 C125.75777344 109.02560547 125.76164062 110.03558594 125.765625 111.07617188 C125.76369141 112.54086914 125.76369141 112.54086914 125.76171875 114.03515625 C125.76059082 114.90889893 125.75946289 115.7826416 125.75830078 116.68286133 C125.62520206 119.27527285 125.2001166 121.67408693 124.62890625 124.203125 C125.59828125 124.120625 126.56765625 124.038125 127.56640625 123.953125 C134.59001411 123.98150321 140.94346695 127.71343859 146 132.3828125 C156.90320085 144.56720481 158.31206317 160.36949288 157.76953125 176.02832031 C156.86698047 189.98651884 152.12229417 203.5311479 141.609375 213.02734375 C133.99224635 219.04239945 127.17508431 219.77483204 117.62890625 219.203125 C116.28556659 218.91273309 114.94565886 218.59689073 113.62890625 218.203125 C113.25765625 219.21375 112.88640625 220.224375 112.50390625 221.265625 C112.22417969 221.99910156 111.94445312 222.73257813 111.65625 223.48828125 C110.89927887 225.48864223 110.16572174 227.49790151 109.4453125 229.51171875 C103.50426325 245.41622737 94.71468923 258.32601128 82.62890625 270.203125 C81.86835938 270.96238281 81.1078125 271.72164063 80.32421875 272.50390625 C73.20221212 279.22154987 58.88644321 291.203125 48.62890625 291.203125 C48.62890625 296.813125 48.62890625 302.423125 48.62890625 308.203125 C50.27890625 307.543125 51.92890625 306.883125 53.62890625 306.203125 C58.98997803 305.71575484 62.05551618 306.41164687 66.62890625 309.203125 C68.51959954 311.04828524 70.26908699 312.98581712 72.03149414 314.95361328 C79.75577738 323.51830312 85.43095455 327.05141891 96.66748047 328.81933594 C117.92516078 332.97879243 138.43663341 348.82458685 150.62890625 366.203125 C163.62890625 385.74602929 163.62890625 385.74602929 163.62890625 394.203125 C164.304375 394.08453125 164.97984375 393.9659375 165.67578125 393.84375 C172.95451373 392.79191005 172.95451373 392.79191005 176.19140625 394.765625 C177.94786107 397.74396143 178.55815909 399.73651402 178.62890625 403.203125 C177.18974947 406.84334508 175.95391148 408.01077497 172.56640625 410.015625 C169.62890625 411.203125 169.62890625 411.203125 167.62890625 411.203125 C167.95890625 412.193125 168.28890625 413.183125 168.62890625 414.203125 C168.71287782 416.55992713 168.73618812 418.91906581 168.7265625 421.27734375 C168.72444008 422.30309258 168.72444008 422.30309258 168.72227478 423.3495636 C168.71668501 425.52996222 168.70413447 427.71025751 168.69140625 429.890625 C168.68638992 431.37044122 168.68182725 432.85025906 168.67773438 434.33007812 C168.66671896 437.95446057 168.64946137 441.5787827 168.62890625 445.203125 C169.70527344 444.9865625 170.78164063 444.77 171.890625 444.546875 C195.29611751 440.00836168 195.29611751 440.00836168 201.3515625 443.99609375 C208.03950877 450.47755112 209.70315606 459.72212856 209.94140625 468.703125 C209.82110811 475.19170585 209.30404498 480.54480719 204.4934082 485.32519531 C201.06354024 487.5737715 197.96730023 488.17742897 193.984375 488.6875 C193.2557576 488.79282043 192.5271402 488.89814087 191.77644348 489.00665283 C190.24028029 489.22565722 188.70300846 489.43700697 187.16479492 489.64111328 C184.83181096 489.9510783 182.50301462 490.28388721 180.17382812 490.62109375 C178.6733665 490.83208067 177.17272011 491.0417585 175.671875 491.25 C174.98514206 491.34682068 174.29840912 491.44364136 173.59086609 491.543396 C168.87270749 492.16299446 164.37271513 492.48469342 159.62890625 492.203125 C158.83097656 491.37425781 158.03304688 490.54539062 157.2109375 489.69140625 C154.96836356 487.05206632 154.96836356 487.05206632 152.56005859 486.88427734 C150.1202835 486.93532712 147.74202204 487.12451561 145.31640625 487.390625 C144.0624707 487.49600586 144.0624707 487.49600586 142.78320312 487.60351562 C140.72958732 487.77953984 138.67880858 487.98813005 136.62890625 488.203125 C136.38140625 489.13125 136.13390625 490.059375 135.87890625 491.015625 C134.50841488 494.51037799 133.74173359 495.28710297 130.62890625 497.203125 C128.45346642 497.80652905 128.45346642 497.80652905 126.05502319 498.13334656 C125.14156631 498.26368286 124.22810944 498.39401917 123.28697205 498.52830505 C121.79406395 498.72251793 121.79406395 498.72251793 120.27099609 498.9206543 C118.68952034 499.14076675 118.68952034 499.14076675 117.07609558 499.36532593 C113.58222435 499.84817358 110.08625494 500.31327326 106.58984375 500.77734375 C104.14993808 501.10864978 101.71013018 501.44067662 99.27041626 501.77339172 C94.1451685 502.46950101 89.01884118 503.15685646 83.89160156 503.83813477 C77.36470656 504.70608422 70.84092836 505.59529886 64.31783104 506.49129009 C59.27077562 507.1820792 54.22221259 507.86129821 49.17314529 508.53721046 C46.77046205 508.86022175 44.36824151 509.18669648 41.96653366 509.51688194 C38.57858239 509.98086717 35.18887644 510.42913069 31.79833984 510.8737793 C30.3479406 511.07710121 30.3479406 511.07710121 28.86824036 511.28453064 C13.55984885 513.24241799 -1.34127242 512.16495958 -16.55151367 510.03173828 C-18.28649506 509.79752193 -20.02161754 509.56434878 -21.75686646 509.3321228 C-26.40847863 508.70652328 -31.05795114 508.06621332 -35.70711303 507.42268991 C-40.59671915 506.74823107 -45.48808383 506.08675819 -50.37922668 505.42355347 C-58.57628969 504.31017834 -66.77206392 503.18770286 -74.96704102 502.05908203 C-84.42939282 500.75597629 -93.89331918 499.464868 -103.3582508 498.1806432 C-113.47095874 496.80845965 -123.58258136 495.4284126 -133.69384217 494.04560995 C-136.59625187 493.64916289 -139.49884585 493.25408935 -142.40147972 492.85928726 C-146.96019451 492.23877743 -151.51814622 491.61292831 -156.07556534 490.98297501 C-157.74461923 490.75306088 -159.41391123 490.52486753 -161.08345604 490.29854584 C-163.36660172 489.98872218 -165.64878199 489.67254682 -167.93083191 489.35476685 C-169.84397328 489.09205585 -169.84397328 489.09205585 -171.79576397 488.82403755 C-181.38981978 487.15787805 -181.38981978 487.15787805 -184.68359375 483.953125 C-189.48428196 476.12978125 -189.48518445 467.43475709 -187.61328125 458.64453125 C-185.8011604 452.35918294 -184.13383655 446.72942899 -178.4453125 442.91015625 C-168.88277272 439.65060879 -156.9756689 443.29131383 -147.37109375 445.203125 C-147.37633057 444.27975342 -147.38156738 443.35638184 -147.38696289 442.4050293 C-147.4040096 438.97777686 -147.41654625 435.5505695 -147.42602539 432.12329102 C-147.43105278 430.64021087 -147.4378756 429.15713567 -147.4465332 427.67407227 C-147.45866857 425.54181699 -147.464338 423.40962727 -147.46875 421.27734375 C-147.47398682 419.99432373 -147.47922363 418.71130371 -147.48461914 417.3894043 C-147.37109375 414.203125 -147.37109375 414.203125 -146.37109375 411.203125 C-147.73234375 410.831875 -147.73234375 410.831875 -149.12109375 410.453125 C-152.56126143 409.12998358 -154.13639237 408.09996012 -156.37109375 405.203125 C-157.46419758 402.15805006 -157.49291114 400.6396373 -156.62109375 397.515625 C-155.37109375 395.203125 -155.37109375 395.203125 -152.37109375 393.203125 C-149.890625 393.2265625 -149.890625 393.2265625 -147.18359375 393.578125 C-146.28253906 393.68898438 -145.38148438 393.79984375 -144.453125 393.9140625 C-143.42251953 394.05714844 -143.42251953 394.05714844 -142.37109375 394.203125 C-142.23703125 393.46964844 -142.10296875 392.73617188 -141.96484375 391.98046875 C-137.57996016 371.46959879 -120.38681123 352.5424244 -103.37109375 341.203125 C-93.54902083 334.98343183 -82.00307765 329.26672872 -70.359375 327.83203125 C-59.50604883 326.39577936 -53.24752847 317.71257807 -46.30883789 309.94311523 C-43.06850734 307.03347232 -40.1671351 306.2599851 -35.87109375 305.953125 C-32.37109375 306.203125 -32.37109375 306.203125 -27.37109375 308.203125 C-27.37109375 302.593125 -27.37109375 296.983125 -27.37109375 291.203125 C-28.54671875 290.89375 -29.72234375 290.584375 -30.93359375 290.265625 C-43.75131589 285.93259 -53.90837195 277.5653323 -63.37109375 268.203125 C-64.35142578 267.31367187 -64.35142578 267.31367187 -65.3515625 266.40625 C-77.85640009 254.84571365 -86.23689249 237.81915202 -90.6796875 221.58203125 C-91.14491839 219.26874639 -91.14491839 219.26874639 -92.37109375 218.203125 C-93.70514391 218.53357779 -95.03829546 218.86765876 -96.37109375 219.203125 C-106.43221527 219.9505226 -113.26559638 219.03969681 -121.05859375 212.515625 C-132.23729476 201.95156047 -136.21556702 187.12060886 -136.65649414 172.08276367 C-136.84516112 156.82113515 -133.94559373 142.34991069 -123.25390625 130.89453125 C-117.79938671 125.99451681 -112.46716813 124.96526855 -105.37109375 124.203125 C-105.3868042 123.38859863 -105.40251465 122.57407227 -105.41870117 121.73486328 C-105.94264787 90.39091282 -105.94264787 90.39091282 -102.37109375 76.203125 C-102.20480469 75.53216797 -102.03851563 74.86121094 -101.8671875 74.16992188 C-98.65104271 61.69842708 -93.01563854 44.05914328 -82.55859375 35.765625 C-80.37109375 35.203125 -80.37109375 35.203125 -76.74609375 35.640625 C-72.25077757 35.82652153 -70.22169472 33.72087213 -66.99609375 30.765625 C-65.74699219 29.53005859 -65.74699219 29.53005859 -64.47265625 28.26953125 C-62.37109375 26.203125 -62.37109375 26.203125 -60.37109375 25.203125 C-60.24242475 23.27309003 -60.12023412 21.34051283 -60.10546875 19.40625 C-58.59989385 14.8895253 -54.25607684 12.66274169 -50.2421875 10.578125 C-34.17656214 4.14456399 -17.34612622 0.08945618 0 0 Z " fill="#020202" transform="translate(245.37109375,-0.203125)"/>
<path d="M0 0 C7.58699977 4.02207337 15.16593467 5.9951879 23.5625 7.6875 C24.69357178 7.93975342 25.82464355 8.19200684 26.98999023 8.4519043 C37.34980261 10.67464783 47.30408887 11.12974273 57.875 11 C58.68576996 10.99440063 59.49653992 10.98880127 60.33187866 10.98303223 C83.45466662 10.82238808 109.002991 9.70372763 129.24609375 -2.99609375 C133.93609284 -5.66140521 139.07559057 -3.70753979 143.98828125 -2.40234375 C166.17954505 4.39560311 184.09726608 18.29950504 195.05175781 38.91162109 C195.40592773 39.60078613 195.76009766 40.28995117 196.125 41 C196.62725098 41.96800537 196.62725098 41.96800537 197.13964844 42.95556641 C199.37206252 47.55095199 200.15003207 51.59662867 200.5625 56.6875 C186.40645313 63.57384645 172.23738406 70.41617324 157.9375 77 C146.49088677 82.2739561 135.15152383 87.74719922 123.82803345 93.27911377 C112.54358999 98.78940483 101.20890218 104.16948329 89.79296875 109.40234375 C83.52820905 112.27949265 77.35783397 115.2779408 71.24633789 118.46948242 C66.31625404 120.70692337 61.59068895 121.60942563 56.33398438 120.0090332 C49.49657986 117.16373923 42.83846277 114.00511117 36.1875 110.75 C33.77162909 109.57644005 31.35526501 108.40401623 28.9375 107.234375 C28.32266754 106.93686844 27.70783508 106.63936188 27.07437134 106.33283997 C20.8140206 103.3119816 14.50256481 100.404453 8.1875 97.5 C-3.72773499 92.00958024 -15.52390651 86.29257172 -27.30831909 80.52770996 C-40.14205792 74.25235313 -53.04706798 68.15724903 -66.02734375 62.19140625 C-69.86864714 60.42444568 -73.6756 58.61751826 -77.4375 56.6875 C-76.96000403 50.64818474 -75.66449032 46.16740144 -72.875 40.8125 C-72.52074951 40.11922607 -72.16649902 39.42595215 -71.80151367 38.71166992 C-67.57344239 30.69130517 -62.07931322 23.85489799 -55.4375 17.6875 C-54.80070312 17.03394531 -54.16390625 16.38039063 -53.5078125 15.70703125 C-40.36756602 2.85436593 -17.66338681 -9.90252298 0 0 Z " fill="#D1CEE7" transform="translate(194.4375,346.3125)"/>
<path d="M0 0 C16.00638762 14.20053876 24.82380728 34.31212297 27.5234375 55.3515625 C27.82248552 60.51895706 27.8636529 65.67713537 27.8359375 70.8515625 C27.83411469 71.55677032 27.83229187 72.26197815 27.83041382 72.98855591 C27.75348213 90.69411989 24.97129469 106.53426421 19.5234375 123.3515625 C18.37717428 122.37289912 17.23143962 121.39361663 16.0859375 120.4140625 C15.44785156 119.86878906 14.80976563 119.32351562 14.15234375 118.76171875 C13.25352601 117.98360555 12.36407222 117.19219722 11.5234375 116.3515625 C11.47173205 113.58149091 11.48202029 110.83522863 11.53125 108.06640625 C11.54881037 106.31966771 11.56571422 104.57292247 11.58203125 102.82617188 C11.61260833 100.08175784 11.64760075 97.33768642 11.69482422 94.59350586 C12.15544958 68.92204594 12.15544958 68.92204594 0.90625 46.5390625 C-4.07090768 42.18095428 -8.81963025 41.9013783 -15.16796875 41.9296875 C-20.6257284 42.29239919 -25.83009817 43.77670383 -31.1015625 45.1640625 C-44.98974071 48.81375404 -58.38357709 51.56787937 -72.7890625 51.6640625 C-73.55250977 51.66970215 -74.31595703 51.6753418 -75.10253906 51.68115234 C-88.92697146 51.50798005 -102.20989935 48.13429278 -115.52929688 44.7421875 C-124.2908402 42.60017691 -132.43312491 41.02869362 -141.2890625 43.3515625 C-149.33587456 48.40054261 -152.23171283 56.42972406 -154.4765625 65.3515625 C-155.50702082 71.04370405 -155.50538588 76.412737 -155.328125 82.16015625 C-155.29113294 84.06051203 -155.25603476 85.96090544 -155.22265625 87.86132812 C-155.16715968 90.82892132 -155.10138393 93.79446987 -155.00341797 96.76098633 C-154.9120791 99.64437754 -154.86634514 102.52563278 -154.828125 105.41015625 C-154.78885895 106.2874791 -154.7495929 107.16480194 -154.70913696 108.06871033 C-154.68062227 114.4276004 -156.52370666 117.44482568 -160.96810913 121.95106506 C-161.46589874 122.41322922 -161.96368835 122.87539337 -162.4765625 123.3515625 C-165.06417893 120.76394607 -165.84870302 117.93289422 -166.9765625 114.5390625 C-167.399375 113.31574219 -167.8221875 112.09242188 -168.2578125 110.83203125 C-171.412866 100.10460013 -171.79945669 89.27443493 -171.73730469 78.1862793 C-171.72659122 75.92013709 -171.73726212 73.65479013 -171.75 71.38867188 C-171.76367471 59.04686975 -170.88643482 46.96781809 -166.7890625 35.2265625 C-166.53213623 34.47157471 -166.27520996 33.71658691 -166.01049805 32.9387207 C-163.26141123 25.20192263 -159.24423703 18.57195307 -154.75 11.71875 C-153.04376739 8.54704152 -153.67161087 6.79090129 -154.4765625 3.3515625 C-154.4765625 -0.6484375 -154.4765625 -0.6484375 -152.4296875 -2.9375 C-151.53765625 -3.70835938 -150.645625 -4.47921875 -149.7265625 -5.2734375 C-148.84484375 -6.04945312 -147.963125 -6.82546875 -147.0546875 -7.625 C-144.88989679 -9.32403271 -142.98489965 -10.55836575 -140.4765625 -11.6484375 C-139.6721875 -10.9059375 -139.6721875 -10.9059375 -138.8515625 -10.1484375 C-135.77153351 -8.20315603 -134.08834116 -8.35073938 -130.4765625 -8.6484375 C-127.50837637 -9.79312471 -127.50837637 -9.79312471 -124.5390625 -11.3984375 C-88.91404587 -28.52429584 -31.4093887 -25.64871479 0 0 Z " fill="#DF9873" transform="translate(327.4765625,35.6484375)"/>
<path d="M0 0 C1.28377096 2.56754192 0.70647196 3.26419919 0 6 C-0.97119225 17.6065434 1.3269411 27.32334266 8.109375 36.86328125 C14.74011137 44.35710934 23.09160722 49.29578964 33.02734375 50.30859375 C43.43783974 50.71709121 53.06410687 48.4331785 61.19140625 41.69140625 C67.25206055 36.02345094 70.97148705 30.75299316 74 23 C79.94 23 85.88 23 92 23 C93.2375 25.7225 93.2375 25.7225 94.5 28.5 C100.09078083 39.55154351 108.1440959 45.75428058 119.9453125 49.640625 C131.659576 51.68950759 140.8273283 49.29275848 150.75 43.25 C158.74172433 37.62619399 164.16043083 28.60862341 166 19 C166.28608563 12.95854456 166.31729911 6.927846 165 1 C167.89350436 2.29708816 170.02309577 3.49657134 172 6 C172.37231445 8.41333008 172.37231445 8.41333008 172.36328125 11.26953125 C172.36497314 12.83973022 172.36497314 12.83973022 172.36669922 14.44165039 C172.33987061 16.11022095 172.33987061 16.11022095 172.3125 17.8125 C172.29340576 19.51684204 172.29340576 19.51684204 172.27392578 21.25561523 C171.83259086 46.77462141 163.78694726 68.00835975 145.58984375 86.44140625 C139.87417539 91.79475015 133.77457859 96.09083183 127 100 C126.2575 100.43957031 125.515 100.87914062 124.75 101.33203125 C119.22825384 104.35173618 113.4064282 106.32128431 107.4375 108.25 C106.64601563 108.5085376 105.85453125 108.7670752 105.0390625 109.03344727 C83.30019093 115.79079344 60.27040691 111.94177474 40.3125 101.75 C18.0095154 89.22997705 3.57299262 69.19583549 -3.49072266 44.94897461 C-5.92628042 36.14406427 -6.29654499 27.47388875 -6.4375 18.375 C-6.48326172 17.16070312 -6.52902344 15.94640625 -6.57617188 14.6953125 C-6.68656936 5.97871088 -6.68656936 5.97871088 -4.63330078 3.05175781 C-2.97265625 1.6640625 -2.97265625 1.6640625 0 0 Z " fill="#FCCBBC" transform="translate(173,171)"/>
<path d="M0 0 C3.71777006 0.19949358 6.95842673 0.77060357 10.56665039 1.66552734 C11.83444336 1.97232422 13.10223633 2.27912109 14.40844727 2.59521484 C15.73091346 2.92253053 17.05317898 3.25065808 18.37524414 3.57958984 C51.10366835 11.69915881 80.22174508 9.91960943 112.54321289 0.90380859 C116.10313725 0.14248666 119.18367533 -0.086088 122.81274414 0.20458984 C131.0652057 8.90313041 129.98009425 24.91327662 129.93774414 36.07958984 C129.94161133 37.09150391 129.94547852 38.10341797 129.94946289 39.14599609 C129.94083622 45.88342652 129.53784531 52.50690135 128.81274414 59.20458984 C125.67653325 58.46241102 122.90584436 57.40060042 119.93774414 56.14208984 C109.68107401 52.43223044 99.79714713 53.22193459 89.85571289 57.53271484 C80.60742231 62.61393226 73.12823441 70.62866538 70.00805664 80.83740234 C69.52633534 82.94245843 69.15660203 85.07267093 68.81274414 87.20458984 C63.53274414 87.20458984 58.25274414 87.20458984 52.81274414 87.20458984 C52.60649414 85.92583984 52.40024414 84.64708984 52.18774414 83.32958984 C49.74826833 72.3605993 42.50184216 64.48242818 33.25805664 58.56396484 C24.04176462 53.44053094 13.61686869 52.6606207 3.50024414 55.45458984 C-0.74453877 56.88780411 -4.40322131 58.81900285 -8.18725586 61.20458984 C-9.35201925 53.07003258 -9.40750886 44.94971053 -9.42749023 36.74902344 C-9.43720603 34.34193482 -9.46831252 31.93569824 -9.49975586 29.52880859 C-9.69603644 0.62238824 -9.69603644 0.62238824 0 0 Z " fill="#FCCCBD" transform="translate(195.187255859375,91.79541015625)"/>
<path d="M0 0 C11.62530455 0.49908533 23.04163788 1.48195494 34.5625 3.125 C36.13167575 3.34293475 37.70093329 3.5602812 39.27026367 3.77709961 C48.57521358 5.06887323 57.87316636 6.41028206 67.171875 7.74609375 C68.20786331 7.89491501 69.24385162 8.04373627 70.31123352 8.19706726 C71.87384163 8.42158318 71.87384163 8.42158318 73.46801758 8.65063477 C74.51390045 8.80090118 75.55978333 8.9511676 76.63735962 9.10598755 C78.75555559 9.41053561 80.8736993 9.7154474 82.99179077 10.02072144 C97.03874527 12.0438851 111.08988643 13.94179979 125.17871094 15.64819336 C133.66033004 16.682825 142.11278439 17.85640057 150.5625 19.125 C152.24122192 19.37515869 152.24122192 19.37515869 153.95385742 19.63037109 C158.4556737 20.30429773 162.95434228 20.9875621 167.4453125 21.73046875 C183.3265224 24.20051079 198.42250803 21.45576863 214.1484375 19.0390625 C220.15285242 18.11877526 226.16298899 17.2770425 232.1875 16.5 C233.09411377 16.38285645 234.00072754 16.26571289 234.93481445 16.14501953 C239.89398029 15.51037579 244.85519651 14.89325072 249.81758118 14.28430176 C251.90363189 14.02821464 253.98954295 13.77101184 256.07543945 13.51367188 C258.75712197 13.18283486 261.43922482 12.85662413 264.12182617 12.53320312 C271.18685489 11.6652126 278.20886459 10.67034687 285.234375 9.53125 C295.96233853 7.79608018 306.7319967 6.49145565 317.52050781 5.19775391 C327.62332235 3.98142048 337.68390297 2.65798939 347.71813965 0.95605469 C353.21182769 0.04380643 358.42150782 -0.27435207 364 0 C365.44207941 2.88415883 365.09394887 5.41721528 365.0625 8.625 C365.05347656 9.81351562 365.04445313 11.00203125 365.03515625 12.2265625 C365.01775391 13.59941406 365.01775391 13.59941406 365 15 C364.02651611 15.09498779 363.05303223 15.18997559 362.05004883 15.2878418 C358.42268901 15.64770713 354.79893418 16.036687 351.17553711 16.43432617 C349.60995753 16.60206106 348.04352099 16.76199509 346.47631836 16.91381836 C344.21715523 17.13406704 341.96261043 17.38264727 339.70703125 17.63671875 C339.01100296 17.69840744 338.31497467 17.76009613 337.59785461 17.82365417 C332.53283502 18.4350502 330.17814264 20.06885318 327 24 C326.13880866 26.17346568 326.13880866 26.17346568 326 28 C323.95928485 28.33910994 321.91737379 28.67102704 319.875 29 C318.73804688 29.185625 317.60109375 29.37125 316.4296875 29.5625 C313.204333 29.97393474 310.24235639 30.25995569 307 30 C305.25 27.5625 305.25 27.5625 304 25 C301.42804982 23.71402491 299.97462266 24.05277192 297.12109375 24.34448242 C296.12964355 24.44546234 295.13819336 24.54644226 294.11669922 24.65048218 C289.09185495 25.21398623 284.07646572 25.83537733 279.0625 26.48828125 C277.95194244 26.631483 276.84138489 26.77468475 275.69717407 26.92222595 C272.13111886 27.38314095 268.56553227 27.84755819 265 28.3125 C263.78447449 28.47028931 262.56894897 28.62807861 261.31658936 28.79064941 C247.05348709 30.64344108 232.80550433 32.54588488 218.58642578 34.71313477 C211.35976311 35.81184416 204.12520955 36.81869925 196.875 37.75 C195.90771973 37.87793945 194.94043945 38.00587891 193.94384766 38.13769531 C193.0316748 38.25209961 192.11950195 38.36650391 191.1796875 38.484375 C190.39319824 38.58459961 189.60670898 38.68482422 188.79638672 38.78808594 C181.83545172 39.31559524 175.19217788 38.92499493 168.3046875 37.86328125 C167.49182281 37.74377609 166.67895813 37.62427094 165.84146118 37.50114441 C164.09549618 37.2441214 162.34992836 36.98438809 160.60473633 36.72216797 C155.89228367 36.01494182 151.17662082 35.32983192 146.4609375 34.64453125 C145.49770569 34.50423492 144.53447388 34.3639386 143.54205322 34.21939087 C134.20829314 32.86848548 124.85782811 31.6702993 115.5 30.5 C101.97872199 28.80386187 88.4860912 26.95601931 75 25 C55.02798716 22.10453793 35.02483184 19.50099356 15 17 C13.44433226 16.8053679 11.88866823 16.61070621 10.33300781 16.41601562 C6.55541422 15.94340308 2.77773336 15.47149401 -1 15 C-1.125 2.25 -1.125 2.25 0 0 Z " fill="#F9969D" transform="translate(74,458)"/>
<path d="M0 0 C16.72065648 1.50298036 36.99453239 10.8466182 48.17578125 23.453125 C63.00670645 42.86618249 69.44305502 64.12555689 69.3125 88.5 C69.31067719 89.20520782 69.30885437 89.91041565 69.30697632 90.63699341 C69.23004463 108.34255739 66.44785719 124.18270171 61 141 C59.85373678 140.02133662 58.70800212 139.04205413 57.5625 138.0625 C56.92441406 137.51722656 56.28632813 136.97195312 55.62890625 136.41015625 C54.73008851 135.63204305 53.84063472 134.84063472 53 134 C52.94829455 131.22992841 52.95858279 128.48366613 53.0078125 125.71484375 C53.02537287 123.96810521 53.04227672 122.22135997 53.05859375 120.47460938 C53.08917083 117.73019534 53.12416325 114.98612392 53.17138672 112.24194336 C53.44443319 95.49253656 52.56048048 80.81424466 44 66 C43 64 43 64 42.8125 60.375 C40.96132444 42.68915349 29.43338569 23.48776292 15.9375 12.38671875 C10.85226459 8.50287021 5.67191382 4.96486404 0 2 C0 1.34 0 0.68 0 0 Z " fill="#D98557" transform="translate(286,18)"/>
<path d="M0 0 C5.91645597 3.91869162 10.08351806 9.61504952 12.10546875 16.39453125 C13.3193385 23.67774977 11.18075841 29.35858586 7.10546875 35.39453125 C2.72216843 40.35047176 -2.5749369 43.73783616 -9.20703125 44.74609375 C-16.649001 45.1879607 -22.84340219 42.83508344 -28.52734375 38.0078125 C-33.42861815 32.6516294 -35.53506398 25.91769575 -35.23828125 18.7578125 C-34.20156611 11.63039589 -31.5536393 5.92732286 -25.73828125 1.578125 C-17.4310868 -3.75467144 -8.85648753 -4.43608136 0 0 Z " fill="#F8C9BA" transform="translate(221.89453125,162.60546875)"/>
<path d="M0 0 C4.88545953 2.72622623 7.87377357 6.21856624 10.6875 11 C11.06003906 11.62519531 11.43257813 12.25039062 11.81640625 12.89453125 C13.98975046 18.14759192 13.45359734 24.44871768 11.84765625 29.796875 C8.61796998 36.97395559 3.95479662 40.59280704 -2.75 44.375 C-9.57499342 46.03963254 -16.15234403 45.43174043 -22.3125 42 C-27.47155096 38.40907784 -32.13120349 34.42897906 -33.3125 28 C-34.08928656 20.60287344 -34.52435989 13.82252609 -29.87109375 7.6796875 C-21.51583662 -1.32472495 -11.93054238 -5.3525243 0 0 Z " fill="#F9C8BA" transform="translate(312.3125,162)"/>
<path d="M0 0 C2.89350436 1.29708816 5.02309577 2.49657134 7 5 C7.37231445 7.41333008 7.37231445 7.41333008 7.36328125 10.26953125 C7.36497314 11.83973022 7.36497314 11.83973022 7.36669922 13.44165039 C7.33987061 15.11022095 7.33987061 15.11022095 7.3125 16.8125 C7.29340576 18.51684204 7.29340576 18.51684204 7.27392578 20.25561523 C6.83259086 45.77462141 -1.21305274 67.00835975 -19.41015625 85.44140625 C-25.12582461 90.79475015 -31.22542141 95.09083183 -38 99 C-38.7425 99.43957031 -39.485 99.87914062 -40.25 100.33203125 C-45.86655893 103.40358691 -51.80660417 105.40185813 -57.875 107.375 C-59.12506836 107.78794312 -59.12506836 107.78794312 -60.40039062 108.20922852 C-61.19380859 108.45729248 -61.98722656 108.70535645 -62.8046875 108.9609375 C-63.87178955 109.29810791 -63.87178955 109.29810791 -64.96044922 109.64208984 C-67.27844692 110.0488632 -68.78061284 109.7215035 -71 109 C-70.06800781 108.47792969 -69.13601563 107.95585937 -68.17578125 107.41796875 C-43.35551465 93.21529705 -28.63284086 73.82144127 -19 47 C-19.99 46.505 -19.99 46.505 -21 46 C-20.03900391 45.50693359 -20.03900391 45.50693359 -19.05859375 45.00390625 C-8.71372515 39.31499937 -2.91730148 31.30849484 0.59375 20.10546875 C1.83518914 13.67147167 1.41451027 6.36529621 0 0 Z " fill="#FAAD9B" transform="translate(338,172)"/>
<path d="M0 0 C4.80254637 3.3124706 8.89697571 7.64795837 10.75 13.20703125 C11.39072207 20.88519244 11.63975996 27.91200303 6.75 34.20703125 C1.37902023 40.02017401 -3.71303362 42.23329444 -11.625 42.58203125 C-17.94119652 42.43633879 -22.34197783 40.88189351 -27.00390625 36.59375 C-32.71135648 30.39119566 -33.73948376 24.47107996 -33.5546875 16.17578125 C-33.00355354 10.80575809 -31.3283249 7.15085078 -27.37890625 3.45703125 C-18.95827259 -3.16486592 -9.7562877 -5.56659157 0 0 Z " fill="#040404" transform="translate(267.25,385.79296875)"/>
<path d="M0 0 C4.66367993 0.64549203 9.22172957 2.07971719 13.76953125 3.28125 C20.69769264 4.82270308 27.4859959 5.16748127 34.5546875 5.203125 C35.90531784 5.21167511 35.90531784 5.21167511 37.28323364 5.22039795 C39.18425339 5.22979969 41.08528907 5.23636261 42.98632812 5.24023438 C45.83233833 5.24985578 48.6775988 5.28089055 51.5234375 5.3125 C64.76569165 5.38913975 78.61082401 5.1978883 91 0 C95.07191572 0.18150012 97.03988868 2.73282494 99.75 5.5625 C100.54921875 6.38878906 101.3484375 7.21507812 102.171875 8.06640625 C102.77515625 8.70449219 103.3784375 9.34257812 104 10 C89.63357142 22.14263251 64.93713219 21.27285914 47.3125 21.3125 C46.13599884 21.31801376 46.13599884 21.31801376 44.93572998 21.32363892 C31.08956259 21.35745593 17.16541456 20.82123403 3.875 16.5625 C3.18664062 16.35818359 2.49828125 16.15386719 1.7890625 15.94335938 C-2.37000645 14.66944608 -6.16636161 13.04818998 -10 11 C-8.53862003 9.26582911 -7.06850968 7.54088235 -5.58203125 5.828125 C-4.34783218 4.40193941 -3.13776156 2.95486249 -1.9375 1.5 C-1.298125 1.005 -0.65875 0.51 0 0 Z " fill="#F4F2F3" transform="translate(209,322)"/>
<path d="M0 0 C4.06695259 -0.50836907 6.65031512 -0.82414387 10.20703125 1.34765625 C16.54439687 6.69738047 19.87781442 12.73323291 21 21 C21.82234117 34.37013309 20.32241135 46.44733928 13 58 C9.03433625 61.78121427 6.47552641 63.14775678 1.0625 63.1875 C-0.25041016 63.20876953 -0.25041016 63.20876953 -1.58984375 63.23046875 C-4 63 -4 63 -7 61 C-7.37231445 58.24121094 -7.37231445 58.24121094 -7.36328125 54.734375 C-7.36263672 53.45046875 -7.36199219 52.1665625 -7.36132812 50.84375 C-7.35302979 50.16957031 -7.34473145 49.49539062 -7.33618164 48.80078125 C-7.31307285 46.79960721 -7.3173217 44.79817635 -7.32226562 42.796875 C-7.25566212 30.59026892 -6.12993786 19.12334035 -1.90234375 7.62109375 C-1.03056531 5.08878495 -0.46213588 2.63465096 0 0 Z " fill="#FBAD9B" transform="translate(367,140)"/>
<path d="M0 0 C1.69446356 4.91080643 3.121127 9.86927316 4.5 14.875 C4.81904297 16.02162109 4.81904297 16.02162109 5.14453125 17.19140625 C5.56981861 18.72818083 5.98793183 20.26695843 6.39892578 21.80761719 C6.93498956 23.76287825 7.5373225 25.69969361 8.1484375 27.6328125 C9.7056502 33.93842733 9.20706138 40.55502579 9.125 47 C9.11494978 48.36067049 9.10582754 49.72134817 9.09765625 51.08203125 C9.0742082 54.38820647 9.04138856 57.6940088 9 61 C4.28751841 63.485452 0.2743808 63.77736516 -5 63 C-11.96939713 59.05505823 -14.77146535 52.15736127 -16.9765625 44.6953125 C-20.04141541 31.83438769 -20.66842805 19.53195472 -14.1875 7.6875 C-10.10402502 2.67065931 -6.95269958 -0.82770233 0 0 Z " fill="#FBAD9B" transform="translate(143,140)"/>
<path d="M0 0 C0 9.9 0 19.8 0 30 C-20.76294281 32.93729526 -41.52749353 35.85935059 -62.32467651 38.54556274 C-64.0186 38.76437479 -65.71238831 38.98423598 -67.40603638 39.20516968 C-69.76765831 39.51262518 -72.12980108 39.81566929 -74.4921875 40.1171875 C-75.18302933 40.20751755 -75.87387115 40.2978476 -76.58564758 40.39091492 C-80.08023831 40.83076535 -83.4776222 41.09570298 -87 41 C-84.73819928 38.73819928 -82.8214196 37.87808362 -79.91015625 36.55859375 C-78.83306396 36.06584961 -77.75597168 35.57310547 -76.64624023 35.06542969 C-75.46360596 34.52821289 -74.28097168 33.99099609 -73.0625 33.4375 C-61.61213677 28.19331369 -50.25641924 22.77170664 -38.9375 17.25 C-37.4363335 16.51876893 -35.93511328 15.78764813 -34.43383789 15.05664062 C-31.57928432 13.6664712 -28.72488834 12.27597903 -25.87060547 10.88525391 C-20.75216849 8.39197076 -15.63268666 5.90135317 -10.5 3.4375 C-9.38032837 2.89174316 -9.38032837 2.89174316 -8.23803711 2.33496094 C-5.30039337 0.93273419 -3.29903199 0 0 0 Z " fill="#CCC9E3" transform="translate(399,418)"/>
<path d="M0 0 C4.58707207 1.52902402 8.51947946 3.12213432 12.8203125 5.23828125 C13.46836853 5.55536041 14.11642456 5.87243958 14.78411865 6.1991272 C16.17546513 6.87996679 17.56606997 7.56232371 18.95599365 8.24606323 C22.65880943 10.06662908 26.36809146 11.8738851 30.078125 13.6796875 C30.82943695 14.04543381 31.5807489 14.41118011 32.35482788 14.78800964 C42.79577889 19.85850106 53.34458383 24.69362853 63.88378906 29.55566406 C71.28076724 32.98409738 78.6403259 36.49237207 86 40 C86 40.33 86 40.66 86 41 C78.83140053 40.38789658 71.6952037 39.64087851 64.55859375 38.73046875 C63.59999451 38.60941772 62.64139526 38.4883667 61.65374756 38.36364746 C58.58130934 37.97433485 55.50935331 37.58139965 52.4375 37.1875 C51.39340973 37.05405182 50.34931946 36.92060364 49.27359009 36.78311157 C36.89457776 35.19751627 24.52377777 33.5803106 12.1875 31.6875 C11.147146 31.52854248 10.10679199 31.36958496 9.03491211 31.20581055 C2.26873248 30.13436624 2.26873248 30.13436624 0 29 C0 19.43 0 9.86 0 0 Z " fill="#CECBE4" transform="translate(114,418)"/>
<path d="M0 0 C19.3199542 1.01683969 38.29631927 11.45974152 51.359375 25.45654297 C56.69923525 31.52081809 60.87499105 38.13712431 64.5625 45.3125 C64.89733398 45.95783691 65.23216797 46.60317383 65.57714844 47.26806641 C66.03589355 48.21238525 66.03589355 48.21238525 66.50390625 49.17578125 C66.77017822 49.72145752 67.0364502 50.26713379 67.31079102 50.8293457 C68.35080642 54.10486004 68.57373489 57.58987914 69 61 C62.4 63.97 55.8 66.94 49 70 C48.46375 67.48375 47.9275 64.9675 47.375 62.375 C42.275928 40.11847122 29.12831048 19.14178646 9.54296875 6.76171875 C7.22214311 5.32893213 4.88190188 3.9446184 2.52734375 2.56640625 C1.69332031 2.04949219 0.85929687 1.53257812 0 1 C0 0.67 0 0.34 0 0 Z " fill="#C0BADD" transform="translate(326,342)"/>
<path d="M0 0 C1.31838253 0.65495663 2.63011815 1.32335135 3.9375 2 C10.59829152 5.11355864 18.69666562 5.5273985 25.65234375 3.05859375 C27.12296039 2.33711174 28.5849023 1.59752338 30.03515625 0.8359375 C33.26388859 -0.53771801 35.72785817 0.01835745 39 1 C40.9375 2.125 40.9375 2.125 42 4 C42.4375 7.4375 42.4375 7.4375 42 11 C37.06864585 17.09167277 29.05554276 19.51225098 21.4921875 20.421875 C10.87149588 20.65947437 -0.15568957 19.23121871 -9 13 C-10.56430248 9.87139505 -10.35627284 7.44397075 -10 4 C-6.90529772 0.55161745 -4.59129895 -0.83478163 0 0 Z " fill="#050404" transform="translate(240,229)"/>
<path d="M0 0 C2.15595703 0.24363281 2.15595703 0.24363281 4.35546875 0.4921875 C9.68830329 1.02331267 14.95654027 1.1529086 20.3125 1.125 C21.2202417 1.12306641 22.1279834 1.12113281 23.06323242 1.11914062 C30.09230894 1.07419848 36.99997893 0.67470083 44 0 C44 5.61 44 11.22 44 17 C29.48 17 14.96 17 0 17 C0 11.39 0 5.78 0 0 Z " fill="#FCAE9C" transform="translate(234,296)"/>
<path d="M0 0 C0 9.9 0 19.8 0 30 C-3.3825 30.515625 -6.765 31.03125 -10.25 31.5625 C-11.30993164 31.7282251 -12.36986328 31.8939502 -13.46191406 32.06469727 C-14.30463867 32.18901123 -15.14736328 32.3133252 -16.015625 32.44140625 C-16.87446289 32.57232666 -17.73330078 32.70324707 -18.61816406 32.83813477 C-21.01042114 33.0007082 -22.72802578 32.71976511 -25 32 C-24.34 32 -23.68 32 -23 32 C-23.33 24.74 -23.66 17.48 -24 10 C-20.56579392 8.3262355 -17.12798355 6.66076831 -13.6875 5 C-12.71103516 4.52304687 -11.73457031 4.04609375 -10.72851562 3.5546875 C-9.79072266 3.10351562 -8.85292969 2.65234375 -7.88671875 2.1875 C-6.59060669 1.55908203 -6.59060669 1.55908203 -5.26831055 0.91796875 C-3 0 -3 0 0 0 Z " fill="#BAB5D7" transform="translate(399,418)"/>
<path d="M0 0 C2.36940551 2.45420529 2.94063863 3.5929506 3.4375 7 C2.88385005 10.79645682 2.04182211 11.70334979 -1 14 C-3.64493746 14.38622515 -5.86493966 14.53894865 -8.50390625 14.49609375 C-9.58344826 14.4982766 -9.58344826 14.4982766 -10.68479919 14.50050354 C-12.20193543 14.4988476 -13.71908899 14.48732026 -15.23608398 14.46655273 C-17.55850441 14.4375499 -19.87864753 14.4459572 -22.20117188 14.45898438 C-23.67709442 14.4527479 -25.15300978 14.44435766 -26.62890625 14.43359375 C-27.66961021 14.43799721 -27.66961021 14.43799721 -28.7313385 14.44248962 C-31.55194238 14.38723957 -33.54528981 14.30189351 -35.92944336 12.71899414 C-37.83281203 9.66275268 -37.70227329 6.40809098 -37 3 C-29.35924448 -6.67829032 -9.96869768 -3.70029221 0 0 Z " fill="#070605" transform="translate(236,126)"/>
<path d="M0 0 C0.97259766 -0.020625 1.94519531 -0.04125 2.94726562 -0.0625 C9.6598228 -0.09885779 15.00993974 0.37033601 20.1875 5.0625 C21.6073509 8.16842383 21.14946291 10.02055309 20.1875 13.25 C19.09350586 14.90649414 19.09350586 14.90649414 17.1875 16.25 C14.64760621 16.56038354 12.35715364 16.69434424 9.81640625 16.68359375 C9.0976683 16.6888356 8.37893036 16.69407745 7.63841248 16.69947815 C6.11955048 16.70589606 4.60063877 16.70456425 3.08178711 16.69604492 C0.76130314 16.68754142 -1.55671286 16.716283 -3.87695312 16.74804688 C-5.35416593 16.74965924 -6.83138308 16.74908069 -8.30859375 16.74609375 C-9.00037216 16.75732773 -9.69215057 16.76856171 -10.40489197 16.78013611 C-13.76802054 16.73165084 -15.53613967 16.45977215 -18.24633789 14.40258789 C-19.8125 12.25 -19.8125 12.25 -20.375 9.3125 C-19.62400901 5.2237713 -18.02560204 3.80587662 -14.8125 1.25 C-10.04289628 -0.34841446 -4.97223297 0.02604968 0 0 Z " fill="#070505" transform="translate(292.8125,123.75)"/>
<path d="M0 0 C1.04800781 -0.02320313 1.04800781 -0.02320313 2.1171875 -0.046875 C5.72531787 -0.01964383 7.87041702 0.42078195 10.96484375 2.3125 C13 4.5 13 4.5 13.5625 8 C12.92323536 11.97764662 12.18788506 13.13185681 9 15.5 C5.69664934 16.60111689 3.10167863 16.70226528 -0.375 16.75 C-1.49648437 16.77578125 -2.61796875 16.8015625 -3.7734375 16.828125 C-7.32639283 16.46680751 -9.16250117 15.62554458 -12 13.5 C-13.56430248 10.37139505 -13.35627284 7.94397075 -13 4.5 C-9.11607069 0.28616164 -5.47395438 -0.12119456 0 0 Z " fill="#060504" transform="translate(256,203.5)"/>
<path d="M0 0 C7.26 0.66 14.52 1.32 22 2 C22 6.95 22 11.9 22 17 C14.74 17 7.48 17 0 17 C0 11.39 0 5.78 0 0 Z " fill="#FDCCBD" transform="translate(234,296)"/>
<path d="M0 0 C3.74000232 0.62333372 4.69438257 1.53005212 7 4.5 C7.53125 7.59375 7.53125 7.59375 7.5 11 C7.5103125 12.1240625 7.520625 13.248125 7.53125 14.40625 C6.89843779 18.09145053 5.95378932 19.27395587 3 21.5 C0 22 0 22 -3 21.5 C-5.95378932 19.27395587 -6.89843779 18.09145053 -7.53125 14.40625 C-7.5209375 13.2821875 -7.510625 12.158125 -7.5 11 C-7.51546875 9.31390625 -7.51546875 9.31390625 -7.53125 7.59375 C-6.71900213 2.86360067 -4.72467398 0.78744566 0 0 Z " fill="#060504" transform="translate(298,175.5)"/>
<path d="M0 0 C3.74000232 0.62333372 4.69438257 1.53005212 7 4.5 C7.53125 7.59375 7.53125 7.59375 7.5 11 C7.5103125 12.1240625 7.520625 13.248125 7.53125 14.40625 C6.89843779 18.09145053 5.95378932 19.27395587 3 21.5 C0 22 0 22 -3 21.5 C-5.95378932 19.27395587 -6.89843779 18.09145053 -7.53125 14.40625 C-7.5209375 13.2821875 -7.510625 12.158125 -7.5 11 C-7.51546875 9.31390625 -7.51546875 9.31390625 -7.53125 7.59375 C-6.71900213 2.86360067 -4.72467398 0.78744566 0 0 Z " fill="#060504" transform="translate(214,175.5)"/>
<path d="M0 0 C3.4375 0.9375 3.4375 0.9375 5.375 2.0625 C7.1087306 5.12202459 6.85895216 7.50567525 6.4375 10.9375 C4.8125 13.375 4.8125 13.375 2.4375 14.9375 C-1.19882575 15.54355429 -2.84564769 15.40911336 -5.9375 13.375 C-8.18590519 10.00239221 -8.13033945 7.91237617 -7.5625 3.9375 C-5.29401339 0.30792142 -4.30870043 -0.07559124 0 0 Z " fill="#F1EFF0" transform="translate(256.5625,398.0625)"/>
<path d="M0 0 C2.33095428 0.93525944 3.70736445 1.48847306 4.9765625 3.70703125 C10.48454919 21.59139768 9.9683956 40.5482732 8 59 C7.67 59 7.34 59 7 59 C6.98018066 58.16452637 6.96036133 57.32905273 6.93994141 56.46826172 C6.86070771 53.29584955 6.77399717 50.12374397 6.68261719 46.95166016 C6.62660266 44.93276376 6.57880517 42.91364462 6.53125 40.89453125 C6.19955201 29.67208255 5.5038239 18.44831047 1.875 7.75 C0 2.13868613 0 2.13868613 0 0 Z " fill="#DE9A8A" transform="translate(316,92)"/>
</svg>
