<?xml version="1.0" encoding="UTF-8"?>
<svg version="1.1" xmlns="http://www.w3.org/2000/svg" width="512" height="512">
<path d="M0 0 C1.68811428 1.47582112 3.35593451 2.97526184 5 4.5 C6.19882812 5.59634766 6.19882812 5.59634766 7.421875 6.71484375 C26.35402398 24.78932826 35.40124975 49.6926422 36 75.5 C35.93478004 94.73056964 35.93478004 94.73056964 29.9375 102 C25.74209823 104.14233282 21.65812737 104.31910185 17 104.5 C17.0825 105.77875 17.165 107.0575 17.25 108.375 C17.14498486 133.15857277 4.15081393 155.48552004 -13 172.5 C-14.07121094 173.18449219 -15.14242187 173.86898437 -16.24609375 174.57421875 C-18.41729483 176.34514253 -18.94932627 177.2733897 -19.57006836 180.04931641 C-19.81501914 183.15032706 -19.88260047 186.20200844 -19.875 189.3125 C-19.895625 190.38693359 -19.91625 191.46136719 -19.9375 192.56835938 C-19.98451611 195.21301554 -20.0044491 197.8550121 -20 200.5 C-18.80503906 200.75394531 -17.61007813 201.00789062 -16.37890625 201.26953125 C-11.57543665 202.30180272 -6.78535184 203.38697699 -2 204.5 C-1.01386719 204.726875 -0.02773437 204.95375 0.98828125 205.1875 C6.61067323 206.74118345 9.86581375 209.57485019 13 214.5 C14.1577506 217.97325181 14.06866652 220.86067448 14 224.5 C14.83917969 224.70302734 14.83917969 224.70302734 15.6953125 224.91015625 C30.30092641 228.83159921 44.52618224 236.49169782 53 249.5 C53 250.16 53 250.82 53 251.5 C53.66 251.5 54.32 251.5 55 251.5 C55.309375 250.695625 55.61875 249.89125 55.9375 249.0625 C57 246.5 57 246.5 58 245.5 C58.1065234 244.11474835 58.14617646 242.72425437 58.15771484 241.33496094 C58.16797699 240.45024109 58.17823914 239.56552124 58.18881226 238.6539917 C58.19611359 237.69051819 58.20341492 236.72704468 58.2109375 235.734375 C58.23901359 233.70962744 58.2676781 231.68488796 58.296875 229.66015625 C58.33810843 226.45622038 58.37497995 223.2524343 58.40136719 220.04833984 C58.42899349 216.96419712 58.47487625 213.88074967 58.5234375 210.796875 C58.52669037 209.84149841 58.52994324 208.88612183 58.53329468 207.90179443 C58.6966088 199.05582783 58.6966088 199.05582783 62 195.5 C63.65 195.17 65.3 194.84 67 194.5 C67 187.9 67 181.3 67 174.5 C65.35 174.17 63.7 173.84 62 173.5 C58.2885735 169.32997452 58.57873227 164.94821989 58.62768555 159.66503906 C58.62403488 158.78453384 58.62038422 157.90402863 58.61662292 156.99684143 C58.60852091 154.08623935 58.6221379 151.17619523 58.63671875 148.265625 C58.63723795 146.2284139 58.63671792 144.1912023 58.63520813 142.1539917 C58.63529787 137.87683661 58.64572167 133.59986988 58.66381836 129.32275391 C58.68633267 123.8865059 58.68708117 118.45053714 58.68030071 113.01425552 C58.67692682 108.79986163 58.68365728 104.58552929 58.69342995 100.37114716 C58.6972367 98.37003656 58.69844931 96.36891905 58.6968441 94.36780548 C58.6928277 64.38220625 63.06978204 36.10964281 83 12.5 C83.74378906 11.61699219 84.48757813 10.73398438 85.25390625 9.82421875 C99.82319368 -6.87345154 117.82917968 -18.91201247 140.33203125 -20.68359375 C148.1766292 -20.92387873 156.24594889 -19.77872608 163.4375 -16.625 C169.54908323 -14.3762936 175.17428719 -17.43940977 181 -19.5 C198.02503144 -22.96271826 214.4991686 -18.53612639 229 -9.5 C232.89034664 -6.71910464 236.44992571 -3.69846949 240 -0.5 C240.76570313 0.12390625 241.53140625 0.7478125 242.3203125 1.390625 C255.25274243 12.11507908 264.63253161 27.24757467 270.3125 42.9375 C270.54291992 43.56817383 270.77333984 44.19884766 271.01074219 44.84863281 C275.45733823 57.9533586 276.51275938 70.78748222 276.44604492 84.50170898 C276.4373884 87.22257777 276.46665733 89.94143895 276.49804688 92.66210938 C276.49965581 94.40364521 276.49908727 96.14518474 276.49609375 97.88671875 C276.50732773 98.69396896 276.51856171 99.50121918 276.53013611 100.33293152 C276.48515845 103.93899039 276.30396083 106.08147521 274.15649414 109.03833008 C272 110.5 272 110.5 269 110.5 C269.02279401 113.60579494 269.10007819 116.70790484 269.1875 119.8125 C269.19330078 120.69357422 269.19910156 121.57464844 269.20507812 122.48242188 C269.28854774 124.92158956 269.4108862 127.13037707 270 129.5 C272.3506547 131.56247007 272.3506547 131.56247007 275 132.5 C276.17558868 134.85117735 276.11981209 136.22238396 276.1111145 138.84251404 C276.1107872 139.75492355 276.1104599 140.66733307 276.11012268 141.60739136 C276.10488083 142.61150055 276.09963898 143.61560974 276.09423828 144.65014648 C276.09145069 146.83865851 276.08878093 149.02717069 276.08621216 151.21568298 C276.08163687 152.96358281 276.08163687 152.96358281 276.07696915 154.74679375 C276.06564697 160.91130524 276.08612846 167.07574212 276.1015625 173.24023438 C276.11983343 181.08794572 276.12861643 188.93526509 276.09960938 196.78295898 C276.07701907 203.1203467 276.08857378 209.45687998 276.12261581 215.79420662 C276.12937023 218.20498469 276.12374618 220.61583174 276.10525894 223.02654839 C275.69649227 240.6287262 275.69649227 240.6287262 284 255.5 C289.95595833 266.95657842 290.31507433 279.17911207 290.30078125 291.8359375 C290.30467807 293.28797526 290.30901473 294.7400119 290.31376648 296.19204712 C290.32117172 299.21254198 290.32097635 302.23291978 290.31567383 305.25341797 C290.30984395 309.11689034 290.32692157 312.97988877 290.3500185 316.8432827 C290.36475771 319.83219176 290.36562804 322.82098611 290.36250877 325.80992508 C290.36302049 327.2348386 290.36823011 328.6597588 290.37832069 330.08463669 C290.39068918 332.07250027 290.38194666 334.06046112 290.37231445 336.04833984 C290.37294388 337.17654144 290.3735733 338.30474304 290.3742218 339.46713257 C289.91813748 343.16345192 288.65265084 345.84734916 286 348.5 C278.81259523 349.08913154 278.81259523 349.08913154 275.5 346.6875 C274 344.5 274 344.5 274 341.5 C269.56135379 341.52273486 265.1253039 341.59995607 260.6875 341.6875 C259.42486328 341.69330078 258.16222656 341.69910156 256.86132812 341.70507812 C255.65283203 341.73408203 254.44433594 341.76308594 253.19921875 341.79296875 C252.08377686 341.8086792 250.96833496 341.82438965 249.8190918 341.84057617 C246.78594985 342.22819846 246.78594985 342.22819846 245.17504883 344.98168945 C244.59339966 346.22825317 244.59339966 346.22825317 244 347.5 C243 348.5 243 348.5 239.1875 348.8125 C235.99548109 348.7781156 235.18888197 348.63693943 232.5 346.6875 C231 344.5 231 344.5 231 341.5 C212.85 341.5 194.7 341.5 176 341.5 C175.34 343.15 174.68 344.8 174 346.5 C172 348.5 172 348.5 168.125 348.875 C164.97272633 348.80049171 164.15611325 348.61318211 161.5 346.6875 C160 344.5 160 344.5 160 341.5 C141.85 341.5 123.7 341.5 105 341.5 C104.67 342.82 104.34 344.14 104 345.5 C102.9375 347.25 102.9375 347.25 101 348.5 C94.06312292 349.27076412 94.06312292 349.27076412 90.5 346.6875 C89 344.5 89 344.5 89 341.5 C80.09 341.5 71.18 341.5 62 341.5 C61.34 343.15 60.68 344.8 60 346.5 C58 348.5 58 348.5 54.125 348.875 C50.97272633 348.80049171 50.15611325 348.61318211 47.5 346.6875 C46 344.5 46 344.5 46 341.5 C37.09 341.5 28.18 341.5 19 341.5 C18.34 343.15 17.68 344.8 17 346.5 C15 348.5 15 348.5 11.125 348.875 C7.97272633 348.80049171 7.15611325 348.61318211 4.5 346.6875 C3 344.5 3 344.5 3 341.5 C-15.15 341.5 -33.3 341.5 -52 341.5 C-52.33 343.15 -52.66 344.8 -53 346.5 C-56.2145607 348.64304046 -58.22928416 348.97210474 -62.05859375 348.89453125 C-64 348.5 -64 348.5 -66.5 346.125 C-68 343.5 -68 343.5 -68 341.5 C-86.15 341.5 -104.3 341.5 -123 341.5 C-123.33 343.15 -123.66 344.8 -124 346.5 C-127.79247686 349.02831791 -130.54949712 349.11322169 -135 348.5 C-137.67431489 346.68836733 -137.95920359 345.62238923 -139 342.5 C-147.91 342.17 -156.82 341.84 -166 341.5 C-166.33 343.15 -166.66 344.8 -167 346.5 C-170.79247686 349.02831791 -173.54949712 349.11322169 -178 348.5 C-180.67431489 346.68836733 -180.95920359 345.62238923 -182 342.5 C-182.10421356 340.44293703 -182.14861639 338.3826611 -182.16113281 336.32299805 C-182.17074036 335.04704269 -182.1803479 333.77108734 -182.19024658 332.45646667 C-182.19509915 331.0582192 -182.19937685 329.65996962 -182.203125 328.26171875 C-182.20595238 327.55379496 -182.20877975 326.84587116 -182.21169281 326.11649513 C-182.22669308 322.35915377 -182.23591308 318.60185077 -182.24023438 314.84448242 C-182.24567421 310.9996291 -182.26960304 307.15513802 -182.29820633 303.31039715 C-182.31703962 300.32541466 -182.32204947 297.34051511 -182.32357025 294.35547829 C-182.32655856 292.94078435 -182.33445417 291.52609048 -182.34775543 290.11145592 C-182.51070638 271.42398435 -178.81216978 254.44073177 -165.42578125 240.671875 C-158.34637804 234.33347212 -144.03519991 224.5 -134 224.5 C-133.96132812 223.62988281 -133.96132812 223.62988281 -133.921875 222.7421875 C-133.5266844 217.29933519 -132.79050362 213.67927322 -129 209.5 C-123.47541717 205.99586421 -117.41877108 204.3038969 -111.125 202.75 C-110.27164063 202.52957031 -109.41828125 202.30914062 -108.5390625 202.08203125 C-102.32885287 200.5 -102.32885287 200.5 -100 200.5 C-100 192.58 -100 184.66 -100 176.5 C-101.98 175.51 -101.98 175.51 -104 174.5 C-123.00968586 157.90787794 -134.00550007 136.56569308 -137 111.5 C-137.10342843 109.14686917 -137.07907802 106.85652497 -137 104.5 C-137.66386719 104.47421875 -138.32773438 104.4484375 -139.01171875 104.421875 C-144.49971167 104.06936159 -148.10862645 103.75618982 -152 99.5 C-158.54304458 90.33973758 -155.88816321 69.71114203 -154.5390625 59.16015625 C-152.33433954 47.00824206 -148.24976835 32.97452388 -140 23.5 C-137 21.5 -137 21.5 -133.875 22 C-127.57721613 21.18738273 -124.76006895 16.30939052 -121 11.5 C-120.40960938 10.81035156 -119.81921875 10.12070313 -119.2109375 9.41015625 C-117.62124405 7.33587853 -117.62124405 7.33587853 -118.375 3.6875 C-118.45165933 0.92776398 -118.28168885 -0.14845232 -116.53515625 -2.328125 C-84.08858802 -29.15545516 -31.86696787 -25.42246251 0 0 Z " fill="#020202" transform="translate(202,163.5)"/>
<path d="M0 0 C0.62100586 0.23704147 1.24201172 0.47408295 1.88183594 0.7183075 C3.17214736 1.21492636 4.45914868 1.72023199 5.74267578 2.23413086 C7.70508423 3.01874935 9.67705489 3.77386371 11.65234375 4.52539062 C22.4750971 8.72527657 22.4750971 8.72527657 24.6875 11.69921875 C25.02394531 13.41818359 25.02394531 13.41818359 25.3671875 15.171875 C26.2859761 18.65779704 26.2859761 18.65779704 28.34082031 19.82763672 C30.4733561 20.73378595 32.59630178 21.46114192 34.8125 22.13671875 C35.56660156 22.39130859 36.32070313 22.64589844 37.09765625 22.90820312 C38.95266015 23.53045127 40.81914588 24.11828404 42.6875 24.69921875 C43.038125 24.22484375 43.38875 23.75046875 43.75 23.26171875 C46.65880133 20.91591122 48.97668726 20.91602715 52.6875 20.69921875 C55.6081385 21.32696573 58.3027918 22.37580969 61.0703125 23.48828125 C61.84760712 23.78858246 62.62490173 24.08888367 63.42575073 24.39828491 C65.06083275 25.03453692 66.69282125 25.67879047 68.32177734 26.33056641 C70.80405695 27.32085047 73.29701594 28.27915808 75.79296875 29.234375 C77.38615245 29.85880303 78.97862641 30.48504558 80.5703125 31.11328125 C81.67984787 31.53862656 81.67984787 31.53862656 82.8117981 31.9725647 C87.92354969 34.04679069 92.11914347 36.56250569 94.6875 41.69921875 C95.37806536 48.6048724 95.37806536 48.6048724 92.796875 52.6953125 C89.2125932 56.72238097 84.52040093 58.20852236 79.5625 60.01171875 C78.65628906 60.35783203 77.75007812 60.70394531 76.81640625 61.06054688 C73.45822624 62.33665528 70.09573009 63.56314205 66.6875 64.69921875 C66.3575 68.98921875 66.0275 73.27921875 65.6875 77.69921875 C67.80929687 77.6528125 69.93109375 77.60640625 72.1171875 77.55859375 C74.20570492 77.52726833 76.29419471 77.50305511 78.3828125 77.47949219 C79.81815587 77.45955686 81.25341997 77.43239801 82.68847656 77.39746094 C94.54922816 77.11624368 104.02758025 78.32644582 112.99609375 86.76953125 C119.67719265 94.39184732 119.88681948 103.01924028 119.9375 112.69921875 C119.9684375 114.17648438 119.9684375 114.17648438 120 115.68359375 C120.05053107 125.03184098 120.05053107 125.03184098 116.6875 128.69921875 C114.8203125 129.58203125 114.8203125 129.58203125 112.8125 129.82421875 C112.15507812 129.92992187 111.49765625 130.035625 110.8203125 130.14453125 C107.13515135 129.375102 105.87286933 127.71158571 103.6875 124.69921875 C103.01428698 121.21933976 103.03317575 117.79773416 103.0625 114.26171875 C103.22079873 105.51873566 103.22079873 105.51873566 99.6875 97.69921875 C95.7302336 94.75415291 92.73771449 94.29503845 87.85546875 94.1875 C85.91704102 94.13432617 85.91704102 94.13432617 83.93945312 94.08007812 C82.58464066 94.05698194 81.22982282 94.0341994 79.875 94.01171875 C78.50061883 93.97852114 77.12626829 93.94402922 75.75195312 93.90820312 C72.39721766 93.82580611 69.04274096 93.7566248 65.6875 93.69921875 C65.73390625 94.83359375 65.7803125 95.96796875 65.828125 97.13671875 C66.30350541 113.3770822 66.30350541 113.3770822 60.30859375 120.2890625 C49.28269517 130.34284009 28.87153421 132.42248278 14.6875 134.69921875 C14.04111572 134.80379395 13.39473145 134.90836914 12.72875977 135.01611328 C-16.23138844 138.94112791 -61.28306055 138.75252341 -85.6875 120.38671875 C-89.77694122 116.19990988 -91.46214107 112.06832851 -91.60546875 106.296875 C-91.58583239 104.78487502 -91.55050563 103.27300255 -91.5 101.76171875 C-91.47969727 100.59286133 -91.47969727 100.59286133 -91.45898438 99.40039062 C-91.42400224 97.49969471 -91.37020959 95.59936041 -91.3125 93.69921875 C-95.33339762 93.74358095 -99.35297503 93.81362773 -103.37304688 93.90673828 C-104.73848164 93.93483498 -106.10407564 93.95610552 -107.46972656 93.97021484 C-109.44104038 93.99179857 -111.41199631 94.04057335 -113.3828125 94.08984375 C-114.56633301 94.11079102 -115.74985352 94.13173828 -116.96923828 94.15332031 C-120.95710642 94.80447214 -123.16268006 96.21323619 -126.3125 98.69921875 C-129.64947148 103.85373377 -128.63562996 111.10802755 -128.61523438 117.0390625 C-128.71713926 121.67409104 -128.81030476 124.00730531 -131.59765625 127.84765625 C-134.32488299 129.70766412 -135.24916507 130.33685299 -138.4375 129.82421875 C-139.10007813 129.74429688 -139.76265625 129.664375 -140.4453125 129.58203125 C-143.43618902 128.16793482 -144.04506898 126.7673292 -145.3125 123.69921875 C-145.74597594 120.10853021 -145.73085281 116.56195256 -145.6875 112.94921875 C-145.69910156 111.99789062 -145.71070313 111.0465625 -145.72265625 110.06640625 C-145.68324021 100.47517037 -143.52711004 92.25420803 -136.81640625 85.10546875 C-128.00981095 76.80733738 -117.63405003 77.30511403 -106.25 77.51171875 C-104.79753995 77.52679619 -103.34506473 77.54047917 -101.89257812 77.55273438 C-98.36519643 77.58291733 -94.83996061 77.64167105 -91.3125 77.69921875 C-91.6425 73.40921875 -91.9725 69.11921875 -92.3125 64.69921875 C-93.75882813 64.17972656 -95.20515625 63.66023438 -96.6953125 63.125 C-98.60961077 62.42121387 -100.52366031 61.71675096 -102.4375 61.01171875 C-103.38882813 60.67205078 -104.34015625 60.33238281 -105.3203125 59.98242188 C-117.41826026 55.48769823 -117.41826026 55.48769823 -120.3125 49.69921875 C-120.833118 43.4518027 -120.40383734 40.74834088 -116.3125 35.69921875 C-113.63055686 34.07175788 -110.7880336 33.06213756 -107.83984375 32.01171875 C-106.97109116 31.68341064 -106.10233856 31.35510254 -105.20726013 31.0168457 C-103.28503409 30.29067491 -101.3598804 29.57222028 -99.43231201 28.86035156 C-95.00088229 27.21106037 -90.59840245 25.48961867 -86.1925354 23.7734375 C-81.33412546 21.88287934 -76.46909329 20.00966536 -71.60424805 18.13574219 C-66.65725606 16.2301382 -61.71144938 14.32146691 -56.76571655 12.41259766 C-54.3577674 11.48506916 -51.9487822 10.56022548 -49.53872681 9.63818359 C-44.08409556 7.55054026 -38.64433049 5.43999157 -33.23779297 3.23046875 C-32.2989476 2.85365967 -31.36010223 2.47685059 -30.39280701 2.08862305 C-28.68623185 1.40234846 -26.9851595 0.70210923 -25.29188538 -0.01635742 C-16.72387476 -3.42474912 -8.61863458 -3.34484523 0 0 Z " fill="#000101" transform="translate(269.3125,2.30078125)"/>
<path d="M0 0 C15.52795957 13.1371068 26.6460428 30.91578532 29.8125 51.25 C30.05042447 54.86020133 30.04876768 58.44599177 30 62.0625 C29.9990332 63.4537207 29.9990332 63.4537207 29.99804688 64.87304688 C29.97159928 68.94891582 29.81037443 72.25850229 28.8125 76.25 C10.6625 76.25 -7.4875 76.25 -26.1875 76.25 C-34 59.125 -34 59.125 -36.44848633 53.75341797 C-37.09708275 52.3329689 -37.74575912 50.91255633 -38.39453125 49.4921875 C-38.88971252 48.40466187 -38.88971252 48.40466187 -39.39489746 47.29516602 C-42.13497438 39.70437697 -42.13497438 39.70437697 -47.1875 34.25 C-50.10288029 33.74957854 -50.10288029 33.74957854 -53.1875 34.25 C-56.90509869 38.09020282 -58.90193204 42.50980284 -61.04296875 47.32421875 C-61.39007401 48.08926224 -61.73717926 48.85430573 -62.09480286 49.64253235 C-63.19494887 52.07120571 -64.28515279 54.50419031 -65.375 56.9375 C-66.11847442 58.58428531 -66.8626084 60.23077302 -67.60742188 61.87695312 C-68.96533397 64.87925642 -70.31888221 67.88345476 -71.66870117 70.8894043 C-72.48178582 72.68848968 -73.30457137 74.48414273 -74.1875 76.25 C-92.3375 76.25 -110.4875 76.25 -129.1875 76.25 C-132.74349312 58.47003439 -129.23847873 39.07275005 -120.015625 23.46484375 C-118.00383784 19.92702146 -117.66702589 18.24030155 -118.1875 14.25 C-118.82795406 12.57308593 -119.49116542 10.90449097 -120.1875 9.25 C-118.75104149 7.64490066 -117.31329294 6.04095576 -115.875 4.4375 C-115.07449219 3.54417969 -114.27398437 2.65085938 -113.44921875 1.73046875 C-111.73525419 -0.14926786 -110.00872396 -1.97592747 -108.1875 -3.75 C-107.506875 -3.399375 -106.82625 -3.04875 -106.125 -2.6875 C-101.19891471 -1.11534512 -97.37431087 -2.14693448 -92.828125 -4.45703125 C-91.70921875 -5.15183594 -90.5903125 -5.84664062 -89.4375 -6.5625 C-61.52695552 -23.24355622 -25.62311741 -19.56820234 0 0 Z " fill="#D09F8E" transform="translate(192.1875,175.75)"/>
<path d="M0 0 C6.34669811 5.38089623 6.34669811 5.38089623 9.1640625 8.05078125 C24.32514713 22.32451143 41.57721163 31.08138373 62 35 C62.0885085 39.08319218 62.14089063 43.16613163 62.1875 47.25 C62.21263672 48.38953125 62.23777344 49.5290625 62.26367188 50.703125 C62.43936112 71.31732981 53.59694865 90.71209081 39.25 105.375 C29.35491559 115.04081192 15.49479664 124.02127269 1.3125 124.5 C-11.94202823 123.78924994 -23.02747649 117.30731789 -33 109 C-33.59425781 108.55140625 -34.18851562 108.1028125 -34.80078125 107.640625 C-47.19080473 97.95646872 -55.33314703 82.02472501 -59 67 C-59.18119385 66.25991699 -59.3623877 65.51983398 -59.54907227 64.75732422 C-60.99922487 58.23266405 -61.24070565 52.04142571 -61.125 45.375 C-61.11597656 44.37082031 -61.10695313 43.36664063 -61.09765625 42.33203125 C-61.07437746 39.88775874 -61.04168487 37.44401592 -61 35 C-60.30994873 34.908396 -59.61989746 34.81679199 -58.90893555 34.72241211 C-35.09999661 31.3755663 -16.21993058 16.7846477 0 0 Z " fill="#CF9E8E" transform="translate(369,217)"/>
<path d="M0 0 C0.73492676 0.00829834 1.46985352 0.01659668 2.22705078 0.02514648 C19.09339713 0.54221427 33.8321716 11.02243447 45.09765625 23 C64.47641084 45.8689248 69.22836879 69.62162664 69.18457031 98.60375977 C69.19043152 99.3535611 69.19629272 100.10336243 69.20233154 100.87588501 C69.21300641 102.29502727 69.20773404 103.71441009 69.18389893 105.13339233 C69.22023748 108.45962632 69.47860331 110.16544141 71.52929688 112.83618164 C73.68584962 114.60991002 73.68584962 114.60991002 76.6875 115.4375 C76.6875 122.0375 76.6875 128.6375 76.6875 135.4375 C75.0375 136.0975 73.3875 136.7575 71.6875 137.4375 C68.5517883 140.5732117 69.37866178 144.44786186 69.36865234 148.66064453 C69.35860672 149.6167865 69.3485611 150.57292847 69.33821106 151.55804443 C69.3072392 154.72879415 69.2903051 157.89945891 69.2734375 161.0703125 C69.25473711 163.26464577 69.23516456 165.45897178 69.2147522 167.65328979 C69.1633057 173.43678509 69.12374709 179.22030373 69.08660889 185.00390625 C69.04664754 190.9024031 68.9955194 196.80080178 68.9453125 202.69921875 C68.84840507 214.278577 68.76404787 225.85799052 68.6875 237.4375 C68.07510971 237.23294693 67.46271942 237.02839386 66.83177185 236.81764221 C66.02546829 236.54854538 65.21916473 236.27944855 64.38842773 236.00219727 C63.59041245 235.7357692 62.79239716 235.46934113 61.97019958 235.19483948 C60.14079339 234.58789078 58.30735433 233.99310316 56.47265625 233.40234375 C53.58196609 232.31159552 51.18329864 231.27035213 48.6875 229.4375 C47.59176196 226.83940239 47.26740784 224.60045675 46.96875 221.8046875 C46.53803388 218.17949346 45.4902221 216.76170857 42.6875 214.4375 C34.28114177 210.34916184 24.74305513 208.5735657 15.6875 206.4375 C13.13820576 185.94509631 13.13820576 185.94509631 17.14501953 178.86035156 C20.84939786 174.35905024 25.30397645 170.74048079 29.81201172 167.07324219 C33.82797703 163.57064292 36.25071319 159.10398127 38.6875 154.4375 C39.21472656 153.46296875 39.74195313 152.4884375 40.28515625 151.484375 C48.63474988 135.4826968 51.04520522 120.47101666 50.94824219 102.61303711 C50.93734128 100.2150851 50.94829505 97.81785386 50.9609375 95.41992188 C50.95961877 93.89062335 50.95706234 92.36132527 50.953125 90.83203125 C50.95717346 90.11755325 50.96122192 89.40307526 50.96539307 88.66694641 C51.04264162 84.60212729 51.04264162 84.60212729 48.6875 81.4375 C46.76341405 80.87390811 46.76341405 80.87390811 44.5390625 80.54296875 C43.70439453 80.39496826 42.86972656 80.24696777 42.00976562 80.09448242 C41.11966797 79.93955322 40.22957031 79.78462402 39.3125 79.625 C31.26425991 78.10917196 24.01933577 76.19822611 16.6875 72.4375 C15.21796875 71.70080078 15.21796875 71.70080078 13.71875 70.94921875 C6.39874673 66.99679431 0.20936385 62.06961338 -5.55810547 56.09863281 C-7.36777036 54.30960752 -7.36777036 54.30960752 -9.88330078 52.59667969 C-14.51910747 48.90740835 -17.42237986 45.77219165 -18.11474609 39.79077148 C-18.41880685 34.28749172 -18.18694276 28.8134189 -17.9375 23.3125 C-17.88726761 21.38292817 -17.84165284 19.4532303 -17.80078125 17.5234375 C-17.69129434 12.8249805 -17.51918048 8.13264463 -17.3125 3.4375 C-15.90141456 2.9410444 -14.48792676 2.45141428 -13.07348633 1.96459961 C-12.28661942 1.69119247 -11.4997525 1.41778534 -10.68904114 1.13609314 C-7.10767024 0.08333579 -3.71181973 -0.05516044 0 0 Z " fill="#FBCE59" transform="translate(394.3125,158.5625)"/>
<path d="M0 0 C1.20003662 -0.01546875 1.20003662 -0.01546875 2.42431641 -0.03125 C3.20468262 -0.01964844 3.98504883 -0.00804687 4.7890625 0.00390625 C5.4795166 0.01365479 6.1699707 0.02340332 6.88134766 0.03344727 C10.60034506 0.63604573 13.87530808 2.0493579 17.375 3.4375 C20.14426913 42.7185175 20.14426913 42.7185175 14.1640625 51.54296875 C10.43697934 55.66545866 6.10560807 58.58748342 1.375 61.4375 C-0.33514677 62.7893758 -2.04384418 64.14309084 -3.75 65.5 C-15.19041511 72.80809126 -27.96088458 78.98867881 -41.6875 79.875 C-46.49964674 80.56244953 -47.64033579 81.68589648 -50.625 85.4375 C-51.34010394 88.5933929 -51.34010394 88.5933929 -51.18359375 92.03125 C-51.17650391 93.31 -51.16941406 94.58875 -51.16210938 95.90625 C-51.14559326 96.57011719 -51.12907715 97.23398438 -51.11206055 97.91796875 C-51.06334238 99.90317425 -51.05378698 101.88921659 -51.04492188 103.875 C-50.90407224 115.14297097 -49.94359156 126.18807863 -46 136.8125 C-45.73985107 137.5230957 -45.47970215 138.23369141 -45.21166992 138.96582031 C-40.1871879 152.22892091 -33.04223048 166.57444561 -21.29272461 175.13720703 C-15.00414627 179.87019945 -15.00414627 179.87019945 -13.90405273 184.41772461 C-13.74063282 187.80054204 -13.83609383 191.05882325 -14.0625 194.4375 C-14.1234082 196.17193359 -14.1234082 196.17193359 -14.18554688 197.94140625 C-14.2910345 200.77785121 -14.43842764 203.60542722 -14.625 206.4375 C-15.47094727 206.63327637 -15.47094727 206.63327637 -16.33398438 206.83300781 C-18.93352691 207.44084515 -21.52915706 208.06406019 -24.125 208.6875 C-25.4553125 208.99494141 -25.4553125 208.99494141 -26.8125 209.30859375 C-33.56748154 210.94767015 -39.81744819 212.91790222 -45.0625 217.625 C-46.71929172 220.6072251 -46.68965975 221.5585951 -46.6640625 224.828125 C-46.94885349 227.75322125 -47.09508563 228.98408814 -49.35668945 230.91918945 C-51.71750832 232.13199014 -54.06870043 233.09229517 -56.5625 234 C-57.39974609 234.34095703 -58.23699219 234.68191406 -59.09960938 235.03320312 C-65.11277037 237.4375 -65.11277037 237.4375 -67.625 237.4375 C-67.64481934 236.45354248 -67.66463867 235.46958496 -67.68505859 234.45581055 C-67.76113987 230.80467161 -67.849853 227.15392991 -67.94238281 223.50317383 C-67.98066221 221.92317549 -68.01551697 220.34309031 -68.046875 218.76293945 C-68.09254876 216.49138355 -68.15053784 214.22042491 -68.2109375 211.94921875 C-68.22248871 211.24286789 -68.23403992 210.53651703 -68.24594116 209.8087616 C-68.35571048 206.16008607 -68.54642364 204.55536454 -70.625 201.4375 C-72.275 200.7775 -73.925 200.1175 -75.625 199.4375 C-75.625 192.8375 -75.625 186.2375 -75.625 179.4375 C-73.645 178.4475 -71.665 177.4575 -69.625 176.4375 C-67.91466989 173.01683978 -68.46237176 169.09389868 -68.45141602 165.32885742 C-68.444729 164.38384369 -68.43804199 163.43882996 -68.43115234 162.46517944 C-68.41707589 160.40646352 -68.40519016 158.34773175 -68.39520454 156.28899193 C-68.37879757 153.02132396 -68.35555389 149.75377118 -68.33030701 146.48616028 C-68.25956426 137.19273643 -68.19972336 127.8992626 -68.14819336 118.60571289 C-68.11620502 112.92341326 -68.07486763 107.24124119 -68.02799797 101.55904579 C-68.0120805 99.40113969 -67.99971222 97.24320416 -67.99109077 95.08525658 C-67.86759298 64.5847925 -60.96226042 40.2792107 -39.37890625 18.1328125 C-33.46167319 12.552156 -26.70804358 8.38513958 -19.625 4.4375 C-18.83738281 3.97859375 -18.04976563 3.5196875 -17.23828125 3.046875 C-11.63156333 0.26797816 -6.14946023 0.06605981 0 0 Z " fill="#FDDF76" transform="translate(344.625,158.5625)"/>
<path d="M0 0 C2.6287718 2.1491784 4.91528071 4.59478088 7.2421875 7.0625 C8.65210095 8.51325683 10.06226499 9.96377018 11.47265625 11.4140625 C13.67858846 13.70697399 15.87935727 16.00457102 18.07470703 18.30761719 C20.20090428 20.53052473 22.34531835 22.73457805 24.4921875 24.9375 C25.14033417 25.6291626 25.78848083 26.3208252 26.45626831 27.03344727 C29.61568063 30.26052377 31.37149603 31.83344525 35.83251953 33.015625 C39.4969088 32.99754878 40.45099702 32.54900298 43 30 C43.99193359 29.03900391 43.99193359 29.03900391 45.00390625 28.05859375 C45.66261719 27.37925781 46.32132812 26.69992187 47 26 C48.3125 24.6875 49.625 23.375 50.9375 22.0625 C51.50339844 21.47597656 52.06929688 20.88945312 52.65234375 20.28515625 C54 19 54 19 55 19 C55 46.72 55 74.44 55 103 C36.52 103 18.04 103 -1 103 C-1.33 104.65 -1.66 106.3 -2 108 C-5.79247686 110.52831791 -8.54949712 110.61322169 -13 110 C-15.67431489 108.18836733 -15.95920359 107.12238923 -17 104 C-25.91 103.67 -34.82 103.34 -44 103 C-44.11351506 94.21079059 -44.2050091 85.42207774 -44.25906086 76.63229752 C-44.28501911 72.54966987 -44.32016008 68.46757502 -44.37719727 64.38525391 C-44.43201558 60.43647876 -44.46152374 56.48821204 -44.47438622 52.53908539 C-44.48353778 51.04173542 -44.50140579 49.54440941 -44.52865028 48.04727936 C-44.75036159 35.34444554 -42.3435668 24.91616114 -33.98046875 15.01953125 C-27.97857055 8.89925241 -20.98569389 5.32259296 -13.1875 2 C-12.45805176 1.68466309 -11.72860352 1.36932617 -10.97705078 1.04443359 C-10.27692871 0.76164551 -9.57680664 0.47885742 -8.85546875 0.1875 C-8.23309326 -0.06644531 -7.61071777 -0.32039063 -6.96948242 -0.58203125 C-4.11335113 -1.18816696 -2.78060508 -1.04144388 0 0 Z " fill="#F0F9FD" transform="translate(80,402)"/>
<path d="M0 0 C4.39376286 1.45449211 8.55758708 3.1919884 12.77929688 5.08642578 C13.63910156 5.45251953 14.49890625 5.81861328 15.38476562 6.19580078 C23.18623768 9.67627542 29.93846667 14.31403949 34.21679688 21.89892578 C34.66667969 22.67107422 35.1165625 23.44322266 35.58007812 24.23876953 C36.01707031 25.13724609 36.4540625 26.03572266 36.90429688 26.96142578 C37.42056641 28.01015869 37.93683594 29.0588916 38.46875 30.1394043 C40.90229493 36.74821349 40.2719538 43.89644266 40.19726562 50.83642578 C40.19166197 52.37198469 40.18739551 53.90754901 40.18440247 55.44311523 C40.17301418 59.46107099 40.14359986 63.47869516 40.11029053 67.496521 C40.07945896 71.60587073 40.06586932 75.71527467 40.05078125 79.82470703 C40.01872349 87.87043116 39.96760123 95.91588708 39.90429688 103.96142578 C39.10209717 103.96553467 38.29989746 103.96964355 37.47338867 103.97387695 C33.84543696 104.00673169 30.21918282 104.07736885 26.59179688 104.14892578 C25.32916016 104.15472656 24.06652344 104.16052734 22.765625 104.16650391 C20.95288086 104.21000977 20.95288086 104.21000977 19.10351562 104.25439453 C17.98807373 104.27010498 16.87263184 104.28581543 15.72338867 104.30200195 C12.69024673 104.68962424 12.69024673 104.68962424 11.0793457 107.44311523 C10.69157959 108.27415771 10.30381348 109.1052002 9.90429688 109.96142578 C8.90429688 110.96142578 8.90429688 110.96142578 5.09179688 111.27392578 C1.89977797 111.23954138 1.09317885 111.09836521 -1.59570312 109.14892578 C-3.09570312 106.96142578 -3.09570312 106.96142578 -3.09570312 103.96142578 C-21.57570313 103.96142578 -40.05570312 103.96142578 -59.09570312 103.96142578 C-59.09570312 76.24142578 -59.09570312 48.52142578 -59.09570312 19.96142578 C-51.57233864 26.41002391 -51.57233864 26.41002391 -48.59570312 29.77392578 C-46.19596979 32.16296988 -44.90846235 33.03632209 -41.65820312 34.33642578 C-34.11474532 33.54237759 -28.70235482 25.58685304 -23.61914062 20.33642578 C-23.04105148 19.74125153 -22.46296234 19.14607727 -21.86735535 18.53286743 C-18.24181085 14.79857805 -18.24181085 14.79857805 -14.64453125 11.03710938 C-12.88120225 9.18314641 -11.09651446 7.35222543 -9.30664062 5.52392578 C-8.77211273 4.95013184 -8.23758484 4.37633789 -7.68685913 3.78515625 C-5.074506 1.15372215 -3.78744777 -0.04719375 0 0 Z " fill="#88B9D3" transform="translate(436.095703125,401.03857421875)"/>
<path d="M0 0 C5.74585006 4.36003672 10.75126192 9.70048387 15.76171875 14.875 C16.24730255 15.37531738 16.73288635 15.87563477 17.23318481 16.39111328 C19.2287897 18.45030655 21.22339819 20.50965948 23.19458008 22.59228516 C24.66147305 24.13806384 26.14694897 25.66379995 27.63671875 27.1875 C28.49998779 28.08855469 29.36325684 28.98960937 30.25268555 29.91796875 C33.57723899 32.43745615 35.86781468 32.8462997 40 33 C42.27012141 31.86487132 42.27012141 31.86487132 44 29.9375 C47.57828363 26.41319909 51.12470998 23.32167716 55 20 C55 47.39 55 74.78 55 103 C36.85 103 18.7 103 0 103 C-0.495 104.98 -0.495 104.98 -1 107 C-2.0625 108.75 -2.0625 108.75 -4 110 C-10.93687708 110.77076412 -10.93687708 110.77076412 -14.5 108.1875 C-16 106 -16 106 -16 103 C-24.91 103 -33.82 103 -43 103 C-43.11350305 94.08040645 -43.20500239 85.16130191 -43.25906086 76.24114609 C-43.28502199 72.09798849 -43.32016852 67.95535567 -43.37719727 63.8125 C-43.4320049 59.80537092 -43.4615216 55.79874272 -43.47438622 51.7912674 C-43.48353964 50.27158994 -43.50141143 48.75193617 -43.52865028 47.23247528 C-43.7310125 35.46316607 -42.22260174 24.61891743 -33.8125 15.625 C-27.23885911 8.86785846 -19.71339065 5.14220593 -11.125 1.5625 C-10.48224121 1.29083008 -9.83948242 1.01916016 -9.17724609 0.73925781 C-5.65598721 -0.65517182 -3.55118916 -1.3709203 0 0 Z " fill="#88B8D2" transform="translate(307,402)"/>
<path d="M0 0 C14.41289259 4.18053514 27.88735266 10.46976824 35.828125 23.8203125 C40.43647505 32.32330164 40.35276743 40.69752357 40.21875 50.109375 C40.2112745 51.66449246 40.20558777 53.21961944 40.20159912 54.77474976 C40.18644551 58.83553831 40.14725504 62.89573968 40.1027832 66.95629883 C40.06160638 71.11271221 40.04354063 75.26922198 40.0234375 79.42578125 C39.98074835 87.55758901 39.91048537 95.68880969 39.828125 103.8203125 C30.918125 103.8203125 22.008125 103.8203125 12.828125 103.8203125 C12.168125 105.4703125 11.508125 107.1203125 10.828125 108.8203125 C8.828125 110.8203125 8.828125 110.8203125 4.953125 111.1953125 C1.80085133 111.12080421 0.98423825 110.93349461 -1.671875 109.0078125 C-3.171875 106.8203125 -3.171875 106.8203125 -3.171875 103.8203125 C-21.321875 103.8203125 -39.471875 103.8203125 -58.171875 103.8203125 C-58.171875 76.4303125 -58.171875 49.0403125 -58.171875 20.8203125 C-53.67968301 24.67076278 -49.48103623 28.41381479 -45.359375 32.59765625 C-41.93683093 34.51061392 -39.92335421 33.80345878 -36.171875 32.8203125 C-33.40643502 30.84786173 -31.14551677 28.4705238 -28.8125 26.01171875 C-28.14144226 25.32979965 -27.47038452 24.64788055 -26.7789917 23.94529724 C-24.64531954 21.77155386 -22.5332643 19.57818571 -20.421875 17.3828125 C-18.2919966 15.19549323 -16.15791435 13.01237728 -14.02191162 10.83103943 C-12.69629358 9.47433877 -11.3750373 8.11335949 -10.05865479 6.74769592 C-9.46083191 6.13043137 -8.86300903 5.51316681 -8.24707031 4.87719727 C-7.72413391 4.33394302 -7.20119751 3.79068878 -6.66241455 3.23097229 C-2.98733678 -0.24715376 -2.98733678 -0.24715376 0 0 Z " fill="#EFF8FB" transform="translate(208.171875,401.1796875)"/>
<path d="M0 0 C1.94483083 2.91724624 3.28861121 5.7126075 4.71484375 8.91015625 C5.23626953 10.06451172 5.75769531 11.21886719 6.29492188 12.40820312 C7.11938321 14.23894523 7.9411596 16.07073437 8.7565918 17.90551758 C9.54737523 19.68139123 10.34970829 21.45210775 11.15234375 23.22265625 C11.62663818 24.28234619 12.10093262 25.34203613 12.58959961 26.43383789 C13.88337158 29.25591273 13.88337158 29.25591273 17 31 C19.11808281 31.3260368 19.11808281 31.3260368 21.47143555 31.31884766 C22.82249641 31.34865219 22.82249641 31.34865219 24.20085144 31.37905884 C25.16968765 31.39061005 26.13852386 31.40216125 27.13671875 31.4140625 C28.13129593 31.43342865 29.12587311 31.4527948 30.15058899 31.4727478 C33.3294719 31.53256159 36.50839098 31.57893639 39.6875 31.625 C41.84181273 31.6631781 43.99611017 31.70222973 46.15039062 31.7421875 C51.43345809 31.83826451 56.71661753 31.92330674 62 32 C62.19876206 50.02187268 55.28003808 67.0827821 44 81 C43.18595703 82.05960938 43.18595703 82.05960938 42.35546875 83.140625 C33.17162961 94.49193955 17.91656498 104.5825386 3.17578125 106.3359375 C-13.37208807 106.56169288 -26.84505187 97.82719508 -38.3828125 86.61328125 C-39.24648437 85.75089844 -40.11015625 84.88851562 -41 84 C-41.59554687 83.41605469 -42.19109375 82.83210938 -42.8046875 82.23046875 C-53.40479978 70.91413267 -61.23213124 53.12394261 -61.0625 37.6875 C-61.05347656 36.61886719 -61.04445313 35.55023438 -61.03515625 34.44921875 C-61.02355469 33.64097656 -61.01195313 32.83273437 -61 32 C-59.68805664 31.98541748 -58.37611328 31.97083496 -57.02441406 31.95581055 C-52.15629843 31.89783258 -47.28864559 31.82059936 -42.42089844 31.73754883 C-40.31420402 31.70429718 -38.20742046 31.676266 -36.10058594 31.65356445 C-33.07187925 31.62002317 -30.04398962 31.56770709 -27.015625 31.51171875 C-26.07382385 31.50532883 -25.13202271 31.4989389 -24.16168213 31.49235535 C-22.84076569 31.46266411 -22.84076569 31.46266411 -21.49316406 31.43237305 C-20.33400482 31.41571846 -20.33400482 31.41571846 -19.15142822 31.39872742 C-16.41798728 30.89213471 -15.04495244 29.85657102 -13 28 C-11.37681274 25.15255324 -11.37681274 25.15255324 -10.01953125 21.8359375 C-9.23352539 20.02996094 -9.23352539 20.02996094 -8.43164062 18.1875 C-7.89145751 16.91686619 -7.35174949 15.64603031 -6.8125 14.375 C-5.73950874 11.88113976 -4.66067009 9.389866 -3.58203125 6.8984375 C-3.10999268 5.79161621 -2.6379541 4.68479492 -2.15161133 3.54443359 C-1 1 -1 1 0 0 Z " fill="#FBCFA2" transform="translate(142,235)"/>
<path d="M0 0 C0.99451172 0.40283203 1.98902344 0.80566406 3.01367188 1.22070312 C5.08852431 2.07015682 7.16145538 2.92431897 9.23242188 3.78320312 C10.22822266 4.18474609 11.22402344 4.58628906 12.25 5 C13.60049438 5.55602905 13.60049438 5.55602905 14.97827148 6.12329102 C18.05612542 7.0425205 20.49591524 7.22748644 23.69140625 6.93359375 C24.43390625 6.21171875 25.17640625 5.48984375 25.94140625 4.74609375 C28.69140625 2.93359375 28.69140625 2.93359375 30.9453125 3.1953125 C33.60539794 3.96287914 36.1258583 4.89413806 38.69140625 5.93359375 C39.46871094 6.20558594 40.24601563 6.47757813 41.046875 6.7578125 C43.22107213 7.63303575 44.90292314 8.4142956 46.69140625 9.93359375 C47.38530429 11.93681131 47.67824082 13.84748385 47.99804688 15.93920898 C48.60592287 18.38290471 48.60592287 18.38290471 52.12890625 19.94921875 C56.88449288 22.11895515 61.77250368 23.92306487 66.69140625 25.68359375 C67.56152344 25.99941406 68.43164062 26.31523438 69.328125 26.640625 C71.44770256 27.40926302 73.56875649 28.1734903 75.69140625 28.93359375 C73.02918518 31.06517582 70.60121316 32.53160856 67.41479492 33.73608398 C66.57312775 34.05788635 65.73146057 34.37968872 64.86428833 34.71124268 C63.95516693 35.05145447 63.04604553 35.39166626 62.109375 35.7421875 C61.15481415 36.10552185 60.2002533 36.4688562 59.21676636 36.84320068 C56.10652606 38.02555412 52.99294448 39.19878324 49.87890625 40.37109375 C45.59948676 41.98884489 41.32116075 43.6094747 37.04296875 45.23046875 C35.98274002 45.63142258 34.92251129 46.0323764 33.83015442 46.44548035 C27.51442264 48.84010285 21.22748425 51.29421823 14.96484375 53.82421875 C13.54280075 54.39415161 12.12068459 54.96390197 10.69848633 55.53344727 C8.74846185 56.31482733 6.80161366 57.10125343 4.86190796 57.90792847 C3.11492498 58.63406138 1.35841534 59.33714612 -0.3984375 60.0390625 C-1.35613037 60.43246826 -2.31382324 60.82587402 -3.30053711 61.23120117 C-11.19092358 63.07363619 -18.31197784 59.67313686 -25.55078125 56.8125 C-27.17259811 56.18431618 -27.17259811 56.18431618 -28.82717896 55.54344177 C-32.28269649 54.20283151 -35.73318712 52.84979667 -39.18359375 51.49609375 C-41.43196281 50.62089948 -43.68065837 49.74654351 -45.9296875 48.87304688 C-49.30101164 47.56328455 -52.67153483 46.25166228 -56.03948975 44.93325806 C-61.93592867 42.62554634 -67.84162455 40.34620383 -73.76660156 38.11279297 C-74.96946808 37.65734604 -76.17233459 37.20189911 -77.41165161 36.73265076 C-79.72413658 35.85855371 -82.03875046 34.9900635 -84.35568237 34.12782288 C-85.90075974 33.54235939 -85.90075974 33.54235939 -87.47705078 32.94506836 C-88.38842804 32.60382431 -89.2998053 32.26258026 -90.23880005 31.91099548 C-92.30859375 30.93359375 -92.30859375 30.93359375 -93.30859375 28.93359375 C-86.32583033 26.23766316 -79.34299517 23.54191848 -72.36007881 20.84638405 C-69.11436904 19.5934742 -65.86868016 18.3405103 -62.62304688 17.08740234 C-62.00060215 16.84709919 -61.37815742 16.60679604 -60.73685074 16.35921097 C-59.48100575 15.8743313 -58.22519477 15.38936352 -56.96941757 14.90430832 C-53.82826691 13.69123338 -50.68640079 12.48007696 -47.54302979 11.27276611 C-41.90138218 9.10424736 -36.26529972 6.92546045 -30.65334511 4.68100166 C-28.83522833 3.95458301 -27.01478664 3.23399193 -25.19430542 2.51351929 C-22.94547403 1.62272017 -20.70052418 0.72203761 -18.4602356 -0.19003296 C-17.45870453 -0.58445587 -16.45717346 -0.97887878 -15.42529297 -1.38525391 C-14.55395721 -1.73544586 -13.68262146 -2.08563782 -12.78488159 -2.44644165 C-8.14304869 -3.60857314 -4.28115562 -1.77022966 0 0 Z " fill="#88B9D3" transform="translate(265.30859375,18.06640625)"/>
<path d="M0 0 C6.71515487 2.15165286 13.27816417 4.60688053 19.8359375 7.1953125 C20.83710602 7.58822479 21.83827454 7.98113708 22.86978149 8.38595581 C26.03904218 9.63014191 29.20707769 10.87741056 32.375 12.125 C35.56455492 13.37918972 38.7543649 14.63272506 41.94448853 15.88546753 C43.92254833 16.66243881 45.9002431 17.44034019 47.87753296 18.2192688 C48.76921173 18.56988373 49.6608905 18.92049866 50.57958984 19.28173828 C51.75465591 19.74448654 51.75465591 19.74448654 52.95346069 20.21658325 C63.28919413 24.17310959 71.91312905 21.47164915 81.78125 17.40625 C83.54511047 16.70707458 83.54511047 16.70707458 85.34460449 15.99377441 C88.43963229 14.76401725 91.52754163 13.51910796 94.61279297 12.26519775 C98.98151857 10.49382929 103.36139311 8.75025147 107.74108887 7.00622559 C110.06655989 6.07839464 112.38933894 5.14378247 114.70910645 4.20178223 C115.75449585 3.78134644 116.79988525 3.36091064 117.87695312 2.92773438 C118.79641724 2.55467163 119.71588135 2.18160889 120.66320801 1.79724121 C123 1 123 1 126 1 C126 13.54 126 26.08 126 39 C86.98522755 54.60590898 43.49065395 55.56987962 3.8984375 40.89453125 C2 40 2 40 0 38 C-0.17532289 35.13111419 -0.23137614 32.36007355 -0.1953125 29.4921875 C-0.1924826 28.65156769 -0.18965271 27.81094788 -0.18673706 26.94485474 C-0.1755243 24.25475954 -0.15041803 21.5649949 -0.125 18.875 C-0.1149716 17.05339022 -0.10584551 15.23177523 -0.09765625 13.41015625 C-0.07558142 8.93997642 -0.04104434 4.47004429 0 0 Z " fill="#6AA9C8" transform="translate(193,72)"/>
<path d="M0 0 C20.31088957 12.91339553 32.01640777 32.44302279 37.3984375 55.46875 C38.4336651 60.67828242 39.26935049 65.74221807 39.1875 71.0625 C39.17847656 71.83464844 39.16945313 72.60679687 39.16015625 73.40234375 C39.14855469 73.97082031 39.13695312 74.53929687 39.125 75.125 C33.89224232 75.34810207 29.4497553 74.6650397 24.5 73.0625 C23.80632324 72.83989502 23.11264648 72.61729004 22.39794922 72.38793945 C12.69033853 69.12798729 3.52813521 64.38755578 -4.109375 57.49609375 C-6.34445604 55.57985902 -8.33563337 54.22298529 -10.828125 52.72265625 C-15.90552949 49.24539629 -19.55458854 45.93942396 -21.875 40.125 C-24.25733259 26.81763076 -22.78012495 12.53106095 -21.875 -0.875 C-13.28000561 -3.36202235 -8.10046312 -4.45368283 0 0 Z " fill="#FDDF75" transform="translate(398.875,162.875)"/>
<path d="M0 0 C20.41047256 5.37820963 38.17139371 16.79434982 49.29003906 35.10424805 C56.95248252 48.37447307 61.39401854 61.49751948 61.1875 76.8125 C61.18685547 77.73998047 61.18621094 78.66746094 61.18554688 79.62304688 C61.15909928 83.69891582 60.99787443 87.00850229 60 91 C53.07 91 46.14 91 39 91 C38.7525 88.421875 38.505 85.84375 38.25 83.1875 C34.9605623 52.74133658 25.36815902 24.00940119 2 3 C1.34 2.67 0.68 2.34 0 2 C0 1.34 0 0.68 0 0 Z " fill="#C48B78" transform="translate(161,161)"/>
<path d="M0 0 C10.12414966 3.37471655 10.12414966 3.37471655 14.19677734 4.97705078 C15.10736908 5.33397003 16.01796082 5.69088928 16.95614624 6.05862427 C17.90647736 6.43373138 18.85680847 6.8088385 19.8359375 7.1953125 C20.83710602 7.58822479 21.83827454 7.98113708 22.86978149 8.38595581 C26.03904218 9.63014191 29.20707769 10.87741056 32.375 12.125 C35.56455492 13.37918972 38.7543649 14.63272506 41.94448853 15.88546753 C43.92254833 16.66243881 45.9002431 17.44034019 47.87753296 18.2192688 C48.76921173 18.56988373 49.6608905 18.92049866 50.57958984 19.28173828 C51.75465591 19.74448654 51.75465591 19.74448654 52.95346069 20.21658325 C63.28919413 24.17310959 71.91312905 21.47164915 81.78125 17.40625 C83.54511047 16.70707458 83.54511047 16.70707458 85.34460449 15.99377441 C88.43963229 14.76401725 91.52754163 13.51910796 94.61279297 12.26519775 C98.98151857 10.49382929 103.36139311 8.75025147 107.74108887 7.00622559 C110.06655989 6.07839464 112.38933894 5.14378247 114.70910645 4.20178223 C115.75449585 3.78134644 116.79988525 3.36091064 117.87695312 2.92773438 C118.79641724 2.55467163 119.71588135 2.18160889 120.66320801 1.79724121 C123 1 123 1 126 1 C126 13.54 126 26.08 126 39 C119 42 119 42 116 42 C115.67 34.74 115.34 27.48 115 20 C110.09420464 18.91171583 110.09420464 18.91171583 105.89990234 20.24755859 C104.74377945 20.69329727 104.74377945 20.69329727 103.56430054 21.14804077 C102.74644073 21.47817169 101.92858093 21.80830261 101.0859375 22.1484375 C100.23448151 22.48042145 99.38302551 22.8124054 98.50576782 23.15444946 C95.79066261 24.21606995 93.0828859 25.2951151 90.375 26.375 C88.54473612 27.09493401 86.71401141 27.81369762 84.8828125 28.53125 C80.85336784 30.11102826 76.82861788 31.70218212 72.80770874 33.30355835 C63.12045045 37.03569174 55.2403349 34.46154354 46 30.625 C43.71504919 29.71042408 41.42988627 28.79637792 39.14453125 27.8828125 C37.97486816 27.40875977 36.80520508 26.93470703 35.60009766 26.44628906 C29.65696738 24.0587193 23.67072351 21.78476517 17.6875 19.5 C15.54525058 18.67792281 13.40330052 17.85506489 11.26171875 17.03125 C10.36412842 16.68642578 9.46653809 16.34160156 8.54174805 15.98632812 C6.02105604 15.00817082 3.51044026 14.0041761 1 13 C1 21.25 1 29.5 1 38 C0.67 38 0.34 38 0 38 C0 25.46 0 12.92 0 0 Z " fill="#3E97B6" transform="translate(193,72)"/>
<path d="M0 0 C0.53367187 0.19335938 1.06734375 0.38671875 1.6171875 0.5859375 C15.9180396 5.58381315 28.38159516 6.31233052 43 2 C44.2848586 1.63177232 45.57002047 1.26460136 46.85546875 0.8984375 C47.89316406 0.60195313 48.93085938 0.30546875 50 0 C51.20971437 15.87750115 51.20971437 15.87750115 48.7109375 20.26171875 C46.875 21.75 46.875 21.75 44.703125 23.15625 C40.89556819 25.75331187 37.84692906 28.9710237 34.625 32.25 C34.00608887 32.86584961 33.38717773 33.48169922 32.74951172 34.11621094 C30.19130425 36.67653204 28.01904251 38.97143624 26 42 C20.00302923 39.39839869 15.42314131 34.45868374 10.75 30 C10.23910828 29.51311707 9.72821655 29.02623413 9.20184326 28.52459717 C3.59841292 23.06973839 -1.23449729 18.26435973 -1.53808594 10.01953125 C-1.30271182 6.563619 -0.8233474 3.36823937 0 0 Z " fill="#C38B78" transform="translate(345,350)"/>
<path d="M0 0 C2.5059375 0.680625 2.5059375 0.680625 5.0625 1.375 C6.07699219 1.64699219 7.09148437 1.91898437 8.13671875 2.19921875 C10.23855795 2.78704554 12.31622889 3.46311757 14.375 4.1875 C24.24889866 6.40061522 33.44919317 4.85215875 43 2 C44.28343042 1.63133412 45.56729406 1.26417341 46.8515625 0.8984375 C47.89054687 0.60195313 48.92953125 0.30546875 50 0 C51.692996 6.20765201 52.37592902 11.88429699 50 18 C46.49080959 22.8456034 42.43920581 26.99469254 38.125 31.125 C37.55950439 31.66713135 36.99400879 32.2092627 36.41137695 32.76782227 C26.66653391 42 26.66653391 42 24 42 C22.80078125 40.77734375 22.80078125 40.77734375 21.3125 38.9375 C17.48472455 34.42561149 13.36700181 30.2449776 9.1875 26.0625 C8.5169458 25.38759521 7.8463916 24.71269043 7.15551758 24.01733398 C6.52025146 23.38384033 5.88498535 22.75034668 5.23046875 22.09765625 C4.65707764 21.52539307 4.08368652 20.95312988 3.49291992 20.36352539 C2.02622622 18.89937424 2.02622622 18.89937424 0 18 C0 12.06 0 6.12 0 0 Z " fill="#FCBB84" transform="translate(117,350)"/>
<path d="M0 0 C0.33 0 0.66 0 1 0 C1 22.44 1 44.88 1 68 C-1.97 67.01 -4.94 66.02 -8 65 C-9.74428742 64.51195717 -11.4946727 64.04435172 -13.25390625 63.61328125 C-14.12724609 63.39736328 -15.00058594 63.18144531 -15.90039062 62.95898438 C-16.77888672 62.74564453 -17.65738281 62.53230469 -18.5625 62.3125 C-19.47580078 62.08755859 -20.38910156 61.86261719 -21.33007812 61.63085938 C-23.55260261 61.08395544 -25.77588546 60.54039409 -28 60 C-30.54929424 39.50759631 -30.54929424 39.50759631 -26.54248047 32.42285156 C-22.83936169 27.92308075 -18.38754434 24.31695894 -13.87988281 20.65332031 C-9.89636487 17.14989388 -7.51688683 12.5957314 -5 8 C-3.3714099 5.30573617 -1.70012901 2.6502011 0 0 Z " fill="#FDDF75" transform="translate(438,305)"/>
<path d="M0 0 C12.51713887 5.69189816 18.49866127 11.86264014 24.56665039 24.18017578 C26.99803094 30.7881621 26.36764258 37.93634889 26.29296875 44.875 C26.28736509 46.41055891 26.28309863 47.94612323 26.28010559 49.48168945 C26.2687173 53.49964521 26.23930299 57.51726938 26.20599365 61.53509521 C26.17516208 65.64444495 26.16157244 69.75384889 26.14648438 73.86328125 C26.11442662 81.90900538 26.06330436 89.9544613 26 98 C22.04 98 18.08 98 14 98 C13.98541748 96.35708984 13.97083496 94.71417969 13.95581055 93.02148438 C13.89731244 86.85607433 13.82008726 80.69101007 13.73754883 74.52587891 C13.70298601 71.8705701 13.67643662 69.21553359 13.65356445 66.56005859 C13.51663327 45.59345696 13.51663327 45.59345696 10 25 C9.76676025 24.03723145 9.53352051 23.07446289 9.29321289 22.08251953 C7.84698462 16.3640595 5.27804838 11.51925669 2.3046875 6.4453125 C1.13330028 4.24983825 0.46315411 2.42873498 0 0 Z " fill="#6BAAC8" transform="translate(450,407)"/>
<path d="M0 0 C11.01317323 4.12993996 19.08544885 11.42241394 24.078125 22.15283203 C26.89698968 29.34452391 26.49869219 36.69965926 26.390625 44.2890625 C26.3831495 45.84417996 26.37746277 47.39930694 26.37347412 48.95443726 C26.35832051 53.01522581 26.31913004 57.07542718 26.2746582 61.13598633 C26.23348138 65.29239971 26.21541563 69.44890948 26.1953125 73.60546875 C26.15262351 81.73724635 26.08450002 89.8685498 26 98 C22.04 98 18.08 98 14 98 C13.98598145 95.41502686 13.98598145 95.41502686 13.97167969 92.77783203 C13.93578211 87.00620374 13.88175761 81.23488815 13.81609726 75.4635334 C13.77702233 71.97323177 13.74464287 68.48316734 13.72900391 64.99267578 C13.62272258 42.88690131 13.31806202 20.74393914 0 2 C0 1.34 0 0.68 0 0 Z " fill="#DAF0F5" transform="translate(222,407)"/>
<path d="M0 0 C4.08342428 0.65626462 5.01135219 1.34659824 7.5 4.5625 C8.03916931 7.40159607 8.03916931 7.40159607 8.09350586 10.72045898 C8.12290756 11.96532578 8.15230927 13.21019257 8.18260193 14.49278259 C8.1942224 15.84804577 8.20494785 17.20331688 8.21484375 18.55859375 C8.23745871 19.95339549 8.26136828 21.34817678 8.28651428 22.74293518 C8.33481393 25.66397881 8.36933825 28.58476542 8.39379883 31.50610352 C8.42592191 35.24356334 8.48921006 38.97969826 8.56249142 42.71655178 C8.61601575 45.59638771 8.65443963 48.47627196 8.68820381 51.35640144 C8.70587045 52.7339195 8.72784167 54.11138952 8.75425529 55.48876762 C8.78866907 57.41735045 8.80091692 59.34628997 8.81225586 61.27514648 C8.82461777 62.37116684 8.83697968 63.46718719 8.84971619 64.59642029 C8.41725963 68.26425345 7.12907226 70.93342774 4.5 73.5625 C-2.73866202 74.15583295 -2.73866202 74.15583295 -5.59924316 71.92649841 C-8.04945765 68.87913167 -8.00648053 67.19396946 -8.01757812 63.31274414 C-8.03018677 62.0478566 -8.04279541 60.78296906 -8.05578613 59.47975159 C-8.04862552 58.10238081 -8.04042133 56.72501511 -8.03125 55.34765625 C-8.0339459 53.93045282 -8.03782914 52.51325119 -8.04284668 51.09605408 C-8.0487392 48.12774014 -8.04018883 45.15990821 -8.02148438 42.19165039 C-7.9987148 38.39390891 -8.01180529 34.59729944 -8.03577423 30.79959965 C-8.05025726 27.87324052 -8.04561461 24.9471479 -8.03526306 22.02078056 C-8.03260156 20.6209951 -8.03584526 19.22118516 -8.04518127 17.8214283 C-8.05538368 15.86150729 -8.03706573 13.90150107 -8.01757812 11.94165039 C-8.01439575 10.82786514 -8.01121338 9.7140799 -8.00793457 8.56654358 C-7.14406589 3.45742259 -5.13918392 0.82594027 0 0 Z " fill="#010202" transform="translate(440.5,438.4375)"/>
<path d="M0 0 C4.12674376 0.75797334 5.42688744 2.34824853 8.0625 5.5625 C8.69068909 8.56654358 8.69068909 8.56654358 8.69360352 11.94165039 C8.70613663 13.20969009 8.71866974 14.4777298 8.73158264 15.78419495 C8.71931524 17.15952587 8.70589535 18.53484693 8.69140625 19.91015625 C8.69223543 21.32832521 8.69469669 22.74649408 8.69871521 24.16465759 C8.70156882 27.13130756 8.6869148 30.09720069 8.65942383 33.0637207 C8.62530897 36.8626901 8.63137281 40.6603095 8.6500864 44.45934391 C8.66066304 47.38568847 8.65171341 50.31171976 8.63670158 53.2380352 C8.63152617 54.63863634 8.63199383 56.03927028 8.63824654 57.43986702 C8.64370684 59.39753589 8.62045536 61.35522107 8.59594727 63.31274414 C8.58974869 64.4257338 8.58355011 65.53872345 8.5771637 66.68544006 C7.94790325 70.20311586 6.84051776 71.38610975 4.0625 73.5625 C1.15465119 74.27132303 -0.880039 73.90221789 -3.9375 73.5625 C-6.12049865 72.15411377 -6.70720414 71.27227045 -7.49858093 68.83325195 C-8.04518285 66.00540177 -8.04382743 63.36180945 -8.02270508 60.48046875 C-8.01551956 59.25239502 -8.00833405 58.02432129 -8.00093079 56.7590332 C-7.98699865 55.42268131 -7.97234807 54.08633674 -7.95703125 52.75 C-7.9465957 51.73696304 -7.9465957 51.73696304 -7.93594933 50.70346069 C-7.89862241 47.13261203 -7.8546432 43.56191458 -7.80541992 39.99121094 C-7.75597828 36.30587562 -7.72985327 32.62075736 -7.70898914 28.93516541 C-7.6886163 26.09706343 -7.6507417 23.25938642 -7.6081295 20.42153931 C-7.59080315 19.06286374 -7.58009759 17.70408679 -7.57618141 16.3453064 C-7.56909612 14.44488828 -7.53477057 12.54463092 -7.49926758 10.64453125 C-7.48736893 9.56405518 -7.47547028 8.4835791 -7.46321106 7.37036133 C-6.61747378 2.85321648 -4.46275103 0.85456935 0 0 Z " fill="#020303" transform="translate(70.9375,438.4375)"/>
<path d="M0 0 C3.73704814 0.62284136 4.68650926 1.54205864 7 4.5 C7.54589844 7.42175293 7.54589844 7.42175293 7.609375 10.85742188 C7.64200439 12.14555786 7.67463379 13.43369385 7.70825195 14.76086426 C7.72318953 16.16348233 7.73708024 17.56611189 7.75 18.96875 C7.77515198 20.41078682 7.80145469 21.852804 7.82885742 23.2947998 C7.88166549 26.31418079 7.92018832 29.33332245 7.94873047 32.35302734 C7.98648114 36.22079271 8.06016488 40.08688673 8.1446228 43.95388031 C8.20558423 46.93058142 8.2472267 49.90731466 8.28308105 52.88441467 C8.30261973 54.31024163 8.32820877 55.73599911 8.35998535 57.16160583 C8.4015643 59.1549503 8.41430897 61.14883307 8.42578125 63.14257812 C8.44036377 64.27634888 8.45494629 65.41011963 8.4699707 66.57824707 C7.89521234 70.15145266 6.81657174 71.30425376 4 73.5 C2 74.03125 2 74.03125 0 74 C-0.66 74.0103125 -1.32 74.020625 -2 74.03125 C-4.94975159 73.24772223 -6.09859664 71.86387719 -8 69.5 C-8.4699707 66.57824707 -8.4699707 66.57824707 -8.42578125 63.14257812 C-8.41836914 61.85444214 -8.41095703 60.56630615 -8.40332031 59.23913574 C-8.37406259 57.83648561 -8.34376392 56.43385685 -8.3125 55.03125 C-8.29273969 53.58924942 -8.27420288 52.14723159 -8.25683594 50.7052002 C-8.21580586 47.6854052 -8.16018307 44.66632333 -8.09423828 41.64697266 C-8.01092045 37.78006886 -7.96348203 33.9137147 -7.92692566 30.04611969 C-7.89488921 27.06896702 -7.84401381 24.092364 -7.78744507 21.11558533 C-7.76257907 19.68994488 -7.74351028 18.26419097 -7.7303772 16.83839417 C-7.70914204 14.84444185 -7.65986989 12.85084783 -7.609375 10.85742188 C-7.5779541 9.15676575 -7.5779541 9.15676575 -7.54589844 7.42175293 C-6.68245151 2.80041968 -4.60741063 0.76790177 0 0 Z " fill="#000000" transform="translate(299,438.5)"/>
<path d="M0 0 C3.73430472 0.62238412 4.68473662 1.548211 7 4.5 C7.54589844 7.37705994 7.54589844 7.37705994 7.609375 10.74975586 C7.64200439 12.0146434 7.67463379 13.27953094 7.70825195 14.58274841 C7.72319118 15.96010281 7.73708163 17.33746892 7.75 18.71484375 C7.7751552 20.13206499 7.80145814 21.54926629 7.82885742 22.96644592 C7.88166816 25.93455178 7.92018774 28.90241422 7.94873047 31.87084961 C7.98644695 35.66903164 8.06011764 39.46550581 8.1446228 43.26290035 C8.20565569 46.1890265 8.24725474 49.11518576 8.28308105 52.04171944 C8.30259333 53.44160226 8.32816541 54.84141456 8.35998535 56.2410717 C8.40166905 58.20067709 8.41432432 60.16083442 8.42578125 62.12084961 C8.44036377 63.23463486 8.45494629 64.3484201 8.4699707 65.49595642 C7.89119795 69.19546056 6.59544438 70.85233344 4 73.5 C2 74.12890625 2 74.12890625 0 74.0625 C-0.66 74.06378906 -1.32 74.06507813 -2 74.06640625 C-4.92980333 73.23667679 -6.09974767 71.8602505 -8 69.5 C-8.4699707 66.57824707 -8.4699707 66.57824707 -8.42578125 63.14257812 C-8.41836914 61.85444214 -8.41095703 60.56630615 -8.40332031 59.23913574 C-8.37406259 57.83648561 -8.34376392 56.43385685 -8.3125 55.03125 C-8.29273969 53.58924942 -8.27420288 52.14723159 -8.25683594 50.7052002 C-8.21580586 47.6854052 -8.16018307 44.66632333 -8.09423828 41.64697266 C-8.01092045 37.78006886 -7.96348203 33.9137147 -7.92692566 30.04611969 C-7.89488921 27.06896702 -7.84401381 24.092364 -7.78744507 21.11558533 C-7.76257907 19.68994488 -7.74351028 18.26419097 -7.7303772 16.83839417 C-7.70914204 14.84444185 -7.65986989 12.85084783 -7.609375 10.85742188 C-7.5779541 9.15676575 -7.5779541 9.15676575 -7.54589844 7.42175293 C-6.68245151 2.80041968 -4.60741063 0.76790177 0 0 Z " fill="#000000" transform="translate(213,438.5)"/>
<path d="M0 0 C2.5871582 2.13305664 2.5871582 2.13305664 5.30078125 4.91015625 C5.7820195 5.39705429 6.26325775 5.88395233 6.75907898 6.38560486 C8.28657021 7.93539908 9.79952748 9.49854192 11.3125 11.0625 C12.3486791 12.11875194 13.3857791 13.17410133 14.42382812 14.22851562 C16.95996895 16.8086422 19.48326459 19.4009252 22 22 C20.71825282 24.81878012 19.38992385 26.85241496 17.1796875 29.015625 C16.64472656 29.54414063 16.10976562 30.07265625 15.55859375 30.6171875 C15.00300781 31.15601563 14.44742188 31.69484375 13.875 32.25 C13.31167969 32.80429687 12.74835938 33.35859375 12.16796875 33.9296875 C10.78313972 35.29104485 9.39216796 36.64614859 8 38 C3.35196221 34.10874065 -1.08082699 30.07817742 -5.37109375 25.796875 C-5.93828629 25.23301086 -6.50547882 24.66914673 -7.08985901 24.0881958 C-8.2733624 22.90970886 -9.45555781 21.72990698 -10.63647461 20.54882812 C-12.45213321 18.73538464 -14.27568287 16.93012314 -16.09960938 15.125 C-17.25309172 13.97444692 -18.40610411 12.82342245 -19.55859375 11.671875 C-20.10535263 11.13230164 -20.65211151 10.59272827 -21.21543884 10.0368042 C-25 6.22885958 -25 6.22885958 -25 4 C-21.77531199 3.128281 -18.54472911 2.28078746 -15.3125 1.4375 C-14.40048828 1.19064453 -13.48847656 0.94378906 -12.54882812 0.68945312 C-11.66259766 0.46064453 -10.77636719 0.23183594 -9.86328125 -0.00390625 C-9.05157471 -0.21861572 -8.23986816 -0.4333252 -7.40356445 -0.65454102 C-4.50882129 -1.07059603 -2.77730546 -0.95510118 0 0 Z " fill="#87B7D1" transform="translate(109,380)"/>
<path d="M0 0 C1.92299145 0.52920376 3.83463684 1.10305097 5.7265625 1.734375 C7.60601562 2.15589844 7.60601562 2.15589844 9.5234375 2.5859375 C10.98523438 2.96878906 10.98523438 2.96878906 12.4765625 3.359375 C13.98476563 3.74996094 13.98476563 3.74996094 15.5234375 4.1484375 C16.25046875 4.34179688 16.9775 4.53515625 17.7265625 4.734375 C16.41279333 7.63981372 15.00599758 9.70098559 12.74560547 11.94238281 C12.14513397 12.54270325 11.54466248 13.14302368 10.92599487 13.76153564 C9.95715866 14.714888 9.95715866 14.714888 8.96875 15.6875 C8.30569855 16.34772156 7.64264709 17.00794312 6.95950317 17.68817139 C4.84484418 19.79165324 2.72333038 21.88806642 0.6015625 23.984375 C-0.83509307 25.41099761 -2.27129648 26.83807572 -3.70703125 28.265625 C-7.22394554 31.76051161 -10.74702297 35.24907562 -14.2734375 38.734375 C-15.39018261 37.78395413 -16.50596239 36.83239892 -17.62133789 35.88037109 C-18.2427919 35.35059662 -18.86424591 34.82082214 -19.50453186 34.2749939 C-21.66788118 32.39083639 -23.70042763 30.40515697 -25.7109375 28.359375 C-26.39027344 27.67101562 -27.06960938 26.98265625 -27.76953125 26.2734375 C-28.26582031 25.76554687 -28.76210938 25.25765625 -29.2734375 24.734375 C-26.96497947 19.38724823 -22.79089206 15.50296933 -18.80957031 11.35058594 C-17.8718057 10.35960561 -16.9486541 9.35458212 -16.04101562 8.3359375 C-7.5169194 -1.21500922 -7.5169194 -1.21500922 0 0 Z " fill="#EEF7FB" transform="translate(410.2734375,379.265625)"/>
<path d="M0 0 C2.47363281 2.13305664 2.47363281 2.13305664 5.203125 4.91015625 C5.6857782 5.39705429 6.1684314 5.88395233 6.66571045 6.38560486 C8.2010085 7.9376545 9.72552925 9.49982136 11.25 11.0625 C12.2909722 12.11852357 13.3326314 13.17387038 14.375 14.22851562 C16.92467633 16.81121415 19.46479196 19.40308882 22 22 C20.71825282 24.81878012 19.38992385 26.85241496 17.1796875 29.015625 C16.64472656 29.54414063 16.10976563 30.07265625 15.55859375 30.6171875 C15.00300781 31.15601563 14.44742188 31.69484375 13.875 32.25 C13.31167969 32.80429687 12.74835938 33.35859375 12.16796875 33.9296875 C10.78313972 35.29104485 9.39216796 36.64614859 8 38 C3.35196221 34.10874065 -1.08082699 30.07817742 -5.37109375 25.796875 C-5.93828629 25.23301086 -6.50547882 24.66914673 -7.08985901 24.0881958 C-8.2733624 22.90970886 -9.45555781 21.72990698 -10.63647461 20.54882812 C-12.45213321 18.73538464 -14.27568287 16.93012314 -16.09960938 15.125 C-17.25309172 13.97444692 -18.40610411 12.82342245 -19.55859375 11.671875 C-20.10535263 11.13230164 -20.65211151 10.59272827 -21.21543884 10.0368042 C-25 6.22885958 -25 6.22885958 -25 4 C-21.58700991 3.1306619 -18.16916192 2.28220776 -14.75 1.4375 C-13.78191406 1.19064453 -12.81382812 0.94378906 -11.81640625 0.68945312 C-10.88183594 0.46064453 -9.94726562 0.23183594 -8.984375 -0.00390625 C-7.69611816 -0.32597046 -7.69611816 -0.32597046 -6.38183594 -0.65454102 C-3.72614391 -1.0397198 -2.46293602 -1.06305192 0 0 Z " fill="#EEF7FB" transform="translate(337,380)"/>
<path d="M0 0 C1.75682924 0.53197446 3.50162154 1.1066613 5.2265625 1.734375 C6.44730469 2.01539063 7.66804688 2.29640625 8.92578125 2.5859375 C9.91191406 2.84117187 10.89804688 3.09640625 11.9140625 3.359375 C12.92855469 3.61976563 13.94304687 3.88015625 14.98828125 4.1484375 C15.72691406 4.34179688 16.46554688 4.53515625 17.2265625 4.734375 C17.2265625 8.22922403 16.87442916 8.46863554 14.53613281 10.84472656 C13.94842102 11.44835022 13.36070923 12.05197388 12.75518799 12.67388916 C12.11152283 13.31775574 11.46785767 13.96162231 10.8046875 14.625 C9.82009552 15.62101227 9.82009552 15.62101227 8.81561279 16.637146 C7.42393508 18.03963847 6.02824665 19.43816071 4.62890625 20.83300781 C2.48501274 22.9759286 0.36330888 25.139253 -1.7578125 27.3046875 C-3.11067625 28.6627575 -4.46480177 30.01957198 -5.8203125 31.375 C-6.77366486 32.35294525 -6.77366486 32.35294525 -7.74627686 33.35064697 C-8.34659729 33.94166199 -8.94691772 34.532677 -9.56542969 35.14160156 C-10.08949402 35.66772034 -10.61355835 36.19383911 -11.15350342 36.73590088 C-12.7734375 37.734375 -12.7734375 37.734375 -14.87670898 37.47236633 C-17.04709933 36.62789689 -18.1737493 35.6797052 -19.7890625 34.01171875 C-20.31757813 33.47353516 -20.84609375 32.93535156 -21.390625 32.38085938 C-21.92945313 31.81689453 -22.46828125 31.25292969 -23.0234375 30.671875 C-23.57773438 30.10404297 -24.13203125 29.53621094 -24.703125 28.95117188 C-26.06677964 27.55225031 -27.42104167 26.14418386 -28.7734375 24.734375 C-26.4661099 19.37366575 -22.25150888 15.50120844 -18.25463867 11.35058594 C-17.3110372 10.35875703 -16.38110564 9.35373616 -15.46557617 8.3359375 C-6.86197056 -1.21571957 -6.86197056 -1.21571957 0 0 Z " fill="#88B8D2" transform="translate(181.7734375,379.265625)"/>
<path d="M0 0 C0.58910156 0.33128906 1.17820312 0.66257812 1.78515625 1.00390625 C4.75206275 2.33822928 7.19548192 2.26499199 10.4375 2.25 C12.10619141 2.25773437 12.10619141 2.25773437 13.80859375 2.265625 C16.97089114 2.00242277 19.10419899 1.21594343 22 0 C25.39860775 0.17579006 27.9742875 0.404425 30.9375 2.125 C32.69297303 5.22289358 32.48723574 7.52844534 32 11 C27.69508728 15.69626842 21.7863226 18.06681334 15.51171875 18.46875 C13.90395796 18.50210055 12.29556282 18.51187354 10.6875 18.5 C9.8517041 18.49790527 9.0159082 18.49581055 8.15478516 18.49365234 C1.65233003 18.32796053 -3.79148439 17.15171535 -9 13 C-10.59702542 9.80594916 -10.50343003 6.46728571 -10 3 C-7.1813839 -0.46906597 -4.27753505 -0.44557657 0 0 Z " fill="#040303" transform="translate(359,296)"/>
<path d="M0 0 C0.58910156 0.33257812 1.17820313 0.66515625 1.78515625 1.0078125 C4.75189539 2.33682792 7.19767872 2.26498183 10.4375 2.25 C12.10619141 2.25773437 12.10619141 2.25773437 13.80859375 2.265625 C16.97198209 2.00233197 19.12184239 1.27151483 22 0 C25.62353466 -0.44369812 27.30282628 -0.45866692 30.375 1.5625 C32.62340519 4.93510779 32.56783945 7.02512383 32 11 C29.73311992 14.40032012 26.58926655 16.1410141 22.73828125 17.4609375 C11.91870884 19.59089612 1.53310006 18.81097504 -8 13.25 C-10 11 -10 11 -10.5625 7.5 C-10 4 -10 4 -8.375 1.5625 C-5.31889507 -0.44809535 -3.59974487 -0.44996811 0 0 Z " fill="#050403" transform="translate(131,296)"/>
<path d="M0 0 C1.918125 0.680625 1.918125 0.680625 3.875 1.375 C17.41431575 5.83177944 29.30257243 6.04064846 43 2 C45.31 1.34 47.62 0.68 50 0 C50 5.94 50 11.88 50 18 C49.67 18 49.34 18 49 18 C48.505 13.545 48.505 13.545 48 9 C47.27039063 9.28875 46.54078125 9.5775 45.7890625 9.875 C32.10449767 14.74062305 15.41100931 15.25847101 2 9 C1.67 11.97 1.34 14.94 1 18 C0.67 18 0.34 18 0 18 C0 12.06 0 6.12 0 0 Z " fill="#B4775F" transform="translate(345,350)"/>
<path d="M0 0 C2.5059375 0.680625 2.5059375 0.680625 5.0625 1.375 C6.07699219 1.64699219 7.09148437 1.91898437 8.13671875 2.19921875 C10.23855795 2.78704554 12.31622889 3.46311757 14.375 4.1875 C24.24889866 6.40061522 33.44919317 4.85215875 43 2 C45.31 1.34 47.62 0.68 50 0 C50 5.94 50 11.88 50 18 C49.67 18 49.34 18 49 18 C48.505 13.545 48.505 13.545 48 9 C46.63875 9.474375 45.2775 9.94875 43.875 10.4375 C29.7826281 15.34847809 15.83182757 13.45162267 2 9 C1.67 11.97 1.34 14.94 1 18 C0.67 18 0.34 18 0 18 C0 12.06 0 6.12 0 0 Z " fill="#EFA873" transform="translate(117,350)"/>
</svg>
