<?xml version="1.0" encoding="UTF-8"?>
<svg version="1.1" xmlns="http://www.w3.org/2000/svg" width="512" height="512">
<path d="M0 0 C13.89404225 11.1812471 23.08404551 24.59298351 29.3515625 41.31640625 C30.06119141 40.82720703 30.06119141 40.82720703 30.78515625 40.328125 C31.44644531 39.89113281 32.10773438 39.45414063 32.7890625 39.00390625 C33.42714844 38.57464844 34.06523437 38.14539062 34.72265625 37.703125 C42.95943813 33.35831435 50.61253142 32.86061772 59.828125 32.8828125 C61.11157806 32.87757065 62.39503113 32.8723288 63.71737671 32.8669281 C66.4254546 32.85803999 69.13323702 32.86036662 71.84130859 32.87036133 C74.58771322 32.8795225 77.33326572 32.87269861 80.07958984 32.84985352 C109.02242608 32.61000787 109.02242608 32.61000787 121.3515625 37.31640625 C122.96260864 37.88331177 122.96260864 37.88331177 124.60620117 38.46166992 C144.6964414 45.75649305 159.86846166 62.25445423 169 81.15234375 C179.74439825 106.30541479 177.45072664 135.35333935 167.85839844 160.51586914 C165.61871563 166.04289615 162.87105351 171.28387233 159.89160156 176.44628906 C157.98866858 179.79359459 157.3515625 181.34731021 157.3515625 185.31640625 C158.83872757 187.20882243 158.83872757 187.20882243 160.8515625 189.06640625 C168.81548416 197.62549644 175.06253839 210.00983003 175.4296875 221.83203125 C175.63291467 226.6804508 175.90210518 229.41872244 179.5390625 232.81640625 C180.16554688 233.36167969 180.79203125 233.90695312 181.4375 234.46875 C188.02553251 240.82821811 191.53419997 249.60200824 191.78393555 258.63427734 C191.80322672 267.31530723 191.38557833 274.88270067 186.3515625 282.31640625 C184.41967367 283.9688224 182.48171969 285.61416339 180.5390625 287.25390625 C177.20400319 290.29463232 175.55414207 292.8769532 174.91699219 297.40429688 C174.67482743 303.68664299 174.96330956 309.93972054 175.19921875 316.21875 C175.73590592 331.62470953 170.40870863 347.15600614 161.6015625 359.8359375 C157.69168216 367.59460631 161.52378231 381.01870332 163.9921875 388.87109375 C167.1946846 396.98776744 171.80037374 404.26780823 176.9140625 411.31640625 C192.36967978 432.98249989 191.3515625 454.57173363 191.3515625 481.31640625 C143.8315625 481.31640625 96.3115625 481.31640625 47.3515625 481.31640625 C47.3515625 450.71847542 48.12450531 429.57816612 57.3515625 402.31640625 C48.7715625 401.98640625 40.1915625 401.65640625 31.3515625 401.31640625 C31.3515625 427.71640625 31.3515625 454.11640625 31.3515625 481.31640625 C-16.1684375 481.31640625 -63.6884375 481.31640625 -112.6484375 481.31640625 C-112.6484375 454.91640625 -112.6484375 428.51640625 -112.6484375 401.31640625 C-123.2084375 401.31640625 -133.7684375 401.31640625 -144.6484375 401.31640625 C-144.6484375 427.71640625 -144.6484375 454.11640625 -144.6484375 481.31640625 C-186.8884375 481.31640625 -229.1284375 481.31640625 -272.6484375 481.31640625 C-272.5859375 422.87890625 -272.5859375 422.87890625 -272.49584961 404.52172852 C-272.51238963 399.02541634 -272.51238963 399.02541634 -272.54078674 393.52915955 C-272.54766034 391.10739749 -272.53711994 388.68554332 -272.51210022 386.26390076 C-272.36992024 371.09401354 -273.11414357 359.96077498 -281.57921028 347.16590691 C-291.43779838 330.11296919 -291.50057603 303.76121413 -286.62524414 285.19946289 C-282.91020179 272.77008548 -276.89133365 261.32101943 -268.6484375 251.31640625 C-268.01164062 250.52878906 -267.37484375 249.74117188 -266.71875 248.9296875 C-261.45456064 242.70356795 -255.35063266 236.73810736 -248.046875 232.9765625 C-245.41083456 231.5999636 -243.60224582 230.57216676 -241.6484375 228.31640625 C-240.59513885 223.61869428 -240.48408625 219.11546265 -240.6484375 214.31640625 C-241.43605469 214.08308594 -242.22367188 213.84976563 -243.03515625 213.609375 C-260.49009547 207.36333729 -277.50453809 198.09662526 -285.76171875 180.74609375 C-286.94627258 177.50031189 -287.71190283 174.16951996 -288.5234375 170.81640625 C-289.844962 165.39458054 -291.49675679 161.45183516 -295.1328125 157.19140625 C-303.60820724 146.70638183 -305.16364297 133.42528357 -305.0859375 120.44140625 C-305.10591797 119.26449219 -305.12589844 118.08757812 -305.14648438 116.875 C-305.1366215 98.94428427 -298.01172012 84.92695452 -285.6484375 72.31640625 C-284.58496094 71.18525391 -284.58496094 71.18525391 -283.5 70.03125 C-281.6484375 68.31640625 -281.6484375 68.31640625 -279.6484375 68.31640625 C-279.53371094 67.59839844 -279.41898437 66.88039063 -279.30078125 66.140625 C-276.97421324 56.06811799 -269.60399459 46.71357466 -260.93994141 41.23632812 C-252.74285986 36.55735496 -244.5208925 33.09067407 -234.96972656 33.02587891 C-233.68439026 33.0131192 -232.39905396 33.0003595 -231.07476807 32.98721313 C-229.68786776 32.98415445 -228.30096541 32.98192724 -226.9140625 32.98046875 C-225.47068148 32.97402969 -224.02730173 32.96730053 -222.58392334 32.96029663 C-219.56470723 32.94835913 -216.54560521 32.94461204 -213.52636719 32.94580078 C-209.68566893 32.94600352 -205.84571433 32.91873305 -202.0051918 32.88425636 C-199.0246047 32.86185243 -196.04419259 32.85796736 -193.06352997 32.85902023 C-191.64914138 32.85668329 -190.23474653 32.8479692 -188.8204422 32.8323555 C-175.61751546 32.70026261 -165.37395162 35.03212528 -155.6484375 44.31640625 C-146.84299478 53.54032545 -144.01343583 63.17035083 -144.17993164 75.68334961 C-144.63908881 87.0783598 -148.79070018 95.07142931 -156.6484375 103.31640625 C-157.6384375 103.97640625 -158.6284375 104.63640625 -159.6484375 105.31640625 C-160.09541481 107.19420061 -160.09541481 107.19420061 -160.01171875 109.3515625 C-160.01107422 110.16173828 -160.01042969 110.97191406 -160.00976562 111.80664062 C-159.99365234 112.65548828 -159.97753906 113.50433594 -159.9609375 114.37890625 C-159.96416016 115.20068359 -159.96738281 116.02246094 -159.97070312 116.86914062 C-159.86444604 129.1466639 -156.52885155 136.36783377 -148.234375 145.38671875 C-144.16287604 150.34071009 -144.15766212 154.77101579 -144.27734375 161.05078125 C-144.82024489 165.82831131 -146.2826754 168.90233178 -149.6484375 172.31640625 C-153.17793343 175.11802948 -156.06089343 177.31640625 -160.6484375 177.31640625 C-160.62749023 178.02659912 -160.60654297 178.73679199 -160.58496094 179.46850586 C-160.50109064 182.73015819 -160.44955393 185.99158269 -160.3984375 189.25390625 C-160.36492187 190.37087891 -160.33140625 191.48785156 -160.296875 192.63867188 C-160.18973408 201.77243516 -161.80187068 208.8544229 -168.1484375 215.69140625 C-168.715625 216.31789062 -169.2828125 216.944375 -169.8671875 217.58984375 C-171.6484375 219.31640625 -171.6484375 219.31640625 -173.71337891 220.55883789 C-175.88746072 222.19776387 -175.88746072 222.19776387 -176.26123047 224.97680664 C-177.39950433 239.32610268 -177.39950433 239.32610268 -173.7578125 252.796875 C-171.30218704 255.11918464 -171.30218704 255.11918464 -168.51171875 257.10546875 C-155.54575041 267.11738973 -147.33382283 288.76634327 -144.92822266 304.48486328 C-143.85582807 315.33794566 -144.39190034 326.43495512 -144.6484375 337.31640625 C-132.7684375 336.82140625 -132.7684375 336.82140625 -120.6484375 336.31640625 C-122.0096875 334.54265625 -123.3709375 332.76890625 -124.7734375 330.94140625 C-131.0028183 322.62997127 -135.74467855 314.57586346 -139.3984375 304.81640625 C-139.69250488 304.03322021 -139.98657227 303.25003418 -140.28955078 302.44311523 C-148.78736677 278.80718061 -146.72596751 251.71469652 -136.4934082 228.99438477 C-126.85974712 208.75940139 -110.1962921 191.84378963 -89.77734375 182.5078125 C-88.82166504 182.06429443 -88.82166504 182.06429443 -87.84667969 181.61181641 C-86.05911575 180.79857202 -84.25449978 180.02311813 -82.44921875 179.25 C-78.79440365 176.72680129 -78.43546213 174.58664957 -77.6484375 170.31640625 C-78.52886719 170.06761719 -79.40929687 169.81882813 -80.31640625 169.5625 C-92.36380637 165.05708307 -101.76519091 152.74351137 -107.1484375 141.50390625 C-108.97153116 137.42726627 -110.06573283 133.74628607 -110.6484375 129.31640625 C-111.7828125 129.3628125 -112.9171875 129.40921875 -114.0859375 129.45703125 C-130.57081876 129.93774128 -130.57081876 129.93774128 -137.34375 123.7734375 C-142.43949856 118.3945918 -144.75222592 112.6956212 -145.0234375 105.31640625 C-144.74856386 97.52433604 -142.19849395 91.8664627 -136.6484375 86.31640625 C-135.4521875 85.85363281 -134.2559375 85.39085938 -133.0234375 84.9140625 C-131.09090783 83.95375722 -131.09090783 83.95375722 -129.6484375 82.31640625 C-128.65309992 78.22790237 -128.81727181 74.19217366 -128.8984375 70.00390625 C-128.87571583 67.64052762 -128.84451408 65.27721477 -128.8046875 62.9140625 C-128.77955078 61.20500732 -128.77955078 61.20500732 -128.75390625 59.46142578 C-128.05738565 38.69156832 -117.61748384 19.33314745 -102.6484375 5.31640625 C-74.34054356 -19.30916002 -30.53202034 -23.29289656 0 0 Z M46.3515625 113.31640625 C45.40731874 114.71484321 44.4966969 116.13603685 43.6015625 117.56640625 C40.04796832 122.96888714 36.56667666 126.29775057 30.3515625 128.31640625 C27.41949162 128.68744102 24.49086677 128.82264128 21.5390625 128.94140625 C20.75080078 128.98007813 19.96253906 129.01875 19.15039062 129.05859375 C17.2178087 129.15229469 15.28471874 129.23541404 13.3515625 129.31640625 C13.06023437 130.13882813 12.76890625 130.96125 12.46875 131.80859375 C6.2606598 148.71490229 -2.94511354 162.38615841 -19.6484375 170.31640625 C-19.48248814 174.54811482 -19.23810605 176.69570251 -16.2734375 179.81640625 C-13.429299 181.91208725 -10.40273528 183.71106088 -7.3984375 185.56640625 C-1.54214114 189.2345484 3.43034402 193.47974479 8.3515625 198.31640625 C8.97804688 198.93 9.60453125 199.54359375 10.25 200.17578125 C23.49353529 214.19834802 30.62155186 234.01352963 30.67041016 253.08056641 C30.68045578 253.9988623 30.6905014 254.9171582 30.70085144 255.86328125 C30.73143258 258.86067143 30.74864813 261.85797337 30.765625 264.85546875 C30.78435686 266.9486872 30.80393175 269.04189825 30.8243103 271.13510132 C30.8754243 276.61598331 30.91516048 282.09688973 30.95245361 287.57788086 C30.99262386 293.18218932 31.04365653 298.786398 31.09375 304.390625 C31.19026361 315.36582195 31.27374112 326.34106083 31.3515625 337.31640625 C41.9115625 337.31640625 52.4715625 337.31640625 63.3515625 337.31640625 C64.13266944 326.40672684 64.13266944 326.40672684 59.1640625 319.37890625 C48.15594611 306.22117343 47.02658555 290.78397686 48.3515625 274.31640625 C51.14340175 257.26229755 63.41538359 244.42583654 75.8203125 233.30078125 C77.80998142 230.72233275 78.02648356 228.51301578 78.3515625 225.31640625 C77.19140625 225.18685547 77.19140625 225.18685547 76.0078125 225.0546875 C65.60489199 223.65132322 59.85243669 220.42308082 52.89453125 212.671875 C48.01799886 205.22744708 47.83777861 197.98235852 47.6640625 189.31640625 C47.62990234 188.16011719 47.59574219 187.00382812 47.56054688 185.8125 C47.47863142 182.98056579 47.40929728 180.14891924 47.3515625 177.31640625 C46.66594238 176.99607422 45.98032227 176.67574219 45.27392578 176.34570312 C44.37399902 175.91322266 43.47407227 175.48074219 42.546875 175.03515625 C41.65500488 174.61169922 40.76313477 174.18824219 39.84423828 173.75195312 C35.80001003 171.42285791 33.77578846 168.73079815 32.3515625 164.31640625 C31.2843422 157.77244301 31.29930257 152.11738793 34.9765625 146.44140625 C36.06299676 145.03573538 37.18802352 143.65895123 38.3515625 142.31640625 C38.90070313 141.67960937 39.44984375 141.0428125 40.015625 140.38671875 C41.04000481 139.21095276 42.06715901 138.03759559 43.09765625 136.8671875 C48.38763226 130.32475611 47.47826756 121.22843354 47.3515625 113.31640625 C47.0215625 113.31640625 46.6915625 113.31640625 46.3515625 113.31640625 Z " fill="#010100" transform="translate(312.6484375,22.68359375)"/>
<path d="M0 0 C11.73789166 10.28652947 20.63422482 23.36861968 23 39 C23.22135982 43.0260883 23.1911156 47.03199149 23.125 51.0625 C23.11597656 52.11888672 23.10695313 53.17527344 23.09765625 54.26367188 C23.0743167 56.84269253 23.04157775 59.4212199 23 62 C21.94760408 60.42140613 20.90663606 58.83028028 19.9921875 57.16796875 C19.62351562 56.51441406 19.25484375 55.86085938 18.875 55.1875 C18.52179688 54.54167969 18.16859375 53.89585938 17.8046875 53.23046875 C11.65906434 45.6349042 1.77956966 41.08856019 -6.5 36.125 C-7.81273671 35.3337259 -9.12523862 34.54206215 -10.4375 33.75 C-13.62230742 31.82883634 -16.81025379 29.91295531 -20 28 C-22.4870421 30.98340555 -24.58391138 33.80181327 -26.25 37.3125 C-26.58515625 38.00988281 -26.9203125 38.70726562 -27.265625 39.42578125 C-27.62914062 40.20501953 -27.62914062 40.20501953 -28 41 C-27.11739502 41.51908936 -26.23479004 42.03817871 -25.32543945 42.57299805 C-22.03151308 44.51297383 -18.74356653 46.46289439 -15.45727539 48.41577148 C-14.03797299 49.25733622 -12.6170932 50.09624689 -11.19458008 50.93237305 C-9.14237138 52.13925865 -7.09614894 53.35578399 -5.05078125 54.57421875 C-4.4203743 54.94214035 -3.78996735 55.31006195 -3.14045715 55.68913269 C0.81264923 58.06000165 4.20972371 60.30735999 7 64 C7.68361175 66.95201263 7.65474453 69.79742034 7.59375 72.81640625 C7.59379028 73.66871323 7.59383057 74.5210202 7.59387207 75.39915466 C7.58852031 77.20213188 7.57095207 79.00510876 7.54199219 80.80786133 C7.50050217 83.52955856 7.50089834 86.24874594 7.5078125 88.97070312 C7.44791921 105.51947576 5.10332706 119.63685959 -6.5 132.25 C-17.1483235 142.35143075 -30.0280896 146.50795307 -44.4765625 146.24609375 C-57.57744226 145.33106556 -68.72976485 139.38362405 -77.703125 129.91015625 C-86.01115099 119.38383081 -89.28602263 107.56918543 -89.37109375 94.328125 C-89.38012222 93.44268005 -89.3891507 92.55723511 -89.39845276 91.6449585 C-89.41285383 89.78954401 -89.42181647 87.93407992 -89.42553711 86.07861328 C-89.43752977 83.2429603 -89.48689197 80.40942022 -89.53710938 77.57421875 C-89.54656495 75.76303136 -89.55380412 73.95183074 -89.55859375 72.140625 C-89.57812607 71.29783997 -89.59765839 70.45505493 -89.61778259 69.58673096 C-89.58519098 65.34274632 -89.45500516 63.57043304 -86.73071289 60.1550293 C-85.82957764 59.44386963 -84.92844238 58.73270996 -84 58 C-83.29359375 57.37810791 -82.5871875 56.75621582 -81.859375 56.11547852 C-79.58777792 54.24535467 -77.29814522 52.39989695 -75 50.5625 C-74.2059375 49.90056641 -73.411875 49.23863281 -72.59375 48.55664062 C-71.8203125 47.94111328 -71.046875 47.32558594 -70.25 46.69140625 C-69.55390625 46.12623291 -68.8578125 45.56105957 -68.140625 44.97875977 C-66 44 -66 44 -63.44970703 44.69433594 C-61.39922101 45.78722006 -59.46579356 46.8823819 -57.5546875 48.19921875 C-56.95269531 48.60333984 -56.35070312 49.00746094 -55.73046875 49.42382812 C-54.48269273 50.27362927 -53.23793742 51.1278811 -51.99609375 51.98632812 C-50.37865543 53.06635952 -48.69233015 54.04156732 -47 55 C-43.40145651 53.8004855 -42.81383185 52.72074777 -40.75 49.625 C-40.20859375 48.83351562 -39.6671875 48.04203125 -39.109375 47.2265625 C-37.63385054 44.92159344 -37.63385054 44.92159344 -39 42 C-42.19002192 39.39757706 -45.62796054 37.16198438 -49.0546875 34.8828125 C-50.7409877 33.75602205 -52.40937097 32.60568829 -54.078125 31.453125 C-55.1403125 30.7415625 -56.2025 30.03 -57.296875 29.296875 C-58.26979492 28.64041992 -59.24271484 27.98396484 -60.24511719 27.30761719 C-62.88231223 25.79248665 -62.88231223 25.79248665 -65.58813477 26.11401367 C-68.19998427 27.0734632 -70.06945497 28.20892437 -72.29296875 29.87890625 C-73.08356689 30.46655762 -73.87416504 31.05420898 -74.6887207 31.65966797 C-75.51331787 32.28760254 -76.33791504 32.91553711 -77.1875 33.5625 C-78.03594482 34.20074707 -78.88438965 34.83899414 -79.75854492 35.49658203 C-81.43193136 36.75936382 -83.1020457 38.02649559 -84.76855469 39.29833984 C-86.58941456 40.68689491 -88.41978185 42.06016409 -90.2578125 43.42578125 C-94.96806415 47.01968885 -98.60525777 50.61681032 -101.94140625 55.53125 C-102.29074219 56.0159375 -102.64007813 56.500625 -103 57 C-103.33 57 -103.66 57 -104 57 C-104.77777014 35.13601704 -104.77777014 35.13601704 -100 25 C-99.57589844 24.07058594 -99.15179688 23.14117187 -98.71484375 22.18359375 C-95.18595718 15.11599085 -90.55427047 9.57284663 -85 4 C-84.31164062 3.2884375 -83.62328125 2.576875 -82.9140625 1.84375 C-60.47726291 -19.842376 -23.71430665 -18.96296078 0 0 Z " fill="#EECEB2" transform="translate(305,38)"/>
<path d="M0 0 C1.9453125 2.08984375 1.9453125 2.08984375 4.125 4.9375 C17.48271899 21.72577282 34.71536582 33.9840586 53.4375 44.1875 C54.05061035 44.52193115 54.6637207 44.8563623 55.29541016 45.20092773 C58.53907767 46.90667136 61.71609988 48.29801625 65.2109375 49.41015625 C75.11822157 52.57769637 75.11822157 52.57769637 77.3828125 56.23046875 C78.06930206 59.58073119 78.07051538 62.57160936 78 66 C78.02022132 67.96489544 78.04539318 69.9297432 78.07421875 71.89453125 C78.13454574 77.59829412 78.09423078 83.29686305 78 89 C73.23528254 89.12508346 68.47155322 89.21502373 63.70556641 89.2746582 C62.08983683 89.2995576 60.47421695 89.33349066 58.85888672 89.37719727 C46.17835657 89.71130919 36.26438426 88.53727596 26.0625 80.1875 C17.8576708 72.26457271 14.09894449 63.52475105 13.625 52.1875 C13.17240459 43.4844675 10.48183403 35.82824941 5 29 C1.78475695 30.40844718 -0.32183868 32.10344786 -2.75 34.625 C-3.36359375 35.25664062 -3.9771875 35.88828125 -4.609375 36.5390625 C-5.06828125 37.02117187 -5.5271875 37.50328125 -6 38 C-4.65100489 41.48906046 -4.65100489 41.48906046 -2.94921875 44.8125 C-1.75897475 47.55544913 -1.75950437 49.76371347 -1.6875 52.75 C-0.69930197 67.63996692 4.63074626 80.98422885 16 91 C16.61101562 91.55300781 17.22203125 92.10601562 17.8515625 92.67578125 C23.93928803 97.84481366 30.44402241 100.55214648 38 103 C38.55177917 103.1802623 39.10355835 103.3605246 39.67205811 103.54624939 C43.15263516 104.22466579 46.63182199 104.17894981 50.16503906 104.20532227 C50.9849231 104.21522186 51.80480713 104.22512146 52.64953613 104.23532104 C55.35486989 104.26686483 58.06022119 104.29166529 60.765625 104.31640625 C62.64321342 104.33698193 64.52079727 104.35797856 66.39837646 104.37937927 C71.3368357 104.43453655 76.2753363 104.4839738 81.21386719 104.53222656 C86.25459468 104.58248792 91.29526221 104.63814979 96.3359375 104.69335938 C106.22390898 104.80086337 116.11193148 104.90182642 126 105 C126 115.56 126 126.12 126 137 C114.16012682 137.02263039 102.3202681 137.04096103 90.48037815 137.05181217 C84.98210913 137.05702128 79.48385573 137.06408301 73.9855957 137.07543945 C68.67527552 137.08633855 63.36497032 137.09229169 58.05463982 137.09487724 C56.03295595 137.09671886 54.01127287 137.10031501 51.98959541 137.10573006 C49.14872619 137.11303375 46.30791818 137.11398702 43.46704102 137.11352539 C42.63913055 137.11712067 41.81122009 137.12071594 40.95822144 137.12442017 C20.86432728 137.0892984 2.84707834 129.82900417 -11.421875 115.640625 C-12.27265625 114.76921875 -13.1234375 113.8978125 -14 113 C-14.66515625 112.35546875 -15.3303125 111.7109375 -16.015625 111.046875 C-29.28134901 97.30310688 -34.81685625 77.26323815 -34.51953125 58.61791992 C-33.64116906 37.40586515 -23.6323982 18.95826554 -8.53125 4.40625 C-3.73333333 0 -3.73333333 0 0 0 Z " fill="#B2DB7E" transform="translate(74,271)"/>
<path d="M0 0 C0.12004395 0.6077124 0.24008789 1.2154248 0.36376953 1.84155273 C6.27270238 31.35008524 16.44574568 58.73075255 35.75 82.2578125 C37 84 37 84 37 86 C37.66 86 38.32 86 39 86 C39.24492187 85.46117187 39.48984375 84.92234375 39.7421875 84.3671875 C41.3036693 81.42849816 43.1880224 78.83136939 45.125 76.125 C60.48703225 54.23519201 71.06339114 29.50649963 75 3 C78.81499666 4.78300897 81.10341767 6.90133053 84 10 C84.78890625 10.76376953 84.78890625 10.76376953 85.59375 11.54296875 C89.72769801 15.79905613 92.55458977 20.44965046 95.25 25.6875 C95.57911377 26.30987549 95.90822754 26.93225098 96.24731445 27.57348633 C102.63617761 40.52908903 102.40995344 53.87860239 102.29296875 67.95703125 C102.28736193 69.95627013 102.28309698 71.95551318 102.28010559 73.95475769 C102.26874227 79.17436436 102.23934993 84.39371395 102.20599365 89.61322021 C102.1751076 94.95630416 102.16156093 100.29943032 102.14648438 105.64257812 C102.1144708 116.095164 102.06337947 126.54756048 102 137 C96.72 137 91.44 137 86 137 C85.90723147 125.38642119 85.83620002 113.77293084 85.79275131 102.15905666 C85.7718958 96.7659793 85.74361504 91.37315585 85.69824219 85.98022461 C85.65471228 80.77363153 85.63084758 75.56728236 85.62049103 70.36052132 C85.61311252 68.37622298 85.59870395 66.39193768 85.57707977 64.40774345 C85.54795095 61.62366997 85.54404797 58.84059836 85.54589844 56.05639648 C85.53151733 55.23999695 85.51713623 54.42359741 85.50231934 53.5824585 C85.54311309 47.89296264 86.95613092 44.78549451 90 40 C89.32315277 36.27734026 85.94263897 33.86090585 83.2421875 31.3671875 C82 30 82 30 82 28 C78.96901095 29.05854498 78.04389455 29.92855571 76.33203125 32.71484375 C75.83058594 33.77832031 75.32914062 34.84179688 74.8125 35.9375 C74.30332031 36.99839844 73.79414063 38.05929687 73.26953125 39.15234375 C71.04179376 44.1493303 70.83119746 48.39573011 70.79467773 53.78588867 C70.78477814 54.68365524 70.77487854 55.58142181 70.76467896 56.50639343 C70.73306544 59.47689162 70.70830705 62.4474058 70.68359375 65.41796875 C70.6630241 67.47634804 70.64202762 69.53472311 70.62062073 71.59309387 C70.56540122 77.01326072 70.51599137 82.43346568 70.46777344 87.85369873 C70.41755757 93.38362016 70.36187194 98.91348617 70.30664062 104.44335938 C70.19906051 115.29552559 70.09761517 126.1477399 70 137 C69.34090134 137.01556442 68.68180267 137.03112885 68.00273132 137.04716492 C64.98437101 137.12607035 61.96697642 137.22498571 58.94921875 137.32421875 C57.91244995 137.34834839 56.87568115 137.37247803 55.80749512 137.39733887 C46.6779397 137.72177612 39.46139751 139.49054435 32.82421875 146.19921875 C31 148 31 148 29 148 C29.33 147.05125 29.66 146.1025 30 145.125 C32.35656175 136.47849769 31.30816922 129.95222326 27.03125 122.07421875 C23.69156599 117.01973545 19.5737609 112.80276487 15.3828125 108.46582031 C0.46503323 92.65255288 -9.74441595 74.75409597 -10.4375 52.75 C-10.80206726 43.71584552 -13.32815704 36.09809587 -19 29 C-22.21524305 30.40844718 -24.32183868 32.10344786 -26.75 34.625 C-27.36359375 35.25664062 -27.9771875 35.88828125 -28.609375 36.5390625 C-29.06828125 37.02117187 -29.5271875 37.50328125 -30 38 C-28.67194118 41.45992043 -28.67194118 41.45992043 -26.94921875 44.73046875 C-25.6339659 47.87516794 -25.75327458 50.65953109 -25.6875 54.0625 C-24.80224563 74.03272909 -17.11430919 92.25139806 -5 108 C-7.01445756 112.57341278 -10.06884019 114.80441163 -13.9375 117.8125 C-14.88786133 118.5849707 -14.88786133 118.5849707 -15.85742188 119.37304688 C-17.50701641 120.66878517 -19.24923125 121.84461753 -21 123 C-25.00649315 121.66450228 -26.22895702 119.10857146 -28.375 115.6875 C-28.77348145 115.05811523 -29.17196289 114.42873047 -29.58251953 113.78027344 C-39.76009196 97.30545762 -42.38739648 80.95052407 -42 62 C-41.98324219 61.12601562 -41.96648437 60.25203125 -41.94921875 59.3515625 C-40.75617071 41.55810322 -29.9517956 22.89119841 -16.8984375 11.09375 C-3.99706699 0 -3.99706699 0 0 0 Z " fill="#73AFEF" transform="translate(226,223)"/>
<path d="M0 0 C1.88561646 -0.00430527 1.88561646 -0.00430527 3.80932617 -0.00869751 C6.45881608 -0.01073286 9.10746682 -0.00676726 11.75683594 0.00732422 C15.13252578 0.02441529 18.50749979 0.01456133 21.88316345 -0.00339317 C25.13046701 -0.01691338 28.37768705 -0.00741431 31.625 0 C32.82729248 -0.00607269 34.02958496 -0.01214539 35.26831055 -0.0184021 C44.97010609 0.0624462 51.8353811 1.65721712 59.046875 8.45703125 C64.05408147 13.96274279 65.5213224 19.25450056 65.18359375 26.6640625 C64.08810755 34.73606609 60.32869396 39.68400123 54.11328125 44.80078125 C49.14551482 48.25038476 43.75485238 49.16874244 37.8125 48.3984375 C34.43128009 45.95244863 33.04313217 44.50547191 32.1875 40.3984375 C33.07455836 36.14055735 34.17852753 34.82108581 37.8125 32.3984375 C41.58398279 31.97997242 44.99707498 32.16859262 48.8125 32.3984375 C48.8125 27.1184375 48.8125 21.8384375 48.8125 16.3984375 C37.85061917 16.8200483 30.57490022 17.10501149 22.9375 25.2734375 C20.74400706 27.79340381 19.85963095 29.17357175 19.1640625 32.4921875 C17.8125 35.3984375 17.8125 35.3984375 16.06884766 36.28173828 C13.74708556 36.98071306 11.43594811 37.52771732 9.0625 38.0234375 C0.15744329 40.00553077 -5.64010999 42.75203506 -11.1875 50.3984375 C-13.32143957 54.43768025 -14.26056557 57.58885404 -14.4375 62.0859375 C-14.62890625 64.40234375 -14.62890625 64.40234375 -15.1875 66.3984375 C-18.375 68.5234375 -18.375 68.5234375 -20.2734375 69.37890625 C-24.46883242 71.6135962 -27.17863827 75.70171551 -29.5625 79.7109375 C-31.22590233 86.86356753 -30.77134653 93.92872203 -27.1875 100.3984375 C-23.65034061 105.59461855 -21.03750265 107.47343617 -15.1875 110.3984375 C-15.1875 122.6084375 -15.1875 134.8184375 -15.1875 147.3984375 C-39.2441897 136.89750152 -39.2441897 136.89750152 -44.6875 126.1484375 C-46.11754791 122.43031292 -46.51514167 118.84656975 -46.9375 114.8984375 C-47.74012766 108.70673841 -49.72712639 106.08062784 -54.08203125 101.78125 C-63.72181859 90.87165765 -63.91626634 76.36787768 -63.36230469 62.62304688 C-62.52638022 51.98485726 -55.77581161 41.29532079 -47.9375 34.3359375 C-45.74391143 32.54158205 -43.55132397 30.97432015 -41.1875 29.3984375 C-39.94259306 26.79961224 -39.94259306 26.79961224 -38.875 23.7734375 C-34.46565024 12.83510991 -28.53031248 6.82899003 -17.85302734 1.84057617 C-12.03011922 -0.30077124 -6.13249237 -0.03097478 0 0 Z " fill="#B07845" transform="translate(87.1875,71.6015625)"/>
<path d="M0 0 C0.3403125 1.26972656 0.680625 2.53945313 1.03125 3.84765625 C5.20106359 18.8639667 10.71769434 30.8353469 20.11328125 43.33203125 C29.68000562 56.86013216 31 69.41866563 31 86 C-5.96 86 -42.92 86 -81 86 C-81 67.20399597 -81 67.20399597 -79.875 60.25 C-79.74665771 59.42854492 -79.61831543 58.60708984 -79.48608398 57.76074219 C-77.38187155 45.32193173 -73.90207905 33.16678456 -68 22 C-66.94683594 21.96261719 -65.89367187 21.92523438 -64.80859375 21.88671875 C-42.75889967 20.95177669 -21.64515326 15.9918944 -4.26171875 1.7578125 C-2 0 -2 0 0 0 Z " fill="#FD816D" transform="translate(457,402)"/>
<path d="M0 0 C4.455 2.97 4.455 2.97 9 6 C29.2284566 19.17688237 48.92599152 21.59569511 72.5 21.75 C84.1325 21.87375 84.1325 21.87375 96 22 C96 43.12 96 64.24 96 86 C64.32 86 32.64 86 0 86 C0 57.62 0 29.24 0 0 Z " fill="#B3DC7E" transform="translate(56,402)"/>
<path d="M0 0 C4.15486814 0.58997331 7.07375782 1.98710809 10.66796875 4.125 C12.25448242 5.06085938 12.25448242 5.06085938 13.87304688 6.015625 C14.96681641 6.67046875 16.06058594 7.3253125 17.1875 8 C19.36831648 9.29195892 21.5492976 10.58363996 23.73046875 11.875 C24.69364014 12.44992187 25.65681152 13.02484375 26.64916992 13.6171875 C28.07441349 14.45554865 29.52103586 15.26051793 31 16 C24.84754885 32.27422562 10.95623203 43.24184497 -4.25 50.6875 C-20.46243995 57.40652486 -35.62267956 57.60151626 -52.97795987 57.53730202 C-56.618614 57.52705848 -60.25923104 57.53659695 -63.89988708 57.54284668 C-69.9994951 57.55008216 -76.09890804 57.5406354 -82.19848633 57.52148438 C-89.23852296 57.49963517 -96.27809756 57.50684128 -103.3181234 57.52879 C-109.38984704 57.54695675 -115.46143194 57.54949879 -121.53317398 57.53903532 C-125.14827206 57.5328186 -128.76315287 57.53191596 -132.37823677 57.54518127 C-136.39900182 57.55891153 -140.41897065 57.53986985 -144.43969727 57.51757812 C-146.2234375 57.52972351 -146.2234375 57.52972351 -148.04321289 57.54211426 C-154.32909768 57.47749719 -158.25595522 57.2860323 -163 53 C-167.39893104 48.00661882 -168.35676337 45.08984773 -168.28125 38.5390625 C-167.73016315 33.56397287 -164.99302299 30.87480597 -161.375 27.6875 C-158.01788599 25.30218215 -156.33427428 24.87523324 -152.26679993 24.87542725 C-151.26761536 24.87286423 -150.26843079 24.87030121 -149.2389679 24.86766052 C-147.58794319 24.87081017 -147.58794319 24.87081017 -145.90356445 24.87402344 C-144.1689949 24.87122124 -144.1689949 24.87122124 -142.39938354 24.86836243 C-139.87902869 24.86434947 -137.35867017 24.86228277 -134.83831215 24.86190033 C-130.83920278 24.8593597 -126.84018451 24.84790414 -122.84111023 24.83233643 C-122.1652603 24.82976357 -121.48941038 24.82719072 -120.79308015 24.8245399 C-119.41047217 24.81927262 -118.02786425 24.81398714 -116.6452564 24.80868387 C-107.33632617 24.77365852 -98.02750747 24.74700706 -88.71850586 24.74951172 C-82.43985792 24.75111022 -76.1615224 24.73482734 -69.88297433 24.69880509 C-66.56629928 24.68048929 -63.25025448 24.67365428 -59.93352699 24.68328094 C-42.4245385 24.72899212 -27.42819079 24.74976519 -13.05078125 13.55078125 C-11 12 -11 12 -8.7890625 10.90234375 C-6.39253864 9.69361665 -6.13938255 8.4128101 -5 6 C-3.40356422 3.93223556 -1.70861441 1.97839563 0 0 Z " fill="#EECEB3" transform="translate(432,351)"/>
<path d="M0 0 C1.02909988 -0.0159874 2.05819977 -0.03197479 3.1184845 -0.04844666 C4.77626167 -0.05649071 4.77626167 -0.05649071 6.4675293 -0.06469727 C8.19787666 -0.07823997 8.19787666 -0.07823997 9.96318054 -0.09205627 C12.40837006 -0.10655962 14.85359839 -0.11544571 17.29882812 -0.11914062 C20.99052185 -0.13093979 24.68048987 -0.18004507 28.37182617 -0.23071289 C51.14064562 -0.38704065 69.82030236 3.97275516 86.72924805 20.30639648 C100.30191639 35.92339531 105.97636735 52.83087874 104.72924805 73.30639648 C104.65834961 74.59288086 104.58745117 75.87936523 104.5144043 77.20483398 C102.99887919 93.99480877 97.0173715 116.01827303 84.72924805 128.30639648 C81.90893555 128.50170898 81.90893555 128.50170898 78.60424805 128.43139648 C77.50854492 128.41334961 76.4128418 128.39530273 75.28393555 128.37670898 C74.44088867 128.35350586 73.5978418 128.33030273 72.72924805 128.30639648 C71.50322108 111.90828574 71.50322108 111.90828574 74.3347168 108.20874023 C76.41968158 107.05477286 78.52256676 106.19889467 80.72924805 105.30639648 C85.57890165 101.14267404 87.31941851 96.15879413 87.9831543 89.91967773 C88.27133449 83.84930138 87.39709929 79.22743024 83.72924805 74.30639648 C80.72105124 71.18107726 77.65071868 68.09469213 73.59643555 66.43139648 C70.92586675 64.82235085 70.71652281 63.12955496 69.85424805 60.18139648 C66.83325026 51.21207748 61.31149575 44.90606045 53.72924805 39.30639648 C52.63612305 38.83202148 51.54299805 38.35764648 50.41674805 37.86889648 C46.93045028 35.84197918 46.73306697 34.13155451 45.54956055 30.43139648 C43.50197342 25.12717079 39.67543561 21.48628665 34.66674805 18.93139648 C28.86844188 16.60810258 22.91304827 16.56676702 16.72924805 16.30639648 C16.72924805 21.58639648 16.72924805 26.86639648 16.72924805 32.30639648 C19.04956055 32.21358398 19.04956055 32.21358398 21.41674805 32.11889648 C25.69165048 32.11284138 28.34815744 32.47064307 31.72924805 35.30639648 C33.13382542 38.11555122 32.97819962 40.19450183 32.72924805 43.30639648 C30.949404 46.44231219 30.20616598 47.14742384 26.72924805 48.30639648 C22.24580485 48.55823629 17.76008417 48.57726772 13.27050781 48.6015625 C11.79352208 48.61304963 10.3165768 48.63344976 8.83984375 48.66308594 C-0.84294868 48.85728424 -8.17982606 48.90336713 -15.7668457 42.05249023 C-16.40750977 41.2906543 -17.04817383 40.52881836 -17.70825195 39.74389648 C-18.36696289 38.97948242 -19.02567383 38.21506836 -19.7043457 37.42749023 C-23.94968638 31.67881196 -23.22398506 22.18632673 -22.27075195 15.30639648 C-20.84780995 11.87459519 -19.04054141 9.74179223 -16.27075195 7.30639648 C-15.75641602 6.80881836 -15.24208008 6.31124023 -14.7121582 5.79858398 C-10.21216747 1.70768332 -6.0180838 0.07115039 0 0 Z " fill="#F9D56E" transform="translate(367.270751953125,71.693603515625)"/>
<path d="M0 0 C1.73828125 1.609375 1.73828125 1.609375 3.3125 3.75 C6.75786282 7.90210391 9.6741798 10.68331545 15 12 C19.68837203 12.3034545 24.30997791 12.23713595 29 12 C29.02578125 13.16015625 29.0515625 14.3203125 29.078125 15.515625 C29.51861116 29.24730226 31.29591716 42.34032574 41.53125 52.5234375 C42.22734375 53.16152344 42.22734375 53.16152344 42.9375 53.8125 C43.618125 54.534375 44.29875 55.25625 45 56 C44.87165745 58.31016597 44.63394255 59.36605745 43 61 C38.33154772 61.14426614 33.67134047 61.04208415 29 61 C29 65.95 29 70.9 29 76 C24.6906014 75.2817669 21.83675965 74.69268808 18 73 C16.49403892 74.45217676 14.99537896 75.91192861 13.5 77.375 C12.6646875 78.18710938 11.829375 78.99921875 10.96875 79.8359375 C8.77568714 81.7589659 8.77568714 81.7589659 9 84 C15.10438045 88.77960001 21.37673267 91.05925637 29 92 C28.8082033 96.4017342 28.56992191 99.99167662 26.375 103.875 C22.43253163 107.4024717 18.65799314 108.79638681 13.4375 109.4375 C5.81368519 108.4671963 1.07012486 102.30175493 -4 97 C-7.21524305 98.40844718 -9.32183868 100.10344786 -11.75 102.625 C-12.36359375 103.25664062 -12.9771875 103.88828125 -13.609375 104.5390625 C-14.06828125 105.02117187 -14.5271875 105.50328125 -15 106 C-11.74572185 113.21944229 -5.08305434 118.6660796 2 122 C5.64680562 123.20113042 9.25746907 124.1111489 13 125 C13 129.29 13 133.58 13 138 C12.01902344 137.54109375 11.03804687 137.0821875 10.02734375 136.609375 C1.73903905 132.81423112 -6.31541632 129.85344551 -15.18359375 127.7265625 C-18 127 -18 127 -19 126 C-19.09504251 123.47458998 -19.12557158 120.97662874 -19.11352539 118.45092773 C-19.11367142 117.66074249 -19.11381744 116.87055725 -19.1139679 116.056427 C-19.11326857 113.43212178 -19.10547527 110.80788664 -19.09765625 108.18359375 C-19.09579214 106.36898335 -19.0943682 104.55437244 -19.09336853 102.73976135 C-19.08954279 97.9540977 -19.07971204 93.1684642 -19.06866455 88.3828125 C-19.05845163 83.50325936 -19.05387117 78.62370136 -19.04882812 73.74414062 C-19.03808982 64.16274714 -19.02101273 54.58137607 -19 45 C-19.75708252 45.02465332 -20.51416504 45.04930664 -21.29418945 45.07470703 C-22.28636475 45.09388184 -23.27854004 45.11305664 -24.30078125 45.1328125 C-25.28473877 45.15746582 -26.26869629 45.18211914 -27.2824707 45.20751953 C-30 45 -30 45 -33.1875 42.875 C-35.34663968 39.45015775 -35.82630866 37.96628159 -35 34 C-33.1875 31.125 -33.1875 31.125 -30 29 C-26.2947699 28.58888599 -22.71118727 28.70752465 -19 29 C-19.02356567 28.13048706 -19.02356567 28.13048706 -19.04760742 27.2434082 C-19.11022791 24.59987261 -19.14907518 21.95649345 -19.1875 19.3125 C-19.21263672 18.40048828 -19.23777344 17.48847656 -19.26367188 16.54882812 C-19.35742276 7.95499684 -19.35742276 7.95499684 -16 4 C-10.97333329 0.94028983 -5.89122126 -0.58551893 0 0 Z " fill="#EDCEB2" transform="translate(107,123)"/>
<path d="M0 0 C4.2215914 1.32104221 5.93842126 2.7528092 8.25 6.5 C8.75015625 7.2940625 9.2503125 8.088125 9.765625 8.90625 C12.11625628 12.89339673 12.10499054 15.45104078 12.0625 20.125 C12.05347656 21.40632813 12.04445313 22.68765625 12.03515625 24.0078125 C12.02355469 24.99523437 12.01195312 25.98265625 12 27 C12.66386719 26.96519531 13.32773437 26.93039063 14.01171875 26.89453125 C22.96988245 26.61990141 22.96988245 26.61990141 27 30 C28.40457737 32.80915474 28.24895157 34.88810534 28 38 C26.22015595 41.1359157 25.47691793 41.84102736 22 43 C20.27204648 43.06802967 18.54164635 43.08495645 16.8125 43.0625 C15.91144531 43.05347656 15.01039063 43.04445312 14.08203125 43.03515625 C13.39496094 43.02355469 12.70789063 43.01195312 12 43 C12.02664734 44.04268036 12.05329468 45.08536072 12.08074951 46.15963745 C12.32466508 56.01576709 12.5041984 65.87128003 12.62174606 75.72974968 C12.6842157 80.79768104 12.76884145 85.86316491 12.90527344 90.9296875 C13.03626827 95.82528583 13.1075301 100.71854068 13.13852692 105.61575699 C13.16059525 107.47789527 13.20369618 109.33991391 13.26876068 111.20104599 C13.78297989 126.52835162 13.78297989 126.52835162 9.37966919 131.34474182 C6.50093463 133.96545007 3.34772256 136.01500719 0 138 C-0.68214569 138.46684708 -1.36429138 138.93369415 -2.06710815 139.41468811 C-3.53773674 140.41458411 -5.07827028 141.30990807 -6.625 142.1875 C-7.60726562 142.75855469 -8.58953125 143.32960938 -9.6015625 143.91796875 C-10.39304687 144.27503906 -11.18453125 144.63210938 -12 145 C-12.66 144.67 -13.32 144.34 -14 144 C-13.60167969 143.5153125 -13.20335937 143.030625 -12.79296875 142.53125 C-7.65087946 136.0254436 -4.98404015 130.91645677 -4.9375 122.5625 C-4.71672736 118.77782613 -4.30060512 117.34840452 -1.7890625 114.4375 C-0.01988437 112.89643939 1.79315212 111.40383254 3.65234375 109.97265625 C6.34209127 107.97761708 6.34209127 107.97761708 8 104 C5.03 101.03 2.06 98.06 -1 95 C-5.35495472 97.17747736 -7.64922688 99.60671854 -10.90234375 103.125 C-14.81490639 106.62226269 -18.78896682 107.4581688 -24.0078125 107.3203125 C-28.15211697 106.65397335 -30.84065279 104.07939223 -33.8125 101.3125 C-35.65347937 97.72743492 -35.75334693 93.9804703 -36 90 C-35.443125 89.90203125 -34.88625 89.8040625 -34.3125 89.703125 C-27.3945933 88.34758923 -21.85173183 85.90115456 -16 82 C-17.40844718 78.78475695 -19.10344786 76.67816132 -21.625 74.25 C-22.25664062 73.63640625 -22.88828125 73.0228125 -23.5390625 72.390625 C-24.02117187 71.93171875 -24.50328125 71.4728125 -25 71 C-26.051875 71.4640625 -26.051875 71.4640625 -27.125 71.9375 C-30 73 -30 73 -36 74 C-36 69.05 -36 64.1 -36 59 C-39.403125 59.061875 -39.403125 59.061875 -42.875 59.125 C-46.7421875 59.1953125 -46.7421875 59.1953125 -50 59 C-50.66 58.34 -51.32 57.68 -52 57 C-51.72030926 53.27079017 -49.82056688 51.55123931 -47.25 49 C-40.98114462 42.21342945 -37.17484295 33.15418136 -36.68359375 23.890625 C-36.64169922 23.13652344 -36.59980469 22.38242188 -36.55664062 21.60546875 C-36.51732422 20.82816406 -36.47800781 20.05085938 -36.4375 19.25 C-36.39431641 18.45722656 -36.35113281 17.66445312 -36.30664062 16.84765625 C-36.20097009 14.89862185 -36.10002034 12.94933252 -36 11 C-35.38068604 10.99589111 -34.76137207 10.99178223 -34.12329102 10.98754883 C-31.26877834 10.95429185 -28.41631071 10.88361733 -25.5625 10.8125 C-24.58861328 10.80669922 -23.61472656 10.80089844 -22.61132812 10.79492188 C-14.20847911 10.54199331 -7.97521337 8.11604748 -1.9375 2.1875 C-0.9784375 1.1046875 -0.9784375 1.1046875 0 0 Z " fill="#EDCEB2" transform="translate(412,125)"/>
<path d="M0 0 C8.43295426 0.56028146 16.42541954 8.7582927 22.02734375 14.61328125 C35.88186778 31.37588359 42.49703569 50.29042788 41 72 C40.49715192 76.3709102 39.84110147 80.68184511 39 85 C34.84513186 84.41002669 31.92624218 83.01289191 28.33203125 80.875 C27.27435547 80.25109375 26.21667969 79.6271875 25.12695312 78.984375 C24.03318359 78.32953125 22.93941406 77.6746875 21.8125 77 C19.63168352 75.70804108 17.4507024 74.41636004 15.26953125 73.125 C14.30635986 72.55007813 13.34318848 71.97515625 12.35083008 71.3828125 C10.92558651 70.54445135 9.47896414 69.73948207 8 69 C8.06045052 66.14371294 8.1476439 63.29234509 8.25 60.4375 C8.26417969 59.63763672 8.27835937 58.83777344 8.29296875 58.01367188 C8.52999425 52.20654722 9.89527657 48.88962517 13 44 C12.32315277 40.27734026 8.94263897 37.86090585 6.2421875 35.3671875 C5 34 5 34 5 32 C1.96901095 33.05854498 1.04389455 33.92855571 -0.66796875 36.71484375 C-1.16941406 37.77832031 -1.67085938 38.84179688 -2.1875 39.9375 C-2.95126953 41.52884766 -2.95126953 41.52884766 -3.73046875 43.15234375 C-5.73665017 47.65236299 -6.10834131 51.03509757 -6.25 55.9375 C-6.81797176 66.64227974 -10.32322393 75.28546153 -17.8203125 83.09375 C-23.74582336 88.27591721 -31.05466145 92 -39 92 C-38.99097656 90.70964844 -38.98195313 89.41929687 -38.97265625 88.08984375 C-38.72903139 78.99256389 -38.72903139 78.99256389 -41.4140625 70.56640625 C-43.16693591 68.97439082 -43.16693591 68.97439082 -45.0859375 67.5859375 C-51.12754355 62.58003534 -54.15255132 53.61336959 -55 46 C-55.40211981 41.06091969 -54.99676591 36.56387483 -53.984375 31.71484375 C-53.80100586 30.82788818 -53.61763672 29.94093262 -53.42871094 29.02709961 C-53.28723633 28.35815674 -53.14576172 27.68921387 -53 27 C-52.44763672 26.82984375 -51.89527344 26.6596875 -51.32617188 26.484375 C-32.96561929 20.76476624 -13.92939854 13.92939854 0 0 Z " fill="#FC806C" transform="translate(431,267)"/>
<path d="M0 0 C11.73789166 10.28652947 20.63422482 23.36861968 23 39 C23.22135982 43.0260883 23.1911156 47.03199149 23.125 51.0625 C23.11597656 52.11888672 23.10695313 53.17527344 23.09765625 54.26367188 C23.0743167 56.84269253 23.04157775 59.4212199 23 62 C21.94760408 60.42140613 20.90663606 58.83028028 19.9921875 57.16796875 C19.62351562 56.51441406 19.25484375 55.86085938 18.875 55.1875 C18.52179688 54.54167969 18.16859375 53.89585938 17.8046875 53.23046875 C11.65906434 45.6349042 1.77956966 41.08856019 -6.5 36.125 C-7.81273671 35.3337259 -9.12523862 34.54206215 -10.4375 33.75 C-13.62230742 31.82883634 -16.81025379 29.91295531 -20 28 C-20.61875 28.78375 -21.2375 29.5675 -21.875 30.375 C-25.55977624 34.92678241 -25.55977624 34.92678241 -28.22387695 35.36987305 C-50.17945098 36.49644626 -50.17945098 36.49644626 -57.6875 30.4375 C-58.61949219 29.59058594 -59.55148438 28.74367187 -60.51171875 27.87109375 C-62.80213121 25.716024 -62.80213121 25.716024 -65.38720703 26.203125 C-68.19336345 27.05897386 -69.95398665 28.12220127 -72.29296875 29.87890625 C-73.08356689 30.46655762 -73.87416504 31.05420898 -74.6887207 31.65966797 C-75.51331787 32.28760254 -76.33791504 32.91553711 -77.1875 33.5625 C-78.03594482 34.20074707 -78.88438965 34.83899414 -79.75854492 35.49658203 C-81.43193136 36.75936382 -83.1020457 38.02649559 -84.76855469 39.29833984 C-86.58941456 40.68689491 -88.41978185 42.06016409 -90.2578125 43.42578125 C-94.96806415 47.01968885 -98.60525777 50.61681032 -101.94140625 55.53125 C-102.29074219 56.0159375 -102.64007813 56.500625 -103 57 C-103.33 57 -103.66 57 -104 57 C-104.77777014 35.13601704 -104.77777014 35.13601704 -100 25 C-99.57589844 24.07058594 -99.15179688 23.14117187 -98.71484375 22.18359375 C-95.18595718 15.11599085 -90.55427047 9.57284663 -85 4 C-84.31164062 3.2884375 -83.62328125 2.576875 -82.9140625 1.84375 C-60.47726291 -19.842376 -23.71430665 -18.96296078 0 0 Z " fill="#646C76" transform="translate(305,38)"/>
<path d="M0 0 C0.66 0 1.32 0 2 0 C2 0.66 2 1.32 2 2 C2.598125 2.28875 3.19625 2.5775 3.8125 2.875 C6 4 6 4 9 6 C9.36076355 8.86001587 9.36076355 8.86001587 9.34057617 12.56103516 C9.34123329 13.57096779 9.34123329 13.57096779 9.34190369 14.6013031 C9.33981056 16.83084938 9.3164562 19.05964731 9.29296875 21.2890625 C9.28737463 22.83319691 9.28310366 24.37733664 9.28010559 25.92147827 C9.26864226 29.98883727 9.23916262 34.05587571 9.20599365 38.12310791 C9.16993399 43.00139745 9.15613867 47.87979408 9.13863373 52.75817871 C9.10952578 60.1723422 9.05204975 67.5858021 9 75 C-6.84 75 -22.68 75 -39 75 C-39 53.88 -39 32.76 -39 11 C-31.74 10.67 -24.48 10.34 -17 10 C-9.66801849 7.66414748 -4.93719948 5.76006606 0 0 Z " fill="#959EA9" transform="translate(255,413)"/>
<path d="M0 0 C15.84 0 31.68 0 48 0 C48 21.12 48 42.24 48 64 C32.16 64 16.32 64 0 64 C0 42.88 0 21.76 0 0 Z " fill="#969FAA" transform="translate(280,424)"/>
<path d="M0 0 C2.26148833 -0.05067656 4.52330142 -0.08701603 6.78515625 -0.1171875 C8.04465088 -0.13894043 9.30414551 -0.16069336 10.60180664 -0.18310547 C14.14371992 0.00774409 16.25075538 0.5750582 18.70703125 3.265625 C19.13371094 3.83796875 19.56039063 4.4103125 20 5 C20.87205078 6.07507813 20.87205078 6.07507813 21.76171875 7.171875 C26.20843814 13.02625608 28.9128682 18.97556718 31 26 C31.20238281 26.63164062 31.40476562 27.26328125 31.61328125 27.9140625 C32 30 32 30 31.89453125 33.03125 C31.76284551 38.59967555 31.80820194 43.065727 35.62890625 47.33984375 C37.2039501 48.91610085 38.81777473 50.38908842 40.51879883 51.828125 C45.07755887 55.69405378 47.42040572 59.53809904 48.43359375 65.58984375 C48.44322109 71.37587542 47.65065314 76.32374531 44 81 C43.01 81.33 42.02 81.66 41 82 C40.5153125 81.03320312 40.030625 80.06640625 39.53125 79.0703125 C35.39417303 70.97539715 30.99298826 63.89257001 25 57 C24.54496094 56.401875 24.08992188 55.80375 23.62109375 55.1875 C18.37392904 48.421007 10.43633802 42.28388239 2.83544922 38.37084961 C0 36 0 36 -0.68115234 32.24121094 C-0.68020715 30.73859736 -0.64657124 29.23576502 -0.5859375 27.734375 C-0.57744781 26.94097717 -0.56895813 26.14757935 -0.56021118 25.33013916 C-0.52668692 22.8020302 -0.4514198 20.27714037 -0.375 17.75 C-0.34489867 16.03390032 -0.31752314 14.31775051 -0.29296875 12.6015625 C-0.22690014 8.39980591 -0.1233937 4.20044819 0 0 Z " fill="#F9D46E" transform="translate(440,216)"/>
<path d="M0 0 C3.17625 -0.061875 6.3525 -0.12375 9.625 -0.1875 C11.1092749 -0.22846802 11.1092749 -0.22846802 12.62353516 -0.27026367 C18.62931488 -0.32671582 23.06376757 0.25905144 27.64453125 4.53515625 C31.99761012 10.227644 32.789538 13.87222635 32 21 C29.78757561 25.42484878 27.05200384 28.19476657 23 31 C20.11734851 31.96088383 18.32337729 32.11670941 15.33203125 32.09765625 C14.52741455 32.09515869 13.72279785 32.09266113 12.89379883 32.09008789 C11.36855591 32.07643188 11.36855591 32.07643188 9.8125 32.0625 C4.9553125 32.0315625 4.9553125 32.0315625 0 32 C0 21.44 0 10.88 0 0 Z " fill="#EDCDB2" transform="translate(216,376)"/>
<path d="M0 0 C0.30292969 0.63808594 0.60585938 1.27617187 0.91796875 1.93359375 C1.33691406 2.75988281 1.75585938 3.58617187 2.1875 4.4375 C2.79658203 5.67306641 2.79658203 5.67306641 3.41796875 6.93359375 C4.86633187 9.24690712 4.86633187 9.24690712 7.67578125 9.78515625 C8.44277344 9.85605469 9.20976562 9.92695313 10 10 C10.81360995 8.70903219 11.62585046 7.41720125 12.4375 6.125 C12.88996094 5.40570313 13.34242188 4.68640625 13.80859375 3.9453125 C15.02461501 2.0222453 15.02461501 2.0222453 16 0 C19.85025879 0.60355408 22.86101159 1.76772603 26.3125 3.5625 C27.19550781 4.01753906 28.07851563 4.47257813 28.98828125 4.94140625 C29.65214844 5.29074219 30.31601562 5.64007813 31 6 C29.08410684 13.47198331 24.62187282 20.86132949 18 25 C12.05128415 27.64387371 6.11819569 27.85301321 -0.0625 26 C-7.72384283 22.79397638 -11.85565335 15.29488422 -15 8 C-15 7.34 -15 6.68 -15 6 C-13.06629769 4.99267601 -11.12789694 3.99436712 -9.1875 3 C-8.10855469 2.443125 -7.02960938 1.88625 -5.91796875 1.3125 C-3 0 -3 0 0 0 Z " fill="#050403" transform="translate(256,141)"/>
<path d="M0 0 C19.62713121 3.99195889 36.73775946 15.45316967 48 32 C49.16407922 33.98368602 50.10622742 35.87729013 51 38 C31.15764865 32.03530526 13.7578496 15.8877213 0 1 C0 0.67 0 0.34 0 0 Z " fill="#9ACD64" transform="translate(90,266)"/>
<path d="M0 0 C0.66 0 1.32 0 2 0 C2.71886069 4.570501 3.4306897 9.14202346 4.13623047 13.71459961 C4.37684747 15.26762893 4.61933074 16.82037036 4.86376953 18.37280273 C5.21626636 20.61367541 5.56187608 22.85552265 5.90625 25.09765625 C6.07030334 26.12621483 6.07030334 26.12621483 6.2376709 27.17555237 C7.22167062 33.66475332 8.03549163 39.1923261 4.5 44.9375 C4.0359375 45.70964844 3.571875 46.48179687 3.09375 47.27734375 C2.7328125 47.84582031 2.371875 48.41429687 2 49 C1.34 49 0.68 49 0 49 C-4.68923353 42.86667725 -5.51822416 38.10593499 -4.6640625 30.52734375 C-4.44790844 29.01747557 -4.22571643 27.50846829 -4 26 C-3.77135254 24.42822998 -3.77135254 24.42822998 -3.53808594 22.82470703 C-2.42051749 15.20636804 -1.23358001 7.60036164 0 0 Z " fill="#FCE7A5" transform="translate(263,232)"/>
<path d="M0 0 C8.58 0 17.16 0 26 0 C24.63397553 6.83012235 21.59072369 11.78544975 17 17 C14.71912051 18.41325082 13.73193095 18.66231575 11.09765625 18.26953125 C6.00137711 15.18519099 2.70088423 9.17669477 0 4 C0 2.68 0 1.36 0 0 Z " fill="#ECCCB1" transform="translate(251,199)"/>
<path d="M0 0 C3.85715523 1.92857762 5.17848157 3.04315499 7.75 6.3125 C8.36359375 7.07175781 8.9771875 7.83101563 9.609375 8.61328125 C11.21017795 11.36072677 11.11522734 12.88335934 11 16 C7.04081323 15.91942739 3.08320163 15.80656055 -0.875 15.6875 C-2.56689453 15.65366211 -2.56689453 15.65366211 -4.29296875 15.61914062 C-5.90751953 15.5659668 -5.90751953 15.5659668 -7.5546875 15.51171875 C-8.54968262 15.48553467 -9.54467773 15.45935059 -10.56982422 15.43237305 C-11.77276123 15.21834839 -11.77276123 15.21834839 -13 15 C-13.66 14.01 -14.32 13.02 -15 12 C-10.05 8.04 -5.1 4.08 0 0 Z " fill="#E8C9AE" transform="translate(231,345)"/>
<path d="M0 0 C0 5.28 0 10.56 0 16 C-10.13528336 16.48263254 -10.13528336 16.48263254 -13.6875 14.5 C-15.56591052 10.92207519 -15.75312309 7.95187168 -15 4 C-11.93892651 -1.83061618 -5.73879813 -0.2732761 0 0 Z " fill="#ECCDB1" transform="translate(200,120)"/>
<path d="M0 0 C8.08662559 -0.72417543 8.08662559 -0.72417543 10.640625 1.30078125 C11.83643608 2.80995247 12.92441328 4.40291668 14 6 C14.66 6.33 15.32 6.66 16 7 C15.76774367 10.48384489 15.62008825 12.3999146 13.0625 14.875 C8.59970927 16.51439251 4.74171393 16.18966856 0 16 C0 10.72 0 5.44 0 0 Z " fill="#ECCCB1" transform="translate(328,120)"/>
<path d="M0 0 C4.0743356 0.84881992 5.54405875 2.30225596 8 5.625 C8.625 8.625 8.625 8.625 8 11.625 C5.54405875 14.94774404 4.0743356 16.40118008 0 17.25 C-4.0743356 16.40118008 -5.54405875 14.94774404 -8 11.625 C-8.625 8.625 -8.625 8.625 -8 5.625 C-5.54405875 2.30225596 -4.0743356 0.84881992 0 0 Z " fill="#0B0908" transform="translate(400,151.375)"/>
<path d="M0 0 C4.0743356 0.84881992 5.54405875 2.30225596 8 5.625 C8.625 8.625 8.625 8.625 8 11.625 C5.54405875 14.94774404 4.0743356 16.40118008 0 17.25 C-4.0743356 16.40118008 -5.54405875 14.94774404 -8 11.625 C-8.625 8.625 -8.625 8.625 -8 5.625 C-5.54405875 2.30225596 -4.0743356 0.84881992 0 0 Z " fill="#0B0908" transform="translate(112,151.375)"/>
<path d="M0 0 C4.0743356 0.84881992 5.54405875 2.30225596 8 5.625 C8.625 8.625 8.625 8.625 8 11.625 C5.54405875 14.94774404 4.0743356 16.40118008 0 17.25 C-4.0743356 16.40118008 -5.54405875 14.94774404 -8 11.625 C-8.625 8.625 -8.625 8.625 -8 5.625 C-5.54405875 2.30225596 -4.0743356 0.84881992 0 0 Z " fill="#0B0908" transform="translate(288,103.375)"/>
<path d="M0 0 C4.0743356 0.84881992 5.54405875 2.30225596 8 5.625 C8.625 8.625 8.625 8.625 8 11.625 C5.54405875 14.94774404 4.0743356 16.40118008 0 17.25 C-4.0743356 16.40118008 -5.54405875 14.94774404 -8 11.625 C-8.625 8.625 -8.625 8.625 -8 5.625 C-5.54405875 2.30225596 -4.0743356 0.84881992 0 0 Z " fill="#0B0908" transform="translate(240,103.375)"/>
<path d="M0 0 C0.639375 0.804375 1.27875 1.60875 1.9375 2.4375 C3.40603502 4.2750504 3.40603502 4.2750504 5 6 C5.12514928 7.97619447 5.1757276 9.95738173 5.1875 11.9375 C5.20167969 13.01902344 5.21585938 14.10054687 5.23046875 15.21484375 C5 18 5 18 3 20 C-0.44419134 6.3667426 -0.44419134 6.3667426 0 0 Z " fill="#E97764" transform="translate(242,218)"/>
<path d="M0 0 C1.2825732 2.5651464 0.83262969 3.57895596 0.22265625 6.3515625 C-0.05288086 7.62773437 -0.05288086 7.62773437 -0.33398438 8.9296875 C-0.53314453 9.81914062 -0.73230469 10.70859375 -0.9375 11.625 C-1.13279297 12.5221875 -1.32808594 13.419375 -1.52929688 14.34375 C-2.01347896 16.56390201 -2.50394969 18.7824749 -3 21 C-3.33 21 -3.66 21 -4 21 C-5.34059004 15.80521361 -6.45285706 9.77871612 -3.8828125 4.86328125 C-2.6729002 3.1782904 -1.34444894 1.5797275 0 0 Z " fill="#EC7865" transform="translate(286,217)"/>
</svg>
