<?xml version="1.0" encoding="UTF-8"?>
<svg version="1.1" xmlns="http://www.w3.org/2000/svg" width="512" height="512">
<path d="M0 0 C0.96486328 1.22009766 0.96486328 1.22009766 1.94921875 2.46484375 C6.96843571 8.74650068 11.49281066 9.90118879 19.1875 10.8125 C21.03349998 11.00473426 22.87985765 11.19356566 24.7265625 11.37890625 C30.54497019 11.97499447 35.7366863 13.4719096 41.28515625 15.328125 C44.15577819 16.0385523 45.35349206 16.2791455 48 15 C50.00612751 12.91211526 50.00612751 12.91211526 51.9375 10.25 C69.1341136 -11.40707292 93.79546705 -30.86293347 121.8984375 -34.71875 C144.34997786 -36.75465794 165.76473573 -31.65867561 185.9375 -21.9375 C186.60612061 -21.62143799 187.27474121 -21.30537598 187.96362305 -20.97973633 C191.9649296 -18.94862418 194.27457975 -17.18302991 196 -13 C195.95875 -12.15050781 195.9175 -11.30101563 195.875 -10.42578125 C195.72808259 -7.7790715 195.72808259 -7.7790715 198.1875 -5.98046875 C199.115625 -5.38878906 200.04375 -4.79710938 201 -4.1875 C201.928125 -3.58292969 202.85625 -2.97835937 203.8125 -2.35546875 C204.534375 -1.90816406 205.25625 -1.46085937 206 -1 C206.99 -1.66 207.98 -2.32 209 -3 C215.75403018 -3.75594271 218.95014181 -2.33851768 224.25 1.6875 C231.54659664 6.87452394 238.74606466 11.2119097 247.75 12.5625 C251.36826741 11.93626141 253.88479865 10.63432177 257.0859375 8.91015625 C259.95671377 7.54507284 261.89168612 7.37833722 265 8 C277.26769696 18.67174265 281.10302935 41.4747374 283 57 C283.86357815 73.3674861 284.34574466 90.33026229 279 106 C278.6299585 107.08474609 278.6299585 107.08474609 278.25244141 108.19140625 C273.55155049 121.46586803 266.68162952 132.71326863 257 143 C258.06211735 145.77784537 259.20940191 148.41042774 260.5625 151.0625 C264.61874233 159.35134303 264.28903365 170.30422188 261.375 178.9375 C256.89980596 189.49958383 249.30665144 197.39291806 238.75 201.875 C233.40372945 203.96641672 233.40372945 203.96641672 230.83984375 204.1796875 C228.13047095 205.38768811 227.6571765 207.47232865 226.61791992 210.11669922 C226.35213135 210.82068848 226.08634277 211.52467773 225.8125 212.25 C217.34176237 232.96036317 202.187033 247.09802346 182.125 256.375 C174.00750868 259.68450949 164.81855687 262 156 262 C156.7960388 264.13410331 156.7960388 264.13410331 158.72387695 264.72680664 C159.47113037 264.95231201 160.21838379 265.17781738 160.98828125 265.41015625 C162.25079712 265.80448853 162.25079712 265.80448853 163.53881836 266.20678711 C164.4541333 266.48917236 165.36944824 266.77155762 166.3125 267.0625 C209.34823057 280.8989685 209.34823057 280.8989685 219 296 C223.37216861 305.01678393 224.37273389 314.74924107 225.5625 324.5625 C225.77333747 326.2267689 225.98452439 327.89099356 226.19604492 329.55517578 C228.24931691 345.99436016 229.71422611 362.48509108 231 379 C232.26714844 378.93039062 233.53429687 378.86078125 234.83984375 378.7890625 C251.36880373 378.14954917 251.36880373 378.14954917 257.46875 383.28125 C263.14539841 389.65299821 263.20298895 396.68760544 263.25 404.75 C263.2809375 406.05324219 263.2809375 406.05324219 263.3125 407.3828125 C263.35206289 413.970033 262.63866262 419.69049095 258.38671875 425.0234375 C252.32543847 429.84459377 247.79940946 431.09197417 240 431 C240.01571045 431.85754883 240.0314209 432.71509766 240.04760742 433.59863281 C240.09882423 436.78920247 240.13639312 439.97956215 240.16479492 443.17041016 C240.17985422 444.54971218 240.20030613 445.92896653 240.22631836 447.30810547 C240.26282415 449.29373403 240.27814853 451.27971618 240.29296875 453.265625 C240.3086792 454.45961914 240.32438965 455.65361328 240.34057617 456.88378906 C239.96939854 460.2799979 239.41361694 461.62627464 237 464 C233.82156757 465.05947748 231.57773942 465.12638937 228.23841953 465.12863445 C226.4252777 465.13347112 226.4252777 465.13347112 224.57550675 465.1384055 C223.2272227 465.13693424 221.87893875 465.13536651 220.53065491 465.13371277 C219.10373497 465.13558002 217.67681555 465.13788038 216.24989694 465.14057809 C212.31944708 465.146713 208.38901844 465.14656052 204.45856488 465.14538372 C200.22332435 465.14518014 195.98809073 465.15069434 191.75285339 465.15544128 C183.45203006 465.16375748 175.15121383 465.16649656 166.85038669 465.16705366 C160.10563943 465.16752833 153.36089451 465.16958061 146.61614799 465.17275429 C127.50734908 465.18156322 108.39855578 465.18617325 89.28975482 465.18542381 C88.25900145 465.18538386 87.22824808 465.1853439 86.16625977 465.18530273 C85.1342528 465.18526185 84.10224584 465.18522097 83.03896593 465.18517885 C66.30647879 465.18477223 49.57401413 465.19434515 32.84153349 465.2084411 C15.6742692 465.22278961 -1.4929841 465.22971214 -18.66025454 465.22884732 C-28.30384143 465.22851484 -37.94740475 465.23128428 -47.59098625 465.24202538 C-55.80042859 465.2511103 -64.00983667 465.25332219 -72.21928184 465.24651595 C-76.41009866 465.24324065 -80.60084966 465.24323028 -84.79166031 465.2518692 C-88.62524987 465.2596907 -92.45872093 465.25834769 -96.29230744 465.24958507 C-97.68191687 465.24804043 -99.07153496 465.24990219 -100.46113419 465.25544515 C-102.34493711 465.26246395 -104.22877596 465.25604057 -106.11257839 465.24888897 C-107.68445955 465.24921502 -107.68445955 465.24921502 -109.28809589 465.24954766 C-112.16795845 464.98454457 -113.71069467 464.77126885 -116 463 C-116.66 461.02 -117.32 459.04 -118 457 C-122.29 457 -126.58 457 -131 457 C-131.33 458.65 -131.66 460.3 -132 462 C-135.47497126 464.80779981 -138.22980012 465.38168628 -142.62890625 465.41992188 C-143.73355225 465.43583374 -144.83819824 465.45174561 -145.97631836 465.46813965 C-147.75147827 465.46844177 -147.75147827 465.46844177 -149.5625 465.46875 C-150.78654541 465.47636353 -152.01059082 465.48397705 -153.27172852 465.49182129 C-155.85723838 465.50261691 -158.44279183 465.50547761 -161.02832031 465.50097656 C-164.98576374 465.5000035 -168.94127356 465.54165191 -172.8984375 465.5859375 C-175.41145429 465.59114392 -177.92447782 465.5938327 -180.4375 465.59375 C-181.62093994 465.61014526 -182.80437988 465.62654053 -184.02368164 465.64343262 C-192.11266738 465.57529187 -192.11266738 465.57529187 -196.25463867 462.88989258 C-198.38744566 459.35848451 -198.57881725 457.27830306 -198.48828125 453.16796875 C-198.47216797 451.87568359 -198.45605469 450.58339844 -198.43945312 449.25195312 C-198.39768274 447.89711843 -198.35535809 446.54230072 -198.3125 445.1875 C-198.28740069 443.81319134 -198.26459036 442.43883884 -198.24414062 441.06445312 C-198.18526461 437.70852024 -198.1030642 434.3548191 -198 431 C-199.10915771 431.00845947 -200.21831543 431.01691895 -201.36108398 431.02563477 C-206.62236489 430.98857106 -210.78035553 429.98445035 -214.76953125 426.41796875 C-220.85364881 419.62329731 -221.36379579 413.54442565 -221.375 404.6875 C-221.39949219 403.68009766 -221.42398438 402.67269531 -221.44921875 401.63476562 C-221.47424407 395.23245364 -220.73966168 390.31230087 -217 385 C-213.69246832 381.8578449 -210.28580547 379.18922231 -205.640625 378.8046875 C-203.42708333 378.86979167 -201.21354167 378.93489583 -199 379 C-198.95536621 378.0207959 -198.91073242 377.0415918 -198.86474609 376.03271484 C-198.31922127 365.09553776 -197.24624973 354.26190248 -195.953125 343.38964844 C-195.62624493 340.63548925 -195.30868267 337.88036976 -194.9921875 335.125 C-193.62257384 323.36423826 -191.93966256 311.67995937 -190 300 C-190.61858887 299.52498047 -191.23717773 299.04996094 -191.87451172 298.56054688 C-193.44573146 297.35013613 -195.0102328 296.13098546 -196.5703125 294.90625 C-197.97017104 293.8079687 -199.37756788 292.71886721 -200.8046875 291.65625 C-215.44592803 280.16742968 -223.90422947 261.70205908 -228 244 C-228.17622485 243.24279191 -228.3524497 242.48558382 -228.5340147 241.70543003 C-229.05747428 238.66631425 -229.13516305 235.80921283 -229.14717102 232.72483826 C-229.15432632 231.45950256 -229.16148163 230.19416687 -229.16885376 228.89048767 C-229.17169384 227.49527002 -229.17440559 226.10005211 -229.17700195 224.70483398 C-229.18327186 223.22917523 -229.18991912 221.75351804 -229.19691467 220.27786255 C-229.21791832 215.43395071 -229.22832281 210.59003873 -229.23828125 205.74609375 C-229.24233206 204.07090807 -229.24644908 202.39572254 -229.25063133 200.72053719 C-229.26968546 192.83748537 -229.2839085 184.95444286 -229.2922433 177.07137245 C-229.30197644 168.01800034 -229.32819155 158.96487529 -229.36874419 149.91159004 C-229.39910734 142.88787826 -229.41373165 135.86423639 -229.41702431 128.84046036 C-229.41935453 124.65911221 -229.42804377 120.47802781 -229.45348549 116.29675102 C-229.64911412 82.3700064 -229.64911412 82.3700064 -225 66 C-224.78067621 65.21709532 -224.56135242 64.43419064 -224.33538246 63.62756157 C-218.08565626 41.66691376 -206.62166399 23.52990027 -191 7 C-190.20335937 6.12730469 -189.40671875 5.25460938 -188.5859375 4.35546875 C-168.16358172 -17.20831779 -140.04160593 -29.52965592 -111 -34 C-109.71416016 -34.19916016 -109.71416016 -34.19916016 -108.40234375 -34.40234375 C-69.44494721 -39.2803711 -28.9860872 -26.31455842 0 0 Z M44 243 C43.62875 244.175625 43.2575 245.35125 42.875 246.5625 C42.25849972 248.37790867 41.63218073 250.18999205 41 252 C40.60941406 253.12535156 40.21882813 254.25070312 39.81640625 255.41015625 C32.950577 273.90705034 21.28633308 288.81466936 5 300 C5.13051758 300.85078125 5.26103516 301.7015625 5.39550781 302.578125 C8.40690035 322.40796029 10.87650522 342.22560982 12.74316406 362.19726562 C12.82107178 363.02351944 12.89897949 363.84977325 12.97924805 364.70106506 C13.12421189 366.24783682 13.26617189 367.79489426 13.40454102 369.3422699 C13.71129868 372.64100007 14.04867963 375.81844213 15 379 C15.66 379 16.32 379 17 379 C17.06850662 378.38264481 17.13701324 377.76528961 17.20759583 377.12922668 C17.93402577 370.58888212 18.66511609 364.04906947 19.39868164 357.50952148 C19.67033778 355.08256641 19.94088192 352.65548656 20.21020508 350.22827148 C21.10725321 342.14815642 22.03486172 334.07227048 23 326 C23.1824527 324.45430328 23.1824527 324.45430328 23.36859131 322.87738037 C23.71215499 320.02391742 24.07656555 317.17401145 24.44921875 314.32421875 C24.5464473 313.50524612 24.64367584 312.6862735 24.74385071 311.84248352 C26.03636537 302.39962023 29.79145188 294.34690914 37 288 C40.64082223 285.52898546 44.44195903 283.52749036 48.375 281.5625 C49.4568457 281.00973389 50.53869141 280.45696777 51.65332031 279.88745117 C62.27805748 274.60189725 73.27509536 270.55400365 84.53417969 266.84692383 C87.06011723 265.97935182 89.52858872 265.01150938 92 264 C92 263.34 92 262.68 92 262 C91.13387085 261.83564453 91.13387085 261.83564453 90.25024414 261.66796875 C73.25720146 258.35586535 57.99083939 253.5230245 44 243 Z " fill="#020101" transform="translate(229,41)"/>
<path d="M0 0 C3.42109934 2.91221711 6.72889937 5.92098473 10 9 C10.59167969 9.52722656 11.18335938 10.05445313 11.79296875 10.59765625 C32.13580545 29.49088464 44.01289723 58.71390288 46 86 C46.15451489 90.6282084 46.17725994 95.25423033 46.19287109 99.88476562 C46.20079229 101.25603431 46.20906241 102.62730101 46.21765137 103.99856567 C46.24363771 108.46777419 46.2591551 112.93699098 46.2734375 117.40625 C46.27880675 118.95674136 46.28418426 120.50723269 46.28956985 122.057724 C46.31116397 128.51587366 46.32989384 134.97402106 46.34119225 141.43219757 C46.35739432 150.6261939 46.39052077 159.81976543 46.44759309 169.01360178 C46.48653464 175.51254446 46.50585327 182.01137468 46.51111281 188.51043081 C46.51473324 192.37537866 46.52639531 196.23987108 46.55921555 200.10469055 C46.78865725 228.50896566 43.49839411 251.03575271 22.9375 272.3125 C19.49116775 275.64372882 16.12510089 278.54080524 12 281 C8.09746792 280.66064938 4.84401446 278.33032996 1.5 276.4375 C-6.95580417 271.77637633 -15.81132152 268.31959842 -24.81030273 264.86206055 C-26.81240384 264.07385461 -28.78379744 263.23944916 -30.75390625 262.375 C-33.63105321 261.15628071 -36.43845875 260.17523789 -39.4375 259.3125 C-40.30246094 259.06113281 -41.16742188 258.80976563 -42.05859375 258.55078125 C-42.69925781 258.36902344 -43.33992187 258.18726563 -44 258 C-44 256.68 -44 255.36 -44 254 C-43.030625 253.85304688 -42.06125 253.70609375 -41.0625 253.5546875 C-21.27122295 250.33464847 -5.46735496 243.21877498 9 229 C9.62648437 228.38640625 10.25296875 227.7728125 10.8984375 227.140625 C31.2464456 205.59567525 31.67053572 177.41659805 31.44952393 149.65545654 C31.43330772 146.7484755 31.44353344 143.84181229 31.45364285 140.93482208 C31.46058864 138.11921042 31.45283075 135.30379192 31.44038582 132.48820496 C31.43372349 130.50732513 31.43799798 128.52641817 31.44248962 126.54553223 C31.42346336 124.7508551 31.42346336 124.7508551 31.40405273 122.91992188 C31.39594826 121.34494934 31.39594826 121.34494934 31.38768005 119.73815918 C30.94594922 116.61824283 30.15994706 115.2592524 28 113 C25.66417265 111.91127385 25.66417265 111.91127385 23 111.1875 C2.38943715 104.10092852 -10.48732397 86.05942775 -20.80859375 67.828125 C-21.87819436 65.85041754 -21.87819436 65.85041754 -24 65 C-27.20076663 64.24435252 -27.20076663 64.24435252 -31 65 C-33.27567423 66.72859295 -35.25098011 68.67747592 -37.31640625 70.65234375 C-47.48315946 79.54640296 -60.60955134 84.97549727 -73 90 C-74.20293701 90.49282471 -74.20293701 90.49282471 -75.43017578 90.99560547 C-92.14823984 97.74010503 -109.46895404 101.99538674 -127 106 C-127.98355469 106.22703613 -128.96710938 106.45407227 -129.98046875 106.68798828 C-142.79256748 109.58111914 -155.71773354 110.92221178 -168.78344727 112.05004883 C-170.06405029 112.1611499 -171.34465332 112.27225098 -172.6640625 112.38671875 C-173.81342285 112.48170654 -174.9627832 112.57669434 -176.14697266 112.67456055 C-179.06962202 112.90838899 -179.06962202 112.90838899 -182 114 C-183.08919976 117.26759928 -183.14669958 119.70519232 -183.17700195 123.14526367 C-183.18983719 124.41476364 -183.20267242 125.68426361 -183.21589661 126.99223328 C-183.22407325 128.38414108 -183.23151519 129.77605337 -183.23828125 131.16796875 C-183.24235678 131.87339624 -183.2464323 132.57882374 -183.25063133 133.30562782 C-183.27150421 137.05230031 -183.28579065 140.79893624 -183.29516602 144.5456543 C-183.30612654 148.37248527 -183.34039941 152.1987179 -183.38033772 156.02534008 C-183.40681878 159.00182481 -183.41488612 161.97817514 -183.41844749 164.95476723 C-183.42324691 166.36224642 -183.43466448 167.76972244 -183.45348549 169.17708397 C-183.72962093 191.22796668 -176.56678642 212.43273537 -161.3359375 228.625 C-160.56507813 229.40875 -159.79421875 230.1925 -159 231 C-158.31164062 231.70125 -157.62328125 232.4025 -156.9140625 233.125 C-147.96395736 241.64257218 -136.7791119 247.4550125 -125 251 C-124.29359375 251.21269531 -123.5871875 251.42539062 -122.859375 251.64453125 C-117.96256993 252.98440508 -113.04034618 253.55663622 -108 254 C-108 255.32 -108 256.64 -108 258 C-108.53141602 258.16491943 -109.06283203 258.32983887 -109.61035156 258.49975586 C-126.74391468 263.87279723 -143.58324149 270.00357365 -158.6875 279.8828125 C-161 281 -161 281 -163.0859375 280.83203125 C-175.91001998 275.25748111 -186.81800283 261.40212745 -191.90771484 248.7421875 C-195.1278469 240.01781428 -198.11846161 231.44843605 -198.13371277 222.0708313 C-198.13797775 220.88241135 -198.14224274 219.69399139 -198.14663696 218.46955872 C-198.14618378 217.17394516 -198.14573059 215.8783316 -198.14526367 214.54345703 C-198.14825768 213.15820729 -198.15166077 211.77295839 -198.15544128 210.38771057 C-198.1642672 206.62885044 -198.16661899 202.87001308 -198.16725707 199.11114359 C-198.1679691 196.75664822 -198.17010647 194.40215859 -198.17275429 192.04766464 C-198.18200754 183.81530136 -198.18608976 175.58295425 -198.18530273 167.35058594 C-198.184704 159.70894553 -198.19521556 152.06737618 -198.2110464 144.42575371 C-198.22418997 137.84372859 -198.22948369 131.26172646 -198.22884732 124.67968833 C-198.22859406 120.75848066 -198.23134873 116.83733598 -198.24202538 112.91614151 C-198.2518201 109.2175736 -198.25170906 105.51912734 -198.24450874 101.82055473 C-198.24299037 99.84227269 -198.25123216 97.86399036 -198.25994873 95.88572693 C-198.1454035 62.66169755 -185.86278656 33.92427308 -163 10 C-162.34 9.26523437 -161.68 8.53046875 -161 7.7734375 C-146.81342149 -7.43414476 -126.84293853 -17.50311042 -107 -23 C-105.86433594 -23.3196875 -104.72867188 -23.639375 -103.55859375 -23.96875 C-67.65521267 -32.33458637 -28.5445576 -23.09712294 0 0 Z " fill="#E2926A" transform="translate(213,48)"/>
<path d="M0 0 C1.56548584 0.00966797 1.56548584 0.00966797 3.16259766 0.01953125 C18.03516297 0.36314425 31.31800774 4.31787898 44.62841797 10.8203125 C48.96715351 12.92394186 52.7219347 14.2361304 57.625 14.5 C58.96775169 13.51268258 60.30232273 12.51405257 61.625 11.5 C63.9375 12 63.9375 12 66.625 13.5 C67.24375 13.82226562 67.8625 14.14453125 68.5 14.4765625 C70.52236381 15.67530234 72.07213712 16.72911339 73.625 18.5 C73.92321829 20.63507006 73.78349747 22.3232474 73.3828125 24.4375 C73.77946883 27.81547646 76.0966467 29.48610257 78.625 31.5 C84.3781176 35.54543239 90.529235 39.00316003 96.625 42.5 C97.51574219 43.02851562 98.40648437 43.55703125 99.32421875 44.1015625 C103.33112763 46.10142007 107.22893994 46.6686711 111.671875 46.72265625 C112.58598145 46.73401611 113.50008789 46.74537598 114.44189453 46.75708008 C118.50593895 46.7468334 122.56397567 46.65369233 126.625 46.5 C136.488602 67.41202105 140.03957888 95.34595584 132.625 117.5 C132.2846875 118.63050781 131.944375 119.76101562 131.59375 120.92578125 C127.32701489 134.115182 120.28012283 144.64524117 110.625 154.5 C110.04234375 155.23089844 109.4596875 155.96179688 108.859375 156.71484375 C105.57235151 159.34101462 102.7841566 159.22272289 98.625 159.5 C98.61098145 158.66021606 98.61098145 158.66021606 98.59667969 157.8034668 C98.54295493 155.26391854 98.45931813 152.72620889 98.375 150.1875 C98.36082031 149.30642578 98.34664062 148.42535156 98.33203125 147.51757812 C98.29980469 146.67001953 98.26757812 145.82246094 98.234375 144.94921875 C98.21342773 144.16893311 98.19248047 143.38864746 98.17089844 142.5847168 C97.77205505 140.36382985 97.77205505 140.36382985 95.92333984 138.74731445 C93.16239535 137.24894336 91.37522508 137.11726248 88.2421875 137.09375 C87.17097656 137.07417236 86.09976563 137.05459473 84.99609375 137.03442383 C83.26552734 137.01738403 83.26552734 137.01738403 81.5 137 C33.7517545 135.80693358 -18.62557333 124.6875496 -56.1328125 93.18359375 C-59.30853958 90.79903213 -61.51090744 90.99909911 -65.375 91.5 C-67.17152743 92.53908589 -67.17152743 92.53908589 -68.375 94.5 C-68.91870917 97.71314935 -68.91870917 97.71314935 -69.125 101.375 C-70.33138488 112.99156926 -75.53730932 121.79444071 -84.5546875 129.20703125 C-86.375 130.5 -86.375 130.5 -87.375 130.5 C-87.38958252 129.91734375 -87.40416504 129.3346875 -87.41918945 128.734375 C-87.76337145 116.35841732 -88.5498988 104.57319035 -91.375 92.5 C-91.65214844 91.26121094 -91.92929687 90.02242188 -92.21484375 88.74609375 C-95.89902798 73.5824342 -102.86515654 60.07623649 -110.375 46.5 C-103.85187585 47.17660064 -98.15888027 49.19652171 -92.046875 51.50390625 C-87.15512602 53.24264015 -83.50053176 54.15279829 -78.375 52.5 C-75.75715551 49.99195471 -75.75715551 49.99195471 -73.625 46.6875 C-72.77032509 45.49531437 -71.91080461 44.30659002 -71.046875 43.12109375 C-70.60923828 42.5163623 -70.17160156 41.91163086 -69.72070312 41.28857422 C-53.44482854 19.65630694 -28.08129026 -0.18410943 0 0 Z " fill="#9C6A6A" transform="translate(361.375,21.5)"/>
<path d="M0 0 C3.5268364 3.38452546 6.50481791 6.85952359 9.375 10.8125 C19.80275434 24.8478794 31.32243298 34.20018199 47 42 C47.07663849 49.5947415 47.1288449 57.1893817 47.16479492 64.78442383 C47.17979647 67.36323778 47.20020427 69.94202659 47.22631836 72.52075195 C47.26308314 76.24697103 47.27981339 79.97285013 47.29296875 83.69921875 C47.30845261 84.8351799 47.32393646 85.97114105 47.33988953 87.14152527 C47.3437472 105.87138215 40.7182597 124.0638545 27.75 137.75 C16.07223554 148.81522521 0.3447014 156.31209521 -15.87792969 156.29052734 C-16.62060089 156.29724457 -17.36327209 156.30396179 -18.12844849 156.31088257 C-20.5596606 156.32972601 -22.9905946 156.33377996 -25.421875 156.3359375 C-27.13047392 156.34237554 -28.83907177 156.34910463 -30.54766846 156.35610962 C-34.12164868 156.36804876 -37.69553251 156.37179398 -41.26953125 156.37060547 C-45.819649 156.37040262 -50.36913982 156.39768455 -54.91910934 156.43214989 C-58.44702926 156.45453339 -61.97480111 156.45843951 -65.50278473 156.45738602 C-67.1787049 156.45972556 -68.8546302 156.46845474 -70.53047943 156.48405075 C-80.42489139 156.56750511 -88.75802009 155.99614374 -98 152 C-98.90264587 151.61145844 -99.80529175 151.22291687 -100.73529053 150.82260132 C-107.28673212 147.88204098 -112.62009579 143.7062783 -118 139 C-118.94166016 138.20142578 -118.94166016 138.20142578 -119.90234375 137.38671875 C-128.73064058 129.31913684 -133.95116197 118.39540947 -137 107 C-137.34224609 105.88794189 -137.68449219 104.77588379 -138.03710938 103.63012695 C-139.48160287 97.79966736 -139.24738624 91.93980438 -139.1953125 85.96875 C-139.19106766 84.1212616 -139.19106766 84.1212616 -139.18673706 82.2364502 C-139.17559202 78.32419898 -139.15049749 74.41218138 -139.125 70.5 C-139.11382966 67.83854502 -139.10583833 65.17709223 -139.09765625 62.515625 C-139.07567124 56.01033771 -139.04225017 49.50518555 -139 43 C-138.45240021 42.94923309 -137.90480042 42.89846619 -137.34060669 42.84616089 C-122.54223455 41.4751701 -122.54223455 41.4751701 -107.875 39.125 C-106.96741943 38.95355469 -106.05983887 38.78210938 -105.12475586 38.60546875 C-91.27857529 35.95219243 -77.56362938 32.85477484 -64 29 C-62.77410156 28.65453125 -61.54820313 28.3090625 -60.28515625 27.953125 C-39.26218296 21.82108768 -17.65940564 13.12240419 0 0 Z " fill="#FDDBCC" transform="translate(183,131)"/>
<path d="M0 0 C1.22009766 0.70962891 1.22009766 0.70962891 2.46484375 1.43359375 C6.29433284 3.65009863 10.14546391 5.8274269 14 8 C14.98661621 8.56098389 14.98661621 8.56098389 15.99316406 9.13330078 C54.06132881 30.64153271 96.92358764 37.55480385 140 40 C140.09354323 47.43345199 140.16418545 54.86684138 140.20724869 62.30075169 C140.22793894 65.75434531 140.2559058 69.20753019 140.30175781 72.66088867 C140.61126371 96.61625798 139.53903515 116.58305064 122.25952148 134.88769531 C109.56890639 147.72725622 93.43263637 154.21904905 75.51172447 154.43088245 C73.10275302 154.44281889 70.69414634 154.43929888 68.28515625 154.43359375 C66.58084406 154.43816602 64.8765337 154.44347467 63.17222595 154.44947815 C59.61612413 154.45836581 56.06024741 154.45603589 52.50415039 154.44604492 C47.97762401 154.43455808 43.45187813 154.45478442 38.92545414 154.48396206 C35.41038694 154.50242654 31.8955033 154.50201139 28.3803997 154.49632454 C26.71286359 154.49617259 25.04531401 154.50211084 23.37782478 154.51461601 C5.67742746 154.62869508 -9.54409202 149.98759229 -23 138 C-23.641651 137.59881454 -24.283302 137.19762909 -24.94439697 136.7842865 C-28.18528395 134.35969069 -30.51997617 132.02625424 -31.47967148 127.97523308 C-32.29532983 121.63815249 -32.17172012 115.2445653 -32.1328125 108.8671875 C-32.14328975 106.78548065 -32.15584447 104.70378331 -32.17037964 102.62210083 C-32.19115182 98.26925826 -32.18211686 93.91772487 -32.15283203 89.56494141 C-32.11839492 83.99061265 -32.16552451 78.42039538 -32.23581123 72.84652519 C-32.27975329 68.55169445 -32.27688039 64.25784923 -32.26028061 59.96286392 C-32.25864228 57.90795494 -32.27235698 55.85297336 -32.30182266 53.79827499 C-32.49706719 37.72475424 -32.49706719 37.72475424 -28.79197693 33.4561615 C-26.21609668 31.89919961 -23.85130272 30.9283482 -21 30 C-10.47675051 22.18152146 -4.28085069 12.2575911 0 0 Z " fill="#FEDCCD" transform="translate(305,133)"/>
<path d="M0 0 C-0.515625 0.763125 -1.03125 1.52625 -1.5625 2.3125 C-1.92988281 2.869375 -2.29726562 3.42625 -2.67578125 4 C-3.6192119 5.42488641 -4.57648591 6.84064781 -5.54296875 8.25 C-27.72072666 41.54201188 -31.4778806 82.089941 -32.60766602 121.02270508 C-32.64432373 122.16634521 -32.68098145 123.30998535 -32.71875 124.48828125 C-32.74904297 125.52509033 -32.77933594 126.56189941 -32.81054688 127.63012695 C-33 130 -33 130 -34 131 C-37.5088534 131.80720308 -41.07438789 132.34522978 -44.625 132.9375 C-45.69065186 133.11643799 -46.75630371 133.29537598 -47.85424805 133.47973633 C-56.46889235 134.8696036 -65.07337894 135.76782973 -73.77392578 136.40405273 C-74.67997559 136.47052002 -75.58602539 136.5369873 -76.51953125 136.60546875 C-77.71219604 136.68510864 -77.71219604 136.68510864 -78.92895508 136.76635742 C-81.19418594 136.94923729 -81.19418594 136.94923729 -84 138 C-85.08919976 141.26759928 -85.14669958 143.70519232 -85.17700195 147.14526367 C-85.18983719 148.41476364 -85.20267242 149.68426361 -85.21589661 150.99223328 C-85.22407325 152.38414108 -85.23151519 153.77605337 -85.23828125 155.16796875 C-85.24235678 155.87339624 -85.2464323 156.57882374 -85.25063133 157.30562782 C-85.27150421 161.05230031 -85.28579065 164.79893624 -85.29516602 168.5456543 C-85.30612654 172.37248527 -85.34039941 176.1987179 -85.38033772 180.02534008 C-85.40681878 183.00182481 -85.41488612 185.97817514 -85.41844749 188.95476723 C-85.42324691 190.36224642 -85.43466448 191.76972244 -85.45348549 193.17708397 C-85.72962093 215.22796668 -78.56678642 236.43273537 -63.3359375 252.625 C-62.56507812 253.40875 -61.79421875 254.1925 -61 255 C-59.96746094 256.051875 -59.96746094 256.051875 -58.9140625 257.125 C-49.96395736 265.64257218 -38.7791119 271.4550125 -27 275 C-26.29359375 275.21269531 -25.5871875 275.42539062 -24.859375 275.64453125 C-19.96256993 276.98440508 -15.04034618 277.55663622 -10 278 C-10 279.32 -10 280.64 -10 282 C-10.53141602 282.16491943 -11.06283203 282.32983887 -11.61035156 282.49975586 C-28.74391468 287.87279723 -45.58324149 294.00357365 -60.6875 303.8828125 C-63 305 -63 305 -65.0859375 304.83203125 C-77.91001998 299.25748111 -88.81800283 285.40212745 -93.90771484 272.7421875 C-97.1278469 264.01781428 -100.11846161 255.44843605 -100.13371277 246.0708313 C-100.13797775 244.88241135 -100.14224274 243.69399139 -100.14663696 242.46955872 C-100.14618378 241.17394516 -100.14573059 239.8783316 -100.14526367 238.54345703 C-100.14825768 237.15820729 -100.15166077 235.77295839 -100.15544128 234.38771057 C-100.1642672 230.62885044 -100.16661899 226.87001308 -100.16725707 223.11114359 C-100.1679691 220.75664822 -100.17010647 218.40215859 -100.17275429 216.04766464 C-100.18200754 207.81530136 -100.18608976 199.58295425 -100.18530273 191.35058594 C-100.184704 183.70894553 -100.19521556 176.06737618 -100.2110464 168.42575371 C-100.22418997 161.84372859 -100.22948369 155.26172646 -100.22884732 148.67968833 C-100.22859406 144.75848066 -100.23134873 140.83733598 -100.24202538 136.91614151 C-100.2518201 133.2175736 -100.25170906 129.51912734 -100.24450874 125.82055473 C-100.24299037 123.84227269 -100.25123216 121.86399036 -100.25994873 119.88572693 C-100.1454035 86.66169755 -87.86278656 57.92427308 -65 34 C-64.34 33.26523437 -63.68 32.53046875 -63 31.7734375 C-48.75565068 16.50392667 -21.65714948 -0.60158749 0 0 Z " fill="#E07C46" transform="translate(115,24)"/>
<path d="M0 0 C0.71715239 0.00205532 1.43430479 0.00411064 2.17318907 0.00622824 C2.93182351 0.0044752 3.69045795 0.00272216 4.4720813 0.000916 C7.04677224 -0.00378329 9.62140768 -0.00126849 12.1961011 0.00114992 C14.04757461 -0.00071608 15.89904772 -0.00301593 17.7505202 -0.0057154 C22.86371073 -0.01186592 27.97688499 -0.01169601 33.09007838 -0.01052102 C38.59458388 -0.01031783 44.09908403 -0.01582791 49.60358706 -0.02057859 C60.39725579 -0.02890342 71.19091906 -0.03163426 81.98459073 -0.03219097 C90.75314453 -0.03266525 99.52169651 -0.03471558 108.29024974 -0.0378916 C129.07650862 -0.04526789 149.86276641 -0.05141588 170.64902678 -0.05089304 C171.31431458 -0.05087746 171.97960239 -0.05086188 172.66505043 -0.05084583 C176.0372943 -0.05076272 179.40953818 -0.05066368 182.78178205 -0.05056112 C183.45156723 -0.05054118 184.1213524 -0.05052123 184.8114341 -0.05050068 C186.16590375 -0.05046025 187.5203734 -0.05041845 188.87484305 -0.05037529 C209.9545973 -0.04976235 231.03433546 -0.05727128 252.11408511 -0.07094786 C275.77613239 -0.08629336 299.43817164 -0.09490233 323.10022494 -0.09398463 C335.63671213 -0.09365189 348.1731812 -0.09643273 360.70966426 -0.10716268 C371.38187595 -0.11623808 382.0540613 -0.11846745 392.72627517 -0.11165326 C398.17654049 -0.10837304 403.62675518 -0.10838507 409.07701579 -0.11700651 C414.05906701 -0.12480662 419.04102692 -0.12350737 424.02307574 -0.11472238 C425.83262571 -0.11317294 427.64218229 -0.11505706 429.45172449 -0.12058245 C431.89727178 -0.12755967 434.34249125 -0.12241506 436.78802672 -0.11402628 C437.50283795 -0.11899446 438.21764918 -0.12396264 438.95412135 -0.12908137 C443.8152323 -0.09343348 443.8152323 -0.09343348 446.04352847 2.13486269 C446.28644839 3.99838808 446.28644839 3.99838808 446.27399722 6.23251894 C446.27206362 7.03367128 446.27013003 7.83482363 446.26813784 8.66025332 C446.25589175 9.49749941 446.24364565 10.3347455 446.23102847 11.19736269 C446.23038394 12.03847597 446.2297394 12.87958925 446.22907534 13.74619082 C446.18376031 19.99463085 446.18376031 19.99463085 445.04352847 21.13486269 C442.65141422 21.23453143 440.2881345 21.26849427 437.89545718 21.26070383 C437.13483477 21.26215727 436.37421237 21.26361071 435.5905408 21.2651082 C433.00909535 21.26879477 430.42770798 21.26526957 427.84626284 21.26184633 C425.989952 21.26299711 424.13364139 21.26458433 422.27733126 21.26657358 C417.15080689 21.27077295 412.02430098 21.26867349 406.89777651 21.26558736 C401.37897637 21.26333594 395.86017953 21.26681158 390.34138003 21.26956728 C379.51997145 21.27402675 368.69856979 21.27304773 357.87716094 21.27015464 C349.08666893 21.2679013 340.29617888 21.26758778 331.50568667 21.26867846 C330.25719833 21.26883169 329.00870998 21.26898492 327.72238865 21.2691428 C325.18654592 21.26946251 322.65070318 21.26978672 320.11486045 21.27011539 C296.98494217 21.27288921 273.85502752 21.27000687 250.72511008 21.26477279 C229.59166419 21.26002687 208.45822431 21.26045149 187.32477847 21.26523378 C163.60377708 21.27058362 139.88277861 21.272696 116.16177645 21.26962152 C113.63497439 21.26930295 111.10817233 21.26898858 108.58137026 21.26867846 C107.33795634 21.26852418 106.09454242 21.26836991 104.81344929 21.26821095 C96.02791822 21.26734554 87.24238928 21.26880921 78.45685855 21.27115801 C67.75827317 21.27395524 57.05969513 21.27321939 46.3611106 21.26787727 C40.89680665 21.2652392 35.43251496 21.26423695 29.96821108 21.26752642 C24.97451545 21.27048724 19.98084355 21.26890018 14.9871501 21.26354887 C13.172235 21.26242376 11.35731794 21.26301791 9.54240409 21.26542465 C7.09210669 21.26842689 4.64189265 21.26538599 2.19159976 21.26070383 C1.47255717 21.263045 0.75351458 21.26538616 0.01268283 21.26779827 C-4.84232119 21.24901303 -4.84232119 21.24901303 -5.95647153 20.13486269 C-6.05507284 18.73137534 -6.0872609 17.32305792 -6.08928403 15.91611269 C-6.0905731 15.0666205 -6.09186216 14.21712832 -6.09319028 13.34189394 C-6.0893231 12.44857363 -6.08545591 11.55525332 -6.08147153 10.63486269 C-6.08533872 9.74154238 -6.08920591 8.84822207 -6.09319028 7.92783144 C-6.09190122 7.07833925 -6.09061216 6.22884707 -6.08928403 5.35361269 C-6.0881561 4.56921816 -6.08702817 3.78482363 -6.08586606 2.97665957 C-5.81568262 -0.86912134 -3.25354543 0.01391354 0 0 Z " fill="#9C6A6A" transform="translate(29.956471532583237,434.865137308836)"/>
<path d="M0 0 C134.31 0 268.62 0 407 0 C407 6.27 407 12.54 407 19 C405.27203312 19.00238835 403.54406624 19.00477671 401.76373672 19.00723743 C360.77279284 19.06456029 319.7819005 19.13726443 278.7910185 19.22898628 C273.7490256 19.24025485 268.70703243 19.25139324 263.66503906 19.26245117 C262.66124174 19.26465486 261.65744442 19.26685854 260.623229 19.269129 C244.35615877 19.3045302 228.0890886 19.32937839 211.8219941 19.35034702 C195.13844079 19.37208661 178.45493761 19.40511944 161.77142692 19.44870156 C151.47147387 19.47525007 141.17158332 19.49292185 130.87159774 19.49934604 C123.81467676 19.50459016 116.7578345 19.52077413 109.70095566 19.54566566 C105.62558545 19.55971426 101.55035627 19.568839 97.47496033 19.56500816 C93.74664449 19.56160973 90.01863038 19.57189404 86.29037639 19.59323552 C84.29709556 19.6010369 82.30377395 19.59404034 80.3104918 19.58658296 C79.13210669 19.5960395 77.95372159 19.60549604 76.73962784 19.61523914 C75.72045847 19.61713775 74.70128911 19.61903635 73.65123582 19.62099248 C70.54623057 20.06486863 69.19516514 20.77625889 67 23 C66.67 24.32 66.34 25.64 66 27 C61.05 27 56.1 27 51 27 C50.34 25.35 49.68 23.7 49 22 C45.85197675 19.90131783 45.0397817 19.74037997 41.43676758 19.68115234 C40.51603958 19.66128265 39.59531158 19.64141296 38.64668274 19.62094116 C37.65597275 19.60938995 36.66526276 19.59783875 35.64453125 19.5859375 C34.11937141 19.55688828 34.11937141 19.55688828 32.56340027 19.5272522 C29.31318573 19.46743259 26.06293583 19.42106124 22.8125 19.375 C20.61001052 19.33682244 18.40753601 19.29777084 16.20507812 19.2578125 C10.80350684 19.16172897 5.40186565 19.07770651 0 19 C0 12.73 0 6.46 0 0 Z " fill="#895C5C" transform="translate(46,471)"/>
<path d="M0 0 C0 3.63 0 7.26 0 11 C1.546875 10.87625 1.546875 10.87625 3.125 10.75 C7.72298851 11.04664442 9.53646289 12.00876341 13 15 C17.23017993 20.49923391 16.6311449 27.38560147 16 34 C14.6875 37.625 14.6875 37.625 13 40 C12.38125 40.928125 12.38125 40.928125 11.75 41.875 C8.87970174 43.72019174 6.30865318 43.29541546 3 43 C2.01 42.34 1.02 41.68 0 41 C0 43.97 0 46.94 0 50 C0.7425 50.0825 1.485 50.165 2.25 50.25 C5.6427671 51.17530012 6.93127504 52.16508061 9 55 C9.5625 57.9375 9.5625 57.9375 9 61 C6.827365 63.57285724 5.02006162 65.48996919 2 67 C5.64637367 85.96114311 15.69748674 101.72058725 31.5703125 112.79296875 C33.15146579 113.83633166 34.74292801 114.8643668 36.34765625 115.87109375 C36.89292969 116.24363281 37.43820313 116.61617188 38 117 C38 117.33 38 117.66 38 118 C33.91691764 118.11800816 29.83428424 118.18784785 25.75 118.25 C24.61046875 118.28351563 23.4709375 118.31703125 22.296875 118.3515625 C5.83309478 118.53865091 -7.80700397 111.66629263 -20 101 C-20.94166016 100.20142578 -20.94166016 100.20142578 -21.90234375 99.38671875 C-30.73064058 91.31913684 -35.95116197 80.39540947 -39 69 C-39.34224609 67.88794189 -39.68449219 66.77588379 -40.03710938 65.63012695 C-41.48160287 59.79966736 -41.24738624 53.93980438 -41.1953125 47.96875 C-41.19106766 46.1212616 -41.19106766 46.1212616 -41.18673706 44.2364502 C-41.17559202 40.32419898 -41.15049749 36.41218138 -41.125 32.5 C-41.11382966 29.83854502 -41.10583833 27.17709223 -41.09765625 24.515625 C-41.07567124 18.01033771 -41.04225017 11.50518555 -41 5 C-40.44389038 4.94792389 -39.88778076 4.89584778 -39.31481934 4.8421936 C-36.74076533 4.59901292 -34.16727159 4.35031198 -31.59375 4.1015625 C-30.71944336 4.0197876 -29.84513672 3.9380127 -28.94433594 3.85375977 C-22.35874066 3.21163379 -15.8893329 2.22446621 -9.39453125 0.9675293 C-6.16003449 0.34676328 -3.31609581 0 0 0 Z " fill="#FCC8BB" transform="translate(85,169)"/>
<path d="M0 0 C0.33 0 0.66 0 1 0 C1 9.57 1 19.14 1 29 C4.465 28.505 4.465 28.505 8 28 C12.08338318 30.35928806 13.59482123 32.58637683 15 37 C16.30447634 49.96892177 16.30447634 49.96892177 13.125 54.75 C9.11808118 58.99261993 9.11808118 58.99261993 6 59.1875 C3 59 3 59 1 58 C1.14029419 60.1462026 1.28738164 62.29196218 1.4375 64.4375 C1.51871094 65.63246094 1.59992188 66.82742187 1.68359375 68.05859375 C1.67656114 70.88570244 1.67656114 70.88570244 3 72 C3.125 75 3.125 75 3 78 C2.67 78.33 2.34 78.66 2 79 C0.67778922 94.33764508 7.66040992 110.33158208 16.8125 122.3125 C23.26649249 129.90249503 30.45223743 135.93465921 39 141 C39 141.33 39 141.66 39 142 C34.91691764 142.11800816 30.83428424 142.18784785 26.75 142.25 C25.61046875 142.28351563 24.4709375 142.31703125 23.296875 142.3515625 C7.73779826 142.52837019 -6.4386811 136.29974176 -18 126 C-18.641651 125.59881454 -19.283302 125.19762909 -19.94439697 124.7842865 C-23.18528395 122.35969069 -25.51997617 120.02625424 -26.47967148 115.97523308 C-27.29532983 109.63815249 -27.17172012 103.2445653 -27.1328125 96.8671875 C-27.14328975 94.78548065 -27.15584447 92.70378331 -27.17037964 90.62210083 C-27.19115182 86.26925826 -27.18211686 81.91772487 -27.15283203 77.56494141 C-27.11839492 71.99061265 -27.16552451 66.42039538 -27.23581123 60.84652519 C-27.27975329 56.55169445 -27.27688039 52.25784923 -27.26028061 47.96286392 C-27.25864228 45.90795494 -27.27235698 43.85297336 -27.30182266 41.79827499 C-27.49707571 25.72405311 -27.49707571 25.72405311 -23.79321289 21.45863342 C-21.21787426 19.9032846 -18.84805015 18.9340222 -16 18 C-9.85259742 13.34065916 -5.04498942 8.25869352 -1.05859375 1.65234375 C-0.70925781 1.10707031 -0.35992187 0.56179687 0 0 Z " fill="#FDCABD" transform="translate(300,145)"/>
<path d="M0 0 C0.61875 1.76875488 0.61875 1.76875488 1.25 3.57324219 C2.80624396 8.00753257 4.38459218 12.4336987 5.96923828 16.85791016 C6.64800756 18.76238691 7.32101419 20.66892891 7.98779297 22.57763672 C11.87695182 33.69701591 15.68981618 43.63194347 23 53 C23.70624512 53.91894043 24.41249023 54.83788086 25.14013672 55.78466797 C27.04774084 58.23107214 29.010926 60.61956661 31 63 C31.56332031 63.69867188 32.12664062 64.39734375 32.70703125 65.1171875 C40.76077818 74.86173621 40.76077818 74.86173621 51.9375 79.53515625 C56.46418414 79.31942274 59.01760128 77.1066803 62.0625 73.9375 C62.54009766 73.47150391 63.01769531 73.00550781 63.50976562 72.52539062 C64.50067331 71.55300458 65.48067619 70.56940238 66.45043945 69.57592773 C67.52026849 68.48789458 68.60874619 67.41799662 69.71166992 66.36352539 C74.12172799 62.11624043 77.707017 57.59087011 81.1875 52.5625 C81.69474609 51.85029297 82.20199219 51.13808594 82.72460938 50.40429688 C87.79536632 43.16317704 91.29468651 35.6614541 94.234375 27.34375 C94.51726379 26.55601196 94.80015259 25.76827393 95.09161377 24.95666504 C95.98242655 22.47275688 96.86632397 19.98645488 97.75 17.5 C98.35761475 15.80191932 98.96568356 14.10400104 99.57421875 12.40625 C101.05472927 8.27269018 102.52904883 4.13697071 104 0 C107.37629194 0.78131663 110.1596323 1.97665342 113.25 3.5625 C114.14203125 4.01753906 115.0340625 4.47257812 115.953125 4.94140625 C116.96632812 5.46541016 116.96632812 5.46541016 118 6 C117.175 6.886875 116.35 7.77375 115.5 8.6875 C101.45740907 25.1592595 95.32484849 46.413553 96.76220703 67.91601562 C97.36497364 73.198578 98.74396379 78.32970805 100.125 83.453125 C101 87 101 87 101 91 C68.66 91 36.32 91 3 91 C4.09503372 78.95462906 4.09503372 78.95462906 5.5625 74.375 C10.50553162 55.41039849 5.44561894 36.29672908 -4.00830078 19.66210938 C-6.47065016 15.53515847 -9.16875025 11.72832237 -12.66796875 8.42578125 C-14 7 -14 7 -14 5 C-12.23244474 4.15973604 -10.46082737 3.32801278 -8.6875 2.5 C-7.70136719 2.0359375 -6.71523437 1.571875 -5.69921875 1.09375 C-3 0 -3 0 0 0 Z " fill="#5564C7" transform="translate(85,329)"/>
<path d="M0 0 C0.3717334 1.09763672 0.7434668 2.19527344 1.12646484 3.32617188 C2.54131029 7.4858531 3.98303843 11.63582923 5.43212891 15.78369141 C6.04991518 17.56346615 6.66085525 19.34563548 7.26416016 21.13037109 C12.52822604 36.6773211 19.33568419 50.66239526 30.4375 62.9375 C31.25081787 63.8512439 31.25081787 63.8512439 32.08056641 64.78344727 C40.40383448 74.57618645 40.40383448 74.57618645 51.58984375 79.36328125 C56.82132907 78.80597525 59.1809275 76.45348607 63 73 C63.90878906 72.18402344 64.81757813 71.36804688 65.75390625 70.52734375 C71.62326163 65.05471062 76.68061676 59.1304331 81.375 52.625 C82.0880127 51.65566528 82.0880127 51.65566528 82.81542969 50.66674805 C90.40315753 39.77764177 94.39640689 26.52888726 98.875 14.125 C99.37723857 12.74335663 99.87984129 11.36184558 100.3828125 9.98046875 C101.59271785 6.65515127 102.79777491 3.32810311 104 0 C105.43742377 0.46103911 106.8733333 0.92680099 108.30859375 1.39453125 C109.10837646 1.65339111 109.90815918 1.91225098 110.73217773 2.17895508 C113.38638591 3.13988759 115.66580356 4.41877015 118 6 C117.154375 6.928125 116.30875 7.85625 115.4375 8.8125 C104.74993742 21.31922216 97.83974606 36.4767614 97 53 C96.93554688 54.16144531 96.87109375 55.32289063 96.8046875 56.51953125 C96.5362907 65.6360759 97.74803878 73.56335917 100.125 82.35546875 C101 86 101 86 101 91 C68.66 91 36.32 91 3 91 C3 85.20560752 3.3289703 82.31347876 5 77.0625 C10.3102774 58.68732755 6.18961827 39.02075142 -2.41015625 22.25 C-5.31448621 17.16935879 -8.65841915 12.84132349 -12.6796875 8.59375 C-14 7 -14 7 -14 5 C-12.23244474 4.15973604 -10.46082737 3.32801278 -8.6875 2.5 C-7.70136719 2.0359375 -6.71523438 1.571875 -5.69921875 1.09375 C-3 0 -3 0 0 0 Z " fill="#5564C7" transform="translate(301,329)"/>
<path d="M0 0 C3.23947677 5.38220278 3.86550597 10.5537833 4.5703125 16.734375 C4.76015213 18.2841806 4.76015213 18.2841806 4.9538269 19.86529541 C5.35465029 23.15903554 5.73991734 26.45438647 6.125 29.75 C6.39092975 31.95064158 6.65784692 34.15116408 6.92578125 36.3515625 C7.63687176 42.23225168 8.3346736 48.11395437 9 54 C9.150065 55.23852722 9.150065 55.23852722 9.30316162 56.5020752 C10.05503462 63.12468997 10 69.2105066 10 76 C1.09 76 -7.82 76 -17 76 C-22.91906387 50.69600195 -22.91906387 50.69600195 -22 40 C-21.96648437 39.22269531 -21.93296875 38.44539063 -21.8984375 37.64453125 C-20.97988625 23.98712452 -14.48815558 10.8670407 -4.83203125 1.36328125 C-3 0 -3 0 0 0 Z " fill="#E8F0FB" transform="translate(218,344)"/>
<path d="M0 0 C6.58093626 1.59537849 10.23669548 7.17031608 13.640625 12.6328125 C24.5774478 32.90460022 22.80612241 52.37745545 17 74 C16.67 74.66 16.34 75.32 16 76 C7.42 76 -1.16 76 -10 76 C-10.48697729 62.56677735 -8.86945799 49.53243252 -7.17407227 36.21728516 C-6.68446601 32.35104167 -6.21746066 28.48249191 -5.75195312 24.61328125 C-5.44405857 22.14566448 -5.13486087 19.67820989 -4.82421875 17.2109375 C-4.68658615 16.0588681 -4.54895355 14.90679871 -4.40715027 13.71981812 C-4.19727226 12.1112645 -4.19727226 12.1112645 -3.9831543 10.47021484 C-3.86546188 9.53172699 -3.74776947 8.59323914 -3.62651062 7.62631226 C-2.91628733 4.64907921 -1.68954501 2.53464905 0 0 Z " fill="#DAE7F8" transform="translate(272,344)"/>
<path d="M0 0 C5.76932178 0.85898791 8.69968724 5.56142908 12 10 C21.30438841 25.5281292 24.40226992 42.20455836 20.0625 59.8125 C19.70037754 61.21514343 19.33713213 62.61749751 18.97265625 64.01953125 C18.03351548 67.64975648 17.52757645 71.28795309 17 75 C16 76 16 76 13.49975586 76.11352539 C12.41573486 76.10828857 11.33171387 76.10305176 10.21484375 76.09765625 C8.46010742 76.09282227 8.46010742 76.09282227 6.66992188 76.08789062 C4.82237305 76.07532227 4.82237305 76.07532227 2.9375 76.0625 C1.08415039 76.05573242 1.08415039 76.05573242 -0.80664062 76.04882812 C-3.87114117 76.03699608 -6.93554721 76.02051173 -10 76 C-10.19176928 67.62820568 -9.61741364 59.44866619 -8.75 51.125 C-8.61722656 49.8359375 -8.48445313 48.546875 -8.34765625 47.21875 C-7.35947706 37.7965563 -6.23641817 28.39271251 -5 19 C-4.8462793 17.7845752 -4.69255859 16.56915039 -4.53417969 15.31689453 C-3.75859029 9.65734 -3.06407502 4.8746648 0 0 Z " fill="#DAE6F7" transform="translate(56,344)"/>
<path d="M0 0 C3.22641481 7.27776523 4.07661123 14.50974097 5 22.375 C5.1675937 23.74976007 5.33589774 25.12443371 5.50488281 26.49902344 C5.8471958 29.29976607 6.18307212 32.10117149 6.51367188 34.90332031 C6.9676731 38.74739353 7.44341901 42.58857651 7.921875 46.4296875 C8.19885391 48.703011 8.47494335 50.97644312 8.75 53.25 C8.87761719 54.27657715 9.00523437 55.3031543 9.13671875 56.36083984 C9.30880859 57.829646 9.30880859 57.829646 9.484375 59.328125 C9.58459961 60.1624707 9.68482422 60.99681641 9.78808594 61.85644531 C10.10521807 66.56081552 10 71.28495261 10 76 C1.09 76 -7.82 76 -17 76 C-18.9375 66.25 -18.9375 66.25 -19.54272461 63.19628906 C-19.70264893 62.39416992 -19.86257324 61.59205078 -20.02734375 60.765625 C-20.18968506 59.94868164 -20.35202637 59.13173828 -20.51928711 58.29003906 C-20.82825804 56.81815115 -21.1681078 55.35222862 -21.54589844 53.89648438 C-24.97869781 39.55993301 -20.07111086 23.20873281 -12.9375 10.86328125 C-5.58663029 0 -5.58663029 0 0 0 Z " fill="#E9F1FC" transform="translate(434,344)"/>
<path d="M0 0 C0.33 0 0.66 0 1 0 C1 9.57 1 19.14 1 29 C4.465 28.505 4.465 28.505 8 28 C12.08338318 30.35928806 13.59482123 32.58637683 15 37 C16.30447634 49.96892177 16.30447634 49.96892177 13.125 54.75 C9.11808118 58.99261993 9.11808118 58.99261993 6 59.1875 C3 59 3 59 1 58 C1 61.96 1 65.92 1 70 C-0.299375 69.34 -1.59875 68.68 -2.9375 68 C-10.24595417 64.76454619 -16.59642163 65.43141159 -24 68 C-24.99 68.495 -24.99 68.495 -26 69 C-26.25407499 62.7020513 -26.42886704 56.40542634 -26.54931641 50.10351562 C-26.59953209 47.96141184 -26.66772347 45.81964961 -26.75439453 43.67871094 C-27.45872814 25.83006869 -27.45872814 25.83006869 -23.9140625 21.38305664 C-21.30813629 19.85105705 -18.87476216 18.9071201 -16 18 C-9.85259742 13.34065916 -5.04498942 8.25869352 -1.05859375 1.65234375 C-0.70925781 1.10707031 -0.35992187 0.56179687 0 0 Z " fill="#FCC9BC" transform="translate(300,145)"/>
<path d="M0 0 C9.35582447 7.48465957 11.96796541 21.57360772 13.35546875 32.90234375 C13.87453305 43.57823373 11.83542407 58.32915185 7 68 C2.71 68 -1.58 68 -6 68 C-5.07199711 50.45528656 -4.01598791 32.93717435 -2.4375 15.4375 C-2.37356049 14.71273468 -2.30962097 13.98796936 -2.2437439 13.24124146 C-2.06242816 11.2007051 -1.87321568 9.160875 -1.68359375 7.12109375 C-1.57587646 5.9602124 -1.46815918 4.79933105 -1.35717773 3.60327148 C-1 1 -1 1 0 0 Z " fill="#E8F0FA" transform="translate(281,352)"/>
<path d="M0 0 C9.00581344 7.20465075 11.38891125 20.13134743 13 31 C13.94963567 39.76675857 12.16562546 47.59841024 9.97265625 56.01953125 C9.03351548 59.64975648 8.52757645 63.28795309 8 67 C7 68 7 68 4.05859375 68.09765625 C2.86363281 68.08605469 1.66867188 68.07445312 0.4375 68.0625 C-0.76003906 68.05347656 -1.95757812 68.04445313 -3.19140625 68.03515625 C-4.58166016 68.01775391 -4.58166016 68.01775391 -6 68 C-5.61410151 61.81479729 -5.22321146 55.62993513 -4.828125 49.4453125 C-4.69498982 47.35099365 -4.56310852 45.25659462 -4.43261719 43.16210938 C-3.75484903 32.2969644 -3.01842409 21.4450621 -1.9609375 10.609375 C-1.88026031 9.76586487 -1.79958313 8.92235474 -1.71646118 8.05328369 C-1.12374341 2.24748682 -1.12374341 2.24748682 0 0 Z " fill="#E9F1FC" transform="translate(65,352)"/>
<path d="M0 0 C5.7926463 0.61425377 10.94609066 2.15533044 16.4375 4.0625 C17.26443359 4.34416016 18.09136719 4.62582031 18.94335938 4.91601562 C20.96412338 5.60517792 22.98233282 6.3018231 25 7 C24.7834375 7.64324219 24.566875 8.28648438 24.34375 8.94921875 C20.53230318 21.31877533 20.96699165 32.99821086 26 45 C29.37057366 51.12905767 33.24393297 56.92278585 39 61 C39.33 61.66 39.66 62.32 40 63 C36.46151843 71.7348531 31.75165886 78.49399339 24 84 C23.67 84 23.34 84 23 84 C22.98541748 83.41734375 22.97083496 82.8346875 22.95581055 82.234375 C22.61162855 69.85841732 21.8251012 58.07319035 19 46 C18.72285156 44.76121094 18.44570313 43.52242187 18.16015625 42.24609375 C14.47597202 27.0824342 7.50984346 13.57623649 0 0 Z " fill="#885C5C" transform="translate(251,68)"/>
<path d="M0 0 C10.56 0 21.12 0 32 0 C32 13.9 32 13.9 29 18 C25.06531127 21.93468873 21.90166349 23.87322243 16.25 24.25 C11.94784056 24.17882457 8.78945203 23.11334825 5 21 C-1.5139558 14.14320442 0 10.55549435 0 0 Z " fill="#FEDBCD" transform="translate(337,303)"/>
<path d="M0 0 C10.56 0 21.12 0 32 0 C32 14.78378378 32 14.78378378 28 19 C23.31476832 23.22813591 19.61396313 24.42461126 13.41796875 24.34375 C8.06614121 23.5829086 4.30757253 20.63446566 1 16.5 C0 13 0 13 0 0 Z " fill="#FEDCCD" transform="translate(121,303)"/>
<path d="M0 0 C0.78375 0.66 1.5675 1.32 2.375 2 C5.6856624 4.52240945 7.72908966 4.56788385 11.796875 4.40625 C15.08401275 3.80011112 17.30940946 1.91330883 20 0 C23.0625 -0.5625 23.0625 -0.5625 26 0 C29.0099077 2.29014716 30.69783903 3.79135614 31.625 7.5 C30.57318144 11.70727424 27.749902 13.8772088 24.1796875 16.16796875 C16.93556008 20.36592544 11.37407279 20.7878356 3 20 C-2.74659839 18.20138934 -8.07016253 15.46015164 -11 10 C-11.59807728 6.33677666 -11.48384007 4.73543691 -9.4375 1.625 C-6.05010319 -0.63326454 -3.9982841 -0.56116268 0 0 Z " fill="#050404" transform="translate(343,235)"/>
<path d="M0 0 C0.763125 0.66 1.52625 1.32 2.3125 2 C5.66913061 4.49795767 7.71092365 4.56563844 11.80078125 4.41015625 C15.05360002 3.80350266 17.2847119 1.82986807 20 0 C23.51818074 0.05963018 25.88718287 0.35384812 28.9375 2.125 C30.78805954 5.39069331 30.67532292 7.31642045 30 11 C26.32120526 15.51447157 21.7910277 18.99770674 16 20 C7.18410738 20.6743034 0.44925602 20.12394571 -6.9375 14.9375 C-9.70769528 12.33519534 -9.95653969 11.46937136 -10.3125 7.625 C-10 4 -10 4 -8.375 1.5625 C-5.26456309 -0.48384007 -3.66322334 -0.59807728 0 0 Z " fill="#050504" transform="translate(127,235)"/>
<path d="M0 0 C0.75925781 -0.01160156 1.51851562 -0.02320313 2.30078125 -0.03515625 C5.61820854 -0.01772668 8.06596433 0.13800704 11.00390625 1.7421875 C12.5 3.375 12.5 3.375 12.9375 5.875 C12.5 8.375 12.5 8.375 11.375 10.1875 C8.72464043 11.86606106 6.56753576 11.57950238 3.5 11.375 C3.55220703 12.46167969 3.55220703 12.46167969 3.60546875 13.5703125 C3.76556271 19.28795381 3.81068651 23.47027924 0.5 28.375 C0.0875 28.99375 -0.325 29.6125 -0.75 30.25 C-3.73440844 32.16854828 -6.06994512 31.85641121 -9.5 31.375 C-12.82305398 28.14175829 -15.2450907 24.50696865 -15.80078125 19.859375 C-15.82916169 13.23727298 -15.69430391 6.8065047 -10.921875 1.6796875 C-7.37488149 -0.23111223 -3.92566683 -0.05998472 0 0 Z " fill="#040403" transform="translate(187.5,180.625)"/>
<path d="M0 0 C0.75539063 -0.02835938 1.51078125 -0.05671875 2.2890625 -0.0859375 C6.46752313 -0.1005475 8.14493834 0.12418766 11.5390625 2.78125 C16.40744236 9.12655409 16.27218553 14.61610351 15.625 22.5 C14.3125 26.125 14.3125 26.125 12.625 28.5 C12.2125 29.11875 11.8 29.7375 11.375 30.375 C8.39059156 32.29354828 6.05505488 31.98141121 2.625 31.5 C-0.81662029 28.15139647 -3.23279875 24.53632188 -3.5703125 19.703125 C-3.54710938 18.72859375 -3.52390625 17.7540625 -3.5 16.75 C-3.48195313 15.76515625 -3.46390625 14.7803125 -3.4453125 13.765625 C-3.42210938 13.01796875 -3.39890625 12.2703125 -3.375 11.5 C-4.16261719 11.52449219 -4.95023437 11.54898438 -5.76171875 11.57421875 C-8.375 11.5 -8.375 11.5 -10.1875 10.3125 C-11.80025784 7.85092224 -11.8084014 6.38934264 -11.375 3.5 C-8.80222383 -0.68076127 -4.38964806 -0.01482989 0 0 Z " fill="#040303" transform="translate(85.375,180.5)"/>
<path d="M0 0 C2.01894085 1.21217533 3.44706339 2.35260557 4.9453125 4.16796875 C5.4453125 7.04296875 5.4453125 7.04296875 4.9453125 10.16796875 C1.26464996 14.79508737 -2.26853944 16.8290647 -8.10546875 17.5390625 C-15.49852909 17.6895799 -20.35257777 17.05320321 -26.0546875 12.16796875 C-27.0546875 11.16796875 -27.0546875 11.16796875 -27.3671875 7.85546875 C-27.0546875 4.16796875 -27.0546875 4.16796875 -25.4921875 1.91796875 C-17.01969975 -4.16484297 -9.3069834 -4.35326643 0 0 Z " fill="#EAB0A5" transform="translate(207.0546875,219.83203125)"/>
<path d="M0 0 C3.0638128 2.22126428 3.84977501 3.21549174 4.5625 6.9375 C3.80734421 11.04890375 2.22857722 12.41713822 -1 15 C-7.47414389 18.09679883 -14.75571051 18.05610444 -21.5 15.6875 C-24.50635228 14.23800872 -25.96702504 13.48676402 -28 11 C-28.5 7.625 -28.5 7.625 -28 4 C-21.02688927 -4.96542808 -9.5630233 -5.1340655 0 0 Z " fill="#EAB0A5" transform="translate(431,213)"/>
<path d="M0 0 C1.81710254 1.25476596 3.26193121 2.48246833 4.69140625 4.16796875 C5.19140625 7.04296875 5.19140625 7.04296875 4.69140625 10.16796875 C1.181307 14.58066495 -2.30835844 16.82265019 -7.921875 17.46875 C-14.7960769 17.49859458 -20.96338198 17.19956692 -26.30859375 12.35546875 C-27.71330904 9.28265404 -27.92253155 7.51051897 -27.30859375 4.16796875 C-19.5593262 -3.76151432 -9.83576354 -5.35936176 0 0 Z " fill="#EAAFA5" transform="translate(89.30859375,219.83203125)"/>
<path d="M0 0 C2.35420911 2.03813474 2.92943832 2.68247245 3.625 5.8125 C2.81067843 9.96553999 1.04222206 11.23042641 -2.17578125 13.80078125 C-6.93739367 16.93100612 -12.52609575 16.44624219 -18 16 C-20.85871268 15.23172097 -23.2908368 14.22679088 -26 13 C-26.1080023 10.89695523 -26.18558987 8.79233091 -26.25 6.6875 C-26.31960938 4.92986328 -26.31960938 4.92986328 -26.390625 3.13671875 C-26 0 -26 0 -24.12109375 -1.875 C-16.29990567 -6.02325445 -7.14311801 -4.83210924 0 0 Z " fill="#EAAFA5" transform="translate(300,214)"/>
<path d="M0 0 C4.19134676 1.17651839 5.30544143 2.35398231 7.5625 6 C9.6249369 12.18731069 9.45816663 19.52625406 7.25 25.625 C6.693125 26.40875 6.13625 27.1925 5.5625 28 C5.129375 28.61875 4.69625 29.2375 4.25 29.875 C1.58655947 31.65062702 -0.32343094 31.44486701 -3.4375 31 C-7.25548239 28.27286972 -9.21602853 24.46408278 -10.4375 20 C-11.4078256 13.49998752 -10.11177231 8.43153298 -6.4375 3 C-4.10847538 0.17189868 -3.89612595 0 0 0 Z " fill="#060505" transform="translate(400.4375,173)"/>
<path d="M0 0 C4.27172441 0.07910601 6.30930586 0.30930586 9.375 3.375 C13.09635872 9.38642562 12.59063978 16.14070334 12 23 C10.71143863 26.41377159 8.56548612 28.43451388 6 31 C3.1875 31.5 3.1875 31.5 0 31 C-5.10874882 25.89125118 -6.16968192 22.2457196 -6.3125 15.1875 C-6.27451356 7.82572706 -5.11636342 5.11636342 0 0 Z " fill="#030303" transform="translate(303,173)"/>
<path d="M0 0 C3.91851711 0.64121189 5.06308226 1.45749219 7.4375 4.5625 C9.68625331 9.06000663 9.08619564 14.57277883 7.56640625 19.234375 C3.96218886 27.03366509 -0.6092398 31.46847986 -8.5625 34.5625 C-8.68656007 30.52424934 -8.77705045 26.48674362 -8.8371582 22.44702148 C-8.86222617 21.07442898 -8.89629082 19.70196898 -8.93969727 18.32983398 C-9.00067531 16.35199304 -9.02611009 14.37315816 -9.05078125 12.39453125 C-9.07696533 11.20577393 -9.10314941 10.0170166 -9.13012695 8.79223633 C-8.17951697 3.38336774 -5.34472328 0.84390368 0 0 Z " fill="#F2C0B4" transform="translate(468.5625,194.4375)"/>
<path d="M0 0 C1.421875 2.07421875 1.421875 2.07421875 2.75 4.6875 C5.65995201 9.88810653 8.98687924 12.86998044 14 16 C10.19985226 20.554787 6.34334454 24.95279259 2 29 C1.34 29 0.68 29 0 29 C-1.51075416 25.08739673 -3.00671908 21.16930187 -4.5 17.25 C-4.92925781 16.13882812 -5.35851562 15.02765625 -5.80078125 13.8828125 C-6.20683594 12.81289063 -6.61289062 11.74296875 -7.03125 10.640625 C-7.40830078 9.65610352 -7.78535156 8.67158203 -8.17382812 7.65722656 C-9 5 -9 5 -9 1 C-5.57888163 -0.61552812 -3.5609873 -1.51620162 0 0 Z " fill="#D7E3F4" transform="translate(324,322)"/>
<path d="M0 0 C1.421875 2.07421875 1.421875 2.07421875 2.75 4.6875 C5.65995201 9.88810653 8.98687924 12.86998044 14 16 C10.19985226 20.554787 6.34334454 24.95279259 2 29 C1.34 29 0.68 29 0 29 C-1.50776616 24.89864435 -3.00487576 20.79347933 -4.5 16.6875 C-4.92925781 15.52025391 -5.35851562 14.35300781 -5.80078125 13.15039062 C-6.20683594 12.03212891 -6.61289063 10.91386719 -7.03125 9.76171875 C-7.40830078 8.73006592 -7.78535156 7.69841309 -8.17382812 6.63549805 C-9 4 -9 4 -9 1 C-5.57888163 -0.61552812 -3.5609873 -1.51620162 0 0 Z " fill="#D7E4F4" transform="translate(108,322)"/>
<path d="M0 0 C2.97 0.66 5.94 1.32 9 2 C8.3490961 5.64795474 7.38201944 9.02569081 6.15234375 12.51953125 C5.79462891 13.54111328 5.43691406 14.56269531 5.06835938 15.61523438 C4.50858398 17.19788086 4.50858398 17.19788086 3.9375 18.8125 C3.56044922 19.88693359 3.18339844 20.96136719 2.79492188 22.06835938 C1.86625342 24.71330118 0.93451811 27.35712054 0 30 C-3.85027991 28.21799313 -6.2799142 25.92324595 -9.25 22.875 C-10.14203125 21.96492188 -11.0340625 21.05484375 -11.953125 20.1171875 C-12.62859375 19.41851562 -13.3040625 18.71984375 -14 18 C-11.52163109 15.50508105 -9.04872074 13.0439675 -6.4375 10.6875 C-3.40730463 7.34651536 -1.87331181 4.09353322 0 0 Z " fill="#D8E4F5" transform="translate(382,321)"/>
<path d="M0 0 C2.97 0.66 5.94 1.32 9 2 C8.34143875 8.12566497 6.07751787 13.64610934 3.9375 19.375 C3.56044922 20.39722656 3.18339844 21.41945313 2.79492188 22.47265625 C1.86799899 24.98356127 0.93623553 27.49255574 0 30 C-3.85027991 28.21799313 -6.2799142 25.92324595 -9.25 22.875 C-10.14203125 21.96492188 -11.0340625 21.05484375 -11.953125 20.1171875 C-12.62859375 19.41851562 -13.3040625 18.71984375 -14 18 C-11.85649982 15.84741719 -9.70262155 13.71749047 -7.5 11.625 C-4.13831725 8.09523312 -1.54769 4.64307001 0 0 Z " fill="#D8E4F5" transform="translate(166,321)"/>
<path d="M0 0 C10.56 0 21.12 0 32 0 C32 1.65 32 3.3 32 5 C24.08 5 16.16 5 8 5 C8.268125 6.876875 8.53625 8.75375 8.8125 10.6875 C8.96332031 11.74324219 9.11414063 12.79898437 9.26953125 13.88671875 C10.02572561 17.10964336 11.23102148 19.23263908 13 22 C13 22.66 13 23.32 13 24 C7.99821161 22.72047274 5.35601152 20.91534677 2 17 C0 13 0 13 0 0 Z " fill="#FCCABD" transform="translate(121,303)"/>
<path d="M0 0 C10.56 0 21.12 0 32 0 C32 1.65 32 3.3 32 5 C23.75 5 15.5 5 7 5 C9.17504209 16.17504209 9.17504209 16.17504209 13 22 C12.67 22.66 12.34 23.32 12 24 C6.89520836 22.13478767 4.05761259 20.70401937 1 16 C0 13 0 13 0 0 Z " fill="#FCC9BD" transform="translate(337,303)"/>
<path d="M0 0 C0.68964844 0.13277344 1.37929687 0.26554687 2.08984375 0.40234375 C8.05320412 1.52303013 13.96148529 2.40604773 20 3 C20 4.32 20 5.64 20 7 C17.56592995 7.86524753 15.12856816 8.71742865 12.6875 9.5625 C11.99720703 9.80935547 11.30691406 10.05621094 10.59570312 10.31054688 C5.33984375 12.11328125 5.33984375 12.11328125 2 11 C0.60955102 7.12137916 0 4.13537997 0 0 Z " fill="#DE8E67" transform="translate(85,299)"/>
<path d="M0 0 C5.75 3.625 5.75 3.625 8 7 C6.02 8.98 4.04 10.96 2 13 C-0.4375 12.1875 -0.4375 12.1875 -3 11 C-3.33 10.01 -3.66 9.02 -4 8 C-4.66 8 -5.32 8 -6 8 C-4.55746343 4.63408134 -2.66735273 2.48952921 0 0 Z " fill="#C96978" transform="translate(352,379)"/>
<path d="M0 0 C3.7952131 1.49097658 5.61042731 3.75700849 8 7 C6.02 8.98 4.04 10.96 2 13 C-1.7952131 11.50902342 -3.61042731 9.24299151 -6 6 C-4.02 4.02 -2.04 2.04 0 0 Z " fill="#CA6A79" transform="translate(136,379)"/>
<path d="M0 0 C2.43142628 1.3333628 4.08651982 3.01320051 5.9375 5.0625 C4.64450306 7.94687779 3.27808637 9.93469421 0.9375 12.0625 C-2.8577131 10.57152342 -4.67292731 8.30549151 -7.0625 5.0625 C-2.68892369 0.08148254 -2.68892369 0.08148254 0 0 Z " fill="#C66877" transform="translate(353.0625,345.9375)"/>
<path d="M0 0 C2.49361571 1.20381448 4.68143083 2.45428722 7 4 C6.45773019 7.79588866 4.79872437 9.47211993 2 12 C-1.7952131 10.50902342 -3.61042731 8.24299151 -6 5 C-4.02 3.35 -2.04 1.7 0 0 Z " fill="#C66876" transform="translate(136,346)"/>
<path d="M0 0 C2.31 1.98 4.62 3.96 7 6 C5.35 7.98 3.7 9.96 2 12 C-2.875 7.375 -2.875 7.375 -4 4 C-2.68 2.68 -1.36 1.36 0 0 Z " fill="#E0E8F2" transform="translate(335,362)"/>
<path d="M0 0 C2.31 1.98 4.62 3.96 7 6 C5.35 7.98 3.7 9.96 2 12 C-2.875 7.375 -2.875 7.375 -4 4 C-2.68 2.68 -1.36 1.36 0 0 Z " fill="#E1E8F3" transform="translate(119,362)"/>
<path d="M0 0 C4.17906895 3.55994763 6.68559431 8.08663054 9 13 C9 13.66 9 14.32 9 15 C6.69 15 4.38 15 2 15 C1.66048381 13.43883181 1.32867456 11.87598662 1 10.3125 C0.814375 9.44238281 0.62875 8.57226562 0.4375 7.67578125 C0.01027953 5.06287036 -0.07616201 2.64186962 0 0 Z " fill="#D3DFEF" transform="translate(199,405)"/>
<path d="M0 0 C1.65 1.65 3.3 3.3 5 5 C3.35 7.31 1.7 9.62 0 12 C-1.98 10.35 -3.96 8.7 -6 7 C-4.02 4.69 -2.04 2.38 0 0 Z " fill="#E2EAF4" transform="translate(154,362)"/>
<path d="M0 0 C1.65 1.65 3.3 3.3 5 5 C3.35 7.31 1.7 9.62 0 12 C-1.98 10.35 -3.96 8.7 -6 7 C-4.02 4.69 -2.04 2.38 0 0 Z " fill="#E3EBF5" transform="translate(370,362)"/>
<path d="M0 0 C4.52866647 3.69002453 6.67482688 8.76836048 9 14 C9 14.33 9 14.66 9 15 C6.69 15 4.38 15 2 15 C1.66048381 13.43883181 1.32867456 11.87598662 1 10.3125 C0.814375 9.44238281 0.62875 8.57226562 0.4375 7.67578125 C0.01027953 5.06287036 -0.07616201 2.64186962 0 0 Z " fill="#D6E3F3" transform="translate(415,405)"/>
</svg>
