<?xml version="1.0" encoding="UTF-8"?>
<svg xmlns="http://www.w3.org/2000/svg" xmlns:xlink="http://www.w3.org/1999/xlink" width="24px" height="24px" viewBox="0 0 24 24" version="1.1">
<g id="surface1">
<path style=" stroke:none;fill-rule:nonzero;fill:rgb(0%,0%,0%);fill-opacity:1;" d="M 4.804688 2.804688 C 4.886719 2.804688 4.886719 2.804688 4.976562 2.804688 C 5.0625 2.804688 5.0625 2.804688 5.148438 2.804688 C 5.210938 2.808594 5.269531 2.808594 5.328125 2.808594 C 5.476562 2.808594 5.621094 2.8125 5.765625 2.8125 C 5.765625 2.84375 5.761719 2.875 5.761719 2.90625 C 5.734375 3.65625 5.726562 4.273438 6.238281 4.875 C 6.714844 5.367188 7.277344 5.566406 7.953125 5.582031 C 8.167969 5.585938 8.378906 5.585938 8.59375 5.585938 C 8.675781 5.585938 8.757812 5.585938 8.839844 5.585938 C 9.0625 5.585938 9.285156 5.585938 9.507812 5.585938 C 9.648438 5.585938 9.789062 5.585938 9.925781 5.585938 C 10.414062 5.585938 10.902344 5.585938 11.386719 5.585938 C 11.839844 5.585938 12.292969 5.585938 12.746094 5.589844 C 13.132812 5.589844 13.523438 5.589844 13.914062 5.589844 C 14.144531 5.589844 14.378906 5.589844 14.609375 5.589844 C 14.828125 5.589844 15.046875 5.589844 15.265625 5.589844 C 15.34375 5.589844 15.425781 5.589844 15.503906 5.589844 C 16.324219 5.59375 17.089844 5.542969 17.710938 4.941406 C 18.136719 4.464844 18.257812 3.976562 18.242188 3.347656 C 18.242188 3.269531 18.242188 3.269531 18.242188 3.191406 C 18.238281 3.066406 18.238281 2.9375 18.234375 2.8125 C 18.433594 2.808594 18.632812 2.804688 18.835938 2.800781 C 18.890625 2.800781 18.945312 2.796875 19.003906 2.796875 C 19.621094 2.789062 20.070312 2.96875 20.53125 3.375 C 20.894531 3.761719 21.152344 4.230469 21.152344 4.765625 C 21.152344 4.796875 21.152344 4.828125 21.152344 4.859375 C 21.152344 4.960938 21.152344 5.0625 21.152344 5.164062 C 21.152344 5.238281 21.152344 5.3125 21.152344 5.382812 C 21.15625 5.585938 21.15625 5.789062 21.152344 5.992188 C 21.152344 6.210938 21.15625 6.429688 21.15625 6.648438 C 21.15625 7.074219 21.15625 7.503906 21.15625 7.929688 C 21.15625 8.28125 21.15625 8.628906 21.15625 8.976562 C 21.15625 9.960938 21.15625 10.949219 21.15625 11.933594 C 21.15625 11.988281 21.15625 12.042969 21.15625 12.097656 C 21.15625 12.148438 21.15625 12.203125 21.15625 12.257812 C 21.15625 13.121094 21.160156 13.984375 21.160156 14.847656 C 21.160156 15.734375 21.164062 16.617188 21.160156 17.503906 C 21.160156 18.003906 21.164062 18.5 21.164062 18.996094 C 21.164062 19.421875 21.164062 19.84375 21.164062 20.269531 C 21.164062 20.484375 21.164062 20.699219 21.164062 20.917969 C 21.164062 21.113281 21.164062 21.3125 21.164062 21.511719 C 21.164062 21.582031 21.164062 21.652344 21.164062 21.722656 C 21.167969 22.390625 21.023438 22.882812 20.578125 23.390625 C 20.214844 23.734375 19.746094 24.011719 19.234375 24.011719 C 19.152344 24.011719 19.152344 24.011719 19.074219 24.011719 C 19.015625 24.011719 18.960938 24.011719 18.898438 24.011719 C 18.839844 24.011719 18.777344 24.011719 18.714844 24.011719 C 18.546875 24.015625 18.375 24.015625 18.207031 24.011719 C 18.023438 24.011719 17.839844 24.015625 17.660156 24.015625 C 17.300781 24.015625 16.941406 24.015625 16.585938 24.015625 C 16.292969 24.015625 16 24.015625 15.710938 24.015625 C 14.886719 24.015625 14.058594 24.015625 13.234375 24.015625 C 13.167969 24.015625 13.167969 24.015625 13.097656 24.015625 C 13.03125 24.015625 13.03125 24.015625 12.964844 24.015625 C 12.242188 24.015625 11.519531 24.019531 10.796875 24.019531 C 10.054688 24.019531 9.3125 24.023438 8.574219 24.019531 C 8.15625 24.019531 7.738281 24.023438 7.324219 24.023438 C 6.96875 24.023438 6.613281 24.023438 6.261719 24.023438 C 6.078125 24.023438 5.898438 24.023438 5.71875 24.023438 C 5.523438 24.023438 5.324219 24.023438 5.128906 24.023438 C 5.074219 24.023438 5.015625 24.023438 4.957031 24.023438 C 4.363281 24.019531 3.914062 23.828125 3.46875 23.4375 C 3.105469 23.050781 2.847656 22.582031 2.847656 22.046875 C 2.847656 22.015625 2.847656 21.984375 2.847656 21.953125 C 2.847656 21.851562 2.847656 21.75 2.847656 21.648438 C 2.847656 21.574219 2.847656 21.5 2.847656 21.429688 C 2.84375 21.226562 2.84375 21.023438 2.847656 20.820312 C 2.847656 20.601562 2.84375 20.382812 2.84375 20.164062 C 2.84375 19.738281 2.84375 19.308594 2.84375 18.882812 C 2.84375 18.53125 2.84375 18.183594 2.84375 17.835938 C 2.84375 16.851562 2.84375 15.863281 2.84375 14.878906 C 2.84375 14.824219 2.84375 14.769531 2.84375 14.714844 C 2.84375 14.664062 2.84375 14.609375 2.84375 14.554688 C 2.84375 13.691406 2.839844 12.828125 2.839844 11.964844 C 2.839844 11.078125 2.835938 10.195312 2.839844 9.308594 C 2.839844 8.808594 2.835938 8.3125 2.835938 7.816406 C 2.835938 7.390625 2.835938 6.96875 2.835938 6.542969 C 2.835938 6.328125 2.835938 6.113281 2.835938 5.894531 C 2.835938 5.699219 2.835938 5.5 2.835938 5.300781 C 2.835938 5.230469 2.835938 5.160156 2.835938 5.089844 C 2.832031 4.421875 2.976562 3.929688 3.421875 3.421875 C 3.800781 3.0625 4.273438 2.796875 4.804688 2.804688 Z M 15.957031 8.40625 C 15.925781 8.441406 15.894531 8.472656 15.863281 8.503906 C 15.761719 8.605469 15.664062 8.707031 15.5625 8.804688 C 15.496094 8.875 15.425781 8.945312 15.359375 9.011719 C 15.191406 9.179688 15.023438 9.347656 14.859375 9.515625 C 14.707031 9.441406 14.605469 9.367188 14.488281 9.242188 C 14.453125 9.207031 14.417969 9.171875 14.382812 9.136719 C 14.3125 9.0625 14.242188 8.988281 14.167969 8.917969 C 14.136719 8.882812 14.101562 8.847656 14.066406 8.808594 C 14.035156 8.777344 14.003906 8.746094 13.972656 8.710938 C 13.75 8.511719 13.578125 8.457031 13.285156 8.46875 C 13.066406 8.5 12.945312 8.609375 12.804688 8.773438 C 12.722656 8.972656 12.699219 9.164062 12.75 9.375 C 12.914062 9.632812 13.121094 9.855469 13.335938 10.070312 C 13.378906 10.109375 13.378906 10.109375 13.421875 10.15625 C 13.480469 10.214844 13.542969 10.273438 13.601562 10.332031 C 13.691406 10.421875 13.78125 10.511719 13.871094 10.601562 C 13.929688 10.660156 13.984375 10.71875 14.042969 10.773438 C 14.070312 10.800781 14.097656 10.828125 14.125 10.855469 C 14.324219 11.054688 14.507812 11.222656 14.804688 11.230469 C 14.839844 11.230469 14.878906 11.234375 14.914062 11.234375 C 15.308594 11.136719 15.621094 10.738281 15.894531 10.460938 C 15.9375 10.417969 15.984375 10.375 16.027344 10.328125 C 16.121094 10.238281 16.210938 10.144531 16.304688 10.050781 C 16.421875 9.933594 16.539062 9.816406 16.65625 9.699219 C 16.769531 9.585938 16.882812 9.472656 16.996094 9.359375 C 17.039062 9.316406 17.082031 9.277344 17.125 9.234375 C 17.164062 9.195312 17.203125 9.152344 17.242188 9.113281 C 17.277344 9.078125 17.3125 9.042969 17.347656 9.007812 C 17.546875 8.78125 17.605469 8.617188 17.59375 8.316406 C 17.5625 8.097656 17.453125 7.976562 17.289062 7.832031 C 16.699219 7.601562 16.347656 8.011719 15.957031 8.40625 Z M 6.617188 8.644531 C 6.433594 8.863281 6.402344 8.980469 6.40625 9.257812 C 6.429688 9.429688 6.492188 9.527344 6.609375 9.65625 C 6.84375 9.832031 7.070312 9.847656 7.359375 9.851562 C 7.441406 9.851562 7.441406 9.851562 7.523438 9.851562 C 7.585938 9.851562 7.644531 9.851562 7.703125 9.851562 C 7.796875 9.851562 7.796875 9.851562 7.890625 9.851562 C 8.019531 9.851562 8.148438 9.851562 8.28125 9.851562 C 8.445312 9.851562 8.609375 9.851562 8.777344 9.855469 C 8.933594 9.855469 9.09375 9.855469 9.25 9.855469 C 9.339844 9.855469 9.339844 9.855469 9.429688 9.855469 C 9.925781 9.863281 9.925781 9.863281 10.351562 9.636719 C 10.535156 9.417969 10.566406 9.300781 10.5625 9.023438 C 10.539062 8.851562 10.476562 8.753906 10.359375 8.625 C 10.125 8.449219 9.898438 8.433594 9.609375 8.429688 C 9.527344 8.429688 9.527344 8.429688 9.445312 8.429688 C 9.382812 8.429688 9.324219 8.429688 9.265625 8.429688 C 9.203125 8.429688 9.140625 8.429688 9.078125 8.429688 C 8.949219 8.429688 8.820312 8.429688 8.6875 8.429688 C 8.523438 8.429688 8.359375 8.429688 8.191406 8.425781 C 8.035156 8.425781 7.875 8.425781 7.71875 8.425781 C 7.628906 8.425781 7.628906 8.425781 7.539062 8.425781 C 7.042969 8.417969 7.042969 8.417969 6.617188 8.644531 Z M 15.957031 12.625 C 15.925781 12.660156 15.894531 12.691406 15.863281 12.722656 C 15.761719 12.824219 15.664062 12.925781 15.5625 13.023438 C 15.496094 13.09375 15.425781 13.164062 15.359375 13.230469 C 15.191406 13.398438 15.023438 13.566406 14.859375 13.734375 C 14.707031 13.660156 14.605469 13.585938 14.488281 13.460938 C 14.453125 13.425781 14.417969 13.390625 14.382812 13.355469 C 14.3125 13.28125 14.242188 13.207031 14.167969 13.136719 C 14.136719 13.101562 14.101562 13.066406 14.066406 13.027344 C 14.035156 12.996094 14.003906 12.964844 13.972656 12.929688 C 13.75 12.730469 13.578125 12.675781 13.285156 12.6875 C 13.066406 12.71875 12.945312 12.828125 12.804688 12.992188 C 12.722656 13.191406 12.699219 13.382812 12.75 13.59375 C 12.914062 13.851562 13.121094 14.074219 13.335938 14.289062 C 13.378906 14.328125 13.378906 14.328125 13.421875 14.375 C 13.480469 14.433594 13.542969 14.492188 13.601562 14.550781 C 13.691406 14.640625 13.78125 14.730469 13.871094 14.820312 C 13.929688 14.878906 13.984375 14.9375 14.042969 14.992188 C 14.070312 15.019531 14.097656 15.046875 14.125 15.074219 C 14.324219 15.273438 14.507812 15.441406 14.804688 15.449219 C 14.839844 15.449219 14.878906 15.453125 14.914062 15.453125 C 15.308594 15.355469 15.621094 14.957031 15.894531 14.679688 C 15.9375 14.636719 15.984375 14.59375 16.027344 14.546875 C 16.121094 14.457031 16.210938 14.363281 16.304688 14.269531 C 16.421875 14.152344 16.539062 14.035156 16.65625 13.917969 C 16.769531 13.804688 16.882812 13.691406 16.996094 13.578125 C 17.039062 13.535156 17.082031 13.496094 17.125 13.453125 C 17.164062 13.414062 17.203125 13.371094 17.242188 13.332031 C 17.277344 13.296875 17.3125 13.261719 17.347656 13.226562 C 17.546875 13 17.605469 12.835938 17.59375 12.535156 C 17.5625 12.316406 17.453125 12.195312 17.289062 12.054688 C 16.699219 11.820312 16.347656 12.230469 15.957031 12.625 Z M 6.617188 13.566406 C 6.433594 13.785156 6.402344 13.902344 6.40625 14.179688 C 6.429688 14.351562 6.492188 14.449219 6.609375 14.578125 C 6.84375 14.753906 7.070312 14.769531 7.359375 14.773438 C 7.441406 14.773438 7.441406 14.773438 7.523438 14.773438 C 7.585938 14.773438 7.644531 14.773438 7.703125 14.773438 C 7.796875 14.773438 7.796875 14.773438 7.890625 14.773438 C 8.019531 14.773438 8.148438 14.773438 8.28125 14.773438 C 8.445312 14.773438 8.609375 14.773438 8.777344 14.777344 C 8.933594 14.777344 9.09375 14.777344 9.25 14.777344 C 9.339844 14.777344 9.339844 14.777344 9.429688 14.777344 C 9.925781 14.785156 9.925781 14.785156 10.351562 14.558594 C 10.535156 14.339844 10.566406 14.222656 10.5625 13.945312 C 10.539062 13.773438 10.476562 13.675781 10.359375 13.546875 C 10.125 13.371094 9.898438 13.355469 9.609375 13.351562 C 9.527344 13.351562 9.527344 13.351562 9.445312 13.351562 C 9.382812 13.351562 9.324219 13.351562 9.265625 13.351562 C 9.203125 13.351562 9.140625 13.351562 9.078125 13.351562 C 8.949219 13.351562 8.820312 13.351562 8.6875 13.351562 C 8.523438 13.351562 8.359375 13.351562 8.191406 13.347656 C 8.035156 13.347656 7.875 13.347656 7.71875 13.347656 C 7.628906 13.347656 7.628906 13.347656 7.539062 13.347656 C 7.042969 13.339844 7.042969 13.339844 6.617188 13.566406 Z M 12.804688 17.207031 C 12.722656 17.410156 12.699219 17.601562 12.75 17.8125 C 12.925781 18.109375 13.179688 18.347656 13.425781 18.585938 C 13.457031 18.621094 13.492188 18.652344 13.527344 18.6875 C 13.613281 18.773438 13.695312 18.855469 13.78125 18.9375 C 13.714844 19.09375 13.628906 19.191406 13.507812 19.308594 C 13.457031 19.359375 13.457031 19.359375 13.402344 19.414062 C 13.328125 19.484375 13.253906 19.554688 13.183594 19.628906 C 13.128906 19.679688 13.128906 19.679688 13.074219 19.730469 C 13.042969 19.761719 13.011719 19.792969 12.976562 19.824219 C 12.777344 20.046875 12.722656 20.21875 12.734375 20.511719 C 12.765625 20.730469 12.875 20.851562 13.039062 20.992188 C 13.238281 21.074219 13.429688 21.097656 13.640625 21.046875 C 13.9375 20.871094 14.175781 20.617188 14.414062 20.371094 C 14.449219 20.339844 14.480469 20.304688 14.515625 20.269531 C 14.601562 20.183594 14.683594 20.101562 14.765625 20.015625 C 14.921875 20.082031 15.019531 20.167969 15.136719 20.289062 C 15.1875 20.339844 15.1875 20.339844 15.242188 20.394531 C 15.3125 20.46875 15.382812 20.542969 15.457031 20.613281 C 15.488281 20.648438 15.523438 20.683594 15.558594 20.722656 C 15.589844 20.753906 15.621094 20.785156 15.652344 20.820312 C 15.875 21.019531 16.046875 21.074219 16.339844 21.0625 C 16.558594 21.03125 16.679688 20.921875 16.820312 20.757812 C 16.902344 20.558594 16.925781 20.367188 16.875 20.15625 C 16.699219 19.859375 16.445312 19.621094 16.203125 19.382812 C 16.167969 19.347656 16.132812 19.316406 16.097656 19.28125 C 16.011719 19.195312 15.929688 19.113281 15.84375 19.03125 C 15.910156 18.875 15.996094 18.777344 16.117188 18.660156 C 16.167969 18.609375 16.167969 18.609375 16.222656 18.554688 C 16.296875 18.484375 16.371094 18.414062 16.441406 18.339844 C 16.476562 18.308594 16.511719 18.273438 16.550781 18.238281 C 16.582031 18.207031 16.613281 18.175781 16.648438 18.144531 C 16.847656 17.921875 16.902344 17.75 16.890625 17.457031 C 16.859375 17.238281 16.75 17.117188 16.585938 16.972656 C 16.386719 16.894531 16.195312 16.871094 15.984375 16.921875 C 15.6875 17.097656 15.449219 17.351562 15.210938 17.59375 C 15.175781 17.628906 15.144531 17.664062 15.109375 17.699219 C 15.023438 17.785156 14.941406 17.867188 14.859375 17.953125 C 14.703125 17.886719 14.605469 17.800781 14.488281 17.679688 C 14.4375 17.628906 14.4375 17.628906 14.382812 17.574219 C 14.3125 17.5 14.242188 17.425781 14.167969 17.355469 C 14.136719 17.320312 14.101562 17.285156 14.066406 17.246094 C 14.035156 17.214844 14.003906 17.183594 13.972656 17.148438 C 13.75 16.949219 13.578125 16.894531 13.285156 16.90625 C 13.066406 16.9375 12.945312 17.046875 12.804688 17.207031 Z M 6.617188 18.488281 C 6.433594 18.707031 6.402344 18.824219 6.40625 19.101562 C 6.429688 19.273438 6.492188 19.371094 6.609375 19.5 C 6.84375 19.675781 7.070312 19.691406 7.359375 19.695312 C 7.441406 19.695312 7.441406 19.695312 7.523438 19.695312 C 7.585938 19.695312 7.644531 19.695312 7.703125 19.695312 C 7.796875 19.695312 7.796875 19.695312 7.890625 19.695312 C 8.019531 19.695312 8.148438 19.695312 8.28125 19.695312 C 8.445312 19.695312 8.609375 19.695312 8.777344 19.699219 C 8.933594 19.699219 9.09375 19.699219 9.25 19.699219 C 9.339844 19.699219 9.339844 19.699219 9.429688 19.699219 C 9.925781 19.707031 9.925781 19.707031 10.351562 19.480469 C 10.535156 19.261719 10.566406 19.144531 10.5625 18.867188 C 10.539062 18.695312 10.476562 18.597656 10.359375 18.46875 C 10.125 18.292969 9.898438 18.277344 9.609375 18.273438 C 9.527344 18.273438 9.527344 18.273438 9.445312 18.273438 C 9.382812 18.273438 9.324219 18.273438 9.265625 18.273438 C 9.203125 18.273438 9.140625 18.273438 9.078125 18.273438 C 8.949219 18.273438 8.820312 18.273438 8.6875 18.273438 C 8.523438 18.273438 8.359375 18.273438 8.191406 18.269531 C 8.035156 18.269531 7.875 18.269531 7.71875 18.269531 C 7.628906 18.269531 7.628906 18.269531 7.539062 18.269531 C 7.042969 18.261719 7.042969 18.261719 6.617188 18.488281 Z M 6.617188 18.488281 "/>
<path style=" stroke:none;fill-rule:nonzero;fill:rgb(0%,0%,0%);fill-opacity:1;" d="M 13.257812 0.367188 C 13.550781 0.59375 13.746094 0.804688 13.90625 1.136719 C 13.925781 1.175781 13.949219 1.21875 13.96875 1.261719 C 13.984375 1.292969 14 1.328125 14.015625 1.359375 C 14.050781 1.359375 14.085938 1.359375 14.125 1.359375 C 14.289062 1.363281 14.453125 1.367188 14.617188 1.371094 C 14.671875 1.371094 14.726562 1.371094 14.785156 1.375 C 15.398438 1.390625 15.851562 1.5625 16.3125 1.96875 C 16.695312 2.375 16.9375 2.855469 16.9375 3.421875 C 16.941406 3.453125 16.941406 3.484375 16.941406 3.519531 C 16.945312 3.761719 16.890625 3.894531 16.734375 4.078125 C 16.539062 4.226562 16.367188 4.238281 16.132812 4.238281 C 16.09375 4.238281 16.058594 4.238281 16.019531 4.238281 C 15.898438 4.238281 15.773438 4.238281 15.652344 4.238281 C 15.5625 4.238281 15.476562 4.238281 15.386719 4.238281 C 15.148438 4.238281 14.90625 4.238281 14.667969 4.238281 C 14.46875 4.238281 14.269531 4.238281 14.066406 4.238281 C 13.597656 4.242188 13.125 4.238281 12.652344 4.238281 C 12.164062 4.238281 11.679688 4.238281 11.191406 4.242188 C 10.773438 4.242188 10.355469 4.242188 9.9375 4.242188 C 9.6875 4.242188 9.4375 4.242188 9.1875 4.242188 C 8.953125 4.242188 8.71875 4.242188 8.484375 4.242188 C 8.398438 4.242188 8.3125 4.242188 8.226562 4.242188 C 8.109375 4.242188 7.992188 4.242188 7.875 4.242188 C 7.839844 4.242188 7.804688 4.242188 7.769531 4.242188 C 7.535156 4.238281 7.402344 4.179688 7.21875 4.03125 C 7.066406 3.847656 7.054688 3.671875 7.058594 3.4375 C 7.058594 3.40625 7.058594 3.371094 7.058594 3.339844 C 7.078125 2.773438 7.335938 2.304688 7.746094 1.917969 C 8.121094 1.613281 8.535156 1.402344 9.023438 1.386719 C 9.078125 1.386719 9.136719 1.382812 9.195312 1.382812 C 9.28125 1.378906 9.28125 1.378906 9.367188 1.375 C 9.429688 1.375 9.488281 1.375 9.546875 1.371094 C 9.695312 1.367188 9.839844 1.363281 9.984375 1.359375 C 10 1.328125 10.015625 1.296875 10.03125 1.265625 C 10.3125 0.6875 10.707031 0.277344 11.324219 0.0507812 C 11.992188 -0.121094 12.691406 -0.0273438 13.257812 0.367188 Z M 13.257812 0.367188 "/>
</g>
</svg>
