<?xml version="1.0" encoding="UTF-8"?>
<svg xmlns="http://www.w3.org/2000/svg" xmlns:xlink="http://www.w3.org/1999/xlink" width="24px" height="24px" viewBox="0 0 24 24" version="1.1">
<g id="surface1">
<path style=" stroke:none;fill-rule:nonzero;fill:rgb(0%,0%,0%);fill-opacity:1;" d="M 2.769531 2.855469 C 2.8125 2.855469 2.855469 2.855469 2.902344 2.855469 C 3.050781 2.855469 3.195312 2.855469 3.34375 2.855469 C 3.449219 2.855469 3.558594 2.855469 3.664062 2.855469 C 3.949219 2.855469 4.238281 2.855469 4.527344 2.855469 C 4.824219 2.855469 5.125 2.855469 5.425781 2.855469 C 5.929688 2.855469 6.4375 2.855469 6.941406 2.855469 C 7.460938 2.855469 7.980469 2.855469 8.5 2.855469 C 8.546875 2.855469 8.546875 2.855469 8.597656 2.855469 C 8.757812 2.855469 8.917969 2.855469 9.078125 2.855469 C 10.410156 2.859375 11.746094 2.859375 13.078125 2.859375 C 13.054688 2.925781 13.035156 2.992188 13.011719 3.058594 C 12.992188 3.117188 12.992188 3.117188 12.972656 3.171875 C 12.941406 3.265625 12.910156 3.359375 12.878906 3.449219 C 12.660156 4.070312 12.542969 4.6875 12.515625 5.34375 C 12.515625 5.382812 12.511719 5.417969 12.507812 5.457031 C 12.5 5.808594 12.550781 6.15625 12.597656 6.503906 C 12.609375 6.613281 12.621094 6.722656 12.632812 6.832031 C 12.636719 6.871094 12.644531 6.90625 12.648438 6.945312 C 12.648438 6.972656 12.652344 7.003906 12.65625 7.03125 C 12.59375 7.03125 12.535156 7.03125 12.46875 7.03125 C 11.890625 7.035156 11.3125 7.039062 10.734375 7.042969 C 10.4375 7.042969 10.140625 7.046875 9.84375 7.046875 C 9.558594 7.046875 9.269531 7.050781 8.984375 7.054688 C 8.875 7.054688 8.765625 7.054688 8.65625 7.054688 C 8.503906 7.054688 8.351562 7.054688 8.195312 7.058594 C 8.152344 7.058594 8.105469 7.058594 8.058594 7.058594 C 8.015625 7.058594 7.976562 7.058594 7.933594 7.058594 C 7.894531 7.058594 7.859375 7.058594 7.824219 7.058594 C 7.714844 7.070312 7.714844 7.070312 7.640625 7.21875 C 7.65625 7.367188 7.65625 7.367188 7.6875 7.5 C 7.820312 7.542969 7.898438 7.554688 8.035156 7.554688 C 8.078125 7.554688 8.121094 7.554688 8.164062 7.554688 C 8.210938 7.554688 8.257812 7.554688 8.304688 7.554688 C 8.351562 7.558594 8.402344 7.558594 8.453125 7.558594 C 8.613281 7.558594 8.777344 7.5625 8.9375 7.5625 C 9.050781 7.5625 9.164062 7.5625 9.277344 7.566406 C 9.570312 7.566406 9.867188 7.570312 10.164062 7.570312 C 10.464844 7.574219 10.765625 7.578125 11.066406 7.578125 C 11.660156 7.585938 12.25 7.589844 12.84375 7.59375 C 12.898438 7.699219 12.953125 7.804688 13.007812 7.914062 C 13.03125 7.957031 13.03125 7.957031 13.054688 8.003906 C 13.125 8.140625 13.171875 8.234375 13.171875 8.390625 C 13.144531 8.390625 13.117188 8.390625 13.085938 8.390625 C 12.40625 8.394531 11.730469 8.398438 11.050781 8.402344 C 10.722656 8.40625 10.394531 8.410156 10.066406 8.410156 C 9.746094 8.410156 9.429688 8.414062 9.113281 8.417969 C 8.992188 8.417969 8.871094 8.417969 8.75 8.417969 C 8.582031 8.417969 8.414062 8.421875 8.246094 8.421875 C 8.195312 8.421875 8.144531 8.421875 8.089844 8.421875 C 8.046875 8.421875 8 8.425781 7.953125 8.425781 C 7.890625 8.425781 7.890625 8.425781 7.832031 8.425781 C 7.722656 8.429688 7.722656 8.429688 7.640625 8.53125 C 7.625 8.648438 7.625 8.648438 7.640625 8.765625 C 7.722656 8.867188 7.722656 8.867188 7.835938 8.871094 C 7.875 8.871094 7.917969 8.871094 7.960938 8.867188 C 8.007812 8.867188 8.058594 8.867188 8.105469 8.867188 C 8.160156 8.867188 8.214844 8.867188 8.269531 8.867188 C 8.382812 8.867188 8.496094 8.863281 8.613281 8.863281 C 8.675781 8.863281 8.734375 8.863281 8.800781 8.863281 C 8.992188 8.859375 9.183594 8.859375 9.375 8.859375 C 9.40625 8.859375 9.4375 8.859375 9.472656 8.859375 C 9.539062 8.859375 9.605469 8.859375 9.671875 8.859375 C 10.117188 8.859375 10.5625 8.855469 11.011719 8.851562 C 11.3125 8.847656 11.613281 8.847656 11.914062 8.847656 C 12.070312 8.847656 12.230469 8.847656 12.390625 8.847656 C 13.4375 8.828125 13.4375 8.828125 13.667969 9.019531 C 13.777344 9.148438 13.847656 9.269531 13.921875 9.421875 C 13.976562 9.488281 14.03125 9.558594 14.089844 9.621094 C 14.117188 9.652344 14.144531 9.679688 14.171875 9.710938 C 14.199219 9.738281 14.222656 9.769531 14.25 9.796875 C 14.285156 9.835938 14.285156 9.835938 14.320312 9.875 C 14.792969 10.382812 15.402344 10.738281 16.03125 11.015625 C 16.0625 11.027344 16.089844 11.042969 16.121094 11.054688 C 16.441406 11.195312 16.761719 11.304688 17.097656 11.394531 C 17.128906 11.402344 17.164062 11.410156 17.195312 11.421875 C 17.277344 11.441406 17.355469 11.464844 17.4375 11.484375 C 17.441406 12.859375 17.441406 14.234375 17.445312 15.613281 C 17.445312 15.773438 17.445312 15.9375 17.445312 16.101562 C 17.445312 16.132812 17.445312 16.164062 17.445312 16.199219 C 17.445312 16.722656 17.445312 17.246094 17.449219 17.769531 C 17.449219 18.304688 17.449219 18.84375 17.449219 19.378906 C 17.449219 19.683594 17.453125 19.984375 17.453125 20.285156 C 17.453125 20.570312 17.453125 20.855469 17.453125 21.136719 C 17.453125 21.242188 17.453125 21.347656 17.453125 21.449219 C 17.457031 22.242188 17.453125 22.886719 16.878906 23.484375 C 16.351562 23.972656 15.753906 24.015625 15.0625 24.011719 C 15.007812 24.011719 14.949219 24.011719 14.890625 24.011719 C 14.734375 24.011719 14.578125 24.011719 14.421875 24.011719 C 14.253906 24.011719 14.082031 24.011719 13.914062 24.011719 C 13.582031 24.011719 13.25 24.011719 12.917969 24.011719 C 12.652344 24.011719 12.382812 24.011719 12.113281 24.011719 C 12.054688 24.011719 12.054688 24.011719 11.996094 24.011719 C 11.917969 24.011719 11.839844 24.011719 11.761719 24.011719 C 11.03125 24.011719 10.300781 24.011719 9.570312 24.011719 C 8.941406 24.011719 8.316406 24.011719 7.691406 24.011719 C 6.960938 24.011719 6.234375 24.011719 5.503906 24.011719 C 5.425781 24.011719 5.351562 24.011719 5.273438 24.011719 C 5.234375 24.011719 5.195312 24.011719 5.15625 24.011719 C 4.886719 24.011719 4.617188 24.011719 4.351562 24.011719 C 4.023438 24.011719 3.695312 24.011719 3.367188 24.011719 C 3.199219 24.011719 3.03125 24.011719 2.867188 24.011719 C 2.683594 24.011719 2.503906 24.011719 2.320312 24.011719 C 2.269531 24.011719 2.214844 24.011719 2.164062 24.011719 C 1.542969 24.007812 0.949219 23.90625 0.472656 23.480469 C 0.0273438 22.992188 -0.0117188 22.441406 -0.015625 21.816406 C -0.015625 21.730469 -0.0195312 21.644531 -0.0195312 21.558594 C -0.0234375 21.4375 -0.0234375 21.3125 -0.0234375 21.1875 C -0.0273438 21.148438 -0.0273438 21.113281 -0.0273438 21.074219 C -0.0273438 20.882812 -0.0117188 20.753906 0.105469 20.601562 C 0.285156 20.4375 0.414062 20.433594 0.648438 20.429688 C 0.691406 20.429688 0.738281 20.429688 0.785156 20.429688 C 0.859375 20.429688 0.859375 20.429688 0.9375 20.429688 C 0.988281 20.429688 1.042969 20.429688 1.097656 20.429688 C 1.277344 20.429688 1.453125 20.429688 1.632812 20.429688 C 1.761719 20.429688 1.890625 20.429688 2.015625 20.429688 C 2.402344 20.425781 2.785156 20.425781 3.167969 20.425781 C 3.347656 20.425781 3.53125 20.425781 3.710938 20.425781 C 4.3125 20.425781 4.914062 20.425781 5.515625 20.425781 C 5.671875 20.425781 5.828125 20.421875 5.984375 20.421875 C 6.023438 20.421875 6.058594 20.421875 6.101562 20.421875 C 6.730469 20.421875 7.355469 20.421875 7.984375 20.421875 C 8.628906 20.417969 9.273438 20.417969 9.917969 20.417969 C 10.28125 20.417969 10.644531 20.417969 11.007812 20.417969 C 11.3125 20.414062 11.621094 20.414062 11.929688 20.414062 C 12.089844 20.414062 12.246094 20.414062 12.402344 20.414062 C 12.574219 20.414062 12.742188 20.414062 12.914062 20.414062 C 12.988281 20.414062 12.988281 20.414062 13.066406 20.414062 C 13.347656 20.414062 13.601562 20.441406 13.828125 20.625 C 13.9375 20.800781 13.933594 20.945312 13.9375 21.148438 C 13.9375 21.214844 13.9375 21.285156 13.941406 21.351562 C 13.941406 21.457031 13.941406 21.5625 13.941406 21.667969 C 13.949219 22.335938 14 22.925781 14.480469 23.4375 C 14.683594 23.628906 14.871094 23.730469 15.140625 23.8125 C 15.097656 23.769531 15.058594 23.726562 15.015625 23.683594 C 14.640625 23.246094 14.519531 22.652344 14.515625 22.09375 C 14.515625 22.015625 14.515625 21.941406 14.511719 21.863281 C 14.511719 21.746094 14.511719 21.628906 14.511719 21.511719 C 14.507812 21.398438 14.507812 21.28125 14.503906 21.167969 C 14.503906 21.113281 14.503906 21.113281 14.503906 21.0625 C 14.5 20.808594 14.441406 20.621094 14.34375 20.390625 C 14.328125 20.34375 14.3125 20.296875 14.296875 20.25 C 14.214844 20.203125 14.214844 20.203125 14.109375 20.15625 C 14.066406 20.125 14.023438 20.09375 13.980469 20.0625 C 13.660156 19.867188 13.332031 19.859375 12.964844 19.863281 C 12.894531 19.863281 12.894531 19.863281 12.820312 19.859375 C 12.660156 19.859375 12.5 19.859375 12.339844 19.859375 C 12.222656 19.859375 12.109375 19.859375 11.992188 19.859375 C 11.746094 19.859375 11.5 19.855469 11.25 19.855469 C 10.894531 19.855469 10.535156 19.855469 10.179688 19.851562 C 9.597656 19.851562 9.019531 19.847656 8.4375 19.847656 C 7.875 19.847656 7.3125 19.84375 6.746094 19.84375 C 6.710938 19.84375 6.679688 19.84375 6.640625 19.84375 C 6.46875 19.84375 6.292969 19.839844 6.117188 19.839844 C 4.671875 19.835938 3.226562 19.832031 1.78125 19.828125 C 1.777344 17.75 1.773438 15.671875 1.773438 13.59375 C 1.769531 13.351562 1.769531 13.105469 1.769531 12.859375 C 1.769531 12.808594 1.769531 12.761719 1.769531 12.710938 C 1.769531 11.921875 1.769531 11.128906 1.765625 10.339844 C 1.765625 9.527344 1.765625 8.714844 1.761719 7.90625 C 1.761719 7.40625 1.761719 6.902344 1.761719 6.402344 C 1.761719 6.058594 1.757812 5.714844 1.761719 5.375 C 1.761719 5.175781 1.761719 4.976562 1.757812 4.777344 C 1.757812 4.597656 1.757812 4.417969 1.757812 4.234375 C 1.757812 4.167969 1.757812 4.105469 1.757812 4.039062 C 1.753906 3.671875 1.765625 3.40625 1.96875 3.09375 C 2.21875 2.855469 2.433594 2.851562 2.769531 2.855469 Z M 3.65625 7.171875 C 3.375 7.585938 3.289062 7.890625 3.328125 8.390625 C 3.40625 8.753906 3.597656 9.011719 3.890625 9.234375 C 4.21875 9.433594 4.570312 9.507812 4.949219 9.441406 C 5.371094 9.328125 5.6875 9.050781 5.910156 8.679688 C 6.050781 8.371094 6.0625 7.960938 5.953125 7.644531 C 5.9375 7.613281 5.921875 7.582031 5.90625 7.546875 C 5.722656 7.621094 5.609375 7.742188 5.472656 7.882812 C 5.425781 7.933594 5.378906 7.980469 5.332031 8.03125 C 5.257812 8.105469 5.183594 8.183594 5.109375 8.257812 C 5.035156 8.335938 4.964844 8.40625 4.894531 8.480469 C 4.828125 8.546875 4.828125 8.546875 4.761719 8.617188 C 4.636719 8.722656 4.570312 8.757812 4.40625 8.765625 C 4.132812 8.640625 3.945312 8.410156 3.796875 8.15625 C 3.765625 8 3.777344 7.894531 3.796875 7.734375 C 4.089844 7.671875 4.089844 7.671875 4.253906 7.746094 C 4.359375 7.828125 4.359375 7.828125 4.5 7.96875 C 4.808594 7.660156 5.117188 7.351562 5.4375 7.03125 C 5.214844 6.808594 4.980469 6.742188 4.667969 6.730469 C 4.277344 6.742188 3.929688 6.886719 3.65625 7.171875 Z M 3.707031 11.523438 C 3.382812 11.867188 3.296875 12.175781 3.308594 12.644531 C 3.339844 12.882812 3.433594 13.066406 3.5625 13.265625 C 3.589844 13.308594 3.617188 13.351562 3.648438 13.398438 C 3.925781 13.675781 4.257812 13.828125 4.652344 13.847656 C 4.996094 13.839844 5.257812 13.726562 5.542969 13.542969 C 5.898438 13.167969 6.011719 12.828125 6.007812 12.324219 C 6 12.171875 5.96875 12.046875 5.90625 11.90625 C 5.636719 12.128906 5.390625 12.371094 5.144531 12.621094 C 5.070312 12.695312 4.996094 12.773438 4.921875 12.847656 C 4.886719 12.878906 4.855469 12.914062 4.824219 12.949219 C 4.695312 13.066406 4.621094 13.121094 4.445312 13.136719 C 4.171875 13.089844 4.003906 12.816406 3.84375 12.609375 C 3.773438 12.46875 3.789062 12.34375 3.796875 12.1875 C 3.890625 12.09375 3.890625 12.09375 4.042969 12.074219 C 4.21875 12.09375 4.21875 12.09375 4.5 12.328125 C 4.808594 12.019531 5.117188 11.710938 5.4375 11.390625 C 4.878906 10.972656 4.207031 11.050781 3.707031 11.523438 Z M 7.644531 11.5 C 7.578125 11.582031 7.578125 11.582031 7.601562 11.726562 C 7.613281 11.769531 7.628906 11.8125 7.640625 11.859375 C 7.769531 11.921875 7.871094 11.914062 8.015625 11.914062 C 8.105469 11.914062 8.105469 11.914062 8.199219 11.914062 C 8.265625 11.914062 8.332031 11.914062 8.402344 11.914062 C 8.472656 11.914062 8.542969 11.914062 8.613281 11.914062 C 8.804688 11.914062 8.996094 11.914062 9.1875 11.914062 C 9.308594 11.914062 9.425781 11.914062 9.546875 11.917969 C 9.921875 11.917969 10.292969 11.917969 10.667969 11.917969 C 11.101562 11.917969 11.535156 11.917969 11.964844 11.917969 C 12.300781 11.921875 12.632812 11.921875 12.96875 11.921875 C 13.167969 11.921875 13.367188 11.921875 13.566406 11.921875 C 13.753906 11.921875 13.941406 11.921875 14.128906 11.921875 C 14.199219 11.921875 14.265625 11.921875 14.335938 11.921875 C 14.429688 11.925781 14.523438 11.925781 14.617188 11.921875 C 14.671875 11.921875 14.722656 11.921875 14.777344 11.921875 C 14.90625 11.917969 14.90625 11.917969 14.996094 11.84375 C 15.0625 11.761719 15.0625 11.761719 15.039062 11.621094 C 15.019531 11.550781 15.019531 11.550781 15 11.484375 C 14.871094 11.421875 14.769531 11.429688 14.625 11.429688 C 14.5625 11.429688 14.503906 11.429688 14.441406 11.429688 C 14.375 11.429688 14.308594 11.429688 14.238281 11.429688 C 14.167969 11.429688 14.097656 11.429688 14.027344 11.429688 C 13.835938 11.429688 13.644531 11.429688 13.453125 11.429688 C 13.332031 11.429688 13.214844 11.429688 13.09375 11.425781 C 12.71875 11.425781 12.347656 11.425781 11.972656 11.425781 C 11.539062 11.425781 11.105469 11.425781 10.675781 11.425781 C 10.339844 11.421875 10.007812 11.421875 9.671875 11.421875 C 9.472656 11.421875 9.273438 11.421875 9.074219 11.421875 C 8.886719 11.421875 8.699219 11.421875 8.511719 11.421875 C 8.441406 11.421875 8.375 11.421875 8.304688 11.421875 C 8.210938 11.417969 8.117188 11.417969 8.023438 11.421875 C 7.96875 11.421875 7.917969 11.421875 7.863281 11.421875 C 7.734375 11.425781 7.734375 11.425781 7.644531 11.5 Z M 7.59375 12.890625 C 7.5625 13.007812 7.5625 13.007812 7.59375 13.125 C 7.644531 13.207031 7.644531 13.207031 7.734375 13.265625 C 7.867188 13.285156 7.867188 13.285156 8.023438 13.285156 C 8.082031 13.285156 8.144531 13.285156 8.207031 13.285156 C 8.273438 13.285156 8.339844 13.285156 8.40625 13.285156 C 8.476562 13.285156 8.546875 13.285156 8.617188 13.285156 C 8.808594 13.285156 9 13.285156 9.191406 13.285156 C 9.390625 13.285156 9.59375 13.285156 9.792969 13.285156 C 10.128906 13.285156 10.464844 13.285156 10.800781 13.285156 C 11.191406 13.28125 11.578125 13.285156 11.96875 13.285156 C 12.300781 13.285156 12.636719 13.285156 12.96875 13.285156 C 13.167969 13.285156 13.367188 13.285156 13.566406 13.285156 C 13.753906 13.285156 13.941406 13.285156 14.128906 13.285156 C 14.199219 13.285156 14.265625 13.285156 14.335938 13.285156 C 14.429688 13.285156 14.523438 13.285156 14.617188 13.285156 C 14.695312 13.285156 14.695312 13.285156 14.777344 13.285156 C 14.90625 13.277344 14.90625 13.277344 14.992188 13.203125 C 15.070312 13.089844 15.070312 13.023438 15.046875 12.890625 C 14.898438 12.742188 14.777344 12.730469 14.570312 12.730469 C 14.511719 12.730469 14.453125 12.730469 14.390625 12.730469 C 14.328125 12.730469 14.261719 12.730469 14.195312 12.730469 C 14.128906 12.730469 14.058594 12.730469 13.988281 12.730469 C 13.800781 12.730469 13.617188 12.730469 13.429688 12.730469 C 13.234375 12.730469 13.035156 12.730469 12.839844 12.730469 C 12.511719 12.730469 12.183594 12.730469 11.855469 12.730469 C 11.472656 12.734375 11.09375 12.730469 10.714844 12.730469 C 10.386719 12.730469 10.0625 12.730469 9.734375 12.730469 C 9.539062 12.730469 9.34375 12.730469 9.148438 12.730469 C 8.964844 12.730469 8.78125 12.730469 8.597656 12.730469 C 8.53125 12.730469 8.464844 12.730469 8.398438 12.730469 C 8.304688 12.730469 8.214844 12.730469 8.121094 12.730469 C 8.042969 12.730469 8.042969 12.730469 7.964844 12.730469 C 7.808594 12.753906 7.71875 12.792969 7.59375 12.890625 Z M 3.632812 15.953125 C 3.570312 16.035156 3.570312 16.035156 3.515625 16.125 C 3.496094 16.15625 3.476562 16.1875 3.457031 16.21875 C 3.28125 16.546875 3.265625 16.917969 3.359375 17.277344 C 3.507812 17.652344 3.765625 17.941406 4.132812 18.109375 C 4.46875 18.234375 4.859375 18.25 5.195312 18.113281 C 5.617188 17.894531 5.851562 17.601562 6 17.15625 C 6.003906 17.058594 6.007812 16.957031 6.007812 16.859375 C 6.007812 16.804688 6.011719 16.753906 6.011719 16.699219 C 6 16.550781 5.96875 16.445312 5.90625 16.3125 C 5.726562 16.386719 5.613281 16.5 5.476562 16.640625 C 5.457031 16.660156 5.433594 16.683594 5.410156 16.707031 C 5.339844 16.78125 5.269531 16.851562 5.195312 16.925781 C 5.125 16.996094 5.054688 17.070312 4.984375 17.140625 C 4.917969 17.207031 4.855469 17.273438 4.789062 17.339844 C 4.671875 17.453125 4.625 17.480469 4.460938 17.503906 C 4.257812 17.476562 4.210938 17.402344 4.078125 17.25 C 4.050781 17.226562 4.027344 17.199219 4 17.175781 C 3.859375 17.03125 3.777344 16.925781 3.769531 16.71875 C 3.777344 16.664062 3.789062 16.605469 3.796875 16.546875 C 3.9375 16.453125 3.9375 16.453125 4.09375 16.457031 C 4.265625 16.5 4.265625 16.5 4.5 16.734375 C 4.808594 16.425781 5.117188 16.117188 5.4375 15.796875 C 5.207031 15.566406 4.96875 15.507812 4.652344 15.488281 C 4.261719 15.5 3.898438 15.664062 3.632812 15.953125 Z M 7.59375 15.9375 C 7.5625 16.054688 7.5625 16.054688 7.59375 16.171875 C 7.746094 16.320312 7.863281 16.332031 8.070312 16.332031 C 8.160156 16.332031 8.160156 16.332031 8.25 16.332031 C 8.316406 16.332031 8.382812 16.332031 8.449219 16.332031 C 8.519531 16.332031 8.589844 16.332031 8.65625 16.332031 C 8.847656 16.332031 9.035156 16.332031 9.222656 16.332031 C 9.421875 16.332031 9.617188 16.332031 9.816406 16.332031 C 10.148438 16.332031 10.476562 16.332031 10.808594 16.332031 C 11.191406 16.328125 11.574219 16.332031 11.957031 16.332031 C 12.289062 16.332031 12.617188 16.332031 12.945312 16.332031 C 13.140625 16.332031 13.339844 16.332031 13.535156 16.332031 C 13.71875 16.332031 13.902344 16.332031 14.089844 16.332031 C 14.15625 16.332031 14.222656 16.332031 14.292969 16.332031 C 14.382812 16.332031 14.476562 16.332031 14.570312 16.332031 C 14.621094 16.332031 14.671875 16.332031 14.726562 16.332031 C 14.875 16.308594 14.941406 16.277344 15.046875 16.171875 C 15.078125 16.054688 15.078125 16.054688 15.046875 15.9375 C 14.894531 15.789062 14.777344 15.777344 14.570312 15.777344 C 14.511719 15.777344 14.449219 15.777344 14.390625 15.777344 C 14.324219 15.777344 14.257812 15.777344 14.191406 15.777344 C 14.121094 15.777344 14.050781 15.777344 13.984375 15.777344 C 13.792969 15.777344 13.605469 15.777344 13.417969 15.777344 C 13.21875 15.777344 13.023438 15.777344 12.824219 15.777344 C 12.492188 15.777344 12.164062 15.777344 11.832031 15.777344 C 11.449219 15.78125 11.066406 15.777344 10.683594 15.777344 C 10.351562 15.777344 10.023438 15.777344 9.695312 15.777344 C 9.5 15.777344 9.300781 15.777344 9.105469 15.777344 C 8.921875 15.777344 8.738281 15.777344 8.550781 15.777344 C 8.484375 15.777344 8.417969 15.777344 8.347656 15.777344 C 8.257812 15.777344 8.164062 15.777344 8.070312 15.777344 C 8.019531 15.777344 7.96875 15.777344 7.914062 15.777344 C 7.765625 15.800781 7.699219 15.832031 7.59375 15.9375 Z M 7.644531 17.21875 C 7.582031 17.300781 7.582031 17.300781 7.597656 17.441406 C 7.625 17.578125 7.625 17.578125 7.71875 17.632812 C 7.855469 17.683594 7.96875 17.683594 8.113281 17.683594 C 8.171875 17.683594 8.230469 17.683594 8.292969 17.683594 C 8.355469 17.683594 8.421875 17.683594 8.488281 17.683594 C 8.554688 17.683594 8.625 17.683594 8.691406 17.683594 C 8.878906 17.6875 9.0625 17.6875 9.25 17.6875 C 9.40625 17.6875 9.558594 17.6875 9.714844 17.6875 C 10.082031 17.6875 10.449219 17.6875 10.8125 17.6875 C 11.191406 17.6875 11.570312 17.6875 11.945312 17.6875 C 12.269531 17.6875 12.59375 17.6875 12.917969 17.6875 C 13.113281 17.6875 13.304688 17.6875 13.5 17.691406 C 13.683594 17.691406 13.863281 17.691406 14.046875 17.691406 C 14.113281 17.6875 14.179688 17.691406 14.246094 17.691406 C 14.339844 17.691406 14.429688 17.691406 14.519531 17.6875 C 14.570312 17.6875 14.621094 17.6875 14.675781 17.6875 C 14.832031 17.667969 14.917969 17.621094 15.046875 17.53125 C 15.035156 17.421875 15.019531 17.3125 15 17.203125 C 14.871094 17.140625 14.769531 17.148438 14.625 17.148438 C 14.5625 17.148438 14.503906 17.148438 14.441406 17.148438 C 14.375 17.148438 14.308594 17.148438 14.238281 17.148438 C 14.167969 17.148438 14.097656 17.148438 14.027344 17.148438 C 13.835938 17.148438 13.644531 17.148438 13.453125 17.148438 C 13.332031 17.148438 13.214844 17.148438 13.09375 17.144531 C 12.71875 17.144531 12.347656 17.144531 11.972656 17.144531 C 11.539062 17.144531 11.105469 17.144531 10.675781 17.144531 C 10.339844 17.140625 10.007812 17.140625 9.671875 17.140625 C 9.472656 17.140625 9.273438 17.140625 9.074219 17.140625 C 8.886719 17.140625 8.699219 17.140625 8.511719 17.140625 C 8.441406 17.140625 8.375 17.140625 8.304688 17.140625 C 8.210938 17.136719 8.117188 17.136719 8.023438 17.140625 C 7.96875 17.140625 7.917969 17.140625 7.863281 17.140625 C 7.734375 17.144531 7.734375 17.144531 7.644531 17.21875 Z M 7.644531 17.21875 "/>
<path style=" stroke:none;fill-rule:nonzero;fill:rgb(0%,0%,0%);fill-opacity:1;" d="M 22.125 1.359375 C 22.15625 1.386719 22.191406 1.410156 22.222656 1.4375 C 23.203125 2.238281 23.871094 3.574219 24 4.828125 C 24.050781 5.605469 24.042969 6.375 23.8125 7.125 C 23.796875 7.171875 23.796875 7.171875 23.78125 7.222656 C 23.566406 7.914062 23.214844 8.550781 22.734375 9.09375 C 22.683594 9.15625 22.683594 9.15625 22.632812 9.21875 C 22.308594 9.597656 21.925781 9.886719 21.515625 10.171875 C 21.472656 10.199219 21.433594 10.230469 21.390625 10.257812 C 20.25 10.992188 18.726562 11.203125 17.414062 10.941406 C 15.941406 10.621094 14.691406 9.746094 13.875 8.484375 C 13.453125 7.796875 13.207031 7.082031 13.078125 6.28125 C 13.070312 6.242188 13.066406 6.199219 13.058594 6.15625 C 12.886719 4.804688 13.28125 3.378906 14.078125 2.285156 C 14.152344 2.195312 14.222656 2.105469 14.296875 2.015625 C 14.332031 1.972656 14.367188 1.929688 14.40625 1.882812 C 14.875 1.339844 15.441406 0.941406 16.078125 0.609375 C 16.121094 0.585938 16.164062 0.566406 16.207031 0.542969 C 18.15625 -0.410156 20.492188 -0.00390625 22.125 1.359375 Z M 18.273438 2.183594 C 18.15625 2.335938 18.164062 2.433594 18.167969 2.625 C 18.167969 2.65625 18.167969 2.6875 18.167969 2.722656 C 18.167969 2.828125 18.167969 2.9375 18.167969 3.042969 C 18.167969 3.117188 18.167969 3.191406 18.171875 3.265625 C 18.171875 3.460938 18.171875 3.65625 18.175781 3.851562 C 18.175781 4.050781 18.175781 4.25 18.179688 4.449219 C 18.179688 4.84375 18.183594 5.234375 18.1875 5.625 C 18.113281 5.566406 18.039062 5.507812 17.964844 5.445312 C 17.921875 5.414062 17.878906 5.378906 17.835938 5.347656 C 17.695312 5.230469 17.5625 5.109375 17.429688 4.984375 C 17.148438 4.714844 17.148438 4.714844 16.828125 4.5 C 16.695312 4.515625 16.695312 4.515625 16.59375 4.59375 C 16.492188 4.722656 16.492188 4.722656 16.496094 4.84375 C 16.570312 5.03125 16.707031 5.125 16.859375 5.253906 C 16.925781 5.308594 16.988281 5.359375 17.054688 5.414062 C 17.085938 5.441406 17.117188 5.46875 17.152344 5.496094 C 17.273438 5.597656 17.390625 5.699219 17.511719 5.800781 C 17.640625 5.917969 17.773438 6.027344 17.90625 6.140625 C 17.972656 6.199219 17.972656 6.199219 18.042969 6.257812 C 18.085938 6.292969 18.125 6.324219 18.167969 6.359375 C 18.203125 6.390625 18.238281 6.417969 18.273438 6.449219 C 18.386719 6.523438 18.472656 6.550781 18.609375 6.5625 C 18.753906 6.480469 18.789062 6.441406 18.84375 6.28125 C 18.847656 6.15625 18.851562 6.035156 18.851562 5.910156 C 18.851562 5.875 18.851562 5.835938 18.851562 5.796875 C 18.851562 5.671875 18.851562 5.550781 18.851562 5.425781 C 18.855469 5.339844 18.855469 5.25 18.855469 5.164062 C 18.855469 4.984375 18.855469 4.800781 18.855469 4.621094 C 18.855469 4.390625 18.855469 4.15625 18.859375 3.925781 C 18.859375 3.746094 18.859375 3.566406 18.859375 3.386719 C 18.859375 3.304688 18.859375 3.21875 18.859375 3.132812 C 18.859375 3.011719 18.859375 2.890625 18.859375 2.773438 C 18.859375 2.738281 18.859375 2.703125 18.863281 2.664062 C 18.859375 2.457031 18.835938 2.320312 18.703125 2.15625 C 18.476562 2.085938 18.476562 2.085938 18.273438 2.183594 Z M 18.273438 2.183594 "/>
</g>
</svg>
