<?xml version="1.0" encoding="UTF-8"?>
<svg version="1.1" xmlns="http://www.w3.org/2000/svg" width="512" height="512">
<path d="M0 0 C1.26089416 -0.01043099 2.52178831 -0.02086198 3.82089138 -0.03160906 C5.21762761 -0.02296108 6.61436153 -0.01393447 8.01109314 -0.00457001 C9.49677931 -0.00917872 10.98246092 -0.01553143 12.46813297 -0.02347898 C16.55187362 -0.0401998 20.63524107 -0.0319136 24.71898317 -0.01953411 C29.12260263 -0.01049714 33.52615717 -0.02444661 37.92976379 -0.0354538 C46.55688565 -0.0532581 55.18386847 -0.04939054 63.81099582 -0.03780323 C70.82123886 -0.02877669 77.83144288 -0.02754153 84.84169006 -0.0318985 C86.33720354 -0.0328179 86.33720354 -0.0328179 87.8629294 -0.03375587 C89.88821309 -0.03503475 91.91349676 -0.0363316 93.93878043 -0.03764623 C112.93840123 -0.04905763 131.93794489 -0.03592955 150.93755305 -0.01444477 C167.2468544 0.00342672 183.55604189 0.00032277 199.86534119 -0.01811981 C218.79608632 -0.03951664 237.7267638 -0.04795894 256.65751934 -0.03567076 C258.67543219 -0.03439653 260.69334506 -0.03313905 262.71125793 -0.0318985 C263.70415913 -0.0312814 264.69706033 -0.03066429 265.72004944 -0.03002849 C272.72342205 -0.02657203 279.72675182 -0.03241032 286.7301178 -0.04181671 C295.26268589 -0.05302488 303.79510676 -0.05002157 312.32765794 -0.02869374 C316.6827176 -0.01816737 321.03753162 -0.01408839 325.39258957 -0.02729034 C329.37740137 -0.03918741 333.36173926 -0.03269652 337.34650791 -0.01138014 C338.7899055 -0.00690261 340.23334292 -0.00920612 341.67671502 -0.01888329 C343.63543191 -0.0310108 345.59426058 -0.01620362 347.552948 0 C348.64193358 0.00064941 349.73091917 0.00129882 350.85290432 0.00196791 C354.50185239 0.62776806 356.16943838 1.91730718 358.776474 4.50336456 C359.78264166 7.52186755 359.91304669 9.56632354 359.93469238 12.72350311 C359.94937561 14.34520668 359.94937561 14.34520668 359.96435547 15.99967194 C359.97011093 17.18578064 359.97586639 18.37188934 359.98179626 19.59394073 C359.99169586 20.84283585 360.00159546 22.09173096 360.01179504 23.37847137 C360.0379912 26.80379923 360.05984978 30.22910367 360.07979703 33.65447021 C360.10166172 37.23395405 360.12904805 40.81339551 360.15585327 44.39284515 C360.20577362 51.17133819 360.25071489 57.94985477 360.29387563 64.72839385 C360.34325363 72.44539412 360.39816967 80.16235184 360.45355523 87.87931097 C360.56736518 103.75395619 360.67420637 119.62864053 360.776474 135.50336456 C361.17766449 134.81560944 361.57885498 134.12785431 361.99220276 133.41925812 C371.28672791 117.48578644 371.28672791 117.48578644 373.11018372 114.36077118 C374.12194367 112.62577361 375.13285963 110.89028301 376.14222717 109.15389252 C383.368583 96.7262364 390.68889254 88.60763653 404.66319275 83.86273956 C416.99088306 81.7663486 427.96981273 83.73621813 438.588974 90.31586456 C446.78375368 96.17345218 452.62965512 104.56190621 454.776474 114.50336456 C454.94991973 117.3723275 455.05318568 120.19564167 455.088974 123.06586456 C455.11797791 123.81416534 455.14698181 124.56246613 455.17686462 125.33344269 C455.29819715 136.31870281 450.07444045 145.28796945 444.526474 154.44086456 C443.26990546 156.55333731 442.0147547 158.66665389 440.760849 160.78070831 C440.10793884 161.87753937 439.45502869 162.97437042 438.78233337 164.10443878 C435.72737535 169.28106069 432.75502713 174.5039426 429.78489685 179.7294693 C423.94569377 190.00108767 418.03593438 200.22921761 412.0655365 210.42523956 C407.58481134 218.08910431 403.17153176 225.79022291 398.776474 233.50336456 C393.24669248 243.20692526 387.66342559 252.87727253 382.02378845 262.51752472 C377.47847018 270.28992107 372.96426375 278.07984414 368.463974 285.87836456 C367.81098328 287.00903351 367.15799255 288.13970245 366.48521423 289.30463409 C365.88394714 290.34732452 365.28268005 291.39001495 364.66319275 292.46430206 C364.12911804 293.39033234 363.59504333 294.31636261 363.04478455 295.27045441 C360.86313804 299.11132811 360.6481873 301.31825426 360.63844299 305.78444672 C360.63562171 306.43599611 360.63280043 307.08754551 360.62989366 307.75883883 C360.62153021 309.95209434 360.62020792 312.14529947 360.61875916 314.33856964 C360.6140922 315.90708814 360.60894883 317.47560529 360.60336304 319.04412079 C360.59207138 322.42719458 360.58364235 325.8102595 360.5772438 329.19334602 C360.56657704 334.5422991 360.54633567 339.89118863 360.52412415 345.24010468 C360.4621556 360.4522587 360.40818153 375.66440929 360.37510681 390.87665558 C360.35676844 399.27416173 360.32784206 407.67156177 360.2871021 416.06898993 C360.26601825 420.51418606 360.2505729 424.95924838 360.24829483 429.40449715 C360.2461492 433.58651321 360.2302887 437.76825072 360.20390511 441.95018196 C360.19670728 443.48483495 360.19461349 445.01952166 360.19800758 446.55418777 C360.20190262 448.65023226 360.1874482 450.7453872 360.16847229 452.84133148 C360.16516214 454.0140199 360.161852 455.18670832 360.15844154 456.39493275 C359.73140061 459.87016946 358.87129294 461.72124499 356.776474 464.50336456 C353.2857746 466.83049749 351.92590745 466.75603996 347.80183697 466.76342678 C346.54554161 466.77049237 345.28924625 466.77755796 343.99488133 466.78483766 C342.59295158 466.78258609 341.19102213 466.78013957 339.78909302 466.77751923 C338.30584912 466.78196931 336.8226076 466.7872826 335.3393696 466.79338795 C331.25314653 466.807606 327.16699938 466.80923052 323.08075511 466.80879104 C318.67777287 466.81043591 314.27482221 466.8234962 309.87185669 466.83498383 C300.23970773 466.85785855 290.60758076 466.86575706 280.97540832 466.87081027 C274.96358584 466.87406436 268.95176979 466.88058507 262.93995094 466.88781166 C246.30211562 466.90738064 229.66428628 466.92378316 213.02643871 466.92668819 C211.9612134 466.92687576 210.89598808 466.92706333 209.79848321 466.92725659 C207.63891399 466.92762284 205.47934477 466.92798654 203.31977554 466.9283477 C201.71170676 466.92862192 201.71170676 466.92862192 200.07115173 466.92890167 C198.46112531 466.9291725 198.46112531 466.9291725 196.81857309 466.92944879 C179.42133898 466.93299141 162.02422857 466.96001797 144.62703737 466.99739956 C126.77497087 467.03545228 108.9229658 467.05484545 91.07085782 467.05514771 C81.04374032 467.05573295 71.01677038 467.06426829 60.98969078 467.09314537 C52.4523412 467.11761868 43.91519298 467.12496961 35.37781783 467.10989784 C31.02055796 467.10271233 26.66369605 467.1036566 22.30648041 467.12630844 C18.31838698 467.146843 14.33099886 467.14435054 10.34291355 467.1234336 C8.89942837 467.11992803 7.45589288 467.12489384 6.01247372 467.13913804 C-6.11516155 467.25111416 -6.11516155 467.25111416 -10.05904675 464.21494389 C-12.98753312 460.54624479 -13.34890743 457.75553623 -13.34657383 453.15368271 C-13.34856488 452.28531981 -13.35055593 451.41695691 -13.35260731 450.52227998 C-13.34969447 449.57286711 -13.34678163 448.62345425 -13.34378052 447.6452713 C-13.34463494 446.63321617 -13.34548937 445.62116104 -13.34636968 444.57843757 C-13.34802059 441.17741883 -13.34250942 437.77644909 -13.33705139 434.37543488 C-13.33676941 431.94137829 -13.33692747 429.50732161 -13.3374939 427.07326508 C-13.33772183 421.82785567 -13.33488007 416.5824574 -13.32925606 411.33705139 C-13.32112996 403.75306947 -13.3185247 396.16909357 -13.31726807 388.58510777 C-13.3150793 376.28067564 -13.30842394 363.97625013 -13.29896545 351.67182159 C-13.28978682 339.71902245 -13.28270819 327.76622511 -13.27845764 315.81342316 C-13.27819492 315.07668614 -13.27793219 314.33994913 -13.27766151 313.58088675 C-13.27635647 309.8849037 -13.27509277 306.18892064 -13.27384961 302.49293756 C-13.26348244 271.82974182 -13.24579454 241.16655411 -13.223526 210.50336456 C-13.87313293 210.52431183 -14.52273987 210.54525909 -15.19203186 210.56684113 C-18.18153433 210.65082039 -21.17078759 210.70228056 -24.161026 210.75336456 C-25.69339905 210.803638 -25.69339905 210.803638 -27.25672913 210.85492706 C-35.88249645 210.96516051 -42.91190169 209.06055481 -49.536026 203.31586456 C-50.15090881 202.80668488 -50.76579163 202.29750519 -51.39930725 201.77289581 C-56.84272091 195.00068311 -57.81324769 187.99790401 -57.75697327 179.5426712 C-57.76558884 178.48452713 -57.77420441 177.42638306 -57.78308105 176.33617401 C-57.80565912 172.86170265 -57.79901669 169.38804323 -57.78993225 165.91352081 C-57.79517145 163.48411064 -57.80144901 161.0547025 -57.80871582 158.62529755 C-57.81910506 153.54231928 -57.81457951 148.45962122 -57.79994202 143.37665558 C-57.78275787 136.87911795 -57.80625403 130.38246495 -57.84143162 123.88502598 C-57.8634447 118.87052863 -57.86195453 113.85624166 -57.85366631 108.84171104 C-57.85284892 106.44684059 -57.85967131 104.05195436 -57.87443733 101.65712929 C-57.89195442 98.30202521 -57.87727923 94.94849472 -57.85462952 91.59345245 C-57.86632172 90.61496338 -57.87801392 89.6364743 -57.89006042 88.62833405 C-57.78286986 80.78175421 -55.61333062 74.22778717 -50.26310062 68.34941959 C-43.46393834 61.80179999 -36.55406051 60.1517044 -27.34461975 60.23969269 C-26.31465881 60.26482941 -25.28469788 60.28996613 -24.223526 60.31586456 C-23.16262756 60.32939972 -22.10172913 60.34293488 -21.00868225 60.35688019 C-18.41308913 60.39195577 -15.81858533 60.44110613 -13.223526 60.50336456 C-13.23018784 59.56162132 -13.23018784 59.56162132 -13.23698425 58.60085297 C-13.28124875 52.0634158 -13.31140546 45.52602126 -13.33338928 38.98847198 C-13.34344361 36.54900127 -13.35708892 34.10954259 -13.37440491 31.67011261 C-13.39867782 28.16267677 -13.41001491 24.65540035 -13.4188385 21.14789581 C-13.42916107 20.0581395 -13.43948364 18.96838318 -13.45011902 17.84560394 C-13.45034561 16.3145829 -13.45034561 16.3145829 -13.45057678 14.75263214 C-13.45501801 13.85772568 -13.45945923 12.96281921 -13.46403503 12.04079437 C-13.06471203 7.82783791 -12.09749307 5.34852163 -9.03135204 2.3834548 C-5.70290545 0.15476262 -3.97229166 0.00236885 0 0 Z M7.776474 21.50336456 C7.776474 34.37336456 7.776474 47.24336456 7.776474 60.50336456 C11.29971344 60.50701019 14.82295288 60.51065582 18.45295715 60.51441193 C50.77649045 60.54970336 83.09994052 60.60474938 115.4234032 60.68128552 C119.66153583 60.69130273 123.89966884 60.7011469 128.13780212 60.71088409 C129.40338344 60.71379615 129.40338344 60.71379615 130.69453205 60.71676704 C144.34830961 60.74777143 158.00207038 60.76476333 171.6558765 60.77655879 C185.67038646 60.78897844 199.68480837 60.81649821 213.69926274 60.85797763 C222.34398454 60.88308975 230.9885603 60.89648351 239.63331909 60.89479414 C245.56478527 60.89476434 251.49610288 60.90942809 257.42751114 60.93552884 C260.84749291 60.95014799 264.26717006 60.95840104 267.68717766 60.94916725 C271.40182781 60.94252804 275.1155933 60.9604485 278.83015442 60.98438263 C279.90216437 60.97662221 280.97417433 60.96886179 282.07866943 60.96086621 C290.04623269 61.05155763 296.97569586 62.5918892 303.39756775 67.51117706 C303.99698181 68.20984894 304.59639587 68.90852081 305.213974 69.62836456 C305.83143494 70.31156769 306.44889587 70.99477081 307.08506775 71.69867706 C311.42165303 78.88959677 312.22009905 86.60725574 312.16465759 94.84320831 C312.17254303 96.31360062 312.17254303 96.31360062 312.18058777 97.81369781 C312.1936874 101.02292015 312.18508529 104.23163803 312.1749115 107.44086456 C312.17693511 109.68948206 312.17984894 111.93809891 312.18360901 114.18671417 C312.18801879 118.88705476 312.18164465 123.5872237 312.16758728 128.28754425 C312.15049642 134.29274411 312.16034481 140.29754162 312.17830467 146.30272675 C312.18917886 150.94231919 312.18567949 155.58181727 312.1779213 160.22141266 C312.17592934 162.43485309 312.17834301 164.64830228 312.18535995 166.86173248 C312.19303435 169.96255733 312.18128648 173.06274318 312.16465759 176.16352081 C312.17073029 177.06563293 312.17680298 177.96774506 312.18305969 178.89719391 C312.10360613 186.95142032 310.77897789 195.2208446 305.213974 201.37836456 C304.61455994 202.07703644 304.01514587 202.77570831 303.39756775 203.49555206 C295.92969395 209.2160992 287.97290458 210.08853204 278.83015442 210.0223465 C277.08387007 210.03359837 277.08387007 210.03359837 275.30230725 210.04507756 C272.09806463 210.06176981 268.89440743 210.06082131 265.69015169 210.05217004 C262.22466926 210.04720109 258.75929551 210.06533986 255.29385376 210.08058929 C249.2987857 210.1038463 243.30383842 210.11265229 237.30872726 210.11148071 C228.64096701 210.10980798 219.97336725 210.13018166 211.30564989 210.15583602 C197.2409194 210.19687003 183.17621787 210.22021798 169.11143494 210.23236847 C155.45352895 210.24420551 141.79567775 210.26446421 128.13780212 210.29584503 C127.28652874 210.29779055 126.43525536 210.29973606 125.55818582 210.30174053 C118.90009314 210.31702254 112.24200164 210.33279103 105.58391047 210.34871316 C72.98144058 210.42655415 40.37904995 210.46198548 7.776474 210.50336456 C7.776474 288.05336456 7.776474 365.60336456 7.776474 445.50336456 C117.006474 445.50336456 226.236474 445.50336456 338.776474 445.50336456 C338.776474 409.86336456 338.776474 374.22336456 338.776474 337.50336456 C334.98599248 341.95339738 334.98599248 341.95339738 333.34873962 345.08417511 C331.45549385 347.99724535 329.53307126 349.33169098 326.620224 351.21039581 C325.59670837 351.88006378 324.57319275 352.54973175 323.5186615 353.23969269 C322.44873962 353.92482941 321.37881775 354.60996613 320.276474 355.31586456 C313.2167707 359.8924092 306.26742905 364.5350463 299.49131775 369.52362823 C294.90558149 372.86766918 290.21701574 376.05883126 285.526474 379.25336456 C284.58545837 379.89918488 283.64444275 380.54500519 282.6749115 381.21039581 C267.86091126 391.31462286 267.86091126 391.31462286 261.776474 390.50336456 C258.43382195 389.29629577 257.82942834 388.58279607 255.776474 385.50336456 C254.92532285 376.4186449 256.17128749 367.18944385 257.2374115 358.17133331 C257.3900514 356.84149947 257.54219132 355.51160815 257.69386292 354.18166351 C258.01036249 351.42057678 258.33187979 348.66013836 258.65733337 345.90009308 C259.07172914 342.3834008 259.47471644 338.8655139 259.87415123 335.34709454 C260.18583787 332.61067987 260.50282503 329.87489934 260.82144547 327.13928413 C261.0444102 325.21872019 261.26356358 323.29771498 261.48262024 321.37670135 C263.40392331 305.20000951 263.40392331 305.20000951 267.50694275 298.38617706 C268.05471375 297.46336945 268.60248474 296.54056183 269.16685486 295.58979034 C269.75990417 294.61251984 270.35295349 293.63524933 270.963974 292.62836456 C272.2408149 290.4830067 273.51682873 288.33715643 274.792099 286.19086456 C275.45145447 285.08742706 276.11080994 283.98398956 276.79014587 282.84711456 C279.98378502 277.47099832 283.09794982 272.04971327 286.213974 266.62836456 C287.47291629 264.44336945 288.73203177 262.25847411 289.99131775 260.07367706 C290.61635193 258.9886087 291.24138611 257.90354034 291.88536072 256.78559113 C295.01327548 251.35676514 298.14505848 245.93017175 301.276474 240.50336456 C302.52649279 238.33670874 303.77649278 236.17004207 305.026474 234.00336456 C316.276474 214.50336456 327.526474 195.00336456 338.776474 175.50336456 C338.776474 124.68336456 338.776474 73.86336456 338.776474 21.50336456 C229.546474 21.50336456 120.316474 21.50336456 7.776474 21.50336456 Z M384.776474 136.50336456 C384.21702087 137.52430206 383.65756775 138.54523956 383.0811615 139.59711456 C377.62893865 149.50138659 372.01390604 159.30048322 366.3011322 169.05658722 C361.95337243 176.48175208 357.63527118 183.92330552 353.338974 191.37836456 C352.71675964 192.45795441 352.09454529 193.53754425 351.45347595 194.64984894 C350.19135883 196.84018976 348.92939615 199.03061959 347.66758728 201.221138 C344.53967252 206.64996399 341.40788952 212.07655737 338.276474 217.50336456 C337.02645521 219.67002039 335.77645521 221.83668706 334.526474 224.00336456 C332.026474 228.3366979 329.526474 232.67003123 327.026474 237.00336456 C326.40756287 238.07618683 325.78865173 239.14900909 325.15098572 240.25434113 C323.90276366 242.41783933 322.65439161 244.581251 321.40586853 246.7445755 C318.25242144 252.20901473 315.10171304 257.67500102 311.9561615 263.14398956 C310.68808287 265.34720121 309.41985494 267.55032694 308.151474 269.75336456 C307.53844421 270.81877472 306.92541443 271.88418488 306.29380798 272.98188019 C303.211167 278.32735865 300.10249037 283.65516415 296.94444275 288.95648956 C296.33745544 289.97581573 295.73046814 290.99514191 295.10508728 292.04535675 C293.95263678 293.97556 292.79623821 295.90341308 291.63536072 297.82855988 C291.12634216 298.68030792 290.61732361 299.53205597 290.09288025 300.40961456 C289.41914368 301.52819855 289.41914368 301.52819855 288.73179626 302.66938019 C287.62248038 304.45434739 287.62248038 304.45434739 287.776474 306.50336456 C289.48190369 307.44695831 289.48190369 307.44695831 291.2217865 308.40961456 C292.7817661 309.27404674 294.34165549 310.13864174 295.901474 311.00336456 C296.71229431 311.45244171 297.52311462 311.90151886 298.35850525 312.36420441 C302.26183214 314.53110232 306.15570016 316.71048058 310.0186615 318.94867706 C310.6565863 319.31799347 311.29451111 319.68730988 311.95176697 320.06781769 C313.68717345 321.07646175 315.41941304 322.09054877 317.151474 323.10492706 C319.57495349 324.66009096 319.57495349 324.66009096 321.776474 324.50336456 C322.12726013 323.87172394 322.47804626 323.24008331 322.83946228 322.58930206 C330.48632539 308.83634321 338.25737439 295.16967405 346.213974 281.59320831 C349.9086071 275.28766037 353.56500081 268.9604202 357.213974 262.62836456 C357.83651062 261.54821075 358.45904724 260.46805695 359.10044861 259.3551712 C360.36224226 257.16540122 361.62387934 254.97554101 362.88536072 252.78559113 C366.01327548 247.35676514 369.14505848 241.93017175 372.276474 236.50336456 C373.52649279 234.33670874 374.77649278 232.17004207 376.026474 230.00336456 C379.776474 223.50336456 379.776474 223.50336456 383.526474 217.00336456 C384.1457074 215.92997833 384.7649408 214.8565921 385.40293884 213.75067902 C386.64788682 211.59286653 387.8930029 209.43515104 389.13829041 207.27753448 C392.34200051 201.72619864 395.5424103 196.17299915 398.7374115 190.61664581 C405.31568681 179.18303497 411.91587127 167.77037067 418.776474 156.50336456 C416.3846832 153.85332147 413.83790068 152.2497811 410.73350525 150.50727081 C409.74157166 149.94846222 408.74963806 149.38965363 407.72764587 148.81391144 C406.69188416 148.23705597 405.65612244 147.6602005 404.588974 147.06586456 C403.57254822 146.49287628 402.55612244 145.919888 401.50889587 145.32953644 C395.99768302 142.23770689 390.45688319 139.27213886 384.776474 136.50336456 Z " fill="#1F4571" transform="translate(57.22352600097656,22.49663543701172)"/>
<path d="M0 0 C1.3033975 -0.00709439 2.606795 -0.01418877 3.94968939 -0.02149814 C7.56607234 -0.04044418 11.18177999 -0.02817411 14.79814601 -0.01077521 C18.69870385 0.00258351 22.59916188 -0.01283288 26.49971008 -0.02459717 C34.14027305 -0.04298939 41.78058051 -0.03445098 49.42113554 -0.01650894 C55.62999313 -0.00249102 61.8387813 0.0014116 68.0476532 -0.00195122 C68.93087237 -0.00242866 69.81409154 -0.0029061 70.72407493 -0.00339801 C72.51824162 -0.00442433 74.3124083 -0.00547969 76.10657495 -0.00656378 C91.97641526 -0.01513404 107.84613211 0.00155472 123.71594238 0.03126526 C139.11996649 0.06010345 154.52381274 0.06718663 169.92785645 0.05177307 C186.6963637 0.03501721 203.46478647 0.03097041 220.23329592 0.04848343 C222.02091248 0.05032785 223.80852905 0.05216257 225.59614563 0.0539875 C226.91550464 0.05535564 226.91550464 0.05535564 228.26151738 0.05675141 C234.46388474 0.06236064 240.66621091 0.05904603 246.86857605 0.05244255 C254.42582818 0.0447161 261.98290513 0.05143702 269.54012191 0.07661759 C273.39697107 0.08912874 277.25354728 0.09523979 281.11040688 0.08407593 C285.28845826 0.07221059 289.46579013 0.09126167 293.64379883 0.11352539 C294.86703653 0.10528462 296.09027423 0.09704386 297.35057974 0.08855337 C305.47377638 0.1688186 305.47377638 0.1688186 309.57459831 2.38995457 C311.49259267 4.84684146 311.94901433 5.87778721 311.95681763 8.9546051 C311.97091675 9.81256683 311.98501587 10.67052856 311.99954224 11.55448914 C311.9843605 12.95415421 311.9843605 12.95415421 311.96887207 14.38209534 C311.98201447 15.86563004 311.98201447 15.86563004 311.99542236 17.37913513 C312.01743849 20.65009869 312.00285501 23.91971166 311.98596191 27.19068909 C311.98932939 29.46225749 311.99418143 31.73382413 312.00045776 34.00538635 C312.00783213 38.76687265 311.99710487 43.52789008 311.97375488 48.2893219 C311.94526745 54.39641642 311.96166831 60.50241235 311.9916172 66.60946655 C312.00967454 71.30035193 312.00393919 75.99097632 311.99097824 80.68186951 C311.98763993 82.93376291 311.99174615 85.18567993 312.00337601 87.43754578 C312.01605837 90.58376431 311.99674273 93.72819749 311.96887207 96.87428284 C311.97899323 97.80739288 311.98911438 98.74050293 311.99954224 99.70188904 C311.98544312 100.55985077 311.97134399 101.4178125 311.95681763 102.30177307 C311.9549325 103.0450737 311.95304737 103.78837433 311.95110512 104.55419922 C310.88797198 108.0585021 309.55733905 108.87577177 306.32189941 110.62818909 C302.09846299 111.2284946 297.90351913 111.17154987 293.64379883 111.14285278 C292.34040133 111.14979831 291.03700383 111.15674384 289.69410944 111.16389984 C286.07782666 111.18254981 282.46195273 111.17621436 278.84565282 111.16574681 C274.94509501 111.15876144 271.04462177 111.1747476 267.14408875 111.18774414 C259.50357085 111.20940011 251.86320179 111.20925326 244.22266328 111.2011186 C238.01380942 111.19482223 231.80499902 111.19595228 225.59614563 111.20239067 C224.71292646 111.20329233 223.82970729 111.20419398 222.9197239 111.20512296 C221.12555721 111.20697413 219.33139054 111.20883669 217.53722388 111.21071052 C200.70794345 111.22729437 183.87874683 111.21856461 167.04947144 111.20172494 C151.64659448 111.18702549 136.24391254 111.20165877 120.8410607 111.2304951 C105.03085345 111.25987401 89.22073626 111.27086592 73.41050291 111.2613129 C71.62288636 111.26029033 69.83526978 111.25929572 68.0476532 111.25832939 C66.72829418 111.25761481 66.72829418 111.25761481 65.38228145 111.25688579 C59.1798939 111.25471977 52.97759145 111.26453562 46.77522278 111.27910042 C39.21795461 111.29659911 31.66093519 111.2965419 24.10367692 111.27374876 C20.24676284 111.2625843 16.3902874 111.25949334 12.53339195 111.27804947 C8.35523142 111.29789289 4.17814539 111.2791198 0 111.25637817 C-1.2232377 111.2682139 -2.4464754 111.28004963 -3.70678091 111.29224402 C-11.85502567 111.20171538 -11.85502567 111.20171538 -15.93079948 108.36167812 C-17.65706556 105.66109642 -18.30485207 104.41077984 -18.3130188 101.26417542 C-18.32711792 100.42311249 -18.34121704 99.58204956 -18.35574341 98.71549988 C-18.34056168 97.35163651 -18.34056168 97.35163651 -18.32507324 95.96022034 C-18.33383484 94.99216461 -18.34259644 94.02410889 -18.35162354 93.02671814 C-18.37360682 89.83091744 -18.35906794 86.63650354 -18.34216309 83.44068909 C-18.34553151 81.217786 -18.35038435 78.9948847 -18.35665894 76.77198792 C-18.36402885 72.11482699 -18.35332042 67.45814579 -18.32995605 62.80104065 C-18.30146882 56.831948 -18.31787207 50.86397939 -18.34781837 44.89492798 C-18.36588777 40.30522698 -18.36013483 35.7157924 -18.34717941 31.12608337 C-18.34384444 28.92525601 -18.34793564 26.72440445 -18.35957718 24.52360535 C-18.37227943 21.447138 -18.35291625 18.37248971 -18.32507324 15.29615784 C-18.3351944 14.38691559 -18.34531555 13.47767334 -18.35574341 12.5408783 C-18.34164429 11.69981537 -18.32754517 10.85875244 -18.3130188 9.99220276 C-18.31113367 9.26587143 -18.30924854 8.5395401 -18.30730629 7.79119873 C-15.70652896 -1.14944883 -7.64731306 -0.0739934 0 0 Z " fill="#A1D1FC" transform="translate(37.6781005859375,102.37181091308594)"/>
<path d="M0 0 C4.45856492 2.32216923 7.68021954 5.56135212 11.13671875 9.1328125 C13.70408694 11.70556301 16.44770184 14.04969343 19.19921875 16.421875 C21.2242219 18.19649815 23.13545857 20.05776935 25 22 C29.336932 20.60571103 31.6973368 18.59877071 34.8125 15.3125 C39.02599831 10.96713364 43.32603149 6.84734963 48 3 C48.66386719 2.44957031 49.32773437 1.89914063 50.01171875 1.33203125 C53.06045814 -0.71044445 55.42045659 -0.37679404 59 0 C62.5386994 1.65139305 63.81070153 2.71605229 66 6 C66.26069641 9.05378723 66.26069641 9.05378723 66.2746582 12.85473633 C66.27976913 13.54779373 66.28488007 14.24085114 66.29014587 14.95491028 C66.30405167 17.24737169 66.30308395 19.53953266 66.30078125 21.83203125 C66.30466859 23.4276287 66.30900334 25.02322512 66.31376648 26.61882019 C66.32123149 29.96539664 66.32093609 33.3118676 66.31567383 36.65844727 C66.30988882 40.93904855 66.32678508 45.2192158 66.3500185 49.49974537 C66.36478186 52.79667164 66.36562384 56.09349414 66.36250877 59.39044762 C66.36302101 60.96804347 66.36824043 62.54564527 66.37832069 64.123209 C66.39071409 66.33478201 66.3838761 68.54551955 66.37231445 70.75708008 C66.37294388 72.01378006 66.3735733 73.27048004 66.3742218 74.56526184 C65.96269729 78.34237724 64.95100199 80.76094291 63 84 C60.51543895 85.95215511 58.73531953 86.03368661 55.5625 86.4375 C51.08096174 85.88713565 49.79147883 84.44829737 47 81 C45.83574024 78.67148048 45.84542008 77.23719816 45.79467773 74.64208984 C45.7647599 73.29091568 45.7647599 73.29091568 45.73423767 71.91244507 C45.71752518 70.93844757 45.70081268 69.96445007 45.68359375 68.9609375 C45.66281265 67.96494537 45.64203156 66.96895325 45.62062073 65.94277954 C45.55510958 62.75359146 45.49623296 59.56431942 45.4375 56.375 C45.39431627 54.21613707 45.35070203 52.0572827 45.30664062 49.8984375 C45.19942664 44.5990477 45.09766315 39.29957394 45 34 C44.18015625 34.77085937 43.3603125 35.54171875 42.515625 36.3359375 C41.42730723 37.34919887 40.3387531 38.36220641 39.25 39.375 C38.71117187 39.88289063 38.17234375 40.39078125 37.6171875 40.9140625 C33.88151724 44.37639103 31.17131821 46.70736951 26.1015625 47.390625 C22.07722024 46.88378089 20.40979155 45.40009966 17.375 42.75 C16.45460938 41.96109375 15.53421875 41.1721875 14.5859375 40.359375 C12.32360642 38.2952542 10.15644181 36.17305185 8 34 C7.98541748 35.30146973 7.97083496 36.60293945 7.95581055 37.94384766 C7.89771066 42.78591992 7.82047809 47.62753285 7.73754883 52.46923828 C7.70435451 54.56226124 7.67630555 56.65537253 7.65356445 58.74853516 C7.61991769 61.76242612 7.56759607 64.77551163 7.51171875 67.7890625 C7.50213387 69.18628036 7.50213387 69.18628036 7.49235535 70.61172485 C7.37559018 75.80553211 6.89614511 79.50584261 4 84 C0.65274664 86.62998478 -2.8824152 86.43342998 -7 86 C-10.38939556 83.86320715 -11.72582557 82.8225233 -13 79 C-13.11014439 76.6810637 -13.15907924 74.35907911 -13.17700195 72.03759766 C-13.18685875 70.98097176 -13.18685875 70.98097176 -13.19691467 69.90299988 C-13.21661544 67.57335297 -13.22830193 65.24377037 -13.23828125 62.9140625 C-13.24235678 62.11767742 -13.2464323 61.32129234 -13.25063133 60.50077438 C-13.27147657 56.28697724 -13.28578595 52.07321253 -13.29516602 47.859375 C-13.30623797 43.50911121 -13.3406509 39.15935787 -13.38033772 34.80927467 C-13.40648671 31.46179252 -13.41485621 28.11443245 -13.41844749 24.76685715 C-13.42331654 23.16328858 -13.43493968 21.55972558 -13.45348549 19.95625687 C-13.47784572 17.71082323 -13.47691864 15.46671685 -13.4699707 13.22119141 C-13.47583694 11.94450592 -13.48170319 10.66782043 -13.48774719 9.35244751 C-12.91596948 5.42243048 -11.76921653 3.789763 -9 1 C-5.89046621 -0.5547669 -3.43733239 -0.28644437 0 0 Z " fill="#204672" transform="translate(261,115)"/>
<path d="M0 0 C1.06488647 -0.00195374 2.12977295 -0.00390747 3.22692871 -0.00592041 C5.4728309 -0.00192941 7.71876026 0.01929453 9.96435547 0.05664062 C13.39562224 0.10921217 16.82237461 0.09780403 20.25390625 0.078125 C22.44012808 0.08994003 24.62633374 0.10544152 26.8125 0.125 C27.83452515 0.12115295 28.85655029 0.11730591 29.9095459 0.11334229 C34.44852241 0.21825178 37.87301744 0.31854456 41.53320312 3.18652344 C44.49590442 6.52352485 44.98550556 8.42106379 44.90625 12.859375 C43.16942384 17.10495007 40.99237729 18.90348253 36.90625 20.859375 C34.18068562 21.11102384 31.69698546 21.21093413 28.98046875 21.15234375 C28.23287796 21.14809891 27.48528717 21.14385406 26.71504211 21.13948059 C24.34090268 21.12276556 21.96763033 21.08512847 19.59375 21.046875 C17.97852794 21.03181881 16.36329249 21.01813203 14.74804688 21.00585938 C10.80045012 20.9728858 6.85349678 20.92115469 2.90625 20.859375 C2.90625 25.149375 2.90625 29.439375 2.90625 33.859375 C4.42476562 33.81296875 5.94328125 33.7665625 7.5078125 33.71875 C9.51560528 33.68122116 11.52341939 33.6448222 13.53125 33.609375 C14.53027344 33.57585937 15.52929688 33.54234375 16.55859375 33.5078125 C22.67393171 33.42681465 26.28206308 33.71143325 30.90625 37.859375 C32.43839888 40.92367276 32.13563548 43.4759392 31.90625 46.859375 C30.25485695 50.3980744 29.19019771 51.67007653 25.90625 53.859375 C23.4543457 54.08642578 23.4543457 54.08642578 20.58203125 54.0546875 C19.03999023 54.04501953 19.03999023 54.04501953 17.46679688 54.03515625 C16.39494141 54.01839844 15.32308594 54.00164062 14.21875 53.984375 C13.13529297 53.97535156 12.05183594 53.96632812 10.93554688 53.95703125 C8.25902052 53.93344952 5.58260759 53.89757836 2.90625 53.859375 C2.90625 58.149375 2.90625 62.439375 2.90625 66.859375 C3.91002686 66.84366455 4.91380371 66.8279541 5.94799805 66.81176758 C9.68456955 66.75732386 13.42110621 66.72297274 17.15795898 66.69458008 C18.77292789 66.67952624 20.38785613 66.65907852 22.00268555 66.63305664 C24.32871555 66.59652214 26.65420341 66.57961485 28.98046875 66.56640625 C30.05732185 66.54318047 30.05732185 66.54318047 31.15592957 66.51948547 C35.61156705 66.51800146 38.33917867 67.17307217 41.90625 69.859375 C44.22462458 72.17774958 44.84148664 73.48698569 45.40625 76.734375 C44.7031642 81.12866125 43.04287817 82.72274683 39.90625 85.859375 C37.08754731 86.79894256 35.27121325 87.00582019 32.34643555 87.05224609 C31.42505295 87.06830902 30.50367035 87.08437195 29.55436707 87.10092163 C25.34590492 87.14548947 21.13759809 87.18642866 16.92895508 87.20947266 C14.71074942 87.22603491 12.49259718 87.25332827 10.2746582 87.29150391 C7.07214751 87.34632101 3.87088566 87.3681537 0.66796875 87.3828125 C-0.31972 87.40548187 -1.30740875 87.42815125 -2.32502747 87.45150757 C-6.82871809 87.4377182 -10.08482301 87.37842628 -13.70385742 84.51416016 C-17.35138487 80.46234552 -17.23452813 77.39261298 -17.30249023 72.11230469 C-17.31716591 71.08975838 -17.31716591 71.08975838 -17.33213806 70.04655457 C-17.36204047 67.79147276 -17.38346418 65.53645008 -17.40234375 63.28125 C-17.40891558 62.50942635 -17.4154874 61.73760269 -17.42225838 60.94239044 C-17.45483109 56.85598076 -17.47928573 52.7695969 -17.4987793 48.68310547 C-17.51658172 45.3073926 -17.55138586 41.93251679 -17.60131836 38.55712891 C-17.66162644 34.47517655 -17.69226897 30.39399925 -17.70195198 26.31162262 C-17.71049046 24.75989 -17.72926927 23.20817721 -17.7586956 21.65670013 C-18.00307569 8.03750458 -18.00307569 8.03750458 -14.74829102 3.40625 C-10.49182004 -0.44161388 -5.45957394 -0.10920869 0 0 Z " fill="#204672" transform="translate(59.09375,114.140625)"/>
<path d="M0 0 C0.66550891 -0.00453111 1.33101781 -0.00906223 2.01669365 -0.01373065 C4.24525438 -0.02638443 6.47357103 -0.02475369 8.7021637 -0.02310181 C10.30053522 -0.02908639 11.89890385 -0.03589178 13.49726868 -0.04345703 C17.83815363 -0.06112981 22.17895975 -0.0658129 26.5198772 -0.0670886 C30.14322368 -0.06898766 33.76655179 -0.07634513 37.38989121 -0.08343279 C45.93751364 -0.09971865 54.48509394 -0.10460151 63.0327301 -0.10317993 C71.85216227 -0.10197793 80.67134994 -0.12309101 89.49072021 -0.15466726 C97.06195333 -0.18080947 104.63310648 -0.19154812 112.20438439 -0.19026911 C116.7267412 -0.18975894 121.24888067 -0.19547271 125.77119255 -0.21662521 C130.02383756 -0.23597349 134.27605712 -0.23615567 138.52871704 -0.22159195 C140.08919457 -0.2194986 141.64969849 -0.22423606 143.21013069 -0.23631287 C145.34127208 -0.2517381 147.47094137 -0.24247762 149.60205078 -0.22705078 C150.79426459 -0.22814032 151.9864784 -0.22922985 153.21481991 -0.2303524 C157.02941441 0.37250584 158.65879224 1.55543115 161.36451721 4.26742554 C163.2881017 8.51534128 163.58043847 10.50535051 162.30201721 15.01742554 C160.17789204 18.58047421 159.05183939 19.52597265 155.36451721 21.26742554 C152.24884796 21.64494896 152.24884796 21.64494896 148.68470764 21.64837646 C147.6974133 21.65539642 147.6974133 21.65539642 146.69017363 21.6625582 C144.49222172 21.67449154 142.29489524 21.665058 140.09693909 21.65560913 C138.51812375 21.65967559 136.93931126 21.66501789 135.36050415 21.67153931 C131.07747221 21.68520994 126.79465718 21.67991533 122.51162148 21.67040205 C118.02829531 21.66280415 113.54498766 21.66985143 109.06166077 21.67456055 C101.53285896 21.68001772 94.00414545 21.6728275 86.47535706 21.65853882 C77.7723818 21.64221237 69.06961739 21.6475009 60.36664724 21.66401803 C52.89305107 21.677634 45.41951836 21.67955202 37.94591379 21.67170203 C33.48286896 21.66702612 29.01992322 21.6663984 24.55688477 21.67631149 C20.36089653 21.6849805 16.16518001 21.67896055 11.96922112 21.66162872 C10.42971688 21.65766352 8.89018977 21.65879853 7.35069466 21.66541672 C5.24826382 21.67362131 3.14670231 21.66332498 1.04432678 21.64837646 C-0.13183952 21.64724539 -1.30800583 21.64611431 -2.51981354 21.64494896 C-6.79938754 21.12639603 -9.38537829 19.47442298 -12.44798279 16.51742554 C-14.16416604 13.2657099 -14.01710367 10.89282392 -13.63548279 7.26742554 C-12.40257639 4.49338613 -11.4811023 2.82629828 -8.94082546 1.14742088 C-5.87304521 -0.02361211 -3.28443064 0.00923649 0 0 Z " fill="#1E4471" transform="translate(129.63548278808594,392.7325744628906)"/>
<path d="M0 0 C0.98367271 -0.00551503 0.98367271 -0.00551503 1.98721761 -0.01114148 C4.18884857 -0.0221714 6.39043233 -0.02602095 8.59208679 -0.02983093 C10.16898244 -0.03609605 11.74587661 -0.04274289 13.32276917 -0.04974365 C18.50457227 -0.07077856 23.68637567 -0.08114465 28.86820984 -0.09111023 C30.65205081 -0.09515782 32.43589163 -0.09927475 34.21973228 -0.10346031 C42.5993227 -0.12250974 50.97890432 -0.136742 59.35851222 -0.14507228 C69.03236203 -0.15484797 78.70598322 -0.18117712 88.37975246 -0.22157317 C95.85670457 -0.25172478 103.33359111 -0.2665402 110.81060284 -0.26985329 C115.27657188 -0.27220465 119.74229661 -0.28117619 124.20820045 -0.30631447 C128.4099296 -0.32958395 132.61125338 -0.33383308 136.81303024 -0.32355309 C138.35374359 -0.32305736 139.89447683 -0.3293888 141.43512917 -0.34310913 C143.54187316 -0.3608187 145.64716077 -0.35372859 147.75390625 -0.34057617 C148.9317484 -0.34296453 150.10959055 -0.34535288 151.32312489 -0.34781361 C155.30480207 0.25967237 157.46291616 1.61813094 160.56742859 4.14717102 C162.5827892 8.41973552 162.80577778 10.35267372 161.44242859 14.89717102 C159.58447411 18.11762546 158.71484415 19.33794876 155.56742859 21.14717102 C152.54357243 21.52469444 152.54357243 21.52469444 148.9319458 21.52812195 C147.93368244 21.53514191 147.93368244 21.53514191 146.91525215 21.54230368 C144.68655906 21.55426406 142.4584797 21.54479281 140.2297821 21.53535461 C138.63141013 21.53941991 137.03304096 21.54476155 135.43467712 21.55128479 C131.09373764 21.56497037 126.75301187 21.55965436 122.41206861 21.55014753 C117.87001291 21.54255605 113.3279756 21.54959525 108.78591919 21.55430603 C101.15698459 21.55976563 93.52813708 21.5525672 85.8992157 21.5382843 C77.0798146 21.52196323 68.26062162 21.5272415 59.44122559 21.54376352 C51.86998608 21.55737954 44.29880921 21.5592973 36.72756141 21.55144751 C32.20525733 21.54677088 27.68305105 21.54614574 23.16075325 21.55605698 C18.90814607 21.56472585 14.65580699 21.55870624 10.40322876 21.54137421 C8.84276207 21.53740868 7.2822728 21.53854456 5.72181511 21.5451622 C3.59087089 21.55336565 1.46078464 21.54307168 -0.67010498 21.52812195 C-2.4584257 21.52642533 -2.4584257 21.52642533 -4.28287411 21.52469444 C-7.75685647 21.10830214 -9.63219524 20.2034029 -12.43257141 18.14717102 C-15.0044682 14.7179753 -14.93471341 11.30777616 -14.43257141 7.14717102 C-10.81083204 0.90663549 -6.86256408 0.02492289 0 0 Z " fill="#1E4471" transform="translate(130.4325714111328,337.8528289794922)"/>
<path d="M0 0 C0.67282158 -0.00523668 1.34564317 -0.01047336 2.03885329 -0.01586872 C4.29814825 -0.03089592 6.55721729 -0.03157446 8.81655884 -0.03224182 C10.43448775 -0.03986148 12.05241303 -0.04828864 13.67033386 -0.0574646 C18.06911893 -0.07943533 22.46783448 -0.08821192 26.86666822 -0.09329104 C29.61405865 -0.0969315 32.36143078 -0.10316993 35.10881424 -0.11029243 C44.69125419 -0.13479564 54.27363994 -0.14784076 63.85610962 -0.15138245 C72.79201583 -0.15501867 81.72757876 -0.18491789 90.66338003 -0.22678703 C98.332257 -0.26146183 106.00102006 -0.2769304 113.66997492 -0.27762848 C118.25164751 -0.27842225 122.83297054 -0.28720621 127.41456223 -0.31562614 C131.72388988 -0.34175891 136.03257699 -0.34403916 140.34194756 -0.3279705 C141.92339535 -0.32615218 143.50487957 -0.33288137 145.0862484 -0.34878922 C147.24616677 -0.36919203 149.40383164 -0.35873632 151.5637207 -0.34057617 C152.77198202 -0.3425875 153.98024334 -0.34459883 155.22511864 -0.3466711 C159.32877561 0.45354113 160.81802333 2.06538398 163.40884399 5.27415466 C164.07290649 7.77415466 164.07290649 7.77415466 164.03384399 10.27415466 C164.04673462 11.09915466 164.05962524 11.92415466 164.07290649 12.77415466 C163.10428983 16.42071153 161.29403953 17.89137378 158.40884399 20.27415466 C155.23070526 20.90056705 155.23070526 20.90056705 151.57717896 20.90234375 C150.90264852 20.90943814 150.22811809 20.91653252 149.53314734 20.92384189 C147.27953954 20.94140312 145.02766093 20.9233294 142.77407837 20.90525818 C141.15585038 20.91039778 139.53762798 20.91767937 137.91941833 20.92694092 C133.52881206 20.94545816 129.1388129 20.93251455 124.74823189 20.91285062 C120.15279559 20.89646537 115.55739779 20.90527684 110.96194458 20.91036987 C103.24476422 20.91489097 95.52782623 20.89902002 87.81069946 20.87107849 C78.88953453 20.83902647 69.96880673 20.83904224 61.04761076 20.85629326 C52.46454101 20.87215887 43.88163147 20.86542458 35.29856873 20.84835625 C31.64633417 20.84148492 27.994228 20.84251903 24.34199524 20.8499012 C20.04085403 20.85756426 15.74021009 20.84543753 11.43915367 20.81805229 C9.86095849 20.81116755 8.28271688 20.81107149 6.70452309 20.81826782 C4.54929746 20.82696267 2.3956064 20.81100904 0.24050903 20.78881836 C-0.96515465 20.78601144 -2.17081833 20.78320452 -3.41301727 20.78031254 C-7.21557465 20.17470828 -8.88094958 18.95948451 -11.59115601 16.27415466 C-13.13040077 12.13743436 -13.05735975 8.36973347 -11.34115601 4.33665466 C-7.81710104 0.18330417 -5.22028115 0.02010502 0 0 Z " fill="#1F4570" transform="translate(128.59115600585938,283.72584533691406)"/>
<path d="M0 0 C5.65246395 3.50258489 9.00236212 8.6028335 12.25 14.25 C13.08270332 15.67530201 13.92102758 17.09733877 14.765625 18.515625 C15.12430664 19.13727539 15.48298828 19.75892578 15.85253906 20.39941406 C17.07701894 22.30631699 17.07701894 22.30631699 20 24 C20.23074219 23.33097656 20.46148437 22.66195312 20.69921875 21.97265625 C22.36073513 18.17561731 24.5159571 14.87724098 26.8125 11.4375 C27.23853516 10.77814453 27.66457031 10.11878906 28.10351562 9.43945312 C30.65598638 5.59723164 33.08163919 2.57382524 37 0 C41.49411434 -0.73540053 43.45664064 -0.30625709 47.4375 1.9375 C50.50018547 5.59778263 50.50739844 7.04977575 50.36743164 11.61694336 C49.74638189 15.64489458 47.79293123 18.51298691 45.5 21.8125 C45.05237305 22.49610596 44.60474609 23.17971191 44.14355469 23.8840332 C41.99407803 27.14823668 39.76154506 30.34738453 37.484375 33.5234375 C36.74703125 34.56757813 36.0096875 35.61171875 35.25 36.6875 C34.57453125 37.59886719 33.8990625 38.51023438 33.203125 39.44921875 C31.69001606 41.9160828 31.69001606 41.9160828 32.7097168 44.31884766 C34.09586379 47.19920078 35.67794225 49.78299871 37.44140625 52.44921875 C38.44010742 53.96805664 38.44010742 53.96805664 39.45898438 55.51757812 C40.50022461 57.08668945 40.50022461 57.08668945 41.5625 58.6875 C42.93963792 60.7741882 44.3159813 62.86140106 45.69140625 64.94921875 C46.30185791 65.87049561 46.91230957 66.79177246 47.54125977 67.7409668 C50.14669527 71.77579437 50.68418828 75.23804954 50 80 C48.20636089 82.8100346 46.98119065 84.50940468 44 86 C40.2875079 86.3502351 37.88009442 86.54035747 34.65234375 84.55859375 C30.32659498 80.38574332 27.45305875 75.27799584 24.28515625 70.203125 C23.77597656 69.4090625 23.26679688 68.615 22.7421875 67.796875 C22.2869873 67.06823242 21.83178711 66.33958984 21.36279297 65.58886719 C20.68821045 64.80237793 20.68821045 64.80237793 20 64 C19.01 64 18.02 64 17 64 C15.52345844 65.62171447 15.52345844 65.62171447 14.22265625 67.796875 C13.70896484 68.5909375 13.19527344 69.385 12.66601562 70.203125 C11.87227539 71.46382812 11.87227539 71.46382812 11.0625 72.75 C4.22308527 83.49165749 4.22308527 83.49165749 1 86 C-3.81083621 86.61089984 -5.8428993 86.73857492 -9.9375 84.125 C-13.07660697 80.89076858 -13.34504368 78.62253719 -13.27908325 74.11532593 C-12.81607235 70.60591089 -11.06707025 68.32453618 -9.02734375 65.48828125 C-8.62544327 64.91216599 -8.22354279 64.33605072 -7.8094635 63.74247742 C-6.53607906 61.91951583 -5.23976832 60.1149166 -3.9375 58.3125 C-2.63309266 56.4985623 -1.33502789 54.6815003 -0.05482483 52.85038757 C1.10223075 51.19609962 2.28117075 49.5571823 3.46118164 47.91918945 C5.21968145 45.16711367 5.21968145 45.16711367 4.91503906 42.40649414 C3.92460558 39.8017175 2.75049987 37.69842605 1.19921875 35.3828125 C0.63396484 34.52816406 0.06871094 33.67351562 -0.51367188 32.79296875 C-1.10728516 31.91253906 -1.70089844 31.03210938 -2.3125 30.125 C-13.98184381 12.62744572 -13.98184381 12.62744572 -13 6 C-9.35613683 0.41274314 -6.65433313 -0.763612 0 0 Z " fill="#204672" transform="translate(121,115)"/>
<path d="M0 0 C5.28227576 3.55456774 7.25233944 6.80920897 9.26171875 12.74609375 C9.53453171 13.50189224 9.80734467 14.25769073 10.08842468 15.03639221 C10.97240253 17.49754796 11.83015221 19.96695564 12.6875 22.4375 C13.29399442 24.14449987 13.90224751 25.85087586 14.51220703 27.55664062 C15.74941769 31.02070797 16.97787126 34.48771392 18.20166016 37.95654297 C19.86515316 42.64963775 21.596113 47.31478089 23.35546875 51.97265625 C23.87223976 53.34770454 24.38892511 54.72278502 24.90551758 56.09790039 C25.86309886 58.64550813 26.82900127 61.18942886 27.79956055 63.73217773 C28.22406494 64.87243408 28.64856934 66.01269043 29.0859375 67.1875 C29.6435376 68.66283203 29.6435376 68.66283203 30.21240234 70.16796875 C31.23775036 73.85489898 31.87455513 77.40777558 29.9765625 80.86328125 C25.30039592 85.87732114 25.30039592 85.87732114 20.6875 86.3125 C16.17137359 85.92977742 14.95388656 85.4328952 12 82 C8 73.1503268 8 73.1503268 8 69 C0.74 69.33 -6.52 69.66 -14 70 C-14.763125 71.918125 -15.52625 73.83625 -16.3125 75.8125 C-19.1360469 82.90952328 -19.1360469 82.90952328 -22 85 C-24.9919179 85.9356747 -27.87393122 86.19743592 -31 86 C-33.92143417 84.23496686 -35.47923817 83.04152365 -37 80 C-37.64777672 73.70797046 -36.57487945 68.57940033 -34.2890625 62.7578125 C-33.86327911 61.62023247 -33.86327911 61.62023247 -33.42889404 60.45967102 C-32.50816231 58.00926154 -31.56709802 55.56726495 -30.625 53.125 C-29.98254524 51.43027682 -29.34144272 49.73504042 -28.70166016 48.03930664 C-27.41703532 44.63769545 -26.12549535 41.23882252 -24.83007812 37.84130859 C-23.16911333 33.46878307 -21.56391938 29.0782755 -19.984375 24.67578125 C-19.53884277 23.44134277 -19.09331055 22.2069043 -18.63427734 20.93505859 C-17.8161546 18.66277739 -17.00365468 16.38846101 -16.19775391 14.11181641 C-12.96630247 5.2377427 -10.50166688 -1.05016669 0 0 Z " fill="#204773" transform="translate(213,115)"/>
<path d="M0 0 C6.33305966 3.58810925 9.99443409 6.87002102 12.328125 13.87109375 C13.04674228 20.50357787 12.55295747 26.45935183 8.328125 31.87109375 C5.328125 32.87109375 5.328125 32.87109375 3.54150391 32.19360352 C2.88585449 31.82033936 2.23020508 31.4470752 1.5546875 31.0625 C0.81790771 30.6487915 0.08112793 30.23508301 -0.67797852 29.80883789 C-1.45971436 29.35500732 -2.2414502 28.90117676 -3.046875 28.43359375 C-3.84601318 27.97782959 -4.64515137 27.52206543 -5.46850586 27.05249023 C-7.87716527 25.67126219 -10.27547944 24.27346985 -12.671875 22.87109375 C-13.36458496 22.47019531 -14.05729492 22.06929687 -14.77099609 21.65625 C-25.48405702 15.4345477 -25.48405702 15.4345477 -26.671875 11.87109375 C-21.47516902 2.02363922 -10.98935233 -4.64316202 0 0 Z " fill="#A1D1FC" transform="translate(479.671875,127.12890625)"/>
<path d="M0 0 C3.40485673 0.66511877 5.99113056 1.98876465 8.984375 3.72265625 C9.91894531 4.26083984 10.85351562 4.79902344 11.81640625 5.35351562 C12.78449219 5.91748047 13.75257813 6.48144531 14.75 7.0625 C15.73355469 7.63033203 16.71710938 8.19816406 17.73046875 8.78320312 C20.15619626 10.1844729 22.57922121 11.59020387 25 13 C20.5305523 17.89956191 15.31233984 21.48988837 9.875 25.25 C8.96878906 25.88679688 8.06257813 26.52359375 7.12890625 27.1796875 C0.39540816 31.86819728 0.39540816 31.86819728 -3 33 C-3.18463754 25.68373739 -2.4697345 18.68429971 -1.5 11.4375 C-1.35691406 10.33341797 -1.21382813 9.22933594 -1.06640625 8.09179688 C-0.7160201 5.3938235 -0.36044731 2.6966444 0 0 Z " fill="#A0D0FB" transform="translate(338,349)"/>
<path d="M0 0 C2 1 2 1 3.125 3.375 C4 6 4 6 4 9 C1.69 9 -0.62 9 -3 9 C-2.01 6.03 -1.02 3.06 0 0 Z " fill="#8CBBE6" transform="translate(209,155)"/>
</svg>
