<svg xmlns="http://www.w3.org/2000/svg" viewBox="0 0 500 500"><g id="freepik--Floor--inject-2"><path id="freepik--floor--inject-2" d="M84,251.08C-7.66,304-7.66,389.82,84,442.74s240.31,52.93,332,0S507.66,304,416,251.08,175.68,198.15,84,251.08Z" style="fill:#f5f5f5"></path></g><g id="freepik--Shadows--inject-2"><path id="freepik--Shadow--inject-2" d="M162,410.73,139.81,397.9c-1.33-.77-1.33-2,0-2.78l170.87-98.58a5.28,5.28,0,0,1,4.8,0l22.22,12.77c1.33.76,1.33,2,0,2.77L166.83,410.73A5.34,5.34,0,0,1,162,410.73Z" style="fill:#e0e0e0"></path><ellipse id="freepik--shadow--inject-2" cx="102.3" cy="412.58" rx="57.93" ry="33.44" style="fill:#e0e0e0"></ellipse><ellipse id="freepik--shadow--inject-2" cx="194.4" cy="410.38" rx="37.95" ry="21.91" style="fill:#e0e0e0"></ellipse><ellipse id="freepik--shadow--inject-2" cx="397.31" cy="412.58" rx="57.93" ry="33.44" style="fill:#e0e0e0"></ellipse><polygon id="freepik--shadow--inject-2" points="202.88 396.01 342.96 315.38 418.07 358.62 277.99 439.25 202.88 396.01" style="fill:#e0e0e0"></polygon></g><g id="freepik--Plants--inject-2"><g id="freepik--plants--inject-2"><path d="M436.51,391.46l10.44,6c-.18-4.74-.59-11.81.06-16.56,4-29.07,15.35-38.65,20.73-52.8,5.67-14.9-1.24-19.7-10.23-17-8,2.39-19.52,14.29-22.26,36.11A154.52,154.52,0,0,0,436.51,391.46Z" style="fill:#50C878"></path><path d="M436.51,391.46l10.44,6c-.18-4.74-.59-11.81.06-16.56,4-29.07,15.35-38.65,20.73-52.8,5.67-14.9-1.24-19.7-10.23-17-8,2.39-19.52,14.29-22.26,36.11A154.52,154.52,0,0,0,436.51,391.46Z" style="fill:#fff;opacity:0.65"></path><path d="M440.7,393.89l1.33.77c-4.76-33.89,6.83-63.29,18.27-75.43a.58.58,0,0,0,0-.82.59.59,0,0,0-.83,0C448,330.58,436.44,360.17,440.7,393.89Z" style="fill:#fff"></path><path d="M443.21,395.34l7.49,4.33h0c4-11.72,8.07-16.41,13.14-24.12,4.63-7,10-11.36,12.86-16.29,2.53-4.36,4.43-9.84.67-13.16-6-5.29-13.79.3-19.16,6.35C453.57,357.67,444.24,371.57,443.21,395.34Z" style="fill:#50C878"></path><path d="M443.21,395.34l7.49,4.33h0c4-11.72,8.07-16.41,13.14-24.12,4.63-7,10-11.36,12.86-16.29,2.53-4.36,4.43-9.84.67-13.16-6-5.29-13.79.3-19.16,6.35C453.57,357.67,444.24,371.57,443.21,395.34Z" style="fill:#fff;opacity:0.30000000000000004"></path><path d="M446.28,397.12l1.09.63c3.15-18.53,15.73-40,23.56-45a.6.6,0,0,0-.65-1C462.18,357,449.62,378.3,446.28,397.12Z" style="fill:#fff"></path></g><g id="freepik--plants--inject-2"><path d="M63.49,391.46l-10.44,6c.18-4.74.59-11.81-.06-16.56-4-29.07-15.35-38.65-20.73-52.8-5.67-14.9,1.24-19.7,10.23-17,8,2.39,19.52,14.29,22.26,36.11A154.52,154.52,0,0,1,63.49,391.46Z" style="fill:#50C878"></path><path d="M63.49,391.46l-10.44,6c.18-4.74.59-11.81-.06-16.56-4-29.07-15.35-38.65-20.73-52.8-5.67-14.9,1.24-19.7,10.23-17,8,2.39,19.52,14.29,22.26,36.11A154.52,154.52,0,0,1,63.49,391.46Z" style="fill:#fff;opacity:0.65"></path><path d="M59.3,393.89l-1.33.77c4.76-33.89-6.83-63.29-18.27-75.43a.58.58,0,0,1,0-.82.59.59,0,0,1,.83,0C52,330.58,63.56,360.17,59.3,393.89Z" style="fill:#fff"></path><path d="M56.79,395.34l-7.49,4.33h0c-4-11.72-8.07-16.41-13.14-24.12-4.63-7-10-11.36-12.86-16.29-2.53-4.36-4.43-9.84-.67-13.16,6-5.29,13.79.3,19.16,6.35C46.43,357.67,55.76,371.57,56.79,395.34Z" style="fill:#50C878"></path><path d="M56.79,395.34l-7.49,4.33h0c-4-11.72-8.07-16.41-13.14-24.12-4.63-7-10-11.36-12.86-16.29-2.53-4.36-4.43-9.84-.67-13.16,6-5.29,13.79.3,19.16,6.35C46.43,357.67,55.76,371.57,56.79,395.34Z" style="fill:#fff;opacity:0.30000000000000004"></path><path d="M53.72,397.12l-1.09.63c-3.15-18.53-15.73-40-23.56-45a.6.6,0,0,1,.65-1C37.82,357,50.38,378.3,53.72,397.12Z" style="fill:#fff"></path></g></g><g id="freepik--character-1--inject-2"><g id="freepik--Character--inject-2"><g id="freepik--Bottom--inject-2"><g id="freepik--bottom--inject-2"><polygon points="112.23 401.5 115.53 399.93 112.29 399.01 112.23 401.5" style="fill:#263238"></polygon><path d="M144.86,407.71s-38.75-17.58-39.25-15a3.66,3.66,0,0,0,0,1.55l-.1-.14.68,4.83a11.58,11.58,0,0,0,6,2.54c0-.23,0-1.67.06-2.49a20.73,20.73,0,0,1,3.42,1.82c2.48,1.65,4.06,4.51,6.68,7.83,1.91,2.42,5.34,3.57,10.42,4.32,5.47.81,10.31-.2,11.68-1.64C145.58,410.19,145.05,408.05,144.86,407.71Z" style="fill:#263238"></path><path d="M143.79,406.81c-.37-.39-1.75-1.9-3.61-3.56a71.76,71.76,0,0,0-5.58-4.76,22.22,22.22,0,0,1-2.77-2.28c-.67-.73-1.32-1.48-1.91-2.26a41.45,41.45,0,0,1-4.64-7.89,18.5,18.5,0,0,1-1.61-4.14,26,26,0,0,1-.43-4.58c0-6.93.16-8,.23-13.3l-16.43.43c.52,2.92,1.31,6.92,1.57,10.24.4,5.05.53,6.18-1.5,11.2-.6,1.48-1.48,2.9-1.57,4.49-.14,2.58,1.9,4.82,4.19,6.1,1.9,1.06,4.08,1.53,5.92,2.65a19,19,0,0,1,4.81,4.73c1.3,1.66,2.33,3.62,4.16,4.79a17.09,17.09,0,0,0,6.32,2.21,34.73,34.73,0,0,0,8.5.48C143.48,411.08,146.49,409.65,143.79,406.81Z" style="fill:#ffbda7"></path><path d="M141.58,404c-1.67-1.4-4-3.41-6.87-5.67a7.4,7.4,0,0,0-6,.5c-5.79,3-6.81,7.2-6.81,7.2a8.23,8.23,0,0,0,4.69,4.1c6.65,2.92,18.59,2.09,18.73-.94C145.37,407.24,143.6,405.68,141.58,404Zm-34.09-19.16s-.4,1-1.43,2.93a5.43,5.43,0,0,0,0,5.86,8.88,8.88,0,0,0,5.82,4C113.79,391.83,109.8,386.08,107.49,384.82Z" style="fill:#37474f"></path><path d="M75.87,390c1.08,1.74-.28,8.28,0,12.93.24,4.24,1.39,11.62.12,15.79-1.51,4.95-4.58,10.68-10.37,6C62,421.85,60,418.12,59.44,412c-.36-4.24,1.29-10.08,2.71-15.27,1.65-6.06,2.27-9.3,2.27-9.3Z" style="fill:#263238"></path><path d="M64.27,358.69c-.43,9.88.74,16.81.81,23.13a44.14,44.14,0,0,1-.92,8.55c-.84,4-2.28,9.64-2.88,12.26-.84,3.65-1.48,5.95-.19,10.05a4.83,4.83,0,0,0,.42.93c1.79,3.37,6.36,5.92,7.82,5.52a2.58,2.58,0,0,0,2.58.88,4.21,4.21,0,0,0,.48-.12,2.92,2.92,0,0,0,.49-.19,4.91,4.91,0,0,0,2.43-3.11,8.76,8.76,0,0,0,.24-.89A37.44,37.44,0,0,0,76,405.21c0-2.74,0-5.39.23-9.1s.81-15,2.12-20.6c1-3.88,2.19-8.75,3.47-13.94Z" style="fill:#ffbda7"></path><path d="M60.39,407.38c3.6-1.56,14-1.78,15.71,3.22,0,4.69.07,7.88-2.95,12-4,5.43-9.26-.33-11.27-4S59.9,409.91,60.39,407.38Z" style="fill:#37474f"></path><path d="M74.3,231.78c-7.07,8.39-8.5,15.37-8.67,38.36-.2,26.73.46,36.58.33,39.8s-2.24,9.13-4,25,.1,54.32.1,54.32,1.27,2.59,7.45,3.18c5.7.55,9-1.42,9-1.42s9.06-50.5,11.29-60S98.57,290,98.57,290l2.14,30s-1.81,8.75-.17,22.68,5.84,40.27,5.84,40.27,2.42,2.41,9.88,2.27c7.92-.15,9.58-2.32,9.58-2.32s1.77-56.64,1.89-72.42,2.2-54.52-3.83-78.58Z" style="fill:#455a64"></path><path d="M103.89,259.72,98.57,290l2.14,30V289.7l4.73-24.87c3.88-.88,12.74-5.38,15.21-11.88C114.64,259,103.89,259.72,103.89,259.72Zm-18-17.87c.71-2.54,1.45-5.08,2.28-7.62a37.51,37.51,0,0,0-3.55,7.22,70.69,70.69,0,0,0-2.38,7.66c-.63,2.6-1.16,5.21-1.53,7.86a51.81,51.81,0,0,0-.59,8c.66-2.6,1.29-5.17,1.91-7.74s1.22-5.14,1.88-7.7S85.21,244.4,85.9,241.85ZM82,239.91c.89-1.55,1.78-3.1,2.6-4.74a28.76,28.76,0,0,0-3.71,4,39.31,39.31,0,0,0-3,4.54,33.61,33.61,0,0,0-2.31,4.94A21,21,0,0,0,74.3,254l2.51-4.76c.85-1.56,1.69-3.12,2.57-4.65S81.15,241.47,82,239.91Zm-4,101.3q-2.34,12.3-4.37,24.68,3-12.19,5.68-24.42c1.82-8.16,3.52-16.31,5.22-24.52s2.69-16.54,3.57-24.84,1.57-16.64,2.15-25c-1.24,8.26-2.35,16.54-3.47,24.81s-2.32,16.52-3.93,24.68S79.59,333,78,341.21Zm42.52-40.68c.14,3.62.33,7.26.24,10.84s.07,10.5-.14,14.12c0,0-.21,21.33.43,29.41.92-7.22,1.12-36.17,1.42-43.49,0-7.36-.54-14.59-1.15-21.85s-1.47-14.49-2.56-21.69L120,289.65C120.2,293.28,120.42,296.9,120.56,300.53Z" style="fill:#37474f"></path></g></g><g id="freepik--Top--inject-2"><path d="M70.86,148.94c.12,2.7,1.24,5.6,0,8-1.38,2.58-4.85,3.19-6.9,5.27a6.34,6.34,0,0,0-1.72,5.4,16.73,16.73,0,0,0,2.12,4.83c.82,1.57,1.49,3.37,1,5.07a22.08,22.08,0,0,1-1.42,2.94,6.9,6.9,0,0,0-.11,5.26c1.14,2.88,4.1,4.63,7,5.61a32.46,32.46,0,0,0,13,1.27c4.44-.39,9.26-1.71,11.68-5.45a15.55,15.55,0,0,0,2-7.42,70.06,70.06,0,0,0-3.91-28.85c-1.47-4.11-3.21-8.6-6.53-11.59-2.44-2.19-5.29-1.95-8.26-1.06A10.8,10.8,0,0,0,70.86,148.94Z" style="fill:#263238"></path><path d="M81.74,141c-.07.33-1.07,1-1.35,1.31a13,13,0,0,0-1.6,2,10.61,10.61,0,0,0-1.39,5.16,16.23,16.23,0,0,0,2.23,7.92,49.32,49.32,0,0,0,4.82,6.78l4.48,5.58a2.8,2.8,0,0,0,1.18,1,2.76,2.76,0,0,0,1.37,0q3.49-.54,7-1.18a33.48,33.48,0,0,0,6.32-1.61,18.17,18.17,0,0,0,8.33-6.79c.92-1.38,2.15-3.32,2.33-5,.08-.76-.29-1.42-.1-2.21a16.48,16.48,0,0,1,1.46-2.75,14,14,0,0,0,1.44-7c-.45-4.95-3.51-11.38-12.61-13.22C98.06,129.53,83.58,131.19,81.74,141Z" style="fill:#263238"></path><path d="M197.61,190.49a4.71,4.71,0,0,0-2.72-.51,30.33,30.33,0,0,0-4.38,1.05c-2.23.51-5.83,1.36-8.06.65-.45-.14-1.35-.58-.57-1a20.45,20.45,0,0,0,3-1.61,4,4,0,0,0,1.76-2.76,1.37,1.37,0,0,0-.23-1c-.3-.38-.61-.27-1-.13a11.19,11.19,0,0,1-1.17.32l-2.45.62c-4.74,1.24-9.6,2.88-13.16,6.34-.51.5-1.66,2.13-7,5.19-5.06,2.93-18.06,10.22-18.06,10.22s-9.5-12.07-12.82-16.33c-5.88-7.53-7.58-9.65-15.62-11l2.38,25.15s12.55,14.41,16.94,17.85c6,4.71,7.64,4.25,12.51,1.36,6.35-3.78,8.92-6.16,14-10.45,6.15-5.22,8.32-7,10.34-8.45s5.09-1.49,6.61-1.54a22.91,22.91,0,0,0,6.16-.87,20.78,20.78,0,0,0,5.08-1.92,6.12,6.12,0,0,0,2.17-1.48,19.4,19.4,0,0,1,1-1.94c.55-.66,1.39-1,1.86-1.76a7.54,7.54,0,0,0,.65-1.89,3.36,3.36,0,0,1,2-1.88,3.19,3.19,0,0,0,1.21-.81C198.55,191.29,198.16,190.81,197.61,190.49Z" style="fill:#ffbda7"></path><path d="M143.64,207.93c-4.51,2.61-6.4,6.17-6.57,9.33-1.82-7,5.46-10.74,5.46-10.74Z" style="fill:#f0997a"></path><path d="M179.35,192.91a14.93,14.93,0,0,1-6.75,4.84,6.36,6.36,0,0,0,4.27-.86A5.68,5.68,0,0,0,179.35,192.91Z" style="fill:#f0997a"></path><path d="M115.2,180.55c7.66.87,10.52,3.95,15.76,10.21s12.89,16.4,12.89,16.4L158,199.83s-.76,2.46,1.94,6.34a11.75,11.75,0,0,0,6.41,4.69s-5.29,4.72-13.14,10.94-11,7.23-15,5S116,207,116,207Z" style="fill:#e0e0e0"></path><path d="M143.85,207.16a12.87,12.87,0,0,0-6.16,9.39,11.55,11.55,0,0,1,5-10.94Z" style="opacity:0.1"></path><path id="freepik--Chest--inject-2" d="M74.3,231.78c-3-2.42-.79-5-.63-9.9.12-3.79-1.75-12-1.75-12s7-10.51,4.72-28.76l10.82-2,17.61-.26,10.13,1.7a65.87,65.87,0,0,1,9.37,11.07c4.9,7.11,4.45,16.27-.84,21.93a84.74,84.74,0,0,0,.76,8.63c.63,4.16,1.32,7-.59,9.71C120.36,236.89,88.32,241,74.3,231.78Z" style="fill:#f0f0f0"></path><g id="freepik--Head--inject-2"><g id="freepik--head--inject-2"><g id="freepik--head--inject-2"><path d="M85.39,166.47a5.69,5.69,0,0,1-5.1-1.9c-2.69-2.9-2.94-5.85-1.69-7.82,1-1.61,3.56-2.65,5.34-1.56s2,2.12,2.68,3.44,2.56.29,1.94-5c3.69-1.7,3.1-7.77,5.09-10.25,3.12-3.88,8.26-2.87,9.93-2a6.81,6.81,0,0,1,7-.45c2.48,1.3,4.13,4.05,5,13.47.9,9.62.05,14.56-2.83,17.17a11.81,11.81,0,0,1-8.11,3l.13,4.47s9.84,9.34-2.84,8.42a20,20,0,0,1-14.38-8L87.49,165S87.28,166.12,85.39,166.47Z" style="fill:#ffbda7"></path><path d="M106.22,164.76a2.84,2.84,0,0,1-3.33,2.19,2.79,2.79,0,0,1-2.23-3.27Z" style="fill:#b16668"></path><path d="M100.65,164.59a2.79,2.79,0,0,0,3.24,2.37A2.86,2.86,0,0,0,100.65,164.59Z" style="fill:#f28f8f"></path><path d="M113,150.63l-3.54-1.49a1.86,1.86,0,0,1,2.47-1A2,2,0,0,1,113,150.63Z" style="fill:#263238"></path><path d="M99.42,149.67l-3.58,2a1.92,1.92,0,0,1,.68-2.75A2.19,2.19,0,0,1,99.42,149.67Z" style="fill:#263238"></path><path d="M98,154.58a1.51,1.51,0,1,0,1.51-1.5A1.51,1.51,0,0,0,98,154.58Z" style="fill:#263238"></path><path d="M109.46,153.75a1.51,1.51,0,0,0,3,0,1.51,1.51,0,1,0-3,0Z" style="fill:#263238"></path><polygon points="110.69 159.51 105.55 161.82 104.23 151.7 110.69 159.51" style="fill:#f0997a"></polygon></g></g><path d="M104.66,174.64c-5-.18-11.61-1.91-13.4-5,1,3.39,4.49,5.14,7.28,5.91a29.7,29.7,0,0,0,6.08,1Z" style="fill:#f0997a"></path></g><g id="freepik--Arm--inject-2"><path d="M107,204.29c3.22-2.15,4.83-3,6.3-3.3s6.66-2.19,8.64-2.59c1.25-.24,1.67,1.71,0,3-1.26,1-4.48,2.17-5.9,2.86s-4.29,3.81-4.29,3.81Z" style="fill:#f0997a"></path><path d="M63.12,190.5c3.38-6.33,6.77-8,13.52-9.36,4.23,7.74,1.11,20.82,1.11,20.82l-4.11,15.69s18.39-1.79,20.56-3,8.09-6.95,10.07-8.66c2.69-2.31,4-1.93,5.26-1.68,4.27.83,5.2,1.22,6.08,1.83a1.88,1.88,0,0,1,.76,1.68c1.14.19,2.85.23,3,2.08a5,5,0,0,1,0,1.48,1.24,1.24,0,0,1,.72.45c.91,1.12-.89,4.79-2,5.66a3.79,3.79,0,0,1-3.15.4c-1.15-.21-.56-1.34-.56-1.34l-1.62,0c-3.61,2.29-4,7.11-8.67,8a31.65,31.65,0,0,0-5.69.82c-10.1,2.84-26.86,12.06-35.76,12.42-8.69.35-8.24-4.17-8.14-9.38C54.62,223.73,59.75,196.81,63.12,190.5Z" style="fill:#ffbda7"></path><path d="M74.09,215.88l-.45,1.77c-4,.82-8.83,5.72-9.87,7.79C64.65,222.12,67.08,217.39,74.09,215.88Z" style="fill:#f0997a"></path><path d="M116.37,207.8l-5.06-1.24,5,.54A1.88,1.88,0,0,1,116.37,207.8Z" style="fill:#f0997a"></path><path d="M119.36,211.36l-5.84-1,5.88.34A3.09,3.09,0,0,1,119.36,211.36Z" style="fill:#f0997a"></path><path d="M114,215.67a2.35,2.35,0,0,0,.78-1.08,19.61,19.61,0,0,0,2,0,6.51,6.51,0,0,0,.79-.19,2.13,2.13,0,0,0,.88-.49,1.8,1.8,0,0,1-.82.64,3.8,3.8,0,0,1-.89.26l-.37.69a1.41,1.41,0,0,1,.6.26,1.53,1.53,0,0,1,.48.78,1.92,1.92,0,0,0-.57-.66,1.23,1.23,0,0,0-.78-.17,2.56,2.56,0,0,0-1.71.86l-1.62,0A12.1,12.1,0,0,0,114,215.67Z" style="fill:#f0997a"></path><path d="M76.64,181.14c-8.35,1-12.51,3.18-15.49,12a169.27,169.27,0,0,0-6.38,28.62c-1.34,9.22-1.16,13.58,1.76,15.34s7.4,1.77,14.26-.41a163.17,163.17,0,0,0,16.71-6.89,15.71,15.71,0,0,1-3.06-7.63c-.68-4.89.47-6.12.47-6.12L74.3,217.26s2.43-9.1,4-15.39S79.77,183.81,76.64,181.14Z" style="fill:#e0e0e0"></path><path d="M74.3,217.26c-4.45.54-9.65,2.83-11.48,6.63,1.35-6.28,8.84-8.38,12-8.68Z" style="opacity:0.1"></path></g></g></g></g><g id="freepik--speech-bubble-2--inject-2"><g id="freepik--speech-bubble--inject-2"><g id="freepik--speech-bubble--inject-2"><path d="M427.18,79.67A26.74,26.74,0,0,1,420,98l-2.22,2.12A26.79,26.79,0,0,1,379.91,62.4L382,60.18a26.79,26.79,0,0,1,45.15,19.49Z" style="fill:#fff"></path><path d="M400.32,50.63a29.08,29.08,0,0,0-4.76,57.76l3.28,8.42a1.69,1.69,0,0,0,3.15,0l3.26-8.43a29.08,29.08,0,0,0-4.93-57.75Zm26.86,29A26.74,26.74,0,0,1,420,98l-2.22,2.12A26.79,26.79,0,0,1,379.91,62.4L382,60.18a26.79,26.79,0,0,1,45.15,19.49Z" style="fill:#455a64"></path><path d="M427.18,79.67A26.74,26.74,0,0,1,420,98l-2.22,2.12A26.79,26.79,0,0,1,379.91,62.4L382,60.18a26.79,26.79,0,0,1,45.15,19.49Z" style="fill:#fff"></path></g><path d="M402.39,87.32h-4.05a1.38,1.38,0,0,1-1.42-1.18l-1.64-23.48a1.16,1.16,0,0,1,1.24-1.19h7.68a1.14,1.14,0,0,1,1.25,1.12L403.8,86.2A1.35,1.35,0,0,1,402.39,87.32Z" style="fill:#50C878"></path><path d="M400.36,98.69a4.14,4.14,0,1,1,4.14-4.14A4.11,4.11,0,0,1,400.36,98.69Z" style="fill:#50C878"></path></g></g><g id="freepik--speech-bubble-1--inject-2"><g id="freepik--speech-bubble--inject-2"><g id="freepik--speech-bubble--inject-2"><path d="M122.44,79.67A26.78,26.78,0,0,1,115.22,98L113,100.11A26.79,26.79,0,0,1,75.18,62.4l2.11-2.22a26.79,26.79,0,0,1,45.15,19.49Z" style="fill:#fff"></path><path d="M95.58,50.63a29.08,29.08,0,0,0-4.75,57.76l3.27,8.42a1.69,1.69,0,0,0,3.15,0l3.26-8.43a29.08,29.08,0,0,0-4.93-57.75Zm26.86,29A26.78,26.78,0,0,1,115.22,98L113,100.11A26.79,26.79,0,0,1,75.18,62.4l2.11-2.22a26.79,26.79,0,0,1,45.15,19.49Z" style="fill:#455a64"></path><path d="M122.44,79.67A26.78,26.78,0,0,1,115.22,98L113,100.11A26.79,26.79,0,0,1,75.18,62.4l2.11-2.22a26.79,26.79,0,0,1,45.15,19.49Z" style="fill:#fff"></path></g><path d="M106,91.7A12.64,12.64,0,0,1,98.63,95v4.73H93.52V95.17a27.23,27.23,0,0,1-6-1.09,17.42,17.42,0,0,1-4.72-2.15l2.77-6.21a17.85,17.85,0,0,0,4.64,2.12,17.58,17.58,0,0,0,5.19.81q4.84,0,4.85-2.42a2,2,0,0,0-1.38-1.9A26.14,26.14,0,0,0,94.37,83a42.58,42.58,0,0,1-5.62-1.55,9.39,9.39,0,0,1-3.87-2.66,7.19,7.19,0,0,1-1.62-4.94A8.54,8.54,0,0,1,85.9,67.6a12.65,12.65,0,0,1,7.62-3.21V59.71h5.11V64.3a25.24,25.24,0,0,1,4.66.86,16.7,16.7,0,0,1,4,1.66l-2.6,6.25a17.38,17.38,0,0,0-8.26-2.3,6.9,6.9,0,0,0-3.66.75,2.25,2.25,0,0,0-1.15,1.94A1.92,1.92,0,0,0,93,75.24a24.68,24.68,0,0,0,4.39,1.24A41.28,41.28,0,0,1,103,78a9.84,9.84,0,0,1,3.87,2.64,7,7,0,0,1,1.64,4.92A8.43,8.43,0,0,1,106,91.7Z" style="fill:#50C878"></path></g></g><g id="freepik--Document--inject-2"><g id="freepik--Fine--inject-2"><g id="freepik--Paper--inject-2"><path d="M158,129.55l157.28-90.8a3,3,0,0,1,2.69,0l1.52.88A3,3,0,0,1,320.85,42V306.82a3,3,0,0,1-1.35,2.33L162.22,400a3,3,0,0,1-2.69,0l-1.52-.87a3,3,0,0,1-1.34-2.34V131.89A3,3,0,0,1,158,129.55Z" style="fill:#fafafa"></path><path d="M316.64,39.44a1.77,1.77,0,0,1,.84.19l1.51.87a2,2,0,0,1,.84,1.46V306.82a1.94,1.94,0,0,1-.84,1.45L161.72,399.08a1.87,1.87,0,0,1-.84.18,1.84,1.84,0,0,1-.84-.18l-1.52-.88a2,2,0,0,1-.84-1.46V131.89a2,2,0,0,1,.84-1.46L315.8,39.63a1.71,1.71,0,0,1,.84-.19m0-1a2.81,2.81,0,0,0-1.35.32L158,129.55a3,3,0,0,0-1.34,2.34V396.74a3,3,0,0,0,1.34,2.34l1.52.87a2.91,2.91,0,0,0,2.69,0l157.28-90.8a3,3,0,0,0,1.35-2.33V42a3,3,0,0,0-1.35-2.33L318,38.75a2.68,2.68,0,0,0-1.34-.32Z" style="fill:#e6e6e6"></path><path d="M161.9,400.1a2.52,2.52,0,0,1-.49.13l-.26,0a3.23,3.23,0,0,1-.82,0,2.62,2.62,0,0,1-.5-.13l-.3-.14-1.51-.88a3,3,0,0,1-1.35-2.33V131.89a2.62,2.62,0,0,1,.39-1.32l4.21,2.42a2.82,2.82,0,0,0-.39,1.33V399.18C160.88,399.91,161.31,400.28,161.9,400.1Z" style="fill:#e0e0e0"></path><path d="M319.5,39.63,318,38.75a3,3,0,0,0-2.69,0L158,129.55a3,3,0,0,0-1.34,2.34v34.85l4.21,2.45,160-92.36V42A3,3,0,0,0,319.5,39.63Z" style="fill:#50C878"></path><path d="M319.5,39.63,318,38.75a3,3,0,0,0-2.69,0L158,129.55a3,3,0,0,0-1.34,2.34v34.85l4.21,2.45,160-92.36V42A3,3,0,0,0,319.5,39.63Z" style="fill:#fff;opacity:0.4"></path><path d="M320.8,41.55c-.17-.55-.69-.73-1.3-.37L162.22,132a2.73,2.73,0,0,0-.95,1l-4.21-2.43a2.64,2.64,0,0,1,1-1L315.29,38.75a3,3,0,0,1,2.69,0l1.52.87A3,3,0,0,1,320.8,41.55Z" style="fill:#50C878"></path><path d="M320.8,41.55c-.17-.55-.69-.73-1.3-.37L162.22,132a2.73,2.73,0,0,0-.95,1l-4.21-2.43a2.64,2.64,0,0,1,1-1L315.29,38.75a3,3,0,0,1,2.69,0l1.52.87A3,3,0,0,1,320.8,41.55Z" style="fill:#fff;opacity:0.6000000000000001"></path><path d="M156.67,131.89v34.87l4.21,2.43V134.31a2.78,2.78,0,0,1,.39-1.32l-4.21-2.43A2.65,2.65,0,0,0,156.67,131.89Z" style="fill:#50C878"></path></g><g id="freepik--clip-board--inject-2"><path d="M172.08,222.37l75.61-43.73c.42-.25.77,0,.77.44v1a1.72,1.72,0,0,1-.77,1.33l-75.61,43.73c-.42.25-.76.05-.76-.44v-1A1.71,1.71,0,0,1,172.08,222.37Z" style="fill:#50C878"></path><path d="M172.08,229.65l75.61-43.75c.42-.25.77-.05.77.44v1a1.72,1.72,0,0,1-.77,1.33l-75.61,43.75c-.42.24-.76.05-.76-.44v-1A1.69,1.69,0,0,1,172.08,229.65Z" style="fill:#50C878"></path><path d="M171.32,276.09v1.41c0,.76.53,1.07,1.19.69l88.87-51.28a2.64,2.64,0,0,0,1.19-2.07v-1.41c0-.76-.53-1.07-1.19-.69L172.51,274A2.64,2.64,0,0,0,171.32,276.09Z" style="fill:#e0e0e0"></path><path d="M171.32,285v1.4c0,.77.53,1.08,1.19.7l134.43-77.6a2.65,2.65,0,0,0,1.2-2.07V206c0-.76-.54-1.07-1.2-.69l-134.43,77.6A2.64,2.64,0,0,0,171.32,285Z" style="fill:#e0e0e0"></path><path d="M171.32,293.4v1.4c0,.77.53,1.08,1.19.7l134.43-77.6a2.65,2.65,0,0,0,1.2-2.07v-1.41c0-.76-.54-1.07-1.2-.69l-134.43,77.6A2.64,2.64,0,0,0,171.32,293.4Z" style="fill:#e0e0e0"></path><path d="M308.14,119.47v-1.4c0-.77-.54-1.07-1.2-.69l-5,2.79a2.65,2.65,0,0,0-1.2,2.07v1.41c0,.77.54,1.08,1.2.69l5-2.8A2.65,2.65,0,0,0,308.14,119.47Z" style="fill:#e0e0e0"></path><path d="M308.14,110.6v-1.4c0-.76-.54-1.07-1.2-.69l-50.56,29.11a2.65,2.65,0,0,0-1.2,2.07v1.41c0,.76.54,1.07,1.2.69l50.56-29.11A2.67,2.67,0,0,0,308.14,110.6Z" style="fill:#e0e0e0"></path><path d="M308.14,102.16v-1.4c0-.76-.54-1.07-1.2-.69l-50.56,29.11a2.65,2.65,0,0,0-1.2,2.07v1.41c0,.76.54,1.07,1.2.69l50.56-29.11A2.67,2.67,0,0,0,308.14,102.16Z" style="fill:#e0e0e0"></path><path d="M171.32,304.45v1.41c0,.76.53,1.07,1.19.69l88.87-51.28a2.64,2.64,0,0,0,1.19-2.07v-1.41c0-.76-.53-1.07-1.19-.69l-88.87,51.28A2.64,2.64,0,0,0,171.32,304.45Z" style="fill:#e0e0e0"></path><path d="M171.32,313.32v1.41c0,.76.53,1.07,1.19.69l134.43-77.6a2.65,2.65,0,0,0,1.2-2.07v-1.41c0-.76-.54-1.07-1.2-.69l-134.43,77.6A2.64,2.64,0,0,0,171.32,313.32Z" style="fill:#e0e0e0"></path><path d="M171.32,321.76v1.41c0,.76.53,1.07,1.19.69l134.43-77.6a2.65,2.65,0,0,0,1.2-2.07v-1.41c0-.76-.54-1.07-1.2-.69l-134.43,77.6A2.64,2.64,0,0,0,171.32,321.76Z" style="fill:#e0e0e0"></path><path d="M171.32,246.24v1.4c0,.76.53,1.07,1.19.69l134.43-77.62a2.65,2.65,0,0,0,1.2-2.07v-1.41c0-.77-.54-1.08-1.2-.69L172.51,244.17A2.62,2.62,0,0,0,171.32,246.24Z" style="fill:#e0e0e0"></path><path d="M171.32,255.19v1.41c0,.76.53,1.07,1.19.69l134.43-77.63a2.65,2.65,0,0,0,1.2-2.07v-1.41c0-.76-.54-1.07-1.2-.69L172.51,253.12A2.64,2.64,0,0,0,171.32,255.19Z" style="fill:#e0e0e0"></path><path d="M171.32,264.15v1.4c0,.77.53,1.08,1.19.69l134.43-77.62a2.65,2.65,0,0,0,1.2-2.07v-1.41c0-.76-.54-1.07-1.2-.69L172.51,262.08A2.64,2.64,0,0,0,171.32,264.15Z" style="fill:#e0e0e0"></path><path d="M172.75,144l55.07-31.82c.79-.45,1.44-.08,1.44.83v.42a3.17,3.17,0,0,1-1.44,2.49l-55.07,31.82c-.79.46-1.43.09-1.43-.83v-.42A3.18,3.18,0,0,1,172.75,144Z" style="fill:#fafafa"></path><path d="M172.75,151.5l32.77-18.91c.79-.46,1.44-.09,1.44.83v.42a3.2,3.2,0,0,1-1.44,2.49l-32.77,18.91c-.79.46-1.43.09-1.43-.83V154A3.19,3.19,0,0,1,172.75,151.5Z" style="fill:#fafafa"></path><path d="M282.93,79.89l24.49-14.16c.4-.23.72,0,.72.42v.93a1.59,1.59,0,0,1-.72,1.24L282.93,82.47c-.4.23-.72,0-.72-.41v-.93A1.56,1.56,0,0,1,282.93,79.89Z" style="fill:#50C878"></path><path d="M282.93,91.17,307.42,77c.4-.23.72,0,.72.41v.93a1.57,1.57,0,0,1-.72,1.24L282.93,93.76c-.4.22-.72,0-.72-.42v-.93A1.57,1.57,0,0,1,282.93,91.17Z" style="fill:#50C878"></path><path d="M288,82.58l19.44-11.22c.4-.23.72,0,.72.41v.93a1.56,1.56,0,0,1-.72,1.24L288,85.17c-.4.23-.72,0-.72-.42v-.93A1.57,1.57,0,0,1,288,82.58Z" style="fill:#50C878"></path><path d="M188.09,168a.6.6,0,0,1,.7,0,.91.91,0,0,1,.3.77v3.5a2.31,2.31,0,0,1-.3,1.1,1.93,1.93,0,0,1-.7.8L176.3,181v9.55l11-6.38a.6.6,0,0,1,.7,0,.91.91,0,0,1,.3.77v3.5a2.31,2.31,0,0,1-.3,1.1,1.87,1.87,0,0,1-.7.8l-11,6.38V208a2.36,2.36,0,0,1-.29,1.11,2,2,0,0,1-.7.8l-3,1.72a.59.59,0,0,1-.7,0,.9.9,0,0,1-.29-.77V179a2.36,2.36,0,0,1,.29-1.11,2,2,0,0,1,.7-.8Z" style="fill:#455a64"></path><path d="M194.37,198.85a.58.58,0,0,1-.7,0,.89.89,0,0,1-.3-.76V166.27a2.34,2.34,0,0,1,.3-1.1,1.86,1.86,0,0,1,.7-.8l3-1.73a.58.58,0,0,1,.7,0,.89.89,0,0,1,.3.76v31.83a2.31,2.31,0,0,1-.3,1.1,1.81,1.81,0,0,1-.7.8Z" style="fill:#455a64"></path><path d="M220.89,183.54c-.41.24-.73.27-1,.11a3.92,3.92,0,0,1-.48-.42l-10.34-14.52V189a2.38,2.38,0,0,1-.3,1.11,1.92,1.92,0,0,1-.7.8l-3,1.72a.58.58,0,0,1-.7,0,.87.87,0,0,1-.3-.76V160.07a2.38,2.38,0,0,1,.3-1.11,1.92,1.92,0,0,1,.7-.8l2.59-1.49c.41-.24.73-.28,1-.11a3.26,3.26,0,0,1,.48.41l10.34,14.52v-20.3a2.34,2.34,0,0,1,.3-1.1,1.81,1.81,0,0,1,.7-.8l3-1.73a.58.58,0,0,1,.7,0,.89.89,0,0,1,.3.76v31.83a2.31,2.31,0,0,1-.3,1.1,1.81,1.81,0,0,1-.7.8Z" style="fill:#455a64"></path><path d="M247.46,162a.58.58,0,0,1,.7,0,.89.89,0,0,1,.3.77v3.49a2.38,2.38,0,0,1-.3,1.11,1.93,1.93,0,0,1-.7.8l-16.22,9.36a.58.58,0,0,1-.7,0,.87.87,0,0,1-.3-.76V145a2.38,2.38,0,0,1,.3-1.11,1.86,1.86,0,0,1,.7-.8l15.92-9.19a.58.58,0,0,1,.7,0,.89.89,0,0,1,.3.76v3.5a2.38,2.38,0,0,1-.3,1.11,1.83,1.83,0,0,1-.7.79l-11.93,6.89v7.84l11.12-6.42a.58.58,0,0,1,.7,0,.87.87,0,0,1,.3.76v3.5a2.31,2.31,0,0,1-.3,1.1,2,2,0,0,1-.7.81l-11.12,6.41v8.18Z" style="fill:#455a64"></path></g><path d="M238.32,303.94a6.59,6.59,0,0,1,2.91-.39,4.18,4.18,0,0,1,2.09.79A4.08,4.08,0,0,1,244.6,306a5.84,5.84,0,0,1,.51,2,2,2,0,0,1-.91,1.74l-2.36,1.36c-.39.23-.67.29-.87.21a1.33,1.33,0,0,1-.52-.49,2.35,2.35,0,0,0-1.54-1.07,4.74,4.74,0,0,0-3,.93,10.12,10.12,0,0,0-1.67,1.21,10.39,10.39,0,0,0-1.39,1.52,7.57,7.57,0,0,0-.92,1.69,4.62,4.62,0,0,0-.34,1.72,2.29,2.29,0,0,0,.37,1.48,1.5,1.5,0,0,0,1.2.43,8.63,8.63,0,0,0,2.12-.35c.87-.23,1.92-.52,3.16-.88a13.23,13.23,0,0,1,3.43-.6,4,4,0,0,1,2.29.56,3.25,3.25,0,0,1,1.29,1.81,10.5,10.5,0,0,1,.39,3.06,13.28,13.28,0,0,1-.51,3.58,17.41,17.41,0,0,1-1.47,3.59,18.83,18.83,0,0,1-2.35,3.38,20.46,20.46,0,0,1-3.14,2.94v3.06a2.16,2.16,0,0,1-.27,1,1.73,1.73,0,0,1-.64.73l-2.73,1.58a.54.54,0,0,1-.64,0,.83.83,0,0,1-.27-.7v-3.06a9,9,0,0,1-2.86.59,4.82,4.82,0,0,1-2.33-.48A3.89,3.89,0,0,1,227,337a6,6,0,0,1-.67-2.74,1.72,1.72,0,0,1,.25-1,1.79,1.79,0,0,1,.66-.72l2.36-1.37a1.17,1.17,0,0,1,.88-.23.86.86,0,0,1,.5.51,4.05,4.05,0,0,0,.58.84,1.58,1.58,0,0,0,.91.51,3.43,3.43,0,0,0,1.43-.08,8.42,8.42,0,0,0,2.15-.95,16.5,16.5,0,0,0,2-1.33,10.19,10.19,0,0,0,1.65-1.63,9,9,0,0,0,1.15-1.83,4.77,4.77,0,0,0,.44-2,1.63,1.63,0,0,0-.47-1.35,2,2,0,0,0-1.44-.25,14.1,14.1,0,0,0-2.38.52c-.95.27-2,.56-3.27.85a12.06,12.06,0,0,1-3,.43,3.24,3.24,0,0,1-3.32-2.45,10.33,10.33,0,0,1-.41-3.25,12.84,12.84,0,0,1,.51-3.54,17.47,17.47,0,0,1,1.4-3.48,18,18,0,0,1,2.14-3.22,19.63,19.63,0,0,1,2.74-2.73v-3.06a2.16,2.16,0,0,1,.27-1,1.67,1.67,0,0,1,.64-.73l2.73-1.58a.54.54,0,0,1,.64,0,.82.82,0,0,1,.27.7Z" style="fill:#50C878"></path><path d="M260.1,291.37a6.7,6.7,0,0,1,2.9-.4,4.33,4.33,0,0,1,2.1.8,4,4,0,0,1,1.28,1.62,6.07,6.07,0,0,1,.51,2,1.85,1.85,0,0,1-.26,1,2,2,0,0,1-.65.72l-2.37,1.36c-.38.22-.67.29-.86.21a1.26,1.26,0,0,1-.52-.49,2.35,2.35,0,0,0-1.54-1.07,4.72,4.72,0,0,0-3.05.93,10.19,10.19,0,0,0-1.68,1.21,9.35,9.35,0,0,0-1.38,1.52,8,8,0,0,0-.93,1.69,4.83,4.83,0,0,0-.34,1.72,2.38,2.38,0,0,0,.37,1.48,1.5,1.5,0,0,0,1.2.43,8.77,8.77,0,0,0,2.13-.35c.87-.23,1.92-.52,3.16-.88a13.24,13.24,0,0,1,3.42-.6,4,4,0,0,1,2.3.56,3.21,3.21,0,0,1,1.28,1.8,10.24,10.24,0,0,1,.39,3.07,13.16,13.16,0,0,1-.51,3.57,16.69,16.69,0,0,1-1.46,3.6,20,20,0,0,1-5.49,6.32v3.06a2.19,2.19,0,0,1-.27,1,1.8,1.8,0,0,1-.64.73l-2.74,1.58a.56.56,0,0,1-.64,0,.83.83,0,0,1-.27-.7v-3.06a8.91,8.91,0,0,1-2.85.59,4.91,4.91,0,0,1-2.33-.48,3.84,3.84,0,0,1-1.6-1.57,6,6,0,0,1-.68-2.74,1.85,1.85,0,0,1,.25-1,1.91,1.91,0,0,1,.66-.71l2.37-1.37a1.15,1.15,0,0,1,.87-.23.87.87,0,0,1,.51.51,4.78,4.78,0,0,0,.57.84,1.61,1.61,0,0,0,.92.51,3.3,3.3,0,0,0,1.43-.09,8.3,8.3,0,0,0,2.14-.94,15.72,15.72,0,0,0,2-1.33,11.15,11.15,0,0,0,1.66-1.63,8.74,8.74,0,0,0,1.14-1.84,4.54,4.54,0,0,0,.44-2,1.6,1.6,0,0,0-.47-1.35,2,2,0,0,0-1.43-.25,13.7,13.7,0,0,0-2.38.52c-1,.27-2,.56-3.28.85a11.47,11.47,0,0,1-2.95.42,3.48,3.48,0,0,1-2.1-.61,3.55,3.55,0,0,1-1.23-1.83,10.74,10.74,0,0,1-.4-3.26,12.7,12.7,0,0,1,.5-3.53,18.85,18.85,0,0,1,1.4-3.49,18.44,18.44,0,0,1,2.15-3.22,20,20,0,0,1,2.73-2.72v-3.06a2.16,2.16,0,0,1,.27-1,1.83,1.83,0,0,1,.64-.74l2.74-1.57a.52.52,0,0,1,.64,0,.8.8,0,0,1,.27.69Z" style="fill:#50C878"></path><path d="M281.88,278.79a6.83,6.83,0,0,1,2.9-.39,4.29,4.29,0,0,1,2.09.8,4,4,0,0,1,1.28,1.62,5.57,5.57,0,0,1,.51,2,1.85,1.85,0,0,1-.25,1,1.94,1.94,0,0,1-.66.72L285.39,286c-.39.22-.67.29-.87.2a1.23,1.23,0,0,1-.52-.48,2.32,2.32,0,0,0-1.53-1.07,4.75,4.75,0,0,0-3.06.93,10.12,10.12,0,0,0-1.67,1.21,9.9,9.9,0,0,0-1.39,1.52,7.29,7.29,0,0,0-.92,1.68,4.67,4.67,0,0,0-.34,1.73,2.26,2.26,0,0,0,.37,1.47,1.47,1.47,0,0,0,1.2.44,9.29,9.29,0,0,0,2.13-.35c.86-.23,1.91-.53,3.15-.88a13.75,13.75,0,0,1,3.43-.61,4,4,0,0,1,2.29.57,3.23,3.23,0,0,1,1.29,1.8,10.17,10.17,0,0,1,.39,3.06,13.23,13.23,0,0,1-.51,3.58,17.26,17.26,0,0,1-1.47,3.6,19.19,19.19,0,0,1-2.35,3.38,20.3,20.3,0,0,1-3.13,2.93v3.06a2.24,2.24,0,0,1-.28,1,1.79,1.79,0,0,1-.64.73l-2.73,1.58a.56.56,0,0,1-.64,0,.83.83,0,0,1-.27-.7V313.3a8.72,8.72,0,0,1-2.86.58,4.89,4.89,0,0,1-2.32-.47,3.82,3.82,0,0,1-1.61-1.58,6,6,0,0,1-.67-2.73,1.77,1.77,0,0,1,.25-1,1.94,1.94,0,0,1,.66-.72l2.36-1.36a1.24,1.24,0,0,1,.88-.24,1,1,0,0,1,.51.52,3.89,3.89,0,0,0,.57.84,1.58,1.58,0,0,0,.91.51,3.3,3.3,0,0,0,1.43-.09,8.34,8.34,0,0,0,2.15-.94,17.79,17.79,0,0,0,2-1.33,10.24,10.24,0,0,0,1.65-1.64,8.48,8.48,0,0,0,1.15-1.83,4.7,4.7,0,0,0,.44-2,1.6,1.6,0,0,0-.47-1.34,2,2,0,0,0-1.44-.25,15,15,0,0,0-2.38.51c-.94.28-2,.57-3.27.86a11.54,11.54,0,0,1-3,.42,3.21,3.21,0,0,1-3.32-2.45,10.59,10.59,0,0,1-.41-3.25,12.72,12.72,0,0,1,.51-3.53,18.18,18.18,0,0,1,1.4-3.49,18.38,18.38,0,0,1,2.14-3.22,20.12,20.12,0,0,1,2.74-2.72v-3.07a2.19,2.19,0,0,1,.27-1,1.79,1.79,0,0,1,.64-.73L281,275a.56.56,0,0,1,.64,0,.83.83,0,0,1,.28.7Z" style="fill:#50C878"></path><path d="M305.2,290.57l-3.51,2a.75.75,0,0,1-1.23-.66L299,265.66a2.37,2.37,0,0,1,1.08-2l6.64-3.84c.64-.36,1.13-.07,1.09.67l-1.43,28.09A2.74,2.74,0,0,1,305.2,290.57Z" style="fill:#455a64"></path><path d="M303.44,304.71c-2.24,1.29-3.58-.38-3.58-2.71a8.49,8.49,0,0,1,3.58-6.84c2.24-1.29,3.58.38,3.58,2.71A8.47,8.47,0,0,1,303.44,304.71Z" style="fill:#455a64"></path></g></g><g id="freepik--Banknotes--inject-2"><g id="freepik--Money--inject-2"><polygon points="213.03 376.36 342.96 301.57 407.93 338.97 277.99 413.75 213.03 376.36" style="fill:#50C878"></polygon><polygon points="213.03 376.36 342.96 301.57 407.93 338.97 277.99 413.75 213.03 376.36" style="fill:#fff;opacity:0.7000000000000001"></polygon><path d="M343,305.51,219.87,376.36,278,409.82,401.09,339ZM278,407.85l-54.7-31.49L343,307.48,397.67,339Z" style="fill:#50C878"></path><path d="M286.25,371.94c-5.81-3.34-9-7.92-9-12.88,0-5.41,3.91-10.76,10.73-14.69,13.36-7.69,34.33-8.13,46.74-1,5.82,3.34,9,7.92,9,12.88,0,5.41-3.91,10.77-10.73,14.69h0c-7,4-16.09,6.07-24.94,6.07C300,377,292.16,375.35,286.25,371.94Zm2.29-26.57c-6.44,3.72-10.14,8.71-10.14,13.69,0,4.53,3,8.75,8.44,11.88,12.09,7,32.53,6.52,45.57-1h0c6.45-3.72,10.15-8.7,10.15-13.69,0-4.53-3-8.75-8.44-11.88-5.75-3.31-13.39-4.95-21.22-4.95C304.26,339.44,295.38,341.44,288.54,345.37Z" style="fill:#50C878"></path><g style="opacity:0.5"><path d="M288.36,368.31c-4.46-2.57-6.92-5.85-6.92-9.25,0-3.87,3.15-7.9,8.63-11.06,6.1-3.51,14.42-5.52,22.83-5.52,7.62,0,14.61,1.61,19.7,4.54,4.46,2.57,6.91,5.85,6.91,9.25,0,3.87-3.14,7.9-8.62,11.06-6.1,3.51-14.42,5.52-22.83,5.52C300.44,372.85,293.44,371.24,288.36,368.31Z" style="fill:#50C878"></path></g><path d="M281.13,398.79a7,7,0,0,0-6.27,0l-3.7,2.13-35.63-20.38,4.3-2.46c.72-.43,1.13-.95,1.12-1.48s-.4-1-1.13-1.46l-4.28-2.47L274.65,350l-.77,1.66a15.39,15.39,0,0,0-1.44,6.39c0,6.35,6.38,12.86,12.7,16.49A54.32,54.32,0,0,0,310,381.1a60,60,0,0,0,7.7-.49l2.86-.36-35.72,20.68Z" style="fill:#50C878;opacity:0.5"></path><g style="opacity:0.4"><path d="M263.87,385.25a4,4,0,0,1-2.3-3.35c0-1.41,1-2.78,2.7-3.77,3.19-1.84,8.22-1.94,11.2-.22a4,4,0,0,1,2.3,3.35c0,1.41-1,2.78-2.69,3.76a12.21,12.21,0,0,1-6,1.45A10.71,10.71,0,0,1,263.87,385.25Z" style="fill:#fff"></path></g><path d="M347,363.6a22.23,22.23,0,0,0,1.5-7.79c0-5.28-4.17-10.35-12.4-15.09-6.58-3.79-16.69-6.34-25.15-6.34a61.62,61.62,0,0,0-7.71.49l-2.89.38L336,314.76l3.7,2.14a7.1,7.1,0,0,0,6.26,0l3.7-2.14L385.26,335l-4.3,2.48c-.72.42-1.12.93-1.12,1.46a1.87,1.87,0,0,0,1.12,1.47l4.29,2.47-39,22.41Z" style="fill:#50C878;opacity:0.5"></path><g style="opacity:0.4"><path d="M345.64,338.37a4,4,0,0,1-2.3-3.35c0-1.41,1-2.78,2.69-3.76,3.2-1.85,8.22-1.95,11.2-.23a4,4,0,0,1,2.3,3.35c0,1.41-1,2.78-2.69,3.77h0a12.26,12.26,0,0,1-6,1.45A10.68,10.68,0,0,1,345.64,338.37Z" style="fill:#fff"></path></g><polygon points="213.03 376.36 213.03 392.11 277.99 429.5 277.99 413.75 213.03 376.36" style="fill:#50C878"></polygon><g style="opacity:0.2"><polygon points="213.03 376.36 213.03 392.11 277.99 429.5 277.99 413.75 213.03 376.36" style="fill:#fff"></polygon></g><g style="opacity:0.1"><polygon points="277.99 417.26 257.48 405.88 278 418.22 277.99 417.26"></polygon><polygon points="213.03 383.84 219.87 388.17 213.03 384.63 213.03 383.84"></polygon><polygon points="213.03 387.59 247.22 407.85 213.03 388.75 213.03 387.59"></polygon><polygon points="278 421.01 243.81 401.95 278 422.25 278 421.01"></polygon></g><polygon points="277.99 429.5 407.93 354.71 407.93 338.97 277.99 413.75 277.99 429.5" style="fill:#50C878"></polygon><g style="opacity:0.2"><polygon points="277.99 429.5 407.93 354.71 407.93 338.97 277.99 413.75 277.99 429.5"></polygon></g><g style="opacity:0.30000000000000004"><polygon points="277.99 417.26 284.84 413.75 278 418.22 277.99 417.26"></polygon></g><g style="opacity:0.30000000000000004"><polygon points="278 421.01 312.38 401.85 278 422.25 278 421.01"></polygon></g><g style="opacity:0.30000000000000004"><polygon points="407.93 346.38 383.99 360.62 407.92 347.3 407.93 346.38"></polygon></g><g style="opacity:0.30000000000000004"><polygon points="407.93 350.34 394.25 358.65 407.92 351.22 407.93 350.34"></polygon></g><polygon points="266.68 342.87 333.9 381.57 354.41 369.77 287.19 331.06 266.68 342.87" style="fill:#fafafa"></polygon><polygon points="354.41 369.77 354.41 386.9 333.9 398.7 333.9 381.57 354.41 369.77" style="fill:#e0e0e0"></polygon><polygon points="333.9 398.7 332.7 398.01 333.9 397.32 333.9 398.7" style="fill:#e0e0e0"></polygon><polygon points="266.68 342.87 266.68 345.48 268.95 344.17 266.68 342.87" style="fill:#e0e0e0"></polygon><g style="opacity:0.30000000000000004"><polygon points="332.7 398 332.7 382.27 333.9 381.57 333.9 397.31 332.7 398"></polygon></g><g style="mix-blend-mode:multiply;opacity:0.2"><polygon points="332.7 382.27 267.74 344.87 268.95 344.17 333.9 381.57 332.7 382.27"></polygon></g><polygon points="268.89 341.6 336.12 380.3 337.83 379.31 270.6 340.62 268.89 341.6" style="fill:#455a64"></polygon><polygon points="283.25 333.33 350.49 372.03 352.2 371.05 284.97 332.35 283.25 333.33" style="fill:#455a64"></polygon><polygon points="336.12 380.3 336.12 397.43 337.83 396.44 337.83 379.31 336.12 380.3" style="fill:#263238"></polygon><polygon points="350.49 372.03 350.49 389.16 352.2 388.17 352.2 371.05 350.49 372.03" style="fill:#263238"></polygon></g></g><g id="freepik--Coins--inject-2"><g id="freepik--coins--inject-2"><g id="freepik--Coin--inject-2"><path d="M223.77,401.91a19.36,19.36,0,0,0-7.21-6.67c-11.78-6.8-30.89-6.8-42.67,0a19.36,19.36,0,0,0-7.21,6.67h-1.63v6.16h0c.22,4.29,3.15,8.54,8.82,11.81,11.78,6.8,30.89,6.8,42.67,0,5.67-3.27,8.62-7.52,8.84-11.81h0v-6.16Z" style="fill:#50C878"></path><path d="M223.77,401.91a19.36,19.36,0,0,0-7.21-6.67c-11.78-6.8-30.89-6.8-42.67,0a19.36,19.36,0,0,0-7.21,6.67h-1.63v6.16h0c.22,4.29,3.15,8.54,8.82,11.81,11.78,6.8,30.89,6.8,42.67,0,5.67-3.27,8.62-7.52,8.84-11.81h0v-6.16Z" style="opacity:0.25"></path><path d="M195.23,390.14c-7.73,0-15.45,1.7-21.34,5.1a19.36,19.36,0,0,0-7.21,6.67h-1.63v6.16h0c.22,4.29,3.15,8.54,8.82,11.81,5.89,3.4,13.61,5.1,21.34,5.1Z" style="opacity:0.1"></path><path d="M178.74,393a32.2,32.2,0,0,0-4.85,2.27,19.36,19.36,0,0,0-7.21,6.67h-1.63v6.16h0c.22,4.29,3.15,8.54,8.82,11.81a32.2,32.2,0,0,0,4.85,2.27Z" style="opacity:0.1"></path><path d="M211.7,393a32.31,32.31,0,0,1,4.86,2.27,19.36,19.36,0,0,1,7.21,6.67h1.63v6.16h0c-.22,4.29-3.17,8.54-8.84,11.81a32.31,32.31,0,0,1-4.86,2.27Z" style="fill:#50C878;opacity:0.5"></path><path d="M173.89,389.59c-11.79,6.8-11.79,17.84,0,24.64,10.31,5.95,26.22,6.7,37.94,2.23h0l.46-.18a33.65,33.65,0,0,0,4.27-2c9.83-5.68,11.46-14.29,4.9-20.94h0a22.85,22.85,0,0,0-4.89-3.7C204.78,382.79,185.67,382.79,173.89,389.59Z" style="fill:#50C878"></path><path d="M173.89,389.59c-11.79,6.8-11.79,17.84,0,24.64,10.31,5.95,26.22,6.7,37.94,2.23h0l.46-.18a33.65,33.65,0,0,0,4.27-2c9.83-5.68,11.46-14.29,4.9-20.94h0a22.85,22.85,0,0,0-4.89-3.7C204.78,382.79,185.67,382.79,173.89,389.59Z" style="opacity:0.2"></path><path d="M221.46,393.29A13.23,13.23,0,0,1,224.61,404c-1,6-9.43,11-12.32,12.24a33.65,33.65,0,0,0,4.27-2C226.39,408.55,228,399.94,221.46,393.29Z" style="fill:#f5f5f5;opacity:0.5"></path><path d="M169,410.53a13.17,13.17,0,0,1-3.15-10.75c1-6,9.42-11,12.31-12.24a32.87,32.87,0,0,0-4.26,2C164.06,395.26,162.43,403.88,169,410.53Z" style="fill:#f5f5f5;opacity:0.5"></path><path d="M215.07,413.34c11-6.33,11-16.58,0-22.91s-28.72-6.32-39.67,0-11,16.58,0,22.91S204.11,419.66,215.07,413.34Z" style="fill:#50C878"></path><path d="M215.07,413.34c11-6.33,11-16.58,0-22.91s-28.72-6.32-39.67,0-11,16.58,0,22.91S204.11,419.66,215.07,413.34Z" style="fill:#fff;opacity:0.4"></path><path d="M222,406.72c2.26-4.17,1.52-8.76-2.2-12.66a19,19,0,0,0-2.38-2.08,21.73,21.73,0,0,0-2.27-1.49q-.67-.4-1.38-.75c1.16,1.92.74,4-5.87,4.36-12.93.75,3.46,13.11,3.46,13.11S219.7,403.18,222,406.72Z" style="fill:#fff;opacity:0.2"></path><path d="M220.68,403.3c1.94-.21,2.9-2.21,2.14-4.45s-2.93-3.89-4.87-3.67-2.91,2.21-2.15,4.46S218.74,403.52,220.68,403.3Z" style="fill:#fff;opacity:0.5"></path><path d="M200.23,413.6c-.64-4.8-21.63-18.09-21.63-18.09s-4.65-1.87-3.11-5.12a25.43,25.43,0,0,0-2.24,1.45c-.48.35-.94.71-1.36,1.08-6.25,5.41-6.26,12.52,0,17.93.42.37.88.73,1.36,1.08.64.47,1.34.92,2.08,1.36s1.46.8,2.23,1.16c.61.29,1.24.56,1.89.82s1.29.49,2,.71a42,42,0,0,0,6.26,1.5l1.41.2a47.89,47.89,0,0,0,13.92-.23S199.63,416.76,200.23,413.6Z" style="fill:#50C878"></path><path d="M200.23,413.6c-.64-4.8-21.63-18.09-21.63-18.09s-4.65-1.87-3.11-5.12a25.43,25.43,0,0,0-2.24,1.45c-.48.35-.94.71-1.36,1.08-6.25,5.41-6.26,12.52,0,17.93.42.37.88.73,1.36,1.08.64.47,1.34.92,2.08,1.36s1.46.8,2.23,1.16c.61.29,1.24.56,1.89.82s1.29.49,2,.71a42,42,0,0,0,6.26,1.5l1.41.2a47.89,47.89,0,0,0,13.92-.23S199.63,416.76,200.23,413.6Z" style="fill:#fff;opacity:0.30000000000000004"></path><path d="M180.45,393.35c-7.83,4.52-8.15,11.73-1,16.47.31.21.63.4,1,.6,8.16,4.71,21.39,4.71,29.55,0s8.16-12.35,0-17.07c-.33-.19-.67-.37-1-.55C200.77,388.65,188.28,388.83,180.45,393.35Z" style="fill:#50C878"></path><path d="M180.45,393.35c-7.83,4.52-8.15,11.73-1,16.47.31.21.63.4,1,.6,8.16,4.71,21.39,4.71,29.55,0s8.16-12.35,0-17.07c-.33-.19-.67-.37-1-.55C200.77,388.65,188.28,388.83,180.45,393.35Z" style="opacity:0.2"></path><path d="M181.11,393.73c-7.8,4.5-7.8,11.81,0,16.31s20.45,4.5,28.25,0,7.8-11.81,0-16.31S188.91,389.23,181.11,393.73Z" style="fill:#50C878"></path><path d="M181.11,393.73c-7.8,4.5-7.8,11.81,0,16.31s20.45,4.5,28.25,0,7.8-11.81,0-16.31S188.91,389.23,181.11,393.73Z" style="opacity:0.5"></path><path d="M181.11,397c7.8-4.51,20.45-4.51,28.25,0,3.19,1.84,5.07,4.15,5.65,6.54-.58,2.4-2.46,4.71-5.65,6.55-7.8,4.5-20.45,4.5-28.25,0-3.19-1.84-5.07-4.15-5.65-6.55C176,401.1,177.92,398.79,181.11,397Z" style="fill:#50C878"></path><path d="M181.11,397c7.8-4.51,20.45-4.51,28.25,0,3.19,1.84,5.07,4.15,5.65,6.54-.58,2.4-2.46,4.71-5.65,6.55-7.8,4.5-20.45,4.5-28.25,0-3.19-1.84-5.07-4.15-5.65-6.55C176,401.1,177.92,398.79,181.11,397Z" style="opacity:0.35000000000000003"></path><path d="M207.81,405.36c0-.39,0-2,0-2.39,0-1-.67-1.92-2.13-2.77a.1.1,0,0,0-.05,0,10.27,10.27,0,0,0-7.92-.72h0c-1.05.27-2.05.61-3,.92a28.73,28.73,0,0,1-3.17,1h0a5.78,5.78,0,0,1-1.5.14,3.31,3.31,0,0,1-1.25-.33l.1-.07a2.32,2.32,0,0,1,.31-.19,6.58,6.58,0,0,1,.84-.42,5.76,5.76,0,0,1,4.44-.1l2.56-2.58v-2.38a12.18,12.18,0,0,0-7-.25,14.73,14.73,0,0,0-2.23.77l-2.56-1.48-3.06,1.77v2.37l1.05.6a2.57,2.57,0,0,0-.45,1.39V403c0,1,.7,1.92,2.18,2.78a8.93,8.93,0,0,0,4.22,1.21h.85a17.07,17.07,0,0,0,4.53-1l.88-.31-2.58,2.59v2.37a12.54,12.54,0,0,0,9.88-.43l2.53,1.46,3.06-1.76v-2.37l-1-.61A2.72,2.72,0,0,0,207.81,405.36Zm-6.44-.21a5.93,5.93,0,0,1-.71.36,6.56,6.56,0,0,1-5,.07c2.39-.84,4.39-1.58,6.1-.67Z" style="fill:#50C878"></path><path d="M197.71,399.44h0c-1.05.27-2.05.61-3,.92a28.73,28.73,0,0,1-3.17,1h0a5.78,5.78,0,0,1-1.5.14,3.29,3.29,0,0,1-1.46-.43c-1-.57-1.12-1.4.31-2.34.09-.07.2-.13.31-.2a8.11,8.11,0,0,1,.84-.41,5.76,5.76,0,0,1,4.44-.1l2.56-2.59a12.18,12.18,0,0,0-7-.25,14.73,14.73,0,0,0-2.23.77l-2.56-1.48-3.06,1.77,2.53,1.46,0,0c-2.57,2-2.62,4,.27,5.64a8.84,8.84,0,0,0,4.22,1.22h.85a17.07,17.07,0,0,0,4.53-1c2.93-1,5.31-2.14,7.28-1,1.33.76,1,1.73-.49,2.56a5.93,5.93,0,0,1-.71.36,6.58,6.58,0,0,1-5.09,0l-2.69,2.69a12.58,12.58,0,0,0,9.88-.43l2.53,1.46,3.06-1.76-2.53-1.46c2.54-2,2.83-4.11-.14-5.85a.1.1,0,0,0-.05,0A10.27,10.27,0,0,0,197.71,399.44Z" style="fill:#50C878"></path><g style="opacity:0.30000000000000004"><path d="M197.71,399.44h0c-1.05.27-2.05.61-3,.92a28.73,28.73,0,0,1-3.17,1h0a5.78,5.78,0,0,1-1.5.14,3.29,3.29,0,0,1-1.46-.43c-1-.57-1.12-1.4.31-2.34.09-.07.2-.13.31-.2a8.11,8.11,0,0,1,.84-.41,5.76,5.76,0,0,1,4.44-.1l2.56-2.59a12.18,12.18,0,0,0-7-.25,14.73,14.73,0,0,0-2.23.77l-2.56-1.48-3.06,1.77,2.53,1.46,0,0c-2.57,2-2.62,4,.27,5.64a8.84,8.84,0,0,0,4.22,1.22h.85a17.07,17.07,0,0,0,4.53-1c2.93-1,5.31-2.14,7.28-1,1.33.76,1,1.73-.49,2.56a5.93,5.93,0,0,1-.71.36,6.58,6.58,0,0,1-5.09,0l-2.69,2.69a12.58,12.58,0,0,0,9.88-.43l2.53,1.46,3.06-1.76-2.53-1.46c2.54-2,2.83-4.11-.14-5.85a.1.1,0,0,0-.05,0A10.27,10.27,0,0,0,197.71,399.44Z" style="fill:#fff"></path></g><polygon points="182.2 396.23 185.29 394.83 187.82 395.94 185.26 394.46 182.2 396.23" style="fill:#f5f5f5;opacity:0.45"></polygon><path d="M189.69,395.27a14.25,14.25,0,0,1,6.57.22L194.49,398l2.56-2.58A12.15,12.15,0,0,0,189.69,395.27Z" style="fill:#f5f5f5;opacity:0.45"></path><path d="M205.63,400.16a.1.1,0,0,1,.05,0c3,1.74,2.68,3.88.14,5.85,2.25-2.46,1.84-4.17-.6-5.58a11.56,11.56,0,0,0-7.51-1A10.27,10.27,0,0,1,205.63,400.16Z" style="fill:#f5f5f5;opacity:0.45"></path><polygon points="205.82 406.05 207.76 407.54 205.29 409.27 208.35 407.51 205.82 406.05" style="fill:#f5f5f5;opacity:0.45"></polygon><path d="M200.66,405.51a6.57,6.57,0,0,1-4.87.42l-2.91,2.31,2.69-2.69A6.58,6.58,0,0,0,200.66,405.51Z" style="fill:#f5f5f5;opacity:0.45"></path><path d="M191.55,401.35a4,4,0,0,1-3.66-.35c-.88-.76-.31-1.57,1-2.28-1.43.94-1.29,1.77-.31,2.34a3.29,3.29,0,0,0,1.46.43A5.78,5.78,0,0,0,191.55,401.35Z" style="fill:#f5f5f5;opacity:0.45"></path><path d="M184.71,397.71c-.22.19-2.06,1.91-1.24,3.62s3.56,3,5.73,3.24h0a8.84,8.84,0,0,1-4.22-1.22C182.09,401.69,182.14,399.66,184.71,397.71Z" style="fill:#f5f5f5;opacity:0.45"></path></g><g id="freepik--coin--inject-2"><path d="M225.17,393.6a19.58,19.58,0,0,0-7.21-6.66c-11.79-6.8-30.89-6.8-42.68,0a19.46,19.46,0,0,0-7.2,6.66h-1.63v6.17h0c.21,4.29,3.15,8.54,8.81,11.81,11.79,6.8,30.89,6.8,42.68,0,5.66-3.27,8.62-7.52,8.84-11.81h0V393.6Z" style="fill:#50C878"></path><path d="M225.17,393.6a19.58,19.58,0,0,0-7.21-6.66c-11.79-6.8-30.89-6.8-42.68,0a19.46,19.46,0,0,0-7.2,6.66h-1.63v6.17h0c.21,4.29,3.15,8.54,8.81,11.81,11.79,6.8,30.89,6.8,42.68,0,5.66-3.27,8.62-7.52,8.84-11.81h0V393.6Z" style="opacity:0.25"></path><path d="M196.62,381.84c-7.72,0-15.44,1.7-21.34,5.1a19.46,19.46,0,0,0-7.2,6.66h-1.63v6.17h0c.21,4.29,3.15,8.54,8.81,11.81,5.9,3.4,13.62,5.1,21.34,5.1Z" style="opacity:0.1"></path><path d="M180.14,384.66a33.36,33.36,0,0,0-4.86,2.28,19.46,19.46,0,0,0-7.2,6.66h-1.63v6.17h0c.21,4.29,3.15,8.54,8.81,11.81a33.33,33.33,0,0,0,4.86,2.27Z" style="opacity:0.1"></path><path d="M213.1,384.66a33.36,33.36,0,0,1,4.86,2.28,19.58,19.58,0,0,1,7.21,6.66h1.63v6.17h0c-.22,4.29-3.18,8.54-8.84,11.81a33.33,33.33,0,0,1-4.86,2.27Z" style="fill:#50C878;opacity:0.5"></path><path d="M175.28,381.29c-11.78,6.8-11.78,17.83,0,24.64,10.31,5.95,26.23,6.69,37.94,2.23h0l.47-.18a33.65,33.65,0,0,0,4.27-2.05c9.82-5.68,11.46-14.29,4.89-20.94h0a23,23,0,0,0-4.89-3.7C206.17,374.49,187.07,374.48,175.28,381.29Z" style="fill:#50C878"></path><path d="M175.28,381.29c-11.78,6.8-11.78,17.83,0,24.64,10.31,5.95,26.23,6.69,37.94,2.23h0l.47-.18a33.65,33.65,0,0,0,4.27-2.05c9.82-5.68,11.46-14.29,4.89-20.94h0a23,23,0,0,0-4.89-3.7C206.17,374.49,187.07,374.48,175.28,381.29Z" style="opacity:0.2"></path><path d="M222.85,385A13.18,13.18,0,0,1,226,395.74c-1,6-9.43,11-12.32,12.24a33.65,33.65,0,0,0,4.27-2.05C227.78,400.25,229.42,391.64,222.85,385Z" style="fill:#f5f5f5;opacity:0.5"></path><path d="M170.39,402.22a13.17,13.17,0,0,1-3.16-10.74c1.05-6,9.43-11,12.32-12.24a32.34,32.34,0,0,0-4.27,2.05C165.46,387,163.82,395.57,170.39,402.22Z" style="fill:#f5f5f5;opacity:0.5"></path><path d="M216.47,405c10.95-6.32,10.95-16.57,0-22.9s-28.72-6.32-39.67,0-11,16.58,0,22.9S205.51,411.36,216.47,405Z" style="fill:#50C878"></path><path d="M216.47,405c10.95-6.32,10.95-16.57,0-22.9s-28.72-6.32-39.67,0-11,16.58,0,22.9S205.51,411.36,216.47,405Z" style="fill:#fff;opacity:0.4"></path><path d="M223.41,398.42c2.25-4.17,1.52-8.76-2.21-12.66a18.84,18.84,0,0,0-2.37-2.08,23.5,23.5,0,0,0-2.27-1.5q-.67-.39-1.38-.75c1.16,1.92.73,4-5.87,4.36-12.93.76,3.45,13.11,3.45,13.11S221.1,394.88,223.41,398.42Z" style="fill:#fff;opacity:0.2"></path><path d="M222.07,395c1.94-.21,2.91-2.21,2.15-4.45s-2.94-3.89-4.88-3.67-2.9,2.21-2.15,4.45S220.13,395.22,222.07,395Z" style="fill:#fff;opacity:0.5"></path><path d="M201.62,405.3C201,400.5,180,387.21,180,387.21s-4.65-1.87-3.11-5.12a23.34,23.34,0,0,0-2.24,1.45c-.49.35-.94.71-1.37,1.08-6.24,5.41-6.25,12.51,0,17.93.42.37.88.73,1.36,1.08a21.94,21.94,0,0,0,2.08,1.35q1.07.63,2.22,1.17c.61.29,1.25.56,1.89.81s1.3.49,2,.71a40.57,40.57,0,0,0,6.26,1.51l1.41.2a46.56,46.56,0,0,0,6.26.39,47.5,47.5,0,0,0,7.66-.62S201,408.46,201.62,405.3Z" style="fill:#50C878"></path><path d="M201.62,405.3C201,400.5,180,387.21,180,387.21s-4.65-1.87-3.11-5.12a23.34,23.34,0,0,0-2.24,1.45c-.49.35-.94.71-1.37,1.08-6.24,5.41-6.25,12.51,0,17.93.42.37.88.73,1.36,1.08a21.94,21.94,0,0,0,2.08,1.35q1.07.63,2.22,1.17c.61.29,1.25.56,1.89.81s1.3.49,2,.71a40.57,40.57,0,0,0,6.26,1.51l1.41.2a46.56,46.56,0,0,0,6.26.39,47.5,47.5,0,0,0,7.66-.62S201,408.46,201.62,405.3Z" style="fill:#fff;opacity:0.30000000000000004"></path><path d="M181.84,385.05c-7.82,4.52-8.14,11.73-1,16.47.3.2.62.4,1,.59,8.16,4.72,21.39,4.72,29.55,0s8.16-12.35,0-17.06c-.33-.19-.68-.38-1-.55C202.16,380.35,189.67,380.53,181.84,385.05Z" style="fill:#50C878"></path><path d="M181.84,385.05c-7.82,4.52-8.14,11.73-1,16.47.3.2.62.4,1,.59,8.16,4.72,21.39,4.72,29.55,0s8.16-12.35,0-17.06c-.33-.19-.68-.38-1-.55C202.16,380.35,189.67,380.53,181.84,385.05Z" style="opacity:0.2"></path><path d="M182.51,385.43c-7.8,4.5-7.8,11.8,0,16.31s20.45,4.5,28.25,0,7.8-11.81,0-16.31S190.31,380.92,182.51,385.43Z" style="fill:#50C878"></path><path d="M182.51,385.43c-7.8,4.5-7.8,11.8,0,16.31s20.45,4.5,28.25,0,7.8-11.81,0-16.31S190.31,380.92,182.51,385.43Z" style="opacity:0.5"></path><path d="M182.51,388.64c7.8-4.5,20.45-4.5,28.25,0,3.19,1.85,5.07,4.16,5.65,6.55-.58,2.4-2.46,4.71-5.65,6.55-7.8,4.5-20.45,4.5-28.25,0-3.19-1.84-5.08-4.15-5.66-6.55C177.43,392.8,179.32,390.49,182.51,388.64Z" style="fill:#50C878"></path><path d="M182.51,388.64c7.8-4.5,20.45-4.5,28.25,0,3.19,1.85,5.07,4.16,5.65,6.55-.58,2.4-2.46,4.71-5.65,6.55-7.8,4.5-20.45,4.5-28.25,0-3.19-1.84-5.08-4.15-5.66-6.55C177.43,392.8,179.32,390.49,182.51,388.64Z" style="opacity:0.35000000000000003"></path><path d="M209.21,397.06v-2.39c0-1-.68-1.92-2.13-2.78l-.05,0a10.23,10.23,0,0,0-7.92-.72h0c-1.05.27-2.05.61-3,.92a28.73,28.73,0,0,1-3.17,1h0a5.48,5.48,0,0,1-1.51.15,3.41,3.41,0,0,1-1.25-.33l.1-.07.32-.2a6.38,6.38,0,0,1,.83-.41,5.76,5.76,0,0,1,4.44-.1l2.56-2.59v-2.37a12.17,12.17,0,0,0-7-.25,14.62,14.62,0,0,0-2.22.77l-2.56-1.48-3.06,1.77v2.37l1.05.6a2.48,2.48,0,0,0-.45,1.38v2.37c0,1,.7,1.92,2.18,2.77a8.84,8.84,0,0,0,4.22,1.22h0a7.85,7.85,0,0,0,.84,0,16.39,16.39,0,0,0,4.54-1l.88-.3-2.58,2.59v2.37a12.58,12.58,0,0,0,9.88-.43l2.53,1.46,3.05-1.77V399.2l-1.05-.6A2.74,2.74,0,0,0,209.21,397.06Zm-6.45-.21a5.81,5.81,0,0,1-.7.36,6.56,6.56,0,0,1-5,.07c2.39-.84,4.39-1.58,6.09-.67A4.44,4.44,0,0,1,202.76,396.85Z" style="fill:#50C878"></path><path d="M199.11,391.14h0c-1.05.27-2.05.61-3,.92a28.73,28.73,0,0,1-3.17,1h0a5.48,5.48,0,0,1-1.51.15,3.18,3.18,0,0,1-1.45-.44c-1-.56-1.13-1.4.3-2.33l.32-.2a6.38,6.38,0,0,1,.83-.41,5.76,5.76,0,0,1,4.44-.1l2.56-2.59a12.17,12.17,0,0,0-7-.25,14.62,14.62,0,0,0-2.22.77l-2.56-1.48-3.06,1.77,2.53,1.46,0,0c-2.57,1.95-2.62,4,.27,5.64a9,9,0,0,0,4.22,1.22h0a7.85,7.85,0,0,0,.84,0,16.39,16.39,0,0,0,4.54-1c2.93-1,5.3-2.13,7.28-1,1.32.76,1,1.72-.5,2.56a5.81,5.81,0,0,1-.7.36,6.61,6.61,0,0,1-5.1,0l-2.68,2.7a12.63,12.63,0,0,0,9.88-.43l2.53,1.46,3.05-1.77-2.53-1.46c2.55-2,2.84-4.11-.13-5.85l-.05,0A10.23,10.23,0,0,0,199.11,391.14Z" style="fill:#50C878"></path><g style="opacity:0.30000000000000004"><path d="M199.11,391.14h0c-1.05.27-2.05.61-3,.92a28.73,28.73,0,0,1-3.17,1h0a5.48,5.48,0,0,1-1.51.15,3.18,3.18,0,0,1-1.45-.44c-1-.56-1.13-1.4.3-2.33l.32-.2a6.38,6.38,0,0,1,.83-.41,5.76,5.76,0,0,1,4.44-.1l2.56-2.59a12.17,12.17,0,0,0-7-.25,14.62,14.62,0,0,0-2.22.77l-2.56-1.48-3.06,1.77,2.53,1.46,0,0c-2.57,1.95-2.62,4,.27,5.64a9,9,0,0,0,4.22,1.22h0a7.85,7.85,0,0,0,.84,0,16.39,16.39,0,0,0,4.54-1c2.93-1,5.3-2.13,7.28-1,1.32.76,1,1.72-.5,2.56a5.81,5.81,0,0,1-.7.36,6.61,6.61,0,0,1-5.1,0l-2.68,2.7a12.63,12.63,0,0,0,9.88-.43l2.53,1.46,3.05-1.77-2.53-1.46c2.55-2,2.84-4.11-.13-5.85l-.05,0A10.23,10.23,0,0,0,199.11,391.14Z" style="fill:#fff"></path></g><polygon points="183.6 387.93 186.69 386.53 189.22 387.64 186.66 386.16 183.6 387.93" style="fill:#f5f5f5;opacity:0.45"></polygon><path d="M191.09,387a14.25,14.25,0,0,1,6.57.22l-1.78,2.52,2.57-2.59A12.14,12.14,0,0,0,191.09,387Z" style="fill:#f5f5f5;opacity:0.45"></path><path d="M207,391.86l.05,0c3,1.74,2.68,3.89.13,5.85,2.26-2.45,1.85-4.16-.6-5.58a11.53,11.53,0,0,0-7.5-1A10.23,10.23,0,0,1,207,391.86Z" style="fill:#f5f5f5;opacity:0.45"></path><polygon points="207.21 397.74 209.15 399.23 206.69 400.97 209.74 399.2 207.21 397.74" style="fill:#f5f5f5;opacity:0.45"></polygon><path d="M202.06,397.21a6.6,6.6,0,0,1-4.88.42l-2.9,2.31,2.68-2.7A6.61,6.61,0,0,0,202.06,397.21Z" style="fill:#f5f5f5;opacity:0.45"></path><path d="M193,393a4,4,0,0,1-3.66-.34c-.88-.76-.32-1.58,1-2.28-1.43.93-1.28,1.77-.3,2.33a3.18,3.18,0,0,0,1.45.44A5.48,5.48,0,0,0,193,393Z" style="fill:#f5f5f5;opacity:0.45"></path><path d="M186.11,389.41c-.22.19-2.06,1.9-1.25,3.62s3.56,3,5.74,3.24h0a9,9,0,0,1-4.22-1.22C183.49,393.38,183.54,391.36,186.11,389.41Z" style="fill:#f5f5f5;opacity:0.45"></path></g><g id="freepik--coin--inject-2"><path d="M219.46,387.48a19.51,19.51,0,0,0-7.21-6.67c-11.79-6.8-30.89-6.8-42.68,0a19.4,19.4,0,0,0-7.2,6.67h-1.63v6.16h0c.22,4.29,3.15,8.54,8.81,11.81,11.79,6.8,30.9,6.8,42.68,0,5.67-3.27,8.62-7.52,8.84-11.81h0v-6.16Z" style="fill:#50C878"></path><path d="M219.46,387.48a19.51,19.51,0,0,0-7.21-6.67c-11.79-6.8-30.89-6.8-42.68,0a19.4,19.4,0,0,0-7.2,6.67h-1.63v6.16h0c.22,4.29,3.15,8.54,8.81,11.81,11.79,6.8,30.9,6.8,42.68,0,5.67-3.27,8.62-7.52,8.84-11.81h0v-6.16Z" style="opacity:0.25"></path><path d="M190.91,375.71c-7.72,0-15.44,1.7-21.34,5.1a19.4,19.4,0,0,0-7.2,6.67h-1.63v6.16h0c.22,4.29,3.15,8.54,8.81,11.81,5.9,3.4,13.62,5.1,21.34,5.1Z" style="opacity:0.1"></path><path d="M174.43,378.54a32.31,32.31,0,0,0-4.86,2.27,19.4,19.4,0,0,0-7.2,6.67h-1.63v6.16h0c.22,4.29,3.15,8.54,8.81,11.81a32.31,32.31,0,0,0,4.86,2.27Z" style="opacity:0.1"></path><path d="M207.39,378.54a32.31,32.31,0,0,1,4.86,2.27,19.51,19.51,0,0,1,7.21,6.67h1.63v6.16h0c-.22,4.29-3.17,8.54-8.84,11.81a32.31,32.31,0,0,1-4.86,2.27Z" style="fill:#50C878;opacity:0.5"></path><path d="M169.57,375.16c-11.78,6.8-11.78,17.84,0,24.64,10.32,5.95,26.23,6.7,37.94,2.23h0l.46-.18a33.65,33.65,0,0,0,4.27-2.05c9.83-5.68,11.46-14.29,4.89-20.94h0a23.1,23.1,0,0,0-4.89-3.7C200.47,368.36,181.36,368.36,169.57,375.16Z" style="fill:#50C878"></path><path d="M169.57,375.16c-11.78,6.8-11.78,17.84,0,24.64,10.32,5.95,26.23,6.7,37.94,2.23h0l.46-.18a33.65,33.65,0,0,0,4.27-2.05c9.83-5.68,11.46-14.29,4.89-20.94h0a23.1,23.1,0,0,0-4.89-3.7C200.47,368.36,181.36,368.36,169.57,375.16Z" style="opacity:0.2"></path><path d="M217.14,378.86a13.18,13.18,0,0,1,3.16,10.75c-1,6-9.43,11-12.32,12.24a33.65,33.65,0,0,0,4.27-2.05C222.08,394.12,223.71,385.51,217.14,378.86Z" style="fill:#f5f5f5;opacity:0.5"></path><path d="M164.68,396.1a13.2,13.2,0,0,1-3.16-10.75c1-6,9.43-11,12.32-12.24a32.87,32.87,0,0,0-4.26,2.05C159.75,380.83,158.12,389.45,164.68,396.1Z" style="fill:#f5f5f5;opacity:0.5"></path><ellipse cx="190.92" cy="387.46" rx="28.05" ry="16.19" style="fill:#50C878"></ellipse><ellipse cx="190.92" cy="387.46" rx="28.05" ry="16.19" style="fill:#fff;opacity:0.4"></ellipse><path d="M217.7,392.29c2.25-4.17,1.52-8.76-2.2-12.66a19.69,19.69,0,0,0-2.38-2.08,21.73,21.73,0,0,0-2.27-1.49q-.67-.4-1.38-.75c1.16,1.92.74,4-5.87,4.36-12.93.75,3.45,13.11,3.45,13.11S215.39,388.75,217.7,392.29Z" style="fill:#fff;opacity:0.2"></path><path d="M216.37,388.87c1.94-.21,2.9-2.21,2.14-4.45s-2.94-3.89-4.88-3.67-2.9,2.21-2.14,4.46S214.43,389.09,216.37,388.87Z" style="fill:#fff;opacity:0.5"></path><path d="M195.92,399.17c-.64-4.8-21.63-18.09-21.63-18.09s-4.65-1.87-3.11-5.12a25.43,25.43,0,0,0-2.24,1.45,17,17,0,0,0-1.36,1.08c-6.25,5.41-6.26,12.52,0,17.93.42.37.88.73,1.36,1.08a24.14,24.14,0,0,0,2.08,1.36c.71.41,1.46.8,2.22,1.16s1.25.56,1.89.82,1.3.49,2,.71a42,42,0,0,0,6.26,1.5l1.41.2a47.89,47.89,0,0,0,13.92-.23S195.32,402.33,195.92,399.17Z" style="fill:#50C878"></path><path d="M195.92,399.17c-.64-4.8-21.63-18.09-21.63-18.09s-4.65-1.87-3.11-5.12a25.43,25.43,0,0,0-2.24,1.45,17,17,0,0,0-1.36,1.08c-6.25,5.41-6.26,12.52,0,17.93.42.37.88.73,1.36,1.08a24.14,24.14,0,0,0,2.08,1.36c.71.41,1.46.8,2.22,1.16s1.25.56,1.89.82,1.3.49,2,.71a42,42,0,0,0,6.26,1.5l1.41.2a47.89,47.89,0,0,0,13.92-.23S195.32,402.33,195.92,399.17Z" style="fill:#fff;opacity:0.30000000000000004"></path><path d="M176.14,378.92c-7.83,4.52-8.15,11.73-1,16.47.31.21.63.4,1,.6,8.16,4.71,21.39,4.71,29.55,0s8.16-12.35,0-17.07c-.33-.19-.68-.37-1-.55C196.46,374.22,184,374.4,176.14,378.92Z" style="fill:#50C878"></path><path d="M176.14,378.92c-7.83,4.52-8.15,11.73-1,16.47.31.21.63.4,1,.6,8.16,4.71,21.39,4.71,29.55,0s8.16-12.35,0-17.07c-.33-.19-.68-.37-1-.55C196.46,374.22,184,374.4,176.14,378.92Z" style="opacity:0.2"></path><ellipse cx="190.92" cy="387.45" rx="19.98" ry="11.53" style="fill:#50C878"></ellipse><ellipse cx="190.92" cy="387.45" rx="19.98" ry="11.53" style="opacity:0.5"></ellipse><path d="M176.8,382.52c7.8-4.51,20.45-4.51,28.25,0,3.19,1.84,5.07,4.15,5.65,6.54-.58,2.4-2.46,4.71-5.65,6.55-7.8,4.5-20.45,4.5-28.25,0-3.19-1.84-5.07-4.15-5.66-6.55C171.73,386.67,173.61,384.36,176.8,382.52Z" style="fill:#50C878"></path><path d="M176.8,382.52c7.8-4.51,20.45-4.51,28.25,0,3.19,1.84,5.07,4.15,5.65,6.54-.58,2.4-2.46,4.71-5.65,6.55-7.8,4.5-20.45,4.5-28.25,0-3.19-1.84-5.07-4.15-5.66-6.55C171.73,386.67,173.61,384.36,176.8,382.52Z" style="opacity:0.35000000000000003"></path><path d="M203.5,390.93c0-.39,0-2,0-2.39,0-1-.67-1.92-2.13-2.77a.1.1,0,0,0-.05,0,10.27,10.27,0,0,0-7.92-.72h0c-1,.27-2,.61-3,.92a28.73,28.73,0,0,1-3.17,1h0a5.82,5.82,0,0,1-1.51.14,3.41,3.41,0,0,1-1.25-.33l.1-.07a3.37,3.37,0,0,1,.32-.19,6.47,6.47,0,0,1,.83-.42,5.79,5.79,0,0,1,4.45-.1l2.56-2.58V381a12.21,12.21,0,0,0-7-.25,15,15,0,0,0-2.22.77L181,380l-3.06,1.77v2.37l1.05.6a2.57,2.57,0,0,0-.45,1.39v2.36c0,1,.7,1.92,2.18,2.78a8.93,8.93,0,0,0,4.22,1.21h.84a17.14,17.14,0,0,0,4.54-1l.88-.31-2.58,2.59v2.37a12.58,12.58,0,0,0,9.88-.43l2.53,1.46,3.05-1.76v-2.37l-1-.61A2.8,2.8,0,0,0,203.5,390.93Zm-6.44-.21a6.78,6.78,0,0,1-.71.36,6.56,6.56,0,0,1-5,.07c2.39-.84,4.39-1.58,6.09-.67Z" style="fill:#50C878"></path><path d="M193.4,385h0c-1,.27-2,.61-3,.92a28.73,28.73,0,0,1-3.17,1h0a5.82,5.82,0,0,1-1.51.14,3.29,3.29,0,0,1-1.45-.43c-1-.57-1.13-1.4.3-2.34a3.37,3.37,0,0,1,.32-.19,6.47,6.47,0,0,1,.83-.42,5.79,5.79,0,0,1,4.45-.1l2.56-2.59a12.21,12.21,0,0,0-7-.25,15,15,0,0,0-2.22.77L181,380l-3.06,1.77,2.53,1.46,0,0c-2.57,2-2.62,4,.27,5.65a8.93,8.93,0,0,0,4.22,1.21h.84a17.14,17.14,0,0,0,4.54-1c2.93-1,5.31-2.14,7.28-1,1.33.77,1,1.73-.49,2.56a6.78,6.78,0,0,1-.71.36,6.58,6.58,0,0,1-5.09,0l-2.69,2.69a12.58,12.58,0,0,0,9.88-.43l2.53,1.46,3.05-1.76-2.52-1.46c2.54-2,2.83-4.11-.14-5.85a.1.1,0,0,0-.05,0A10.27,10.27,0,0,0,193.4,385Z" style="fill:#50C878"></path><g style="opacity:0.30000000000000004"><path d="M193.4,385h0c-1,.27-2,.61-3,.92a28.73,28.73,0,0,1-3.17,1h0a5.82,5.82,0,0,1-1.51.14,3.29,3.29,0,0,1-1.45-.43c-1-.57-1.13-1.4.3-2.34a3.37,3.37,0,0,1,.32-.19,6.47,6.47,0,0,1,.83-.42,5.79,5.79,0,0,1,4.45-.1l2.56-2.59a12.21,12.21,0,0,0-7-.25,15,15,0,0,0-2.22.77L181,380l-3.06,1.77,2.53,1.46,0,0c-2.57,2-2.62,4,.27,5.65a8.93,8.93,0,0,0,4.22,1.21h.84a17.14,17.14,0,0,0,4.54-1c2.93-1,5.31-2.14,7.28-1,1.33.77,1,1.73-.49,2.56a6.78,6.78,0,0,1-.71.36,6.58,6.58,0,0,1-5.09,0l-2.69,2.69a12.58,12.58,0,0,0,9.88-.43l2.53,1.46,3.05-1.76-2.52-1.46c2.54-2,2.83-4.11-.14-5.85a.1.1,0,0,0-.05,0A10.27,10.27,0,0,0,193.4,385Z" style="fill:#fff"></path></g><polygon points="177.89 381.8 180.98 380.4 183.51 381.51 180.95 380.03 177.89 381.8" style="fill:#f5f5f5;opacity:0.45"></polygon><path d="M185.38,380.84a14.25,14.25,0,0,1,6.57.22l-1.77,2.52,2.56-2.58A12.22,12.22,0,0,0,185.38,380.84Z" style="fill:#f5f5f5;opacity:0.45"></path><path d="M201.32,385.73a.1.1,0,0,1,.05,0c3,1.74,2.68,3.88.14,5.85,2.25-2.46,1.84-4.17-.61-5.58a11.54,11.54,0,0,0-7.5-1A10.27,10.27,0,0,1,201.32,385.73Z" style="fill:#f5f5f5;opacity:0.45"></path><polygon points="201.51 391.62 203.44 393.11 200.98 394.84 204.03 393.08 201.51 391.62" style="fill:#f5f5f5;opacity:0.45"></polygon><path d="M196.35,391.08a6.57,6.57,0,0,1-4.87.42l-2.91,2.31,2.69-2.69A6.58,6.58,0,0,0,196.35,391.08Z" style="fill:#f5f5f5;opacity:0.45"></path><path d="M187.24,386.92a4,4,0,0,1-3.66-.35c-.88-.76-.31-1.58,1-2.28-1.43.94-1.28,1.77-.3,2.34a3.29,3.29,0,0,0,1.45.43A5.82,5.82,0,0,0,187.24,386.92Z" style="fill:#f5f5f5;opacity:0.45"></path><path d="M180.4,383.28c-.22.19-2.06,1.91-1.25,3.62s3.56,3,5.74,3.24h0a8.93,8.93,0,0,1-4.22-1.21C177.78,387.26,177.83,385.23,180.4,383.28Z" style="fill:#f5f5f5;opacity:0.45"></path></g><g id="freepik--coin--inject-2"><path d="M221.94,379.64a19.4,19.4,0,0,0-7.2-6.67c-11.79-6.8-30.89-6.8-42.68,0a19.51,19.51,0,0,0-7.21,6.67h-1.63v6.16h0c.22,4.29,3.15,8.54,8.82,11.81,11.79,6.8,30.89,6.8,42.68,0,5.66-3.27,8.62-7.52,8.83-11.81h0v-6.16Z" style="fill:#50C878"></path><path d="M221.94,379.64a19.4,19.4,0,0,0-7.2-6.67c-11.79-6.8-30.89-6.8-42.68,0a19.51,19.51,0,0,0-7.21,6.67h-1.63v6.16h0c.22,4.29,3.15,8.54,8.82,11.81,11.79,6.8,30.89,6.8,42.68,0,5.66-3.27,8.62-7.52,8.83-11.81h0v-6.16Z" style="opacity:0.25"></path><path d="M193.4,367.87c-7.72,0-15.45,1.7-21.34,5.1a19.51,19.51,0,0,0-7.21,6.67h-1.63v6.16h0c.22,4.29,3.15,8.54,8.82,11.81,5.89,3.4,13.62,5.1,21.34,5.1Z" style="opacity:0.1"></path><path d="M176.92,370.69a33.36,33.36,0,0,0-4.86,2.28,19.51,19.51,0,0,0-7.21,6.67h-1.63v6.16h0c.22,4.29,3.15,8.54,8.82,11.81a33.33,33.33,0,0,0,4.86,2.27Z" style="opacity:0.1"></path><path d="M209.88,370.69a33.36,33.36,0,0,1,4.86,2.28,19.4,19.4,0,0,1,7.2,6.67h1.63v6.16h0c-.21,4.29-3.17,8.54-8.83,11.81a33.33,33.33,0,0,1-4.86,2.27Z" style="fill:#50C878;opacity:0.5"></path><path d="M172.06,367.32c-11.78,6.8-11.78,17.83,0,24.64,10.31,6,26.23,6.69,37.94,2.23h0l.47-.18a33.65,33.65,0,0,0,4.27-2.05c9.82-5.68,11.46-14.29,4.89-20.94h0a23,23,0,0,0-4.89-3.7C203,360.52,183.85,360.52,172.06,367.32Z" style="fill:#50C878"></path><path d="M172.06,367.32c-11.78,6.8-11.78,17.83,0,24.64,10.31,6,26.23,6.69,37.94,2.23h0l.47-.18a33.65,33.65,0,0,0,4.27-2.05c9.82-5.68,11.46-14.29,4.89-20.94h0a23,23,0,0,0-4.89-3.7C203,360.52,183.85,360.52,172.06,367.32Z" style="opacity:0.2"></path><path d="M219.63,371a13.18,13.18,0,0,1,3.16,10.75c-1,6-9.43,11-12.32,12.24a33.65,33.65,0,0,0,4.27-2.05C224.56,386.28,226.2,377.67,219.63,371Z" style="fill:#f5f5f5;opacity:0.5"></path><path d="M167.17,388.26A13.21,13.21,0,0,1,164,377.51c1-6,9.43-11,12.32-12.24a33.65,33.65,0,0,0-4.27,2.05C162.23,373,160.6,381.61,167.17,388.26Z" style="fill:#f5f5f5;opacity:0.5"></path><path d="M213.24,391.07c11-6.33,11-16.58,0-22.91s-28.71-6.32-39.67,0-10.95,16.58,0,22.91S202.29,397.39,213.24,391.07Z" style="fill:#50C878"></path><path d="M213.24,391.07c11-6.33,11-16.58,0-22.91s-28.71-6.32-39.67,0-10.95,16.58,0,22.91S202.29,397.39,213.24,391.07Z" style="fill:#fff;opacity:0.4"></path><path d="M220.19,384.45c2.25-4.17,1.51-8.76-2.21-12.66a19.57,19.57,0,0,0-2.37-2.08,26.26,26.26,0,0,0-2.27-1.5c-.45-.26-.91-.51-1.39-.74,1.17,1.91.74,4-5.86,4.35-12.93.76,3.45,13.12,3.45,13.12S217.88,380.91,220.19,384.45Z" style="fill:#fff;opacity:0.2"></path><path d="M218.85,381c1.94-.21,2.9-2.21,2.15-4.45s-2.94-3.89-4.88-3.67-2.9,2.21-2.15,4.45S216.91,381.25,218.85,381Z" style="fill:#fff;opacity:0.5"></path><path d="M198.4,391.33c-.63-4.8-21.62-18.09-21.62-18.09s-4.65-1.87-3.11-5.12a21.08,21.08,0,0,0-2.24,1.45c-.49.35-.94.71-1.37,1.08-6.25,5.41-6.25,12.51,0,17.93.43.37.88.73,1.37,1.08a24.14,24.14,0,0,0,2.08,1.36c.71.41,1.45.8,2.22,1.16.61.29,1.25.56,1.89.81s1.3.49,2,.71a40.57,40.57,0,0,0,6.26,1.51l1.41.2a47.89,47.89,0,0,0,13.92-.23S197.8,394.49,198.4,391.33Z" style="fill:#50C878"></path><path d="M198.4,391.33c-.63-4.8-21.62-18.09-21.62-18.09s-4.65-1.87-3.11-5.12a21.08,21.08,0,0,0-2.24,1.45c-.49.35-.94.71-1.37,1.08-6.25,5.41-6.25,12.51,0,17.93.43.37.88.73,1.37,1.08a24.14,24.14,0,0,0,2.08,1.36c.71.41,1.45.8,2.22,1.16.61.29,1.25.56,1.89.81s1.3.49,2,.71a40.57,40.57,0,0,0,6.26,1.51l1.41.2a47.89,47.89,0,0,0,13.92-.23S197.8,394.49,198.4,391.33Z" style="fill:#fff;opacity:0.30000000000000004"></path><path d="M178.62,371.08c-7.83,4.52-8.14,11.73-1,16.47.3.2.62.4,1,.59,8.16,4.72,21.38,4.72,29.55,0s8.16-12.35,0-17.06c-.33-.19-.68-.38-1-.55C198.94,366.38,186.45,366.56,178.62,371.08Z" style="fill:#50C878"></path><path d="M178.62,371.08c-7.83,4.52-8.14,11.73-1,16.47.3.2.62.4,1,.59,8.16,4.72,21.38,4.72,29.55,0s8.16-12.35,0-17.06c-.33-.19-.68-.38-1-.55C198.94,366.38,186.45,366.56,178.62,371.08Z" style="opacity:0.2"></path><ellipse cx="193.41" cy="379.61" rx="19.98" ry="11.53" style="fill:#50C878"></ellipse><ellipse cx="193.41" cy="379.61" rx="19.98" ry="11.53" style="opacity:0.5"></ellipse><path d="M179.29,374.68c7.8-4.51,20.44-4.51,28.24,0,3.19,1.84,5.08,4.15,5.66,6.54-.58,2.4-2.47,4.71-5.66,6.55-7.8,4.5-20.44,4.5-28.24,0-3.19-1.84-5.08-4.15-5.66-6.55C174.21,378.83,176.1,376.52,179.29,374.68Z" style="fill:#50C878"></path><path d="M179.29,374.68c7.8-4.51,20.44-4.51,28.24,0,3.19,1.84,5.08,4.15,5.66,6.54-.58,2.4-2.47,4.71-5.66,6.55-7.8,4.5-20.44,4.5-28.24,0-3.19-1.84-5.08-4.15-5.66-6.55C174.21,378.83,176.1,376.52,179.29,374.68Z" style="opacity:0.35000000000000003"></path><path d="M206,383.09V380.7c0-1-.68-1.92-2.13-2.77l-.05,0a10.26,10.26,0,0,0-7.93-.72h0c-1.05.27-2,.61-3,.92a28.17,28.17,0,0,1-3.18,1h0a5.48,5.48,0,0,1-1.51.15,3.41,3.41,0,0,1-1.25-.33l.1-.07.31-.2a6.49,6.49,0,0,1,.84-.41,5.76,5.76,0,0,1,4.44-.1l2.56-2.59v-2.37a12.17,12.17,0,0,0-7-.25,15.12,15.12,0,0,0-2.23.77l-2.56-1.48L180.38,374v2.37l1,.6a2.56,2.56,0,0,0-.45,1.38c0,.4,0,2,0,2.37,0,1,.7,1.92,2.17,2.77a8.87,8.87,0,0,0,4.22,1.22h0a7.85,7.85,0,0,0,.84,0,16.6,16.6,0,0,0,4.53-1l.89-.31L191.06,386v2.37a12.58,12.58,0,0,0,9.88-.43l2.52,1.46,3.06-1.77v-2.37l-1.05-.6A2.81,2.81,0,0,0,206,383.09Zm-6.45-.21a5.26,5.26,0,0,1-.71.36,6.53,6.53,0,0,1-5,.07c2.39-.84,4.39-1.58,6.09-.67Z" style="fill:#50C878"></path><path d="M195.88,377.17h0c-1.05.27-2,.61-3,.92a28.17,28.17,0,0,1-3.18,1h0a5.48,5.48,0,0,1-1.51.15,3.14,3.14,0,0,1-1.45-.44c-1-.56-1.13-1.4.3-2.33l.31-.2a6.49,6.49,0,0,1,.84-.41,5.76,5.76,0,0,1,4.44-.1l2.56-2.59a12.17,12.17,0,0,0-7-.25,15.12,15.12,0,0,0-2.23.77l-2.56-1.48L180.38,374l2.53,1.46,0,0c-2.57,1.95-2.63,4,.26,5.64a8.87,8.87,0,0,0,4.22,1.22h0a7.85,7.85,0,0,0,.84,0,16.24,16.24,0,0,0,4.53-1c2.94-1,5.31-2.13,7.29-1,1.32.76,1,1.72-.5,2.56a5.26,5.26,0,0,1-.71.36,6.58,6.58,0,0,1-5.09,0l-2.68,2.7a12.58,12.58,0,0,0,9.88-.43l2.52,1.46,3.06-1.77L204,383.77c2.54-2,2.84-4.11-.13-5.84l-.05,0A10.26,10.26,0,0,0,195.88,377.17Z" style="fill:#50C878"></path><g style="opacity:0.30000000000000004"><path d="M195.88,377.17h0c-1.05.27-2,.61-3,.92a28.17,28.17,0,0,1-3.18,1h0a5.48,5.48,0,0,1-1.51.15,3.14,3.14,0,0,1-1.45-.44c-1-.56-1.13-1.4.3-2.33l.31-.2a6.49,6.49,0,0,1,.84-.41,5.76,5.76,0,0,1,4.44-.1l2.56-2.59a12.17,12.17,0,0,0-7-.25,15.12,15.12,0,0,0-2.23.77l-2.56-1.48L180.38,374l2.53,1.46,0,0c-2.57,1.95-2.63,4,.26,5.64a8.87,8.87,0,0,0,4.22,1.22h0a7.85,7.85,0,0,0,.84,0,16.24,16.24,0,0,0,4.53-1c2.94-1,5.31-2.13,7.29-1,1.32.76,1,1.72-.5,2.56a5.26,5.26,0,0,1-.71.36,6.58,6.58,0,0,1-5.09,0l-2.68,2.7a12.58,12.58,0,0,0,9.88-.43l2.52,1.46,3.06-1.77L204,383.77c2.54-2,2.84-4.11-.13-5.84l-.05,0A10.26,10.26,0,0,0,195.88,377.17Z" style="fill:#fff"></path></g><polygon points="180.38 373.96 183.46 372.56 186 373.67 183.43 372.19 180.38 373.96" style="fill:#f5f5f5;opacity:0.45"></polygon><path d="M187.87,373a14.25,14.25,0,0,1,6.57.22l-1.78,2.52,2.56-2.59A12.11,12.11,0,0,0,187.87,373Z" style="fill:#f5f5f5;opacity:0.45"></path><path d="M203.81,377.89l.05,0c3,1.73,2.67,3.88.13,5.84,2.25-2.45,1.85-4.16-.6-5.58a11.55,11.55,0,0,0-7.51-1A10.26,10.26,0,0,1,203.81,377.89Z" style="fill:#f5f5f5;opacity:0.45"></path><polygon points="203.99 383.77 205.93 385.26 203.46 387 206.52 385.23 203.99 383.77" style="fill:#f5f5f5;opacity:0.45"></polygon><path d="M198.83,383.24a6.57,6.57,0,0,1-4.87.42l-2.9,2.31,2.68-2.7A6.58,6.58,0,0,0,198.83,383.24Z" style="fill:#f5f5f5;opacity:0.45"></path><path d="M189.73,379.07a4,4,0,0,1-3.66-.34c-.88-.76-.32-1.58,1-2.28-1.43.93-1.29,1.77-.3,2.33a3.14,3.14,0,0,0,1.45.44A5.48,5.48,0,0,0,189.73,379.07Z" style="fill:#f5f5f5;opacity:0.45"></path><path d="M182.89,375.44c-.22.19-2.06,1.9-1.25,3.62s3.56,3,5.74,3.24h0a8.87,8.87,0,0,1-4.22-1.22C180.26,379.41,180.32,377.39,182.89,375.44Z" style="fill:#f5f5f5;opacity:0.45"></path></g><g id="freepik--coin--inject-2"><path d="M219.46,372a19.58,19.58,0,0,0-7.21-6.66c-11.79-6.81-30.89-6.81-42.68,0a19.46,19.46,0,0,0-7.2,6.66h-1.63v6.17h0c.22,4.28,3.15,8.53,8.81,11.81,11.79,6.8,30.9,6.8,42.68,0,5.67-3.28,8.62-7.53,8.84-11.81h0V372Z" style="fill:#50C878"></path><path d="M219.46,372a19.58,19.58,0,0,0-7.21-6.66c-11.79-6.81-30.89-6.81-42.68,0a19.46,19.46,0,0,0-7.2,6.66h-1.63v6.17h0c.22,4.28,3.15,8.53,8.81,11.81,11.79,6.8,30.9,6.8,42.68,0,5.67-3.28,8.62-7.53,8.84-11.81h0V372Z" style="opacity:0.25"></path><path d="M190.91,360.24c-7.72,0-15.44,1.71-21.34,5.11a19.46,19.46,0,0,0-7.2,6.66h-1.63v6.17h0c.22,4.28,3.15,8.53,8.81,11.81,5.9,3.4,13.62,5.1,21.34,5.1Z" style="opacity:0.1"></path><path d="M174.43,363.07a33.36,33.36,0,0,0-4.86,2.28,19.46,19.46,0,0,0-7.2,6.66h-1.63v6.17h0c.22,4.28,3.15,8.53,8.81,11.81a33.33,33.33,0,0,0,4.86,2.27Z" style="opacity:0.1"></path><path d="M207.39,363.07a33.36,33.36,0,0,1,4.86,2.28,19.58,19.58,0,0,1,7.21,6.66h1.63v6.17h0c-.22,4.28-3.17,8.53-8.84,11.81a33.33,33.33,0,0,1-4.86,2.27Z" style="fill:#50C878;opacity:0.5"></path><path d="M169.57,359.7c-11.78,6.8-11.78,17.83,0,24.63,10.32,6,26.23,6.7,37.94,2.24h0l.46-.18a32.38,32.38,0,0,0,4.27-2.06c9.83-5.67,11.46-14.28,4.89-20.93h0a23.08,23.08,0,0,0-4.89-3.69C200.47,352.89,181.36,352.89,169.57,359.7Z" style="fill:#50C878"></path><path d="M169.57,359.7c-11.78,6.8-11.78,17.83,0,24.63,10.32,6,26.23,6.7,37.94,2.24h0l.46-.18a32.38,32.38,0,0,0,4.27-2.06c9.83-5.67,11.46-14.28,4.89-20.93h0a23.08,23.08,0,0,0-4.89-3.69C200.47,352.89,181.36,352.89,169.57,359.7Z" style="opacity:0.2"></path><path d="M217.14,363.4a13.18,13.18,0,0,1,3.16,10.75c-1,6-9.43,11-12.32,12.24a32.38,32.38,0,0,0,4.27-2.06C222.08,378.66,223.71,370.05,217.14,363.4Z" style="fill:#f5f5f5;opacity:0.5"></path><path d="M164.68,380.63a13.17,13.17,0,0,1-3.16-10.74c1-6,9.43-11,12.32-12.24a31.62,31.62,0,0,0-4.26,2.05C159.75,365.37,158.12,374,164.68,380.63Z" style="fill:#f5f5f5;opacity:0.5"></path><path d="M210.76,383.44c11-6.32,11-16.57,0-22.9s-28.72-6.32-39.67,0-11,16.58,0,22.9S199.8,389.77,210.76,383.44Z" style="fill:#50C878"></path><path d="M210.76,383.44c11-6.32,11-16.57,0-22.9s-28.72-6.32-39.67,0-11,16.58,0,22.9S199.8,389.77,210.76,383.44Z" style="fill:#fff;opacity:0.4"></path><path d="M217.7,376.83c2.25-4.17,1.52-8.76-2.2-12.66a18.86,18.86,0,0,0-2.38-2.08,23.5,23.5,0,0,0-2.27-1.5q-.67-.39-1.38-.75c1.16,1.92.74,4-5.87,4.36-12.93.76,3.45,13.11,3.45,13.11S215.39,373.29,217.7,376.83Z" style="fill:#fff;opacity:0.2"></path><path d="M216.37,373.41c1.94-.22,2.9-2.21,2.14-4.46s-2.94-3.88-4.88-3.67-2.9,2.22-2.14,4.46S214.43,373.63,216.37,373.41Z" style="fill:#fff;opacity:0.5"></path><path d="M195.92,383.71c-.64-4.8-21.63-18.09-21.63-18.09s-4.65-1.87-3.11-5.12a23.34,23.34,0,0,0-2.24,1.45,17,17,0,0,0-1.36,1.08c-6.25,5.41-6.26,12.51,0,17.93.42.37.88.73,1.36,1.08a21.94,21.94,0,0,0,2.08,1.35c.71.42,1.46.81,2.22,1.17s1.25.56,1.89.81,1.3.49,2,.71a40.85,40.85,0,0,0,6.26,1.51l1.41.2a48.41,48.41,0,0,0,13.92-.24S195.32,386.87,195.92,383.71Z" style="fill:#50C878"></path><path d="M195.92,383.71c-.64-4.8-21.63-18.09-21.63-18.09s-4.65-1.87-3.11-5.12a23.34,23.34,0,0,0-2.24,1.45,17,17,0,0,0-1.36,1.08c-6.25,5.41-6.26,12.51,0,17.93.42.37.88.73,1.36,1.08a21.94,21.94,0,0,0,2.08,1.35c.71.42,1.46.81,2.22,1.17s1.25.56,1.89.81,1.3.49,2,.71a40.85,40.85,0,0,0,6.26,1.51l1.41.2a48.41,48.41,0,0,0,13.92-.24S195.32,386.87,195.92,383.71Z" style="fill:#fff;opacity:0.30000000000000004"></path><path d="M176.14,363.46c-7.83,4.52-8.15,11.73-1,16.47.31.2.63.4,1,.59,8.16,4.71,21.39,4.71,29.55,0s8.16-12.35,0-17.06c-.33-.19-.68-.38-1-.55C196.46,358.76,184,358.94,176.14,363.46Z" style="fill:#50C878"></path><path d="M176.14,363.46c-7.83,4.52-8.15,11.73-1,16.47.31.2.63.4,1,.59,8.16,4.71,21.39,4.71,29.55,0s8.16-12.35,0-17.06c-.33-.19-.68-.38-1-.55C196.46,358.76,184,358.94,176.14,363.46Z" style="opacity:0.2"></path><path d="M176.8,363.84c-7.8,4.5-7.8,11.8,0,16.31s20.45,4.5,28.25,0,7.8-11.81,0-16.31S184.6,359.33,176.8,363.84Z" style="fill:#50C878"></path><path d="M176.8,363.84c-7.8,4.5-7.8,11.8,0,16.31s20.45,4.5,28.25,0,7.8-11.81,0-16.31S184.6,359.33,176.8,363.84Z" style="opacity:0.5"></path><path d="M176.8,367.05c7.8-4.5,20.45-4.5,28.25,0,3.19,1.84,5.07,4.15,5.65,6.55-.58,2.39-2.46,4.7-5.65,6.55-7.8,4.5-20.45,4.5-28.25,0-3.19-1.85-5.07-4.16-5.66-6.55C171.73,371.2,173.61,368.89,176.8,367.05Z" style="fill:#50C878"></path><path d="M176.8,367.05c7.8-4.5,20.45-4.5,28.25,0,3.19,1.84,5.07,4.15,5.65,6.55-.58,2.39-2.46,4.7-5.65,6.55-7.8,4.5-20.45,4.5-28.25,0-3.19-1.85-5.07-4.16-5.66-6.55C171.73,371.2,173.61,368.89,176.8,367.05Z" style="opacity:0.35000000000000003"></path><path d="M203.5,375.47c0-.39,0-2,0-2.39,0-1-.67-1.92-2.13-2.78l-.05,0a10.23,10.23,0,0,0-7.92-.72h0c-1,.26-2,.61-3,.92a31.07,31.07,0,0,1-3.17,1h0a5.85,5.85,0,0,1-1.51.15,3.41,3.41,0,0,1-1.25-.33l.1-.07.32-.2a6.38,6.38,0,0,1,.83-.41,5.79,5.79,0,0,1,4.45-.1l2.56-2.59v-2.37a12.21,12.21,0,0,0-7-.25,13.94,13.94,0,0,0-2.22.77L181,364.57l-3.06,1.76v2.37l1.05.61a2.54,2.54,0,0,0-.45,1.38v2.37c0,1,.7,1.92,2.18,2.77a9,9,0,0,0,4.22,1.22h0c.28,0,.56,0,.84,0a16.39,16.39,0,0,0,4.54-1l.88-.3-2.58,2.58v2.38a12.63,12.63,0,0,0,9.88-.43l2.53,1.46L204,380v-2.37l-1-.6A2.82,2.82,0,0,0,203.5,375.47Zm-6.44-.21a6.78,6.78,0,0,1-.71.36,6.61,6.61,0,0,1-5,.07c2.39-.84,4.39-1.58,6.09-.68A3.57,3.57,0,0,1,197.06,375.26Z" style="fill:#50C878"></path><path d="M193.4,369.55h0c-1,.26-2,.61-3,.92a31.07,31.07,0,0,1-3.17,1h0a5.85,5.85,0,0,1-1.51.15,3.18,3.18,0,0,1-1.45-.44c-1-.57-1.13-1.4.3-2.34l.32-.19a6.38,6.38,0,0,1,.83-.41,5.79,5.79,0,0,1,4.45-.1l2.56-2.59a12.21,12.21,0,0,0-7-.25,13.94,13.94,0,0,0-2.22.77L181,364.57l-3.06,1.76,2.53,1.47,0,0c-2.57,1.95-2.62,4,.27,5.64a9,9,0,0,0,4.22,1.22h0c.28,0,.56,0,.84,0a16.39,16.39,0,0,0,4.54-1c2.93-1,5.31-2.13,7.28-1,1.33.76,1,1.72-.49,2.56a6.78,6.78,0,0,1-.71.36,6.58,6.58,0,0,1-5.09,0l-2.69,2.69a12.59,12.59,0,0,0,9.88-.42l2.53,1.46,3.05-1.77-2.52-1.46c2.54-2,2.83-4.11-.14-5.85l-.05,0A10.23,10.23,0,0,0,193.4,369.55Z" style="fill:#50C878"></path><g style="opacity:0.30000000000000004"><path d="M193.4,369.55h0c-1,.26-2,.61-3,.92a31.07,31.07,0,0,1-3.17,1h0a5.85,5.85,0,0,1-1.51.15,3.18,3.18,0,0,1-1.45-.44c-1-.57-1.13-1.4.3-2.34l.32-.19a6.38,6.38,0,0,1,.83-.41,5.79,5.79,0,0,1,4.45-.1l2.56-2.59a12.21,12.21,0,0,0-7-.25,13.94,13.94,0,0,0-2.22.77L181,364.57l-3.06,1.76,2.53,1.47,0,0c-2.57,1.95-2.62,4,.27,5.64a9,9,0,0,0,4.22,1.22h0c.28,0,.56,0,.84,0a16.39,16.39,0,0,0,4.54-1c2.93-1,5.31-2.13,7.28-1,1.33.76,1,1.72-.49,2.56a6.78,6.78,0,0,1-.71.36,6.58,6.58,0,0,1-5.09,0l-2.69,2.69a12.59,12.59,0,0,0,9.88-.42l2.53,1.46,3.05-1.77-2.52-1.46c2.54-2,2.83-4.11-.14-5.85l-.05,0A10.23,10.23,0,0,0,193.4,369.55Z" style="fill:#fff"></path></g><polygon points="177.89 366.33 180.98 364.94 183.51 366.05 180.95 364.57 177.89 366.33" style="fill:#f5f5f5;opacity:0.45"></polygon><path d="M185.38,365.37a14.4,14.4,0,0,1,6.57.23l-1.77,2.51,2.56-2.58A12.22,12.22,0,0,0,185.38,365.37Z" style="fill:#f5f5f5;opacity:0.45"></path><path d="M201.32,370.27l.05,0c3,1.74,2.68,3.88.14,5.85,2.25-2.45,1.84-4.16-.61-5.58a11.53,11.53,0,0,0-7.5-1A10.23,10.23,0,0,1,201.32,370.27Z" style="fill:#f5f5f5;opacity:0.45"></path><polygon points="201.51 376.15 203.44 377.64 200.98 379.38 204.03 377.61 201.51 376.15" style="fill:#f5f5f5;opacity:0.45"></polygon><path d="M196.35,375.62a6.57,6.57,0,0,1-4.87.42l-2.91,2.3,2.69-2.69A6.58,6.58,0,0,0,196.35,375.62Z" style="fill:#f5f5f5;opacity:0.45"></path><path d="M187.24,371.45a4,4,0,0,1-3.66-.34c-.88-.76-.31-1.58,1-2.29-1.43.94-1.28,1.77-.3,2.34a3.18,3.18,0,0,0,1.45.44A5.85,5.85,0,0,0,187.24,371.45Z" style="fill:#f5f5f5;opacity:0.45"></path><path d="M180.4,367.82c-.22.19-2.06,1.9-1.25,3.62s3.56,3,5.74,3.24h0a9,9,0,0,1-4.22-1.22C177.78,371.79,177.83,369.77,180.4,367.82Z" style="fill:#f5f5f5;opacity:0.45"></path></g><g id="freepik--coin--inject-2"><path d="M225.17,363.33a19.6,19.6,0,0,0-7.21-6.67c-11.79-6.8-30.89-6.8-42.68,0a19.48,19.48,0,0,0-7.2,6.67h-1.63v6.16h0c.21,4.29,3.15,8.54,8.81,11.81,11.79,6.81,30.89,6.81,42.68,0,5.66-3.27,8.62-7.52,8.84-11.81h0v-6.16Z" style="fill:#50C878"></path><path d="M225.17,363.33a19.6,19.6,0,0,0-7.21-6.67c-11.79-6.8-30.89-6.8-42.68,0a19.48,19.48,0,0,0-7.2,6.67h-1.63v6.16h0c.21,4.29,3.15,8.54,8.81,11.81,11.79,6.81,30.89,6.81,42.68,0,5.66-3.27,8.62-7.52,8.84-11.81h0v-6.16Z" style="opacity:0.25"></path><path d="M196.62,351.56c-7.72,0-15.44,1.7-21.34,5.1a19.48,19.48,0,0,0-7.2,6.67h-1.63v6.16h0c.21,4.29,3.15,8.54,8.81,11.81,5.9,3.4,13.62,5.1,21.34,5.1Z" style="opacity:0.1"></path><path d="M180.14,354.39a33.33,33.33,0,0,0-4.86,2.27,19.48,19.48,0,0,0-7.2,6.67h-1.63v6.16h0c.21,4.29,3.15,8.54,8.81,11.81a33.36,33.36,0,0,0,4.86,2.28Z" style="opacity:0.1"></path><path d="M213.1,354.39a33.33,33.33,0,0,1,4.86,2.27,19.6,19.6,0,0,1,7.21,6.67h1.63v6.16h0c-.22,4.29-3.18,8.54-8.84,11.81a33.36,33.36,0,0,1-4.86,2.28Z" style="fill:#50C878;opacity:0.5"></path><path d="M175.28,351c-11.78,6.81-11.78,17.84,0,24.64,10.31,6,26.23,6.7,37.94,2.23h0l.47-.18a32.34,32.34,0,0,0,4.27-2.05c9.82-5.67,11.46-14.29,4.89-20.94h0A23.36,23.36,0,0,0,218,351C206.17,344.21,187.07,344.21,175.28,351Z" style="fill:#50C878"></path><path d="M175.28,351c-11.78,6.81-11.78,17.84,0,24.64,10.31,6,26.23,6.7,37.94,2.23h0l.47-.18a32.34,32.34,0,0,0,4.27-2.05c9.82-5.67,11.46-14.29,4.89-20.94h0A23.36,23.36,0,0,0,218,351C206.17,344.21,187.07,344.21,175.28,351Z" style="opacity:0.2"></path><path d="M222.85,354.71A13.21,13.21,0,0,1,226,365.46c-1,6-9.43,11-12.32,12.24a32.34,32.34,0,0,0,4.27-2.05C227.78,370,229.42,361.36,222.85,354.71Z" style="fill:#f5f5f5;opacity:0.5"></path><path d="M170.39,372a13.18,13.18,0,0,1-3.16-10.75c1.05-6,9.43-11,12.32-12.24a33.65,33.65,0,0,0-4.27,2.05C165.46,356.69,163.82,365.3,170.39,372Z" style="fill:#f5f5f5;opacity:0.5"></path><path d="M216.47,374.76c10.95-6.32,10.95-16.58,0-22.9s-28.72-6.33-39.67,0-11,16.58,0,22.9S205.51,381.08,216.47,374.76Z" style="fill:#50C878"></path><path d="M216.47,374.76c10.95-6.32,10.95-16.58,0-22.9s-28.72-6.33-39.67,0-11,16.58,0,22.9S205.51,381.08,216.47,374.76Z" style="fill:#fff;opacity:0.4"></path><path d="M223.41,368.15c2.25-4.17,1.52-8.77-2.21-12.66a18.07,18.07,0,0,0-2.37-2.08,23.5,23.5,0,0,0-2.27-1.5q-.67-.39-1.38-.75c1.16,1.92.73,4-5.87,4.36-12.93.75,3.45,13.11,3.45,13.11S221.1,364.61,223.41,368.15Z" style="fill:#fff;opacity:0.2"></path><path d="M222.07,364.73c1.94-.22,2.91-2.22,2.15-4.46s-2.94-3.89-4.88-3.67-2.9,2.21-2.15,4.46S220.13,364.94,222.07,364.73Z" style="fill:#fff;opacity:0.5"></path><path d="M201.62,375C201,370.22,180,356.93,180,356.93s-4.65-1.87-3.11-5.12a25.43,25.43,0,0,0-2.24,1.45c-.49.35-.94.71-1.37,1.08-6.24,5.41-6.25,12.52,0,17.93.42.37.88.73,1.36,1.09a24.1,24.1,0,0,0,2.08,1.35c.71.42,1.45.8,2.22,1.16.61.29,1.25.57,1.89.82s1.3.49,2,.71a41.74,41.74,0,0,0,6.26,1.5q.7.12,1.41.21a50.1,50.1,0,0,0,6.26.39,47.5,47.5,0,0,0,7.66-.63S201,378.18,201.62,375Z" style="fill:#50C878"></path><path d="M201.62,375C201,370.22,180,356.93,180,356.93s-4.65-1.87-3.11-5.12a25.43,25.43,0,0,0-2.24,1.45c-.49.35-.94.71-1.37,1.08-6.24,5.41-6.25,12.52,0,17.93.42.37.88.73,1.36,1.09a24.1,24.1,0,0,0,2.08,1.35c.71.42,1.45.8,2.22,1.16.61.29,1.25.57,1.89.82s1.3.49,2,.71a41.74,41.74,0,0,0,6.26,1.5q.7.12,1.41.21a50.1,50.1,0,0,0,6.26.39,47.5,47.5,0,0,0,7.66-.63S201,378.18,201.62,375Z" style="fill:#fff;opacity:0.30000000000000004"></path><path d="M181.84,354.78c-7.82,4.52-8.14,11.73-1,16.47.3.2.62.4,1,.59,8.16,4.71,21.39,4.71,29.55,0s8.16-12.35,0-17.06c-.33-.2-.68-.38-1-.56C202.16,350.07,189.67,350.26,181.84,354.78Z" style="fill:#50C878"></path><path d="M181.84,354.78c-7.82,4.52-8.14,11.73-1,16.47.3.2.62.4,1,.59,8.16,4.71,21.39,4.71,29.55,0s8.16-12.35,0-17.06c-.33-.2-.68-.38-1-.56C202.16,350.07,189.67,350.26,181.84,354.78Z" style="opacity:0.2"></path><ellipse cx="196.63" cy="363.31" rx="19.98" ry="11.53" style="fill:#50C878"></ellipse><ellipse cx="196.63" cy="363.31" rx="19.98" ry="11.53" style="opacity:0.5"></ellipse><path d="M182.51,358.37c7.8-4.5,20.45-4.5,28.25,0,3.19,1.84,5.07,4.15,5.65,6.55-.58,2.39-2.46,4.7-5.65,6.54-7.8,4.51-20.45,4.51-28.25,0-3.19-1.84-5.08-4.15-5.66-6.54C177.43,362.52,179.32,360.21,182.51,358.37Z" style="fill:#50C878"></path><path d="M182.51,358.37c7.8-4.5,20.45-4.5,28.25,0,3.19,1.84,5.07,4.15,5.65,6.55-.58,2.39-2.46,4.7-5.65,6.54-7.8,4.51-20.45,4.51-28.25,0-3.19-1.84-5.08-4.15-5.66-6.54C177.43,362.52,179.32,360.21,182.51,358.37Z" style="opacity:0.35000000000000003"></path><path d="M209.21,366.78V364.4c0-1-.68-1.93-2.13-2.78l-.05,0a10.23,10.23,0,0,0-7.92-.73h0c-1.05.26-2.05.6-3,.91a29.07,29.07,0,0,1-3.17,1h0a5.45,5.45,0,0,1-1.51.14,3.06,3.06,0,0,1-1.25-.33l.1-.07.32-.19a8.09,8.09,0,0,1,.83-.42,5.81,5.81,0,0,1,4.44-.1l2.56-2.58v-2.37a12.17,12.17,0,0,0-7-.26,14.62,14.62,0,0,0-2.22.77l-2.56-1.47-3.06,1.76V360l1.05.61a2.43,2.43,0,0,0-.45,1.38v2.36c0,1,.7,1.93,2.18,2.78a8.93,8.93,0,0,0,4.22,1.21h.84a17.14,17.14,0,0,0,4.54-1l.88-.3-2.58,2.58V372a12.54,12.54,0,0,0,9.88-.43l2.53,1.46,3.05-1.76v-2.37l-1.05-.61A2.71,2.71,0,0,0,209.21,366.78Zm-6.45-.2a7.61,7.61,0,0,1-.7.35,6.61,6.61,0,0,1-5,.08c2.39-.85,4.39-1.59,6.09-.68A4.41,4.41,0,0,1,202.76,366.58Z" style="fill:#50C878"></path><path d="M199.11,360.86h0c-1.05.26-2.05.6-3,.91a29.07,29.07,0,0,1-3.17,1h0a5.45,5.45,0,0,1-1.51.14,3.29,3.29,0,0,1-1.45-.43c-1-.57-1.13-1.4.3-2.34l.32-.19a8.09,8.09,0,0,1,.83-.42,5.76,5.76,0,0,1,4.44-.1l2.56-2.58a12.17,12.17,0,0,0-7-.26,14.62,14.62,0,0,0-2.22.77l-2.56-1.47-3.06,1.76,2.53,1.46,0,0c-2.57,1.95-2.62,4,.27,5.65A8.93,8.93,0,0,0,190.6,366h.84a17.14,17.14,0,0,0,4.54-1c2.93-1,5.3-2.14,7.28-1,1.32.77,1,1.73-.5,2.57a7.61,7.61,0,0,1-.7.35,6.57,6.57,0,0,1-5.1,0l-2.68,2.69a12.54,12.54,0,0,0,9.88-.43l2.53,1.46,3.05-1.76-2.53-1.46c2.55-2,2.84-4.11-.13-5.85l-.05,0A10.23,10.23,0,0,0,199.11,360.86Z" style="fill:#50C878"></path><g style="opacity:0.30000000000000004"><path d="M199.11,360.86h0c-1.05.26-2.05.6-3,.91a29.07,29.07,0,0,1-3.17,1h0a5.45,5.45,0,0,1-1.51.14,3.29,3.29,0,0,1-1.45-.43c-1-.57-1.13-1.4.3-2.34l.32-.19a8.09,8.09,0,0,1,.83-.42,5.76,5.76,0,0,1,4.44-.1l2.56-2.58a12.17,12.17,0,0,0-7-.26,14.62,14.62,0,0,0-2.22.77l-2.56-1.47-3.06,1.76,2.53,1.46,0,0c-2.57,1.95-2.62,4,.27,5.65A8.93,8.93,0,0,0,190.6,366h.84a17.14,17.14,0,0,0,4.54-1c2.93-1,5.3-2.14,7.28-1,1.32.77,1,1.73-.5,2.57a7.61,7.61,0,0,1-.7.35,6.57,6.57,0,0,1-5.1,0l-2.68,2.69a12.54,12.54,0,0,0,9.88-.43l2.53,1.46,3.05-1.76-2.53-1.46c2.55-2,2.84-4.11-.13-5.85l-.05,0A10.23,10.23,0,0,0,199.11,360.86Z" style="fill:#fff"></path></g><polygon points="183.6 357.65 186.69 356.25 189.22 357.36 186.66 355.89 183.6 357.65" style="fill:#f5f5f5;opacity:0.45"></polygon><path d="M191.09,356.69a14.25,14.25,0,0,1,6.57.22l-1.78,2.52,2.57-2.58A12.22,12.22,0,0,0,191.09,356.69Z" style="fill:#f5f5f5;opacity:0.45"></path><path d="M207,361.59l.05,0c3,1.74,2.68,3.88.13,5.85,2.26-2.46,1.85-4.17-.6-5.58a11.54,11.54,0,0,0-7.5-1A10.23,10.23,0,0,1,207,361.59Z" style="fill:#f5f5f5;opacity:0.45"></path><polygon points="207.21 367.47 209.15 368.96 206.69 370.69 209.74 368.93 207.21 367.47" style="fill:#f5f5f5;opacity:0.45"></polygon><path d="M202.06,366.93a6.57,6.57,0,0,1-4.88.43l-2.9,2.3L197,367A6.57,6.57,0,0,0,202.06,366.93Z" style="fill:#f5f5f5;opacity:0.45"></path><path d="M193,362.77a4,4,0,0,1-3.66-.35c-.88-.76-.32-1.57,1-2.28-1.43.94-1.28,1.77-.3,2.34a3.29,3.29,0,0,0,1.45.43A5.45,5.45,0,0,0,193,362.77Z" style="fill:#f5f5f5;opacity:0.45"></path><path d="M186.11,359.13c-.22.19-2.06,1.91-1.25,3.62s3.56,3,5.74,3.24h0a8.93,8.93,0,0,1-4.22-1.21C183.49,363.11,183.54,361.08,186.11,359.13Z" style="fill:#f5f5f5;opacity:0.45"></path></g><g id="freepik--coin--inject-2"><path d="M218.31,353.18a19.36,19.36,0,0,0-7.21-6.67c-11.78-6.8-30.89-6.8-42.67,0a19.51,19.51,0,0,0-7.21,6.67h-1.63v6.16h0c.22,4.29,3.15,8.54,8.82,11.81,11.78,6.8,30.89,6.8,42.67,0,5.67-3.27,8.63-7.52,8.84-11.81h0v-6.16Z" style="fill:#50C878"></path><path d="M218.31,353.18a19.36,19.36,0,0,0-7.21-6.67c-11.78-6.8-30.89-6.8-42.67,0a19.51,19.51,0,0,0-7.21,6.67h-1.63v6.16h0c.22,4.29,3.15,8.54,8.82,11.81,11.78,6.8,30.89,6.8,42.67,0,5.67-3.27,8.63-7.52,8.84-11.81h0v-6.16Z" style="opacity:0.25"></path><path d="M189.77,341.41c-7.72,0-15.45,1.7-21.34,5.1a19.51,19.51,0,0,0-7.21,6.67h-1.63v6.16h0c.22,4.29,3.15,8.54,8.82,11.81,5.89,3.4,13.62,5.1,21.34,5.1Z" style="opacity:0.1"></path><path d="M173.29,344.23a33.36,33.36,0,0,0-4.86,2.28,19.51,19.51,0,0,0-7.21,6.67h-1.63v6.16h0c.22,4.29,3.15,8.54,8.82,11.81a33.33,33.33,0,0,0,4.86,2.27Z" style="opacity:0.1"></path><path d="M206.25,344.23a32.76,32.76,0,0,1,4.85,2.28,19.36,19.36,0,0,1,7.21,6.67h1.63v6.16h0c-.21,4.29-3.17,8.54-8.84,11.81a32.72,32.72,0,0,1-4.85,2.27Z" style="fill:#50C878;opacity:0.5"></path><path d="M168.43,340.86c-11.78,6.8-11.78,17.83,0,24.64,10.31,5.95,26.23,6.69,37.94,2.23h0l.47-.18a32.87,32.87,0,0,0,4.26-2.05c9.83-5.68,11.46-14.29,4.9-20.94h0a22.84,22.84,0,0,0-4.9-3.7C199.32,334.06,180.21,334.06,168.43,340.86Z" style="fill:#50C878"></path><path d="M168.43,340.86c-11.78,6.8-11.78,17.83,0,24.64,10.31,5.95,26.23,6.69,37.94,2.23h0l.47-.18a32.87,32.87,0,0,0,4.26-2.05c9.83-5.68,11.46-14.29,4.9-20.94h0a22.84,22.84,0,0,0-4.9-3.7C199.32,334.06,180.21,334.06,168.43,340.86Z" style="opacity:0.2"></path><path d="M216,344.56a13.18,13.18,0,0,1,3.16,10.75c-1,6-9.43,11-12.32,12.24a32.87,32.87,0,0,0,4.26-2.05C220.93,359.82,222.56,351.21,216,344.56Z" style="fill:#f5f5f5;opacity:0.5"></path><path d="M163.54,361.8a13.21,13.21,0,0,1-3.16-10.75c1-6,9.43-11,12.32-12.24a33.65,33.65,0,0,0-4.27,2.05C158.6,346.53,157,355.15,163.54,361.8Z" style="fill:#f5f5f5;opacity:0.5"></path><ellipse cx="189.78" cy="353.15" rx="28.05" ry="16.2" style="fill:#50C878"></ellipse><ellipse cx="189.78" cy="353.15" rx="28.05" ry="16.2" style="fill:#fff;opacity:0.4"></ellipse><path d="M163,358c-2.25-4.17-1.52-8.76,2.2-12.66a19.69,19.69,0,0,1,2.38-2.08,23.5,23.5,0,0,1,2.27-1.5c.45-.26.91-.51,1.38-.74-1.16,1.91-.73,4,5.87,4.35,12.93.76-3.45,13.12-3.45,13.12S165.31,354.45,163,358Z" style="fill:#fff;opacity:0.2"></path><path d="M164.34,354.57c-1.94-.21-2.91-2.21-2.15-4.45s2.94-3.89,4.88-3.67,2.9,2.21,2.14,4.45S166.28,354.79,164.34,354.57Z" style="fill:#fff;opacity:0.5"></path><path d="M184.79,364.87c.63-4.8,21.62-18.09,21.62-18.09s4.65-1.87,3.11-5.12a23.34,23.34,0,0,1,2.24,1.45c.49.35.94.71,1.37,1.08,6.24,5.41,6.25,12.51,0,17.93-.42.37-.88.73-1.36,1.08a24.14,24.14,0,0,1-2.08,1.36c-.71.41-1.45.8-2.22,1.16-.61.29-1.25.56-1.89.81s-1.3.49-2,.71a40.57,40.57,0,0,1-6.26,1.51l-1.41.2a47.89,47.89,0,0,1-13.92-.23S185.39,368,184.79,364.87Z" style="fill:#50C878"></path><path d="M184.79,364.87c.63-4.8,21.62-18.09,21.62-18.09s4.65-1.87,3.11-5.12a23.34,23.34,0,0,1,2.24,1.45c.49.35.94.71,1.37,1.08,6.24,5.41,6.25,12.51,0,17.93-.42.37-.88.73-1.36,1.08a24.14,24.14,0,0,1-2.08,1.36c-.71.41-1.45.8-2.22,1.16-.61.29-1.25.56-1.89.81s-1.3.49-2,.71a40.57,40.57,0,0,1-6.26,1.51l-1.41.2a47.89,47.89,0,0,1-13.92-.23S185.39,368,184.79,364.87Z" style="fill:#fff;opacity:0.30000000000000004"></path><path d="M204.57,344.62c7.82,4.52,8.14,11.73,1,16.47-.3.2-.62.4-1,.59-8.16,4.72-21.39,4.72-29.55,0s-8.16-12.35,0-17.06c.33-.19.68-.37,1-.55C184.24,339.92,196.74,340.1,204.57,344.62Z" style="fill:#50C878"></path><path d="M204.57,344.62c7.82,4.52,8.14,11.73,1,16.47-.3.2-.62.4-1,.59-8.16,4.72-21.39,4.72-29.55,0s-8.16-12.35,0-17.06c.33-.19.68-.37,1-.55C184.24,339.92,196.74,340.1,204.57,344.62Z" style="opacity:0.2"></path><ellipse cx="189.78" cy="353.15" rx="19.98" ry="11.53" style="fill:#50C878"></ellipse><ellipse cx="189.78" cy="353.15" rx="19.98" ry="11.53" style="opacity:0.5"></ellipse><path d="M203.9,348.22c-7.8-4.51-20.45-4.51-28.25,0-3.19,1.84-5.07,4.15-5.65,6.54.58,2.4,2.46,4.71,5.65,6.55,7.8,4.5,20.45,4.5,28.25,0,3.19-1.84,5.08-4.15,5.66-6.55C209,352.37,207.09,350.06,203.9,348.22Z" style="fill:#50C878"></path><path d="M203.9,348.22c-7.8-4.51-20.45-4.51-28.25,0-3.19,1.84-5.07,4.15-5.65,6.54.58,2.4,2.46,4.71,5.65,6.55,7.8,4.5,20.45,4.5,28.25,0,3.19-1.84,5.08-4.15,5.66-6.55C209,352.37,207.09,350.06,203.9,348.22Z" style="opacity:0.35000000000000003"></path><path d="M202.36,356.63c0-.39,0-2,0-2.39,0-1-.68-1.92-2.13-2.77l0,0a10.26,10.26,0,0,0-7.93-.72h0c-1,.27-2,.61-2.95.92a28.17,28.17,0,0,1-3.18,1h0a5.48,5.48,0,0,1-1.51.15,3.41,3.41,0,0,1-1.25-.33l.1-.07.31-.2a6.49,6.49,0,0,1,.84-.41,5.76,5.76,0,0,1,4.44-.1l2.56-2.59v-2.37a12.17,12.17,0,0,0-7-.25,15.12,15.12,0,0,0-2.23.77l-2.56-1.48-3.05,1.77v2.37l1,.6a2.56,2.56,0,0,0-.45,1.38c0,.4,0,2,0,2.37,0,1,.7,1.92,2.17,2.77a8.87,8.87,0,0,0,4.22,1.22h0a7.85,7.85,0,0,0,.84,0,16.6,16.6,0,0,0,4.53-1l.89-.31-2.58,2.59v2.37a12.56,12.56,0,0,0,9.87-.43l2.53,1.46,3.06-1.76v-2.38l-1-.6A2.81,2.81,0,0,0,202.36,356.63Zm-6.45-.21a5.26,5.26,0,0,1-.71.36,6.56,6.56,0,0,1-5,.07c2.4-.84,4.4-1.58,6.1-.67Z" style="fill:#50C878"></path><path d="M192.25,350.71h0c-1,.27-2,.61-2.95.92a28.17,28.17,0,0,1-3.18,1h0a5.48,5.48,0,0,1-1.51.15,3.14,3.14,0,0,1-1.45-.44c-1-.56-1.13-1.4.3-2.33l.31-.2a6.49,6.49,0,0,1,.84-.41,5.76,5.76,0,0,1,4.44-.1l2.56-2.59a12.17,12.17,0,0,0-7-.25,15.12,15.12,0,0,0-2.23.77l-2.56-1.48-3.05,1.77,2.53,1.46,0,0c-2.56,1.95-2.62,4,.27,5.64a8.87,8.87,0,0,0,4.22,1.22h0a7.85,7.85,0,0,0,.84,0,16.24,16.24,0,0,0,4.53-1c2.94-1,5.31-2.13,7.29-1,1.32.76,1,1.72-.5,2.56a5.26,5.26,0,0,1-.71.36,6.58,6.58,0,0,1-5.09,0l-2.68,2.7a12.56,12.56,0,0,0,9.87-.43l2.53,1.46,3.06-1.77-2.53-1.46c2.54-2,2.84-4.11-.13-5.84l0,0A10.26,10.26,0,0,0,192.25,350.71Z" style="fill:#50C878"></path><g style="opacity:0.30000000000000004"><path d="M192.25,350.71h0c-1,.27-2,.61-2.95.92a28.17,28.17,0,0,1-3.18,1h0a5.48,5.48,0,0,1-1.51.15,3.14,3.14,0,0,1-1.45-.44c-1-.56-1.13-1.4.3-2.33l.31-.2a6.49,6.49,0,0,1,.84-.41,5.76,5.76,0,0,1,4.44-.1l2.56-2.59a12.17,12.17,0,0,0-7-.25,15.12,15.12,0,0,0-2.23.77l-2.56-1.48-3.05,1.77,2.53,1.46,0,0c-2.56,1.95-2.62,4,.27,5.64a8.87,8.87,0,0,0,4.22,1.22h0a7.85,7.85,0,0,0,.84,0,16.24,16.24,0,0,0,4.53-1c2.94-1,5.31-2.13,7.29-1,1.32.76,1,1.72-.5,2.56a5.26,5.26,0,0,1-.71.36,6.58,6.58,0,0,1-5.09,0l-2.68,2.7a12.56,12.56,0,0,0,9.87-.43l2.53,1.46,3.06-1.77-2.53-1.46c2.54-2,2.84-4.11-.13-5.84l0,0A10.26,10.26,0,0,0,192.25,350.71Z" style="fill:#fff"></path></g><polygon points="176.75 347.5 179.83 346.1 182.36 347.21 179.8 345.73 176.75 347.5" style="fill:#f5f5f5;opacity:0.45"></polygon><path d="M184.24,346.54a14.25,14.25,0,0,1,6.57.22L189,349.28l2.56-2.59A12.11,12.11,0,0,0,184.24,346.54Z" style="fill:#f5f5f5;opacity:0.45"></path><path d="M200.18,351.43l0,0c3,1.73,2.67,3.88.13,5.84,2.25-2.45,1.85-4.16-.6-5.58a11.55,11.55,0,0,0-7.51-1A10.26,10.26,0,0,1,200.18,351.43Z" style="fill:#f5f5f5;opacity:0.45"></path><polygon points="200.36 357.31 202.3 358.8 199.83 360.54 202.89 358.77 200.36 357.31" style="fill:#f5f5f5;opacity:0.45"></polygon><path d="M195.2,356.78a6.57,6.57,0,0,1-4.87.42l-2.9,2.31,2.68-2.7A6.58,6.58,0,0,0,195.2,356.78Z" style="fill:#f5f5f5;opacity:0.45"></path><path d="M186.1,352.61a4,4,0,0,1-3.66-.34c-.89-.76-.32-1.58,1-2.28-1.43.93-1.29,1.77-.3,2.33a3.14,3.14,0,0,0,1.45.44A5.48,5.48,0,0,0,186.1,352.61Z" style="fill:#f5f5f5;opacity:0.45"></path><path d="M179.25,349c-.21.19-2.05,1.9-1.24,3.62s3.56,3,5.74,3.24h0a8.87,8.87,0,0,1-4.22-1.22C176.63,353,176.69,350.93,179.25,349Z" style="fill:#f5f5f5;opacity:0.45"></path><polygon points="163.12 350.11 163.88 344.33 164.64 350.11 174.63 350.55 164.64 350.99 163.88 356.76 163.12 350.99 153.12 350.55 163.12 350.11" style="fill:#fff"></polygon></g></g></g><g id="freepik--character-2--inject-2"><g id="freepik--character--inject-2"><g id="freepik--bottom--inject-2"><path d="M375.23,337.45c1.47,17.4,3.51,38.63,3.59,39.51.41,4.73,0,6.61-1.77,8.64-3.8,4.25-9.34,8.35-14.13,12.09.74,1.85,7.45,2.52,10.32,1a75.09,75.09,0,0,0,10.66-7.13c3.93-3.05,9-5.54,9-10.05a4.66,4.66,0,0,1,.12-.81c0-2.63,5.5-32.3,5.81-41.32,0-.78,0-1.62,0-2.49Z" style="fill:#c8856a"></path><path d="M435.41,355.9c-.09-4.79-.26-9.91-.58-14.46-.06-.81-.12-1.58-.18-2.33H411.3c2.05,8,4.25,16.37,5.76,22.09,2,7.67,6.09,18.65,6.79,26.3.21,1.82,2.28,19.75,3.13,23.86s9.8,4.21,10.38-2.85c.38-4.7-1.27-19.88-1.43-22.13C435.06,374.43,436.41,374.56,435.41,355.9Z" style="fill:#c8856a"></path><path d="M355.59,403.51c-.25,0-.59,2.73.77,3.88,1.57,1.32,6.15,3.47,12.16,2.62s9.26-2.75,11.65-4.79,5.73-4.93,8.45-5.56c2.52-.59,5.26-1.77,6.06-2.56s.65-4.27.65-4.27Z" style="fill:#263238"></path><path d="M393.08,379.47s.45,0,.61.81c.2,1,.43,3.74.85,5.31a28.09,28.09,0,0,1,.69,8.44c-.31,1.79-4.43,3.07-7.05,4.11a33.3,33.3,0,0,0-8.48,5.49A25,25,0,0,1,367,408.51c-6,.15-9.89-1.43-11.11-3.57-1.52-2.65-1.22-5.07,5.63-8.34,1.29-.62,5.84-3.39,7.39-4.39a34.77,34.77,0,0,0,4.65-3.54,27.48,27.48,0,0,0,2.08-2.1,9.6,9.6,0,0,0,1.72-2.25c.07-.18.12-.4.19-.58a9.46,9.46,0,0,0,.43-1.62c.11-.58.17-1.41.71-1.76a4.57,4.57,0,0,1,2.46-.32,29.83,29.83,0,0,1,3.73.69,3.47,3.47,0,0,1,2.58,1.76,5.12,5.12,0,0,1,.6,2.49c0,.4,0,.81,0,1.21,0,.17-.06.48.18.41s.47-.68.56-.88c.18-.46.3-.94.5-1.38a7.58,7.58,0,0,1,.84-1.47,7.17,7.17,0,0,1,1.08-1.12,12.52,12.52,0,0,0,1.17-.78A2.8,2.8,0,0,0,393.08,379.47Z" style="fill:#37474f"></path><path d="M360.45,397.13c8.69.5,12.33,6.7,12.74,10a20.46,20.46,0,0,1-6.15,1.37c-6,.15-10.14-1.42-11.36-3.56C354.25,402.45,354.33,399.54,360.45,397.13Z" style="fill:#fafafa"></path><path d="M374.31,397.94a.44.44,0,0,0,.27-.09.43.43,0,0,0,.05-.6c-1.22-1.47-5.58-4.25-8.73-3.88a.43.43,0,0,0,.1.85c2.94-.35,7,2.41,8,3.57A.41.41,0,0,0,374.31,397.94Z" style="fill:#f0f0f0"></path><path d="M378,395.72a.44.44,0,0,0,.27-.09.43.43,0,0,0,0-.6c-1.22-1.47-5.58-4.26-8.73-3.88a.43.43,0,0,0,.1.85c2.94-.35,7,2.41,8,3.57A.41.41,0,0,0,378,395.72Z" style="fill:#f0f0f0"></path><path d="M381.46,393.2a.47.47,0,0,0,.27-.1.43.43,0,0,0,0-.6c-1.23-1.46-5.6-4.25-8.73-3.87a.43.43,0,0,0-.38.47.42.42,0,0,0,.48.37c2.93-.35,7,2.41,8,3.58A.43.43,0,0,0,381.46,393.2Z" style="fill:#f0f0f0"></path><path d="M384.82,390.67a.41.41,0,0,0,.26-.09.43.43,0,0,0,.07-.6c-1.69-2.08-6.31-4.29-9.46-3.91a.43.43,0,0,0-.37.47.41.41,0,0,0,.47.37c2.83-.34,7.2,1.76,8.7,3.61A.43.43,0,0,0,384.82,390.67Z" style="fill:#f0f0f0"></path><path d="M424.17,414.56c.24,4.09.87,6.8,2.33,9.2s4.19,3.16,7,2.45,6.33-2.58,7.12-6.11,1.26-6,.63-9.74Z" style="fill:#263238"></path><path d="M435.83,384.92c1.15.09,1.48,5.59,2.14,11.09.71,5.9,2.47,8.33,3.1,13.17.72,5.52-.19,8-2.13,11.33s-8.79,6.62-12.16,1.84c-2.76-3.9-2.87-8.23-2.62-13.75a120.82,120.82,0,0,0-.37-14c-.22-4.14-1.13-8.31-.14-8.77.07.61.15,1.38.23,2a9.64,9.64,0,0,0,.37,2.21c.12.31.37.63.47.13a3.24,3.24,0,0,0,0-1c-.16-1.52.6-1.65,1-1.77a52.36,52.36,0,0,1,5.3-.75c.87-.06,3.89-.19,4.28.31a3.35,3.35,0,0,1,.38,1.6c.1.83.29,1.44.32,1.18.05-.6-.06-2.15-.08-2.52s-.07-.85-.07-1.21S435.86,385.27,435.83,384.92Z" style="fill:#37474f"></path><path d="M441.39,412.38a13.77,13.77,0,0,1-2.14,8.39c-1.94,3.35-9.34,6.63-12.72,1.85-1.68-2.38-2.13-5.2-2.36-8.07C426.2,410.87,438.2,409.24,441.39,412.38Z" style="fill:#fafafa"></path><path d="M426.67,408.55l.14,0s5.33-2.21,10.48-1a.43.43,0,1,0,.19-.83,20.05,20.05,0,0,0-11,1.08.43.43,0,0,0-.2.57A.45.45,0,0,0,426.67,408.55Z" style="fill:#f0f0f0"></path><path d="M437,403.37a.41.41,0,0,0,.36-.28.42.42,0,0,0-.26-.54c-5.13-1.74-10.81.87-11,1a.42.42,0,0,0-.18.57.43.43,0,0,0,.58.18s5.59-2.55,10.36-.93A.33.33,0,0,0,437,403.37Z" style="fill:#f0f0f0"></path><path d="M436.85,399.49a.44.44,0,0,0,.36-.28.42.42,0,0,0-.26-.54c-5.63-2-11,.83-11.23.95a.42.42,0,0,0-.14.58.41.41,0,0,0,.58.14s5.26-2.75,10.51-.87A.37.37,0,0,0,436.85,399.49Z" style="fill:#f0f0f0"></path><path d="M436.57,395.67a.44.44,0,0,0,.36-.27.43.43,0,0,0-.25-.55c-5.28-2-11.09.94-11.31,1.07a.43.43,0,0,0-.16.58.42.42,0,0,0,.58.15s5.69-2.84,10.59-1A.33.33,0,0,0,436.57,395.67Z" style="fill:#ebebeb"></path><path d="M427,231.54c4.08,12.22,5.84,18.65,6.36,46.52s-.41,32.92-.3,36.28,2.34,12.22,2.69,28.86c.3,14.09.35,24.79.35,24.79s-1.58,3.36-7.91,3.92c-5.84.53-8.73-1.66-8.73-1.66S412.41,347,410.33,337c-2.41-11.56-9.17-39.05-9.17-39.05l-2,22.72a109.18,109.18,0,0,1-.12,21.41c-1.68,14.53-3.5,22.83-3.5,22.83a33.15,33.15,0,0,1-9.63,1.47,17.38,17.38,0,0,1-8.31-2.16S373.1,330.41,373.1,314s-4.61-55.5,3.55-82.42Z" style="fill:#37474f"></path><path d="M377.51,252.39C380,259.19,389,263.94,393,264.9l5.42,29.31.77,26.46,2-22.72-6.53-38.38S383.63,258.79,377.51,252.39Zm38.4,0c.65,2.67,1.24,5.36,1.87,8.05s1.23,5.37,1.9,8.08a55.25,55.25,0,0,0-.55-8.33c-.36-2.76-.88-5.49-1.51-8.2a75.05,75.05,0,0,0-2.38-8,39.78,39.78,0,0,0-3.57-7.55c.83,2.66,1.57,5.3,2.27,8S415.29,249.76,415.91,252.43Zm4.68-5.14c.89,1.61,1.74,3.24,2.6,4.87l2.53,5a22.22,22.22,0,0,0-1.27-5.53,36.28,36.28,0,0,0-2.32-5.17,40,40,0,0,0-3.06-4.75,29,29,0,0,0-3.77-4.22c.83,1.71,1.73,3.34,2.62,5S419.72,245.67,420.59,247.29Zm-4,70.31c-1.44-7.73-2.46-15.54-3.47-23.36s-2-15.65-3.05-23.47c.47,7.88,1,15.75,1.82,23.61s1.72,15.71,3.14,23.51,3,15.48,4.67,23.21,3.3,15.43,5.11,23.12q-1.8-11.7-3.89-23.36C419.49,333.1,418,325.32,416.54,317.6Zm-37.62-27.12,1.42-22.7c-1.17,7.5-2.08,15-2.78,22.6s-1.33,15.1-1.35,22.77c.26,7.63.84,15.17,1.46,22.74s1.37,15.1,2.26,22.64q-.31-11.38-.9-22.73l-.57-11.36c-.19-3.77-.42-7.57-.5-11.32s.16-7.53.34-11.3S378.71,294.26,378.92,290.48Z" style="fill:#263238"></path></g><g id="freepik--top--inject-2"><polygon id="freepik--Hair--inject-2" points="419.87 148.11 419.87 192.02 386.9 192.02 386.9 151.04 419.87 148.11" style="fill:#263238"></polygon><g id="freepik--arm--inject-2"><path d="M382.94,139.77s-25.16,17.92-29.85,22.56c-7.87,7.78-5.66,10.57-4,12.94s6.75,5.68,17.07,11.2c9.84,5.27,13.84,7.7,13.84,7.7L390.56,178l-19.8-9.69,14.31-16.52Z" style="fill:#c8856a"></path><path d="M370.76,168.29C367.7,172.4,366,175,361,176.68c7,.36,12-7.41,12-7.41Z" style="fill:#af6152"></path></g><g id="freepik--chest--inject-2"><path d="M430.56,242.29c-1.92-11.11-6-17.82-5.53-22.12a55.49,55.49,0,0,1,2.59-12.11c3.73-13.31,6-19.63.05-27.69-4.26-3.68-7.8-1.91-15.83-1.22l-14.76-.08c-2.78.27-4-.16-6.52-1.09a54.53,54.53,0,0,0-14.19,14.8c-3.81,5.94-4.7,14.41.84,19.94,0,0,1.27,9.39.38,12.73-.84,5.06-3,8.86-4.23,16.16C384.63,252,417.89,253.1,430.56,242.29Z" style="fill:#50C878"></path></g><g id="freepik--head--inject-2"><path d="M411.81,170.21c0-3,4.15-8.06,6.45-13.29s2.59-13.49-2.2-16.5c-.57-8.18-17-12.53-27.56-6.51s-9.8,17.77-3.11,21S411.81,170.21,411.81,170.21Z" style="fill:#263238"></path><g id="freepik--head--inject-2"><g id="freepik--head--inject-2"><path d="M413.91,165.38a5.4,5.4,0,0,0,5-1.89c2.74-2.93,2.43-6,1.19-8-1-1.66-3.54-2.75-5.34-1.65s-2,2.14-2.73,3.48-2.58.27-1.89-5.15c-3.68-1.79-1.64-6.87-3.61-9.43-2.51-3.26-7.3-1.7-9.9-.51a2.11,2.11,0,0,1-2.29-.34,5.51,5.51,0,0,0-6.23-.89c-2.27,1.18-3.38,2.84-3,8.34a14.79,14.79,0,0,1-.25,3.76,36.47,36.47,0,0,0-.67,4c-.33,5.18,1.2,11.31,3.89,13.9a10.71,10.71,0,0,0,7.81,2.74l-.06,5.76s-8.76,7.43,1.17,7.43c11.35,0,14.23-7.34,14.23-7.34l.63-15.78S412,165,413.91,165.38Z" style="fill:#c8856a"></path><path d="M395.84,173.73c6-.13,12.43-3.33,14.22-8.27-.51,5.15-4.14,7.9-7.64,9.18a20,20,0,0,1-6.65,1.12Z" style="fill:#af6152"></path></g><polygon points="396.31 150.78 395.02 161.11 389.57 158.56 396.31 150.78" style="fill:#af6152"></polygon><path d="M399,153.18a1.55,1.55,0,0,0,1.49,1.63,1.6,1.6,0,1,0-1.49-1.63Z" style="fill:#263238"></path><path d="M387.68,152.73a1.55,1.55,0,0,0,1.62,1.49,1.59,1.59,0,1,0-1.62-1.49Z" style="fill:#263238"></path><path d="M403.4,148.56,400.64,146a2,2,0,0,0,.13,2.72A1.83,1.83,0,0,0,403.4,148.56Z" style="fill:#263238"></path><path d="M391.2,146l-3.41,1.62a1.82,1.82,0,0,0,2.45.94A2,2,0,0,0,391.2,146Z" style="fill:#263238"></path><path d="M398.29,165.41a1.36,1.36,0,0,1-2,.18,1.7,1.7,0,0,1-.29-2.06,1.58,1.58,0,0,1,.48-.53,1.41,1.41,0,0,0-.75-.4,2.54,2.54,0,0,1,1.83.15,1.8,1.8,0,0,1,.77.82A2,2,0,0,1,398.29,165.41Z" style="fill:#af6152"></path><path d="M396.08,165.29a1.42,1.42,0,0,0,.25.3,1.36,1.36,0,0,0,2-.18,1.93,1.93,0,0,0,.24-1.19A3.49,3.49,0,0,0,396.08,165.29Z" style="fill:#ffa8a7"></path></g></g><path id="freepik--Hand--inject-2" d="M406.88,130.47a8.36,8.36,0,0,1,1.35,1.31l1.36,1.56a.72.72,0,0,1,.24.47c0,.24-.23.4-.44.5a3.85,3.85,0,0,1-3,0c-1.19-.46-2.17-1.36-3.41-1.68a17.07,17.07,0,0,0-4.46,0c-.9,0-1.81.11-2.72.12a26.17,26.17,0,0,0-6.29.62,25.8,25.8,0,0,0-4.9,3.47,19.35,19.35,0,0,1,3.24-4c1-.94,2-2,3.52-2a3,3,0,0,0,1.9-.69,3,3,0,0,1,1.54-.79c.38,0,.76.11,1.15.07.73-.07,1.28-.74,2-.87a8.89,8.89,0,0,1,1.9.23c.72,0,1.41-.34,2.13-.34a4,4,0,0,1,1.13.22A18.56,18.56,0,0,1,406,130a6.73,6.73,0,0,1,.83.46Z" style="fill:#af6152"></path><g id="freepik--arm--inject-2"><path d="M405.81,199.89c3.89,2.3,11.6,1.58,15.37.32,8.39-2.8,12.58-9.19,11.23-15.17-1.72-7.65-9.55-7.95-9.55-7.95Z" style="fill:#c8856a"></path><path d="M424.23,177.28c-1.46,11.4-2.24,17.49-10.74,20.81l1.55-9.7,2.8-4.59,5-6.71A11.35,11.35,0,0,1,424.23,177.28Z" style="fill:#af6152"></path><path d="M405.23,132.78a.46.46,0,0,1,.2,0h.08l3,.08a1.18,1.18,0,0,0,.42,0,1.85,1.85,0,0,0,.37-.19,3.07,3.07,0,0,1,2.4,0L413,133l.48.13s1.58,0,1.77,0a5.59,5.59,0,0,1,1.83.73l1.36.78s.5-.11.7-.18c.63-.2.86,0,1.43.31a24.41,24.41,0,0,1,2.16,1.73,5.93,5.93,0,0,1,.94,1,5.57,5.57,0,0,1,.71,1.7c.71,2.48,1.25,5,1.78,7.53.15.66.29,1.32.38,2a18.94,18.94,0,0,1-.35,6.1c-.38,2.16-.72,4.33-1.05,6.5-.66,4.33-1.25,8.68-1.9,13s-1.32,8.58-2.17,12.84a22,22,0,0,1-.93,3.59,16.28,16.28,0,0,1-6.72,7.55c-2,1.27-5.24,3.06-7.65,1.61-2.64-1.57-3.05-6.8-3.14-9.52A30,30,0,0,1,404.42,180c2.25-6.75,6.08-14.24,8.52-20.87,1.4-3.8,2.58-6,1.9-7.63a19,19,0,0,1-1.61-3.72c-.36-2,0-4-.12-6-.14-3.07-1.48-4.29-3.71-6a3.09,3.09,0,0,0-.68-.45,4.62,4.62,0,0,0-1-.31,8,8,0,0,1-1.71-.65,1.82,1.82,0,0,1-.94-.85C405,133.23,405,132.88,405.23,132.78Z" style="fill:#c8856a"></path><path d="M418.48,134.6a19.56,19.56,0,0,1,3.18,3l.94,1.14a7.12,7.12,0,0,0-4.12-4.12Z" style="fill:#af6152"></path><path d="M416.37,137.67a12,12,0,0,0-3.3-3.29,9.22,9.22,0,0,0-4.36-1.55,15.21,15.21,0,0,1,4.16,1.91c1.36.72,2.31,2,3.5,2.93Z" style="fill:#af6152"></path><path d="M413.52,133.1a25.35,25.35,0,0,1,3,2.17c.86.9,1.69,1.87,2.61,2.74-1.38-2.12-3.08-4.28-5.65-4.91Z" style="fill:#af6152"></path><path d="M412.94,159.12c1.4-3.8,2.58-6,1.9-7.63a19,19,0,0,1-1.61-3.72,9,9,0,0,1-.14-1.27,7.82,7.82,0,0,0,2.79,4.35c1.66,1.38.95,1.81-.26,4.9-2.45,6.27-13.11,26-12.84,36.54-.06-.71-.09-1.36-.11-1.92A30,30,0,0,1,404.42,180C406.67,173.24,410.5,165.75,412.94,159.12Z" style="fill:#af6152"></path></g></g></g></g></svg>
