<svg width="28" height="27" viewBox="0 0 28 27" fill="none" xmlns="http://www.w3.org/2000/svg">
              <path d="M13.7011 27.0001C16.4011 27.0001 19.0405 26.2083 21.2854 24.7249C23.5304 23.2415 25.2801 21.1331 26.3133 18.6663C27.3466 16.1995 27.6169 13.4851 27.0902 10.8663C26.5634 8.24756 25.2633 5.84208 23.3541 3.95407C21.4449 2.06606 19.0125 0.780307 16.3644 0.259405C13.7163 -0.261496 10.9715 0.00584936 8.477 1.02763C5.98255 2.04942 3.8505 3.77975 2.35047 5.99982C0.850442 8.21988 0.0498047 10.83 0.0498047 13.5C0.0537193 17.0793 1.49324 20.5108 4.05251 23.0417C6.61179 25.5726 10.0818 26.9962 13.7011 27.0001ZM13.7011 5.62502C14.0386 5.62502 14.3686 5.72399 14.6492 5.90941C14.9298 6.09484 15.1485 6.35839 15.2777 6.66674C15.4068 6.97509 15.4406 7.31439 15.3748 7.64173C15.3089 7.96908 15.1464 8.26976 14.9078 8.50576C14.6691 8.74177 14.3651 8.90248 14.034 8.9676C13.703 9.03271 13.3599 8.99929 13.0481 8.87157C12.7363 8.74384 12.4698 8.52755 12.2823 8.25004C12.0948 7.97254 11.9947 7.64627 11.9947 7.31252C11.9947 6.86496 12.1745 6.43574 12.4945 6.11927C12.8145 5.8028 13.2486 5.62502 13.7011 5.62502ZM12.5635 11.25H13.7011C14.3046 11.25 14.8833 11.4871 15.31 11.909C15.7367 12.331 15.9764 12.9033 15.9764 13.5V20.25C15.9764 20.5484 15.8565 20.8346 15.6432 21.0455C15.4298 21.2565 15.1405 21.375 14.8388 21.375C14.537 21.375 14.2477 21.2565 14.0343 21.0455C13.821 20.8346 13.7011 20.5484 13.7011 20.25V13.5H12.5635C12.2618 13.5 11.9725 13.3815 11.7591 13.1705C11.5458 12.9595 11.4259 12.6734 11.4259 12.375C11.4259 12.0767 11.5458 11.7905 11.7591 11.5795C11.9725 11.3686 12.2618 11.25 12.5635 11.25Z" fill="#0C5460"/>
              </svg>