<svg width="24" height="27" viewBox="0 0 24 27" fill="none" xmlns="http://www.w3.org/2000/svg">
<path d="M11.9956 0C12.8992 0 13.6318 0.732531 13.6318 1.63614V7.08996C13.6318 7.99357 12.8992 8.7261 11.9956 8.7261C11.092 8.7261 10.3595 7.99357 10.3595 7.08996V1.63614C10.3595 0.732531 11.092 0 11.9956 0Z" fill="black"/>
<path d="M15.8133 5.38841C15.8053 5.93764 16.0822 6.4519 16.5452 6.74748C20.6577 9.26013 21.9545 14.6309 19.4418 18.7433C16.9291 22.8556 11.5585 24.1525 7.44603 21.6399C3.33359 19.1272 2.03675 13.7565 4.54945 9.64406C5.26741 8.469 6.25329 7.48052 7.42645 6.75944C7.8974 6.46386 8.18178 5.94546 8.178 5.38943C8.18051 4.48582 7.45002 3.7513 6.54641 3.74879C6.23606 3.74792 5.93184 3.83535 5.66929 4.00091C0.0401972 7.49734 -1.68864 14.8949 1.80774 20.524C5.30412 26.153 12.7017 27.8819 18.3308 24.3855C23.9598 20.8891 25.6886 13.4915 22.1923 7.86246C21.219 6.2956 19.8976 4.97421 18.3308 4.00096C17.564 3.51723 16.5502 3.74669 16.0665 4.51348C15.9012 4.77537 15.8135 5.07872 15.8133 5.38841Z" fill="black"/>
</svg>
