<?xml version="1.0" encoding="UTF-8"?>
<svg version="1.1" xmlns="http://www.w3.org/2000/svg" width="512" height="512">
<path d="M0 0 C2.84277272 0.01611051 5.6841246 0.00001608 8.52685547 -0.01904297 C25.40182764 -0.03956274 41.98742471 1.72273515 58.28076172 6.26611328 C59.23023682 6.52150879 60.17971191 6.7769043 61.15795898 7.04003906 C68.69997426 9.11029566 76.06080702 11.53871335 83.34326172 14.39111328 C83.34326172 18.65076214 80.87984692 20.7546929 78.28076172 23.89111328 C68.15135701 36.47672041 60.3109162 50.00823621 55.09326172 65.32861328 C54.85921631 66.00674072 54.6251709 66.68486816 54.3840332 67.38354492 C50.20806022 80.23764164 48.78861217 92.7329515 48.90576172 106.14111328 C48.9088031 106.88335144 48.91184448 107.6255896 48.91497803 108.39031982 C48.98569031 120.08801706 49.75849528 131.19212832 53.34326172 142.39111328 C53.55756836 143.07189941 53.771875 143.75268555 53.99267578 144.45410156 C60.51065527 164.52511409 70.83286889 181.05303316 85.34326172 196.39111328 C86.03548828 197.12458984 86.72771484 197.85806641 87.44091797 198.61376953 C90.56571638 201.83490084 93.64247127 204.71717528 97.34326172 207.26611328 C98.33326172 207.96736328 99.32326172 208.66861328 100.34326172 209.39111328 C100.34326172 210.05111328 100.34326172 210.71111328 100.34326172 211.39111328 C-3.93673828 211.39111328 -108.21673828 211.39111328 -215.65673828 211.39111328 C-215.65673828 202.47273601 -215.41611694 194.35733184 -214.09423828 185.64111328 C-213.91860352 184.481521 -213.74296875 183.32192871 -213.56201172 182.12719727 C-208.48507309 150.67790892 -196.57274286 119.19482823 -177.65673828 93.39111328 C-177.20637207 92.76849609 -176.75600586 92.14587891 -176.29199219 91.50439453 C-165.60406611 76.80105698 -153.63675866 63.06878609 -139.65673828 51.39111328 C-139.12145508 50.93816895 -138.58617187 50.48522461 -138.03466797 50.01855469 C-113.33296174 29.21459412 -83.91897074 14.13273227 -52.65673828 6.07861328 C-51.76929932 5.84803223 -50.88186035 5.61745117 -49.9675293 5.37988281 C-33.46962378 1.39060514 -16.93724326 -0.11355552 0 0 Z " fill="#4BAF4F" transform="translate(215.65673828125,282.60888671875)"/>
<path d="M0 0 C2.34850998 1.06570304 4.55944767 2.15887097 6.8125 3.39453125 C7.77494629 3.90919197 7.77494629 3.90919197 8.75683594 4.43424988 C10.84240003 5.55216859 12.92115025 6.68215222 15 7.8125 C16.45665089 8.59641032 17.91368583 9.37960739 19.37109375 10.16210938 C23.58725944 12.42944222 27.79513874 14.7117826 32 17 C33.03382813 17.56251465 34.06765625 18.1250293 35.1328125 18.70458984 C38.61070676 20.60021562 42.08679624 22.49906192 45.55957031 24.40405273 C53.58552224 28.79875803 61.66530422 33.08971742 69.75 37.375 C80.64341945 43.1491967 91.52090956 48.95071039 102.36914062 54.80957031 C108.11237655 57.91048777 113.8631367 60.996383 119.625 64.0625 C120.90986081 64.74717663 122.19469176 65.43190929 123.47949219 66.11669922 C125.34234791 67.10958853 127.20567656 68.10151306 129.07092285 69.08990479 C130.78313262 69.99726141 132.49316855 70.90871649 134.203125 71.8203125 C135.17926758 72.33867676 136.15541016 72.85704102 137.16113281 73.39111328 C140.22284587 75.12629466 143.09473567 77.01600887 146 79 C144.82971262 82.51086215 144.34535675 82.65650871 141.21484375 84.3203125 C139.97879395 84.98619385 139.97879395 84.98619385 138.71777344 85.66552734 C137.34153809 86.38796631 137.34153809 86.38796631 135.9375 87.125 C134.97231445 87.64143066 134.00712891 88.15786133 133.01269531 88.68994141 C130.27833213 90.15023315 127.53940347 91.60152389 124.79827881 93.04907227 C121.63963926 94.71935717 118.48621399 96.39944384 115.33203125 98.078125 C111.26109324 100.24364631 107.1894143 102.40774972 103.11547852 104.56762695 C87.72572026 112.72696935 72.37214311 120.95337721 57.09741211 129.32641602 C45.1068919 135.89815428 33.03183365 142.30457537 20.9375 148.68261719 C20.23740814 149.05233643 19.53731628 149.42205566 18.81600952 149.80297852 C17.4437217 150.52650192 16.07022603 151.24773959 14.69546509 151.96655273 C11.67743246 153.55054473 8.71621756 155.16822799 5.78271484 156.90722656 C-1.05598059 160.95192967 -1.05598059 160.95192967 -5.60546875 161.18359375 C-10.15012839 159.5989771 -14.14771555 157.45889135 -18.3125 155.0625 C-20.26553069 153.96755764 -22.22006274 152.87529055 -24.17578125 151.78515625 C-25.2529541 151.1833252 -26.33012695 150.58149414 -27.43994141 149.96142578 C-33.50188255 146.60226094 -39.64748791 143.39751665 -45.7796936 140.16912842 C-56.78331082 134.3750445 -67.75666496 128.53491863 -78.65625 122.546875 C-86.73064943 118.12171615 -94.86391174 113.81023466 -103 109.5 C-120.46829784 100.24221124 -137.89779936 90.92277853 -155 81 C-153.77298305 77.31894916 -153.01141575 77.19348096 -149.64453125 75.50390625 C-148.72422119 75.0344458 -147.80391113 74.56498535 -146.85571289 74.08129883 C-145.34932251 73.32949341 -145.34932251 73.32949341 -143.8125 72.5625 C-141.68136872 71.47576637 -139.55118074 70.38718119 -137.421875 69.296875 C-136.33970703 68.74451172 -135.25753906 68.19214844 -134.14257812 67.62304688 C-129.57301449 65.263005 -125.06627177 62.79517915 -120.5625 60.3125 C-111.50081333 55.33525793 -102.38492351 50.46593465 -93.25 45.625 C-82.34862773 39.84691862 -71.46567011 34.03696729 -60.60668945 28.17944336 C-54.99450215 25.15214226 -49.38069861 22.12795342 -43.76171875 19.11328125 C-43.1546106 18.78751099 -42.54750244 18.46174072 -41.92199707 18.12609863 C-38.90846722 16.50986916 -35.89343519 14.896542 -32.87548828 13.28857422 C-27.78234248 10.57295069 -22.69983362 7.8473641 -17.66796875 5.01953125 C-16.88687744 4.58680908 -16.10578613 4.15408691 -15.30102539 3.70825195 C-13.90854916 2.93507066 -12.52281593 2.14953705 -11.14624023 1.34838867 C-6.8965017 -0.98984827 -4.65101697 -1.15058158 0 0 Z " fill="#4BAF4F" transform="translate(222,14)"/>
<path d="M0 0 C20.63124772 18.32252538 37.49160532 44.33291883 39.22119141 72.6171875 C39.34085438 76.76821956 39.38601315 80.91013374 39.375 85.0625 C39.37478851 85.79577515 39.37457703 86.52905029 39.37435913 87.2845459 C39.34247747 98.34551957 38.65814182 108.46934913 35 119 C34.63777344 120.11117187 34.27554688 121.22234375 33.90234375 122.3671875 C29.38484235 135.13869992 22.9758842 146.84613469 14 157 C13.25105469 157.89203125 12.50210938 158.7840625 11.73046875 159.703125 C-5.48032967 179.61093061 -30.78174105 193.13642017 -57 196 C-72.64236054 197.08118363 -87.99083459 196.78690373 -103 192 C-103.68449219 191.78569336 -104.36898437 191.57138672 -105.07421875 191.35058594 C-119.30417536 186.76522937 -131.67561963 179.8029075 -143 170 C-143.75796875 169.37480469 -144.5159375 168.74960937 -145.296875 168.10546875 C-163.85035269 152.39899022 -174.70921482 130.35341203 -180 107 C-180.2626062 105.88322876 -180.2626062 105.88322876 -180.53051758 104.74389648 C-183.34453282 88.2973456 -182.52723755 67.67194995 -177 52 C-176.67854004 51.05616455 -176.67854004 51.05616455 -176.35058594 50.09326172 C-171.42804712 35.85229243 -164.15068149 23.17045629 -154 12 C-153.52965332 11.48050781 -153.05930664 10.96101563 -152.57470703 10.42578125 C-113.73597692 -31.92088208 -44.32873307 -37.69225607 0 0 Z M-133.25 30.37109375 C-148.13937655 48.08130922 -155.57512036 69.86541978 -154 93 C-151.76062985 112.78110302 -143.89300914 129.69480734 -130 144 C-129.06220703 145.04800781 -129.06220703 145.04800781 -128.10546875 146.1171875 C-115.16151857 160.12390411 -95.07633596 167.71318945 -76.29296875 169.31640625 C-51.0458767 169.74144147 -29.70923368 161.18569079 -11.5 143.9375 C3.98744725 128.06015898 11.82309118 107.49085673 12.375 85.4375 C11.82342626 62.63112501 2.51984268 42.47959163 -13 26 C-30.01831532 9.85082434 -52.30993504 2.22653318 -75.5 2.75 C-97.46117465 3.68055825 -118.27465832 14.5897875 -133.25 30.37109375 Z " fill="#4BAF4F" transform="translate(473,303)"/>
<path d="M0 0 C0.99 0 1.98 0 3 0 C3.89610292 31.44172402 0.23903017 63.89039719 -22 88 C-22.78246094 88.85078125 -23.56492187 89.7015625 -24.37109375 90.578125 C-39.60579498 106.45453751 -61.3608843 117.7630934 -83.67578125 118.23828125 C-101.14275165 118.52968311 -116.35718582 117.39772129 -132 109 C-133.42505859 108.26330078 -133.42505859 108.26330078 -134.87890625 107.51171875 C-156.44961568 95.72798048 -172.24490223 76.34205436 -179.296875 52.75 C-182.5796499 39.91070263 -183.07775914 27.00169684 -183.125 13.8125 C-183.12967285 12.89098145 -183.1343457 11.96946289 -183.13916016 11.02001953 C-183.13706543 10.1536084 -183.1349707 9.28719727 -183.1328125 8.39453125 C-183.13168457 7.61956299 -183.13055664 6.84459473 -183.12939453 6.04614258 C-183 4 -183 4 -182 1 C-176.87279763 2.78564482 -172.35700422 5.59075681 -167.6875 8.3125 C-158.78330496 13.4541493 -149.79078846 18.40708989 -140.73730469 23.28027344 C-135.49853072 26.10167187 -130.27388003 28.94196836 -125.08789062 31.859375 C-123.6643401 32.65583924 -122.23596885 33.44375298 -120.80273438 34.22265625 C-116.54216881 36.53893132 -112.41119815 38.98530773 -108.3046875 41.56640625 C-106.30797326 42.75375112 -104.31058426 43.93996207 -102.3125 45.125 C-101.41072021 45.72578369 -100.50894043 46.32656738 -99.57983398 46.94555664 C-96.57293598 48.67478647 -94.45834057 49.61823693 -91 50 C-86.21428591 48.36479474 -82.20029135 45.92894328 -77.95474243 43.21600342 C-74.83206624 41.27345341 -71.57314666 39.61075115 -68.30859375 37.921875 C-67.01201658 37.23670665 -65.71620523 36.55008726 -64.42114258 35.86206055 C-63.77078033 35.51734711 -63.12041809 35.17263367 -62.4503479 34.81747437 C-44.9154282 25.51817397 -27.43283437 16.14165201 -10.1875 6.3125 C-8.82395386 5.53555786 -8.82395386 5.53555786 -7.43286133 4.74291992 C-6.60294678 4.26701416 -5.77303223 3.7911084 -4.91796875 3.30078125 C-4.18344482 2.87966064 -3.4489209 2.45854004 -2.69213867 2.0246582 C-1.03151404 1.11104443 -1.03151404 1.11104443 0 0 Z " fill="#4BAF4F" transform="translate(309,141)"/>
<path d="M0 0 C2.63252466 1.54878025 4.54483752 3.42042277 6.68530273 5.60205078 C7.57475586 6.50117188 8.46420898 7.40029297 9.38061523 8.32666016 C10.30100586 9.2721875 11.22139648 10.21771484 12.16967773 11.19189453 C13.11429446 12.15156426 14.05959968 13.11055682 15.00561523 14.06884766 C17.31716946 16.41578281 19.62144114 18.76942844 21.91967773 21.12939453 C20.33568185 25.02334569 17.6777083 27.64091688 14.7355957 30.54052734 C14.20861084 31.06780426 13.68162598 31.59508118 13.13867188 32.13833618 C11.40110298 33.87451525 9.65656459 35.60350854 7.91186523 37.33251953 C6.70359451 38.5370589 5.49576551 39.7420415 4.2883606 40.94744873 C1.11330697 44.1148756 -2.06770749 47.27624966 -5.25 50.43640137 C-8.49784302 53.66376542 -11.7400136 56.89681681 -14.98266602 60.12939453 C-21.34301209 66.46830756 -27.70966979 72.80084077 -34.08032227 79.12939453 C-37.3686691 77.68741985 -39.57843508 75.89815347 -42.13037109 73.38574219 C-42.91410599 72.61799469 -43.69784088 71.85024719 -44.50532532 71.05923462 C-45.34089462 70.22902802 -46.17646393 69.39882141 -47.03735352 68.54345703 C-47.89971115 67.69012787 -48.76206879 66.83679871 -49.65055847 65.95761108 C-51.46963568 64.15303357 -53.28592054 62.34563754 -55.09960938 60.53564453 C-57.88741641 57.75977724 -60.69332318 55.00310282 -63.50024414 52.24658203 C-65.2637599 50.4925251 -67.02616847 48.73735414 -68.78735352 46.98095703 C-69.63304398 46.15479889 -70.47873444 45.32864075 -71.35005188 44.47744751 C-72.11802597 43.70339569 -72.88600006 42.92934387 -73.67724609 42.13183594 C-74.3602327 41.45391998 -75.0432193 40.77600403 -75.74690247 40.07754517 C-77.08032227 38.12939453 -77.08032227 38.12939453 -76.90515137 36.0176239 C-74.86382936 31.34455385 -70.32420249 27.86285313 -66.76782227 24.31689453 C-65.89963867 23.42035156 -65.03145508 22.52380859 -64.13696289 21.60009766 C-62.87722656 20.33649414 -62.87722656 20.33649414 -61.59204102 19.04736328 C-60.82335693 18.27158936 -60.05467285 17.49581543 -59.26269531 16.6965332 C-57.08032227 15.12939453 -57.08032227 15.12939453 -55.05517578 15.14599609 C-52.54066913 16.39812031 -50.93591008 17.93617972 -48.97094727 19.94580078 C-48.2168457 20.70957031 -47.46274414 21.47333984 -46.68579102 22.26025391 C-45.51983398 23.46391602 -45.51983398 23.46391602 -44.33032227 24.69189453 C-43.53754883 25.49820312 -42.74477539 26.30451172 -41.92797852 27.13525391 C-39.9718518 29.12673231 -38.02306507 31.12487174 -36.08032227 33.12939453 C-31.32868463 29.18454543 -26.91309444 25.04876274 -22.63110352 20.60205078 C-21.4422419 19.38597743 -20.2527715 18.170499 -19.06274414 16.95556641 C-17.21345623 15.06277166 -15.36837702 13.16649933 -13.53320312 11.26000977 C-11.7437761 9.4042989 -9.93910207 7.56464753 -8.13110352 5.72705078 C-7.30912224 4.86165428 -7.30912224 4.86165428 -6.47053528 3.97877502 C-2.68513781 0.16701362 -2.68513781 0.16701362 0 0 Z " fill="#4BAF4F" transform="translate(431.080322265625,347.87060546875)"/>
</svg>
