<svg width="514" height="513" viewBox="0 0 514 513" fill="none" xmlns="http://www.w3.org/2000/svg">
<path fill-rule="evenodd" clip-rule="evenodd" d="M274.228 0.000402306L271.857 0.0746211C263.949 0.0873952 257.494 1.34969 250.29 4.91205L248.363 5.88773C246.147 6.99073 243.931 8.09548 241.719 9.20774C240.101 10.0218 238.482 10.8336 236.861 11.6434C232.436 13.8516 228.014 16.0641 223.594 18.2823C218.88 20.648 214.164 23.0089 209.447 25.3679C201.527 29.3286 193.609 33.2928 185.693 37.2615C175.5 42.3725 165.305 47.4789 155.107 52.5801C146.241 57.015 137.376 61.4523 128.512 65.8911C125.686 67.3062 122.861 68.7211 120.034 70.1356C115.522 72.394 111.01 74.6533 106.5 76.915C104.814 77.7607 103.128 78.6062 101.442 79.4516C96.9788 81.6845 92.5171 83.9191 88.0676 86.1785C86.5808 86.9358 85.0938 87.6929 83.6067 88.4496C81.0172 89.7572 78.4294 91.0673 75.8482 92.3913L73.3045 93.6995C67.2142 96.7642 62.3784 99.6852 58.2434 105.301C54.8419 111.656 54.4222 117.978 56.2669 124.942C59.8526 134.162 67.5023 138.183 75.9848 142.422L79.5403 144.161C81.8191 145.295 84.0983 146.428 86.3779 147.56C95.4379 152.027 99.9678 154.261 104.496 156.497C109.025 158.733 113.552 160.972 122.607 165.45L123.607 237.45C121.34 237.45 119.215 237.292 117.193 237.141C111.594 236.725 106.777 236.367 101.888 239.579L100.107 241.012L98.3255 242.391C94.1443 247.399 93.2718 253.247 92.9876 259.551L92.9192 261.95C92.8521 263.564 92.7857 265.179 92.72 266.793L92.6067 270.45C89.4667 271.496 86.7336 272.861 83.8047 274.383L81.5442 275.575C76.39 278.281 71.5027 281.065 66.7942 284.512C65.6717 285.424 65.1451 285.851 64.5879 286.234C64.0955 286.573 63.5793 286.877 62.6067 287.45C58.4896 287.45 56.8787 286.639 53.4285 284.603C45.5229 279.918 40.0218 278.137 30.8567 280.012C25.6883 283.314 22.1939 288.777 19.1316 293.992L17.9817 296.012C17.1261 297.506 16.272 299.001 15.4192 300.496C13.9631 303.076 12.4926 305.642 10.9817 308.19C9.85143 310.091 8.73252 311.998 7.62477 313.912L5.9817 316.762C1.34543 324.43 -0.452422 330.416 0.606703 339.45C3.19889 344.634 6.82502 347.486 11.6458 350.444L13.8567 351.762C15.32 352.655 16.7835 353.546 18.2473 354.438L21.6067 356.45C20.5618 368.186 20.0037 379.734 21.6067 391.45L22.6067 394.45C15.5971 397.031 6.13752 401.295 1.7942 407.7C-0.210248 414.029 -1.02017 420.089 1.959 426.243C4.51258 430.328 7.03385 434.423 9.38136 438.63L11.1067 441.809C12.2745 443.939 13.4411 446.069 14.6067 448.2C15.0666 449.053 15.5266 449.924 15.9915 450.804C20.0375 458.464 24.4636 466.844 32.5442 470.512C39.9925 472.658 44.7372 470.538 51.2942 466.95C54.1977 465.253 57.0142 463.692 60.1262 462.418C62.869 462.207 62.869 462.207 65.4309 464.598C68.2193 467.175 71.0754 469.059 74.3684 470.938L76.4192 472.075C80.8822 474.572 85.2355 476.894 90.1067 478.512L93.6067 479.45C93.5875 481.501 93.5696 483.552 93.5579 485.604L93.5442 488.137L93.5427 488.284C93.4616 496.167 93.4015 502.012 98.6067 508.45C103.907 512.431 108.021 512.911 114.582 512.928L118.032 512.875C120.462 512.869 122.891 512.86 125.32 512.85C129.136 512.806 132.952 512.762 136.769 512.745C139.27 512.737 141.771 512.726 144.272 512.712L147.845 512.688L151.327 512.666L154.534 512.627C159.805 512.571 161.848 511.324 166.072 508.094C170.346 503.516 170.985 498.813 171.226 492.813L171.294 490.075C171.391 487.447 171.488 484.819 171.563 482.19L171.607 480.45C179.806 476.542 187.781 472.546 195.357 467.512C198.044 465.681 200.687 463.886 203.634 462.489C204.581 462.405 205.119 462.357 205.63 462.452C206.302 462.578 206.928 462.95 208.376 463.813C208.645 463.985 208.911 464.156 209.175 464.325C215.913 468.652 221.382 472.163 229.732 470.825C235.09 469.78 238.331 467.233 241.493 462.813L243.294 459.762C243.985 458.601 244.675 457.44 245.365 456.278C246.511 454.316 247.662 452.357 248.832 450.409C251.407 446.141 253.945 441.857 256.423 437.532L257.607 435.45C259.019 432.968 260.405 430.478 261.732 427.95C264.948 421.389 265.969 416.538 263.607 409.45C260.997 405.719 259.047 403.416 254.837 401.633L254.555 401.514C250.39 399.759 246.461 398.102 243.607 394.45C241.711 387.673 242.688 380.335 243.607 373.45C287.757 385.847 350.248 368.73 390.422 350.445L392.607 349.45C392.987 349.282 393.367 349.115 393.746 348.948C399.885 346.249 405.97 343.573 411.236 339.332C420.581 329.66 421.2 318.302 421.121 305.593C421.109 303.858 421.103 302.122 421.103 300.387C421.109 296.745 421.109 293.103 421.091 289.461C421.061 284.75 421.041 280.039 421.053 275.327C421.063 271.631 421.065 267.934 421.056 264.238C421.05 262.477 421.045 260.715 421.04 258.954C421.046 256.431 421.05 253.908 421.032 251.386L421.011 249.073C421.027 246.453 420.902 244.071 420.607 241.45C418.999 238.645 418.017 237.671 415.169 236.137C412.351 235.381 411.247 235.257 408.607 236.45C405.651 238.749 404.698 239.913 404.061 243.658L403.997 247.403C403.946 249.458 403.899 251.513 403.878 253.569C403.864 254.997 403.842 256.424 403.814 257.852C403.741 261.154 403.679 264.456 403.635 267.759L403.607 270.45C358.244 289.675 312.457 298.007 263.349 297.674L260.923 297.653C256.993 297.63 253.115 297.502 249.202 297.096C247.846 296.9 247.137 296.797 246.593 296.441C245.998 296.052 245.602 295.357 244.771 293.903L243.232 290.7C240.226 285.175 237.731 281.447 231.607 279.45C225.612 278.407 220.948 279.227 215.7 282.227C214.126 283.147 212.514 284.004 210.888 284.829C209.094 285.713 207.302 286.602 205.513 287.496L203.607 288.45C199.205 284.873 194.663 281.794 189.761 278.955L187.669 277.762C182.679 274.868 177.803 272.685 172.292 270.954L170.607 270.45C170.627 268.01 170.644 265.571 170.656 263.131L170.669 260.137L170.695 257.178L170.704 254.336C170.714 252.707 170.688 251.077 170.607 249.45C169.793 247.008 169.292 245.505 168.422 244.259C167.029 242.262 164.691 240.926 158.607 237.45H139.607L140.607 174.45L143.872 176.094C155.84 182.122 167.808 188.15 179.784 194.161L179.842 194.19C187.16 197.862 194.477 201.534 201.788 205.22C207.642 208.173 213.498 211.121 219.36 214.06L220.312 214.536C223.1 215.933 225.889 217.33 228.673 218.736C231.623 220.229 234.576 221.718 237.534 223.198L240.85 224.855C245.819 227.384 250.742 229.778 255.994 231.669C271.356 236.605 283.91 234.558 298.21 227.459L301.32 225.877C304.844 224.116 308.367 222.354 311.882 220.576C315.022 218.988 318.166 217.409 321.311 215.832C327.259 212.853 333.203 209.865 339.143 206.87C345.953 203.436 352.768 200.011 359.585 196.59C373.682 189.516 387.772 182.429 401.857 175.331L403.607 174.45C403.643 178.888 403.693 183.325 403.767 187.762C403.799 189.575 403.829 191.387 403.857 193.2C403.877 195.869 403.899 198.538 403.947 201.208L403.997 203.746C404.002 206.766 404.189 209.432 404.607 212.45C406.516 214.953 407.587 216.161 410.607 217.016L412.607 217.012C415.595 217.111 416.438 216.602 418.694 214.57C421.027 210.764 421.119 208.221 421.213 203.831L421.216 200.899C421.249 199.025 421.279 197.151 421.309 195.277C421.373 187.82 421.404 184.091 421.442 180.363C421.479 176.635 421.521 172.906 421.607 165.45L471.607 140.45L472.607 257.45L465.607 259.45C458.491 263.457 453.969 269.089 450.607 276.45C447.787 283.865 447.821 292.686 450.607 300.118L451.607 302.45C451.673 302.72 451.739 302.981 451.803 303.236C451.909 303.657 452.01 304.06 452.1 304.45C452.571 306.488 452.737 308.173 451.691 310.391C450.632 312.403 449.917 313.759 449.429 315.193C448.42 318.161 448.385 321.46 448.277 331.589C448.274 333.537 448.271 335.485 448.261 337.433C448.247 340.211 448.236 342.989 448.235 345.767C448.237 349.336 448.229 352.905 448.195 356.474C448.168 359.278 448.152 362.081 448.149 364.884C448.149 366.234 448.148 367.584 448.146 368.934L448.102 372.755C448.154 383.012 449.33 394.345 456.927 401.961L458.607 403.45C465.175 409.65 472.47 412.251 481.505 412.543C490.466 412.041 498.14 408.95 504.63 402.675C512.176 394.182 513.475 384.917 513.302 374.03C513.276 372.483 513.26 370.935 513.254 369.388C513.251 366.129 513.241 362.871 513.203 359.612C513.146 355.409 513.098 351.208 513.087 347.005C513.078 342.906 513.06 338.807 513.03 334.709L513.013 332.364C513.002 330.116 512.988 327.869 512.959 325.622L512.929 323.55C512.876 318.737 512.378 314.938 510.607 310.45L509.232 308.137C508.744 306.712 508.526 306.075 508.602 305.475C508.663 304.991 508.916 304.531 509.372 303.7C511.795 299.196 512.893 295.583 512.99 290.398L512.982 288.262C512.991 282.544 512.383 277.548 509.493 272.508C504.573 265.857 499.305 259.727 490.888 257.84L488.607 257.45C488.651 239.245 488.686 221.04 488.707 202.835C488.717 193.983 488.728 185.132 488.751 176.281C488.771 168.507 488.787 160.734 488.793 152.96L488.794 151.764C488.796 148.056 488.798 144.348 488.809 140.64C488.823 136.713 488.835 132.786 488.835 128.858C488.833 127.409 488.833 125.96 488.834 124.511C488.841 123.141 488.848 121.771 488.856 120.401L488.847 116.632C488.852 113.573 488.74 110.959 487.967 108.001C484.846 102.147 480.851 98.1279 474.963 95.1044L472.822 94.0662C470.384 92.8327 467.944 91.6045 465.493 90.3957C463.701 89.5127 461.912 88.6237 460.126 87.7293C455.254 85.2811 450.377 82.8446 445.492 80.4234C440.293 77.8473 435.101 75.2585 429.911 72.6646C421.212 68.316 412.508 63.9769 403.799 59.6501C393.67 54.6199 383.546 49.5822 373.429 44.528C362.565 39.0997 351.698 33.6772 340.827 28.2617C337.713 26.7106 334.6 25.1591 331.487 23.606C326.51 21.1224 321.532 18.6411 316.55 16.1675C314.706 15.2527 312.862 14.3373 311.018 13.4215C309.089 12.458 307.145 11.4387 305.182 10.4096C295.431 5.29834 285.221 -0.0533986 274.228 0.000402306ZM230.721 32.7369C232.47 31.8662 234.219 30.9951 235.968 30.1237C238.329 28.9422 240.797 27.5839 243.337 26.1854C251.733 21.5638 260.928 16.5025 269.736 15.9262L273.169 16.0746C278.797 16.2377 282.6 17.3902 287.634 19.8941L289.698 20.9285C292.027 22.0894 294.356 23.2509 296.683 24.4149C298.393 25.2698 300.102 26.124 301.812 26.9776C306.465 29.2987 311.116 31.6214 315.767 33.9461C319.719 35.9219 323.671 37.8972 327.624 39.8719C336.904 44.5075 346.182 49.1444 355.46 53.7836C365.112 58.6098 374.765 63.4337 384.42 68.2533C392.765 72.4188 401.108 76.5863 409.45 80.7569L411.126 81.5947C415.535 83.7998 419.945 86.0049 424.357 88.2067C429.11 90.5781 433.862 92.9506 438.612 95.328C440.361 96.204 442.111 97.0797 443.86 97.955C446.302 99.1714 448.743 100.388 451.182 101.61L453.388 102.717C457.412 104.714 460.984 106.733 464.607 109.45H303.607L301.607 105.45C299.744 101.614 297.873 97.9189 295.075 94.6723C288.28 88.3734 281.023 86.2184 271.857 86.0746C262.138 86.1763 254.764 89.3867 247.857 96.1371C242.331 103.574 241.249 110.823 241.227 119.828C241.415 128.279 245.488 135.357 251.427 141.258C258.82 147.259 267.227 149.201 276.607 148.45C285.389 147.571 292.066 143.035 297.607 136.45L303.607 125.45H463.607V126.45C441.898 137.338 420.186 148.22 398.47 159.094C387.907 164.382 377.345 169.672 366.786 174.968C357.516 179.618 348.246 184.266 338.972 188.907L337.567 189.61C337.548 189.62 337.529 189.629 337.509 189.639C337.5 189.644 337.49 189.648 337.481 189.653C333.073 191.858 328.666 194.064 324.262 196.274C319.582 198.624 314.902 200.973 310.219 203.315C308.483 204.182 306.747 205.049 305.012 205.917C304.577 206.136 304.142 206.356 303.707 206.575C295.557 210.681 287.47 214.756 278.853 217.832C269.59 220.38 261.095 216.845 252.823 212.756L250.821 211.744C248.501 210.59 246.183 209.435 243.869 208.273C242.179 207.424 240.488 206.577 238.796 205.732C234.173 203.427 229.552 201.118 224.935 198.803C220.024 196.341 215.111 193.883 210.197 191.427C201.961 187.31 193.726 183.19 185.494 179.065C175.92 174.267 166.345 169.473 156.766 164.687C147.469 160.042 138.174 155.394 128.881 150.742C124.943 148.77 121.004 146.799 117.065 144.829C112.353 142.475 107.641 140.119 102.933 137.758C101.193 136.885 99.4523 136.012 97.7119 135.14C95.2969 133.934 92.882 132.729 90.4699 131.517L88.2657 130.409C84.9322 128.752 81.6488 127.031 78.3977 125.217L76.2061 123.925C74.2122 122.821 74.2122 122.821 72.6067 121.45C71.8426 119.661 71.4714 118.793 71.3572 117.892C71.2494 117.041 71.3707 116.161 71.6067 114.45C74.1486 111.247 77.1045 109.465 80.7259 107.627L82.7645 106.623C85.0722 105.462 87.381 104.303 89.6949 103.154C91.391 102.312 93.0857 101.467 94.7791 100.619C99.3921 98.3052 104.008 95.9973 108.628 93.6971C113.549 91.2472 118.466 88.7912 123.383 86.3327C131.623 82.2118 139.866 78.0957 148.112 73.9858C157.701 69.2069 167.289 64.4239 176.871 59.632C187.157 54.4882 197.445 49.3483 207.736 44.2124C210.683 42.7411 213.631 41.2694 216.578 39.7966C221.291 37.4407 226.005 35.0863 230.721 32.7369ZM256.224 120.086C255.948 114.026 256.87 110.241 260.607 105.45C265.412 101.255 270.412 100.717 276.607 101.45C280.665 102.802 283.323 104.671 285.853 108.176C288.397 112.595 289.213 116.225 288.341 121.274C286.534 126.627 282.98 129.636 278.232 132.45C272.493 134.033 268.624 133.497 263.357 130.762C259.637 127.634 257.026 125.041 256.224 120.086ZM465.607 294.075C464.142 288.767 464.619 284.949 466.669 279.762C469.993 275.795 473.835 272.842 479.06 272.102C485.603 272.028 488.818 273.967 493.607 278.45C496.472 281.792 496.795 284.36 496.857 288.637C496.754 294.319 494.583 297.431 490.607 301.45C486.168 304.345 482.864 304.846 477.607 304.45C472.126 302.623 468.521 298.993 465.607 294.075ZM464.332 328.306C464.351 324.173 464.873 321.214 466.607 317.45C475.15 319.69 483.105 320.359 491.794 318.45L495.607 317.45C497.554 322.84 497.851 327.709 497.885 333.423L497.872 336.883C497.876 339.33 497.879 341.778 497.88 344.225C497.867 348.061 497.857 351.896 497.867 355.732C497.876 358.244 497.879 360.756 497.878 363.268L497.872 366.883C497.898 374.064 497.847 380.583 495.607 387.45C492.71 391.965 489.843 394.503 484.786 396.106C479.231 396.982 474.883 395.253 470.232 392.325C464.577 386.131 464.259 379.732 464.216 371.676L464.243 367.938L464.243 366.917C464.242 363.936 464.24 360.955 464.257 357.974C464.28 354.514 464.297 351.055 464.291 347.595C464.286 344.881 464.285 342.167 464.293 339.452L464.306 335.563L464.303 331.806L464.332 328.306ZM274.294 314.012C317.144 312.997 358.01 305.817 398.04 290.172C398.268 290.082 398.49 289.992 398.707 289.905C400.73 289.09 402.32 288.45 404.607 288.45C404.627 292.074 404.645 295.698 404.656 299.323C404.66 300.802 404.664 302.282 404.669 303.762C404.682 305.942 404.694 308.123 404.7 310.303L404.704 312.375C404.714 314.734 404.691 317.093 404.607 319.45C402.613 325.431 398.95 328.228 393.548 331.02L390.607 332.45C346.872 354.003 291.163 366.294 242.607 357.45V355.45L244.104 354.432L246.185 353.348C247.739 352.5 249.296 351.66 250.857 350.825C256.639 347.842 260.298 345.491 262.972 339.413C264.997 333.147 264.046 328.912 261.058 323.045L260.064 321.145C259.414 319.877 258.764 318.609 258.114 317.341C257.576 315.56 256.6 312.3 257 313.5C257.4 314.7 265.25 314.429 269.124 314.143C270.848 314.099 272.571 314.055 274.294 314.012Z" fill="#020202"/>
<path d="M235.968 30.1237C234.219 30.9951 232.47 31.8662 230.721 32.7369C226.005 35.0863 221.291 37.4407 216.578 39.7966C213.631 41.2694 210.683 42.7411 207.736 44.2124C197.445 49.3483 187.157 54.4882 176.871 59.632C167.289 64.4239 157.701 69.2069 148.112 73.9858C139.866 78.0957 131.623 82.2118 123.383 86.3327C118.466 88.7912 113.549 91.2472 108.628 93.6971C104.008 95.9973 99.3921 98.3052 94.7791 100.619C93.0857 101.467 91.391 102.312 89.6949 103.154C87.381 104.303 85.0722 105.462 82.7645 106.623L80.7259 107.627C77.1045 109.465 74.1486 111.247 71.6067 114.45C71.3707 116.161 71.2494 117.041 71.3572 117.892C71.4714 118.793 71.8426 119.661 72.6067 121.45C74.2122 122.821 74.2122 122.821 76.2061 123.925L78.3977 125.217C81.6488 127.031 84.9322 128.752 88.2657 130.409L90.4699 131.517C92.882 132.729 95.2969 133.934 97.7119 135.14C99.4523 136.012 101.193 136.885 102.933 137.758C107.641 140.119 112.353 142.475 117.065 144.829C121.004 146.799 124.943 148.77 128.881 150.742C138.174 155.394 147.469 160.042 156.766 164.687C166.345 169.473 175.92 174.267 185.494 179.065C193.726 183.19 201.961 187.31 210.197 191.427C215.111 193.883 220.024 196.341 224.935 198.803C229.552 201.118 234.173 203.427 238.796 205.732C240.488 206.577 242.179 207.424 243.869 208.273C246.183 209.435 248.501 210.59 250.821 211.744L252.823 212.756C261.095 216.845 269.59 220.38 278.853 217.832C287.47 214.756 295.557 210.681 303.707 206.575C304.142 206.356 304.577 206.136 305.012 205.917C306.747 205.049 308.483 204.182 310.219 203.315C314.902 200.973 319.582 198.624 324.262 196.274C328.666 194.064 333.073 191.858 337.481 189.653L337.509 189.639L337.567 189.61L338.972 188.907C348.246 184.266 357.516 179.618 366.786 174.968C377.345 169.672 387.907 164.382 398.47 159.094C420.186 148.22 441.898 137.338 463.607 126.45V125.45H303.607L297.607 136.45C292.066 143.035 285.389 147.571 276.607 148.45C267.227 149.201 258.82 147.259 251.427 141.258C245.488 135.357 241.415 128.279 241.227 119.828C241.249 110.823 242.331 103.574 247.857 96.1371C254.764 89.3867 262.138 86.1763 271.857 86.0746C281.023 86.2184 288.28 88.3734 295.075 94.6723C297.873 97.9189 299.744 101.614 301.607 105.45L303.607 109.45H464.607C460.984 106.733 457.412 104.714 453.388 102.717L451.182 101.61C448.743 100.388 446.302 99.1714 443.86 97.955C442.111 97.0797 440.361 96.204 438.612 95.328C433.862 92.9506 429.11 90.5781 424.357 88.2067C419.945 86.0049 415.535 83.7998 411.126 81.5947L409.45 80.7569C401.108 76.5863 392.765 72.4188 384.42 68.2533C374.765 63.4337 365.112 58.6098 355.46 53.7836C346.182 49.1444 336.904 44.5075 327.624 39.8719C323.671 37.8972 319.719 35.9219 315.767 33.9461C311.116 31.6214 306.465 29.2987 301.812 26.9776C300.102 26.124 298.393 25.2698 296.683 24.4149C294.356 23.2509 292.027 22.0894 289.698 20.9285L287.634 19.8941C282.6 17.3902 278.797 16.2377 273.169 16.0746L269.736 15.9262C260.928 16.5025 251.733 21.5638 243.337 26.1854C240.797 27.5839 238.329 28.9422 235.968 30.1237Z" fill="#020202"/>
</svg>
