<svg width="48" height="47" viewBox="0 0 48 47" fill="none" xmlns="http://www.w3.org/2000/svg">
<path d="M42.3357 21.1406V8.01606C42.3357 5.12094 41.1005 3.96289 38.0317 3.96289H30.2341C27.1653 3.96289 25.9301 5.12094 25.9301 8.01606V21.1406C25.9301 24.0357 27.1653 25.1938 30.2341 25.1938H38.0317C41.1005 25.1938 42.3357 24.0357 42.3357 21.1406Z" fill="#04006C"/>
<path d="M22.0699 25.3867V38.5112C22.0699 41.4063 20.8346 42.5644 17.7658 42.5644H9.96827C6.89944 42.5644 5.66418 41.4063 5.66418 38.5112V25.3867C5.66418 22.4915 6.89944 21.3335 9.96827 21.3335H17.7658C20.8346 21.3335 22.0699 22.4915 22.0699 25.3867Z" fill="#04006C"/>
<path d="M42.3357 38.5111V33.1069C42.3357 30.2118 41.1005 29.0537 38.0317 29.0537H30.2341C27.1653 29.0537 25.9301 30.2118 25.9301 33.1069V38.5111C25.9301 41.4062 27.1653 42.5643 30.2341 42.5643H38.0317C41.1005 42.5643 42.3357 41.4062 42.3357 38.5111Z" fill="#04006C"/>
<path d="M22.0699 13.4203V8.01606C22.0699 5.12094 20.8346 3.96289 17.7658 3.96289H9.96827C6.89944 3.96289 5.66418 5.12094 5.66418 8.01606V13.4203C5.66418 16.3154 6.89944 17.4735 9.96827 17.4735H17.7658C20.8346 17.4735 22.0699 16.3154 22.0699 13.4203Z" fill="#04006C"/>
</svg>
