<?xml version="1.0" encoding="UTF-8"?>
<svg version="1.1" xmlns="http://www.w3.org/2000/svg" width="512" height="485">
<path d="M0 0 C-0.53871272 4.16278012 -2.83480707 6.36832491 -5.5625 9.4375 C-21.99171407 28.56768862 -33.96100457 55.35398376 -34.23828125 80.79296875 C-34.24816574 81.53231155 -34.25805023 82.27165436 -34.26823425 83.03340149 C-34.62598239 116.7316868 -27.961633 147.92341679 -5 174 C-3.97132813 175.22589844 -3.97132813 175.22589844 -2.921875 176.4765625 C2.82264186 183.1509472 10.01922121 191.0096106 18 195 C18 195.66 18 196.32 18 197 C-86.61 197 -191.22 197 -299 197 C-299 180.61697471 -299 180.61697471 -297.8125 172.9375 C-297.6779541 172.05030273 -297.5434082 171.16310547 -297.40478516 170.24902344 C-292.3573861 138.48570198 -281.32430354 106.01623828 -262 80 C-261.08798983 78.73086513 -260.17657583 77.4613017 -259.265625 76.19140625 C-252.74836167 67.20873081 -245.73286392 58.95122132 -238 51 C-237.49968262 50.47921875 -236.99936523 49.9584375 -236.48388672 49.421875 C-180.69039338 -8.54166421 -74.92904174 -39.27388693 0 0 Z " fill="#000000" transform="translate(299,284)"/>
<path d="M0 0 C3.58890496 1.6077864 7.03818651 3.44929373 10.5 5.3125 C11.519729 5.85302002 12.53945801 6.39354004 13.59008789 6.95043945 C21.12335569 10.95628469 28.61465528 15.03981144 36.09375 19.14575195 C44.35551537 23.67389076 52.67447303 28.09068324 61 32.5 C70.88156269 37.73421989 80.73581415 43.01001031 90.53710938 48.39355469 C95.99282783 51.38179123 101.47204189 54.32245881 106.96875 57.234375 C108.0220752 57.79251892 108.0220752 57.79251892 109.09667969 58.36193848 C112.56640648 60.19944598 116.03788441 62.03355171 119.51171875 63.86328125 C123.35170919 65.88942488 127.18036763 67.93574205 131 70 C131.99966797 70.53911011 131.99966797 70.53911011 133.01953125 71.08911133 C134.98817636 72.15759441 136.94827213 73.24024034 138.90625 74.328125 C140.05416016 74.96137695 141.20207031 75.59462891 142.38476562 76.24707031 C145 78 145 78 146 81 C142.18934282 83.06591756 138.37646946 85.12770382 134.5625 87.1875 C133.9795517 87.50234344 133.39660339 87.81718689 132.79598999 88.14157104 C124.34500362 92.70194726 115.85061164 97.16680104 107.3125 101.5625 C99.31416853 105.68623964 91.4326858 109.96360001 83.625 114.4375 C74.20721442 119.83400696 64.63705239 124.87661282 54.98364258 129.83740234 C47.87781397 133.49374531 40.82042226 137.22187067 33.8125 141.0625 C32.50526978 141.77660034 32.50526978 141.77660034 31.17163086 142.50512695 C26.26962171 145.18875472 21.38612515 147.90327892 16.51171875 150.63671875 C14.34119781 151.8412395 12.170626 153.04566859 10 154.25 C8.99042236 154.82371338 7.98084473 155.39742676 6.94067383 155.98852539 C5.99087646 156.51309326 5.0410791 157.03766113 4.0625 157.578125 C3.22847656 158.04637695 2.39445313 158.51462891 1.53515625 158.99707031 C-2.48615912 160.58793737 -5.59491925 160.53643789 -9.62695312 158.99707031 C-10.50287109 158.52881836 -11.37878906 158.06056641 -12.28125 157.578125 C-13.27568115 157.05387939 -14.2701123 156.52963379 -15.29467773 155.98950195 C-16.35243408 155.41546631 -17.41019043 154.84143066 -18.5 154.25 C-19.61511963 153.65727295 -20.73023926 153.0645459 -21.87915039 152.45385742 C-25.26095902 150.65065852 -28.63227588 148.82934977 -32 147 C-33.37067627 146.25580811 -33.37067627 146.25580811 -34.76904297 145.49658203 C-38.20120361 143.62893906 -41.63041599 141.75609506 -45.0546875 139.87402344 C-53.65430067 135.15643422 -62.32538037 130.57756517 -71 126 C-81.25106006 120.58952851 -91.47674054 115.14262884 -101.63427734 109.55786133 C-107.07728774 106.57310076 -112.54524024 103.63908773 -118.03125 100.734375 C-119.09241531 100.17231102 -119.09241531 100.17231102 -120.17501831 99.59889221 C-123.67728845 97.74486727 -127.18139108 95.89441113 -130.68798828 94.04858398 C-134.47037372 92.05385551 -138.23985906 90.0363308 -142 88 C-142.60485229 87.67404846 -143.20970459 87.34809692 -143.83288574 87.01226807 C-145.54956632 86.08014728 -147.25555141 85.12840902 -148.9609375 84.17578125 C-150.42345947 83.36427612 -150.42345947 83.36427612 -151.91552734 82.53637695 C-152.94734131 81.77587036 -152.94734131 81.77587036 -154 81 C-154 80.01 -154 79.02 -154 78 C-153.14583496 77.54786133 -152.29166992 77.09572266 -151.41162109 76.62988281 C-131.21257402 65.94988501 -131.21257402 65.94988501 -111.125 55.0625 C-101.05966631 49.53422846 -90.90794642 44.17388297 -80.75250244 38.81375122 C-72.13690014 34.26517125 -63.53803368 29.69317931 -55 25 C-45.34376242 19.69297296 -35.61422016 14.52758491 -25.875 9.375 C-25.11477539 8.97265137 -24.35455078 8.57030273 -23.57128906 8.15576172 C-21.39948649 7.00673211 -19.22722127 5.85858392 -17.0546875 4.7109375 C-16.40152557 4.3656601 -15.74836365 4.02038269 -15.07540894 3.66464233 C-13.38539876 2.77302176 -11.69282931 1.88625648 -10 1 C-9.24799316 0.59257568 -8.49598633 0.18515137 -7.72119141 -0.23461914 C-4.81546461 -1.52674021 -3.04809503 -0.85640285 0 0 Z " fill="#000000" transform="translate(222,1)"/>
<path d="M0 0 C17.34054614 13.937063 29.59010903 32.31587352 36.5625 53.4375 C36.88009277 54.39390381 36.88009277 54.39390381 37.20410156 55.36962891 C46.24411904 84.15871785 40.68731513 114.78492204 27.3125 141.0625 C12.75147356 167.14433856 -11.12907062 184.82941201 -39.42578125 193.4296875 C-49.46985917 196.06742298 -59.12076239 196.82711954 -69.5 196.8125 C-70.18281036 196.81162384 -70.86562073 196.81074768 -71.56912231 196.80984497 C-89.21496457 196.73528762 -103.64714552 193.22853092 -119.4375 185.4375 C-120.41074219 184.97601563 -121.38398438 184.51453125 -122.38671875 184.0390625 C-147.90094627 171.15158407 -165.05247925 148.02717345 -174.81640625 121.72265625 C-184.24854446 92.45170334 -181.23755108 61.76188393 -167.4375 34.4375 C-153.79465188 8.97277713 -130.80607254 -10.52028717 -103.19335938 -19.27392578 C-67.24291244 -29.6283538 -29.49550877 -23.0091555 0 0 Z M-125.4375 25.4375 C-126.21351563 26.12328125 -126.98953125 26.8090625 -127.7890625 27.515625 C-142.64679545 41.30115042 -151.57118576 61.83515798 -152.75390625 81.94140625 C-153.60388414 105.49207209 -145.57325852 126.35487437 -130.14453125 144.0703125 C-115.17112869 159.70625499 -94.56921702 169.21583339 -72.98291016 169.90625 C-48.49235807 170.16282151 -27.91270744 162.15572434 -9.875 145.375 C6.03547759 128.75168739 14.14149268 107.24032892 13.984375 84.27905273 C13.24612132 61.53161112 2.90564843 40.6693529 -13.41796875 25.0078125 C-21.71062285 17.94886502 -31.2269371 12.24198371 -41.4375 8.4375 C-42.46101563 8.045625 -43.48453125 7.65375 -44.5390625 7.25 C-72.24995848 -1.75760501 -104.32792793 5.62592751 -125.4375 25.4375 Z " fill="#000000" transform="translate(471.4375,288.5625)"/>
<path d="M0 0 C0.89613542 33.46950902 -3.80097731 65.41540959 -27 91 C-45.11264751 110.01391889 -68.39117184 118.10142736 -94.11865234 119.06616211 C-117.4311332 119.49626316 -138.55180754 110.31403338 -156 95 C-156.74894531 94.34644531 -157.49789062 93.69289063 -158.26953125 93.01953125 C-177.06230775 75.47741238 -185.19088174 50.19869834 -186.1081543 25.03271484 C-186.16783475 22.04187176 -186.18554611 19.05390434 -186.1875 16.0625 C-186.19974609 15.04865234 -186.21199219 14.03480469 -186.22460938 12.99023438 C-186.22654297 12.01505859 -186.22847656 11.03988281 -186.23046875 10.03515625 C-186.23457764 9.1625415 -186.23868652 8.28992676 -186.24291992 7.39086914 C-185.98311178 4.83378258 -185.28874147 3.20366172 -184 1 C-183.23042969 1.47566406 -182.46085938 1.95132813 -181.66796875 2.44140625 C-163.76747696 13.39178964 -145.23329442 23.34182221 -126.7487793 33.26513672 C-121.73905579 35.95639021 -116.76235677 38.69092718 -111.82421875 41.51171875 C-110.82495361 42.07608643 -109.82568848 42.6404541 -108.79614258 43.22192383 C-106.89897244 44.29553344 -105.00896545 45.38193767 -103.12768555 46.4831543 C-101.85405151 47.19918823 -101.85405151 47.19918823 -100.5546875 47.9296875 C-99.81718262 48.35491699 -99.07967773 48.78014648 -98.31982422 49.21826172 C-94.24136572 50.59262755 -91.04513704 49.46579949 -87.21777344 47.76000977 C-85.80286621 46.98355103 -85.80286621 46.98355103 -84.359375 46.19140625 C-83.2981543 45.61438965 -82.23693359 45.03737305 -81.14355469 44.44287109 C-80.02368164 43.82234863 -78.90380859 43.20182617 -77.75 42.5625 C-76.57493663 41.91936724 -75.39947678 41.27695838 -74.22363281 40.63525391 C-70.80933933 38.76838756 -67.40392108 36.88571844 -64 35 C-63.13632813 34.52256348 -62.27265625 34.04512695 -61.3828125 33.55322266 C-58.46079174 31.93664172 -55.54059561 30.31695576 -52.62573242 28.6875 C-47.73139388 25.95152744 -42.81266346 23.26367049 -37.88305664 20.59179688 C-28.61821838 15.56843092 -10.29327861 0 0 0 Z " fill="#000000" transform="translate(312,127)"/>
<path d="M0 0 C0.7437085 0.00322266 1.48741699 0.00644531 2.25366211 0.00976562 C8.1825678 0.16004489 12.45312848 1.42841111 17.625 4.4375 C17.625 5.0975 17.625 5.7575 17.625 6.4375 C18.594375 5.9425 19.56375 5.4475 20.5625 4.9375 C28.76511982 1.88162203 39.96212367 2.01464738 48.1875 5.0625 C57.92393318 9.78168955 64.15685207 16.12806737 68.14453125 26.15234375 C68.85071673 29.51103079 68.625 33.00537579 68.625 36.4375 C45.855 36.4375 23.085 36.4375 -0.375 36.4375 C-0.375 34.4575 -0.375 32.4775 -0.375 30.4375 C-10.605 30.4375 -20.835 30.4375 -31.375 30.4375 C-30.16185689 20.73235513 -27.77771981 12.70078419 -19.9375 6.375 C-13.63076685 1.81045833 -7.6740795 -0.10362209 0 0 Z M15.625 6.4375 C15.295 7.0975 14.965 7.7575 14.625 8.4375 C15.615 8.1075 16.605 7.7775 17.625 7.4375 C16.965 7.1075 16.305 6.7775 15.625 6.4375 Z M11.625 9.4375 C11.295 10.0975 10.965 10.7575 10.625 11.4375 C11.615 11.1075 12.605 10.7775 13.625 10.4375 C12.965 10.1075 12.305 9.7775 11.625 9.4375 Z M6.625 14.4375 C7.625 16.4375 7.625 16.4375 7.625 16.4375 Z M2.625 20.4375 C3.625 22.4375 3.625 22.4375 3.625 22.4375 Z M1.625 22.4375 C2.625 24.4375 2.625 24.4375 2.625 24.4375 Z M0.625 25.4375 C1.625 27.4375 1.625 27.4375 1.625 27.4375 Z " fill="#000000" transform="translate(367.375,379.5625)"/>
<path d="M0 0 C0.639375 0.44214844 1.27875 0.88429688 1.9375 1.33984375 C3.29875 2.17515625 3.29875 2.17515625 4.6875 3.02734375 C10.9055935 9.41816207 14.9375 17.38476658 14.9375 26.33984375 C4.7075 26.33984375 -5.5225 26.33984375 -16.0625 26.33984375 C-17.7125 22.70984375 -19.3625 19.07984375 -21.0625 15.33984375 C-24.85671544 9.56603764 -28.26916862 6.04757583 -34.0625 2.33984375 C-33.0625 -0.66015625 -33.0625 -0.66015625 -30.0625 -2.34765625 C-20.52660603 -5.56645078 -8.6408558 -5.26917051 0 0 Z " fill="#000000" transform="translate(453.0625,383.66015625)"/>
<path d="M0 0 C4.47870656 2.15937638 7.18198188 4.92952939 10 9 C11.45016555 13.35049665 11.51070107 17.45334185 11 22 C8.80615021 26.38769958 6.19208131 29.44829833 2 32 C-4.02346776 33.9873346 -9.06168197 34.678065 -15 32 C-17.75 29.6875 -17.75 29.6875 -20 27 C-20.598125 26.29875 -21.19625 25.5975 -21.8125 24.875 C-23.70160955 20.30136636 -23.64467932 15.8709104 -23 11 C-17.99792118 0.81058019 -10.52954659 -0.99231329 0 0 Z " fill="#000000" transform="translate(408,345)"/>
<path d="M0 0 C3.65006424 2.42771715 5.80874178 5.27675034 7.1875 9.4375 C7.98868496 14.17853267 7.69422648 17.44281469 5.5 21.75 C1.67327664 26.19727309 -0.85340699 28.54399589 -6.75 29.375 C-11.2750328 29.64354794 -14.0474774 29.15181862 -17.8125 26.4375 C-21.52699549 22.73309824 -23.60375739 19.56667465 -24.125 14.25 C-23.69372497 8.98844461 -22.26107817 4.70211763 -18.3046875 1.04296875 C-12.66197063 -2.6707263 -6.04886767 -2.99205232 0 0 Z " fill="#000000" transform="translate(375.8125,346.5625)"/>
<path d="M0 0 C3.93493564 2.58973671 5.79281793 6.0752051 7.1875 10.5 C7.82120621 15.75070862 7.07547296 19.07177479 4.1875 23.5 C0.09116147 27.99598131 -3.1948985 29.38892191 -9.28125 29.69140625 C-14.1636777 29.32221033 -17.88027898 27.61234332 -21.1953125 23.98828125 C-24.21446203 19.45955695 -24.72364639 14.80719287 -23.8125 9.5 C-22.43103487 5.33925592 -20.27614108 2.49093337 -16.625 0.0625 C-11.21534177 -2.61336949 -5.43896952 -2.60884191 0 0 Z " fill="#000000" transform="translate(444.8125,346.5)"/>
</svg>
