<svg width="36" height="36" viewBox="0 0 36 36" fill="none" xmlns="http://www.w3.org/2000/svg">
<path d="M26.6923 8.20566V9.31273L21.3963 6.24585C19.3916 5.09391 16.594 5.09391 14.6043 6.24585L9.30835 9.32769V8.20566C9.30835 4.83958 11.1485 2.9845 14.5146 2.9845H21.4861C24.8522 2.9845 26.6923 4.83958 26.6923 8.20566Z" fill="#171717"/>
<path d="M26.7365 11.9157L26.5271 11.811L24.4925 10.6441L20.2736 8.20554C18.9871 7.45753 17.0123 7.45753 15.7257 8.20554L11.5069 10.6291L9.47227 11.826L9.20298 11.9606C6.58492 13.7259 6.4054 14.055 6.4054 16.8826V23.6446C6.4054 26.4721 6.58492 26.8013 9.26282 28.6115L15.7257 32.3366C16.369 32.7256 17.1769 32.8901 17.9997 32.8901C18.8075 32.8901 19.6304 32.7106 20.2736 32.3366L26.7964 28.5666C29.4294 26.8013 29.5939 26.4871 29.5939 23.6446V16.8826C29.5939 14.055 29.4144 13.7259 26.7365 11.9157ZM22.1736 20.1888L21.261 21.3108C21.1114 21.4754 21.0067 21.7895 21.0217 22.014L21.1114 23.4501C21.1713 24.3328 20.5429 24.7816 19.7201 24.4675L18.3886 23.9289C18.1792 23.8541 17.8351 23.8541 17.6257 23.9289L16.2942 24.4525C15.4714 24.7816 14.843 24.3179 14.9029 23.4352L14.9926 21.999C15.0076 21.7746 14.9029 21.4604 14.7533 21.2959L13.8257 20.1888C13.2572 19.5156 13.5116 18.7676 14.3643 18.5432L15.7556 18.1841C15.98 18.1243 16.2343 17.9148 16.354 17.7353L17.132 16.5385C17.6107 15.7904 18.3737 15.7904 18.8674 16.5385L19.6453 17.7353C19.765 17.9298 20.0343 18.1243 20.2437 18.1841L21.635 18.5432C22.4878 18.7676 22.7421 19.5156 22.1736 20.1888Z" fill="#171717"/>
</svg>
