<svg width="30" height="29" viewBox="0 0 30 29" fill="none" xmlns="http://www.w3.org/2000/svg">
<path d="M26.7678 6.05532V20.0472C26.7678 21.1887 25.8381 22.236 24.6966 22.3772L24.3318 22.4243C22.4019 22.6832 19.6836 23.4834 17.4948 24.4013C16.7298 24.719 15.8826 24.1424 15.8826 23.3069V6.9379C15.8826 6.50249 16.1297 6.10239 16.518 5.89057C18.6715 4.72556 21.9312 3.68999 24.1435 3.50171H24.2142C25.6263 3.50171 26.7678 4.64318 26.7678 6.05532Z" fill="#171717"/>
<path d="M13.4817 5.89057C11.3282 4.72556 8.06854 3.68999 5.8562 3.50171H5.77382C4.36169 3.50171 3.22021 4.64318 3.22021 6.05532V20.0472C3.22021 21.1887 4.14987 22.236 5.29134 22.3772L5.65614 22.4243C7.58606 22.6832 10.3044 23.4834 12.4932 24.4013C13.2581 24.719 14.1054 24.1424 14.1054 23.3069V6.9379C14.1054 6.49072 13.8701 6.10239 13.4817 5.89057ZM6.76232 9.4562H9.41007C9.89254 9.4562 10.2926 9.85631 10.2926 10.3388C10.2926 10.833 9.89254 11.2214 9.41007 11.2214H6.76232C6.27984 11.2214 5.87973 10.833 5.87973 10.3388C5.87973 9.85631 6.27984 9.4562 6.76232 9.4562ZM10.2926 14.7517H6.76232C6.27984 14.7517 5.87973 14.3634 5.87973 13.8691C5.87973 13.3866 6.27984 12.9865 6.76232 12.9865H10.2926C10.7751 12.9865 11.1752 13.3866 11.1752 13.8691C11.1752 14.3634 10.7751 14.7517 10.2926 14.7517Z" fill="#171717"/>
</svg>
