<svg width="30" height="29" viewBox="0 0 30 29" fill="none" xmlns="http://www.w3.org/2000/svg">
<path d="M24.6613 9.32027L15.6001 14.5687C15.2353 14.7805 14.7764 14.7805 14.3998 14.5687L5.33862 9.32027C4.69139 8.9437 4.52664 8.06112 5.02089 7.50803C5.36216 7.1197 5.75049 6.80196 6.16237 6.57838L12.5405 3.04804C13.9056 2.28314 16.1179 2.28314 17.483 3.04804L23.8611 6.57838C24.273 6.80196 24.6613 7.13146 25.0026 7.50803C25.4733 8.06112 25.3085 8.9437 24.6613 9.32027Z" fill="#171717"/>
<path d="M14.329 16.7576V24.7832C14.329 25.6775 13.4229 26.2659 12.6227 25.8776C10.1986 24.6891 6.11513 22.4649 6.11513 22.4649C4.67946 21.653 3.50269 19.6054 3.50269 17.9226V11.8504C3.50269 10.9208 4.47941 10.3324 5.27962 10.7913L13.7407 15.6985C14.0937 15.9221 14.329 16.3222 14.329 16.7576Z" fill="#171717"/>
<path d="M15.6708 16.7576V24.7832C15.6708 25.6775 16.5769 26.2659 17.3771 25.8776C19.8013 24.6891 23.8847 22.4649 23.8847 22.4649C25.3204 21.653 26.4971 19.6054 26.4971 17.9226V11.8504C26.4971 10.9208 25.5204 10.3324 24.7202 10.7913L16.2592 15.6985C15.9061 15.9221 15.6708 16.3222 15.6708 16.7576Z" fill="#171717"/>
</svg>
