<svg width="30" height="29" viewBox="0 0 30 29" fill="none" xmlns="http://www.w3.org/2000/svg">
<path d="M10.5871 6.77853C10.1046 6.77853 9.70447 6.37843 9.70447 5.89595V2.36562C9.70447 1.88314 10.1046 1.48303 10.5871 1.48303C11.0695 1.48303 11.4696 1.88314 11.4696 2.36562V5.89595C11.4696 6.37843 11.0695 6.77853 10.5871 6.77853Z" fill="#171717"/>
<path d="M19.4129 6.77853C18.9304 6.77853 18.5303 6.37843 18.5303 5.89595V2.36562C18.5303 1.88314 18.9304 1.48303 19.4129 1.48303C19.8953 1.48303 20.2954 1.88314 20.2954 2.36562V5.89595C20.2954 6.37843 19.8953 6.77853 19.4129 6.77853Z" fill="#171717"/>
<path d="M15 16.5928C15.6119 16.5928 16.0591 16.228 16.0591 15.6513C16.0591 15.0629 15.6119 14.7217 15 14.7217C14.3881 14.7217 13.9409 15.0629 13.9409 15.6513C13.9409 16.228 14.3881 16.5928 15 16.5928Z" fill="#171717"/>
<path d="M15 20.0172C15.7409 20.0172 16.3415 19.5272 16.3415 18.9228C16.3415 18.3183 15.7409 17.8284 15 17.8284C14.2591 17.8284 13.6584 18.3183 13.6584 18.9228C13.6584 19.5272 14.2591 20.0172 15 20.0172Z" fill="#171717"/>
<path d="M23.908 5.30751C23.1314 4.73089 22.0134 5.28398 22.0134 6.2607V6.37838C22.0134 7.75521 21.0249 9.02613 19.6481 9.16735C18.0594 9.33209 16.7179 8.08471 16.7179 6.53136V5.30751C16.7179 4.66029 16.1884 4.13074 15.5411 4.13074H14.4585C13.8113 4.13074 13.2817 4.66029 13.2817 5.30751V6.53136C13.2817 7.46102 12.7992 8.28476 12.0696 8.74371C11.9637 8.81431 11.8461 8.87315 11.7284 8.93199C11.6225 8.99083 11.5048 9.0379 11.3753 9.0732C11.2341 9.12027 11.0812 9.15558 10.9164 9.16735C10.7281 9.19088 10.5398 9.19088 10.3516 9.16735C10.1868 9.15558 10.0338 9.12027 9.89261 9.0732C9.77493 9.0379 9.65725 8.99083 9.53958 8.93199C9.4219 8.87315 9.30422 8.81431 9.19831 8.74371C8.45694 8.22592 7.98623 7.33157 7.98623 6.37838V6.2607C7.98623 5.35459 7.02127 4.81327 6.25636 5.2016C6.2446 5.21337 6.23283 5.21337 6.22106 5.22514C6.17399 5.24868 6.13869 5.27221 6.09162 5.30751C6.05631 5.34282 6.00924 5.36635 5.97394 5.40166C5.64444 5.66055 5.35025 5.95474 5.10312 6.27247C4.97368 6.41369 4.86777 6.56667 4.77362 6.71965C4.76186 6.73142 4.75009 6.74318 4.73832 6.76672C4.63241 6.9197 4.53827 7.09622 4.45589 7.26097C4.43236 7.2845 4.42059 7.29627 4.42059 7.3198C4.34998 7.46102 4.27938 7.60223 4.23231 7.75521C4.197 7.81405 4.18524 7.86112 4.1617 7.91996C4.09109 8.09648 4.04402 8.27299 3.99695 8.44951C3.94988 8.61426 3.91458 8.79078 3.89104 8.96729C3.86751 9.09674 3.85574 9.22618 3.84397 9.3674C3.8322 9.53215 3.82043 9.6969 3.82043 9.86164V20.1702C3.82043 23.3357 6.38581 25.9011 9.55134 25.9011H20.4483C23.6138 25.9011 26.1792 23.3357 26.1792 20.1702V9.86164C26.1792 7.99057 25.2849 6.35485 23.908 5.30751ZM14.9998 21.4882C13.1758 21.4882 12.0579 20.5821 12.0579 19.1229C12.0579 18.3227 12.4698 17.6284 13.1876 17.2165C12.6698 16.8517 12.3285 16.3104 12.3285 15.569C12.3285 14.0392 13.5524 13.2508 14.9998 13.2508C16.4473 13.2508 17.6593 14.0392 17.6593 15.569C17.6593 16.3104 17.3298 16.8517 16.8003 17.2165C17.5299 17.6284 17.9418 18.3227 17.9418 19.1229C17.9418 20.5821 16.8121 21.4882 14.9998 21.4882Z" fill="#171717"/>
</svg>
