<svg width="30" height="29" viewBox="0 0 30 29" fill="none" xmlns="http://www.w3.org/2000/svg">
<path d="M20.5898 4.39951V2.56374C20.5898 2.08126 20.1897 1.68115 19.7072 1.68115C19.2248 1.68115 18.8247 2.08126 18.8247 2.56374V4.3289H11.1756V2.56374C11.1756 2.08126 10.7755 1.68115 10.293 1.68115C9.81055 1.68115 9.41044 2.08126 9.41044 2.56374V4.39951C6.23314 4.6937 4.69156 6.58832 4.45621 9.40081C4.43267 9.74208 4.7151 10.0245 5.0446 10.0245H24.9557C25.2969 10.0245 25.5794 9.73031 25.5441 9.40081C25.3087 6.58832 23.7671 4.6937 20.5898 4.39951Z" fill="#171717"/>
<path d="M24.4142 11.7896H5.58571C4.93849 11.7896 4.40894 12.3191 4.40894 12.9663V20.2153C4.40894 23.7456 6.1741 26.0992 10.2928 26.0992H19.707C23.8258 26.0992 25.5909 23.7456 25.5909 20.2153V12.9663C25.5909 12.3191 25.0614 11.7896 24.4142 11.7896ZM11.7167 21.6392C11.6579 21.6862 11.599 21.7451 11.5402 21.7804C11.4696 21.8275 11.399 21.8628 11.3284 21.8863C11.2578 21.9216 11.1872 21.9451 11.1166 21.9569C11.0342 21.9687 10.9636 21.9804 10.8812 21.9804C10.7282 21.9804 10.5753 21.9451 10.434 21.8863C10.2811 21.8275 10.1634 21.7451 10.0457 21.6392C9.83388 21.4156 9.70444 21.1096 9.70444 20.8037C9.70444 20.4977 9.83388 20.1917 10.0457 19.9682C10.1634 19.8622 10.2811 19.7799 10.434 19.721C10.6459 19.6269 10.8812 19.6034 11.1166 19.6504C11.1872 19.6622 11.2578 19.6857 11.3284 19.721C11.399 19.7446 11.4696 19.7799 11.5402 19.8269C11.599 19.874 11.6579 19.9211 11.7167 19.9682C11.9285 20.1917 12.058 20.4977 12.058 20.8037C12.058 21.1096 11.9285 21.4156 11.7167 21.6392ZM11.7167 17.5205C11.4931 17.7323 11.1872 17.8617 10.8812 17.8617C10.5753 17.8617 10.2693 17.7323 10.0457 17.5205C9.83388 17.2969 9.70444 16.9909 9.70444 16.6849C9.70444 16.379 9.83388 16.073 10.0457 15.8494C10.3752 15.5199 10.893 15.414 11.3284 15.6023C11.4814 15.6611 11.6108 15.7435 11.7167 15.8494C11.9285 16.073 12.058 16.379 12.058 16.6849C12.058 16.9909 11.9285 17.2969 11.7167 17.5205ZM15.8354 21.6392C15.6119 21.851 15.3059 21.9804 14.9999 21.9804C14.694 21.9804 14.388 21.851 14.1644 21.6392C13.9526 21.4156 13.8232 21.1096 13.8232 20.8037C13.8232 20.4977 13.9526 20.1917 14.1644 19.9682C14.5998 19.5327 15.4 19.5327 15.8354 19.9682C16.0473 20.1917 16.1767 20.4977 16.1767 20.8037C16.1767 21.1096 16.0473 21.4156 15.8354 21.6392ZM15.8354 17.5205C15.7766 17.5675 15.7178 17.6146 15.6589 17.6617C15.5883 17.7087 15.5177 17.744 15.4471 17.7676C15.3765 17.8029 15.3059 17.8264 15.2353 17.8382C15.1529 17.85 15.0823 17.8617 14.9999 17.8617C14.694 17.8617 14.388 17.7323 14.1644 17.5205C13.9526 17.2969 13.8232 16.9909 13.8232 16.6849C13.8232 16.379 13.9526 16.073 14.1644 15.8494C14.2703 15.7435 14.3998 15.6611 14.5528 15.6023C14.9882 15.414 15.5059 15.5199 15.8354 15.8494C16.0473 16.073 16.1767 16.379 16.1767 16.6849C16.1767 16.9909 16.0473 17.2969 15.8354 17.5205ZM19.9542 21.6392C19.7306 21.851 19.4246 21.9804 19.1187 21.9804C18.8127 21.9804 18.5067 21.851 18.2831 21.6392C18.0713 21.4156 17.9419 21.1096 17.9419 20.8037C17.9419 20.4977 18.0713 20.1917 18.2831 19.9682C18.7186 19.5327 19.5188 19.5327 19.9542 19.9682C20.166 20.1917 20.2954 20.4977 20.2954 20.8037C20.2954 21.1096 20.166 21.4156 19.9542 21.6392ZM19.9542 17.5205C19.8953 17.5675 19.8365 17.6146 19.7777 17.6617C19.707 17.7087 19.6364 17.744 19.5658 17.7676C19.4952 17.8029 19.4246 17.8264 19.354 17.8382C19.2716 17.85 19.1893 17.8617 19.1187 17.8617C18.8127 17.8617 18.5067 17.7323 18.2831 17.5205C18.0713 17.2969 17.9419 16.9909 17.9419 16.6849C17.9419 16.379 18.0713 16.073 18.2831 15.8494C18.4008 15.7435 18.5185 15.6611 18.6715 15.6023C18.8833 15.5082 19.1187 15.4846 19.354 15.5317C19.4246 15.5435 19.4952 15.567 19.5658 15.6023C19.6364 15.6258 19.707 15.6611 19.7777 15.7082C19.8365 15.7553 19.8953 15.8024 19.9542 15.8494C20.166 16.073 20.2954 16.379 20.2954 16.6849C20.2954 16.9909 20.166 17.2969 19.9542 17.5205Z" fill="#171717"/>
</svg>
