<svg width="30" height="30" viewBox="0 0 30 30" fill="none" xmlns="http://www.w3.org/2000/svg">
<path d="M22.8495 3.18005H20.6135C18.0479 3.18005 16.6946 4.53342 16.6946 7.09894V9.33494C16.6946 11.9005 18.0479 13.2538 20.6135 13.2538H22.8495C25.415 13.2538 26.7684 11.9005 26.7684 9.33494V7.09894C26.7684 4.53342 25.415 3.18005 22.8495 3.18005Z" fill="#171717"/>
<path d="M9.39834 16.6312H7.16234C4.58506 16.6312 3.23169 17.9846 3.23169 20.5501V22.7861C3.23169 25.3634 4.58506 26.7168 7.15057 26.7168H9.38657C11.9521 26.7168 13.3055 25.3634 13.3055 22.7979V20.5619C13.3172 17.9846 11.9639 16.6312 9.39834 16.6312Z" fill="#171717"/>
<path d="M8.28034 13.2774C11.0686 13.2774 13.329 11.017 13.329 8.22871C13.329 5.44041 11.0686 3.18005 8.28034 3.18005C5.49205 3.18005 3.23169 5.44041 3.23169 8.22871C3.23169 11.017 5.49205 13.2774 8.28034 13.2774Z" fill="#171717"/>
<path d="M21.7202 26.7168C24.5085 26.7168 26.7688 24.4565 26.7688 21.6682C26.7688 18.8799 24.5085 16.6195 21.7202 16.6195C18.9319 16.6195 16.6715 18.8799 16.6715 21.6682C16.6715 24.4565 18.9319 26.7168 21.7202 26.7168Z" fill="#171717"/>
</svg>
