<?xml version="1.0" standalone="no"?>
<!DOCTYPE svg PUBLIC "-//W3C//DTD SVG 20010904//EN"
 "http://www.w3.org/TR/2001/REC-SVG-20010904/DTD/svg10.dtd">
<svg version="1.0" xmlns="http://www.w3.org/2000/svg"
 width="64.000000pt" height="64.000000pt" viewBox="0 0 64.000000 64.000000"
 preserveAspectRatio="xMidYMid meet">

<g transform="translate(0.000000,64.000000) scale(0.100000,-0.100000)"
fill="#000000" stroke="none">
<path d="M245 631 c-92 -24 -173 -90 -215 -176 -19 -41 -24 -66 -24 -135 -1
-78 2 -90 33 -148 38 -70 70 -100 145 -140 43 -22 64 -26 136 -26 72 0 93 4
136 26 75 40 107 70 145 140 31 58 34 70 33 148 0 72 -4 93 -26 136 -39 75
-70 107 -137 143 -65 34 -164 49 -226 32z m22 -213 l53 -52 54 53 c37 36 60
52 70 48 36 -14 29 -38 -25 -93 l-53 -54 53 -54 c54 -55 61 -79 25 -93 -10 -4
-33 12 -70 48 l-54 53 -54 -53 c-55 -54 -79 -61 -93 -25 -4 10 12 33 48 70
l53 54 -52 53 c-55 55 -59 66 -40 85 19 19 30 15 85 -40z"/>
</g>
</svg>
