<svg width="22" height="25" viewBox="0 0 22 25" fill="none" xmlns="http://www.w3.org/2000/svg">
<path fill-rule="evenodd" clip-rule="evenodd" d="M16.4479 1.13845V2.97423C19.6252 3.26842 21.1668 5.16304 21.4021 7.97555C21.4374 8.30505 21.155 8.59925 20.8137 8.59925H0.902743C0.573247 8.59925 0.290821 8.31682 0.314357 7.97555C0.549711 5.16304 2.09128 3.26842 5.26857 2.97423V1.13845C5.26857 0.655966 5.66867 0.255859 6.15115 0.255859C6.63363 0.255859 7.03373 0.655966 7.03373 1.13845V2.90362H14.6828V1.13845C14.6828 0.655966 15.0829 0.255859 15.5653 0.255859C16.0478 0.255859 16.4479 0.655966 16.4479 1.13845ZM15.9791 21.3721C16.6155 21.0233 16.9949 20.5093 17.0439 19.9157C17.099 19.3283 16.8114 18.7592 16.2484 18.3063C15.202 17.4619 13.5009 17.1988 12.1485 17.5904C12.6686 17.7801 13.1459 18.0371 13.5559 18.3614C14.278 18.9427 14.639 19.6709 14.5778 20.4297C14.5289 20.956 14.2719 21.4516 13.8313 21.8494C14.5962 21.8678 15.3672 21.7087 15.9791 21.3721ZM15.8184 14.2555C15.9163 15.4426 15.0719 16.4829 13.9031 16.6236H13.8909H13.8725C13.8358 16.6236 13.7991 16.6236 13.7685 16.6359C13.1749 16.6664 12.6303 16.4768 12.2203 16.128C12.8506 15.565 13.2116 14.7205 13.1382 13.8026C13.0954 13.307 12.924 12.8541 12.667 12.4686C12.8996 12.3524 13.1688 12.2789 13.4442 12.2545C14.6435 12.1504 15.7144 13.0438 15.8184 14.2555ZM5.99223 18.4226C7.71173 17.2844 10.496 17.2844 12.2032 18.4226C12.9743 18.9366 13.3965 19.6342 13.4026 20.3869C13.4026 21.1457 12.9743 21.8433 12.2032 22.3634C11.3465 22.9386 10.2206 23.2262 9.09468 23.2262C7.96874 23.2262 6.8428 22.9386 5.98611 22.3634C5.21509 21.8494 4.78675 21.1518 4.78675 20.3991C4.78675 19.6464 5.21509 18.9427 5.99223 18.4226ZM9.09338 10.9885C7.49014 10.9885 6.18675 12.2919 6.18675 13.8951C6.18675 15.4678 7.41671 16.7406 9.01995 16.7957C9.0689 16.7895 9.11786 16.7895 9.15457 16.7957H9.18517H9.19741C10.7639 16.7406 11.9939 15.4678 12 13.8951C12 12.2919 10.6966 10.9885 9.09338 10.9885ZM1.39753 9.85808C0.773609 9.85808 0.267822 10.3639 0.267822 10.9878V18.8958C0.267822 22.0154 2.79675 24.5443 5.91635 24.5443H15.5188C18.9503 24.5443 21.7322 21.7625 21.7322 18.3309V10.9878C21.7322 10.3639 21.2264 9.85808 20.6024 9.85808H1.39753Z" fill="#171717"/>
</svg>
