<svg width="36" height="37" viewBox="0 0 36 37" fill="none" xmlns="http://www.w3.org/2000/svg">
<path d="M28.1717 31.2L25.3297 34.057C24.5518 34.8348 23.2654 34.8348 22.4577 34.057L20.0942 31.6786C19.3164 30.8858 19.3164 29.6144 20.0942 28.8066L22.9513 25.9795L28.1717 31.2Z" fill="#171717"/>
<path d="M33.8709 25.5158L29.6676 29.7041L24.4471 24.4836L28.6355 20.2654C29.4283 19.4875 30.7147 19.4875 31.5075 20.2654L33.8709 22.6438C34.6487 23.4365 34.6487 24.7379 33.8709 25.5158Z" fill="#171717"/>
<path d="M10.6382 3.27269C11.1906 3.22547 11.6428 3.67902 11.6428 4.23348V10.9037C11.6428 11.456 11.1951 11.9037 10.6428 11.9037H4.04175C3.48946 11.9037 3.03683 11.4551 3.08014 10.9045C3.43183 6.43284 6.18329 3.65346 10.6382 3.27269Z" fill="#171717"/>
<path d="M31.3578 11.9037H25.3573C24.805 11.9037 24.3573 11.456 24.3573 10.9037V4.23415C24.3573 3.67944 24.8106 3.22581 25.3632 3.2735C29.5881 3.63811 32.2843 6.15983 32.8536 10.2284C32.9733 11.1109 32.2553 11.9037 31.3578 11.9037Z" fill="#171717"/>
<path d="M10.6428 24.6183C11.1951 24.6183 11.6428 25.066 11.6428 25.6183V31.529C11.6428 32.4265 10.85 33.1445 9.9525 33.0249C5.94649 32.4288 3.48192 29.7775 3.09444 25.6304C3.04261 25.0756 3.49725 24.6183 4.05449 24.6183H10.6428Z" fill="#171717"/>
<path d="M11.6428 15.1475C11.6428 14.5952 11.1951 14.1475 10.6428 14.1475H4.04175C3.48946 14.1475 3.04175 14.5952 3.04175 15.1475V21.3745C3.04175 21.9268 3.48946 22.3745 4.04175 22.3745H10.6428C11.1951 22.3745 11.6428 21.9268 11.6428 21.3745V15.1475Z" fill="#171717"/>
<path d="M22.1136 15.1475C22.1136 14.5952 21.6658 14.1475 21.1136 14.1475H14.8865C14.3342 14.1475 13.8865 14.5952 13.8865 15.1475V21.3745C13.8865 21.9268 14.3342 22.3745 14.8865 22.3745H20.6177C21.4404 22.3745 22.1136 21.7014 22.1136 20.8787V15.1475Z" fill="#171717"/>
<path d="M22.1136 4.2279C22.1136 3.67562 21.6658 3.22791 21.1136 3.22791H14.8865C14.3342 3.22791 13.8865 3.67562 13.8865 4.22791V10.9037C13.8865 11.456 14.3342 11.9037 14.8865 11.9037H21.1136C21.6658 11.9037 22.1136 11.456 22.1136 10.9037V4.2279Z" fill="#171717"/>
</svg>
