<?xml version="1.0" standalone="no"?>
<!DOCTYPE svg PUBLIC "-//W3C//DTD SVG 20010904//EN"
 "http://www.w3.org/TR/2001/REC-SVG-20010904/DTD/svg10.dtd">
<svg version="1.0" xmlns="http://www.w3.org/2000/svg"
 width="512.000000pt" height="512.000000pt" viewBox="0 0 512.000000 512.000000"
 preserveAspectRatio="xMidYMid meet">

<g transform="translate(0.000000,512.000000) scale(0.100000,-0.100000)"
fill="#000000" stroke="none">
<path d="M2111 4581 c-428 -131 -451 -141 -451 -192 0 -46 39 -65 273 -135
l227 -69 0 -221 c0 -216 -1 -222 -24 -265 -115 -206 -43 -491 157 -620 114
-74 266 -99 393 -65 291 77 443 427 298 685 -23 43 -24 49 -24 265 l0 221 172
52 c94 29 175 50 180 47 4 -3 8 -81 8 -174 0 -161 -1 -170 -22 -190 -12 -11
-25 -20 -30 -20 -16 0 -57 -76 -64 -116 -16 -107 74 -214 181 -214 111 0 191
88 183 201 -5 63 -39 121 -84 141 l-24 11 0 243 c0 238 0 243 -22 268 -19 20
-103 49 -438 150 -228 69 -429 126 -445 125 -17 0 -216 -58 -444 -128z m310
-476 c63 -19 125 -35 139 -35 14 0 76 16 139 35 62 19 115 35 117 35 2 0 4
-56 4 -125 0 -96 -3 -125 -13 -125 -7 0 -17 4 -23 9 -26 26 -142 54 -224 54
-82 0 -198 -28 -224 -54 -6 -5 -16 -9 -23 -9 -10 0 -13 29 -13 125 0 69 2 125
4 125 2 0 55 -16 117 -35z"/>
<path d="M2365 2834 c-218 -38 -418 -141 -583 -298 -145 -139 -234 -279 -296
-466 -46 -140 -58 -232 -54 -435 l3 -170 148 -3 147 -3 0 281 c0 310 3 326 63
388 46 47 107 62 259 62 l128 0 0 70 c0 104 33 161 113 195 53 22 481 22 534
0 80 -34 113 -91 113 -195 l0 -70 128 0 c152 0 213 -15 259 -62 60 -62 63 -78
63 -388 l0 -281 148 3 147 3 3 175 c4 258 -31 425 -130 610 -105 198 -295 384
-493 483 -203 101 -475 141 -700 101z"/>
<path d="M2326 2304 c-3 -9 -6 -38 -6 -65 l0 -49 240 0 240 0 0 49 c0 87 16
81 -240 81 -199 0 -229 -2 -234 -16z"/>
<path d="M1885 2016 c-11 -16 -15 -41 -13 -76 l3 -52 297 -159 c164 -87 302
-159 308 -159 5 0 10 14 10 30 0 38 32 70 70 70 38 0 70 -32 70 -70 0 -18 5
-30 13 -30 6 1 145 72 307 160 l295 158 3 52 c2 35 -2 60 -13 76 l-15 24 -660
0 -660 0 -15 -24z"/>
<path d="M1870 1576 l0 -144 97 -33 c213 -74 399 -212 541 -404 24 -33 47 -60
52 -60 4 0 35 37 69 82 136 181 329 318 554 392 l67 23 0 145 c0 112 -3 144
-13 141 -7 -2 -136 -69 -287 -149 -151 -81 -285 -150 -297 -154 -19 -5 -23
-13 -23 -51 0 -53 -26 -84 -70 -84 -44 0 -70 31 -70 83 0 41 -2 45 -37 59 -21
8 -157 78 -302 156 -145 78 -268 142 -273 142 -4 0 -8 -65 -8 -144z"/>
<path d="M332 1163 l3 -158 700 -5 700 -5 73 -27 c229 -83 395 -272 442 -500
l11 -58 299 0 299 0 11 57 c47 229 214 418 443 502 l72 26 700 5 700 5 3 158
3 157 -668 0 c-396 0 -696 -5 -738 -11 -311 -44 -590 -245 -737 -529 -60 -115
-117 -115 -177 0 -129 252 -351 430 -636 511 -80 23 -84 23 -793 27 l-713 3 3
-158z"/>
</g>
</svg>
