<?xml version="1.0" standalone="no"?>
<!DOCTYPE svg PUBLIC "-//W3C//DTD SVG 20010904//EN"
 "http://www.w3.org/TR/2001/REC-SVG-20010904/DTD/svg10.dtd">
<svg version="1.0" xmlns="http://www.w3.org/2000/svg"
 width="64.000000pt" height="64.000000pt" viewBox="0 0 64.000000 64.000000"
 preserveAspectRatio="xMidYMid meet">

<g transform="translate(0.000000,64.000000) scale(0.100000,-0.100000)"
fill="#000000" stroke="none">
<path d="M245 631 c-92 -24 -173 -90 -215 -176 -34 -72 -34 -198 0 -270 31
-64 91 -124 155 -155 72 -34 198 -34 270 0 64 31 124 91 155 155 34 72 34 198
0 270 -31 64 -92 124 -154 153 -53 25 -160 37 -211 23z m269 -180 c10 -11 15
-27 12 -38 -3 -10 -57 -69 -120 -132 -97 -97 -117 -113 -138 -108 -29 8 -158
138 -158 160 0 21 27 47 49 47 9 0 37 -20 61 -45 24 -25 49 -45 55 -45 6 0 51
41 100 90 49 50 97 90 106 90 9 0 24 -9 33 -19z"/>
</g>
</svg>
