<svg width="30" height="29" viewBox="0 0 30 29" fill="none" xmlns="http://www.w3.org/2000/svg">
<path d="M15.9782 23.691C16.2446 23.753 16.2702 24.1048 16.0114 24.1933C15.9534 24.2131 15.8949 24.2329 15.8356 24.2526L13.9763 24.8645C9.30448 26.3708 6.84502 25.1117 5.32698 20.4399L3.8207 15.7916C2.31442 11.1198 3.56181 8.64855 8.23362 7.14227L9.47196 6.73217C9.69952 6.65681 9.9159 6.88305 9.84094 7.11074C9.70276 7.5304 9.5774 7.98808 9.45747 8.4838L8.30422 13.4145C7.00977 18.9571 8.90438 22.0167 14.447 23.3347L15.9782 23.691Z" fill="#171717"/>
<path d="M21.0838 3.94146L19.1186 3.48252C15.1881 2.55287 12.8464 3.31777 11.4695 6.16557C11.1165 6.88341 10.8341 7.75422 10.5987 8.75448L9.44546 13.6852C8.29222 18.6041 9.81026 21.0283 14.7174 22.1933L16.6944 22.664C17.3769 22.8287 18.0124 22.9347 18.6008 22.9817C22.2723 23.3348 24.2258 21.6167 25.2143 17.3685L26.3675 12.4496C27.5208 7.53064 26.0145 5.09471 21.0838 3.94146ZM18.8715 15.8505C18.7655 16.2506 18.4125 16.5094 18.0124 16.5094C17.9418 16.5094 17.8712 16.4977 17.7888 16.4859L14.3644 15.6151C13.8937 15.4974 13.6113 15.0149 13.7289 14.5442C13.8466 14.0735 14.3291 13.7911 14.7998 13.9088L18.2242 14.7796C18.7067 14.8973 18.9891 15.3797 18.8715 15.8505ZM22.3194 11.8729C22.2135 12.273 21.8605 12.5319 21.4604 12.5319C21.3898 12.5319 21.3191 12.5202 21.2368 12.5084L15.5294 11.061C15.0587 10.9433 14.7763 10.4608 14.8939 9.9901C15.0116 9.51939 15.4941 9.23696 15.9648 9.35464L21.6722 10.8021C22.1547 10.908 22.4371 11.3905 22.3194 11.8729Z" fill="#171717"/>
</svg>
