<svg width="30" height="30" viewBox="0 0 30 30" fill="none" xmlns="http://www.w3.org/2000/svg">
<path d="M21.5077 10.0636C21.4253 10.0518 21.343 10.0518 21.2606 10.0636C19.4366 10.0047 17.9891 8.51022 17.9891 6.67445C17.9891 4.80337 19.5072 3.27356 21.39 3.27356C23.2611 3.27356 24.7909 4.7916 24.7909 6.67445C24.7791 8.51022 23.3317 10.0047 21.5077 10.0636Z" fill="#171717"/>
<path d="M25.3437 18.2187C24.0257 19.1013 22.1781 19.4308 20.4718 19.2072C20.919 18.2422 21.1543 17.1713 21.1661 16.0416C21.1661 14.8649 20.9072 13.7469 20.413 12.7702C22.1546 12.5348 24.0021 12.8643 25.3319 13.7469C27.1912 14.9708 27.1912 16.9831 25.3437 18.2187Z" fill="#171717"/>
<path d="M8.45711 10.0636C8.53949 10.0518 8.62186 10.0518 8.70423 10.0636C10.5282 10.0047 11.9757 8.51022 11.9757 6.67445C11.9757 4.7916 10.4576 3.27356 8.57479 3.27356C6.70371 3.27356 5.18567 4.7916 5.18567 6.67445C5.18567 8.51022 6.63311 10.0047 8.45711 10.0636Z" fill="#171717"/>
<path d="M8.58654 16.0415C8.58654 17.183 8.83366 18.2656 9.28084 19.2423C7.62158 19.4188 5.89172 19.0658 4.6208 18.2303C2.76149 16.9947 2.76149 14.9824 4.6208 13.7468C5.87995 12.8995 7.65689 12.5582 9.32791 12.7465C8.84543 13.735 8.58654 14.8529 8.58654 16.0415Z" fill="#171717"/>
<path d="M15.1412 19.5953C15.047 19.5836 14.9411 19.5836 14.8352 19.5953C12.6699 19.5247 10.9401 17.7478 10.9401 15.559C10.9518 13.3231 12.7523 11.5109 14.9999 11.5109C17.2358 11.5109 19.0481 13.3231 19.0481 15.559C19.0363 17.7478 17.3182 19.5247 15.1412 19.5953Z" fill="#171717"/>
<path d="M11.3168 22.0313C9.5399 23.2199 9.5399 25.1733 11.3168 26.3501C13.3409 27.7034 16.6594 27.7034 18.6835 26.3501C20.4604 25.1616 20.4604 23.2081 18.6835 22.0313C16.6712 20.678 13.3527 20.678 11.3168 22.0313Z" fill="#171717"/>
</svg>
