<?xml version="1.0" standalone="no"?>
<!DOCTYPE svg PUBLIC "-//W3C//DTD SVG 20010904//EN"
 "http://www.w3.org/TR/2001/REC-SVG-20010904/DTD/svg10.dtd">
<svg version="1.0" xmlns="http://www.w3.org/2000/svg"
 width="512.000000pt" height="512.000000pt" viewBox="0 0 512.000000 512.000000"
 preserveAspectRatio="xMidYMid meet">

<g transform="translate(0.000000,512.000000) scale(0.100000,-0.100000)"
fill="#000000" stroke="none">
<path d="M2255 4946 c-72 -33 -95 -83 -95 -212 l0 -94 -776 0 c-581 0 -787 -3
-818 -12 -55 -16 -138 -99 -154 -154 -9 -32 -12 -340 -12 -1297 l0 -1255 -70
-4 c-74 -4 -105 -19 -144 -72 -19 -25 -21 -42 -21 -165 0 -136 0 -138 29 -175
51 -68 31 -66 691 -66 327 0 595 -2 595 -5 0 -3 -99 -269 -220 -592 -121 -322
-220 -597 -220 -610 0 -13 11 -35 25 -48 l24 -25 228 0 c185 0 233 3 249 15
15 10 49 88 105 240 l84 225 805 0 805 0 84 -225 c56 -152 90 -230 105 -240
16 -12 64 -15 249 -15 l228 0 24 25 c14 13 25 35 25 48 0 13 -99 288 -220 610
-121 323 -220 589 -220 592 0 2 274 6 609 7 598 3 610 3 637 24 62 45 69 65
72 198 4 143 -6 178 -63 222 -31 23 -50 29 -106 32 l-69 4 0 1255 c0 957 -3
1265 -12 1297 -16 55 -99 138 -154 154 -31 9 -237 12 -818 12 l-776 0 0 95 c0
113 -13 151 -66 191 l-37 29 -286 2 c-223 2 -293 0 -316 -11z m545 -226 l0
-80 -240 0 -240 0 0 80 0 80 240 0 240 0 0 -80z m1255 -745 c16 -15 25 -36 25
-55 0 -19 -9 -40 -25 -55 l-24 -25 -831 0 -831 0 -24 25 c-16 15 -25 36 -25
55 0 19 9 40 25 55 l24 25 831 0 831 0 24 -25z m-2400 -80 c17 -16 25 -35 25
-57 0 -29 -23 -56 -223 -255 -275 -276 -247 -267 -394 -120 -88 88 -103 108
-103 135 0 43 38 82 80 82 25 0 45 -13 96 -62 l65 -62 182 182 c162 161 187
182 216 182 21 0 41 -9 56 -25z m1840 -320 c16 -15 25 -36 25 -55 0 -19 -9
-40 -25 -55 l-24 -25 -551 0 -551 0 -24 25 c-16 15 -25 36 -25 55 0 19 9 40
25 55 l24 25 551 0 551 0 24 -25z m560 -640 c16 -15 25 -36 25 -55 0 -19 -9
-40 -25 -55 l-24 -25 -831 0 -831 0 -24 25 c-16 15 -25 36 -25 55 0 19 9 40
25 55 l24 25 831 0 831 0 24 -25z m-2400 -80 c17 -16 25 -35 25 -57 0 -29 -23
-56 -223 -255 -275 -276 -247 -267 -394 -120 -88 88 -103 108 -103 135 0 43
38 82 80 82 25 0 45 -13 96 -62 l65 -62 182 182 c162 161 187 182 216 182 21
0 41 -9 56 -25z m1840 -320 c16 -15 25 -36 25 -55 0 -19 -9 -40 -25 -55 l-24
-25 -551 0 -551 0 -24 25 c-16 15 -25 36 -25 55 0 19 9 40 25 55 l24 25 551 0
551 0 24 -25z m1305 -855 l0 -80 -2240 0 -2240 0 0 80 0 80 2240 0 2240 0 0
-80z m-2920 -247 c0 -3 -93 -255 -207 -560 l-208 -553 -112 0 c-62 0 -113 3
-113 7 0 3 93 255 207 560 l208 553 112 0 c62 0 113 -3 113 -7z m1239 -141
c30 -81 56 -153 59 -159 3 -10 -125 -13 -618 -13 -493 0 -621 3 -618 13 3 6
29 78 59 159 l54 148 505 0 505 0 54 -148z m554 -405 c114 -305 207 -557 207
-560 0 -4 -51 -7 -113 -7 l-112 0 -208 553 c-114 305 -207 557 -207 560 0 4
51 7 113 7 l112 0 208 -553z"/>
</g>
</svg>
