<svg width="30" height="30" viewBox="0 0 30 30" fill="none" xmlns="http://www.w3.org/2000/svg">
<path d="M20.6836 19.3708C21.4721 18.853 22.5076 19.4178 22.5076 20.3593V21.8773C22.5076 23.3718 21.3426 24.9722 19.9423 25.4429L16.1883 26.6903C15.5293 26.9139 14.4585 26.9139 13.8112 26.6903L10.0573 25.4429C8.64519 24.9722 7.49194 23.3718 7.49194 21.8773V20.3475C7.49194 19.4178 8.52751 18.853 9.30418 19.359L11.7283 20.9359C12.658 21.5596 13.8348 21.8655 15.0116 21.8655C16.1883 21.8655 17.3651 21.5596 18.2948 20.9359L20.6836 19.3708Z" fill="#171717"/>
<path d="M24.3905 8.5679L17.3416 3.94316C16.0707 3.10765 13.976 3.10765 12.7051 3.94316L5.62087 8.5679C3.34969 10.0389 3.34969 13.3692 5.62087 14.8519L7.50371 16.0757L12.7051 19.4649C13.976 20.3004 16.0707 20.3004 17.3416 19.4649L22.5076 16.0757L24.1198 15.0166V18.6176C24.1198 19.1001 24.5199 19.5002 25.0024 19.5002C25.4849 19.5002 25.885 19.1001 25.885 18.6176V12.8278C26.3557 11.3098 25.8732 9.54462 24.3905 8.5679Z" fill="#171717"/>
</svg>
