<svg width="30" height="30" viewBox="0 0 30 30" fill="none" xmlns="http://www.w3.org/2000/svg">
<path d="M20.6839 19.2681C21.4723 18.7503 22.5079 19.3151 22.5079 20.2565V21.7746C22.5079 23.2691 21.3429 24.8695 19.9425 25.3402L16.1886 26.5876C15.5296 26.8112 14.4587 26.8112 13.8115 26.5876L10.0576 25.3402C8.64543 24.8695 7.49219 23.2691 7.49219 21.7746V20.2448C7.49219 19.3151 8.52775 18.7503 9.30443 19.2563L11.7286 20.8332C12.6582 21.4569 13.835 21.7628 15.0118 21.7628C16.1886 21.7628 17.3654 21.4569 18.295 20.8332L20.6839 19.2681Z" fill="#171717"/>
<path d="M24.391 8.46518L17.3421 3.84044C16.0711 3.00493 13.9765 3.00493 12.7056 3.84044L5.62135 8.46518C3.35017 9.93615 3.35017 13.2664 5.62135 14.7492L7.5042 15.973L12.7056 19.3621C13.9765 20.1977 16.0711 20.1977 17.3421 19.3621L22.5081 15.973L24.1203 14.9139V18.5149C24.1203 18.9973 24.5204 19.3974 25.0029 19.3974C25.4854 19.3974 25.8855 18.9973 25.8855 18.5149V12.7251C26.3562 11.2071 25.8737 9.4419 24.391 8.46518Z" fill="#171717"/>
</svg>
