<svg width="30" height="29" viewBox="0 0 30 29" fill="none" xmlns="http://www.w3.org/2000/svg">
<path d="M25.6974 8.74564C24.6973 7.63957 23.0382 7.08654 20.6025 7.08654H20.3201V7.03947C20.3201 5.06267 20.3201 2.6152 15.8958 2.6152H14.1073C9.68301 2.6152 9.68301 5.06267 9.68301 7.03947V7.08654H9.40061C6.96491 7.08654 5.29404 7.63957 4.30564 8.74564C3.14074 10.0517 3.17604 11.7814 3.29371 12.9699L3.30548 13.0522L3.39046 14.0437C3.40366 14.1977 3.48722 14.3369 3.6169 14.4209C3.96119 14.6439 4.32983 14.8804 4.68218 15.0761C4.84691 15.182 5.02341 15.2761 5.19991 15.3703C6.52954 16.0998 7.95331 16.6764 9.41238 17.0764C9.44768 20.124 11.9422 22.595 15.0015 22.595C18.0844 22.595 20.5907 20.0887 20.5907 17.0058V16.9588C22.0733 16.5116 23.4971 15.888 24.8267 15.1114C24.8973 15.0761 24.9444 15.0408 25.0032 15.0055C25.4789 14.747 25.9729 14.4066 26.421 14.0883C26.5372 14.0057 26.6123 13.8772 26.6276 13.7355L26.7094 12.9816C26.7211 12.911 26.7211 12.8522 26.7329 12.7698C26.827 11.5932 26.8035 9.96937 25.6974 8.74564ZM11.3656 7.03947C11.3656 5.03914 11.3656 4.28607 14.1073 4.28607H15.8958C18.6374 4.28607 18.6374 5.03914 18.6374 7.03947V7.08654H11.3656V7.03947ZM15.0015 20.83C13.06 20.83 11.448 19.3709 11.2127 17.4883C11.1891 17.3353 11.1774 17.1706 11.1774 17.0058C11.1774 14.8996 12.8953 13.1817 15.0015 13.1817C17.1078 13.1817 18.8257 14.8996 18.8257 17.0058C18.8257 17.147 18.8139 17.2765 18.8022 17.4059V17.4177C18.5904 19.3356 16.9666 20.83 15.0015 20.83Z" fill="#171717"/>
<path d="M14.3296 19.3945C14.106 19.3945 13.8825 19.3121 13.706 19.1356L12.5411 17.9825C12.1998 17.6412 12.1998 17.0764 12.5411 16.7352C12.8823 16.394 13.4471 16.394 13.7883 16.7352L14.3531 17.3L16.2476 15.5585C16.6006 15.2291 17.1654 15.2526 17.4948 15.6056C17.8243 15.9586 17.8008 16.5234 17.4478 16.8529L14.9415 19.1709C14.7532 19.3121 14.5414 19.3945 14.3296 19.3945Z" fill="#171717"/>
<path d="M25.6403 16.6894C25.933 16.5268 26.3127 16.7624 26.2822 17.0958L25.8639 21.6667C25.6168 24.02 24.6519 26.4204 19.4746 26.4204H10.5084C5.33107 26.4204 4.3662 24.02 4.13087 21.6785L3.7239 17.3209C3.6923 16.9826 4.05414 16.754 4.35444 16.913C5.27224 17.4189 6.22534 17.8661 7.20197 18.2191C7.56674 18.3485 7.8256 18.6544 7.9315 19.031C8.814 22.0903 11.6615 24.3613 15.0033 24.3613C18.4038 24.3613 21.2749 22.0432 22.1103 18.8662C22.2045 18.4897 22.4633 18.1838 22.8281 18.0426C23.8165 17.6543 24.7578 17.1954 25.6403 16.6894Z" fill="#171717"/>
</svg>
