<svg width="30" height="30" viewBox="0 0 30 30" fill="none" xmlns="http://www.w3.org/2000/svg">
<path d="M10.5877 7.67575C10.1052 7.67575 9.70508 7.27564 9.70508 6.79317V3.26283C9.70508 2.78035 10.1052 2.38025 10.5877 2.38025C11.0701 2.38025 11.4702 2.78035 11.4702 3.26283V6.79317C11.4702 7.27564 11.0701 7.67575 10.5877 7.67575Z" fill="#171717"/>
<path d="M19.4138 7.67575C18.9314 7.67575 18.5312 7.27564 18.5312 6.79317V3.26283C18.5312 2.78035 18.9314 2.38025 19.4138 2.38025C19.8963 2.38025 20.2964 2.78035 20.2964 3.26283V6.79317C20.2964 7.27564 19.8963 7.67575 19.4138 7.67575Z" fill="#171717"/>
<path d="M15.0005 17.49C15.6124 17.49 16.0596 17.1252 16.0596 16.5486C16.0596 15.9602 15.6124 15.619 15.0005 15.619C14.3886 15.619 13.9414 15.9602 13.9414 16.5486C13.9414 17.1252 14.3886 17.49 15.0005 17.49Z" fill="#171717"/>
<path d="M14.9997 20.9145C15.7406 20.9145 16.3413 20.4245 16.3413 19.82C16.3413 19.2156 15.7406 18.7256 14.9997 18.7256C14.2588 18.7256 13.6582 19.2156 13.6582 19.82C13.6582 20.4245 14.2588 20.9145 14.9997 20.9145Z" fill="#171717"/>
<path d="M23.9079 6.20473C23.1312 5.62811 22.0133 6.1812 22.0133 7.15792V7.2756C22.0133 8.65243 21.0248 9.92335 19.648 10.0646C18.0593 10.2293 16.7178 8.98193 16.7178 7.42858V6.20473C16.7178 5.5575 16.1882 5.02795 15.541 5.02795H14.4584C13.8112 5.02795 13.2816 5.5575 13.2816 6.20473V7.42858C13.2816 8.35823 12.7991 9.18198 12.0695 9.64092C11.9636 9.71153 11.8459 9.77037 11.7283 9.82921C11.6223 9.88805 11.5047 9.93512 11.3752 9.97042C11.234 10.0175 11.081 10.0528 10.9163 10.0646C10.728 10.0881 10.5397 10.0881 10.3514 10.0646C10.1867 10.0528 10.0337 10.0175 9.89249 9.97042C9.77481 9.93512 9.65713 9.88805 9.53945 9.82921C9.42178 9.77037 9.3041 9.71153 9.19819 9.64092C8.45682 9.12314 7.98611 8.22879 7.98611 7.2756V7.15792C7.98611 6.2518 7.02115 5.71048 6.25624 6.09882C6.24448 6.11059 6.23271 6.11059 6.22094 6.12236C6.17387 6.14589 6.13856 6.16943 6.09149 6.20473C6.05619 6.24004 6.00912 6.26357 5.97382 6.29887C5.64432 6.55776 5.35012 6.85196 5.103 7.16969C4.97355 7.3109 4.86764 7.46388 4.7735 7.61686C4.76173 7.62863 4.74997 7.6404 4.7382 7.66394C4.63229 7.81692 4.53815 7.99343 4.45577 8.15818C4.43224 8.18172 4.42047 8.19349 4.42047 8.21702C4.34986 8.35823 4.27926 8.49945 4.23218 8.65243C4.19688 8.71127 4.18511 8.75834 4.16158 8.81718C4.09097 8.99369 4.0439 9.17021 3.99683 9.34673C3.94976 9.51148 3.91445 9.68799 3.89092 9.86451C3.86738 9.99396 3.85562 10.1234 3.84385 10.2646C3.83208 10.4294 3.82031 10.5941 3.82031 10.7589V21.0674C3.82031 24.233 6.38569 26.7983 9.55122 26.7983H20.4482C23.6137 26.7983 26.1791 24.233 26.1791 21.0674V10.7589C26.1791 8.88778 25.2847 7.25206 23.9079 6.20473ZM14.9997 22.3854C13.1757 22.3854 12.0578 21.4793 12.0578 20.0201C12.0578 19.2199 12.4696 18.5256 13.1875 18.1137C12.6697 17.7489 12.3284 17.2076 12.3284 16.4662C12.3284 14.9364 13.5523 14.148 14.9997 14.148C16.4471 14.148 17.6592 14.9364 17.6592 16.4662C17.6592 17.2076 17.3297 17.7489 16.8002 18.1137C17.5298 18.5256 17.9416 19.2199 17.9416 20.0201C17.9416 21.4793 16.8119 22.3854 14.9997 22.3854Z" fill="#171717"/>
</svg>
