<svg width="30" height="29" viewBox="0 0 30 29" fill="none" xmlns="http://www.w3.org/2000/svg">
<path d="M22.8482 3.07727H20.6122C18.0467 3.07727 16.6934 4.43064 16.6934 6.99616V9.23216C16.6934 11.7977 18.0467 13.151 20.6122 13.151H22.8482C25.4138 13.151 26.7671 11.7977 26.7671 9.23216V6.99616C26.7671 4.43064 25.4138 3.07727 22.8482 3.07727Z" fill="#171717"/>
<path d="M9.39712 16.5287H7.16112C4.58384 16.5287 3.23047 17.8821 3.23047 20.4476V22.6836C3.23047 25.2609 4.58384 26.6142 7.14935 26.6142H9.38535C11.9509 26.6142 13.3042 25.2609 13.3042 22.6953V20.4593C13.316 17.8821 11.9626 16.5287 9.39712 16.5287Z" fill="#171717"/>
<path d="M8.27912 13.1746C11.0674 13.1746 13.3278 10.9142 13.3278 8.12592C13.3278 5.33763 11.0674 3.07727 8.27912 3.07727C5.49083 3.07727 3.23047 5.33763 3.23047 8.12592C3.23047 10.9142 5.49083 13.1746 8.27912 13.1746Z" fill="#171717"/>
<path d="M21.7186 26.6142C24.5069 26.6142 26.7672 24.3538 26.7672 21.5655C26.7672 18.7772 24.5069 16.5168 21.7186 16.5168C18.9303 16.5168 16.6699 18.7772 16.6699 21.5655C16.6699 24.3538 18.9303 26.6142 21.7186 26.6142Z" fill="#171717"/>
</svg>
