<svg width="30" height="29" viewBox="0 0 30 29" fill="none" xmlns="http://www.w3.org/2000/svg">
<path d="M26.768 5.86068V19.8526C26.768 20.994 25.8384 22.0414 24.6969 22.1826L24.3321 22.2297C22.4022 22.4885 19.6838 23.2888 17.495 24.2066C16.7301 24.5244 15.8828 23.9477 15.8828 23.1122V6.74326C15.8828 6.30785 16.1299 5.90775 16.5183 5.69593C18.6718 4.53092 21.9314 3.49535 24.1438 3.30707H24.2144C25.6265 3.30707 26.768 4.44854 26.768 5.86068Z" fill="#171717"/>
<path d="M13.4822 5.69593C11.3287 4.53092 8.06903 3.49535 5.85668 3.30707H5.77431C4.36218 3.30707 3.2207 4.44854 3.2207 5.86068V19.8526C3.2207 20.994 4.15036 22.0414 5.29183 22.1826L5.65663 22.2297C7.58655 22.4885 10.3049 23.2888 12.4937 24.2066C13.2586 24.5244 14.1059 23.9477 14.1059 23.1122V6.74326C14.1059 6.29608 13.8705 5.90775 13.4822 5.69593ZM6.7628 9.26156H9.41055C9.89303 9.26156 10.2931 9.66167 10.2931 10.1441C10.2931 10.6384 9.89303 11.0267 9.41055 11.0267H6.7628C6.28032 11.0267 5.88022 10.6384 5.88022 10.1441C5.88022 9.66167 6.28032 9.26156 6.7628 9.26156ZM10.2931 14.5571H6.7628C6.28032 14.5571 5.88022 14.1687 5.88022 13.6745C5.88022 13.192 6.28032 12.7919 6.7628 12.7919H10.2931C10.7756 12.7919 11.1757 13.192 11.1757 13.6745C11.1757 14.1687 10.7756 14.5571 10.2931 14.5571Z" fill="#171717"/>
</svg>
