<svg width="36" height="37" viewBox="0 0 36 37" fill="none" xmlns="http://www.w3.org/2000/svg">
<path d="M26.6906 9.01072V10.1178L21.3946 7.05091C19.3899 5.89896 16.5923 5.89896 14.6026 7.05091L9.30664 10.1327V9.01072C9.30664 5.64463 11.1468 3.78955 14.5128 3.78955H21.4844C24.8505 3.78955 26.6906 5.64463 26.6906 9.01072Z" fill="#171717"/>
<path d="M26.7374 12.7209L26.5279 12.6161L24.4933 11.4492L20.2745 9.01069C18.9879 8.26267 17.0131 8.26267 15.7266 9.01069L11.5077 11.4343L9.47312 12.6311L9.20384 12.7657C6.58577 14.5311 6.40625 14.8602 6.40625 17.6877V24.4498C6.40625 27.2773 6.58577 27.6064 9.26368 29.4166L15.7266 33.1417C16.3698 33.5307 17.1777 33.6953 18.0005 33.6953C18.8084 33.6953 19.6312 33.5158 20.2745 33.1417L26.7972 29.3717C29.4302 27.6064 29.5948 27.2922 29.5948 24.4498V17.6877C29.5948 14.8602 29.4153 14.5311 26.7374 12.7209ZM22.1745 20.9939L21.2619 22.116C21.1123 22.2805 21.0076 22.5947 21.0225 22.8191L21.1123 24.2553C21.1721 25.138 20.5438 25.5868 19.721 25.2726L18.3895 24.734C18.1801 24.6592 17.836 24.6592 17.6265 24.734L16.295 25.2576C15.4722 25.5868 14.8439 25.123 14.9037 24.2403L14.9935 22.8041C15.0085 22.5797 14.9037 22.2656 14.7541 22.101L13.8266 20.9939C13.2581 20.3207 13.5124 19.5727 14.3652 19.3483L15.7565 18.9892C15.9809 18.9294 16.2352 18.72 16.3549 18.5404L17.1328 17.3436C17.6116 16.5956 18.3745 16.5956 18.8682 17.3436L19.6462 18.5404C19.7658 18.7349 20.0351 18.9294 20.2446 18.9892L21.6359 19.3483C22.4886 19.5727 22.743 20.3207 22.1745 20.9939Z" fill="#171717"/>
</svg>
