<svg width="30" height="29" viewBox="0 0 30 29" fill="none" xmlns="http://www.w3.org/2000/svg">
<path d="M15.9773 23.5883C16.2437 23.6503 16.2692 24.0021 16.0104 24.0906C15.9525 24.1104 15.8939 24.1301 15.8346 24.1499L13.9753 24.7618C9.30351 26.2681 6.84404 25.0089 5.326 20.3371L3.81972 15.6889C2.31345 11.0171 3.56083 8.54582 8.23264 7.03955L9.47099 6.62945C9.69854 6.55409 9.91493 6.78033 9.83996 7.00801C9.70178 7.42767 9.57642 7.88536 9.45649 8.38108L8.30325 13.3118C7.00879 18.8544 8.9034 21.914 14.446 23.232L15.9773 23.5883Z" fill="#171717"/>
<path d="M21.0849 3.83868L19.1197 3.37974C15.1892 2.45008 12.8474 3.21499 11.4706 6.06279C11.1176 6.78062 10.8352 7.65144 10.5998 8.6517L9.44656 13.5824C8.29332 18.5013 9.81136 20.9255 14.7185 22.0905L16.6955 22.5612C17.378 22.726 18.0135 22.8319 18.6019 22.8789C22.2734 23.232 24.2269 21.5139 25.2154 17.2657L26.3686 12.3468C27.5219 7.42785 26.0156 4.99192 21.0849 3.83868ZM18.8726 15.7477C18.7666 16.1478 18.4136 16.4067 18.0135 16.4067C17.9429 16.4067 17.8723 16.3949 17.7899 16.3831L14.3655 15.5123C13.8948 15.3946 13.6124 14.9122 13.73 14.4414C13.8477 13.9707 14.3302 13.6883 14.8009 13.806L18.2253 14.6768C18.7078 14.7945 18.9902 15.277 18.8726 15.7477ZM22.3205 11.7702C22.2146 12.1703 21.8616 12.4292 21.4615 12.4292C21.3909 12.4292 21.3202 12.4174 21.2379 12.4056L15.5305 10.9582C15.0598 10.8405 14.7774 10.358 14.895 9.88732C15.0127 9.41661 15.4952 9.13418 15.9659 9.25186L21.6733 10.6993C22.1558 10.8052 22.4382 11.2877 22.3205 11.7702Z" fill="#171717"/>
</svg>
