<svg width="29" height="29" viewBox="0 0 29 29" fill="none" xmlns="http://www.w3.org/2000/svg">
<path d="M20.6279 9.14352C20.5456 9.13176 20.4632 9.13176 20.3808 9.14352C18.5568 9.08468 17.1094 7.59018 17.1094 5.7544C17.1094 3.88333 18.6274 2.35352 20.5103 2.35352C22.3813 2.35352 23.9111 3.87156 23.9111 5.7544C23.8994 7.59018 22.4519 9.08468 20.6279 9.14352Z" fill="#171717"/>
<path d="M24.4659 17.2986C23.1479 18.1812 21.3003 18.5107 19.594 18.2871C20.0412 17.3222 20.2765 16.2513 20.2883 15.1216C20.2883 13.9448 20.0294 12.8269 19.5352 11.8501C21.2768 11.6148 23.1243 11.9443 24.4541 12.8269C26.3134 14.0507 26.3134 16.063 24.4659 17.2986Z" fill="#171717"/>
<path d="M7.57808 9.14352C7.66046 9.13176 7.74283 9.13176 7.82521 9.14352C9.64921 9.08468 11.0966 7.59018 11.0966 5.7544C11.0966 3.87156 9.5786 2.35352 7.69576 2.35352C5.82468 2.35352 4.30664 3.87156 4.30664 5.7544C4.30664 7.59018 5.75408 9.08468 7.57808 9.14352Z" fill="#171717"/>
<path d="M7.70788 15.1216C7.70788 16.263 7.955 17.3457 8.40218 18.3224C6.74292 18.4989 5.01306 18.1459 3.74214 17.3104C1.88283 16.0748 1.88283 14.0625 3.74214 12.8268C5.00129 11.9796 6.77822 11.6383 8.44925 11.8266C7.96677 12.8151 7.70788 13.933 7.70788 15.1216Z" fill="#171717"/>
<path d="M14.2616 18.6754C14.1675 18.6636 14.0616 18.6636 13.9557 18.6754C11.7904 18.6048 10.0605 16.8279 10.0605 14.6391C10.0723 12.4032 11.8728 10.5909 14.1204 10.5909C16.3563 10.5909 18.1685 12.4032 18.1685 14.6391C18.1568 16.8279 16.4387 18.6048 14.2616 18.6754Z" fill="#171717"/>
<path d="M10.4382 21.1114C8.66124 22.3 8.66124 24.2534 10.4382 25.4302C12.4622 26.7835 15.7807 26.7835 17.8048 25.4302C19.5817 24.2416 19.5817 22.2882 17.8048 21.1114C15.7925 19.7581 12.474 19.7581 10.4382 21.1114Z" fill="#171717"/>
</svg>
