<?xml version="1.0" standalone="no"?>
<!DOCTYPE svg PUBLIC "-//W3C//DTD SVG 20010904//EN"
 "http://www.w3.org/TR/2001/REC-SVG-20010904/DTD/svg10.dtd">
<svg version="1.0" xmlns="http://www.w3.org/2000/svg"
 width="512.000000pt" height="512.000000pt" viewBox="0 0 512.000000 512.000000"
 preserveAspectRatio="xMidYMid meet">

<g transform="translate(0.000000,512.000000) scale(0.100000,-0.100000)"
fill="#000000" stroke="none">
<path d="M88 5099 c-23 -12 -46 -35 -58 -59 -18 -36 -20 -58 -20 -290 l0 -250
2150 0 2150 0 0 250 c0 232 -2 254 -20 290 -13 26 -34 47 -60 60 -39 20 -54
20 -2072 20 -2004 -1 -2034 -1 -2070 -21z"/>
<path d="M10 3800 l0 -400 425 0 425 0 0 400 0 400 -425 0 -425 0 0 -400z"/>
<path d="M1160 3800 l0 -400 425 0 425 0 0 400 0 400 -425 0 -425 0 0 -400z"/>
<path d="M2310 3800 l0 -400 425 0 425 0 0 400 0 400 -425 0 -425 0 0 -400z"/>
<path d="M3460 3800 l0 -400 425 0 425 0 0 400 0 400 -425 0 -425 0 0 -400z"/>
<path d="M10 2700 l0 -400 425 0 425 0 0 400 0 400 -425 0 -425 0 0 -400z"/>
<path d="M1160 2700 l0 -400 425 0 425 0 0 400 0 400 -425 0 -425 0 0 -400z"/>
<path d="M2310 2700 l0 -400 246 0 246 0 46 40 c73 65 168 114 270 140 l42 11
0 304 0 305 -425 0 -425 0 0 -400z"/>
<path d="M3460 2800 l0 -300 425 0 425 0 0 300 0 300 -425 0 -425 0 0 -300z"/>
<path d="M3179 2186 c-103 -28 -190 -103 -238 -205 l-26 -56 0 -825 0 -825 27
-57 c34 -74 112 -152 186 -186 l57 -27 825 0 825 0 67 33 c78 38 138 100 177
182 l26 55 0 825 0 825 -26 55 c-39 82 -99 144 -177 182 l-67 33 -805 2 c-617
1 -816 -1 -851 -11z m901 -456 c71 -36 80 -69 80 -290 l0 -190 190 0 c171 0
195 -2 230 -20 45 -23 80 -80 80 -130 0 -50 -35 -107 -80 -130 -37 -19 -58
-20 -321 -20 -273 0 -282 1 -321 22 -75 42 -78 58 -78 380 1 320 3 330 76 374
48 29 92 30 144 4z"/>
<path d="M10 1660 c0 -322 1 -343 20 -380 13 -26 34 -47 60 -60 37 -19 58 -20
405 -20 l365 0 0 400 0 400 -425 0 -425 0 0 -340z"/>
<path d="M1160 1600 l0 -400 425 0 425 0 0 400 0 400 -425 0 -425 0 0 -400z"/>
<path d="M2310 1600 l0 -400 149 0 150 0 4 378 c2 207 7 387 11 400 l8 22
-161 0 -161 0 0 -400z"/>
</g>
</svg>
