<svg width="30" height="29" viewBox="0 0 30 29" fill="none" xmlns="http://www.w3.org/2000/svg">
<path d="M24.6629 9.21761L15.6017 14.466C15.2369 14.6779 14.778 14.6779 14.4014 14.466L5.34021 9.21761C4.69298 8.84104 4.52823 7.95846 5.02248 7.40537C5.36374 7.01703 5.75208 6.6993 6.16395 6.47572L12.5421 2.94538C13.9071 2.18048 16.1195 2.18048 17.4846 2.94538L23.8627 6.47572C24.2746 6.6993 24.6629 7.0288 25.0042 7.40537C25.4749 7.95846 25.3101 8.84104 24.6629 9.21761Z" fill="#171717"/>
<path d="M14.3303 16.6549V24.6805C14.3303 25.5748 13.4241 26.1632 12.6239 25.7749C10.1998 24.5863 6.11635 22.3622 6.11635 22.3622C4.68068 21.5502 3.50391 19.5027 3.50391 17.8199V11.7477C3.50391 10.818 4.48063 10.2296 5.28084 10.6886L13.7419 15.5957C14.0949 15.8193 14.3303 16.2194 14.3303 16.6549Z" fill="#171717"/>
<path d="M15.6719 16.6549V24.6805C15.6719 25.5748 16.578 26.1632 17.3782 25.7749C19.8024 24.5863 23.8858 22.3622 23.8858 22.3622C25.3215 21.5502 26.4982 19.5027 26.4982 17.8199V11.7477C26.4982 10.818 25.5215 10.2296 24.7213 10.6886L16.2603 15.5957C15.9072 15.8193 15.6719 16.2194 15.6719 16.6549Z" fill="#171717"/>
</svg>
