<svg width="36" height="37" viewBox="0 0 36 37" fill="none" xmlns="http://www.w3.org/2000/svg">
<path d="M28.1726 31.0974L25.3305 33.9544C24.5527 34.7322 23.2663 34.7322 22.4585 33.9544L20.0951 31.576C19.3173 30.7832 19.3173 29.5118 20.0951 28.704L22.9521 25.8769L28.1726 31.0974Z" fill="#171717"/>
<path d="M33.871 25.4132L29.6677 29.6016L24.4473 24.3811L28.6356 20.1628C29.4284 19.385 30.7148 19.385 31.5076 20.1628L33.871 22.5412C34.6489 23.334 34.6489 24.6354 33.871 25.4132Z" fill="#171717"/>
<path d="M10.6394 3.17002C11.1918 3.1228 11.644 3.57636 11.644 4.13082V10.8011C11.644 11.3534 11.1963 11.8011 10.644 11.8011H4.04297C3.49068 11.8011 3.03805 11.3525 3.08136 10.8019C3.43305 6.33017 6.18451 3.5508 10.6394 3.17002Z" fill="#171717"/>
<path d="M31.3579 11.8011H25.3574C24.8051 11.8011 24.3574 11.3534 24.3574 10.8011V4.13149C24.3574 3.57677 24.8107 3.12314 25.3634 3.17084C29.5882 3.53544 32.2844 6.05717 32.8538 10.1257C32.9734 11.0083 32.2554 11.8011 31.3579 11.8011Z" fill="#171717"/>
<path d="M10.644 24.5157C11.1963 24.5157 11.644 24.9634 11.644 25.5157V31.4264C11.644 32.3239 10.8512 33.0419 9.95372 32.9223C5.94771 32.3262 3.48314 29.6749 3.09567 25.5278C3.04383 24.973 3.49847 24.5157 4.05571 24.5157H10.644Z" fill="#171717"/>
<path d="M11.644 15.0449C11.644 14.4926 11.1963 14.0449 10.644 14.0449H4.04297C3.49068 14.0449 3.04297 14.4926 3.04297 15.0449V21.2719C3.04297 21.8242 3.49068 22.2719 4.04297 22.2719H10.644C11.1963 22.2719 11.644 21.8242 11.644 21.2719V15.0449Z" fill="#171717"/>
<path d="M22.1138 15.0449C22.1138 14.4926 21.6661 14.0449 21.1138 14.0449H14.8867C14.3344 14.0449 13.8867 14.4926 13.8867 15.0449V21.2719C13.8867 21.8242 14.3344 22.2719 14.8867 22.2719H20.618C21.4407 22.2719 22.1138 21.5988 22.1138 20.7761V15.0449Z" fill="#171717"/>
<path d="M22.1138 4.12524C22.1138 3.57296 21.6661 3.12524 21.1138 3.12524H14.8867C14.3344 3.12524 13.8867 3.57296 13.8867 4.12524V10.8011C13.8867 11.3534 14.3344 11.8011 14.8867 11.8011H21.1138C21.6661 11.8011 22.1138 11.3534 22.1138 10.8011V4.12524Z" fill="#171717"/>
</svg>
