<svg width="135" height="161" viewBox="0 0 135 161" fill="none" xmlns="http://www.w3.org/2000/svg">
<path d="M117 151H2V2H80.63L117 33.8681V151Z" fill="white" stroke="black" stroke-width="4"/>
<path d="M83 23V4.38573L113.647 31H91C86.5817 31 83 27.4183 83 23Z" fill="white" stroke="black" stroke-width="4"/>
<path d="M32.68 77H23.624V53.352H32.872C36.424 53.352 39.208 54.408 41.224 56.552C43.24 58.664 44.264 61.544 44.264 65.224C44.264 68.84 43.24 71.72 41.16 73.832C39.112 75.944 36.296 77 32.68 77ZM28.36 57.896V72.456H32.904C34.952 72.456 36.52 71.752 37.64 70.376C38.76 69 39.336 67.24 39.336 65.128C39.336 63.048 38.76 61.352 37.64 59.976C36.52 58.6 34.952 57.896 32.904 57.896H28.36ZM59.161 77.384C55.673 77.384 52.729 76.232 50.393 73.896C48.057 71.56 46.873 68.68 46.873 65.256C46.873 61.832 48.057 58.92 50.425 56.52C52.825 54.12 55.737 52.936 59.193 52.936C62.649 52.936 65.561 54.12 67.929 56.52C70.329 58.92 71.513 61.8 71.513 65.192C71.513 68.584 70.329 71.464 67.929 73.832C65.561 76.2 62.649 77.384 59.161 77.384ZM66.585 65.192C66.585 63.016 65.881 61.224 64.441 59.784C63.001 58.344 61.273 57.608 59.193 57.608C57.113 57.608 55.385 58.344 53.945 59.784C52.505 61.224 51.801 63.048 51.801 65.192C51.801 67.336 52.505 69.128 53.913 70.568C55.353 72.008 57.113 72.712 59.193 72.712C61.273 72.712 63.033 72.008 64.473 70.568C65.913 69.128 66.617 67.336 66.585 65.192ZM86.19 77.352C82.766 77.352 79.854 76.232 77.518 73.992C75.182 71.72 74.03 68.808 74.03 65.256C74.03 61.672 75.214 58.728 77.582 56.424C79.982 54.088 82.862 52.936 86.254 52.936C90.51 52.936 94.35 54.888 96.43 57.832L93.262 60.936C91.406 58.664 89.166 57.512 86.51 57.512C84.366 57.512 82.574 58.248 81.134 59.72C79.694 61.16 78.958 63.016 78.958 65.256C78.958 67.432 79.662 69.224 81.102 70.664C82.542 72.104 84.334 72.808 86.478 72.808C89.23 72.808 91.534 71.656 93.358 69.352L96.622 72.328C94.446 75.304 90.574 77.352 86.19 77.352Z" fill="black"/>
<line y1="102" x2="119" y2="102" stroke="black" stroke-width="4"/>
<line x1="25" y1="125" x2="91" y2="125" stroke="black" stroke-width="4"/>
<circle cx="99.5" cy="126.5" r="33.5" fill="white"/>
<path d="M99.8905 98.5901C84.4841 98.9269 72.2538 111.704 72.5905 127.11C72.9273 142.517 85.7042 154.747 101.111 154.41C116.517 154.073 128.747 141.296 128.411 125.89C128.074 110.484 115.297 98.2534 99.8905 98.5901ZM110.355 126.369C109.945 126.796 109.419 127.003 108.889 127.015C108.358 127.026 107.824 126.843 107.396 126.433L102.491 121.738L102.807 136.223C102.832 137.367 101.904 138.337 100.76 138.362C99.6155 138.387 98.6458 137.459 98.6208 136.314L98.3042 121.829L93.6086 126.735C92.8169 127.562 91.4772 127.591 90.6501 126.799C89.823 126.008 89.7938 124.668 90.5855 123.841L98.7754 115.285C99.5671 114.458 100.907 114.428 101.734 115.22L110.29 123.41C111.117 124.202 111.146 125.541 110.355 126.369Z" fill="#F71A1A"/>
</svg>
