<svg width="133" height="160" viewBox="0 0 133 160" fill="none" xmlns="http://www.w3.org/2000/svg">
<path d="M117 151H2V2H80.63L117 33.8681V151Z" fill="white" stroke="black" stroke-width="4"/>
<path d="M83 23V4.38573L113.647 31H91C86.5817 31 83 27.4183 83 23Z" fill="white" stroke="black" stroke-width="4"/>
<path d="M26.696 77H21.128L28.712 65.032L21.64 53.352H27.112L31.72 61.448L36.552 53.352H42.12L34.664 65.032L42.088 77H36.616L31.688 68.712L26.696 77ZM61.7983 77H45.0303V53.352H49.7983V72.456H61.7983V77ZM71.818 77.384C69.962 77.384 68.2447 77 66.666 76.232C65.0873 75.464 63.818 74.376 62.858 72.968L65.578 69.672C67.1567 71.8693 69.2473 72.968 71.85 72.968C72.8313 72.968 73.642 72.7333 74.282 72.264C74.922 71.7947 75.242 71.1867 75.242 70.44C75.242 69.4587 74.5273 68.6373 73.098 67.976C72.9273 67.8907 72.1487 67.5813 70.762 67.048C69.674 66.6213 68.746 66.1947 67.978 65.768C65.482 64.3387 64.234 62.376 64.234 59.88C64.234 57.896 64.9807 56.2533 66.474 54.952C67.9887 53.6293 69.93 52.968 72.298 52.968C75.37 52.968 77.962 54.0347 80.074 56.168L77.546 59.624C76.906 58.9413 76.106 58.408 75.146 58.024C74.2073 57.6187 73.2793 57.416 72.362 57.416C71.4233 57.416 70.6767 57.6293 70.122 58.056C69.5887 58.4613 69.322 59.0053 69.322 59.688C69.322 60.6053 69.962 61.384 71.242 62.024L73.578 63.048C74.9007 63.6027 75.8607 64.0187 76.458 64.296C79.146 65.5973 80.49 67.56 80.49 70.184C80.49 72.296 79.69 74.024 78.09 75.368C76.49 76.712 74.3993 77.384 71.818 77.384ZM86.9148 77H81.3468L88.9308 65.032L81.8588 53.352H87.3308L91.9388 61.448L96.7708 53.352H102.339L94.8828 65.032L102.307 77H96.8348L91.9068 68.712L86.9148 77Z" fill="black"/>
<line y1="102" x2="119" y2="102" stroke="black" stroke-width="4"/>
<line x1="25" y1="125" x2="91" y2="125" stroke="black" stroke-width="4"/>
<circle cx="99.5" cy="126.5" r="33.5" fill="white"/>
<path d="M99.5003 154.417C114.91 154.417 127.417 141.91 127.417 126.5C127.417 111.09 114.91 98.5837 99.5003 98.5837C84.0903 98.5837 71.5837 111.09 71.5837 126.5C71.5837 141.91 84.0903 154.417 99.5003 154.417ZM89.6457 126.417C90.0645 125.998 90.5949 125.802 91.1253 125.802C91.6557 125.802 92.1862 125.998 92.6049 126.417L97.4066 131.218V116.729C97.4066 115.585 98.3557 114.636 99.5003 114.636C100.645 114.636 101.594 115.585 101.594 116.729V131.218L106.396 126.417C107.205 125.607 108.545 125.607 109.355 126.417C110.164 127.226 110.164 128.566 109.355 129.376L100.98 137.751C100.17 138.56 98.8303 138.56 98.0207 137.751L89.6457 129.376C88.8362 128.566 88.8362 127.226 89.6457 126.417Z" fill="#F71A1A"/>
</svg>
