<svg width="25" height="24" viewBox="0 0 25 24" fill="none" xmlns="http://www.w3.org/2000/svg">
<path d="M15.52 3.01001C14.68 2.37001 13.64 2 12.5 2C9.74 2 7.5 4.24 7.5 7C7.5 9.76 9.74 12 12.5 12C15.26 12 17.5 9.76 17.5 7" stroke="#171717" stroke-width="1.5" stroke-linecap="round" stroke-linejoin="round"/>
<path d="M3.90991 22C3.90991 18.13 7.75991 15 12.4999 15C13.4599 15 14.3899 15.13 15.2599 15.37" stroke="#171717" stroke-width="1.5" stroke-linecap="round" stroke-linejoin="round"/>
<path d="M22.5 18C22.5 18.75 22.29 19.46 21.92 20.06C21.71 20.42 21.44 20.74 21.13 21C20.43 21.63 19.51 22 18.5 22C17.04 22 15.77 21.22 15.08 20.06C14.71 19.46 14.5 18.75 14.5 18C14.5 16.74 15.08 15.61 16 14.88C16.69 14.33 17.56 14 18.5 14C20.71 14 22.5 15.79 22.5 18Z" stroke="#171717" stroke-width="1.5" stroke-miterlimit="10" stroke-linecap="round" stroke-linejoin="round"/>
<path d="M16.9399 18L17.9299 18.99L20.0599 17.02" stroke="#171717" stroke-width="1.5" stroke-linecap="round" stroke-linejoin="round"/>
</svg>
