<svg width="135" height="161" viewBox="0 0 135 161" fill="none" xmlns="http://www.w3.org/2000/svg">
<path d="M117 151H2V2H80.63L117 33.8681V151Z" fill="white" stroke="black" stroke-width="4"/>
<path d="M83 23V4.38573L113.647 31H91C86.5817 31 83 27.4183 83 23Z" fill="white" stroke="black" stroke-width="4"/>
<path d="M29.624 53.352H38.36C41.144 53.352 43.224 54.12 44.6 55.624C46.008 57.128 46.712 58.984 46.712 61.16C46.712 63.368 45.976 65.192 44.536 66.664C43.096 68.104 40.92 68.84 38.008 68.84H34.36V77H29.624V53.352ZM34.36 64.552H38.168C40.6 64.552 41.88 63.016 41.88 61.096C41.88 59.208 40.568 57.736 38.424 57.736H34.36V64.552ZM59.1175 77H50.0615V53.352H59.3095C62.8615 53.352 65.6455 54.408 67.6615 56.552C69.6775 58.664 70.7015 61.544 70.7015 65.224C70.7015 68.84 69.6775 71.72 67.5975 73.832C65.5495 75.944 62.7335 77 59.1175 77ZM54.7975 57.896V72.456H59.3415C61.3895 72.456 62.9575 71.752 64.0775 70.376C65.1975 69 65.7735 67.24 65.7735 65.128C65.7735 63.048 65.1975 61.352 64.0775 59.976C62.9575 58.6 61.3895 57.896 59.3415 57.896H54.7975ZM79.4225 77H74.6865V53.352H90.4625V57.832H79.4225V63.144H89.1185V67.592H79.4225V77Z" fill="black"/>
<line y1="102" x2="119" y2="102" stroke="black" stroke-width="4"/>
<line x1="25" y1="125" x2="91" y2="125" stroke="black" stroke-width="4"/>
<circle cx="99.5" cy="126.5" r="33.5" fill="white"/>
<path d="M99.8905 98.5901C84.4841 98.9269 72.2538 111.704 72.5905 127.11C72.9273 142.517 85.7042 154.747 101.111 154.41C116.517 154.073 128.747 141.296 128.411 125.89C128.074 110.484 115.297 98.2534 99.8905 98.5901ZM110.355 126.369C109.945 126.796 109.419 127.003 108.889 127.015C108.358 127.026 107.824 126.843 107.396 126.433L102.491 121.738L102.807 136.223C102.832 137.367 101.904 138.337 100.76 138.362C99.6155 138.387 98.6458 137.459 98.6208 136.314L98.3042 121.829L93.6086 126.735C92.8169 127.562 91.4772 127.591 90.6501 126.799C89.823 126.008 89.7938 124.668 90.5855 123.841L98.7754 115.285C99.5671 114.458 100.907 114.428 101.734 115.22L110.29 123.41C111.117 124.202 111.146 125.541 110.355 126.369Z" fill="#F71A1A"/>
</svg>
