<svg width="133" height="160" viewBox="0 0 133 160" fill="none" xmlns="http://www.w3.org/2000/svg">
<path d="M117 151H2V2H80.63L117 33.8681V151Z" fill="white" stroke="black" stroke-width="4"/>
<path d="M83 23V4.38573L113.647 31H91C86.5817 31 83 27.4183 83 23Z" fill="white" stroke="black" stroke-width="4"/>
<path d="M23.368 68.36V53.352H28.136V68.04C28.136 69.5973 28.5307 70.7813 29.32 71.592C30.1093 72.4027 31.208 72.808 32.616 72.808C33.9813 72.808 35.0587 72.392 35.848 71.56C36.6373 70.728 37.032 69.5547 37.032 68.04V53.352H41.832V68.36C41.832 71.3253 40.9573 73.576 39.208 75.112C37.48 76.648 35.2827 77.416 32.616 77.416C29.9493 77.416 27.7413 76.648 25.992 75.112C24.2427 73.576 23.368 71.3253 23.368 68.36ZM62.2995 67.976V53.352H66.9715V77H63.7395L51.4835 62.504V77H46.8115V53.352H49.8195L62.2995 67.976ZM92.2498 77H86.4258L79.8658 67.624L76.9538 71.112V77H72.2178V53.352H76.9538V64.52L85.9138 53.352H91.6418L82.9698 64.104L92.2498 77Z" fill="black"/>
<line y1="102" x2="119" y2="102" stroke="black" stroke-width="4"/>
<line x1="25" y1="125" x2="91" y2="125" stroke="black" stroke-width="4"/>
<circle cx="99.5" cy="126.5" r="33.5" fill="white"/>
<path d="M99.9163 152.833C115.326 152.833 127.833 140.326 127.833 124.916C127.833 109.506 115.326 96.9997 99.9163 96.9997C84.5063 96.9997 71.9997 109.506 71.9997 124.916C71.9997 140.326 84.5063 152.833 99.9163 152.833ZM97.8205 135C97.8208 134.202 97.8207 134.367 97.8211 133.5C97.8207 134.339 97.8211 133.5 97.8218 131.753L97.8226 129.634L97.8226 115.146C97.8226 114.001 98.7718 113.052 99.9163 113.052C101.061 113.052 102.01 114.001 102.01 115.146L102.01 129.634L102.01 132C102.82 131.19 102 128 102.01 133.142C102 134.5 102 133 102.01 134.5L102.01 136.167C101.2 136.976 98.6296 136.976 97.82 136.167L97.8201 136C97.8205 134.835 97.8201 135.798 97.8205 135Z" fill="#F71A1A"/>
<path d="M103.5 141.5C103.5 143.433 101.933 145 100 145C98.067 145 96.5 143.433 96.5 141.5C96.5 139.567 98.067 138 100 138C101.933 138 103.5 139.567 103.5 141.5Z" fill="white" fill-opacity="0.85"/>
</svg>
